<?xml version="1.0" encoding="utf-8" standalone="no"?>
<!DOCTYPE svg PUBLIC "-//W3C//DTD SVG 1.1//EN"
  "http://www.w3.org/Graphics/SVG/1.1/DTD/svg11.dtd">
<!-- Created with matplotlib (https://matplotlib.org/) -->
<svg height="345.6pt" version="1.1" viewBox="0 0 460.8 345.6" width="460.8pt" xmlns="http://www.w3.org/2000/svg" xmlns:xlink="http://www.w3.org/1999/xlink">
 <defs>
  <style type="text/css">
*{stroke-linecap:butt;stroke-linejoin:round;}
  </style>
 </defs>
 <g id="figure_1">
  <g id="patch_1">
   <path d="M 0 345.6 
L 460.8 345.6 
L 460.8 0 
L 0 0 
z
" style="fill:#121212;"/>
  </g>
  <g id="axes_1">
   <g id="patch_2">
    <path d="M 57.6 307.584 
L 414.72 307.584 
L 414.72 41.472 
L 57.6 41.472 
z
" style="fill:#121212;"/>
   </g>
   <g id="matplotlib.axis_1">
    <g id="xtick_1">
     <g id="line2d_1">
      <path clip-path="url(#pd639fd4ed1)" d="M 73.832727 307.584 
L 73.832727 41.472 
" style="fill:none;stroke:#ffffff;stroke-linecap:square;stroke-opacity:0.3;stroke-width:0.8;"/>
     </g>
     <g id="line2d_2">
      <defs>
       <path d="M 0 0 
L 0 3.5 
" id="m0e656db5d0" style="stroke:#ffffff;stroke-width:0.8;"/>
      </defs>
      <g>
       <use style="fill:#ffffff;stroke:#ffffff;stroke-width:0.8;" x="73.832727" xlink:href="#m0e656db5d0" y="307.584"/>
      </g>
     </g>
     <g id="text_1">
      <!-- 0.0 -->
      <defs>
       <path d="M 31.78125 66.40625 
Q 24.171875 66.40625 20.328125 58.90625 
Q 16.5 51.421875 16.5 36.375 
Q 16.5 21.390625 20.328125 13.890625 
Q 24.171875 6.390625 31.78125 6.390625 
Q 39.453125 6.390625 43.28125 13.890625 
Q 47.125 21.390625 47.125 36.375 
Q 47.125 51.421875 43.28125 58.90625 
Q 39.453125 66.40625 31.78125 66.40625 
z
M 31.78125 74.21875 
Q 44.046875 74.21875 50.515625 64.515625 
Q 56.984375 54.828125 56.984375 36.375 
Q 56.984375 17.96875 50.515625 8.265625 
Q 44.046875 -1.421875 31.78125 -1.421875 
Q 19.53125 -1.421875 13.0625 8.265625 
Q 6.59375 17.96875 6.59375 36.375 
Q 6.59375 54.828125 13.0625 64.515625 
Q 19.53125 74.21875 31.78125 74.21875 
z
" id="DejaVuSans-48"/>
       <path d="M 10.6875 12.40625 
L 21 12.40625 
L 21 0 
L 10.6875 0 
z
" id="DejaVuSans-46"/>
      </defs>
      <g style="fill:#ffffff;" transform="translate(65.881165 322.182437)scale(0.1 -0.1)">
       <use xlink:href="#DejaVuSans-48"/>
       <use x="63.623047" xlink:href="#DejaVuSans-46"/>
       <use x="95.410156" xlink:href="#DejaVuSans-48"/>
      </g>
     </g>
    </g>
    <g id="xtick_2">
     <g id="line2d_3">
      <path clip-path="url(#pd639fd4ed1)" d="M 128.032151 307.584 
L 128.032151 41.472 
" style="fill:none;stroke:#ffffff;stroke-linecap:square;stroke-opacity:0.3;stroke-width:0.8;"/>
     </g>
     <g id="line2d_4">
      <g>
       <use style="fill:#ffffff;stroke:#ffffff;stroke-width:0.8;" x="128.032151" xlink:href="#m0e656db5d0" y="307.584"/>
      </g>
     </g>
     <g id="text_2">
      <!-- 0.1 -->
      <defs>
       <path d="M 12.40625 8.296875 
L 28.515625 8.296875 
L 28.515625 63.921875 
L 10.984375 60.40625 
L 10.984375 69.390625 
L 28.421875 72.90625 
L 38.28125 72.90625 
L 38.28125 8.296875 
L 54.390625 8.296875 
L 54.390625 0 
L 12.40625 0 
z
" id="DejaVuSans-49"/>
      </defs>
      <g style="fill:#ffffff;" transform="translate(120.080588 322.182437)scale(0.1 -0.1)">
       <use xlink:href="#DejaVuSans-48"/>
       <use x="63.623047" xlink:href="#DejaVuSans-46"/>
       <use x="95.410156" xlink:href="#DejaVuSans-49"/>
      </g>
     </g>
    </g>
    <g id="xtick_3">
     <g id="line2d_5">
      <path clip-path="url(#pd639fd4ed1)" d="M 182.231574 307.584 
L 182.231574 41.472 
" style="fill:none;stroke:#ffffff;stroke-linecap:square;stroke-opacity:0.3;stroke-width:0.8;"/>
     </g>
     <g id="line2d_6">
      <g>
       <use style="fill:#ffffff;stroke:#ffffff;stroke-width:0.8;" x="182.231574" xlink:href="#m0e656db5d0" y="307.584"/>
      </g>
     </g>
     <g id="text_3">
      <!-- 0.2 -->
      <defs>
       <path d="M 19.1875 8.296875 
L 53.609375 8.296875 
L 53.609375 0 
L 7.328125 0 
L 7.328125 8.296875 
Q 12.9375 14.109375 22.625 23.890625 
Q 32.328125 33.6875 34.8125 36.53125 
Q 39.546875 41.84375 41.421875 45.53125 
Q 43.3125 49.21875 43.3125 52.78125 
Q 43.3125 58.59375 39.234375 62.25 
Q 35.15625 65.921875 28.609375 65.921875 
Q 23.96875 65.921875 18.8125 64.3125 
Q 13.671875 62.703125 7.8125 59.421875 
L 7.8125 69.390625 
Q 13.765625 71.78125 18.9375 73 
Q 24.125 74.21875 28.421875 74.21875 
Q 39.75 74.21875 46.484375 68.546875 
Q 53.21875 62.890625 53.21875 53.421875 
Q 53.21875 48.921875 51.53125 44.890625 
Q 49.859375 40.875 45.40625 35.40625 
Q 44.1875 33.984375 37.640625 27.21875 
Q 31.109375 20.453125 19.1875 8.296875 
z
" id="DejaVuSans-50"/>
      </defs>
      <g style="fill:#ffffff;" transform="translate(174.280011 322.182437)scale(0.1 -0.1)">
       <use xlink:href="#DejaVuSans-48"/>
       <use x="63.623047" xlink:href="#DejaVuSans-46"/>
       <use x="95.410156" xlink:href="#DejaVuSans-50"/>
      </g>
     </g>
    </g>
    <g id="xtick_4">
     <g id="line2d_7">
      <path clip-path="url(#pd639fd4ed1)" d="M 236.430997 307.584 
L 236.430997 41.472 
" style="fill:none;stroke:#ffffff;stroke-linecap:square;stroke-opacity:0.3;stroke-width:0.8;"/>
     </g>
     <g id="line2d_8">
      <g>
       <use style="fill:#ffffff;stroke:#ffffff;stroke-width:0.8;" x="236.430997" xlink:href="#m0e656db5d0" y="307.584"/>
      </g>
     </g>
     <g id="text_4">
      <!-- 0.3 -->
      <defs>
       <path d="M 40.578125 39.3125 
Q 47.65625 37.796875 51.625 33 
Q 55.609375 28.21875 55.609375 21.1875 
Q 55.609375 10.40625 48.1875 4.484375 
Q 40.765625 -1.421875 27.09375 -1.421875 
Q 22.515625 -1.421875 17.65625 -0.515625 
Q 12.796875 0.390625 7.625 2.203125 
L 7.625 11.71875 
Q 11.71875 9.328125 16.59375 8.109375 
Q 21.484375 6.890625 26.8125 6.890625 
Q 36.078125 6.890625 40.9375 10.546875 
Q 45.796875 14.203125 45.796875 21.1875 
Q 45.796875 27.640625 41.28125 31.265625 
Q 36.765625 34.90625 28.71875 34.90625 
L 20.21875 34.90625 
L 20.21875 43.015625 
L 29.109375 43.015625 
Q 36.375 43.015625 40.234375 45.921875 
Q 44.09375 48.828125 44.09375 54.296875 
Q 44.09375 59.90625 40.109375 62.90625 
Q 36.140625 65.921875 28.71875 65.921875 
Q 24.65625 65.921875 20.015625 65.03125 
Q 15.375 64.15625 9.8125 62.3125 
L 9.8125 71.09375 
Q 15.4375 72.65625 20.34375 73.4375 
Q 25.25 74.21875 29.59375 74.21875 
Q 40.828125 74.21875 47.359375 69.109375 
Q 53.90625 64.015625 53.90625 55.328125 
Q 53.90625 49.265625 50.4375 45.09375 
Q 46.96875 40.921875 40.578125 39.3125 
z
" id="DejaVuSans-51"/>
      </defs>
      <g style="fill:#ffffff;" transform="translate(228.479435 322.182437)scale(0.1 -0.1)">
       <use xlink:href="#DejaVuSans-48"/>
       <use x="63.623047" xlink:href="#DejaVuSans-46"/>
       <use x="95.410156" xlink:href="#DejaVuSans-51"/>
      </g>
     </g>
    </g>
    <g id="xtick_5">
     <g id="line2d_9">
      <path clip-path="url(#pd639fd4ed1)" d="M 290.63042 307.584 
L 290.63042 41.472 
" style="fill:none;stroke:#ffffff;stroke-linecap:square;stroke-opacity:0.3;stroke-width:0.8;"/>
     </g>
     <g id="line2d_10">
      <g>
       <use style="fill:#ffffff;stroke:#ffffff;stroke-width:0.8;" x="290.63042" xlink:href="#m0e656db5d0" y="307.584"/>
      </g>
     </g>
     <g id="text_5">
      <!-- 0.4 -->
      <defs>
       <path d="M 37.796875 64.3125 
L 12.890625 25.390625 
L 37.796875 25.390625 
z
M 35.203125 72.90625 
L 47.609375 72.90625 
L 47.609375 25.390625 
L 58.015625 25.390625 
L 58.015625 17.1875 
L 47.609375 17.1875 
L 47.609375 0 
L 37.796875 0 
L 37.796875 17.1875 
L 4.890625 17.1875 
L 4.890625 26.703125 
z
" id="DejaVuSans-52"/>
      </defs>
      <g style="fill:#ffffff;" transform="translate(282.678858 322.182437)scale(0.1 -0.1)">
       <use xlink:href="#DejaVuSans-48"/>
       <use x="63.623047" xlink:href="#DejaVuSans-46"/>
       <use x="95.410156" xlink:href="#DejaVuSans-52"/>
      </g>
     </g>
    </g>
    <g id="xtick_6">
     <g id="line2d_11">
      <path clip-path="url(#pd639fd4ed1)" d="M 344.829844 307.584 
L 344.829844 41.472 
" style="fill:none;stroke:#ffffff;stroke-linecap:square;stroke-opacity:0.3;stroke-width:0.8;"/>
     </g>
     <g id="line2d_12">
      <g>
       <use style="fill:#ffffff;stroke:#ffffff;stroke-width:0.8;" x="344.829844" xlink:href="#m0e656db5d0" y="307.584"/>
      </g>
     </g>
     <g id="text_6">
      <!-- 0.5 -->
      <defs>
       <path d="M 10.796875 72.90625 
L 49.515625 72.90625 
L 49.515625 64.59375 
L 19.828125 64.59375 
L 19.828125 46.734375 
Q 21.96875 47.46875 24.109375 47.828125 
Q 26.265625 48.1875 28.421875 48.1875 
Q 40.625 48.1875 47.75 41.5 
Q 54.890625 34.8125 54.890625 23.390625 
Q 54.890625 11.625 47.5625 5.09375 
Q 40.234375 -1.421875 26.90625 -1.421875 
Q 22.3125 -1.421875 17.546875 -0.640625 
Q 12.796875 0.140625 7.71875 1.703125 
L 7.71875 11.625 
Q 12.109375 9.234375 16.796875 8.0625 
Q 21.484375 6.890625 26.703125 6.890625 
Q 35.15625 6.890625 40.078125 11.328125 
Q 45.015625 15.765625 45.015625 23.390625 
Q 45.015625 31 40.078125 35.4375 
Q 35.15625 39.890625 26.703125 39.890625 
Q 22.75 39.890625 18.8125 39.015625 
Q 14.890625 38.140625 10.796875 36.28125 
z
" id="DejaVuSans-53"/>
      </defs>
      <g style="fill:#ffffff;" transform="translate(336.878281 322.182437)scale(0.1 -0.1)">
       <use xlink:href="#DejaVuSans-48"/>
       <use x="63.623047" xlink:href="#DejaVuSans-46"/>
       <use x="95.410156" xlink:href="#DejaVuSans-53"/>
      </g>
     </g>
    </g>
    <g id="xtick_7">
     <g id="line2d_13">
      <path clip-path="url(#pd639fd4ed1)" d="M 399.029267 307.584 
L 399.029267 41.472 
" style="fill:none;stroke:#ffffff;stroke-linecap:square;stroke-opacity:0.3;stroke-width:0.8;"/>
     </g>
     <g id="line2d_14">
      <g>
       <use style="fill:#ffffff;stroke:#ffffff;stroke-width:0.8;" x="399.029267" xlink:href="#m0e656db5d0" y="307.584"/>
      </g>
     </g>
     <g id="text_7">
      <!-- 0.6 -->
      <defs>
       <path d="M 33.015625 40.375 
Q 26.375 40.375 22.484375 35.828125 
Q 18.609375 31.296875 18.609375 23.390625 
Q 18.609375 15.53125 22.484375 10.953125 
Q 26.375 6.390625 33.015625 6.390625 
Q 39.65625 6.390625 43.53125 10.953125 
Q 47.40625 15.53125 47.40625 23.390625 
Q 47.40625 31.296875 43.53125 35.828125 
Q 39.65625 40.375 33.015625 40.375 
z
M 52.59375 71.296875 
L 52.59375 62.3125 
Q 48.875 64.0625 45.09375 64.984375 
Q 41.3125 65.921875 37.59375 65.921875 
Q 27.828125 65.921875 22.671875 59.328125 
Q 17.53125 52.734375 16.796875 39.40625 
Q 19.671875 43.65625 24.015625 45.921875 
Q 28.375 48.1875 33.59375 48.1875 
Q 44.578125 48.1875 50.953125 41.515625 
Q 57.328125 34.859375 57.328125 23.390625 
Q 57.328125 12.15625 50.6875 5.359375 
Q 44.046875 -1.421875 33.015625 -1.421875 
Q 20.359375 -1.421875 13.671875 8.265625 
Q 6.984375 17.96875 6.984375 36.375 
Q 6.984375 53.65625 15.1875 63.9375 
Q 23.390625 74.21875 37.203125 74.21875 
Q 40.921875 74.21875 44.703125 73.484375 
Q 48.484375 72.75 52.59375 71.296875 
z
" id="DejaVuSans-54"/>
      </defs>
      <g style="fill:#ffffff;" transform="translate(391.077704 322.182437)scale(0.1 -0.1)">
       <use xlink:href="#DejaVuSans-48"/>
       <use x="63.623047" xlink:href="#DejaVuSans-46"/>
       <use x="95.410156" xlink:href="#DejaVuSans-54"/>
      </g>
     </g>
    </g>
    <g id="text_8">
     <!-- Time -->
     <defs>
      <path d="M -0.296875 72.90625 
L 61.375 72.90625 
L 61.375 64.59375 
L 35.5 64.59375 
L 35.5 0 
L 25.59375 0 
L 25.59375 64.59375 
L -0.296875 64.59375 
z
" id="DejaVuSans-84"/>
      <path d="M 9.421875 54.6875 
L 18.40625 54.6875 
L 18.40625 0 
L 9.421875 0 
z
M 9.421875 75.984375 
L 18.40625 75.984375 
L 18.40625 64.59375 
L 9.421875 64.59375 
z
" id="DejaVuSans-105"/>
      <path d="M 52 44.1875 
Q 55.375 50.25 60.0625 53.125 
Q 64.75 56 71.09375 56 
Q 79.640625 56 84.28125 50.015625 
Q 88.921875 44.046875 88.921875 33.015625 
L 88.921875 0 
L 79.890625 0 
L 79.890625 32.71875 
Q 79.890625 40.578125 77.09375 44.375 
Q 74.3125 48.1875 68.609375 48.1875 
Q 61.625 48.1875 57.5625 43.546875 
Q 53.515625 38.921875 53.515625 30.90625 
L 53.515625 0 
L 44.484375 0 
L 44.484375 32.71875 
Q 44.484375 40.625 41.703125 44.40625 
Q 38.921875 48.1875 33.109375 48.1875 
Q 26.21875 48.1875 22.15625 43.53125 
Q 18.109375 38.875 18.109375 30.90625 
L 18.109375 0 
L 9.078125 0 
L 9.078125 54.6875 
L 18.109375 54.6875 
L 18.109375 46.1875 
Q 21.1875 51.21875 25.484375 53.609375 
Q 29.78125 56 35.6875 56 
Q 41.65625 56 45.828125 52.96875 
Q 50 49.953125 52 44.1875 
z
" id="DejaVuSans-109"/>
      <path d="M 56.203125 29.59375 
L 56.203125 25.203125 
L 14.890625 25.203125 
Q 15.484375 15.921875 20.484375 11.0625 
Q 25.484375 6.203125 34.421875 6.203125 
Q 39.59375 6.203125 44.453125 7.46875 
Q 49.3125 8.734375 54.109375 11.28125 
L 54.109375 2.78125 
Q 49.265625 0.734375 44.1875 -0.34375 
Q 39.109375 -1.421875 33.890625 -1.421875 
Q 20.796875 -1.421875 13.15625 6.1875 
Q 5.515625 13.8125 5.515625 26.8125 
Q 5.515625 40.234375 12.765625 48.109375 
Q 20.015625 56 32.328125 56 
Q 43.359375 56 49.78125 48.890625 
Q 56.203125 41.796875 56.203125 29.59375 
z
M 47.21875 32.234375 
Q 47.125 39.59375 43.09375 43.984375 
Q 39.0625 48.390625 32.421875 48.390625 
Q 24.90625 48.390625 20.390625 44.140625 
Q 15.875 39.890625 15.1875 32.171875 
z
" id="DejaVuSans-101"/>
     </defs>
     <g style="fill:#ffffff;" transform="translate(223.7725 335.860562)scale(0.1 -0.1)">
      <use xlink:href="#DejaVuSans-84"/>
      <use x="61.037109" xlink:href="#DejaVuSans-105"/>
      <use x="88.820312" xlink:href="#DejaVuSans-109"/>
      <use x="186.232422" xlink:href="#DejaVuSans-101"/>
     </g>
    </g>
   </g>
   <g id="matplotlib.axis_2">
    <g id="ytick_1">
     <g id="line2d_15">
      <path clip-path="url(#pd639fd4ed1)" d="M 57.6 289.136311 
L 414.72 289.136311 
" style="fill:none;stroke:#ffffff;stroke-linecap:square;stroke-opacity:0.3;stroke-width:0.8;"/>
     </g>
     <g id="line2d_16">
      <defs>
       <path d="M 0 0 
L -3.5 0 
" id="m9a3d1e42c4" style="stroke:#ffffff;stroke-width:0.8;"/>
      </defs>
      <g>
       <use style="fill:#ffffff;stroke:#ffffff;stroke-width:0.8;" x="57.6" xlink:href="#m9a3d1e42c4" y="289.136311"/>
      </g>
     </g>
     <g id="text_9">
      <!-- −1.0 -->
      <defs>
       <path d="M 10.59375 35.5 
L 73.1875 35.5 
L 73.1875 27.203125 
L 10.59375 27.203125 
z
" id="DejaVuSans-8722"/>
      </defs>
      <g style="fill:#ffffff;" transform="translate(26.317187 292.935529)scale(0.1 -0.1)">
       <use xlink:href="#DejaVuSans-8722"/>
       <use x="83.789062" xlink:href="#DejaVuSans-49"/>
       <use x="147.412109" xlink:href="#DejaVuSans-46"/>
       <use x="179.199219" xlink:href="#DejaVuSans-48"/>
      </g>
     </g>
    </g>
    <g id="ytick_2">
     <g id="line2d_17">
      <path clip-path="url(#pd639fd4ed1)" d="M 57.6 230.665495 
L 414.72 230.665495 
" style="fill:none;stroke:#ffffff;stroke-linecap:square;stroke-opacity:0.3;stroke-width:0.8;"/>
     </g>
     <g id="line2d_18">
      <g>
       <use style="fill:#ffffff;stroke:#ffffff;stroke-width:0.8;" x="57.6" xlink:href="#m9a3d1e42c4" y="230.665495"/>
      </g>
     </g>
     <g id="text_10">
      <!-- −0.5 -->
      <g style="fill:#ffffff;" transform="translate(26.317187 234.464714)scale(0.1 -0.1)">
       <use xlink:href="#DejaVuSans-8722"/>
       <use x="83.789062" xlink:href="#DejaVuSans-48"/>
       <use x="147.412109" xlink:href="#DejaVuSans-46"/>
       <use x="179.199219" xlink:href="#DejaVuSans-53"/>
      </g>
     </g>
    </g>
    <g id="ytick_3">
     <g id="line2d_19">
      <path clip-path="url(#pd639fd4ed1)" d="M 57.6 172.19468 
L 414.72 172.19468 
" style="fill:none;stroke:#ffffff;stroke-linecap:square;stroke-opacity:0.3;stroke-width:0.8;"/>
     </g>
     <g id="line2d_20">
      <g>
       <use style="fill:#ffffff;stroke:#ffffff;stroke-width:0.8;" x="57.6" xlink:href="#m9a3d1e42c4" y="172.19468"/>
      </g>
     </g>
     <g id="text_11">
      <!-- 0.0 -->
      <g style="fill:#ffffff;" transform="translate(34.696875 175.993899)scale(0.1 -0.1)">
       <use xlink:href="#DejaVuSans-48"/>
       <use x="63.623047" xlink:href="#DejaVuSans-46"/>
       <use x="95.410156" xlink:href="#DejaVuSans-48"/>
      </g>
     </g>
    </g>
    <g id="ytick_4">
     <g id="line2d_21">
      <path clip-path="url(#pd639fd4ed1)" d="M 57.6 113.723865 
L 414.72 113.723865 
" style="fill:none;stroke:#ffffff;stroke-linecap:square;stroke-opacity:0.3;stroke-width:0.8;"/>
     </g>
     <g id="line2d_22">
      <g>
       <use style="fill:#ffffff;stroke:#ffffff;stroke-width:0.8;" x="57.6" xlink:href="#m9a3d1e42c4" y="113.723865"/>
      </g>
     </g>
     <g id="text_12">
      <!-- 0.5 -->
      <g style="fill:#ffffff;" transform="translate(34.696875 117.523084)scale(0.1 -0.1)">
       <use xlink:href="#DejaVuSans-48"/>
       <use x="63.623047" xlink:href="#DejaVuSans-46"/>
       <use x="95.410156" xlink:href="#DejaVuSans-53"/>
      </g>
     </g>
    </g>
    <g id="ytick_5">
     <g id="line2d_23">
      <path clip-path="url(#pd639fd4ed1)" d="M 57.6 55.25305 
L 414.72 55.25305 
" style="fill:none;stroke:#ffffff;stroke-linecap:square;stroke-opacity:0.3;stroke-width:0.8;"/>
     </g>
     <g id="line2d_24">
      <g>
       <use style="fill:#ffffff;stroke:#ffffff;stroke-width:0.8;" x="57.6" xlink:href="#m9a3d1e42c4" y="55.25305"/>
      </g>
     </g>
     <g id="text_13">
      <!-- 1.0 -->
      <g style="fill:#ffffff;" transform="translate(34.696875 59.052269)scale(0.1 -0.1)">
       <use xlink:href="#DejaVuSans-49"/>
       <use x="63.623047" xlink:href="#DejaVuSans-46"/>
       <use x="95.410156" xlink:href="#DejaVuSans-48"/>
      </g>
     </g>
    </g>
    <g id="text_14">
     <!-- Signal Value -->
     <defs>
      <path d="M 53.515625 70.515625 
L 53.515625 60.890625 
Q 47.90625 63.578125 42.921875 64.890625 
Q 37.9375 66.21875 33.296875 66.21875 
Q 25.25 66.21875 20.875 63.09375 
Q 16.5 59.96875 16.5 54.203125 
Q 16.5 49.359375 19.40625 46.890625 
Q 22.3125 44.4375 30.421875 42.921875 
L 36.375 41.703125 
Q 47.40625 39.59375 52.65625 34.296875 
Q 57.90625 29 57.90625 20.125 
Q 57.90625 9.515625 50.796875 4.046875 
Q 43.703125 -1.421875 29.984375 -1.421875 
Q 24.8125 -1.421875 18.96875 -0.25 
Q 13.140625 0.921875 6.890625 3.21875 
L 6.890625 13.375 
Q 12.890625 10.015625 18.65625 8.296875 
Q 24.421875 6.59375 29.984375 6.59375 
Q 38.421875 6.59375 43.015625 9.90625 
Q 47.609375 13.234375 47.609375 19.390625 
Q 47.609375 24.75 44.3125 27.78125 
Q 41.015625 30.8125 33.5 32.328125 
L 27.484375 33.5 
Q 16.453125 35.6875 11.515625 40.375 
Q 6.59375 45.0625 6.59375 53.421875 
Q 6.59375 63.09375 13.40625 68.65625 
Q 20.21875 74.21875 32.171875 74.21875 
Q 37.3125 74.21875 42.625 73.28125 
Q 47.953125 72.359375 53.515625 70.515625 
z
" id="DejaVuSans-83"/>
      <path d="M 45.40625 27.984375 
Q 45.40625 37.75 41.375 43.109375 
Q 37.359375 48.484375 30.078125 48.484375 
Q 22.859375 48.484375 18.828125 43.109375 
Q 14.796875 37.75 14.796875 27.984375 
Q 14.796875 18.265625 18.828125 12.890625 
Q 22.859375 7.515625 30.078125 7.515625 
Q 37.359375 7.515625 41.375 12.890625 
Q 45.40625 18.265625 45.40625 27.984375 
z
M 54.390625 6.78125 
Q 54.390625 -7.171875 48.1875 -13.984375 
Q 42 -20.796875 29.203125 -20.796875 
Q 24.46875 -20.796875 20.265625 -20.09375 
Q 16.0625 -19.390625 12.109375 -17.921875 
L 12.109375 -9.1875 
Q 16.0625 -11.328125 19.921875 -12.34375 
Q 23.78125 -13.375 27.78125 -13.375 
Q 36.625 -13.375 41.015625 -8.765625 
Q 45.40625 -4.15625 45.40625 5.171875 
L 45.40625 9.625 
Q 42.625 4.78125 38.28125 2.390625 
Q 33.9375 0 27.875 0 
Q 17.828125 0 11.671875 7.65625 
Q 5.515625 15.328125 5.515625 27.984375 
Q 5.515625 40.671875 11.671875 48.328125 
Q 17.828125 56 27.875 56 
Q 33.9375 56 38.28125 53.609375 
Q 42.625 51.21875 45.40625 46.390625 
L 45.40625 54.6875 
L 54.390625 54.6875 
z
" id="DejaVuSans-103"/>
      <path d="M 54.890625 33.015625 
L 54.890625 0 
L 45.90625 0 
L 45.90625 32.71875 
Q 45.90625 40.484375 42.875 44.328125 
Q 39.84375 48.1875 33.796875 48.1875 
Q 26.515625 48.1875 22.3125 43.546875 
Q 18.109375 38.921875 18.109375 30.90625 
L 18.109375 0 
L 9.078125 0 
L 9.078125 54.6875 
L 18.109375 54.6875 
L 18.109375 46.1875 
Q 21.34375 51.125 25.703125 53.5625 
Q 30.078125 56 35.796875 56 
Q 45.21875 56 50.046875 50.171875 
Q 54.890625 44.34375 54.890625 33.015625 
z
" id="DejaVuSans-110"/>
      <path d="M 34.28125 27.484375 
Q 23.390625 27.484375 19.1875 25 
Q 14.984375 22.515625 14.984375 16.5 
Q 14.984375 11.71875 18.140625 8.90625 
Q 21.296875 6.109375 26.703125 6.109375 
Q 34.1875 6.109375 38.703125 11.40625 
Q 43.21875 16.703125 43.21875 25.484375 
L 43.21875 27.484375 
z
M 52.203125 31.203125 
L 52.203125 0 
L 43.21875 0 
L 43.21875 8.296875 
Q 40.140625 3.328125 35.546875 0.953125 
Q 30.953125 -1.421875 24.3125 -1.421875 
Q 15.921875 -1.421875 10.953125 3.296875 
Q 6 8.015625 6 15.921875 
Q 6 25.140625 12.171875 29.828125 
Q 18.359375 34.515625 30.609375 34.515625 
L 43.21875 34.515625 
L 43.21875 35.40625 
Q 43.21875 41.609375 39.140625 45 
Q 35.0625 48.390625 27.6875 48.390625 
Q 23 48.390625 18.546875 47.265625 
Q 14.109375 46.140625 10.015625 43.890625 
L 10.015625 52.203125 
Q 14.9375 54.109375 19.578125 55.046875 
Q 24.21875 56 28.609375 56 
Q 40.484375 56 46.34375 49.84375 
Q 52.203125 43.703125 52.203125 31.203125 
z
" id="DejaVuSans-97"/>
      <path d="M 9.421875 75.984375 
L 18.40625 75.984375 
L 18.40625 0 
L 9.421875 0 
z
" id="DejaVuSans-108"/>
      <path id="DejaVuSans-32"/>
      <path d="M 28.609375 0 
L 0.78125 72.90625 
L 11.078125 72.90625 
L 34.1875 11.53125 
L 57.328125 72.90625 
L 67.578125 72.90625 
L 39.796875 0 
z
" id="DejaVuSans-86"/>
      <path d="M 8.5 21.578125 
L 8.5 54.6875 
L 17.484375 54.6875 
L 17.484375 21.921875 
Q 17.484375 14.15625 20.5 10.265625 
Q 23.53125 6.390625 29.59375 6.390625 
Q 36.859375 6.390625 41.078125 11.03125 
Q 45.3125 15.671875 45.3125 23.6875 
L 45.3125 54.6875 
L 54.296875 54.6875 
L 54.296875 0 
L 45.3125 0 
L 45.3125 8.40625 
Q 42.046875 3.421875 37.71875 1 
Q 33.40625 -1.421875 27.6875 -1.421875 
Q 18.265625 -1.421875 13.375 4.4375 
Q 8.5 10.296875 8.5 21.578125 
z
M 31.109375 56 
z
" id="DejaVuSans-117"/>
     </defs>
     <g style="fill:#ffffff;" transform="translate(20.2375 205.589719)rotate(-90)scale(0.1 -0.1)">
      <use xlink:href="#DejaVuSans-83"/>
      <use x="63.476562" xlink:href="#DejaVuSans-105"/>
      <use x="91.259766" xlink:href="#DejaVuSans-103"/>
      <use x="154.736328" xlink:href="#DejaVuSans-110"/>
      <use x="218.115234" xlink:href="#DejaVuSans-97"/>
      <use x="279.394531" xlink:href="#DejaVuSans-108"/>
      <use x="307.177734" xlink:href="#DejaVuSans-32"/>
      <use x="338.964844" xlink:href="#DejaVuSans-86"/>
      <use x="407.263672" xlink:href="#DejaVuSans-97"/>
      <use x="468.542969" xlink:href="#DejaVuSans-108"/>
      <use x="496.326172" xlink:href="#DejaVuSans-117"/>
      <use x="559.705078" xlink:href="#DejaVuSans-101"/>
     </g>
    </g>
   </g>
   <g id="line2d_25">
    <path clip-path="url(#pd639fd4ed1)" d="M 73.832727 172.844403 
L 74.374722 171.501345 
L 74.916716 178.991646 
L 75.45871 172.50806 
L 76.000704 178.838754 
L 76.542698 171.870402 
L 77.084693 168.96713 
L 77.626687 166.708229 
L 78.168681 177.229331 
L 78.710675 170.534822 
L 79.25267 173.630871 
L 79.794664 168.714617 
L 80.336658 177.569179 
L 80.878652 174.9875 
L 81.420647 171.385053 
L 81.962641 171.046893 
L 82.504635 173.770192 
L 83.046629 175.519178 
L 83.588623 174.528475 
L 84.130618 173.194853 
L 85.214606 165.859819 
L 85.7566 165.468854 
L 86.298595 167.597154 
L 87.382583 177.134896 
L 87.924577 179.271749 
L 88.466572 177.283464 
L 89.55056 161.63805 
L 90.092554 157.55801 
L 90.634548 161.647606 
L 92.260531 188.147401 
L 92.802525 186.134976 
L 93.34452 175.058363 
L 93.886514 157.385876 
L 94.428508 145.082001 
L 94.970502 149.849069 
L 95.512497 164.947774 
L 96.054491 186.960146 
L 96.596485 191.52592 
L 97.138479 203.477243 
L 97.680474 187.153534 
L 98.222468 155.130313 
L 98.764462 131.708073 
L 99.306456 131.433792 
L 99.84845 144.50596 
L 100.390445 194.600736 
L 100.932439 219.858014 
L 101.474433 229.273299 
L 102.016427 210.990944 
L 102.558422 165.390712 
L 103.100416 130.094931 
L 103.64241 115.832613 
L 104.184404 127.259085 
L 105.268393 225.467509 
L 105.810387 253.870027 
L 106.352381 232.902218 
L 106.894375 181.566579 
L 107.43637 114.129759 
L 107.978364 82.250149 
L 108.520358 93.994336 
L 109.062352 154.704371 
L 109.604347 228.696863 
L 110.146341 271.226458 
L 110.688335 266.11406 
L 111.230329 201.272727 
L 111.772324 120.913585 
L 112.314318 67.212485 
L 112.856312 70.506102 
L 113.398306 125.11818 
L 113.940301 215.06564 
L 114.482295 278.537763 
L 115.024289 285.767224 
L 115.566283 230.557834 
L 116.108277 139.268718 
L 116.650272 67.376759 
L 117.192266 53.568 
L 117.73426 102.230777 
L 118.818249 274.3874 
L 119.360243 295.488 
L 119.902237 245.567764 
L 120.986226 81.176167 
L 121.52822 54.107424 
L 122.070214 94.621955 
L 123.154202 258.517983 
L 123.696197 286.374116 
L 124.238191 256.112168 
L 125.322179 94.41215 
L 125.864174 64.577691 
L 126.406168 92.388587 
L 127.490156 241.200351 
L 128.032151 273.481313 
L 128.574145 246.534639 
L 129.658133 106.071026 
L 130.200127 74.850048 
L 130.742122 99.608162 
L 131.82611 231.845132 
L 132.368104 261.082023 
L 132.910099 237.107132 
L 133.994087 112.515304 
L 134.536081 84.740315 
L 135.078076 108.931982 
L 136.162064 226.569621 
L 136.704058 251.841748 
L 137.246053 229.200277 
L 138.330041 117.432212 
L 138.872035 93.705169 
L 139.414029 115.439345 
L 140.498018 232.209851 
L 141.040012 255.627143 
L 141.582006 226.847236 
L 142.665995 116.477651 
L 143.207989 100.173401 
L 143.749983 128.218236 
L 144.833972 219.01687 
L 145.375966 242.777452 
L 145.91796 223.669779 
L 147.001949 116.837876 
L 147.543943 105.259593 
L 148.085937 124.413299 
L 149.169926 221.89194 
L 149.71192 238.541764 
L 150.253914 214.612212 
L 151.337903 119.380643 
L 151.879897 104.405266 
L 152.421891 127.230837 
L 153.505879 220.62036 
L 154.047874 239.550297 
L 154.589868 205.843698 
L 155.673856 120.928268 
L 156.215851 109.163295 
L 156.757845 125.075879 
L 157.299839 180.261892 
L 157.841833 222.0647 
L 158.383828 238.020469 
L 158.925822 211.115814 
L 159.467816 161.95059 
L 160.00981 123.770295 
L 160.551805 114.484982 
L 161.093799 132.275604 
L 161.635793 178.689686 
L 162.177787 210.375395 
L 162.719781 229.707039 
L 163.261776 218.602217 
L 164.345764 119.631783 
L 164.887758 109.315532 
L 165.429753 133.940072 
L 166.513741 216.443452 
L 167.055735 229.559371 
L 167.59773 210.15963 
L 168.681718 130.676192 
L 169.223712 116.004002 
L 169.765706 134.276337 
L 170.307701 178.455926 
L 170.849695 212.456449 
L 171.391689 227.207935 
L 171.933683 207.97867 
L 173.017672 128.109404 
L 173.559666 115.993405 
L 174.10166 135.440006 
L 175.185649 216.451779 
L 175.727643 224.909432 
L 176.269637 211.946698 
L 176.811632 179.826904 
L 177.353626 139.093243 
L 177.89562 123.912188 
L 178.437614 123.018406 
L 178.979608 167.944981 
L 179.521603 200.080638 
L 180.063597 217.290863 
L 180.605591 218.093623 
L 181.68958 148.815734 
L 182.231574 128.796334 
L 182.773568 132.838664 
L 183.315562 155.562793 
L 183.857557 185.776477 
L 184.399551 206.062278 
L 184.941545 208.298717 
L 185.483539 190.845395 
L 186.025533 163.597223 
L 186.567528 142.200778 
L 187.109522 134.535037 
L 187.651516 147.523465 
L 188.735505 192.124853 
L 189.277499 203.714065 
L 189.819493 198.088223 
L 191.445476 142.020092 
L 191.98747 141.570917 
L 192.529464 155.843948 
L 193.613453 195.436452 
L 194.155447 200.493367 
L 194.697441 190.822568 
L 195.78143 150.748186 
L 196.323424 139.489617 
L 196.865418 145.89026 
L 198.491401 202.205807 
L 199.033395 201.021387 
L 199.575389 183.9286 
L 200.117384 159.844808 
L 200.659378 140.881593 
L 201.201372 138.01437 
L 201.743366 152.305676 
L 202.827355 200.302477 
L 203.369349 206.708178 
L 203.911343 193.645922 
L 204.995332 147.240813 
L 205.537326 137.380371 
L 206.07932 144.685789 
L 207.163309 195.825048 
L 207.705303 210.069004 
L 208.247297 200.987448 
L 208.789291 178.946693 
L 209.331285 149.653638 
L 209.87328 130.900042 
L 210.415274 137.297185 
L 210.957268 160.952491 
L 211.499262 193.031692 
L 212.041257 210.462335 
L 212.583251 205.290869 
L 213.667239 165.501718 
L 214.209234 140.532611 
L 214.751228 148.645426 
L 215.293222 147.328983 
L 215.835216 182.767608 
L 216.377211 200.992823 
L 216.919205 207.849918 
L 217.461199 192.288884 
L 218.545187 144.748251 
L 219.087182 140.123308 
L 219.629176 149.633947 
L 220.17117 174.019372 
L 220.713164 191.786699 
L 221.255159 198.626468 
L 221.797153 190.740937 
L 222.881141 155.136508 
L 223.423136 146.920616 
L 223.96513 152.378549 
L 225.049118 180.437332 
L 225.591112 189.395105 
L 226.133107 186.158107 
L 227.217095 165.490102 
L 227.759089 158.617792 
L 228.301084 159.175602 
L 229.385072 171.825198 
L 229.927066 177.752476 
L 230.469061 178.588054 
L 231.011055 177.091141 
L 231.553049 174.190437 
L 232.095043 169.73919 
L 232.637037 168.277714 
L 233.179032 165.443299 
L 233.721026 164.458475 
L 234.805014 169.427006 
L 235.347009 173.460414 
L 235.889003 178.740955 
L 236.430997 179.908571 
L 236.972991 177.829948 
L 237.514986 170.87878 
L 238.05698 162.263827 
L 238.598974 157.129652 
L 239.140968 159.204861 
L 239.682963 167.084323 
L 240.224957 179.324428 
L 240.766951 188.045564 
L 241.308945 186.611227 
L 241.850939 177.648206 
L 242.934928 151.661529 
L 243.476922 150.539564 
L 244.018916 160.885786 
L 245.102905 191.072632 
L 245.644899 194.39344 
L 246.186893 185.180648 
L 247.270882 150.24079 
L 247.812876 150.726174 
L 248.35487 165.771476 
L 248.896864 171.797959 
L 249.438859 190.115046 
L 249.980853 198.465355 
L 250.522847 191.575627 
L 251.606836 152.87017 
L 252.14883 153.018343 
L 252.690824 147.209224 
L 253.232818 163.055211 
L 253.774813 186.924927 
L 254.316807 199.042702 
L 254.858801 202.170723 
L 255.400795 170.085407 
L 256.484784 143.020819 
L 257.026778 151.298404 
L 257.568772 164.743982 
L 258.652761 200.220971 
L 259.194755 194.494496 
L 259.736749 182.763799 
L 260.278743 161.278414 
L 260.820738 157.090011 
L 261.362732 150.037733 
L 261.904726 160.998411 
L 262.44672 169.433645 
L 262.988715 199.53792 
L 263.530709 188.227021 
L 264.072703 186.885935 
L 265.156691 157.566716 
L 265.698686 154.130916 
L 266.24068 160.800871 
L 267.324668 180.596352 
L 267.866663 184.441313 
L 268.408657 178.926799 
L 269.492645 162.290676 
L 270.03464 160.506296 
L 270.576634 164.398857 
L 271.118628 172.306268 
L 271.660622 178.480748 
L 272.202616 179.352518 
L 272.744611 174.097248 
L 273.286605 167.7238 
L 273.828599 164.171578 
L 274.370593 164.687984 
L 275.454582 174.880993 
L 275.996576 178.051239 
L 276.53857 175.685013 
L 277.080565 170.346498 
L 277.622559 163.907693 
L 278.164553 162.873423 
L 278.706547 165.803913 
L 279.248542 174.022941 
L 279.790536 179.20679 
L 280.33253 179.989848 
L 280.874524 176.415082 
L 281.958513 159.844456 
L 282.500507 159.531551 
L 283.042501 164.83955 
L 283.584495 175.367215 
L 284.12649 182.329603 
L 284.668484 184.48005 
L 285.210478 178.89684 
L 286.294467 158.667067 
L 286.836461 155.292744 
L 287.378455 160.652043 
L 288.462443 184.212546 
L 289.004438 188.62032 
L 289.546432 183.353546 
L 290.63042 157.645817 
L 291.172415 154.530296 
L 291.714409 157.204926 
L 292.798397 183.587096 
L 293.340392 188.398735 
L 293.882386 189.04946 
L 294.42438 178.916662 
L 295.508368 151.507655 
L 296.050363 155.652457 
L 297.134351 177.197258 
L 297.676345 190.179023 
L 298.21834 190.154569 
L 298.760334 180.940165 
L 299.302328 166.804681 
L 299.844322 157.54708 
L 300.386317 157.229872 
L 300.928311 161.151358 
L 301.470305 176.595253 
L 302.012299 184.026098 
L 302.554294 186.62143 
L 303.096288 182.097034 
L 303.638282 174.118071 
L 304.180276 161.894477 
L 304.72227 156.979159 
L 305.264265 160.362077 
L 306.348253 179.371234 
L 306.890247 183.364294 
L 307.432242 181.179806 
L 308.51623 163.667385 
L 309.058224 160.115641 
L 309.600219 162.023859 
L 310.142213 167.794849 
L 310.684207 175.274835 
L 311.226201 180.247401 
L 311.768195 179.076485 
L 312.31019 174.3563 
L 312.852184 167.543701 
L 313.394178 163.641116 
L 313.936172 164.020727 
L 314.478167 168.198382 
L 315.020161 173.558593 
L 315.562155 176.465694 
L 316.104149 177.110388 
L 316.646144 173.780907 
L 317.730132 165.898754 
L 318.272126 165.038983 
L 319.356115 175.863934 
L 319.898109 174.60492 
L 320.440103 177.9178 
L 320.982097 177.094311 
L 321.524092 171.473329 
L 322.066086 168.449151 
L 322.60808 169.35953 
L 323.150074 168.683915 
L 323.692069 171.5944 
L 324.234063 175.130465 
L 324.776057 176.17504 
L 325.318051 174.47851 
L 325.860046 167.092856 
L 326.40204 166.065754 
L 326.944034 166.161153 
L 327.486028 169.660395 
L 328.028022 184.431212 
L 328.570017 178.226428 
L 329.112011 185.166318 
L 329.654005 174.390521 
L 330.195999 167.428994 
L 330.737994 164.773672 
L 331.279988 165.212469 
L 331.821982 159.077411 
L 332.363976 176.200017 
L 332.905971 183.055195 
L 333.447965 181.11099 
L 333.989959 172.741755 
L 334.531953 171.454846 
L 335.615942 153.839082 
L 336.157936 163.924505 
L 336.69993 168.397599 
L 337.241924 177.561084 
L 337.783919 181.742299 
L 339.409901 167.010075 
L 339.951896 164.535586 
L 340.49389 159.741633 
L 341.035884 173.609827 
L 341.577878 170.84632 
L 342.119873 186.730245 
L 342.661867 189.408729 
L 343.203861 184.51936 
L 343.745855 165.973922 
L 344.287849 157.154465 
L 344.829844 154.315391 
L 345.371838 155.684378 
L 345.913832 182.470216 
L 346.455826 190.085178 
L 346.997821 185.578678 
L 348.623803 167.92183 
L 349.165798 157.02468 
L 349.707792 161.958975 
L 350.79178 180.134594 
L 351.333774 182.292266 
L 351.875769 178.778635 
L 352.959757 164.081539 
L 353.501751 159.905042 
L 354.043746 162.614374 
L 355.127734 177.368786 
L 355.669728 186.649192 
L 356.211723 180.345005 
L 356.753717 171.908826 
L 357.295711 160.395337 
L 357.837705 155.959424 
L 358.921694 176.21086 
L 359.463688 181.192496 
L 360.005682 181.635437 
L 360.547676 177.185121 
L 361.089671 170.124494 
L 362.173659 173.847132 
L 362.715653 161.726235 
L 363.257648 172.28056 
L 363.799642 172.54121 
L 364.341636 169.1324 
L 364.88363 179.496609 
L 365.425625 184.750178 
L 365.967619 175.487014 
L 366.509613 174.393287 
L 367.051607 170.134261 
L 367.593601 174.387596 
L 368.135596 174.456003 
L 368.67759 169.160778 
L 369.219584 172.134828 
L 369.761578 170.972631 
L 370.303573 180.159042 
L 371.387561 161.624237 
L 371.929555 167.973118 
L 372.47155 169.161538 
L 373.013544 169.513539 
L 373.555538 163.05038 
L 374.097532 174.618896 
L 374.639526 174.035992 
L 375.181521 169.811621 
L 375.723515 170.799473 
L 376.265509 170.858144 
L 376.807503 173.18374 
L 377.349498 173.138598 
L 377.891492 171.945101 
L 378.433486 169.056289 
L 378.97548 172.527711 
L 379.517475 169.292978 
L 380.059469 171.625311 
L 380.601463 176.45765 
L 381.143457 175.519409 
L 381.685452 172.437599 
L 382.227446 172.945766 
L 382.76944 171.354932 
L 383.311434 168.795034 
L 383.853428 169.683021 
L 384.395423 171.305933 
L 384.937417 173.286192 
L 385.479411 174.222248 
L 386.021405 174.676281 
L 386.5634 171.267037 
L 387.105394 168.896119 
L 387.647388 170.835143 
L 388.189382 169.848669 
L 388.731377 182.515982 
L 389.273371 165.479164 
L 389.815365 179.884042 
L 390.899353 169.93669 
L 391.441348 164.011981 
L 391.983342 180.381482 
L 392.525336 164.517813 
L 393.06733 171.390956 
L 393.609325 174.450811 
L 394.151319 174.496822 
L 394.693313 181.758055 
L 395.235307 172.056235 
L 395.777302 176.690359 
L 396.319296 176.519544 
L 396.86129 175.237604 
L 397.403284 171.302872 
L 397.945278 172.006126 
L 398.487273 171.910588 
L 398.487273 171.910588 
" style="fill:none;stroke:#98fe09;stroke-linecap:square;stroke-width:2;"/>
   </g>
   <g id="line2d_26">
    <path clip-path="url(#pd639fd4ed1)" d="M 90.092554 307.584 
L 90.092554 41.472 
" style="fill:none;stroke:#02fefa;stroke-dasharray:7.4,3.2;stroke-dashoffset:0;stroke-opacity:0.7;stroke-width:2;"/>
   </g>
   <g id="patch_3">
    <path d="M 57.6 307.584 
L 57.6 41.472 
" style="fill:none;stroke:#ffffff;stroke-linecap:square;stroke-linejoin:miter;stroke-width:0.8;"/>
   </g>
   <g id="patch_4">
    <path d="M 414.72 307.584 
L 414.72 41.472 
" style="fill:none;stroke:#ffffff;stroke-linecap:square;stroke-linejoin:miter;stroke-width:0.8;"/>
   </g>
   <g id="patch_5">
    <path d="M 57.6 307.584 
L 414.72 307.584 
" style="fill:none;stroke:#ffffff;stroke-linecap:square;stroke-linejoin:miter;stroke-width:0.8;"/>
   </g>
   <g id="patch_6">
    <path d="M 57.6 41.472 
L 414.72 41.472 
" style="fill:none;stroke:#ffffff;stroke-linecap:square;stroke-linejoin:miter;stroke-width:0.8;"/>
   </g>
   <g id="text_15">
    <!-- Anomaly Detection at time step : 30 -->
    <defs>
     <path d="M 34.1875 63.1875 
L 20.796875 26.90625 
L 47.609375 26.90625 
z
M 28.609375 72.90625 
L 39.796875 72.90625 
L 67.578125 0 
L 57.328125 0 
L 50.6875 18.703125 
L 17.828125 18.703125 
L 11.1875 0 
L 0.78125 0 
z
" id="DejaVuSans-65"/>
     <path d="M 30.609375 48.390625 
Q 23.390625 48.390625 19.1875 42.75 
Q 14.984375 37.109375 14.984375 27.296875 
Q 14.984375 17.484375 19.15625 11.84375 
Q 23.34375 6.203125 30.609375 6.203125 
Q 37.796875 6.203125 41.984375 11.859375 
Q 46.1875 17.53125 46.1875 27.296875 
Q 46.1875 37.015625 41.984375 42.703125 
Q 37.796875 48.390625 30.609375 48.390625 
z
M 30.609375 56 
Q 42.328125 56 49.015625 48.375 
Q 55.71875 40.765625 55.71875 27.296875 
Q 55.71875 13.875 49.015625 6.21875 
Q 42.328125 -1.421875 30.609375 -1.421875 
Q 18.84375 -1.421875 12.171875 6.21875 
Q 5.515625 13.875 5.515625 27.296875 
Q 5.515625 40.765625 12.171875 48.375 
Q 18.84375 56 30.609375 56 
z
" id="DejaVuSans-111"/>
     <path d="M 32.171875 -5.078125 
Q 28.375 -14.84375 24.75 -17.8125 
Q 21.140625 -20.796875 15.09375 -20.796875 
L 7.90625 -20.796875 
L 7.90625 -13.28125 
L 13.1875 -13.28125 
Q 16.890625 -13.28125 18.9375 -11.515625 
Q 21 -9.765625 23.484375 -3.21875 
L 25.09375 0.875 
L 2.984375 54.6875 
L 12.5 54.6875 
L 29.59375 11.921875 
L 46.6875 54.6875 
L 56.203125 54.6875 
z
" id="DejaVuSans-121"/>
     <path d="M 19.671875 64.796875 
L 19.671875 8.109375 
L 31.59375 8.109375 
Q 46.6875 8.109375 53.6875 14.9375 
Q 60.6875 21.78125 60.6875 36.53125 
Q 60.6875 51.171875 53.6875 57.984375 
Q 46.6875 64.796875 31.59375 64.796875 
z
M 9.8125 72.90625 
L 30.078125 72.90625 
Q 51.265625 72.90625 61.171875 64.09375 
Q 71.09375 55.28125 71.09375 36.53125 
Q 71.09375 17.671875 61.125 8.828125 
Q 51.171875 0 30.078125 0 
L 9.8125 0 
z
" id="DejaVuSans-68"/>
     <path d="M 18.3125 70.21875 
L 18.3125 54.6875 
L 36.8125 54.6875 
L 36.8125 47.703125 
L 18.3125 47.703125 
L 18.3125 18.015625 
Q 18.3125 11.328125 20.140625 9.421875 
Q 21.96875 7.515625 27.59375 7.515625 
L 36.8125 7.515625 
L 36.8125 0 
L 27.59375 0 
Q 17.1875 0 13.234375 3.875 
Q 9.28125 7.765625 9.28125 18.015625 
L 9.28125 47.703125 
L 2.6875 47.703125 
L 2.6875 54.6875 
L 9.28125 54.6875 
L 9.28125 70.21875 
z
" id="DejaVuSans-116"/>
     <path d="M 48.78125 52.59375 
L 48.78125 44.1875 
Q 44.96875 46.296875 41.140625 47.34375 
Q 37.3125 48.390625 33.40625 48.390625 
Q 24.65625 48.390625 19.8125 42.84375 
Q 14.984375 37.3125 14.984375 27.296875 
Q 14.984375 17.28125 19.8125 11.734375 
Q 24.65625 6.203125 33.40625 6.203125 
Q 37.3125 6.203125 41.140625 7.25 
Q 44.96875 8.296875 48.78125 10.40625 
L 48.78125 2.09375 
Q 45.015625 0.34375 40.984375 -0.53125 
Q 36.96875 -1.421875 32.421875 -1.421875 
Q 20.0625 -1.421875 12.78125 6.34375 
Q 5.515625 14.109375 5.515625 27.296875 
Q 5.515625 40.671875 12.859375 48.328125 
Q 20.21875 56 33.015625 56 
Q 37.15625 56 41.109375 55.140625 
Q 45.0625 54.296875 48.78125 52.59375 
z
" id="DejaVuSans-99"/>
     <path d="M 44.28125 53.078125 
L 44.28125 44.578125 
Q 40.484375 46.53125 36.375 47.5 
Q 32.28125 48.484375 27.875 48.484375 
Q 21.1875 48.484375 17.84375 46.4375 
Q 14.5 44.390625 14.5 40.28125 
Q 14.5 37.15625 16.890625 35.375 
Q 19.28125 33.59375 26.515625 31.984375 
L 29.59375 31.296875 
Q 39.15625 29.25 43.1875 25.515625 
Q 47.21875 21.78125 47.21875 15.09375 
Q 47.21875 7.46875 41.1875 3.015625 
Q 35.15625 -1.421875 24.609375 -1.421875 
Q 20.21875 -1.421875 15.453125 -0.5625 
Q 10.6875 0.296875 5.421875 2 
L 5.421875 11.28125 
Q 10.40625 8.6875 15.234375 7.390625 
Q 20.0625 6.109375 24.8125 6.109375 
Q 31.15625 6.109375 34.5625 8.28125 
Q 37.984375 10.453125 37.984375 14.40625 
Q 37.984375 18.0625 35.515625 20.015625 
Q 33.0625 21.96875 24.703125 23.78125 
L 21.578125 24.515625 
Q 13.234375 26.265625 9.515625 29.90625 
Q 5.8125 33.546875 5.8125 39.890625 
Q 5.8125 47.609375 11.28125 51.796875 
Q 16.75 56 26.8125 56 
Q 31.78125 56 36.171875 55.265625 
Q 40.578125 54.546875 44.28125 53.078125 
z
" id="DejaVuSans-115"/>
     <path d="M 18.109375 8.203125 
L 18.109375 -20.796875 
L 9.078125 -20.796875 
L 9.078125 54.6875 
L 18.109375 54.6875 
L 18.109375 46.390625 
Q 20.953125 51.265625 25.265625 53.625 
Q 29.59375 56 35.59375 56 
Q 45.5625 56 51.78125 48.09375 
Q 58.015625 40.1875 58.015625 27.296875 
Q 58.015625 14.40625 51.78125 6.484375 
Q 45.5625 -1.421875 35.59375 -1.421875 
Q 29.59375 -1.421875 25.265625 0.953125 
Q 20.953125 3.328125 18.109375 8.203125 
z
M 48.6875 27.296875 
Q 48.6875 37.203125 44.609375 42.84375 
Q 40.53125 48.484375 33.40625 48.484375 
Q 26.265625 48.484375 22.1875 42.84375 
Q 18.109375 37.203125 18.109375 27.296875 
Q 18.109375 17.390625 22.1875 11.75 
Q 26.265625 6.109375 33.40625 6.109375 
Q 40.53125 6.109375 44.609375 11.75 
Q 48.6875 17.390625 48.6875 27.296875 
z
" id="DejaVuSans-112"/>
     <path d="M 11.71875 12.40625 
L 22.015625 12.40625 
L 22.015625 0 
L 11.71875 0 
z
M 11.71875 51.703125 
L 22.015625 51.703125 
L 22.015625 39.3125 
L 11.71875 39.3125 
z
" id="DejaVuSans-58"/>
    </defs>
    <g style="fill:#ffffff;" transform="translate(127.034063 35.472)scale(0.12 -0.12)">
     <use xlink:href="#DejaVuSans-65"/>
     <use x="68.408203" xlink:href="#DejaVuSans-110"/>
     <use x="131.787109" xlink:href="#DejaVuSans-111"/>
     <use x="192.96875" xlink:href="#DejaVuSans-109"/>
     <use x="290.380859" xlink:href="#DejaVuSans-97"/>
     <use x="351.660156" xlink:href="#DejaVuSans-108"/>
     <use x="379.443359" xlink:href="#DejaVuSans-121"/>
     <use x="438.623047" xlink:href="#DejaVuSans-32"/>
     <use x="470.410156" xlink:href="#DejaVuSans-68"/>
     <use x="547.412109" xlink:href="#DejaVuSans-101"/>
     <use x="608.935547" xlink:href="#DejaVuSans-116"/>
     <use x="648.144531" xlink:href="#DejaVuSans-101"/>
     <use x="709.667969" xlink:href="#DejaVuSans-99"/>
     <use x="764.648438" xlink:href="#DejaVuSans-116"/>
     <use x="803.857422" xlink:href="#DejaVuSans-105"/>
     <use x="831.640625" xlink:href="#DejaVuSans-111"/>
     <use x="892.822266" xlink:href="#DejaVuSans-110"/>
     <use x="956.201172" xlink:href="#DejaVuSans-32"/>
     <use x="987.988281" xlink:href="#DejaVuSans-97"/>
     <use x="1049.267578" xlink:href="#DejaVuSans-116"/>
     <use x="1088.476562" xlink:href="#DejaVuSans-32"/>
     <use x="1120.263672" xlink:href="#DejaVuSans-116"/>
     <use x="1159.472656" xlink:href="#DejaVuSans-105"/>
     <use x="1187.255859" xlink:href="#DejaVuSans-109"/>
     <use x="1284.667969" xlink:href="#DejaVuSans-101"/>
     <use x="1346.191406" xlink:href="#DejaVuSans-32"/>
     <use x="1377.978516" xlink:href="#DejaVuSans-115"/>
     <use x="1430.078125" xlink:href="#DejaVuSans-116"/>
     <use x="1469.287109" xlink:href="#DejaVuSans-101"/>
     <use x="1530.810547" xlink:href="#DejaVuSans-112"/>
     <use x="1594.287109" xlink:href="#DejaVuSans-32"/>
     <use x="1626.074219" xlink:href="#DejaVuSans-58"/>
     <use x="1659.765625" xlink:href="#DejaVuSans-32"/>
     <use x="1691.552734" xlink:href="#DejaVuSans-51"/>
     <use x="1755.175781" xlink:href="#DejaVuSans-48"/>
    </g>
   </g>
   <g id="legend_1">
    <g id="patch_7">
     <path d="M 277.955938 78.82825 
L 407.72 78.82825 
Q 409.72 78.82825 409.72 76.82825 
L 409.72 48.472 
Q 409.72 46.472 407.72 46.472 
L 277.955938 46.472 
Q 275.955938 46.472 275.955938 48.472 
L 275.955938 76.82825 
Q 275.955938 78.82825 277.955938 78.82825 
z
" style="fill:#121212;opacity:0.8;stroke:#ffffff;stroke-linejoin:miter;"/>
    </g>
    <g id="line2d_27">
     <path d="M 279.955938 54.570437 
L 299.955938 54.570437 
" style="fill:none;stroke:#98fe09;stroke-linecap:square;stroke-width:2;"/>
    </g>
    <g id="line2d_28"/>
    <g id="text_16">
     <!-- Original -->
     <defs>
      <path d="M 39.40625 66.21875 
Q 28.65625 66.21875 22.328125 58.203125 
Q 16.015625 50.203125 16.015625 36.375 
Q 16.015625 22.609375 22.328125 14.59375 
Q 28.65625 6.59375 39.40625 6.59375 
Q 50.140625 6.59375 56.421875 14.59375 
Q 62.703125 22.609375 62.703125 36.375 
Q 62.703125 50.203125 56.421875 58.203125 
Q 50.140625 66.21875 39.40625 66.21875 
z
M 39.40625 74.21875 
Q 54.734375 74.21875 63.90625 63.9375 
Q 73.09375 53.65625 73.09375 36.375 
Q 73.09375 19.140625 63.90625 8.859375 
Q 54.734375 -1.421875 39.40625 -1.421875 
Q 24.03125 -1.421875 14.8125 8.828125 
Q 5.609375 19.09375 5.609375 36.375 
Q 5.609375 53.65625 14.8125 63.9375 
Q 24.03125 74.21875 39.40625 74.21875 
z
" id="DejaVuSans-79"/>
      <path d="M 41.109375 46.296875 
Q 39.59375 47.171875 37.8125 47.578125 
Q 36.03125 48 33.890625 48 
Q 26.265625 48 22.1875 43.046875 
Q 18.109375 38.09375 18.109375 28.8125 
L 18.109375 0 
L 9.078125 0 
L 9.078125 54.6875 
L 18.109375 54.6875 
L 18.109375 46.1875 
Q 20.953125 51.171875 25.484375 53.578125 
Q 30.03125 56 36.53125 56 
Q 37.453125 56 38.578125 55.875 
Q 39.703125 55.765625 41.0625 55.515625 
z
" id="DejaVuSans-114"/>
     </defs>
     <g style="fill:#ffffff;" transform="translate(307.955938 58.070437)scale(0.1 -0.1)">
      <use xlink:href="#DejaVuSans-79"/>
      <use x="78.710938" xlink:href="#DejaVuSans-114"/>
      <use x="119.824219" xlink:href="#DejaVuSans-105"/>
      <use x="147.607422" xlink:href="#DejaVuSans-103"/>
      <use x="211.083984" xlink:href="#DejaVuSans-105"/>
      <use x="238.867188" xlink:href="#DejaVuSans-110"/>
      <use x="302.246094" xlink:href="#DejaVuSans-97"/>
      <use x="363.525391" xlink:href="#DejaVuSans-108"/>
     </g>
    </g>
    <g id="line2d_29">
     <path d="M 279.955938 69.248562 
L 299.955938 69.248562 
" style="fill:none;stroke:#02fefa;stroke-dasharray:7.4,3.2;stroke-dashoffset:0;stroke-opacity:0.7;stroke-width:2;"/>
    </g>
    <g id="line2d_30"/>
    <g id="text_17">
     <!-- Anomaly Time Step -->
     <g style="fill:#ffffff;" transform="translate(307.955938 72.748562)scale(0.1 -0.1)">
      <use xlink:href="#DejaVuSans-65"/>
      <use x="68.408203" xlink:href="#DejaVuSans-110"/>
      <use x="131.787109" xlink:href="#DejaVuSans-111"/>
      <use x="192.96875" xlink:href="#DejaVuSans-109"/>
      <use x="290.380859" xlink:href="#DejaVuSans-97"/>
      <use x="351.660156" xlink:href="#DejaVuSans-108"/>
      <use x="379.443359" xlink:href="#DejaVuSans-121"/>
      <use x="438.623047" xlink:href="#DejaVuSans-32"/>
      <use x="470.410156" xlink:href="#DejaVuSans-84"/>
      <use x="531.447266" xlink:href="#DejaVuSans-105"/>
      <use x="559.230469" xlink:href="#DejaVuSans-109"/>
      <use x="656.642578" xlink:href="#DejaVuSans-101"/>
      <use x="718.166016" xlink:href="#DejaVuSans-32"/>
      <use x="749.953125" xlink:href="#DejaVuSans-83"/>
      <use x="813.429688" xlink:href="#DejaVuSans-116"/>
      <use x="852.638672" xlink:href="#DejaVuSans-101"/>
      <use x="914.162109" xlink:href="#DejaVuSans-112"/>
     </g>
    </g>
   </g>
  </g>
 </g>
 <defs>
  <clipPath id="pd639fd4ed1">
   <rect height="266.112" width="357.12" x="57.6" y="41.472"/>
  </clipPath>
 </defs>
</svg>
