<?xml version="1.0" encoding="utf-8" standalone="no"?>
<!DOCTYPE svg PUBLIC "-//W3C//DTD SVG 1.1//EN"
  "http://www.w3.org/Graphics/SVG/1.1/DTD/svg11.dtd">
<!-- Created with matplotlib (https://matplotlib.org/) -->
<svg height="432pt" version="1.1" viewBox="0 0 864 432" width="864pt" xmlns="http://www.w3.org/2000/svg" xmlns:xlink="http://www.w3.org/1999/xlink">
 <defs>
  <style type="text/css">
*{stroke-linecap:butt;stroke-linejoin:round;}
  </style>
 </defs>
 <g id="figure_1">
  <g id="patch_1">
   <path d="M 0 432 
L 864 432 
L 864 0 
L 0 0 
z
" style="fill:#121212;"/>
  </g>
  <g id="axes_1">
   <g id="patch_2">
    <path d="M 108 384.48 
L 777.6 384.48 
L 777.6 51.84 
L 108 51.84 
z
" style="fill:#121212;"/>
   </g>
   <g id="matplotlib.axis_1">
    <g id="xtick_1">
     <g id="line2d_1">
      <path clip-path="url(#p115d4ed3b1)" d="M 138.436364 384.48 
L 138.436364 51.84 
" style="fill:none;stroke:#ffffff;stroke-linecap:square;stroke-opacity:0.3;stroke-width:0.8;"/>
     </g>
     <g id="line2d_2">
      <defs>
       <path d="M 0 0 
L 0 3.5 
" id="m89677af689" style="stroke:#ffffff;stroke-width:0.8;"/>
      </defs>
      <g>
       <use style="fill:#ffffff;stroke:#ffffff;stroke-width:0.8;" x="138.436364" xlink:href="#m89677af689" y="384.48"/>
      </g>
     </g>
     <g id="text_1">
      <!-- 0.0 -->
      <defs>
       <path d="M 31.78125 66.40625 
Q 24.171875 66.40625 20.328125 58.90625 
Q 16.5 51.421875 16.5 36.375 
Q 16.5 21.390625 20.328125 13.890625 
Q 24.171875 6.390625 31.78125 6.390625 
Q 39.453125 6.390625 43.28125 13.890625 
Q 47.125 21.390625 47.125 36.375 
Q 47.125 51.421875 43.28125 58.90625 
Q 39.453125 66.40625 31.78125 66.40625 
z
M 31.78125 74.21875 
Q 44.046875 74.21875 50.515625 64.515625 
Q 56.984375 54.828125 56.984375 36.375 
Q 56.984375 17.96875 50.515625 8.265625 
Q 44.046875 -1.421875 31.78125 -1.421875 
Q 19.53125 -1.421875 13.0625 8.265625 
Q 6.59375 17.96875 6.59375 36.375 
Q 6.59375 54.828125 13.0625 64.515625 
Q 19.53125 74.21875 31.78125 74.21875 
z
" id="DejaVuSans-48"/>
       <path d="M 10.6875 12.40625 
L 21 12.40625 
L 21 0 
L 10.6875 0 
z
" id="DejaVuSans-46"/>
      </defs>
      <g style="fill:#ffffff;" transform="translate(130.484801 399.078438)scale(0.1 -0.1)">
       <use xlink:href="#DejaVuSans-48"/>
       <use x="63.623047" xlink:href="#DejaVuSans-46"/>
       <use x="95.410156" xlink:href="#DejaVuSans-48"/>
      </g>
     </g>
    </g>
    <g id="xtick_2">
     <g id="line2d_3">
      <path clip-path="url(#p115d4ed3b1)" d="M 260.181818 384.48 
L 260.181818 51.84 
" style="fill:none;stroke:#ffffff;stroke-linecap:square;stroke-opacity:0.3;stroke-width:0.8;"/>
     </g>
     <g id="line2d_4">
      <g>
       <use style="fill:#ffffff;stroke:#ffffff;stroke-width:0.8;" x="260.181818" xlink:href="#m89677af689" y="384.48"/>
      </g>
     </g>
     <g id="text_2">
      <!-- 0.2 -->
      <defs>
       <path d="M 19.1875 8.296875 
L 53.609375 8.296875 
L 53.609375 0 
L 7.328125 0 
L 7.328125 8.296875 
Q 12.9375 14.109375 22.625 23.890625 
Q 32.328125 33.6875 34.8125 36.53125 
Q 39.546875 41.84375 41.421875 45.53125 
Q 43.3125 49.21875 43.3125 52.78125 
Q 43.3125 58.59375 39.234375 62.25 
Q 35.15625 65.921875 28.609375 65.921875 
Q 23.96875 65.921875 18.8125 64.3125 
Q 13.671875 62.703125 7.8125 59.421875 
L 7.8125 69.390625 
Q 13.765625 71.78125 18.9375 73 
Q 24.125 74.21875 28.421875 74.21875 
Q 39.75 74.21875 46.484375 68.546875 
Q 53.21875 62.890625 53.21875 53.421875 
Q 53.21875 48.921875 51.53125 44.890625 
Q 49.859375 40.875 45.40625 35.40625 
Q 44.1875 33.984375 37.640625 27.21875 
Q 31.109375 20.453125 19.1875 8.296875 
z
" id="DejaVuSans-50"/>
      </defs>
      <g style="fill:#ffffff;" transform="translate(252.230256 399.078438)scale(0.1 -0.1)">
       <use xlink:href="#DejaVuSans-48"/>
       <use x="63.623047" xlink:href="#DejaVuSans-46"/>
       <use x="95.410156" xlink:href="#DejaVuSans-50"/>
      </g>
     </g>
    </g>
    <g id="xtick_3">
     <g id="line2d_5">
      <path clip-path="url(#p115d4ed3b1)" d="M 381.927273 384.48 
L 381.927273 51.84 
" style="fill:none;stroke:#ffffff;stroke-linecap:square;stroke-opacity:0.3;stroke-width:0.8;"/>
     </g>
     <g id="line2d_6">
      <g>
       <use style="fill:#ffffff;stroke:#ffffff;stroke-width:0.8;" x="381.927273" xlink:href="#m89677af689" y="384.48"/>
      </g>
     </g>
     <g id="text_3">
      <!-- 0.4 -->
      <defs>
       <path d="M 37.796875 64.3125 
L 12.890625 25.390625 
L 37.796875 25.390625 
z
M 35.203125 72.90625 
L 47.609375 72.90625 
L 47.609375 25.390625 
L 58.015625 25.390625 
L 58.015625 17.1875 
L 47.609375 17.1875 
L 47.609375 0 
L 37.796875 0 
L 37.796875 17.1875 
L 4.890625 17.1875 
L 4.890625 26.703125 
z
" id="DejaVuSans-52"/>
      </defs>
      <g style="fill:#ffffff;" transform="translate(373.97571 399.078438)scale(0.1 -0.1)">
       <use xlink:href="#DejaVuSans-48"/>
       <use x="63.623047" xlink:href="#DejaVuSans-46"/>
       <use x="95.410156" xlink:href="#DejaVuSans-52"/>
      </g>
     </g>
    </g>
    <g id="xtick_4">
     <g id="line2d_7">
      <path clip-path="url(#p115d4ed3b1)" d="M 503.672727 384.48 
L 503.672727 51.84 
" style="fill:none;stroke:#ffffff;stroke-linecap:square;stroke-opacity:0.3;stroke-width:0.8;"/>
     </g>
     <g id="line2d_8">
      <g>
       <use style="fill:#ffffff;stroke:#ffffff;stroke-width:0.8;" x="503.672727" xlink:href="#m89677af689" y="384.48"/>
      </g>
     </g>
     <g id="text_4">
      <!-- 0.6 -->
      <defs>
       <path d="M 33.015625 40.375 
Q 26.375 40.375 22.484375 35.828125 
Q 18.609375 31.296875 18.609375 23.390625 
Q 18.609375 15.53125 22.484375 10.953125 
Q 26.375 6.390625 33.015625 6.390625 
Q 39.65625 6.390625 43.53125 10.953125 
Q 47.40625 15.53125 47.40625 23.390625 
Q 47.40625 31.296875 43.53125 35.828125 
Q 39.65625 40.375 33.015625 40.375 
z
M 52.59375 71.296875 
L 52.59375 62.3125 
Q 48.875 64.0625 45.09375 64.984375 
Q 41.3125 65.921875 37.59375 65.921875 
Q 27.828125 65.921875 22.671875 59.328125 
Q 17.53125 52.734375 16.796875 39.40625 
Q 19.671875 43.65625 24.015625 45.921875 
Q 28.375 48.1875 33.59375 48.1875 
Q 44.578125 48.1875 50.953125 41.515625 
Q 57.328125 34.859375 57.328125 23.390625 
Q 57.328125 12.15625 50.6875 5.359375 
Q 44.046875 -1.421875 33.015625 -1.421875 
Q 20.359375 -1.421875 13.671875 8.265625 
Q 6.984375 17.96875 6.984375 36.375 
Q 6.984375 53.65625 15.1875 63.9375 
Q 23.390625 74.21875 37.203125 74.21875 
Q 40.921875 74.21875 44.703125 73.484375 
Q 48.484375 72.75 52.59375 71.296875 
z
" id="DejaVuSans-54"/>
      </defs>
      <g style="fill:#ffffff;" transform="translate(495.721165 399.078438)scale(0.1 -0.1)">
       <use xlink:href="#DejaVuSans-48"/>
       <use x="63.623047" xlink:href="#DejaVuSans-46"/>
       <use x="95.410156" xlink:href="#DejaVuSans-54"/>
      </g>
     </g>
    </g>
    <g id="xtick_5">
     <g id="line2d_9">
      <path clip-path="url(#p115d4ed3b1)" d="M 625.418182 384.48 
L 625.418182 51.84 
" style="fill:none;stroke:#ffffff;stroke-linecap:square;stroke-opacity:0.3;stroke-width:0.8;"/>
     </g>
     <g id="line2d_10">
      <g>
       <use style="fill:#ffffff;stroke:#ffffff;stroke-width:0.8;" x="625.418182" xlink:href="#m89677af689" y="384.48"/>
      </g>
     </g>
     <g id="text_5">
      <!-- 0.8 -->
      <defs>
       <path d="M 31.78125 34.625 
Q 24.75 34.625 20.71875 30.859375 
Q 16.703125 27.09375 16.703125 20.515625 
Q 16.703125 13.921875 20.71875 10.15625 
Q 24.75 6.390625 31.78125 6.390625 
Q 38.8125 6.390625 42.859375 10.171875 
Q 46.921875 13.96875 46.921875 20.515625 
Q 46.921875 27.09375 42.890625 30.859375 
Q 38.875 34.625 31.78125 34.625 
z
M 21.921875 38.8125 
Q 15.578125 40.375 12.03125 44.71875 
Q 8.5 49.078125 8.5 55.328125 
Q 8.5 64.0625 14.71875 69.140625 
Q 20.953125 74.21875 31.78125 74.21875 
Q 42.671875 74.21875 48.875 69.140625 
Q 55.078125 64.0625 55.078125 55.328125 
Q 55.078125 49.078125 51.53125 44.71875 
Q 48 40.375 41.703125 38.8125 
Q 48.828125 37.15625 52.796875 32.3125 
Q 56.78125 27.484375 56.78125 20.515625 
Q 56.78125 9.90625 50.3125 4.234375 
Q 43.84375 -1.421875 31.78125 -1.421875 
Q 19.734375 -1.421875 13.25 4.234375 
Q 6.78125 9.90625 6.78125 20.515625 
Q 6.78125 27.484375 10.78125 32.3125 
Q 14.796875 37.15625 21.921875 38.8125 
z
M 18.3125 54.390625 
Q 18.3125 48.734375 21.84375 45.5625 
Q 25.390625 42.390625 31.78125 42.390625 
Q 38.140625 42.390625 41.71875 45.5625 
Q 45.3125 48.734375 45.3125 54.390625 
Q 45.3125 60.0625 41.71875 63.234375 
Q 38.140625 66.40625 31.78125 66.40625 
Q 25.390625 66.40625 21.84375 63.234375 
Q 18.3125 60.0625 18.3125 54.390625 
z
" id="DejaVuSans-56"/>
      </defs>
      <g style="fill:#ffffff;" transform="translate(617.466619 399.078438)scale(0.1 -0.1)">
       <use xlink:href="#DejaVuSans-48"/>
       <use x="63.623047" xlink:href="#DejaVuSans-46"/>
       <use x="95.410156" xlink:href="#DejaVuSans-56"/>
      </g>
     </g>
    </g>
    <g id="xtick_6">
     <g id="line2d_11">
      <path clip-path="url(#p115d4ed3b1)" d="M 747.163636 384.48 
L 747.163636 51.84 
" style="fill:none;stroke:#ffffff;stroke-linecap:square;stroke-opacity:0.3;stroke-width:0.8;"/>
     </g>
     <g id="line2d_12">
      <g>
       <use style="fill:#ffffff;stroke:#ffffff;stroke-width:0.8;" x="747.163636" xlink:href="#m89677af689" y="384.48"/>
      </g>
     </g>
     <g id="text_6">
      <!-- 1.0 -->
      <defs>
       <path d="M 12.40625 8.296875 
L 28.515625 8.296875 
L 28.515625 63.921875 
L 10.984375 60.40625 
L 10.984375 69.390625 
L 28.421875 72.90625 
L 38.28125 72.90625 
L 38.28125 8.296875 
L 54.390625 8.296875 
L 54.390625 0 
L 12.40625 0 
z
" id="DejaVuSans-49"/>
      </defs>
      <g style="fill:#ffffff;" transform="translate(739.212074 399.078438)scale(0.1 -0.1)">
       <use xlink:href="#DejaVuSans-49"/>
       <use x="63.623047" xlink:href="#DejaVuSans-46"/>
       <use x="95.410156" xlink:href="#DejaVuSans-48"/>
      </g>
     </g>
    </g>
    <g id="text_7">
     <!-- Temperature -->
     <defs>
      <path d="M -0.296875 72.90625 
L 61.375 72.90625 
L 61.375 64.59375 
L 35.5 64.59375 
L 35.5 0 
L 25.59375 0 
L 25.59375 64.59375 
L -0.296875 64.59375 
z
" id="DejaVuSans-84"/>
      <path d="M 56.203125 29.59375 
L 56.203125 25.203125 
L 14.890625 25.203125 
Q 15.484375 15.921875 20.484375 11.0625 
Q 25.484375 6.203125 34.421875 6.203125 
Q 39.59375 6.203125 44.453125 7.46875 
Q 49.3125 8.734375 54.109375 11.28125 
L 54.109375 2.78125 
Q 49.265625 0.734375 44.1875 -0.34375 
Q 39.109375 -1.421875 33.890625 -1.421875 
Q 20.796875 -1.421875 13.15625 6.1875 
Q 5.515625 13.8125 5.515625 26.8125 
Q 5.515625 40.234375 12.765625 48.109375 
Q 20.015625 56 32.328125 56 
Q 43.359375 56 49.78125 48.890625 
Q 56.203125 41.796875 56.203125 29.59375 
z
M 47.21875 32.234375 
Q 47.125 39.59375 43.09375 43.984375 
Q 39.0625 48.390625 32.421875 48.390625 
Q 24.90625 48.390625 20.390625 44.140625 
Q 15.875 39.890625 15.1875 32.171875 
z
" id="DejaVuSans-101"/>
      <path d="M 52 44.1875 
Q 55.375 50.25 60.0625 53.125 
Q 64.75 56 71.09375 56 
Q 79.640625 56 84.28125 50.015625 
Q 88.921875 44.046875 88.921875 33.015625 
L 88.921875 0 
L 79.890625 0 
L 79.890625 32.71875 
Q 79.890625 40.578125 77.09375 44.375 
Q 74.3125 48.1875 68.609375 48.1875 
Q 61.625 48.1875 57.5625 43.546875 
Q 53.515625 38.921875 53.515625 30.90625 
L 53.515625 0 
L 44.484375 0 
L 44.484375 32.71875 
Q 44.484375 40.625 41.703125 44.40625 
Q 38.921875 48.1875 33.109375 48.1875 
Q 26.21875 48.1875 22.15625 43.53125 
Q 18.109375 38.875 18.109375 30.90625 
L 18.109375 0 
L 9.078125 0 
L 9.078125 54.6875 
L 18.109375 54.6875 
L 18.109375 46.1875 
Q 21.1875 51.21875 25.484375 53.609375 
Q 29.78125 56 35.6875 56 
Q 41.65625 56 45.828125 52.96875 
Q 50 49.953125 52 44.1875 
z
" id="DejaVuSans-109"/>
      <path d="M 18.109375 8.203125 
L 18.109375 -20.796875 
L 9.078125 -20.796875 
L 9.078125 54.6875 
L 18.109375 54.6875 
L 18.109375 46.390625 
Q 20.953125 51.265625 25.265625 53.625 
Q 29.59375 56 35.59375 56 
Q 45.5625 56 51.78125 48.09375 
Q 58.015625 40.1875 58.015625 27.296875 
Q 58.015625 14.40625 51.78125 6.484375 
Q 45.5625 -1.421875 35.59375 -1.421875 
Q 29.59375 -1.421875 25.265625 0.953125 
Q 20.953125 3.328125 18.109375 8.203125 
z
M 48.6875 27.296875 
Q 48.6875 37.203125 44.609375 42.84375 
Q 40.53125 48.484375 33.40625 48.484375 
Q 26.265625 48.484375 22.1875 42.84375 
Q 18.109375 37.203125 18.109375 27.296875 
Q 18.109375 17.390625 22.1875 11.75 
Q 26.265625 6.109375 33.40625 6.109375 
Q 40.53125 6.109375 44.609375 11.75 
Q 48.6875 17.390625 48.6875 27.296875 
z
" id="DejaVuSans-112"/>
      <path d="M 41.109375 46.296875 
Q 39.59375 47.171875 37.8125 47.578125 
Q 36.03125 48 33.890625 48 
Q 26.265625 48 22.1875 43.046875 
Q 18.109375 38.09375 18.109375 28.8125 
L 18.109375 0 
L 9.078125 0 
L 9.078125 54.6875 
L 18.109375 54.6875 
L 18.109375 46.1875 
Q 20.953125 51.171875 25.484375 53.578125 
Q 30.03125 56 36.53125 56 
Q 37.453125 56 38.578125 55.875 
Q 39.703125 55.765625 41.0625 55.515625 
z
" id="DejaVuSans-114"/>
      <path d="M 34.28125 27.484375 
Q 23.390625 27.484375 19.1875 25 
Q 14.984375 22.515625 14.984375 16.5 
Q 14.984375 11.71875 18.140625 8.90625 
Q 21.296875 6.109375 26.703125 6.109375 
Q 34.1875 6.109375 38.703125 11.40625 
Q 43.21875 16.703125 43.21875 25.484375 
L 43.21875 27.484375 
z
M 52.203125 31.203125 
L 52.203125 0 
L 43.21875 0 
L 43.21875 8.296875 
Q 40.140625 3.328125 35.546875 0.953125 
Q 30.953125 -1.421875 24.3125 -1.421875 
Q 15.921875 -1.421875 10.953125 3.296875 
Q 6 8.015625 6 15.921875 
Q 6 25.140625 12.171875 29.828125 
Q 18.359375 34.515625 30.609375 34.515625 
L 43.21875 34.515625 
L 43.21875 35.40625 
Q 43.21875 41.609375 39.140625 45 
Q 35.0625 48.390625 27.6875 48.390625 
Q 23 48.390625 18.546875 47.265625 
Q 14.109375 46.140625 10.015625 43.890625 
L 10.015625 52.203125 
Q 14.9375 54.109375 19.578125 55.046875 
Q 24.21875 56 28.609375 56 
Q 40.484375 56 46.34375 49.84375 
Q 52.203125 43.703125 52.203125 31.203125 
z
" id="DejaVuSans-97"/>
      <path d="M 18.3125 70.21875 
L 18.3125 54.6875 
L 36.8125 54.6875 
L 36.8125 47.703125 
L 18.3125 47.703125 
L 18.3125 18.015625 
Q 18.3125 11.328125 20.140625 9.421875 
Q 21.96875 7.515625 27.59375 7.515625 
L 36.8125 7.515625 
L 36.8125 0 
L 27.59375 0 
Q 17.1875 0 13.234375 3.875 
Q 9.28125 7.765625 9.28125 18.015625 
L 9.28125 47.703125 
L 2.6875 47.703125 
L 2.6875 54.6875 
L 9.28125 54.6875 
L 9.28125 70.21875 
z
" id="DejaVuSans-116"/>
      <path d="M 8.5 21.578125 
L 8.5 54.6875 
L 17.484375 54.6875 
L 17.484375 21.921875 
Q 17.484375 14.15625 20.5 10.265625 
Q 23.53125 6.390625 29.59375 6.390625 
Q 36.859375 6.390625 41.078125 11.03125 
Q 45.3125 15.671875 45.3125 23.6875 
L 45.3125 54.6875 
L 54.296875 54.6875 
L 54.296875 0 
L 45.3125 0 
L 45.3125 8.40625 
Q 42.046875 3.421875 37.71875 1 
Q 33.40625 -1.421875 27.6875 -1.421875 
Q 18.265625 -1.421875 13.375 4.4375 
Q 8.5 10.296875 8.5 21.578125 
z
M 31.109375 56 
z
" id="DejaVuSans-117"/>
     </defs>
     <g style="fill:#ffffff;" transform="translate(410.182813 412.756563)scale(0.1 -0.1)">
      <use xlink:href="#DejaVuSans-84"/>
      <use x="60.818359" xlink:href="#DejaVuSans-101"/>
      <use x="122.341797" xlink:href="#DejaVuSans-109"/>
      <use x="219.753906" xlink:href="#DejaVuSans-112"/>
      <use x="283.230469" xlink:href="#DejaVuSans-101"/>
      <use x="344.753906" xlink:href="#DejaVuSans-114"/>
      <use x="385.867188" xlink:href="#DejaVuSans-97"/>
      <use x="447.146484" xlink:href="#DejaVuSans-116"/>
      <use x="486.355469" xlink:href="#DejaVuSans-117"/>
      <use x="549.734375" xlink:href="#DejaVuSans-114"/>
      <use x="590.816406" xlink:href="#DejaVuSans-101"/>
     </g>
    </g>
   </g>
   <g id="matplotlib.axis_2">
    <g id="ytick_1">
     <g id="line2d_13">
      <path clip-path="url(#p115d4ed3b1)" d="M 108 384.415461 
L 777.6 384.415461 
" style="fill:none;stroke:#ffffff;stroke-linecap:square;stroke-opacity:0.3;stroke-width:0.8;"/>
     </g>
     <g id="line2d_14">
      <defs>
       <path d="M 0 0 
L -3.5 0 
" id="md184e7a8e0" style="stroke:#ffffff;stroke-width:0.8;"/>
      </defs>
      <g>
       <use style="fill:#ffffff;stroke:#ffffff;stroke-width:0.8;" x="108" xlink:href="#md184e7a8e0" y="384.415461"/>
      </g>
     </g>
     <g id="text_8">
      <!-- 0.105 -->
      <defs>
       <path d="M 10.796875 72.90625 
L 49.515625 72.90625 
L 49.515625 64.59375 
L 19.828125 64.59375 
L 19.828125 46.734375 
Q 21.96875 47.46875 24.109375 47.828125 
Q 26.265625 48.1875 28.421875 48.1875 
Q 40.625 48.1875 47.75 41.5 
Q 54.890625 34.8125 54.890625 23.390625 
Q 54.890625 11.625 47.5625 5.09375 
Q 40.234375 -1.421875 26.90625 -1.421875 
Q 22.3125 -1.421875 17.546875 -0.640625 
Q 12.796875 0.140625 7.71875 1.703125 
L 7.71875 11.625 
Q 12.109375 9.234375 16.796875 8.0625 
Q 21.484375 6.890625 26.703125 6.890625 
Q 35.15625 6.890625 40.078125 11.328125 
Q 45.015625 15.765625 45.015625 23.390625 
Q 45.015625 31 40.078125 35.4375 
Q 35.15625 39.890625 26.703125 39.890625 
Q 22.75 39.890625 18.8125 39.015625 
Q 14.890625 38.140625 10.796875 36.28125 
z
" id="DejaVuSans-53"/>
      </defs>
      <g style="fill:#ffffff;" transform="translate(72.371875 388.21468)scale(0.1 -0.1)">
       <use xlink:href="#DejaVuSans-48"/>
       <use x="63.623047" xlink:href="#DejaVuSans-46"/>
       <use x="95.410156" xlink:href="#DejaVuSans-49"/>
       <use x="159.033203" xlink:href="#DejaVuSans-48"/>
       <use x="222.65625" xlink:href="#DejaVuSans-53"/>
      </g>
     </g>
    </g>
    <g id="ytick_2">
     <g id="line2d_15">
      <path clip-path="url(#p115d4ed3b1)" d="M 108 314.532995 
L 777.6 314.532995 
" style="fill:none;stroke:#ffffff;stroke-linecap:square;stroke-opacity:0.3;stroke-width:0.8;"/>
     </g>
     <g id="line2d_16">
      <g>
       <use style="fill:#ffffff;stroke:#ffffff;stroke-width:0.8;" x="108" xlink:href="#md184e7a8e0" y="314.532995"/>
      </g>
     </g>
     <g id="text_9">
      <!-- 0.110 -->
      <g style="fill:#ffffff;" transform="translate(72.371875 318.332214)scale(0.1 -0.1)">
       <use xlink:href="#DejaVuSans-48"/>
       <use x="63.623047" xlink:href="#DejaVuSans-46"/>
       <use x="95.410156" xlink:href="#DejaVuSans-49"/>
       <use x="159.033203" xlink:href="#DejaVuSans-49"/>
       <use x="222.65625" xlink:href="#DejaVuSans-48"/>
      </g>
     </g>
    </g>
    <g id="ytick_3">
     <g id="line2d_17">
      <path clip-path="url(#p115d4ed3b1)" d="M 108 244.650528 
L 777.6 244.650528 
" style="fill:none;stroke:#ffffff;stroke-linecap:square;stroke-opacity:0.3;stroke-width:0.8;"/>
     </g>
     <g id="line2d_18">
      <g>
       <use style="fill:#ffffff;stroke:#ffffff;stroke-width:0.8;" x="108" xlink:href="#md184e7a8e0" y="244.650528"/>
      </g>
     </g>
     <g id="text_10">
      <!-- 0.115 -->
      <g style="fill:#ffffff;" transform="translate(72.371875 248.449747)scale(0.1 -0.1)">
       <use xlink:href="#DejaVuSans-48"/>
       <use x="63.623047" xlink:href="#DejaVuSans-46"/>
       <use x="95.410156" xlink:href="#DejaVuSans-49"/>
       <use x="159.033203" xlink:href="#DejaVuSans-49"/>
       <use x="222.65625" xlink:href="#DejaVuSans-53"/>
      </g>
     </g>
    </g>
    <g id="ytick_4">
     <g id="line2d_19">
      <path clip-path="url(#p115d4ed3b1)" d="M 108 174.768062 
L 777.6 174.768062 
" style="fill:none;stroke:#ffffff;stroke-linecap:square;stroke-opacity:0.3;stroke-width:0.8;"/>
     </g>
     <g id="line2d_20">
      <g>
       <use style="fill:#ffffff;stroke:#ffffff;stroke-width:0.8;" x="108" xlink:href="#md184e7a8e0" y="174.768062"/>
      </g>
     </g>
     <g id="text_11">
      <!-- 0.120 -->
      <g style="fill:#ffffff;" transform="translate(72.371875 178.567281)scale(0.1 -0.1)">
       <use xlink:href="#DejaVuSans-48"/>
       <use x="63.623047" xlink:href="#DejaVuSans-46"/>
       <use x="95.410156" xlink:href="#DejaVuSans-49"/>
       <use x="159.033203" xlink:href="#DejaVuSans-50"/>
       <use x="222.65625" xlink:href="#DejaVuSans-48"/>
      </g>
     </g>
    </g>
    <g id="ytick_5">
     <g id="line2d_21">
      <path clip-path="url(#p115d4ed3b1)" d="M 108 104.885596 
L 777.6 104.885596 
" style="fill:none;stroke:#ffffff;stroke-linecap:square;stroke-opacity:0.3;stroke-width:0.8;"/>
     </g>
     <g id="line2d_22">
      <g>
       <use style="fill:#ffffff;stroke:#ffffff;stroke-width:0.8;" x="108" xlink:href="#md184e7a8e0" y="104.885596"/>
      </g>
     </g>
     <g id="text_12">
      <!-- 0.125 -->
      <g style="fill:#ffffff;" transform="translate(72.371875 108.684814)scale(0.1 -0.1)">
       <use xlink:href="#DejaVuSans-48"/>
       <use x="63.623047" xlink:href="#DejaVuSans-46"/>
       <use x="95.410156" xlink:href="#DejaVuSans-49"/>
       <use x="159.033203" xlink:href="#DejaVuSans-50"/>
       <use x="222.65625" xlink:href="#DejaVuSans-53"/>
      </g>
     </g>
    </g>
    <g id="text_13">
     <!-- Signal Value -->
     <defs>
      <path d="M 53.515625 70.515625 
L 53.515625 60.890625 
Q 47.90625 63.578125 42.921875 64.890625 
Q 37.9375 66.21875 33.296875 66.21875 
Q 25.25 66.21875 20.875 63.09375 
Q 16.5 59.96875 16.5 54.203125 
Q 16.5 49.359375 19.40625 46.890625 
Q 22.3125 44.4375 30.421875 42.921875 
L 36.375 41.703125 
Q 47.40625 39.59375 52.65625 34.296875 
Q 57.90625 29 57.90625 20.125 
Q 57.90625 9.515625 50.796875 4.046875 
Q 43.703125 -1.421875 29.984375 -1.421875 
Q 24.8125 -1.421875 18.96875 -0.25 
Q 13.140625 0.921875 6.890625 3.21875 
L 6.890625 13.375 
Q 12.890625 10.015625 18.65625 8.296875 
Q 24.421875 6.59375 29.984375 6.59375 
Q 38.421875 6.59375 43.015625 9.90625 
Q 47.609375 13.234375 47.609375 19.390625 
Q 47.609375 24.75 44.3125 27.78125 
Q 41.015625 30.8125 33.5 32.328125 
L 27.484375 33.5 
Q 16.453125 35.6875 11.515625 40.375 
Q 6.59375 45.0625 6.59375 53.421875 
Q 6.59375 63.09375 13.40625 68.65625 
Q 20.21875 74.21875 32.171875 74.21875 
Q 37.3125 74.21875 42.625 73.28125 
Q 47.953125 72.359375 53.515625 70.515625 
z
" id="DejaVuSans-83"/>
      <path d="M 9.421875 54.6875 
L 18.40625 54.6875 
L 18.40625 0 
L 9.421875 0 
z
M 9.421875 75.984375 
L 18.40625 75.984375 
L 18.40625 64.59375 
L 9.421875 64.59375 
z
" id="DejaVuSans-105"/>
      <path d="M 45.40625 27.984375 
Q 45.40625 37.75 41.375 43.109375 
Q 37.359375 48.484375 30.078125 48.484375 
Q 22.859375 48.484375 18.828125 43.109375 
Q 14.796875 37.75 14.796875 27.984375 
Q 14.796875 18.265625 18.828125 12.890625 
Q 22.859375 7.515625 30.078125 7.515625 
Q 37.359375 7.515625 41.375 12.890625 
Q 45.40625 18.265625 45.40625 27.984375 
z
M 54.390625 6.78125 
Q 54.390625 -7.171875 48.1875 -13.984375 
Q 42 -20.796875 29.203125 -20.796875 
Q 24.46875 -20.796875 20.265625 -20.09375 
Q 16.0625 -19.390625 12.109375 -17.921875 
L 12.109375 -9.1875 
Q 16.0625 -11.328125 19.921875 -12.34375 
Q 23.78125 -13.375 27.78125 -13.375 
Q 36.625 -13.375 41.015625 -8.765625 
Q 45.40625 -4.15625 45.40625 5.171875 
L 45.40625 9.625 
Q 42.625 4.78125 38.28125 2.390625 
Q 33.9375 0 27.875 0 
Q 17.828125 0 11.671875 7.65625 
Q 5.515625 15.328125 5.515625 27.984375 
Q 5.515625 40.671875 11.671875 48.328125 
Q 17.828125 56 27.875 56 
Q 33.9375 56 38.28125 53.609375 
Q 42.625 51.21875 45.40625 46.390625 
L 45.40625 54.6875 
L 54.390625 54.6875 
z
" id="DejaVuSans-103"/>
      <path d="M 54.890625 33.015625 
L 54.890625 0 
L 45.90625 0 
L 45.90625 32.71875 
Q 45.90625 40.484375 42.875 44.328125 
Q 39.84375 48.1875 33.796875 48.1875 
Q 26.515625 48.1875 22.3125 43.546875 
Q 18.109375 38.921875 18.109375 30.90625 
L 18.109375 0 
L 9.078125 0 
L 9.078125 54.6875 
L 18.109375 54.6875 
L 18.109375 46.1875 
Q 21.34375 51.125 25.703125 53.5625 
Q 30.078125 56 35.796875 56 
Q 45.21875 56 50.046875 50.171875 
Q 54.890625 44.34375 54.890625 33.015625 
z
" id="DejaVuSans-110"/>
      <path d="M 9.421875 75.984375 
L 18.40625 75.984375 
L 18.40625 0 
L 9.421875 0 
z
" id="DejaVuSans-108"/>
      <path id="DejaVuSans-32"/>
      <path d="M 28.609375 0 
L 0.78125 72.90625 
L 11.078125 72.90625 
L 34.1875 11.53125 
L 57.328125 72.90625 
L 67.578125 72.90625 
L 39.796875 0 
z
" id="DejaVuSans-86"/>
     </defs>
     <g style="fill:#ffffff;" transform="translate(66.292187 249.221719)rotate(-90)scale(0.1 -0.1)">
      <use xlink:href="#DejaVuSans-83"/>
      <use x="63.476562" xlink:href="#DejaVuSans-105"/>
      <use x="91.259766" xlink:href="#DejaVuSans-103"/>
      <use x="154.736328" xlink:href="#DejaVuSans-110"/>
      <use x="218.115234" xlink:href="#DejaVuSans-97"/>
      <use x="279.394531" xlink:href="#DejaVuSans-108"/>
      <use x="307.177734" xlink:href="#DejaVuSans-32"/>
      <use x="338.964844" xlink:href="#DejaVuSans-86"/>
      <use x="407.263672" xlink:href="#DejaVuSans-97"/>
      <use x="468.542969" xlink:href="#DejaVuSans-108"/>
      <use x="496.326172" xlink:href="#DejaVuSans-117"/>
      <use x="559.705078" xlink:href="#DejaVuSans-101"/>
     </g>
    </g>
   </g>
   <g id="line2d_23">
    <path clip-path="url(#p115d4ed3b1)" d="M 138.436364 369.36 
L 144.585124 366.316001 
L 150.733884 367.945896 
L 156.882645 359.595817 
L 163.031405 357.154668 
L 169.180165 355.335619 
L 175.328926 356.911395 
L 181.477686 351.940598 
L 187.626446 352.382827 
L 193.775207 348.466751 
L 199.923967 339.1681 
L 206.072727 342.55305 
L 212.221488 343.75512 
L 218.370248 337.52884 
L 224.519008 339.391127 
L 230.667769 336.525788 
L 236.816529 333.628408 
L 242.965289 329.486319 
L 249.11405 323.133636 
L 255.26281 321.626571 
L 261.41157 319.254282 
L 267.560331 321.243096 
L 273.709091 317.121693 
L 279.857851 312.267737 
L 286.006612 312.186127 
L 292.155372 308.591847 
L 298.304132 303.946165 
L 304.452893 303.503202 
L 310.601653 299.226979 
L 316.750413 292.719557 
L 322.899174 294.94715 
L 329.047934 288.447417 
L 335.196694 287.439898 
L 341.345455 290.34659 
L 347.494215 286.549938 
L 353.642975 283.005431 
L 359.791736 280.253167 
L 365.940496 275.286621 
L 372.089256 270.468928 
L 378.238017 265.813525 
L 384.386777 265.577874 
L 390.535537 264.78459 
L 396.684298 266.440956 
L 402.833058 257.487058 
L 408.981818 254.65847 
L 415.130579 251.247512 
L 421.279339 242.88185 
L 427.428099 242.294371 
L 433.57686 240.542738 
L 439.72562 242.383739 
L 445.87438 238.067869 
L 452.02314 233.820683 
L 458.171901 232.626948 
L 464.320661 225.946615 
L 470.469421 223.216226 
L 476.618182 224.106588 
L 482.766942 214.551752 
L 488.915702 214.426214 
L 495.064463 216.342683 
L 501.213223 208.432362 
L 507.361983 204.264438 
L 513.510744 199.07512 
L 519.659504 199.463803 
L 525.808264 192.914432 
L 531.957025 191.396181 
L 538.105785 192.26802 
L 544.254545 189.202836 
L 550.403306 178.746324 
L 556.552066 175.160493 
L 562.700826 174.202631 
L 568.849587 167.508164 
L 574.998347 165.301644 
L 581.147107 162.89253 
L 587.295868 163.881378 
L 593.444628 153.006863 
L 599.593388 152.842554 
L 605.742149 151.897385 
L 611.890909 149.146258 
L 618.039669 143.002071 
L 624.18843 144.814801 
L 630.33719 134.593951 
L 636.48595 135.603536 
L 642.634711 128.272556 
L 648.783471 127.119316 
L 654.932231 122.735295 
L 661.080992 120.42911 
L 667.229752 115.063381 
L 673.378512 105.612912 
L 679.527273 103.286453 
L 685.676033 102.41327 
L 691.824793 99.703106 
L 697.973554 93.483083 
L 704.122314 88.876969 
L 710.271074 90.530081 
L 716.419835 84.584092 
L 722.568595 85.599902 
L 728.717355 73.489156 
L 734.866116 66.96 
L 741.014876 68.594522 
L 747.163636 70.826653 
" style="fill:none;stroke:#98fe09;stroke-linecap:square;stroke-width:2;"/>
    <defs>
     <path d="M 0 3 
C 0.795609 3 1.55874 2.683901 2.12132 2.12132 
C 2.683901 1.55874 3 0.795609 3 0 
C 3 -0.795609 2.683901 -1.55874 2.12132 -2.12132 
C 1.55874 -2.683901 0.795609 -3 0 -3 
C -0.795609 -3 -1.55874 -2.683901 -2.12132 -2.12132 
C -2.683901 -1.55874 -3 -0.795609 -3 0 
C -3 0.795609 -2.683901 1.55874 -2.12132 2.12132 
C -1.55874 2.683901 -0.795609 3 0 3 
z
" id="mac806bc03f" style="stroke:#98fe09;"/>
    </defs>
    <g clip-path="url(#p115d4ed3b1)">
     <use style="fill:#98fe09;stroke:#98fe09;" x="138.436364" xlink:href="#mac806bc03f" y="369.36"/>
     <use style="fill:#98fe09;stroke:#98fe09;" x="144.585124" xlink:href="#mac806bc03f" y="366.316001"/>
     <use style="fill:#98fe09;stroke:#98fe09;" x="150.733884" xlink:href="#mac806bc03f" y="367.945896"/>
     <use style="fill:#98fe09;stroke:#98fe09;" x="156.882645" xlink:href="#mac806bc03f" y="359.595817"/>
     <use style="fill:#98fe09;stroke:#98fe09;" x="163.031405" xlink:href="#mac806bc03f" y="357.154668"/>
     <use style="fill:#98fe09;stroke:#98fe09;" x="169.180165" xlink:href="#mac806bc03f" y="355.335619"/>
     <use style="fill:#98fe09;stroke:#98fe09;" x="175.328926" xlink:href="#mac806bc03f" y="356.911395"/>
     <use style="fill:#98fe09;stroke:#98fe09;" x="181.477686" xlink:href="#mac806bc03f" y="351.940598"/>
     <use style="fill:#98fe09;stroke:#98fe09;" x="187.626446" xlink:href="#mac806bc03f" y="352.382827"/>
     <use style="fill:#98fe09;stroke:#98fe09;" x="193.775207" xlink:href="#mac806bc03f" y="348.466751"/>
     <use style="fill:#98fe09;stroke:#98fe09;" x="199.923967" xlink:href="#mac806bc03f" y="339.1681"/>
     <use style="fill:#98fe09;stroke:#98fe09;" x="206.072727" xlink:href="#mac806bc03f" y="342.55305"/>
     <use style="fill:#98fe09;stroke:#98fe09;" x="212.221488" xlink:href="#mac806bc03f" y="343.75512"/>
     <use style="fill:#98fe09;stroke:#98fe09;" x="218.370248" xlink:href="#mac806bc03f" y="337.52884"/>
     <use style="fill:#98fe09;stroke:#98fe09;" x="224.519008" xlink:href="#mac806bc03f" y="339.391127"/>
     <use style="fill:#98fe09;stroke:#98fe09;" x="230.667769" xlink:href="#mac806bc03f" y="336.525788"/>
     <use style="fill:#98fe09;stroke:#98fe09;" x="236.816529" xlink:href="#mac806bc03f" y="333.628408"/>
     <use style="fill:#98fe09;stroke:#98fe09;" x="242.965289" xlink:href="#mac806bc03f" y="329.486319"/>
     <use style="fill:#98fe09;stroke:#98fe09;" x="249.11405" xlink:href="#mac806bc03f" y="323.133636"/>
     <use style="fill:#98fe09;stroke:#98fe09;" x="255.26281" xlink:href="#mac806bc03f" y="321.626571"/>
     <use style="fill:#98fe09;stroke:#98fe09;" x="261.41157" xlink:href="#mac806bc03f" y="319.254282"/>
     <use style="fill:#98fe09;stroke:#98fe09;" x="267.560331" xlink:href="#mac806bc03f" y="321.243096"/>
     <use style="fill:#98fe09;stroke:#98fe09;" x="273.709091" xlink:href="#mac806bc03f" y="317.121693"/>
     <use style="fill:#98fe09;stroke:#98fe09;" x="279.857851" xlink:href="#mac806bc03f" y="312.267737"/>
     <use style="fill:#98fe09;stroke:#98fe09;" x="286.006612" xlink:href="#mac806bc03f" y="312.186127"/>
     <use style="fill:#98fe09;stroke:#98fe09;" x="292.155372" xlink:href="#mac806bc03f" y="308.591847"/>
     <use style="fill:#98fe09;stroke:#98fe09;" x="298.304132" xlink:href="#mac806bc03f" y="303.946165"/>
     <use style="fill:#98fe09;stroke:#98fe09;" x="304.452893" xlink:href="#mac806bc03f" y="303.503202"/>
     <use style="fill:#98fe09;stroke:#98fe09;" x="310.601653" xlink:href="#mac806bc03f" y="299.226979"/>
     <use style="fill:#98fe09;stroke:#98fe09;" x="316.750413" xlink:href="#mac806bc03f" y="292.719557"/>
     <use style="fill:#98fe09;stroke:#98fe09;" x="322.899174" xlink:href="#mac806bc03f" y="294.94715"/>
     <use style="fill:#98fe09;stroke:#98fe09;" x="329.047934" xlink:href="#mac806bc03f" y="288.447417"/>
     <use style="fill:#98fe09;stroke:#98fe09;" x="335.196694" xlink:href="#mac806bc03f" y="287.439898"/>
     <use style="fill:#98fe09;stroke:#98fe09;" x="341.345455" xlink:href="#mac806bc03f" y="290.34659"/>
     <use style="fill:#98fe09;stroke:#98fe09;" x="347.494215" xlink:href="#mac806bc03f" y="286.549938"/>
     <use style="fill:#98fe09;stroke:#98fe09;" x="353.642975" xlink:href="#mac806bc03f" y="283.005431"/>
     <use style="fill:#98fe09;stroke:#98fe09;" x="359.791736" xlink:href="#mac806bc03f" y="280.253167"/>
     <use style="fill:#98fe09;stroke:#98fe09;" x="365.940496" xlink:href="#mac806bc03f" y="275.286621"/>
     <use style="fill:#98fe09;stroke:#98fe09;" x="372.089256" xlink:href="#mac806bc03f" y="270.468928"/>
     <use style="fill:#98fe09;stroke:#98fe09;" x="378.238017" xlink:href="#mac806bc03f" y="265.813525"/>
     <use style="fill:#98fe09;stroke:#98fe09;" x="384.386777" xlink:href="#mac806bc03f" y="265.577874"/>
     <use style="fill:#98fe09;stroke:#98fe09;" x="390.535537" xlink:href="#mac806bc03f" y="264.78459"/>
     <use style="fill:#98fe09;stroke:#98fe09;" x="396.684298" xlink:href="#mac806bc03f" y="266.440956"/>
     <use style="fill:#98fe09;stroke:#98fe09;" x="402.833058" xlink:href="#mac806bc03f" y="257.487058"/>
     <use style="fill:#98fe09;stroke:#98fe09;" x="408.981818" xlink:href="#mac806bc03f" y="254.65847"/>
     <use style="fill:#98fe09;stroke:#98fe09;" x="415.130579" xlink:href="#mac806bc03f" y="251.247512"/>
     <use style="fill:#98fe09;stroke:#98fe09;" x="421.279339" xlink:href="#mac806bc03f" y="242.88185"/>
     <use style="fill:#98fe09;stroke:#98fe09;" x="427.428099" xlink:href="#mac806bc03f" y="242.294371"/>
     <use style="fill:#98fe09;stroke:#98fe09;" x="433.57686" xlink:href="#mac806bc03f" y="240.542738"/>
     <use style="fill:#98fe09;stroke:#98fe09;" x="439.72562" xlink:href="#mac806bc03f" y="242.383739"/>
     <use style="fill:#98fe09;stroke:#98fe09;" x="445.87438" xlink:href="#mac806bc03f" y="238.067869"/>
     <use style="fill:#98fe09;stroke:#98fe09;" x="452.02314" xlink:href="#mac806bc03f" y="233.820683"/>
     <use style="fill:#98fe09;stroke:#98fe09;" x="458.171901" xlink:href="#mac806bc03f" y="232.626948"/>
     <use style="fill:#98fe09;stroke:#98fe09;" x="464.320661" xlink:href="#mac806bc03f" y="225.946615"/>
     <use style="fill:#98fe09;stroke:#98fe09;" x="470.469421" xlink:href="#mac806bc03f" y="223.216226"/>
     <use style="fill:#98fe09;stroke:#98fe09;" x="476.618182" xlink:href="#mac806bc03f" y="224.106588"/>
     <use style="fill:#98fe09;stroke:#98fe09;" x="482.766942" xlink:href="#mac806bc03f" y="214.551752"/>
     <use style="fill:#98fe09;stroke:#98fe09;" x="488.915702" xlink:href="#mac806bc03f" y="214.426214"/>
     <use style="fill:#98fe09;stroke:#98fe09;" x="495.064463" xlink:href="#mac806bc03f" y="216.342683"/>
     <use style="fill:#98fe09;stroke:#98fe09;" x="501.213223" xlink:href="#mac806bc03f" y="208.432362"/>
     <use style="fill:#98fe09;stroke:#98fe09;" x="507.361983" xlink:href="#mac806bc03f" y="204.264438"/>
     <use style="fill:#98fe09;stroke:#98fe09;" x="513.510744" xlink:href="#mac806bc03f" y="199.07512"/>
     <use style="fill:#98fe09;stroke:#98fe09;" x="519.659504" xlink:href="#mac806bc03f" y="199.463803"/>
     <use style="fill:#98fe09;stroke:#98fe09;" x="525.808264" xlink:href="#mac806bc03f" y="192.914432"/>
     <use style="fill:#98fe09;stroke:#98fe09;" x="531.957025" xlink:href="#mac806bc03f" y="191.396181"/>
     <use style="fill:#98fe09;stroke:#98fe09;" x="538.105785" xlink:href="#mac806bc03f" y="192.26802"/>
     <use style="fill:#98fe09;stroke:#98fe09;" x="544.254545" xlink:href="#mac806bc03f" y="189.202836"/>
     <use style="fill:#98fe09;stroke:#98fe09;" x="550.403306" xlink:href="#mac806bc03f" y="178.746324"/>
     <use style="fill:#98fe09;stroke:#98fe09;" x="556.552066" xlink:href="#mac806bc03f" y="175.160493"/>
     <use style="fill:#98fe09;stroke:#98fe09;" x="562.700826" xlink:href="#mac806bc03f" y="174.202631"/>
     <use style="fill:#98fe09;stroke:#98fe09;" x="568.849587" xlink:href="#mac806bc03f" y="167.508164"/>
     <use style="fill:#98fe09;stroke:#98fe09;" x="574.998347" xlink:href="#mac806bc03f" y="165.301644"/>
     <use style="fill:#98fe09;stroke:#98fe09;" x="581.147107" xlink:href="#mac806bc03f" y="162.89253"/>
     <use style="fill:#98fe09;stroke:#98fe09;" x="587.295868" xlink:href="#mac806bc03f" y="163.881378"/>
     <use style="fill:#98fe09;stroke:#98fe09;" x="593.444628" xlink:href="#mac806bc03f" y="153.006863"/>
     <use style="fill:#98fe09;stroke:#98fe09;" x="599.593388" xlink:href="#mac806bc03f" y="152.842554"/>
     <use style="fill:#98fe09;stroke:#98fe09;" x="605.742149" xlink:href="#mac806bc03f" y="151.897385"/>
     <use style="fill:#98fe09;stroke:#98fe09;" x="611.890909" xlink:href="#mac806bc03f" y="149.146258"/>
     <use style="fill:#98fe09;stroke:#98fe09;" x="618.039669" xlink:href="#mac806bc03f" y="143.002071"/>
     <use style="fill:#98fe09;stroke:#98fe09;" x="624.18843" xlink:href="#mac806bc03f" y="144.814801"/>
     <use style="fill:#98fe09;stroke:#98fe09;" x="630.33719" xlink:href="#mac806bc03f" y="134.593951"/>
     <use style="fill:#98fe09;stroke:#98fe09;" x="636.48595" xlink:href="#mac806bc03f" y="135.603536"/>
     <use style="fill:#98fe09;stroke:#98fe09;" x="642.634711" xlink:href="#mac806bc03f" y="128.272556"/>
     <use style="fill:#98fe09;stroke:#98fe09;" x="648.783471" xlink:href="#mac806bc03f" y="127.119316"/>
     <use style="fill:#98fe09;stroke:#98fe09;" x="654.932231" xlink:href="#mac806bc03f" y="122.735295"/>
     <use style="fill:#98fe09;stroke:#98fe09;" x="661.080992" xlink:href="#mac806bc03f" y="120.42911"/>
     <use style="fill:#98fe09;stroke:#98fe09;" x="667.229752" xlink:href="#mac806bc03f" y="115.063381"/>
     <use style="fill:#98fe09;stroke:#98fe09;" x="673.378512" xlink:href="#mac806bc03f" y="105.612912"/>
     <use style="fill:#98fe09;stroke:#98fe09;" x="679.527273" xlink:href="#mac806bc03f" y="103.286453"/>
     <use style="fill:#98fe09;stroke:#98fe09;" x="685.676033" xlink:href="#mac806bc03f" y="102.41327"/>
     <use style="fill:#98fe09;stroke:#98fe09;" x="691.824793" xlink:href="#mac806bc03f" y="99.703106"/>
     <use style="fill:#98fe09;stroke:#98fe09;" x="697.973554" xlink:href="#mac806bc03f" y="93.483083"/>
     <use style="fill:#98fe09;stroke:#98fe09;" x="704.122314" xlink:href="#mac806bc03f" y="88.876969"/>
     <use style="fill:#98fe09;stroke:#98fe09;" x="710.271074" xlink:href="#mac806bc03f" y="90.530081"/>
     <use style="fill:#98fe09;stroke:#98fe09;" x="716.419835" xlink:href="#mac806bc03f" y="84.584092"/>
     <use style="fill:#98fe09;stroke:#98fe09;" x="722.568595" xlink:href="#mac806bc03f" y="85.599902"/>
     <use style="fill:#98fe09;stroke:#98fe09;" x="728.717355" xlink:href="#mac806bc03f" y="73.489156"/>
     <use style="fill:#98fe09;stroke:#98fe09;" x="734.866116" xlink:href="#mac806bc03f" y="66.96"/>
     <use style="fill:#98fe09;stroke:#98fe09;" x="741.014876" xlink:href="#mac806bc03f" y="68.594522"/>
     <use style="fill:#98fe09;stroke:#98fe09;" x="747.163636" xlink:href="#mac806bc03f" y="70.826653"/>
    </g>
   </g>
   <g id="line2d_24">
    <path clip-path="url(#p115d4ed3b1)" d="M 138.436364 369.36 
L 144.585124 366.316001 
L 150.733884 367.945896 
L 156.882645 359.595817 
L 163.031405 357.154668 
L 169.180165 355.335619 
L 175.328926 356.911395 
L 181.477686 351.940598 
L 187.626446 352.382827 
L 193.775207 348.466751 
L 199.923967 339.1681 
L 206.072727 342.55305 
L 212.221488 343.75512 
L 218.370248 337.52884 
L 224.519008 339.391127 
L 230.667769 336.525788 
L 236.816529 333.628408 
L 242.965289 329.486319 
L 249.11405 323.133636 
L 255.26281 321.626571 
L 261.41157 319.254282 
L 267.560331 321.243096 
L 273.709091 317.121693 
L 279.857851 312.267737 
L 286.006612 312.186127 
L 292.155372 308.591847 
L 298.304132 303.946165 
L 304.452893 303.503202 
L 310.601653 299.226979 
L 316.750413 292.719557 
L 322.899174 294.94715 
L 329.047934 288.447417 
L 335.196694 287.439898 
L 341.345455 290.34659 
L 347.494215 286.549938 
L 353.642975 283.005431 
L 359.791736 280.253167 
L 365.940496 275.286621 
L 372.089256 270.468928 
L 378.238017 265.813525 
L 384.386777 265.577874 
L 390.535537 264.78459 
L 396.684298 266.440956 
L 402.833058 257.487058 
L 408.981818 254.65847 
L 415.130579 251.247512 
L 421.279339 242.88185 
L 427.428099 242.294371 
L 433.57686 240.542738 
L 439.72562 102.618806 
L 445.87438 238.067869 
L 452.02314 233.820683 
L 458.171901 232.626948 
L 464.320661 225.946615 
L 470.469421 223.216226 
L 476.618182 224.106588 
L 482.766942 214.551752 
L 488.915702 214.426214 
L 495.064463 216.342683 
L 501.213223 208.432362 
L 507.361983 204.264438 
L 513.510744 199.07512 
L 519.659504 199.463803 
L 525.808264 192.914432 
L 531.957025 191.396181 
L 538.105785 192.26802 
L 544.254545 189.202836 
L 550.403306 178.746324 
L 556.552066 175.160493 
L 562.700826 174.202631 
L 568.849587 167.508164 
L 574.998347 165.301644 
L 581.147107 162.89253 
L 587.295868 163.881378 
L 593.444628 153.006863 
L 599.593388 152.842554 
L 605.742149 151.897385 
L 611.890909 149.146258 
L 618.039669 143.002071 
L 624.18843 144.814801 
L 630.33719 134.593951 
L 636.48595 135.603536 
L 642.634711 128.272556 
L 648.783471 127.119316 
L 654.932231 122.735295 
L 661.080992 120.42911 
L 667.229752 115.063381 
L 673.378512 105.612912 
L 679.527273 103.286453 
L 685.676033 102.41327 
L 691.824793 99.703106 
L 697.973554 93.483083 
L 704.122314 88.876969 
L 710.271074 90.530081 
L 716.419835 84.584092 
L 722.568595 85.599902 
L 728.717355 73.489156 
L 734.866116 66.96 
L 741.014876 68.594522 
L 747.163636 70.826653 
" style="fill:none;stroke:#00ffff;stroke-linecap:square;stroke-width:2;"/>
    <defs>
     <path d="M 0 3 
C 0.795609 3 1.55874 2.683901 2.12132 2.12132 
C 2.683901 1.55874 3 0.795609 3 0 
C 3 -0.795609 2.683901 -1.55874 2.12132 -2.12132 
C 1.55874 -2.683901 0.795609 -3 0 -3 
C -0.795609 -3 -1.55874 -2.683901 -2.12132 -2.12132 
C -2.683901 -1.55874 -3 -0.795609 -3 0 
C -3 0.795609 -2.683901 1.55874 -2.12132 2.12132 
C -1.55874 2.683901 -0.795609 3 0 3 
z
" id="m61d075944f" style="stroke:#00ffff;"/>
    </defs>
    <g clip-path="url(#p115d4ed3b1)">
     <use style="fill:#00ffff;stroke:#00ffff;" x="138.436364" xlink:href="#m61d075944f" y="369.36"/>
     <use style="fill:#00ffff;stroke:#00ffff;" x="144.585124" xlink:href="#m61d075944f" y="366.316001"/>
     <use style="fill:#00ffff;stroke:#00ffff;" x="150.733884" xlink:href="#m61d075944f" y="367.945896"/>
     <use style="fill:#00ffff;stroke:#00ffff;" x="156.882645" xlink:href="#m61d075944f" y="359.595817"/>
     <use style="fill:#00ffff;stroke:#00ffff;" x="163.031405" xlink:href="#m61d075944f" y="357.154668"/>
     <use style="fill:#00ffff;stroke:#00ffff;" x="169.180165" xlink:href="#m61d075944f" y="355.335619"/>
     <use style="fill:#00ffff;stroke:#00ffff;" x="175.328926" xlink:href="#m61d075944f" y="356.911395"/>
     <use style="fill:#00ffff;stroke:#00ffff;" x="181.477686" xlink:href="#m61d075944f" y="351.940598"/>
     <use style="fill:#00ffff;stroke:#00ffff;" x="187.626446" xlink:href="#m61d075944f" y="352.382827"/>
     <use style="fill:#00ffff;stroke:#00ffff;" x="193.775207" xlink:href="#m61d075944f" y="348.466751"/>
     <use style="fill:#00ffff;stroke:#00ffff;" x="199.923967" xlink:href="#m61d075944f" y="339.1681"/>
     <use style="fill:#00ffff;stroke:#00ffff;" x="206.072727" xlink:href="#m61d075944f" y="342.55305"/>
     <use style="fill:#00ffff;stroke:#00ffff;" x="212.221488" xlink:href="#m61d075944f" y="343.75512"/>
     <use style="fill:#00ffff;stroke:#00ffff;" x="218.370248" xlink:href="#m61d075944f" y="337.52884"/>
     <use style="fill:#00ffff;stroke:#00ffff;" x="224.519008" xlink:href="#m61d075944f" y="339.391127"/>
     <use style="fill:#00ffff;stroke:#00ffff;" x="230.667769" xlink:href="#m61d075944f" y="336.525788"/>
     <use style="fill:#00ffff;stroke:#00ffff;" x="236.816529" xlink:href="#m61d075944f" y="333.628408"/>
     <use style="fill:#00ffff;stroke:#00ffff;" x="242.965289" xlink:href="#m61d075944f" y="329.486319"/>
     <use style="fill:#00ffff;stroke:#00ffff;" x="249.11405" xlink:href="#m61d075944f" y="323.133636"/>
     <use style="fill:#00ffff;stroke:#00ffff;" x="255.26281" xlink:href="#m61d075944f" y="321.626571"/>
     <use style="fill:#00ffff;stroke:#00ffff;" x="261.41157" xlink:href="#m61d075944f" y="319.254282"/>
     <use style="fill:#00ffff;stroke:#00ffff;" x="267.560331" xlink:href="#m61d075944f" y="321.243096"/>
     <use style="fill:#00ffff;stroke:#00ffff;" x="273.709091" xlink:href="#m61d075944f" y="317.121693"/>
     <use style="fill:#00ffff;stroke:#00ffff;" x="279.857851" xlink:href="#m61d075944f" y="312.267737"/>
     <use style="fill:#00ffff;stroke:#00ffff;" x="286.006612" xlink:href="#m61d075944f" y="312.186127"/>
     <use style="fill:#00ffff;stroke:#00ffff;" x="292.155372" xlink:href="#m61d075944f" y="308.591847"/>
     <use style="fill:#00ffff;stroke:#00ffff;" x="298.304132" xlink:href="#m61d075944f" y="303.946165"/>
     <use style="fill:#00ffff;stroke:#00ffff;" x="304.452893" xlink:href="#m61d075944f" y="303.503202"/>
     <use style="fill:#00ffff;stroke:#00ffff;" x="310.601653" xlink:href="#m61d075944f" y="299.226979"/>
     <use style="fill:#00ffff;stroke:#00ffff;" x="316.750413" xlink:href="#m61d075944f" y="292.719557"/>
     <use style="fill:#00ffff;stroke:#00ffff;" x="322.899174" xlink:href="#m61d075944f" y="294.94715"/>
     <use style="fill:#00ffff;stroke:#00ffff;" x="329.047934" xlink:href="#m61d075944f" y="288.447417"/>
     <use style="fill:#00ffff;stroke:#00ffff;" x="335.196694" xlink:href="#m61d075944f" y="287.439898"/>
     <use style="fill:#00ffff;stroke:#00ffff;" x="341.345455" xlink:href="#m61d075944f" y="290.34659"/>
     <use style="fill:#00ffff;stroke:#00ffff;" x="347.494215" xlink:href="#m61d075944f" y="286.549938"/>
     <use style="fill:#00ffff;stroke:#00ffff;" x="353.642975" xlink:href="#m61d075944f" y="283.005431"/>
     <use style="fill:#00ffff;stroke:#00ffff;" x="359.791736" xlink:href="#m61d075944f" y="280.253167"/>
     <use style="fill:#00ffff;stroke:#00ffff;" x="365.940496" xlink:href="#m61d075944f" y="275.286621"/>
     <use style="fill:#00ffff;stroke:#00ffff;" x="372.089256" xlink:href="#m61d075944f" y="270.468928"/>
     <use style="fill:#00ffff;stroke:#00ffff;" x="378.238017" xlink:href="#m61d075944f" y="265.813525"/>
     <use style="fill:#00ffff;stroke:#00ffff;" x="384.386777" xlink:href="#m61d075944f" y="265.577874"/>
     <use style="fill:#00ffff;stroke:#00ffff;" x="390.535537" xlink:href="#m61d075944f" y="264.78459"/>
     <use style="fill:#00ffff;stroke:#00ffff;" x="396.684298" xlink:href="#m61d075944f" y="266.440956"/>
     <use style="fill:#00ffff;stroke:#00ffff;" x="402.833058" xlink:href="#m61d075944f" y="257.487058"/>
     <use style="fill:#00ffff;stroke:#00ffff;" x="408.981818" xlink:href="#m61d075944f" y="254.65847"/>
     <use style="fill:#00ffff;stroke:#00ffff;" x="415.130579" xlink:href="#m61d075944f" y="251.247512"/>
     <use style="fill:#00ffff;stroke:#00ffff;" x="421.279339" xlink:href="#m61d075944f" y="242.88185"/>
     <use style="fill:#00ffff;stroke:#00ffff;" x="427.428099" xlink:href="#m61d075944f" y="242.294371"/>
     <use style="fill:#00ffff;stroke:#00ffff;" x="433.57686" xlink:href="#m61d075944f" y="240.542738"/>
     <use style="fill:#00ffff;stroke:#00ffff;" x="439.72562" xlink:href="#m61d075944f" y="102.618806"/>
     <use style="fill:#00ffff;stroke:#00ffff;" x="445.87438" xlink:href="#m61d075944f" y="238.067869"/>
     <use style="fill:#00ffff;stroke:#00ffff;" x="452.02314" xlink:href="#m61d075944f" y="233.820683"/>
     <use style="fill:#00ffff;stroke:#00ffff;" x="458.171901" xlink:href="#m61d075944f" y="232.626948"/>
     <use style="fill:#00ffff;stroke:#00ffff;" x="464.320661" xlink:href="#m61d075944f" y="225.946615"/>
     <use style="fill:#00ffff;stroke:#00ffff;" x="470.469421" xlink:href="#m61d075944f" y="223.216226"/>
     <use style="fill:#00ffff;stroke:#00ffff;" x="476.618182" xlink:href="#m61d075944f" y="224.106588"/>
     <use style="fill:#00ffff;stroke:#00ffff;" x="482.766942" xlink:href="#m61d075944f" y="214.551752"/>
     <use style="fill:#00ffff;stroke:#00ffff;" x="488.915702" xlink:href="#m61d075944f" y="214.426214"/>
     <use style="fill:#00ffff;stroke:#00ffff;" x="495.064463" xlink:href="#m61d075944f" y="216.342683"/>
     <use style="fill:#00ffff;stroke:#00ffff;" x="501.213223" xlink:href="#m61d075944f" y="208.432362"/>
     <use style="fill:#00ffff;stroke:#00ffff;" x="507.361983" xlink:href="#m61d075944f" y="204.264438"/>
     <use style="fill:#00ffff;stroke:#00ffff;" x="513.510744" xlink:href="#m61d075944f" y="199.07512"/>
     <use style="fill:#00ffff;stroke:#00ffff;" x="519.659504" xlink:href="#m61d075944f" y="199.463803"/>
     <use style="fill:#00ffff;stroke:#00ffff;" x="525.808264" xlink:href="#m61d075944f" y="192.914432"/>
     <use style="fill:#00ffff;stroke:#00ffff;" x="531.957025" xlink:href="#m61d075944f" y="191.396181"/>
     <use style="fill:#00ffff;stroke:#00ffff;" x="538.105785" xlink:href="#m61d075944f" y="192.26802"/>
     <use style="fill:#00ffff;stroke:#00ffff;" x="544.254545" xlink:href="#m61d075944f" y="189.202836"/>
     <use style="fill:#00ffff;stroke:#00ffff;" x="550.403306" xlink:href="#m61d075944f" y="178.746324"/>
     <use style="fill:#00ffff;stroke:#00ffff;" x="556.552066" xlink:href="#m61d075944f" y="175.160493"/>
     <use style="fill:#00ffff;stroke:#00ffff;" x="562.700826" xlink:href="#m61d075944f" y="174.202631"/>
     <use style="fill:#00ffff;stroke:#00ffff;" x="568.849587" xlink:href="#m61d075944f" y="167.508164"/>
     <use style="fill:#00ffff;stroke:#00ffff;" x="574.998347" xlink:href="#m61d075944f" y="165.301644"/>
     <use style="fill:#00ffff;stroke:#00ffff;" x="581.147107" xlink:href="#m61d075944f" y="162.89253"/>
     <use style="fill:#00ffff;stroke:#00ffff;" x="587.295868" xlink:href="#m61d075944f" y="163.881378"/>
     <use style="fill:#00ffff;stroke:#00ffff;" x="593.444628" xlink:href="#m61d075944f" y="153.006863"/>
     <use style="fill:#00ffff;stroke:#00ffff;" x="599.593388" xlink:href="#m61d075944f" y="152.842554"/>
     <use style="fill:#00ffff;stroke:#00ffff;" x="605.742149" xlink:href="#m61d075944f" y="151.897385"/>
     <use style="fill:#00ffff;stroke:#00ffff;" x="611.890909" xlink:href="#m61d075944f" y="149.146258"/>
     <use style="fill:#00ffff;stroke:#00ffff;" x="618.039669" xlink:href="#m61d075944f" y="143.002071"/>
     <use style="fill:#00ffff;stroke:#00ffff;" x="624.18843" xlink:href="#m61d075944f" y="144.814801"/>
     <use style="fill:#00ffff;stroke:#00ffff;" x="630.33719" xlink:href="#m61d075944f" y="134.593951"/>
     <use style="fill:#00ffff;stroke:#00ffff;" x="636.48595" xlink:href="#m61d075944f" y="135.603536"/>
     <use style="fill:#00ffff;stroke:#00ffff;" x="642.634711" xlink:href="#m61d075944f" y="128.272556"/>
     <use style="fill:#00ffff;stroke:#00ffff;" x="648.783471" xlink:href="#m61d075944f" y="127.119316"/>
     <use style="fill:#00ffff;stroke:#00ffff;" x="654.932231" xlink:href="#m61d075944f" y="122.735295"/>
     <use style="fill:#00ffff;stroke:#00ffff;" x="661.080992" xlink:href="#m61d075944f" y="120.42911"/>
     <use style="fill:#00ffff;stroke:#00ffff;" x="667.229752" xlink:href="#m61d075944f" y="115.063381"/>
     <use style="fill:#00ffff;stroke:#00ffff;" x="673.378512" xlink:href="#m61d075944f" y="105.612912"/>
     <use style="fill:#00ffff;stroke:#00ffff;" x="679.527273" xlink:href="#m61d075944f" y="103.286453"/>
     <use style="fill:#00ffff;stroke:#00ffff;" x="685.676033" xlink:href="#m61d075944f" y="102.41327"/>
     <use style="fill:#00ffff;stroke:#00ffff;" x="691.824793" xlink:href="#m61d075944f" y="99.703106"/>
     <use style="fill:#00ffff;stroke:#00ffff;" x="697.973554" xlink:href="#m61d075944f" y="93.483083"/>
     <use style="fill:#00ffff;stroke:#00ffff;" x="704.122314" xlink:href="#m61d075944f" y="88.876969"/>
     <use style="fill:#00ffff;stroke:#00ffff;" x="710.271074" xlink:href="#m61d075944f" y="90.530081"/>
     <use style="fill:#00ffff;stroke:#00ffff;" x="716.419835" xlink:href="#m61d075944f" y="84.584092"/>
     <use style="fill:#00ffff;stroke:#00ffff;" x="722.568595" xlink:href="#m61d075944f" y="85.599902"/>
     <use style="fill:#00ffff;stroke:#00ffff;" x="728.717355" xlink:href="#m61d075944f" y="73.489156"/>
     <use style="fill:#00ffff;stroke:#00ffff;" x="734.866116" xlink:href="#m61d075944f" y="66.96"/>
     <use style="fill:#00ffff;stroke:#00ffff;" x="741.014876" xlink:href="#m61d075944f" y="68.594522"/>
     <use style="fill:#00ffff;stroke:#00ffff;" x="747.163636" xlink:href="#m61d075944f" y="70.826653"/>
    </g>
   </g>
   <g id="line2d_25">
    <path clip-path="url(#p115d4ed3b1)" d="M 442.8 384.48 
L 442.8 51.84 
" style="fill:none;stroke:#00ff00;stroke-dasharray:7.4,3.2;stroke-dashoffset:0;stroke-opacity:0.7;stroke-width:2;"/>
   </g>
   <g id="patch_3">
    <path d="M 108 384.48 
L 108 51.84 
" style="fill:none;stroke:#ffffff;stroke-linecap:square;stroke-linejoin:miter;stroke-width:0.8;"/>
   </g>
   <g id="patch_4">
    <path d="M 777.6 384.48 
L 777.6 51.84 
" style="fill:none;stroke:#ffffff;stroke-linecap:square;stroke-linejoin:miter;stroke-width:0.8;"/>
   </g>
   <g id="patch_5">
    <path d="M 108 384.48 
L 777.6 384.48 
" style="fill:none;stroke:#ffffff;stroke-linecap:square;stroke-linejoin:miter;stroke-width:0.8;"/>
   </g>
   <g id="patch_6">
    <path d="M 108 51.84 
L 777.6 51.84 
" style="fill:none;stroke:#ffffff;stroke-linecap:square;stroke-linejoin:miter;stroke-width:0.8;"/>
   </g>
   <g id="text_14">
    <!-- Time Step 30 - Signal vs Temperature (Before/After Anomaly) -->
    <defs>
     <path d="M 40.578125 39.3125 
Q 47.65625 37.796875 51.625 33 
Q 55.609375 28.21875 55.609375 21.1875 
Q 55.609375 10.40625 48.1875 4.484375 
Q 40.765625 -1.421875 27.09375 -1.421875 
Q 22.515625 -1.421875 17.65625 -0.515625 
Q 12.796875 0.390625 7.625 2.203125 
L 7.625 11.71875 
Q 11.71875 9.328125 16.59375 8.109375 
Q 21.484375 6.890625 26.8125 6.890625 
Q 36.078125 6.890625 40.9375 10.546875 
Q 45.796875 14.203125 45.796875 21.1875 
Q 45.796875 27.640625 41.28125 31.265625 
Q 36.765625 34.90625 28.71875 34.90625 
L 20.21875 34.90625 
L 20.21875 43.015625 
L 29.109375 43.015625 
Q 36.375 43.015625 40.234375 45.921875 
Q 44.09375 48.828125 44.09375 54.296875 
Q 44.09375 59.90625 40.109375 62.90625 
Q 36.140625 65.921875 28.71875 65.921875 
Q 24.65625 65.921875 20.015625 65.03125 
Q 15.375 64.15625 9.8125 62.3125 
L 9.8125 71.09375 
Q 15.4375 72.65625 20.34375 73.4375 
Q 25.25 74.21875 29.59375 74.21875 
Q 40.828125 74.21875 47.359375 69.109375 
Q 53.90625 64.015625 53.90625 55.328125 
Q 53.90625 49.265625 50.4375 45.09375 
Q 46.96875 40.921875 40.578125 39.3125 
z
" id="DejaVuSans-51"/>
     <path d="M 4.890625 31.390625 
L 31.203125 31.390625 
L 31.203125 23.390625 
L 4.890625 23.390625 
z
" id="DejaVuSans-45"/>
     <path d="M 2.984375 54.6875 
L 12.5 54.6875 
L 29.59375 8.796875 
L 46.6875 54.6875 
L 56.203125 54.6875 
L 35.6875 0 
L 23.484375 0 
z
" id="DejaVuSans-118"/>
     <path d="M 44.28125 53.078125 
L 44.28125 44.578125 
Q 40.484375 46.53125 36.375 47.5 
Q 32.28125 48.484375 27.875 48.484375 
Q 21.1875 48.484375 17.84375 46.4375 
Q 14.5 44.390625 14.5 40.28125 
Q 14.5 37.15625 16.890625 35.375 
Q 19.28125 33.59375 26.515625 31.984375 
L 29.59375 31.296875 
Q 39.15625 29.25 43.1875 25.515625 
Q 47.21875 21.78125 47.21875 15.09375 
Q 47.21875 7.46875 41.1875 3.015625 
Q 35.15625 -1.421875 24.609375 -1.421875 
Q 20.21875 -1.421875 15.453125 -0.5625 
Q 10.6875 0.296875 5.421875 2 
L 5.421875 11.28125 
Q 10.40625 8.6875 15.234375 7.390625 
Q 20.0625 6.109375 24.8125 6.109375 
Q 31.15625 6.109375 34.5625 8.28125 
Q 37.984375 10.453125 37.984375 14.40625 
Q 37.984375 18.0625 35.515625 20.015625 
Q 33.0625 21.96875 24.703125 23.78125 
L 21.578125 24.515625 
Q 13.234375 26.265625 9.515625 29.90625 
Q 5.8125 33.546875 5.8125 39.890625 
Q 5.8125 47.609375 11.28125 51.796875 
Q 16.75 56 26.8125 56 
Q 31.78125 56 36.171875 55.265625 
Q 40.578125 54.546875 44.28125 53.078125 
z
" id="DejaVuSans-115"/>
     <path d="M 31 75.875 
Q 24.46875 64.65625 21.28125 53.65625 
Q 18.109375 42.671875 18.109375 31.390625 
Q 18.109375 20.125 21.3125 9.0625 
Q 24.515625 -2 31 -13.1875 
L 23.1875 -13.1875 
Q 15.875 -1.703125 12.234375 9.375 
Q 8.59375 20.453125 8.59375 31.390625 
Q 8.59375 42.28125 12.203125 53.3125 
Q 15.828125 64.359375 23.1875 75.875 
z
" id="DejaVuSans-40"/>
     <path d="M 19.671875 34.8125 
L 19.671875 8.109375 
L 35.5 8.109375 
Q 43.453125 8.109375 47.28125 11.40625 
Q 51.125 14.703125 51.125 21.484375 
Q 51.125 28.328125 47.28125 31.5625 
Q 43.453125 34.8125 35.5 34.8125 
z
M 19.671875 64.796875 
L 19.671875 42.828125 
L 34.28125 42.828125 
Q 41.5 42.828125 45.03125 45.53125 
Q 48.578125 48.25 48.578125 53.8125 
Q 48.578125 59.328125 45.03125 62.0625 
Q 41.5 64.796875 34.28125 64.796875 
z
M 9.8125 72.90625 
L 35.015625 72.90625 
Q 46.296875 72.90625 52.390625 68.21875 
Q 58.5 63.53125 58.5 54.890625 
Q 58.5 48.1875 55.375 44.234375 
Q 52.25 40.28125 46.1875 39.3125 
Q 53.46875 37.75 57.5 32.78125 
Q 61.53125 27.828125 61.53125 20.40625 
Q 61.53125 10.640625 54.890625 5.3125 
Q 48.25 0 35.984375 0 
L 9.8125 0 
z
" id="DejaVuSans-66"/>
     <path d="M 37.109375 75.984375 
L 37.109375 68.5 
L 28.515625 68.5 
Q 23.6875 68.5 21.796875 66.546875 
Q 19.921875 64.59375 19.921875 59.515625 
L 19.921875 54.6875 
L 34.71875 54.6875 
L 34.71875 47.703125 
L 19.921875 47.703125 
L 19.921875 0 
L 10.890625 0 
L 10.890625 47.703125 
L 2.296875 47.703125 
L 2.296875 54.6875 
L 10.890625 54.6875 
L 10.890625 58.5 
Q 10.890625 67.625 15.140625 71.796875 
Q 19.390625 75.984375 28.609375 75.984375 
z
" id="DejaVuSans-102"/>
     <path d="M 30.609375 48.390625 
Q 23.390625 48.390625 19.1875 42.75 
Q 14.984375 37.109375 14.984375 27.296875 
Q 14.984375 17.484375 19.15625 11.84375 
Q 23.34375 6.203125 30.609375 6.203125 
Q 37.796875 6.203125 41.984375 11.859375 
Q 46.1875 17.53125 46.1875 27.296875 
Q 46.1875 37.015625 41.984375 42.703125 
Q 37.796875 48.390625 30.609375 48.390625 
z
M 30.609375 56 
Q 42.328125 56 49.015625 48.375 
Q 55.71875 40.765625 55.71875 27.296875 
Q 55.71875 13.875 49.015625 6.21875 
Q 42.328125 -1.421875 30.609375 -1.421875 
Q 18.84375 -1.421875 12.171875 6.21875 
Q 5.515625 13.875 5.515625 27.296875 
Q 5.515625 40.765625 12.171875 48.375 
Q 18.84375 56 30.609375 56 
z
" id="DejaVuSans-111"/>
     <path d="M 25.390625 72.90625 
L 33.6875 72.90625 
L 8.296875 -9.28125 
L 0 -9.28125 
z
" id="DejaVuSans-47"/>
     <path d="M 34.1875 63.1875 
L 20.796875 26.90625 
L 47.609375 26.90625 
z
M 28.609375 72.90625 
L 39.796875 72.90625 
L 67.578125 0 
L 57.328125 0 
L 50.6875 18.703125 
L 17.828125 18.703125 
L 11.1875 0 
L 0.78125 0 
z
" id="DejaVuSans-65"/>
     <path d="M 32.171875 -5.078125 
Q 28.375 -14.84375 24.75 -17.8125 
Q 21.140625 -20.796875 15.09375 -20.796875 
L 7.90625 -20.796875 
L 7.90625 -13.28125 
L 13.1875 -13.28125 
Q 16.890625 -13.28125 18.9375 -11.515625 
Q 21 -9.765625 23.484375 -3.21875 
L 25.09375 0.875 
L 2.984375 54.6875 
L 12.5 54.6875 
L 29.59375 11.921875 
L 46.6875 54.6875 
L 56.203125 54.6875 
z
" id="DejaVuSans-121"/>
     <path d="M 8.015625 75.875 
L 15.828125 75.875 
Q 23.140625 64.359375 26.78125 53.3125 
Q 30.421875 42.28125 30.421875 31.390625 
Q 30.421875 20.453125 26.78125 9.375 
Q 23.140625 -1.703125 15.828125 -13.1875 
L 8.015625 -13.1875 
Q 14.5 -2 17.703125 9.0625 
Q 20.90625 20.125 20.90625 31.390625 
Q 20.90625 42.671875 17.703125 53.65625 
Q 14.5 64.65625 8.015625 75.875 
z
" id="DejaVuSans-41"/>
    </defs>
    <g style="fill:#ffffff;" transform="translate(195.7025 45.84)scale(0.16 -0.16)">
     <use xlink:href="#DejaVuSans-84"/>
     <use x="61.037109" xlink:href="#DejaVuSans-105"/>
     <use x="88.820312" xlink:href="#DejaVuSans-109"/>
     <use x="186.232422" xlink:href="#DejaVuSans-101"/>
     <use x="247.755859" xlink:href="#DejaVuSans-32"/>
     <use x="279.542969" xlink:href="#DejaVuSans-83"/>
     <use x="343.019531" xlink:href="#DejaVuSans-116"/>
     <use x="382.228516" xlink:href="#DejaVuSans-101"/>
     <use x="443.751953" xlink:href="#DejaVuSans-112"/>
     <use x="507.228516" xlink:href="#DejaVuSans-32"/>
     <use x="539.015625" xlink:href="#DejaVuSans-51"/>
     <use x="602.638672" xlink:href="#DejaVuSans-48"/>
     <use x="666.261719" xlink:href="#DejaVuSans-32"/>
     <use x="698.048828" xlink:href="#DejaVuSans-45"/>
     <use x="734.132812" xlink:href="#DejaVuSans-32"/>
     <use x="765.919922" xlink:href="#DejaVuSans-83"/>
     <use x="829.396484" xlink:href="#DejaVuSans-105"/>
     <use x="857.179688" xlink:href="#DejaVuSans-103"/>
     <use x="920.65625" xlink:href="#DejaVuSans-110"/>
     <use x="984.035156" xlink:href="#DejaVuSans-97"/>
     <use x="1045.314453" xlink:href="#DejaVuSans-108"/>
     <use x="1073.097656" xlink:href="#DejaVuSans-32"/>
     <use x="1104.884766" xlink:href="#DejaVuSans-118"/>
     <use x="1164.064453" xlink:href="#DejaVuSans-115"/>
     <use x="1216.164062" xlink:href="#DejaVuSans-32"/>
     <use x="1247.951172" xlink:href="#DejaVuSans-84"/>
     <use x="1308.769531" xlink:href="#DejaVuSans-101"/>
     <use x="1370.292969" xlink:href="#DejaVuSans-109"/>
     <use x="1467.705078" xlink:href="#DejaVuSans-112"/>
     <use x="1531.181641" xlink:href="#DejaVuSans-101"/>
     <use x="1592.705078" xlink:href="#DejaVuSans-114"/>
     <use x="1633.818359" xlink:href="#DejaVuSans-97"/>
     <use x="1695.097656" xlink:href="#DejaVuSans-116"/>
     <use x="1734.306641" xlink:href="#DejaVuSans-117"/>
     <use x="1797.685547" xlink:href="#DejaVuSans-114"/>
     <use x="1838.767578" xlink:href="#DejaVuSans-101"/>
     <use x="1900.291016" xlink:href="#DejaVuSans-32"/>
     <use x="1932.078125" xlink:href="#DejaVuSans-40"/>
     <use x="1971.091797" xlink:href="#DejaVuSans-66"/>
     <use x="2039.695312" xlink:href="#DejaVuSans-101"/>
     <use x="2101.21875" xlink:href="#DejaVuSans-102"/>
     <use x="2136.423828" xlink:href="#DejaVuSans-111"/>
     <use x="2197.605469" xlink:href="#DejaVuSans-114"/>
     <use x="2238.6875" xlink:href="#DejaVuSans-101"/>
     <use x="2300.210938" xlink:href="#DejaVuSans-47"/>
     <use x="2333.902344" xlink:href="#DejaVuSans-65"/>
     <use x="2402.263672" xlink:href="#DejaVuSans-102"/>
     <use x="2437.453125" xlink:href="#DejaVuSans-116"/>
     <use x="2476.662109" xlink:href="#DejaVuSans-101"/>
     <use x="2538.185547" xlink:href="#DejaVuSans-114"/>
     <use x="2579.298828" xlink:href="#DejaVuSans-32"/>
     <use x="2611.085938" xlink:href="#DejaVuSans-65"/>
     <use x="2679.494141" xlink:href="#DejaVuSans-110"/>
     <use x="2742.873047" xlink:href="#DejaVuSans-111"/>
     <use x="2804.054688" xlink:href="#DejaVuSans-109"/>
     <use x="2901.466797" xlink:href="#DejaVuSans-97"/>
     <use x="2962.746094" xlink:href="#DejaVuSans-108"/>
     <use x="2990.529297" xlink:href="#DejaVuSans-121"/>
     <use x="3049.708984" xlink:href="#DejaVuSans-41"/>
    </g>
   </g>
   <g id="legend_1">
    <g id="patch_7">
     <path d="M 115 103.874375 
L 236.510938 103.874375 
Q 238.510938 103.874375 238.510938 101.874375 
L 238.510938 58.84 
Q 238.510938 56.84 236.510938 56.84 
L 115 56.84 
Q 113 56.84 113 58.84 
L 113 101.874375 
Q 113 103.874375 115 103.874375 
z
" style="fill:#121212;opacity:0.8;stroke:#ffffff;stroke-linejoin:miter;"/>
    </g>
    <g id="line2d_26">
     <path d="M 117 64.938437 
L 137 64.938437 
" style="fill:none;stroke:#98fe09;stroke-linecap:square;stroke-width:2;"/>
    </g>
    <g id="line2d_27">
     <g>
      <use style="fill:#98fe09;stroke:#98fe09;" x="127" xlink:href="#mac806bc03f" y="64.938437"/>
     </g>
    </g>
    <g id="text_15">
     <!-- Original -->
     <defs>
      <path d="M 39.40625 66.21875 
Q 28.65625 66.21875 22.328125 58.203125 
Q 16.015625 50.203125 16.015625 36.375 
Q 16.015625 22.609375 22.328125 14.59375 
Q 28.65625 6.59375 39.40625 6.59375 
Q 50.140625 6.59375 56.421875 14.59375 
Q 62.703125 22.609375 62.703125 36.375 
Q 62.703125 50.203125 56.421875 58.203125 
Q 50.140625 66.21875 39.40625 66.21875 
z
M 39.40625 74.21875 
Q 54.734375 74.21875 63.90625 63.9375 
Q 73.09375 53.65625 73.09375 36.375 
Q 73.09375 19.140625 63.90625 8.859375 
Q 54.734375 -1.421875 39.40625 -1.421875 
Q 24.03125 -1.421875 14.8125 8.828125 
Q 5.609375 19.09375 5.609375 36.375 
Q 5.609375 53.65625 14.8125 63.9375 
Q 24.03125 74.21875 39.40625 74.21875 
z
" id="DejaVuSans-79"/>
     </defs>
     <g style="fill:#ffffff;" transform="translate(145 68.438437)scale(0.1 -0.1)">
      <use xlink:href="#DejaVuSans-79"/>
      <use x="78.710938" xlink:href="#DejaVuSans-114"/>
      <use x="119.824219" xlink:href="#DejaVuSans-105"/>
      <use x="147.607422" xlink:href="#DejaVuSans-103"/>
      <use x="211.083984" xlink:href="#DejaVuSans-105"/>
      <use x="238.867188" xlink:href="#DejaVuSans-110"/>
      <use x="302.246094" xlink:href="#DejaVuSans-97"/>
      <use x="363.525391" xlink:href="#DejaVuSans-108"/>
     </g>
    </g>
    <g id="line2d_28">
     <path d="M 117 79.616562 
L 137 79.616562 
" style="fill:none;stroke:#00ffff;stroke-linecap:square;stroke-width:2;"/>
    </g>
    <g id="line2d_29">
     <g>
      <use style="fill:#00ffff;stroke:#00ffff;" x="127" xlink:href="#m61d075944f" y="79.616562"/>
     </g>
    </g>
    <g id="text_16">
     <!-- With Anomaly -->
     <defs>
      <path d="M 3.328125 72.90625 
L 13.28125 72.90625 
L 28.609375 11.28125 
L 43.890625 72.90625 
L 54.984375 72.90625 
L 70.3125 11.28125 
L 85.59375 72.90625 
L 95.609375 72.90625 
L 77.296875 0 
L 64.890625 0 
L 49.515625 63.28125 
L 33.984375 0 
L 21.578125 0 
z
" id="DejaVuSans-87"/>
      <path d="M 54.890625 33.015625 
L 54.890625 0 
L 45.90625 0 
L 45.90625 32.71875 
Q 45.90625 40.484375 42.875 44.328125 
Q 39.84375 48.1875 33.796875 48.1875 
Q 26.515625 48.1875 22.3125 43.546875 
Q 18.109375 38.921875 18.109375 30.90625 
L 18.109375 0 
L 9.078125 0 
L 9.078125 75.984375 
L 18.109375 75.984375 
L 18.109375 46.1875 
Q 21.34375 51.125 25.703125 53.5625 
Q 30.078125 56 35.796875 56 
Q 45.21875 56 50.046875 50.171875 
Q 54.890625 44.34375 54.890625 33.015625 
z
" id="DejaVuSans-104"/>
     </defs>
     <g style="fill:#ffffff;" transform="translate(145 83.116562)scale(0.1 -0.1)">
      <use xlink:href="#DejaVuSans-87"/>
      <use x="98.845703" xlink:href="#DejaVuSans-105"/>
      <use x="126.628906" xlink:href="#DejaVuSans-116"/>
      <use x="165.837891" xlink:href="#DejaVuSans-104"/>
      <use x="229.216797" xlink:href="#DejaVuSans-32"/>
      <use x="261.003906" xlink:href="#DejaVuSans-65"/>
      <use x="329.412109" xlink:href="#DejaVuSans-110"/>
      <use x="392.791016" xlink:href="#DejaVuSans-111"/>
      <use x="453.972656" xlink:href="#DejaVuSans-109"/>
      <use x="551.384766" xlink:href="#DejaVuSans-97"/>
      <use x="612.664062" xlink:href="#DejaVuSans-108"/>
      <use x="640.447266" xlink:href="#DejaVuSans-121"/>
     </g>
    </g>
    <g id="line2d_30">
     <path d="M 117 94.294687 
L 137 94.294687 
" style="fill:none;stroke:#00ff00;stroke-dasharray:7.4,3.2;stroke-dashoffset:0;stroke-opacity:0.7;stroke-width:2;"/>
    </g>
    <g id="line2d_31"/>
    <g id="text_17">
     <!-- Anomaly Location -->
     <defs>
      <path d="M 9.8125 72.90625 
L 19.671875 72.90625 
L 19.671875 8.296875 
L 55.171875 8.296875 
L 55.171875 0 
L 9.8125 0 
z
" id="DejaVuSans-76"/>
      <path d="M 48.78125 52.59375 
L 48.78125 44.1875 
Q 44.96875 46.296875 41.140625 47.34375 
Q 37.3125 48.390625 33.40625 48.390625 
Q 24.65625 48.390625 19.8125 42.84375 
Q 14.984375 37.3125 14.984375 27.296875 
Q 14.984375 17.28125 19.8125 11.734375 
Q 24.65625 6.203125 33.40625 6.203125 
Q 37.3125 6.203125 41.140625 7.25 
Q 44.96875 8.296875 48.78125 10.40625 
L 48.78125 2.09375 
Q 45.015625 0.34375 40.984375 -0.53125 
Q 36.96875 -1.421875 32.421875 -1.421875 
Q 20.0625 -1.421875 12.78125 6.34375 
Q 5.515625 14.109375 5.515625 27.296875 
Q 5.515625 40.671875 12.859375 48.328125 
Q 20.21875 56 33.015625 56 
Q 37.15625 56 41.109375 55.140625 
Q 45.0625 54.296875 48.78125 52.59375 
z
" id="DejaVuSans-99"/>
     </defs>
     <g style="fill:#ffffff;" transform="translate(145 97.794687)scale(0.1 -0.1)">
      <use xlink:href="#DejaVuSans-65"/>
      <use x="68.408203" xlink:href="#DejaVuSans-110"/>
      <use x="131.787109" xlink:href="#DejaVuSans-111"/>
      <use x="192.96875" xlink:href="#DejaVuSans-109"/>
      <use x="290.380859" xlink:href="#DejaVuSans-97"/>
      <use x="351.660156" xlink:href="#DejaVuSans-108"/>
      <use x="379.443359" xlink:href="#DejaVuSans-121"/>
      <use x="438.623047" xlink:href="#DejaVuSans-32"/>
      <use x="470.410156" xlink:href="#DejaVuSans-76"/>
      <use x="526.107422" xlink:href="#DejaVuSans-111"/>
      <use x="587.289062" xlink:href="#DejaVuSans-99"/>
      <use x="642.269531" xlink:href="#DejaVuSans-97"/>
      <use x="703.548828" xlink:href="#DejaVuSans-116"/>
      <use x="742.757812" xlink:href="#DejaVuSans-105"/>
      <use x="770.541016" xlink:href="#DejaVuSans-111"/>
      <use x="831.722656" xlink:href="#DejaVuSans-110"/>
     </g>
    </g>
   </g>
  </g>
 </g>
 <defs>
  <clipPath id="p115d4ed3b1">
   <rect height="332.64" width="669.6" x="108" y="51.84"/>
  </clipPath>
 </defs>
</svg>
