<?xml version="1.0" encoding="utf-8" standalone="no"?>
<!DOCTYPE svg PUBLIC "-//W3C//DTD SVG 1.1//EN"
  "http://www.w3.org/Graphics/SVG/1.1/DTD/svg11.dtd">
<!-- Created with matplotlib (https://matplotlib.org/) -->
<svg height="288pt" version="1.1" viewBox="0 0 864 288" width="864pt" xmlns="http://www.w3.org/2000/svg" xmlns:xlink="http://www.w3.org/1999/xlink">
 <defs>
  <style type="text/css">
*{stroke-linecap:butt;stroke-linejoin:round;}
  </style>
 </defs>
 <g id="figure_1">
  <g id="patch_1">
   <path d="M 0 288 
L 864 288 
L 864 0 
L 0 0 
z
" style="fill:#121212;"/>
  </g>
  <g id="axes_1">
   <g id="patch_2">
    <path d="M 108 256.32 
L 777.6 256.32 
L 777.6 34.56 
L 108 34.56 
z
" style="fill:#121212;"/>
   </g>
   <g id="matplotlib.axis_1">
    <g id="xtick_1">
     <g id="line2d_1">
      <path clip-path="url(#p35d39344ec)" d="M 138.436364 256.32 
L 138.436364 34.56 
" style="fill:none;stroke:#ffffff;stroke-linecap:square;stroke-opacity:0.3;stroke-width:0.8;"/>
     </g>
     <g id="line2d_2">
      <defs>
       <path d="M 0 0 
L 0 3.5 
" id="m3e1e2da93f" style="stroke:#ffffff;stroke-width:0.8;"/>
      </defs>
      <g>
       <use style="fill:#ffffff;stroke:#ffffff;stroke-width:0.8;" x="138.436364" xlink:href="#m3e1e2da93f" y="256.32"/>
      </g>
     </g>
     <g id="text_1">
      <!-- 0.0 -->
      <defs>
       <path d="M 31.78125 66.40625 
Q 24.171875 66.40625 20.328125 58.90625 
Q 16.5 51.421875 16.5 36.375 
Q 16.5 21.390625 20.328125 13.890625 
Q 24.171875 6.390625 31.78125 6.390625 
Q 39.453125 6.390625 43.28125 13.890625 
Q 47.125 21.390625 47.125 36.375 
Q 47.125 51.421875 43.28125 58.90625 
Q 39.453125 66.40625 31.78125 66.40625 
z
M 31.78125 74.21875 
Q 44.046875 74.21875 50.515625 64.515625 
Q 56.984375 54.828125 56.984375 36.375 
Q 56.984375 17.96875 50.515625 8.265625 
Q 44.046875 -1.421875 31.78125 -1.421875 
Q 19.53125 -1.421875 13.0625 8.265625 
Q 6.59375 17.96875 6.59375 36.375 
Q 6.59375 54.828125 13.0625 64.515625 
Q 19.53125 74.21875 31.78125 74.21875 
z
" id="DejaVuSans-48"/>
       <path d="M 10.6875 12.40625 
L 21 12.40625 
L 21 0 
L 10.6875 0 
z
" id="DejaVuSans-46"/>
      </defs>
      <g style="fill:#ffffff;" transform="translate(130.484801 270.918437)scale(0.1 -0.1)">
       <use xlink:href="#DejaVuSans-48"/>
       <use x="63.623047" xlink:href="#DejaVuSans-46"/>
       <use x="95.410156" xlink:href="#DejaVuSans-48"/>
      </g>
     </g>
    </g>
    <g id="xtick_2">
     <g id="line2d_3">
      <path clip-path="url(#p35d39344ec)" d="M 240.060282 256.32 
L 240.060282 34.56 
" style="fill:none;stroke:#ffffff;stroke-linecap:square;stroke-opacity:0.3;stroke-width:0.8;"/>
     </g>
     <g id="line2d_4">
      <g>
       <use style="fill:#ffffff;stroke:#ffffff;stroke-width:0.8;" x="240.060282" xlink:href="#m3e1e2da93f" y="256.32"/>
      </g>
     </g>
     <g id="text_2">
      <!-- 0.1 -->
      <defs>
       <path d="M 12.40625 8.296875 
L 28.515625 8.296875 
L 28.515625 63.921875 
L 10.984375 60.40625 
L 10.984375 69.390625 
L 28.421875 72.90625 
L 38.28125 72.90625 
L 38.28125 8.296875 
L 54.390625 8.296875 
L 54.390625 0 
L 12.40625 0 
z
" id="DejaVuSans-49"/>
      </defs>
      <g style="fill:#ffffff;" transform="translate(232.10872 270.918437)scale(0.1 -0.1)">
       <use xlink:href="#DejaVuSans-48"/>
       <use x="63.623047" xlink:href="#DejaVuSans-46"/>
       <use x="95.410156" xlink:href="#DejaVuSans-49"/>
      </g>
     </g>
    </g>
    <g id="xtick_3">
     <g id="line2d_5">
      <path clip-path="url(#p35d39344ec)" d="M 341.684201 256.32 
L 341.684201 34.56 
" style="fill:none;stroke:#ffffff;stroke-linecap:square;stroke-opacity:0.3;stroke-width:0.8;"/>
     </g>
     <g id="line2d_6">
      <g>
       <use style="fill:#ffffff;stroke:#ffffff;stroke-width:0.8;" x="341.684201" xlink:href="#m3e1e2da93f" y="256.32"/>
      </g>
     </g>
     <g id="text_3">
      <!-- 0.2 -->
      <defs>
       <path d="M 19.1875 8.296875 
L 53.609375 8.296875 
L 53.609375 0 
L 7.328125 0 
L 7.328125 8.296875 
Q 12.9375 14.109375 22.625 23.890625 
Q 32.328125 33.6875 34.8125 36.53125 
Q 39.546875 41.84375 41.421875 45.53125 
Q 43.3125 49.21875 43.3125 52.78125 
Q 43.3125 58.59375 39.234375 62.25 
Q 35.15625 65.921875 28.609375 65.921875 
Q 23.96875 65.921875 18.8125 64.3125 
Q 13.671875 62.703125 7.8125 59.421875 
L 7.8125 69.390625 
Q 13.765625 71.78125 18.9375 73 
Q 24.125 74.21875 28.421875 74.21875 
Q 39.75 74.21875 46.484375 68.546875 
Q 53.21875 62.890625 53.21875 53.421875 
Q 53.21875 48.921875 51.53125 44.890625 
Q 49.859375 40.875 45.40625 35.40625 
Q 44.1875 33.984375 37.640625 27.21875 
Q 31.109375 20.453125 19.1875 8.296875 
z
" id="DejaVuSans-50"/>
      </defs>
      <g style="fill:#ffffff;" transform="translate(333.732638 270.918437)scale(0.1 -0.1)">
       <use xlink:href="#DejaVuSans-48"/>
       <use x="63.623047" xlink:href="#DejaVuSans-46"/>
       <use x="95.410156" xlink:href="#DejaVuSans-50"/>
      </g>
     </g>
    </g>
    <g id="xtick_4">
     <g id="line2d_7">
      <path clip-path="url(#p35d39344ec)" d="M 443.30812 256.32 
L 443.30812 34.56 
" style="fill:none;stroke:#ffffff;stroke-linecap:square;stroke-opacity:0.3;stroke-width:0.8;"/>
     </g>
     <g id="line2d_8">
      <g>
       <use style="fill:#ffffff;stroke:#ffffff;stroke-width:0.8;" x="443.30812" xlink:href="#m3e1e2da93f" y="256.32"/>
      </g>
     </g>
     <g id="text_4">
      <!-- 0.3 -->
      <defs>
       <path d="M 40.578125 39.3125 
Q 47.65625 37.796875 51.625 33 
Q 55.609375 28.21875 55.609375 21.1875 
Q 55.609375 10.40625 48.1875 4.484375 
Q 40.765625 -1.421875 27.09375 -1.421875 
Q 22.515625 -1.421875 17.65625 -0.515625 
Q 12.796875 0.390625 7.625 2.203125 
L 7.625 11.71875 
Q 11.71875 9.328125 16.59375 8.109375 
Q 21.484375 6.890625 26.8125 6.890625 
Q 36.078125 6.890625 40.9375 10.546875 
Q 45.796875 14.203125 45.796875 21.1875 
Q 45.796875 27.640625 41.28125 31.265625 
Q 36.765625 34.90625 28.71875 34.90625 
L 20.21875 34.90625 
L 20.21875 43.015625 
L 29.109375 43.015625 
Q 36.375 43.015625 40.234375 45.921875 
Q 44.09375 48.828125 44.09375 54.296875 
Q 44.09375 59.90625 40.109375 62.90625 
Q 36.140625 65.921875 28.71875 65.921875 
Q 24.65625 65.921875 20.015625 65.03125 
Q 15.375 64.15625 9.8125 62.3125 
L 9.8125 71.09375 
Q 15.4375 72.65625 20.34375 73.4375 
Q 25.25 74.21875 29.59375 74.21875 
Q 40.828125 74.21875 47.359375 69.109375 
Q 53.90625 64.015625 53.90625 55.328125 
Q 53.90625 49.265625 50.4375 45.09375 
Q 46.96875 40.921875 40.578125 39.3125 
z
" id="DejaVuSans-51"/>
      </defs>
      <g style="fill:#ffffff;" transform="translate(435.356557 270.918437)scale(0.1 -0.1)">
       <use xlink:href="#DejaVuSans-48"/>
       <use x="63.623047" xlink:href="#DejaVuSans-46"/>
       <use x="95.410156" xlink:href="#DejaVuSans-51"/>
      </g>
     </g>
    </g>
    <g id="xtick_5">
     <g id="line2d_9">
      <path clip-path="url(#p35d39344ec)" d="M 544.932038 256.32 
L 544.932038 34.56 
" style="fill:none;stroke:#ffffff;stroke-linecap:square;stroke-opacity:0.3;stroke-width:0.8;"/>
     </g>
     <g id="line2d_10">
      <g>
       <use style="fill:#ffffff;stroke:#ffffff;stroke-width:0.8;" x="544.932038" xlink:href="#m3e1e2da93f" y="256.32"/>
      </g>
     </g>
     <g id="text_5">
      <!-- 0.4 -->
      <defs>
       <path d="M 37.796875 64.3125 
L 12.890625 25.390625 
L 37.796875 25.390625 
z
M 35.203125 72.90625 
L 47.609375 72.90625 
L 47.609375 25.390625 
L 58.015625 25.390625 
L 58.015625 17.1875 
L 47.609375 17.1875 
L 47.609375 0 
L 37.796875 0 
L 37.796875 17.1875 
L 4.890625 17.1875 
L 4.890625 26.703125 
z
" id="DejaVuSans-52"/>
      </defs>
      <g style="fill:#ffffff;" transform="translate(536.980476 270.918437)scale(0.1 -0.1)">
       <use xlink:href="#DejaVuSans-48"/>
       <use x="63.623047" xlink:href="#DejaVuSans-46"/>
       <use x="95.410156" xlink:href="#DejaVuSans-52"/>
      </g>
     </g>
    </g>
    <g id="xtick_6">
     <g id="line2d_11">
      <path clip-path="url(#p35d39344ec)" d="M 646.555957 256.32 
L 646.555957 34.56 
" style="fill:none;stroke:#ffffff;stroke-linecap:square;stroke-opacity:0.3;stroke-width:0.8;"/>
     </g>
     <g id="line2d_12">
      <g>
       <use style="fill:#ffffff;stroke:#ffffff;stroke-width:0.8;" x="646.555957" xlink:href="#m3e1e2da93f" y="256.32"/>
      </g>
     </g>
     <g id="text_6">
      <!-- 0.5 -->
      <defs>
       <path d="M 10.796875 72.90625 
L 49.515625 72.90625 
L 49.515625 64.59375 
L 19.828125 64.59375 
L 19.828125 46.734375 
Q 21.96875 47.46875 24.109375 47.828125 
Q 26.265625 48.1875 28.421875 48.1875 
Q 40.625 48.1875 47.75 41.5 
Q 54.890625 34.8125 54.890625 23.390625 
Q 54.890625 11.625 47.5625 5.09375 
Q 40.234375 -1.421875 26.90625 -1.421875 
Q 22.3125 -1.421875 17.546875 -0.640625 
Q 12.796875 0.140625 7.71875 1.703125 
L 7.71875 11.625 
Q 12.109375 9.234375 16.796875 8.0625 
Q 21.484375 6.890625 26.703125 6.890625 
Q 35.15625 6.890625 40.078125 11.328125 
Q 45.015625 15.765625 45.015625 23.390625 
Q 45.015625 31 40.078125 35.4375 
Q 35.15625 39.890625 26.703125 39.890625 
Q 22.75 39.890625 18.8125 39.015625 
Q 14.890625 38.140625 10.796875 36.28125 
z
" id="DejaVuSans-53"/>
      </defs>
      <g style="fill:#ffffff;" transform="translate(638.604394 270.918437)scale(0.1 -0.1)">
       <use xlink:href="#DejaVuSans-48"/>
       <use x="63.623047" xlink:href="#DejaVuSans-46"/>
       <use x="95.410156" xlink:href="#DejaVuSans-53"/>
      </g>
     </g>
    </g>
    <g id="xtick_7">
     <g id="line2d_13">
      <path clip-path="url(#p35d39344ec)" d="M 748.179876 256.32 
L 748.179876 34.56 
" style="fill:none;stroke:#ffffff;stroke-linecap:square;stroke-opacity:0.3;stroke-width:0.8;"/>
     </g>
     <g id="line2d_14">
      <g>
       <use style="fill:#ffffff;stroke:#ffffff;stroke-width:0.8;" x="748.179876" xlink:href="#m3e1e2da93f" y="256.32"/>
      </g>
     </g>
     <g id="text_7">
      <!-- 0.6 -->
      <defs>
       <path d="M 33.015625 40.375 
Q 26.375 40.375 22.484375 35.828125 
Q 18.609375 31.296875 18.609375 23.390625 
Q 18.609375 15.53125 22.484375 10.953125 
Q 26.375 6.390625 33.015625 6.390625 
Q 39.65625 6.390625 43.53125 10.953125 
Q 47.40625 15.53125 47.40625 23.390625 
Q 47.40625 31.296875 43.53125 35.828125 
Q 39.65625 40.375 33.015625 40.375 
z
M 52.59375 71.296875 
L 52.59375 62.3125 
Q 48.875 64.0625 45.09375 64.984375 
Q 41.3125 65.921875 37.59375 65.921875 
Q 27.828125 65.921875 22.671875 59.328125 
Q 17.53125 52.734375 16.796875 39.40625 
Q 19.671875 43.65625 24.015625 45.921875 
Q 28.375 48.1875 33.59375 48.1875 
Q 44.578125 48.1875 50.953125 41.515625 
Q 57.328125 34.859375 57.328125 23.390625 
Q 57.328125 12.15625 50.6875 5.359375 
Q 44.046875 -1.421875 33.015625 -1.421875 
Q 20.359375 -1.421875 13.671875 8.265625 
Q 6.984375 17.96875 6.984375 36.375 
Q 6.984375 53.65625 15.1875 63.9375 
Q 23.390625 74.21875 37.203125 74.21875 
Q 40.921875 74.21875 44.703125 73.484375 
Q 48.484375 72.75 52.59375 71.296875 
z
" id="DejaVuSans-54"/>
      </defs>
      <g style="fill:#ffffff;" transform="translate(740.228313 270.918437)scale(0.1 -0.1)">
       <use xlink:href="#DejaVuSans-48"/>
       <use x="63.623047" xlink:href="#DejaVuSans-46"/>
       <use x="95.410156" xlink:href="#DejaVuSans-54"/>
      </g>
     </g>
    </g>
    <g id="text_8">
     <!-- Time (s) -->
     <defs>
      <path d="M -0.296875 72.90625 
L 61.375 72.90625 
L 61.375 64.59375 
L 35.5 64.59375 
L 35.5 0 
L 25.59375 0 
L 25.59375 64.59375 
L -0.296875 64.59375 
z
" id="DejaVuSans-84"/>
      <path d="M 9.421875 54.6875 
L 18.40625 54.6875 
L 18.40625 0 
L 9.421875 0 
z
M 9.421875 75.984375 
L 18.40625 75.984375 
L 18.40625 64.59375 
L 9.421875 64.59375 
z
" id="DejaVuSans-105"/>
      <path d="M 52 44.1875 
Q 55.375 50.25 60.0625 53.125 
Q 64.75 56 71.09375 56 
Q 79.640625 56 84.28125 50.015625 
Q 88.921875 44.046875 88.921875 33.015625 
L 88.921875 0 
L 79.890625 0 
L 79.890625 32.71875 
Q 79.890625 40.578125 77.09375 44.375 
Q 74.3125 48.1875 68.609375 48.1875 
Q 61.625 48.1875 57.5625 43.546875 
Q 53.515625 38.921875 53.515625 30.90625 
L 53.515625 0 
L 44.484375 0 
L 44.484375 32.71875 
Q 44.484375 40.625 41.703125 44.40625 
Q 38.921875 48.1875 33.109375 48.1875 
Q 26.21875 48.1875 22.15625 43.53125 
Q 18.109375 38.875 18.109375 30.90625 
L 18.109375 0 
L 9.078125 0 
L 9.078125 54.6875 
L 18.109375 54.6875 
L 18.109375 46.1875 
Q 21.1875 51.21875 25.484375 53.609375 
Q 29.78125 56 35.6875 56 
Q 41.65625 56 45.828125 52.96875 
Q 50 49.953125 52 44.1875 
z
" id="DejaVuSans-109"/>
      <path d="M 56.203125 29.59375 
L 56.203125 25.203125 
L 14.890625 25.203125 
Q 15.484375 15.921875 20.484375 11.0625 
Q 25.484375 6.203125 34.421875 6.203125 
Q 39.59375 6.203125 44.453125 7.46875 
Q 49.3125 8.734375 54.109375 11.28125 
L 54.109375 2.78125 
Q 49.265625 0.734375 44.1875 -0.34375 
Q 39.109375 -1.421875 33.890625 -1.421875 
Q 20.796875 -1.421875 13.15625 6.1875 
Q 5.515625 13.8125 5.515625 26.8125 
Q 5.515625 40.234375 12.765625 48.109375 
Q 20.015625 56 32.328125 56 
Q 43.359375 56 49.78125 48.890625 
Q 56.203125 41.796875 56.203125 29.59375 
z
M 47.21875 32.234375 
Q 47.125 39.59375 43.09375 43.984375 
Q 39.0625 48.390625 32.421875 48.390625 
Q 24.90625 48.390625 20.390625 44.140625 
Q 15.875 39.890625 15.1875 32.171875 
z
" id="DejaVuSans-101"/>
      <path id="DejaVuSans-32"/>
      <path d="M 31 75.875 
Q 24.46875 64.65625 21.28125 53.65625 
Q 18.109375 42.671875 18.109375 31.390625 
Q 18.109375 20.125 21.3125 9.0625 
Q 24.515625 -2 31 -13.1875 
L 23.1875 -13.1875 
Q 15.875 -1.703125 12.234375 9.375 
Q 8.59375 20.453125 8.59375 31.390625 
Q 8.59375 42.28125 12.203125 53.3125 
Q 15.828125 64.359375 23.1875 75.875 
z
" id="DejaVuSans-40"/>
      <path d="M 44.28125 53.078125 
L 44.28125 44.578125 
Q 40.484375 46.53125 36.375 47.5 
Q 32.28125 48.484375 27.875 48.484375 
Q 21.1875 48.484375 17.84375 46.4375 
Q 14.5 44.390625 14.5 40.28125 
Q 14.5 37.15625 16.890625 35.375 
Q 19.28125 33.59375 26.515625 31.984375 
L 29.59375 31.296875 
Q 39.15625 29.25 43.1875 25.515625 
Q 47.21875 21.78125 47.21875 15.09375 
Q 47.21875 7.46875 41.1875 3.015625 
Q 35.15625 -1.421875 24.609375 -1.421875 
Q 20.21875 -1.421875 15.453125 -0.5625 
Q 10.6875 0.296875 5.421875 2 
L 5.421875 11.28125 
Q 10.40625 8.6875 15.234375 7.390625 
Q 20.0625 6.109375 24.8125 6.109375 
Q 31.15625 6.109375 34.5625 8.28125 
Q 37.984375 10.453125 37.984375 14.40625 
Q 37.984375 18.0625 35.515625 20.015625 
Q 33.0625 21.96875 24.703125 23.78125 
L 21.578125 24.515625 
Q 13.234375 26.265625 9.515625 29.90625 
Q 5.8125 33.546875 5.8125 39.890625 
Q 5.8125 47.609375 11.28125 51.796875 
Q 16.75 56 26.8125 56 
Q 31.78125 56 36.171875 55.265625 
Q 40.578125 54.546875 44.28125 53.078125 
z
" id="DejaVuSans-115"/>
      <path d="M 8.015625 75.875 
L 15.828125 75.875 
Q 23.140625 64.359375 26.78125 53.3125 
Q 30.421875 42.28125 30.421875 31.390625 
Q 30.421875 20.453125 26.78125 9.375 
Q 23.140625 -1.703125 15.828125 -13.1875 
L 8.015625 -13.1875 
Q 14.5 -2 17.703125 9.0625 
Q 20.90625 20.125 20.90625 31.390625 
Q 20.90625 42.671875 17.703125 53.65625 
Q 14.5 64.65625 8.015625 75.875 
z
" id="DejaVuSans-41"/>
     </defs>
     <g style="fill:#ffffff;" transform="translate(422.317187 284.596563)scale(0.1 -0.1)">
      <use xlink:href="#DejaVuSans-84"/>
      <use x="61.037109" xlink:href="#DejaVuSans-105"/>
      <use x="88.820312" xlink:href="#DejaVuSans-109"/>
      <use x="186.232422" xlink:href="#DejaVuSans-101"/>
      <use x="247.755859" xlink:href="#DejaVuSans-32"/>
      <use x="279.542969" xlink:href="#DejaVuSans-40"/>
      <use x="318.556641" xlink:href="#DejaVuSans-115"/>
      <use x="370.65625" xlink:href="#DejaVuSans-41"/>
     </g>
    </g>
   </g>
   <g id="matplotlib.axis_2">
    <g id="ytick_1">
     <g id="line2d_15">
      <path clip-path="url(#p35d39344ec)" d="M 108 240.408092 
L 777.6 240.408092 
" style="fill:none;stroke:#ffffff;stroke-linecap:square;stroke-opacity:0.3;stroke-width:0.8;"/>
     </g>
     <g id="line2d_16">
      <defs>
       <path d="M 0 0 
L -3.5 0 
" id="m3e099445f4" style="stroke:#ffffff;stroke-width:0.8;"/>
      </defs>
      <g>
       <use style="fill:#ffffff;stroke:#ffffff;stroke-width:0.8;" x="108" xlink:href="#m3e099445f4" y="240.408092"/>
      </g>
     </g>
     <g id="text_9">
      <!-- −1.0 -->
      <defs>
       <path d="M 10.59375 35.5 
L 73.1875 35.5 
L 73.1875 27.203125 
L 10.59375 27.203125 
z
" id="DejaVuSans-8722"/>
      </defs>
      <g style="fill:#ffffff;" transform="translate(76.717187 244.207311)scale(0.1 -0.1)">
       <use xlink:href="#DejaVuSans-8722"/>
       <use x="83.789062" xlink:href="#DejaVuSans-49"/>
       <use x="147.412109" xlink:href="#DejaVuSans-46"/>
       <use x="179.199219" xlink:href="#DejaVuSans-48"/>
      </g>
     </g>
    </g>
    <g id="ytick_2">
     <g id="line2d_17">
      <path clip-path="url(#p35d39344ec)" d="M 108 192.597174 
L 777.6 192.597174 
" style="fill:none;stroke:#ffffff;stroke-linecap:square;stroke-opacity:0.3;stroke-width:0.8;"/>
     </g>
     <g id="line2d_18">
      <g>
       <use style="fill:#ffffff;stroke:#ffffff;stroke-width:0.8;" x="108" xlink:href="#m3e099445f4" y="192.597174"/>
      </g>
     </g>
     <g id="text_10">
      <!-- −0.5 -->
      <g style="fill:#ffffff;" transform="translate(76.717187 196.396393)scale(0.1 -0.1)">
       <use xlink:href="#DejaVuSans-8722"/>
       <use x="83.789062" xlink:href="#DejaVuSans-48"/>
       <use x="147.412109" xlink:href="#DejaVuSans-46"/>
       <use x="179.199219" xlink:href="#DejaVuSans-53"/>
      </g>
     </g>
    </g>
    <g id="ytick_3">
     <g id="line2d_19">
      <path clip-path="url(#p35d39344ec)" d="M 108 144.786256 
L 777.6 144.786256 
" style="fill:none;stroke:#ffffff;stroke-linecap:square;stroke-opacity:0.3;stroke-width:0.8;"/>
     </g>
     <g id="line2d_20">
      <g>
       <use style="fill:#ffffff;stroke:#ffffff;stroke-width:0.8;" x="108" xlink:href="#m3e099445f4" y="144.786256"/>
      </g>
     </g>
     <g id="text_11">
      <!-- 0.0 -->
      <g style="fill:#ffffff;" transform="translate(85.096875 148.585475)scale(0.1 -0.1)">
       <use xlink:href="#DejaVuSans-48"/>
       <use x="63.623047" xlink:href="#DejaVuSans-46"/>
       <use x="95.410156" xlink:href="#DejaVuSans-48"/>
      </g>
     </g>
    </g>
    <g id="ytick_4">
     <g id="line2d_21">
      <path clip-path="url(#p35d39344ec)" d="M 108 96.975338 
L 777.6 96.975338 
" style="fill:none;stroke:#ffffff;stroke-linecap:square;stroke-opacity:0.3;stroke-width:0.8;"/>
     </g>
     <g id="line2d_22">
      <g>
       <use style="fill:#ffffff;stroke:#ffffff;stroke-width:0.8;" x="108" xlink:href="#m3e099445f4" y="96.975338"/>
      </g>
     </g>
     <g id="text_12">
      <!-- 0.5 -->
      <g style="fill:#ffffff;" transform="translate(85.096875 100.774557)scale(0.1 -0.1)">
       <use xlink:href="#DejaVuSans-48"/>
       <use x="63.623047" xlink:href="#DejaVuSans-46"/>
       <use x="95.410156" xlink:href="#DejaVuSans-53"/>
      </g>
     </g>
    </g>
    <g id="ytick_5">
     <g id="line2d_23">
      <path clip-path="url(#p35d39344ec)" d="M 108 49.16442 
L 777.6 49.16442 
" style="fill:none;stroke:#ffffff;stroke-linecap:square;stroke-opacity:0.3;stroke-width:0.8;"/>
     </g>
     <g id="line2d_24">
      <g>
       <use style="fill:#ffffff;stroke:#ffffff;stroke-width:0.8;" x="108" xlink:href="#m3e099445f4" y="49.16442"/>
      </g>
     </g>
     <g id="text_13">
      <!-- 1.0 -->
      <g style="fill:#ffffff;" transform="translate(85.096875 52.963639)scale(0.1 -0.1)">
       <use xlink:href="#DejaVuSans-49"/>
       <use x="63.623047" xlink:href="#DejaVuSans-46"/>
       <use x="95.410156" xlink:href="#DejaVuSans-48"/>
      </g>
     </g>
    </g>
    <g id="text_14">
     <!-- Amplitude -->
     <defs>
      <path d="M 34.1875 63.1875 
L 20.796875 26.90625 
L 47.609375 26.90625 
z
M 28.609375 72.90625 
L 39.796875 72.90625 
L 67.578125 0 
L 57.328125 0 
L 50.6875 18.703125 
L 17.828125 18.703125 
L 11.1875 0 
L 0.78125 0 
z
" id="DejaVuSans-65"/>
      <path d="M 18.109375 8.203125 
L 18.109375 -20.796875 
L 9.078125 -20.796875 
L 9.078125 54.6875 
L 18.109375 54.6875 
L 18.109375 46.390625 
Q 20.953125 51.265625 25.265625 53.625 
Q 29.59375 56 35.59375 56 
Q 45.5625 56 51.78125 48.09375 
Q 58.015625 40.1875 58.015625 27.296875 
Q 58.015625 14.40625 51.78125 6.484375 
Q 45.5625 -1.421875 35.59375 -1.421875 
Q 29.59375 -1.421875 25.265625 0.953125 
Q 20.953125 3.328125 18.109375 8.203125 
z
M 48.6875 27.296875 
Q 48.6875 37.203125 44.609375 42.84375 
Q 40.53125 48.484375 33.40625 48.484375 
Q 26.265625 48.484375 22.1875 42.84375 
Q 18.109375 37.203125 18.109375 27.296875 
Q 18.109375 17.390625 22.1875 11.75 
Q 26.265625 6.109375 33.40625 6.109375 
Q 40.53125 6.109375 44.609375 11.75 
Q 48.6875 17.390625 48.6875 27.296875 
z
" id="DejaVuSans-112"/>
      <path d="M 9.421875 75.984375 
L 18.40625 75.984375 
L 18.40625 0 
L 9.421875 0 
z
" id="DejaVuSans-108"/>
      <path d="M 18.3125 70.21875 
L 18.3125 54.6875 
L 36.8125 54.6875 
L 36.8125 47.703125 
L 18.3125 47.703125 
L 18.3125 18.015625 
Q 18.3125 11.328125 20.140625 9.421875 
Q 21.96875 7.515625 27.59375 7.515625 
L 36.8125 7.515625 
L 36.8125 0 
L 27.59375 0 
Q 17.1875 0 13.234375 3.875 
Q 9.28125 7.765625 9.28125 18.015625 
L 9.28125 47.703125 
L 2.6875 47.703125 
L 2.6875 54.6875 
L 9.28125 54.6875 
L 9.28125 70.21875 
z
" id="DejaVuSans-116"/>
      <path d="M 8.5 21.578125 
L 8.5 54.6875 
L 17.484375 54.6875 
L 17.484375 21.921875 
Q 17.484375 14.15625 20.5 10.265625 
Q 23.53125 6.390625 29.59375 6.390625 
Q 36.859375 6.390625 41.078125 11.03125 
Q 45.3125 15.671875 45.3125 23.6875 
L 45.3125 54.6875 
L 54.296875 54.6875 
L 54.296875 0 
L 45.3125 0 
L 45.3125 8.40625 
Q 42.046875 3.421875 37.71875 1 
Q 33.40625 -1.421875 27.6875 -1.421875 
Q 18.265625 -1.421875 13.375 4.4375 
Q 8.5 10.296875 8.5 21.578125 
z
M 31.109375 56 
z
" id="DejaVuSans-117"/>
      <path d="M 45.40625 46.390625 
L 45.40625 75.984375 
L 54.390625 75.984375 
L 54.390625 0 
L 45.40625 0 
L 45.40625 8.203125 
Q 42.578125 3.328125 38.25 0.953125 
Q 33.9375 -1.421875 27.875 -1.421875 
Q 17.96875 -1.421875 11.734375 6.484375 
Q 5.515625 14.40625 5.515625 27.296875 
Q 5.515625 40.1875 11.734375 48.09375 
Q 17.96875 56 27.875 56 
Q 33.9375 56 38.25 53.625 
Q 42.578125 51.265625 45.40625 46.390625 
z
M 14.796875 27.296875 
Q 14.796875 17.390625 18.875 11.75 
Q 22.953125 6.109375 30.078125 6.109375 
Q 37.203125 6.109375 41.296875 11.75 
Q 45.40625 17.390625 45.40625 27.296875 
Q 45.40625 37.203125 41.296875 42.84375 
Q 37.203125 48.484375 30.078125 48.484375 
Q 22.953125 48.484375 18.875 42.84375 
Q 14.796875 37.203125 14.796875 27.296875 
z
" id="DejaVuSans-100"/>
     </defs>
     <g style="fill:#ffffff;" transform="translate(70.6375 171.062656)rotate(-90)scale(0.1 -0.1)">
      <use xlink:href="#DejaVuSans-65"/>
      <use x="68.408203" xlink:href="#DejaVuSans-109"/>
      <use x="165.820312" xlink:href="#DejaVuSans-112"/>
      <use x="229.296875" xlink:href="#DejaVuSans-108"/>
      <use x="257.080078" xlink:href="#DejaVuSans-105"/>
      <use x="284.863281" xlink:href="#DejaVuSans-116"/>
      <use x="324.072266" xlink:href="#DejaVuSans-117"/>
      <use x="387.451172" xlink:href="#DejaVuSans-100"/>
      <use x="450.927734" xlink:href="#DejaVuSans-101"/>
     </g>
    </g>
   </g>
   <g id="line2d_25">
    <path clip-path="url(#p35d39344ec)" d="M 138.436364 145.029263 
L 139.452603 145.129645 
L 140.468842 145.039908 
L 143.51756 144.183509 
L 144.533799 144.284692 
L 145.550038 144.738389 
L 146.566277 145.359113 
L 147.582516 145.798168 
L 148.598756 145.721362 
L 149.614995 145.029161 
L 150.631234 143.987946 
L 151.647473 143.161749 
L 152.663712 143.132969 
L 153.679951 144.134847 
L 155.71243 147.278334 
L 156.728669 147.568446 
L 157.744908 146.201251 
L 159.777387 141.137993 
L 160.793626 140.319253 
L 161.809865 142.06046 
L 163.842343 149.872164 
L 164.858582 151.639625 
L 165.874822 149.607849 
L 166.891061 144.21511 
L 167.9073 138.056875 
L 168.923539 134.72975 
L 169.939778 136.820049 
L 170.956018 144.115596 
L 171.972257 153.193841 
L 172.988496 158.906046 
L 174.004735 157.198102 
L 175.020974 147.776091 
L 176.037214 134.949959 
L 177.053453 125.817324 
L 178.069692 126.442238 
L 179.085931 138.02661 
L 180.10217 155.406526 
L 181.118409 169.158975 
L 182.134649 170.601979 
L 183.150888 157.098293 
L 184.167127 134.50195 
L 185.183366 114.861797 
L 186.199605 110.102107 
L 187.215845 124.930576 
L 189.248323 179.844233 
L 190.264562 189.354421 
L 191.280801 174.176795 
L 193.31328 105.679628 
L 194.329519 89.940742 
L 195.345758 104.145475 
L 196.361997 142.923951 
L 197.378236 186.189748 
L 198.394476 209.489333 
L 199.410715 197.816025 
L 200.426954 155.087493 
L 201.443193 103.378533 
L 202.459432 71.544619 
L 203.475672 79.070876 
L 204.491911 124.211747 
L 205.50815 183.616311 
L 206.524389 224.407116 
L 207.540628 222.477008 
L 208.556868 176.769644 
L 209.573107 111.061916 
L 210.589346 61.571115 
L 211.605585 56.848737 
L 212.621824 101.197177 
L 213.638063 171.301781 
L 214.654303 228.528718 
L 215.670542 240.387295 
L 216.686781 199.144375 
L 217.70302 126.83802 
L 218.719259 63.455817 
L 219.735499 44.64 
L 220.751738 81.444871 
L 222.784216 221.283916 
L 223.800455 246.24 
L 224.816694 214.630437 
L 226.849173 74.735624 
L 227.865412 44.957162 
L 228.881651 71.242178 
L 230.91413 207.706958 
L 231.930369 240.70824 
L 232.946608 219.312327 
L 234.979086 88.803501 
L 235.995326 54.209743 
L 237.011565 71.558756 
L 238.027804 129.721375 
L 239.044043 194.688717 
L 240.060282 229.439779 
L 241.076521 215.097138 
L 242.092761 161.244846 
L 243.109 99.737216 
L 244.125239 65.914339 
L 245.141478 78.283745 
L 246.157717 128.363425 
L 247.173957 186.275866 
L 248.190196 218.493847 
L 249.206435 207.228354 
L 250.222674 160.251723 
L 251.238913 105.730096 
L 252.255153 75.417646 
L 253.271392 86.20477 
L 254.287631 130.726052 
L 255.30387 182.242055 
L 256.320109 210.627219 
L 257.336348 199.93826 
L 258.352588 157.339182 
L 259.368827 108.400672 
L 260.385066 81.80729 
L 261.401305 92.589303 
L 262.417544 133.659282 
L 263.433784 180.403568 
L 264.450023 205.390885 
L 265.466262 194.432628 
L 266.482501 154.612139 
L 267.49874 109.753769 
L 268.51498 86.202989 
L 269.531219 97.384674 
L 270.547458 136.17241 
L 271.563697 179.393519 
L 272.579936 201.642399 
L 273.596175 190.185742 
L 275.628654 110.422164 
L 276.644893 89.357284 
L 277.661132 101.147432 
L 279.693611 179.101952 
L 280.70985 199.117344 
L 281.726089 186.953618 
L 283.758567 110.360837 
L 284.774806 91.21787 
L 285.791046 103.742529 
L 287.823524 179.38414 
L 288.839763 197.878166 
L 289.856002 185.081585 
L 291.888481 110.086568 
L 292.90472 91.991888 
L 293.920959 104.893926 
L 295.953438 179.383662 
L 296.969677 197.319912 
L 297.985916 184.534821 
L 300.018394 110.592395 
L 301.034633 92.615584 
L 302.050873 105.038788 
L 304.083351 178.231962 
L 305.09959 196.389343 
L 306.115829 184.566261 
L 308.148308 112.431925 
L 309.164547 94.007227 
L 310.180786 105.009972 
L 312.213265 175.72077 
L 313.229504 194.470141 
L 314.245743 184.501544 
L 315.261982 151.887319 
L 316.278221 115.610501 
L 317.29446 96.480472 
L 318.3107 105.179649 
L 319.326939 136.319367 
L 320.343178 171.802079 
L 321.359417 191.3821 
L 322.375656 184.23702 
L 323.391896 154.921857 
L 324.408135 120.443976 
L 325.424374 100.342817 
L 326.440613 105.590903 
L 327.456852 132.637925 
L 328.473092 165.813148 
L 329.489331 186.468693 
L 330.50557 183.494572 
L 331.521809 159.256129 
L 332.538048 127.802686 
L 333.554287 106.653775 
L 334.570527 107.001438 
L 335.586766 127.829866 
L 336.603005 157.015033 
L 337.619244 178.450668 
L 338.635483 180.977897 
L 339.651723 164.146644 
L 340.667962 137.867186 
L 341.684201 116.519601 
L 342.70044 111.049078 
L 343.716679 123.409011 
L 345.749158 166.871871 
L 346.765397 175.128864 
L 347.781636 167.50709 
L 349.814114 129.366012 
L 350.830354 118.699976 
L 351.846593 121.5837 
L 352.862832 135.707312 
L 353.879071 153.453379 
L 354.89531 165.987531 
L 355.91155 167.570787 
L 356.927789 158.051251 
L 357.944028 142.55482 
L 358.960267 128.763236 
L 359.976506 123.200298 
L 360.992745 128.254657 
L 362.008985 141.219615 
L 363.025224 155.689441 
L 364.041463 164.62529 
L 365.057702 163.692069 
L 366.073941 153.344127 
L 367.090181 138.666675 
L 368.10642 126.976175 
L 369.122659 124.244059 
L 370.138898 132.046437 
L 372.171377 160.501058 
L 373.187616 166.433796 
L 374.203855 161.025263 
L 376.236333 131.128172 
L 377.252572 122.389419 
L 378.268812 125.550937 
L 379.285051 139.275791 
L 380.30129 156.404673 
L 381.317529 167.656824 
L 382.333768 166.663532 
L 383.350008 153.596465 
L 384.366247 135.306818 
L 385.382486 121.752892 
L 386.398725 120.568512 
L 387.414964 132.744355 
L 388.431204 151.880306 
L 389.447443 167.543894 
L 390.463682 170.976091 
L 391.479921 160.010905 
L 393.512399 122.906503 
L 394.528639 117.159439 
L 395.544878 126.532147 
L 397.577356 165.053151 
L 398.593595 173.101164 
L 399.609835 165.707282 
L 401.642313 126.913932 
L 402.658552 116.727409 
L 403.674791 121.825692 
L 404.691031 139.312311 
L 405.70727 159.55014 
L 406.723509 171.525723 
L 407.739748 168.900612 
L 408.755987 153.392279 
L 409.772226 133.664902 
L 410.788466 120.437741 
L 411.804705 120.599655 
L 412.820944 133.595308 
L 413.837183 151.994568 
L 414.853422 165.781752 
L 415.869662 167.867201 
L 416.885901 157.754963 
L 417.90214 141.45612 
L 418.918379 127.896078 
L 419.934618 123.973209 
L 420.950857 131.034458 
L 422.983336 157.096496 
L 423.999575 162.287923 
L 425.015814 158.228469 
L 427.048293 137.22127 
L 428.064532 131.440131 
L 429.080771 132.75469 
L 430.09701 139.533016 
L 431.113249 147.750156 
L 432.129489 153.385742 
L 433.145728 154.376831 
L 434.161967 151.187135 
L 436.194445 141.241434 
L 437.210684 138.531054 
L 438.226924 138.281273 
L 439.243163 140.094217 
L 440.259402 143.264203 
L 442.29188 150.339458 
L 443.30812 152.074177 
L 444.324359 151.090681 
L 445.340598 147.080543 
L 446.356837 141.185672 
L 447.373076 135.947206 
L 448.389316 134.271012 
L 449.405555 137.789738 
L 451.438033 154.042449 
L 452.454272 158.677606 
L 453.470511 156.36954 
L 454.486751 147.514268 
L 455.50299 136.255988 
L 456.519229 128.571969 
L 457.535468 129.055762 
L 458.551707 138.154949 
L 459.567947 151.53276 
L 460.584186 162.12301 
L 461.600425 163.91181 
L 462.616664 155.393889 
L 464.649143 127.576946 
L 465.665382 123.282716 
L 466.681621 130.485762 
L 468.714099 160.685387 
L 469.730338 167.471989 
L 470.746578 162.153753 
L 472.779056 131.193541 
L 473.795295 122.175444 
L 474.811534 125.259258 
L 475.827774 138.760423 
L 476.844013 155.364291 
L 477.860252 166.135531 
L 478.876491 165.385317 
L 479.89273 153.713385 
L 480.908969 137.578802 
L 481.925209 125.69077 
L 482.941448 124.255964 
L 483.957687 133.703797 
L 484.973926 148.635079 
L 485.990165 160.924273 
L 487.006405 164.18247 
L 488.022644 157.107581 
L 490.055122 131.97103 
L 491.071361 127.405134 
L 492.087601 132.195799 
L 494.120079 154.253225 
L 495.136318 159.528 
L 496.152557 156.731055 
L 498.185036 138.392865 
L 499.201275 133.021436 
L 500.217514 134.263981 
L 501.233753 140.787781 
L 502.249992 148.614584 
L 503.266232 153.51518 
L 504.282471 153.297558 
L 505.29871 148.749663 
L 506.314949 142.85693 
L 507.331188 138.908668 
L 508.347428 138.666141 
L 509.363667 141.610202 
L 510.379906 145.56747 
L 511.396145 148.192187 
L 512.412384 148.340432 
L 513.428623 146.539409 
L 514.444863 144.379175 
L 515.461102 143.327888 
L 516.477341 143.782684 
L 517.49358 144.949829 
L 518.509819 145.566662 
L 519.526059 144.918684 
L 520.542298 143.424709 
L 521.558537 142.369527 
L 522.574776 142.952202 
L 523.591015 145.30278 
L 524.607255 148.177914 
L 525.623494 149.623852 
L 526.639733 148.251234 
L 527.655972 144.313197 
L 528.672211 139.827334 
L 529.68845 137.537295 
L 530.70469 139.250167 
L 531.720929 144.549125 
L 532.737168 150.747662 
L 533.753407 154.256254 
L 534.769646 152.664609 
L 535.785886 146.330384 
L 536.802125 138.455273 
L 537.818364 133.460795 
L 538.834603 134.490036 
L 539.850842 141.454673 
L 540.867081 150.829673 
L 541.883321 157.445822 
L 542.89956 157.3648 
L 543.915799 150.224836 
L 544.932038 139.658619 
L 545.948277 131.43332 
L 546.964517 130.27082 
L 547.980756 137.118296 
L 548.996995 148.457046 
L 550.013234 158.125814 
L 551.029473 160.705923 
L 552.045713 154.588331 
L 554.078191 132.166373 
L 555.09443 128.136703 
L 556.110669 133.161207 
L 558.143148 156.052658 
L 559.159387 161.415457 
L 560.175626 157.735023 
L 562.208104 135.36718 
L 563.224344 128.924511 
L 564.240583 131.147962 
L 565.256822 140.629298 
L 566.273061 152.056202 
L 567.2893 159.218323 
L 568.30554 158.418099 
L 569.321779 150.393783 
L 570.338018 139.747692 
L 571.354257 132.288945 
L 572.370496 131.835352 
L 573.386735 138.250466 
L 574.402975 147.728398 
L 575.419214 155.052318 
L 576.435453 156.48418 
L 577.451692 151.675074 
L 578.467931 143.620525 
L 579.484171 136.81678 
L 580.50041 134.744817 
L 581.516649 138.093501 
L 583.549127 150.615843 
L 584.565367 152.977558 
L 585.581606 150.832466 
L 587.614084 140.755817 
L 588.630323 138.417568 
L 589.646562 139.683502 
L 591.679041 147.483146 
L 592.69528 149.562679 
L 593.711519 148.832646 
L 595.743998 142.902434 
L 596.760237 141.21177 
L 597.776476 141.721392 
L 598.792715 143.907613 
L 599.808954 146.362396 
L 600.825194 147.650141 
L 601.841433 147.111592 
L 603.873911 143.088533 
L 604.89015 142.106461 
L 605.906389 142.830791 
L 607.938868 146.9127 
L 608.955107 147.779349 
L 609.971346 146.817503 
L 612.003825 142.074022 
L 613.020064 141.067947 
L 614.036303 142.214873 
L 616.068781 148.08221 
L 617.08502 149.512298 
L 618.10126 148.323626 
L 619.117499 144.923743 
L 620.133738 141.058561 
L 621.149977 138.927823 
L 622.166216 139.947722 
L 623.182456 143.849022 
L 624.198695 148.669944 
L 625.214934 151.733103 
L 626.231173 151.128056 
L 627.247412 146.881274 
L 628.263652 141.105409 
L 629.279891 136.955285 
L 630.29613 136.900131 
L 631.312369 141.260226 
L 632.328608 147.87364 
L 633.344847 153.164197 
L 634.361087 154.087429 
L 635.377326 149.88957 
L 636.393565 142.658757 
L 637.409804 136.287125 
L 638.426043 134.357664 
L 639.442283 138.112587 
L 641.474761 152.947924 
L 642.491 155.92924 
L 643.507239 152.864834 
L 645.539718 137.3943 
L 646.555957 133.417493 
L 647.572196 135.60939 
L 648.588435 142.797233 
L 649.604674 151.056142 
L 650.620914 155.875681 
L 651.637153 154.651097 
L 652.653392 148.107922 
L 653.669631 139.87176 
L 654.68587 134.439121 
L 655.70211 134.696402 
L 656.718349 140.370335 
L 657.734588 148.250228 
L 658.750827 154.019102 
L 659.767066 154.640943 
L 660.783306 149.971635 
L 661.799545 142.732057 
L 662.815784 136.916903 
L 663.832023 135.573857 
L 664.848262 139.197114 
L 665.864501 145.586479 
L 666.880741 151.17746 
L 667.89698 153.039784 
L 668.913219 150.418023 
L 670.945697 139.860558 
L 671.961937 137.697198 
L 672.978176 139.430608 
L 675.010654 148.36464 
L 676.026893 150.619336 
L 677.043132 149.614873 
L 679.075611 142.361353 
L 680.09185 140.197824 
L 681.108089 140.656174 
L 682.124328 143.214054 
L 683.140568 146.295552 
L 684.156807 148.223671 
L 685.173046 148.125024 
L 686.189285 146.30352 
L 687.205524 143.938829 
L 688.221764 142.348192 
L 689.238003 142.262148 
L 690.254242 143.507042 
L 691.270481 145.219606 
L 692.28672 146.411418 
L 693.302959 146.528305 
L 694.319199 145.693885 
L 695.335438 144.540017 
L 696.351677 143.772069 
L 697.367916 143.751492 
L 700.416634 145.392386 
L 701.432873 145.219079 
L 703.465351 144.3597 
L 704.481591 144.394909 
L 706.514069 145.334059 
L 707.530308 145.503273 
L 708.546547 145.137785 
L 710.579026 143.780657 
L 711.595265 143.704489 
L 712.611504 144.326364 
L 713.627743 145.347041 
L 714.643982 146.170984 
L 715.660222 146.257409 
L 716.676461 145.467002 
L 717.6927 144.185788 
L 718.708939 143.133312 
L 719.725178 142.952208 
L 720.741418 143.816237 
L 721.757657 145.295556 
L 722.773896 146.574438 
L 723.790135 146.90904 
L 724.806374 146.064323 
L 726.838853 143.00305 
L 727.855092 142.48665 
L 728.871331 143.231183 
L 730.903809 146.434556 
L 731.920049 147.129124 
L 732.936288 146.54441 
L 734.968766 143.375801 
L 735.985005 142.53546 
L 737.001244 142.928034 
L 738.017484 144.307052 
L 739.033723 145.894969 
L 740.049962 146.827581 
L 741.066201 146.630737 
L 742.08244 145.462995 
L 743.09868 143.999563 
L 744.114919 143.038554 
L 745.131158 143.061219 
L 746.147397 143.990837 
L 747.163636 145.270649 
L 747.163636 145.270649 
" style="fill:none;stroke:#98fe09;stroke-linecap:square;stroke-width:1.5;"/>
   </g>
   <g id="patch_3">
    <path d="M 108 256.32 
L 108 34.56 
" style="fill:none;stroke:#ffffff;stroke-linecap:square;stroke-linejoin:miter;stroke-width:0.8;"/>
   </g>
   <g id="patch_4">
    <path d="M 777.6 256.32 
L 777.6 34.56 
" style="fill:none;stroke:#ffffff;stroke-linecap:square;stroke-linejoin:miter;stroke-width:0.8;"/>
   </g>
   <g id="patch_5">
    <path d="M 108 256.32 
L 777.6 256.32 
" style="fill:none;stroke:#ffffff;stroke-linecap:square;stroke-linejoin:miter;stroke-width:0.8;"/>
   </g>
   <g id="patch_6">
    <path d="M 108 34.56 
L 777.6 34.56 
" style="fill:none;stroke:#ffffff;stroke-linecap:square;stroke-linejoin:miter;stroke-width:0.8;"/>
   </g>
   <g id="text_15">
    <!-- Simulated Sensor Signal -->
    <defs>
     <path d="M 53.515625 70.515625 
L 53.515625 60.890625 
Q 47.90625 63.578125 42.921875 64.890625 
Q 37.9375 66.21875 33.296875 66.21875 
Q 25.25 66.21875 20.875 63.09375 
Q 16.5 59.96875 16.5 54.203125 
Q 16.5 49.359375 19.40625 46.890625 
Q 22.3125 44.4375 30.421875 42.921875 
L 36.375 41.703125 
Q 47.40625 39.59375 52.65625 34.296875 
Q 57.90625 29 57.90625 20.125 
Q 57.90625 9.515625 50.796875 4.046875 
Q 43.703125 -1.421875 29.984375 -1.421875 
Q 24.8125 -1.421875 18.96875 -0.25 
Q 13.140625 0.921875 6.890625 3.21875 
L 6.890625 13.375 
Q 12.890625 10.015625 18.65625 8.296875 
Q 24.421875 6.59375 29.984375 6.59375 
Q 38.421875 6.59375 43.015625 9.90625 
Q 47.609375 13.234375 47.609375 19.390625 
Q 47.609375 24.75 44.3125 27.78125 
Q 41.015625 30.8125 33.5 32.328125 
L 27.484375 33.5 
Q 16.453125 35.6875 11.515625 40.375 
Q 6.59375 45.0625 6.59375 53.421875 
Q 6.59375 63.09375 13.40625 68.65625 
Q 20.21875 74.21875 32.171875 74.21875 
Q 37.3125 74.21875 42.625 73.28125 
Q 47.953125 72.359375 53.515625 70.515625 
z
" id="DejaVuSans-83"/>
     <path d="M 34.28125 27.484375 
Q 23.390625 27.484375 19.1875 25 
Q 14.984375 22.515625 14.984375 16.5 
Q 14.984375 11.71875 18.140625 8.90625 
Q 21.296875 6.109375 26.703125 6.109375 
Q 34.1875 6.109375 38.703125 11.40625 
Q 43.21875 16.703125 43.21875 25.484375 
L 43.21875 27.484375 
z
M 52.203125 31.203125 
L 52.203125 0 
L 43.21875 0 
L 43.21875 8.296875 
Q 40.140625 3.328125 35.546875 0.953125 
Q 30.953125 -1.421875 24.3125 -1.421875 
Q 15.921875 -1.421875 10.953125 3.296875 
Q 6 8.015625 6 15.921875 
Q 6 25.140625 12.171875 29.828125 
Q 18.359375 34.515625 30.609375 34.515625 
L 43.21875 34.515625 
L 43.21875 35.40625 
Q 43.21875 41.609375 39.140625 45 
Q 35.0625 48.390625 27.6875 48.390625 
Q 23 48.390625 18.546875 47.265625 
Q 14.109375 46.140625 10.015625 43.890625 
L 10.015625 52.203125 
Q 14.9375 54.109375 19.578125 55.046875 
Q 24.21875 56 28.609375 56 
Q 40.484375 56 46.34375 49.84375 
Q 52.203125 43.703125 52.203125 31.203125 
z
" id="DejaVuSans-97"/>
     <path d="M 54.890625 33.015625 
L 54.890625 0 
L 45.90625 0 
L 45.90625 32.71875 
Q 45.90625 40.484375 42.875 44.328125 
Q 39.84375 48.1875 33.796875 48.1875 
Q 26.515625 48.1875 22.3125 43.546875 
Q 18.109375 38.921875 18.109375 30.90625 
L 18.109375 0 
L 9.078125 0 
L 9.078125 54.6875 
L 18.109375 54.6875 
L 18.109375 46.1875 
Q 21.34375 51.125 25.703125 53.5625 
Q 30.078125 56 35.796875 56 
Q 45.21875 56 50.046875 50.171875 
Q 54.890625 44.34375 54.890625 33.015625 
z
" id="DejaVuSans-110"/>
     <path d="M 30.609375 48.390625 
Q 23.390625 48.390625 19.1875 42.75 
Q 14.984375 37.109375 14.984375 27.296875 
Q 14.984375 17.484375 19.15625 11.84375 
Q 23.34375 6.203125 30.609375 6.203125 
Q 37.796875 6.203125 41.984375 11.859375 
Q 46.1875 17.53125 46.1875 27.296875 
Q 46.1875 37.015625 41.984375 42.703125 
Q 37.796875 48.390625 30.609375 48.390625 
z
M 30.609375 56 
Q 42.328125 56 49.015625 48.375 
Q 55.71875 40.765625 55.71875 27.296875 
Q 55.71875 13.875 49.015625 6.21875 
Q 42.328125 -1.421875 30.609375 -1.421875 
Q 18.84375 -1.421875 12.171875 6.21875 
Q 5.515625 13.875 5.515625 27.296875 
Q 5.515625 40.765625 12.171875 48.375 
Q 18.84375 56 30.609375 56 
z
" id="DejaVuSans-111"/>
     <path d="M 41.109375 46.296875 
Q 39.59375 47.171875 37.8125 47.578125 
Q 36.03125 48 33.890625 48 
Q 26.265625 48 22.1875 43.046875 
Q 18.109375 38.09375 18.109375 28.8125 
L 18.109375 0 
L 9.078125 0 
L 9.078125 54.6875 
L 18.109375 54.6875 
L 18.109375 46.1875 
Q 20.953125 51.171875 25.484375 53.578125 
Q 30.03125 56 36.53125 56 
Q 37.453125 56 38.578125 55.875 
Q 39.703125 55.765625 41.0625 55.515625 
z
" id="DejaVuSans-114"/>
     <path d="M 45.40625 27.984375 
Q 45.40625 37.75 41.375 43.109375 
Q 37.359375 48.484375 30.078125 48.484375 
Q 22.859375 48.484375 18.828125 43.109375 
Q 14.796875 37.75 14.796875 27.984375 
Q 14.796875 18.265625 18.828125 12.890625 
Q 22.859375 7.515625 30.078125 7.515625 
Q 37.359375 7.515625 41.375 12.890625 
Q 45.40625 18.265625 45.40625 27.984375 
z
M 54.390625 6.78125 
Q 54.390625 -7.171875 48.1875 -13.984375 
Q 42 -20.796875 29.203125 -20.796875 
Q 24.46875 -20.796875 20.265625 -20.09375 
Q 16.0625 -19.390625 12.109375 -17.921875 
L 12.109375 -9.1875 
Q 16.0625 -11.328125 19.921875 -12.34375 
Q 23.78125 -13.375 27.78125 -13.375 
Q 36.625 -13.375 41.015625 -8.765625 
Q 45.40625 -4.15625 45.40625 5.171875 
L 45.40625 9.625 
Q 42.625 4.78125 38.28125 2.390625 
Q 33.9375 0 27.875 0 
Q 17.828125 0 11.671875 7.65625 
Q 5.515625 15.328125 5.515625 27.984375 
Q 5.515625 40.671875 11.671875 48.328125 
Q 17.828125 56 27.875 56 
Q 33.9375 56 38.28125 53.609375 
Q 42.625 51.21875 45.40625 46.390625 
L 45.40625 54.6875 
L 54.390625 54.6875 
z
" id="DejaVuSans-103"/>
    </defs>
    <g style="fill:#ffffff;" transform="translate(345.29125 28.56)scale(0.16 -0.16)">
     <use xlink:href="#DejaVuSans-83"/>
     <use x="63.476562" xlink:href="#DejaVuSans-105"/>
     <use x="91.259766" xlink:href="#DejaVuSans-109"/>
     <use x="188.671875" xlink:href="#DejaVuSans-117"/>
     <use x="252.050781" xlink:href="#DejaVuSans-108"/>
     <use x="279.833984" xlink:href="#DejaVuSans-97"/>
     <use x="341.113281" xlink:href="#DejaVuSans-116"/>
     <use x="380.322266" xlink:href="#DejaVuSans-101"/>
     <use x="441.845703" xlink:href="#DejaVuSans-100"/>
     <use x="505.322266" xlink:href="#DejaVuSans-32"/>
     <use x="537.109375" xlink:href="#DejaVuSans-83"/>
     <use x="600.585938" xlink:href="#DejaVuSans-101"/>
     <use x="662.109375" xlink:href="#DejaVuSans-110"/>
     <use x="725.488281" xlink:href="#DejaVuSans-115"/>
     <use x="777.587891" xlink:href="#DejaVuSans-111"/>
     <use x="838.769531" xlink:href="#DejaVuSans-114"/>
     <use x="879.882812" xlink:href="#DejaVuSans-32"/>
     <use x="911.669922" xlink:href="#DejaVuSans-83"/>
     <use x="975.146484" xlink:href="#DejaVuSans-105"/>
     <use x="1002.929688" xlink:href="#DejaVuSans-103"/>
     <use x="1066.40625" xlink:href="#DejaVuSans-110"/>
     <use x="1129.785156" xlink:href="#DejaVuSans-97"/>
     <use x="1191.064453" xlink:href="#DejaVuSans-108"/>
    </g>
   </g>
  </g>
 </g>
 <defs>
  <clipPath id="p35d39344ec">
   <rect height="221.76" width="669.6" x="108" y="34.56"/>
  </clipPath>
 </defs>
</svg>
