<?xml version="1.0" encoding="utf-8" standalone="no"?>
<!DOCTYPE svg PUBLIC "-//W3C//DTD SVG 1.1//EN"
  "http://www.w3.org/Graphics/SVG/1.1/DTD/svg11.dtd">
<svg xmlns:xlink="http://www.w3.org/1999/xlink" width="1072.8975pt" height="279.622899pt" viewBox="0 0 1072.8975 279.622899" xmlns="http://www.w3.org/2000/svg" version="1.1">
 <metadata>
  <rdf:RDF xmlns:dc="http://purl.org/dc/elements/1.1/" xmlns:cc="http://creativecommons.org/ns#" xmlns:rdf="http://www.w3.org/1999/02/22-rdf-syntax-ns#">
   <cc:Work>
    <dc:type rdf:resource="http://purl.org/dc/dcmitype/StillImage"/>
    <dc:date>2025-08-07T10:16:32.545999</dc:date>
    <dc:format>image/svg+xml</dc:format>
    <dc:creator>
     <cc:Agent>
      <dc:title>Matplotlib v3.10.3, https://matplotlib.org/</dc:title>
     </cc:Agent>
    </dc:creator>
   </cc:Work>
  </rdf:RDF>
 </metadata>
 <defs>
  <style type="text/css">*{stroke-linejoin: round; stroke-linecap: butt}</style>
 </defs>
 <g id="figure_1">
  <g id="patch_1">
   <path d="M 0 279.622899 
L 1072.8975 279.622899 
L 1072.8975 0 
L 0 0 
z
" style="fill: #160741"/>
  </g>
  <g id="axes_1">
   <g id="patch_2">
    <path d="M 33.2875 245.082531 
L 348.6375 245.082531 
L 348.6375 22.318125 
L 33.2875 22.318125 
z
" style="fill: #160741"/>
   </g>
   <g id="matplotlib.axis_1">
    <g id="xtick_1">
     <g id="line2d_1">
      <defs>
       <path id="m3c3cda0ffd" d="M 0 0 
L 0 3.5 
" style="stroke: #ffffff; stroke-width: 0.8"/>
      </defs>
      <g>
       <use xlink:href="#m3c3cda0ffd" x="47.237813" y="245.082531" style="fill: #ffffff; stroke: #ffffff; stroke-width: 0.8"/>
      </g>
     </g>
     <g id="text_1">
      <!-- 0 -->
      <g style="fill: #ffffff" transform="translate(46.939503 261.954404) rotate(-45) scale(0.1 -0.1)">
       <defs>
        <path id="DejaVuSans-30" d="M 2034 4250 
Q 1547 4250 1301 3770 
Q 1056 3291 1056 2328 
Q 1056 1369 1301 889 
Q 1547 409 2034 409 
Q 2525 409 2770 889 
Q 3016 1369 3016 2328 
Q 3016 3291 2770 3770 
Q 2525 4250 2034 4250 
z
M 2034 4750 
Q 2819 4750 3233 4129 
Q 3647 3509 3647 2328 
Q 3647 1150 3233 529 
Q 2819 -91 2034 -91 
Q 1250 -91 836 529 
Q 422 1150 422 2328 
Q 422 3509 836 4129 
Q 1250 4750 2034 4750 
z
" transform="scale(0.015625)"/>
       </defs>
       <use xlink:href="#DejaVuSans-30"/>
      </g>
     </g>
    </g>
    <g id="xtick_2">
     <g id="line2d_2">
      <g>
       <use xlink:href="#m3c3cda0ffd" x="85.615567" y="245.082531" style="fill: #ffffff; stroke: #ffffff; stroke-width: 0.8"/>
      </g>
     </g>
     <g id="text_2">
      <!-- 100 -->
      <g style="fill: #ffffff" transform="translate(80.818289 270.952338) rotate(-45) scale(0.1 -0.1)">
       <defs>
        <path id="DejaVuSans-31" d="M 794 531 
L 1825 531 
L 1825 4091 
L 703 3866 
L 703 4441 
L 1819 4666 
L 2450 4666 
L 2450 531 
L 3481 531 
L 3481 0 
L 794 0 
L 794 531 
z
" transform="scale(0.015625)"/>
       </defs>
       <use xlink:href="#DejaVuSans-31"/>
       <use xlink:href="#DejaVuSans-30" transform="translate(63.623047 0)"/>
       <use xlink:href="#DejaVuSans-30" transform="translate(127.246094 0)"/>
      </g>
     </g>
    </g>
    <g id="xtick_3">
     <g id="line2d_3">
      <g>
       <use xlink:href="#m3c3cda0ffd" x="123.99332" y="245.082531" style="fill: #ffffff; stroke: #ffffff; stroke-width: 0.8"/>
      </g>
     </g>
     <g id="text_3">
      <!-- 200 -->
      <g style="fill: #ffffff" transform="translate(119.196043 270.952338) rotate(-45) scale(0.1 -0.1)">
       <defs>
        <path id="DejaVuSans-32" d="M 1228 531 
L 3431 531 
L 3431 0 
L 469 0 
L 469 531 
Q 828 903 1448 1529 
Q 2069 2156 2228 2338 
Q 2531 2678 2651 2914 
Q 2772 3150 2772 3378 
Q 2772 3750 2511 3984 
Q 2250 4219 1831 4219 
Q 1534 4219 1204 4116 
Q 875 4013 500 3803 
L 500 4441 
Q 881 4594 1212 4672 
Q 1544 4750 1819 4750 
Q 2544 4750 2975 4387 
Q 3406 4025 3406 3419 
Q 3406 3131 3298 2873 
Q 3191 2616 2906 2266 
Q 2828 2175 2409 1742 
Q 1991 1309 1228 531 
z
" transform="scale(0.015625)"/>
       </defs>
       <use xlink:href="#DejaVuSans-32"/>
       <use xlink:href="#DejaVuSans-30" transform="translate(63.623047 0)"/>
       <use xlink:href="#DejaVuSans-30" transform="translate(127.246094 0)"/>
      </g>
     </g>
    </g>
    <g id="xtick_4">
     <g id="line2d_4">
      <g>
       <use xlink:href="#m3c3cda0ffd" x="162.371074" y="245.082531" style="fill: #ffffff; stroke: #ffffff; stroke-width: 0.8"/>
      </g>
     </g>
     <g id="text_4">
      <!-- 300 -->
      <g style="fill: #ffffff" transform="translate(157.573796 270.952338) rotate(-45) scale(0.1 -0.1)">
       <defs>
        <path id="DejaVuSans-33" d="M 2597 2516 
Q 3050 2419 3304 2112 
Q 3559 1806 3559 1356 
Q 3559 666 3084 287 
Q 2609 -91 1734 -91 
Q 1441 -91 1130 -33 
Q 819 25 488 141 
L 488 750 
Q 750 597 1062 519 
Q 1375 441 1716 441 
Q 2309 441 2620 675 
Q 2931 909 2931 1356 
Q 2931 1769 2642 2001 
Q 2353 2234 1838 2234 
L 1294 2234 
L 1294 2753 
L 1863 2753 
Q 2328 2753 2575 2939 
Q 2822 3125 2822 3475 
Q 2822 3834 2567 4026 
Q 2313 4219 1838 4219 
Q 1578 4219 1281 4162 
Q 984 4106 628 3988 
L 628 4550 
Q 988 4650 1302 4700 
Q 1616 4750 1894 4750 
Q 2613 4750 3031 4423 
Q 3450 4097 3450 3541 
Q 3450 3153 3228 2886 
Q 3006 2619 2597 2516 
z
" transform="scale(0.015625)"/>
       </defs>
       <use xlink:href="#DejaVuSans-33"/>
       <use xlink:href="#DejaVuSans-30" transform="translate(63.623047 0)"/>
       <use xlink:href="#DejaVuSans-30" transform="translate(127.246094 0)"/>
      </g>
     </g>
    </g>
    <g id="xtick_5">
     <g id="line2d_5">
      <g>
       <use xlink:href="#m3c3cda0ffd" x="200.748827" y="245.082531" style="fill: #ffffff; stroke: #ffffff; stroke-width: 0.8"/>
      </g>
     </g>
     <g id="text_5">
      <!-- 400 -->
      <g style="fill: #ffffff" transform="translate(195.95155 270.952338) rotate(-45) scale(0.1 -0.1)">
       <defs>
        <path id="DejaVuSans-34" d="M 2419 4116 
L 825 1625 
L 2419 1625 
L 2419 4116 
z
M 2253 4666 
L 3047 4666 
L 3047 1625 
L 3713 1625 
L 3713 1100 
L 3047 1100 
L 3047 0 
L 2419 0 
L 2419 1100 
L 313 1100 
L 313 1709 
L 2253 4666 
z
" transform="scale(0.015625)"/>
       </defs>
       <use xlink:href="#DejaVuSans-34"/>
       <use xlink:href="#DejaVuSans-30" transform="translate(63.623047 0)"/>
       <use xlink:href="#DejaVuSans-30" transform="translate(127.246094 0)"/>
      </g>
     </g>
    </g>
    <g id="xtick_6">
     <g id="line2d_6">
      <g>
       <use xlink:href="#m3c3cda0ffd" x="239.126581" y="245.082531" style="fill: #ffffff; stroke: #ffffff; stroke-width: 0.8"/>
      </g>
     </g>
     <g id="text_6">
      <!-- 500 -->
      <g style="fill: #ffffff" transform="translate(234.329303 270.952338) rotate(-45) scale(0.1 -0.1)">
       <defs>
        <path id="DejaVuSans-35" d="M 691 4666 
L 3169 4666 
L 3169 4134 
L 1269 4134 
L 1269 2991 
Q 1406 3038 1543 3061 
Q 1681 3084 1819 3084 
Q 2600 3084 3056 2656 
Q 3513 2228 3513 1497 
Q 3513 744 3044 326 
Q 2575 -91 1722 -91 
Q 1428 -91 1123 -41 
Q 819 9 494 109 
L 494 744 
Q 775 591 1075 516 
Q 1375 441 1709 441 
Q 2250 441 2565 725 
Q 2881 1009 2881 1497 
Q 2881 1984 2565 2268 
Q 2250 2553 1709 2553 
Q 1456 2553 1204 2497 
Q 953 2441 691 2322 
L 691 4666 
z
" transform="scale(0.015625)"/>
       </defs>
       <use xlink:href="#DejaVuSans-35"/>
       <use xlink:href="#DejaVuSans-30" transform="translate(63.623047 0)"/>
       <use xlink:href="#DejaVuSans-30" transform="translate(127.246094 0)"/>
      </g>
     </g>
    </g>
    <g id="xtick_7">
     <g id="line2d_7">
      <g>
       <use xlink:href="#m3c3cda0ffd" x="277.504334" y="245.082531" style="fill: #ffffff; stroke: #ffffff; stroke-width: 0.8"/>
      </g>
     </g>
     <g id="text_7">
      <!-- 600 -->
      <g style="fill: #ffffff" transform="translate(272.707056 270.952338) rotate(-45) scale(0.1 -0.1)">
       <defs>
        <path id="DejaVuSans-36" d="M 2113 2584 
Q 1688 2584 1439 2293 
Q 1191 2003 1191 1497 
Q 1191 994 1439 701 
Q 1688 409 2113 409 
Q 2538 409 2786 701 
Q 3034 994 3034 1497 
Q 3034 2003 2786 2293 
Q 2538 2584 2113 2584 
z
M 3366 4563 
L 3366 3988 
Q 3128 4100 2886 4159 
Q 2644 4219 2406 4219 
Q 1781 4219 1451 3797 
Q 1122 3375 1075 2522 
Q 1259 2794 1537 2939 
Q 1816 3084 2150 3084 
Q 2853 3084 3261 2657 
Q 3669 2231 3669 1497 
Q 3669 778 3244 343 
Q 2819 -91 2113 -91 
Q 1303 -91 875 529 
Q 447 1150 447 2328 
Q 447 3434 972 4092 
Q 1497 4750 2381 4750 
Q 2619 4750 2861 4703 
Q 3103 4656 3366 4563 
z
" transform="scale(0.015625)"/>
       </defs>
       <use xlink:href="#DejaVuSans-36"/>
       <use xlink:href="#DejaVuSans-30" transform="translate(63.623047 0)"/>
       <use xlink:href="#DejaVuSans-30" transform="translate(127.246094 0)"/>
      </g>
     </g>
    </g>
    <g id="xtick_8">
     <g id="line2d_8">
      <g>
       <use xlink:href="#m3c3cda0ffd" x="315.882087" y="245.082531" style="fill: #ffffff; stroke: #ffffff; stroke-width: 0.8"/>
      </g>
     </g>
     <g id="text_8">
      <!-- 700 -->
      <g style="fill: #ffffff" transform="translate(311.08481 270.952338) rotate(-45) scale(0.1 -0.1)">
       <defs>
        <path id="DejaVuSans-37" d="M 525 4666 
L 3525 4666 
L 3525 4397 
L 1831 0 
L 1172 0 
L 2766 4134 
L 525 4134 
L 525 4666 
z
" transform="scale(0.015625)"/>
       </defs>
       <use xlink:href="#DejaVuSans-37"/>
       <use xlink:href="#DejaVuSans-30" transform="translate(63.623047 0)"/>
       <use xlink:href="#DejaVuSans-30" transform="translate(127.246094 0)"/>
      </g>
     </g>
    </g>
   </g>
   <g id="matplotlib.axis_2">
    <g id="ytick_1">
     <g id="line2d_9">
      <defs>
       <path id="m6728a30e53" d="M 0 0 
L -3.5 0 
" style="stroke: #ffffff; stroke-width: 0.8"/>
      </defs>
      <g>
       <use xlink:href="#m6728a30e53" x="33.2875" y="217.057105" style="fill: #ffffff; stroke: #ffffff; stroke-width: 0.8"/>
      </g>
     </g>
     <g id="text_9">
      <!-- 400 -->
      <g style="fill: #ffffff" transform="translate(7.2 220.856324) scale(0.1 -0.1)">
       <use xlink:href="#DejaVuSans-34"/>
       <use xlink:href="#DejaVuSans-30" transform="translate(63.623047 0)"/>
       <use xlink:href="#DejaVuSans-30" transform="translate(127.246094 0)"/>
      </g>
     </g>
    </g>
    <g id="ytick_2">
     <g id="line2d_10">
      <g>
       <use xlink:href="#m6728a30e53" x="33.2875" y="181.959515" style="fill: #ffffff; stroke: #ffffff; stroke-width: 0.8"/>
      </g>
     </g>
     <g id="text_10">
      <!-- 500 -->
      <g style="fill: #ffffff" transform="translate(7.2 185.758733) scale(0.1 -0.1)">
       <use xlink:href="#DejaVuSans-35"/>
       <use xlink:href="#DejaVuSans-30" transform="translate(63.623047 0)"/>
       <use xlink:href="#DejaVuSans-30" transform="translate(127.246094 0)"/>
      </g>
     </g>
    </g>
    <g id="ytick_3">
     <g id="line2d_11">
      <g>
       <use xlink:href="#m6728a30e53" x="33.2875" y="146.861924" style="fill: #ffffff; stroke: #ffffff; stroke-width: 0.8"/>
      </g>
     </g>
     <g id="text_11">
      <!-- 600 -->
      <g style="fill: #ffffff" transform="translate(7.2 150.661143) scale(0.1 -0.1)">
       <use xlink:href="#DejaVuSans-36"/>
       <use xlink:href="#DejaVuSans-30" transform="translate(63.623047 0)"/>
       <use xlink:href="#DejaVuSans-30" transform="translate(127.246094 0)"/>
      </g>
     </g>
    </g>
    <g id="ytick_4">
     <g id="line2d_12">
      <g>
       <use xlink:href="#m6728a30e53" x="33.2875" y="111.764334" style="fill: #ffffff; stroke: #ffffff; stroke-width: 0.8"/>
      </g>
     </g>
     <g id="text_12">
      <!-- 700 -->
      <g style="fill: #ffffff" transform="translate(7.2 115.563553) scale(0.1 -0.1)">
       <use xlink:href="#DejaVuSans-37"/>
       <use xlink:href="#DejaVuSans-30" transform="translate(63.623047 0)"/>
       <use xlink:href="#DejaVuSans-30" transform="translate(127.246094 0)"/>
      </g>
     </g>
    </g>
    <g id="ytick_5">
     <g id="line2d_13">
      <g>
       <use xlink:href="#m6728a30e53" x="33.2875" y="76.666744" style="fill: #ffffff; stroke: #ffffff; stroke-width: 0.8"/>
      </g>
     </g>
     <g id="text_13">
      <!-- 800 -->
      <g style="fill: #ffffff" transform="translate(7.2 80.465962) scale(0.1 -0.1)">
       <defs>
        <path id="DejaVuSans-38" d="M 2034 2216 
Q 1584 2216 1326 1975 
Q 1069 1734 1069 1313 
Q 1069 891 1326 650 
Q 1584 409 2034 409 
Q 2484 409 2743 651 
Q 3003 894 3003 1313 
Q 3003 1734 2745 1975 
Q 2488 2216 2034 2216 
z
M 1403 2484 
Q 997 2584 770 2862 
Q 544 3141 544 3541 
Q 544 4100 942 4425 
Q 1341 4750 2034 4750 
Q 2731 4750 3128 4425 
Q 3525 4100 3525 3541 
Q 3525 3141 3298 2862 
Q 3072 2584 2669 2484 
Q 3125 2378 3379 2068 
Q 3634 1759 3634 1313 
Q 3634 634 3220 271 
Q 2806 -91 2034 -91 
Q 1263 -91 848 271 
Q 434 634 434 1313 
Q 434 1759 690 2068 
Q 947 2378 1403 2484 
z
M 1172 3481 
Q 1172 3119 1398 2916 
Q 1625 2713 2034 2713 
Q 2441 2713 2670 2916 
Q 2900 3119 2900 3481 
Q 2900 3844 2670 4047 
Q 2441 4250 2034 4250 
Q 1625 4250 1398 4047 
Q 1172 3844 1172 3481 
z
" transform="scale(0.015625)"/>
       </defs>
       <use xlink:href="#DejaVuSans-38"/>
       <use xlink:href="#DejaVuSans-30" transform="translate(63.623047 0)"/>
       <use xlink:href="#DejaVuSans-30" transform="translate(127.246094 0)"/>
      </g>
     </g>
    </g>
    <g id="ytick_6">
     <g id="line2d_14">
      <g>
       <use xlink:href="#m6728a30e53" x="33.2875" y="41.569153" style="fill: #ffffff; stroke: #ffffff; stroke-width: 0.8"/>
      </g>
     </g>
     <g id="text_14">
      <!-- 900 -->
      <g style="fill: #ffffff" transform="translate(7.2 45.368372) scale(0.1 -0.1)">
       <defs>
        <path id="DejaVuSans-39" d="M 703 97 
L 703 672 
Q 941 559 1184 500 
Q 1428 441 1663 441 
Q 2288 441 2617 861 
Q 2947 1281 2994 2138 
Q 2813 1869 2534 1725 
Q 2256 1581 1919 1581 
Q 1219 1581 811 2004 
Q 403 2428 403 3163 
Q 403 3881 828 4315 
Q 1253 4750 1959 4750 
Q 2769 4750 3195 4129 
Q 3622 3509 3622 2328 
Q 3622 1225 3098 567 
Q 2575 -91 1691 -91 
Q 1453 -91 1209 -44 
Q 966 3 703 97 
z
M 1959 2075 
Q 2384 2075 2632 2365 
Q 2881 2656 2881 3163 
Q 2881 3666 2632 3958 
Q 2384 4250 1959 4250 
Q 1534 4250 1286 3958 
Q 1038 3666 1038 3163 
Q 1038 2656 1286 2365 
Q 1534 2075 1959 2075 
z
" transform="scale(0.015625)"/>
       </defs>
       <use xlink:href="#DejaVuSans-39"/>
       <use xlink:href="#DejaVuSans-30" transform="translate(63.623047 0)"/>
       <use xlink:href="#DejaVuSans-30" transform="translate(127.246094 0)"/>
      </g>
     </g>
    </g>
   </g>
   <g id="line2d_15">
    <path d="M 47.621591 145.107045 
L 48.005368 151.775587 
L 48.389146 151.775587 
L 48.772924 161.251936 
L 49.156701 178.09878 
L 49.540479 201.965141 
L 50.691811 223.374671 
L 51.075589 227.586382 
L 51.843144 218.110033 
L 52.226921 210.037587 
L 52.994476 184.416346 
L 54.145809 123.697515 
L 54.913364 92.460659 
L 55.297142 84.388214 
L 56.064697 74.560888 
L 56.448474 73.858936 
L 56.832252 85.090165 
L 57.216029 103.691888 
L 57.599807 108.605551 
L 57.983584 125.80337 
L 58.751139 172.483165 
L 59.134917 195.296599 
L 59.902472 212.494418 
L 60.28625 214.600274 
L 60.670027 215.653201 
L 61.053805 210.037587 
L 61.437582 202.667093 
L 61.82136 192.137816 
L 62.588915 157.040226 
L 62.972692 142.650213 
L 63.35647 134.577768 
L 63.740247 142.299238 
L 64.124025 144.054117 
L 64.507802 141.948262 
L 64.89158 133.875816 
L 65.275357 122.644587 
L 65.659135 117.730924 
L 66.042913 116.327021 
L 66.42669 125.80337 
L 66.810468 125.452394 
L 67.194245 135.630695 
L 67.9618 174.589021 
L 68.729355 198.806358 
L 69.113133 200.561238 
L 69.49691 208.282707 
L 69.880688 207.580756 
L 70.264465 202.667093 
L 70.648243 203.720021 
L 71.032021 191.78684 
L 71.799576 148.265828 
L 72.567131 108.956527 
L 72.950908 92.811635 
L 73.718463 73.858936 
L 74.102241 69.998201 
L 74.486018 69.647226 
L 74.869796 76.315768 
L 75.253573 87.196021 
L 75.637351 105.797744 
L 76.021128 112.817262 
L 76.788684 144.405093 
L 77.556239 177.747804 
L 77.940016 190.733912 
L 78.323794 198.806358 
L 78.707571 204.421972 
L 79.091349 206.878804 
L 79.475126 205.4749 
L 79.858904 206.527828 
L 80.242681 191.78684 
L 81.394014 125.101418 
L 81.777791 110.009454 
L 82.161569 109.307503 
L 82.545347 105.446768 
L 82.929124 100.182129 
L 83.312902 97.374322 
L 83.696679 98.778226 
L 84.080457 108.254575 
L 84.848012 149.318756 
L 85.999344 179.502683 
L 86.766899 207.22978 
L 87.150677 218.461009 
L 87.918232 227.235406 
L 88.30201 226.182478 
L 88.685787 226.88443 
L 89.069565 226.533454 
L 89.453342 214.95125 
L 89.83712 199.157334 
L 90.220897 188.979033 
L 90.604675 186.522201 
L 90.988452 186.522201 
L 91.37223 184.06537 
L 92.139785 175.290972 
L 92.523562 169.675358 
L 92.90734 160.90096 
L 93.291118 157.391201 
L 93.674895 164.059744 
L 94.058673 167.569503 
L 94.44245 163.708768 
L 94.826228 174.589021 
L 95.97756 218.811985 
L 96.361338 227.586382 
L 96.745115 232.149069 
L 97.128893 234.956876 
L 97.896448 226.182478 
L 99.047781 197.402454 
L 99.431558 181.959515 
L 100.582891 125.452394 
L 101.350446 99.129201 
L 101.734223 89.652852 
L 102.118001 82.98431 
L 102.501778 82.98431 
L 102.885556 85.441141 
L 103.269333 101.235057 
L 103.653111 106.14872 
L 104.420666 150.371683 
L 104.804444 175.641948 
L 105.188221 192.839768 
L 105.571999 203.720021 
L 105.955776 210.739539 
L 106.339554 214.95125 
L 106.723331 215.302225 
L 107.107109 210.739539 
L 107.874664 193.541719 
L 109.793551 88.248948 
L 110.561107 66.839418 
L 110.944884 63.680635 
L 111.328662 58.766973 
L 111.712439 64.031611 
L 112.096217 72.104057 
L 112.479994 85.090165 
L 112.863772 93.162611 
L 113.247549 113.519213 
L 114.015104 167.218527 
L 114.782659 196.349527 
L 115.550214 211.090515 
L 116.31777 206.878804 
L 116.701547 199.50831 
L 117.085325 188.277081 
L 117.469102 168.271454 
L 118.236657 119.83678 
L 118.620435 99.129201 
L 119.38799 69.647226 
L 120.155545 63.329659 
L 120.539322 68.243322 
L 120.9231 74.911864 
L 122.074433 105.446768 
L 122.841988 146.510948 
L 123.225765 170.728286 
L 123.99332 199.859286 
L 124.377098 207.580756 
L 124.760875 211.792466 
L 125.144653 210.739539 
L 125.52843 203.720021 
L 125.912208 201.263189 
L 126.679763 169.675358 
L 128.214873 85.090165 
L 128.982428 68.243322 
L 129.366206 67.54137 
L 129.749983 69.998201 
L 130.133761 75.964792 
L 130.901316 97.725298 
L 131.285093 104.042864 
L 131.668871 120.187756 
L 132.436426 165.814623 
L 132.820204 186.171225 
L 133.203981 196.700503 
L 133.971536 209.686611 
L 134.355314 210.388563 
L 134.739091 207.931731 
L 135.122869 199.50831 
L 135.506646 186.522201 
L 137.425534 81.931382 
L 137.809311 70.349177 
L 138.193089 63.680635 
L 138.576867 60.170876 
L 138.960644 59.8199 
L 139.344422 64.733563 
L 139.728199 73.156985 
L 140.111977 89.301876 
L 140.495754 95.619442 
L 140.879532 112.466286 
L 142.030864 175.290972 
L 142.798419 194.945623 
L 143.182197 200.912213 
L 143.565975 203.369045 
L 143.949752 204.421972 
L 144.33353 202.316117 
L 144.717307 187.926105 
L 145.86864 103.691888 
L 146.636195 68.945274 
L 147.019972 59.468924 
L 147.787527 48.237695 
L 148.171305 47.88672 
L 148.555082 51.396479 
L 148.93886 62.627708 
L 149.322638 77.719671 
L 149.706415 86.143093 
L 150.47397 125.452394 
L 150.857748 149.318756 
L 151.625303 177.747804 
L 152.392858 194.945623 
L 153.160413 202.316117 
L 153.54419 200.561238 
L 153.927968 179.853659 
L 155.079301 92.109683 
L 155.463078 75.26284 
L 156.230633 53.502334 
L 156.614411 46.482816 
L 156.998188 45.078912 
L 157.765743 54.555262 
L 158.149521 66.137467 
L 158.533298 87.196021 
L 158.917076 92.109683 
L 159.300853 110.36043 
L 160.068408 158.795105 
L 160.452186 175.641948 
L 160.835964 187.575129 
L 161.219741 195.647575 
L 161.603519 199.50831 
L 161.987296 200.912213 
L 162.754851 187.224153 
L 163.138629 173.185117 
L 163.522406 152.126563 
L 164.289961 95.268467 
L 164.673739 74.911864 
L 165.057516 62.978683 
L 165.441294 56.661117 
L 166.208849 64.733563 
L 166.592627 66.839418 
L 166.976404 64.733563 
L 167.360182 71.402105 
L 167.743959 83.335286 
L 168.127737 90.003828 
L 168.511514 108.254575 
L 169.279069 157.040226 
L 169.662847 172.483165 
L 170.430402 190.733912 
L 170.814179 193.892695 
L 171.581735 189.680985 
L 172.34929 167.218527 
L 173.116845 125.452394 
L 173.8844 81.580406 
L 174.268177 66.839418 
L 174.651955 60.521852 
L 175.035732 57.714045 
L 175.41951 58.415997 
L 175.803287 54.906238 
L 176.187065 55.959165 
L 176.570842 58.065021 
L 176.95462 71.402105 
L 177.338398 75.964792 
L 177.722175 94.566515 
L 178.48973 145.458021 
L 179.257285 171.781213 
L 180.02484 181.959515 
L 180.408618 183.714394 
L 181.176173 173.185117 
L 181.55995 161.953888 
L 181.943728 145.107045 
L 182.711283 98.778226 
L 183.478838 63.680635 
L 183.862616 57.012093 
L 184.246393 46.482816 
L 185.013948 35.953539 
L 185.397726 39.814274 
L 185.781503 51.747454 
L 186.165281 68.594298 
L 186.549058 77.368695 
L 187.316613 123.697515 
L 187.700391 149.318756 
L 188.467946 176.694876 
L 188.851724 184.06537 
L 189.619279 188.277081 
L 190.386834 176.694876 
L 190.770611 167.920479 
L 191.538166 135.27972 
L 191.921944 110.009454 
L 192.689499 76.315768 
L 193.457054 54.555262 
L 193.840832 51.396479 
L 194.224609 53.151358 
L 194.992164 69.998201 
L 196.143497 105.797744 
L 197.294829 168.973406 
L 198.062384 192.488792 
L 198.446162 197.051478 
L 198.829939 194.243671 
L 199.213717 193.541719 
L 199.597495 186.171225 
L 199.981272 173.185117 
L 200.36505 153.530466 
L 201.516382 80.527479 
L 201.90016 67.54137 
L 202.283937 58.415997 
L 202.667715 52.09843 
L 203.051492 55.959165 
L 203.43527 58.065021 
L 204.202825 80.527479 
L 204.586602 97.374322 
L 204.97038 100.884081 
L 205.354158 117.730924 
L 206.121713 158.795105 
L 206.50549 177.045852 
L 206.889268 189.680985 
L 207.273045 195.296599 
L 207.656823 204.772948 
L 208.0406 205.825876 
L 208.424378 205.123924 
L 208.808155 202.667093 
L 209.191933 187.926105 
L 210.727043 77.368695 
L 211.110821 60.170876 
L 211.494598 50.694527 
L 212.262153 38.761346 
L 213.029708 43.324033 
L 214.181041 79.474551 
L 215.716151 163.006816 
L 216.099929 175.992924 
L 216.867484 191.435864 
L 217.251261 198.806358 
L 217.635039 196.700503 
L 218.018816 198.806358 
L 218.402594 179.853659 
L 219.170149 114.923117 
L 219.937704 69.647226 
L 220.321481 55.608189 
L 220.705259 53.151358 
L 221.089036 58.415997 
L 221.472814 69.647226 
L 222.240369 101.586033 
L 222.624147 115.625069 
L 223.007924 125.452394 
L 223.391702 128.611177 
L 223.775479 142.650213 
L 224.926812 193.190744 
L 225.310589 202.667093 
L 225.694367 208.984659 
L 226.078144 212.845394 
L 226.461922 208.633683 
L 227.229477 195.998551 
L 227.613255 184.06537 
L 228.38081 143.703141 
L 229.148365 91.407732 
L 229.91592 54.555262 
L 230.683475 41.569153 
L 231.067252 38.41037 
L 231.45103 41.569153 
L 231.834807 50.343551 
L 232.218585 66.137467 
L 232.602362 72.455033 
L 232.98614 91.407732 
L 233.753695 144.405093 
L 234.905028 180.555611 
L 235.288805 186.522201 
L 236.05636 180.906587 
L 236.440138 174.589021 
L 236.823915 163.006816 
L 237.59147 118.783852 
L 238.359025 70.700153 
L 238.742803 54.555262 
L 239.126581 45.429888 
L 239.510358 47.535744 
L 239.894136 53.151358 
L 241.045468 84.037238 
L 241.429246 96.321394 
L 241.813023 104.042864 
L 243.348133 178.800732 
L 244.115689 195.998551 
L 244.883244 197.402454 
L 245.650799 186.171225 
L 246.034576 172.483165 
L 246.802131 128.611177 
L 247.953464 60.521852 
L 248.337241 49.641599 
L 249.104796 47.184768 
L 250.256129 73.507961 
L 250.639907 88.599924 
L 251.023684 92.460659 
L 251.407462 110.711406 
L 252.175017 154.93437 
L 252.558794 170.37731 
L 252.942572 180.555611 
L 253.326349 187.224153 
L 253.710127 191.435864 
L 254.093904 191.084888 
L 254.477682 184.06537 
L 254.861459 179.502683 
L 255.245237 166.165599 
L 255.629015 147.2129 
L 256.39657 97.725298 
L 256.780347 80.176503 
L 257.164125 68.594298 
L 257.547902 68.945274 
L 257.93168 70.700153 
L 258.315457 76.315768 
L 258.699235 79.474551 
L 259.083012 85.441141 
L 259.46679 99.480177 
L 259.850567 103.691888 
L 260.234345 112.11531 
L 260.618122 126.505322 
L 261.385678 165.463647 
L 261.769455 180.906587 
L 262.153233 191.084888 
L 262.53701 196.349527 
L 262.920788 199.50831 
L 263.304565 199.50831 
L 264.07212 186.171225 
L 264.455898 174.939997 
L 264.839675 158.795105 
L 265.60723 110.009454 
L 266.374786 73.858936 
L 266.758563 63.329659 
L 267.142341 69.647226 
L 267.909896 93.162611 
L 268.293673 98.076274 
L 268.677451 104.744816 
L 269.061228 115.274093 
L 269.445006 119.485804 
L 271.363893 194.594647 
L 272.131449 207.580756 
L 272.515226 208.633683 
L 272.899004 206.527828 
L 273.282781 208.633683 
L 273.666559 191.435864 
L 274.434114 141.24631 
L 275.201669 90.354804 
L 275.969224 67.54137 
L 276.353001 65.084539 
L 276.736779 64.382587 
L 277.120556 63.329659 
L 277.504334 68.594298 
L 277.888112 78.421623 
L 278.271889 94.215539 
L 278.655667 98.076274 
L 280.190777 177.396828 
L 280.958332 199.859286 
L 281.725887 209.335635 
L 282.109664 208.984659 
L 282.493442 211.792466 
L 282.877219 190.733912 
L 283.644775 138.438503 
L 284.41233 104.744816 
L 285.179885 74.911864 
L 285.563662 66.839418 
L 285.94744 64.031611 
L 286.331217 59.468924 
L 286.714995 61.223804 
L 287.098772 73.858936 
L 287.48255 91.758707 
L 287.866327 101.235057 
L 288.633882 148.96778 
L 289.401438 191.084888 
L 290.168993 208.984659 
L 290.55277 212.845394 
L 290.936548 212.494418 
L 291.704103 199.859286 
L 292.08788 185.82025 
L 292.855435 143.352165 
L 293.62299 88.9509 
L 294.390546 58.766973 
L 294.774323 51.396479 
L 295.158101 47.535744 
L 295.541878 41.920129 
L 295.925656 42.622081 
L 296.309433 51.747454 
L 296.693211 65.786491 
L 297.076988 72.104057 
L 297.460766 94.566515 
L 297.844543 124.399466 
L 298.228321 164.410719 
L 298.612098 166.516575 
L 298.995876 180.204635 
L 299.379653 187.926105 
L 299.763431 192.839768 
L 300.147209 193.892695 
L 300.530986 186.522201 
L 300.914764 184.767322 
L 301.298541 171.079262 
L 301.682319 152.828515 
L 302.833651 72.806009 
L 303.217429 54.555262 
L 303.601206 42.271105 
L 303.984984 36.655491 
L 304.752539 32.44378 
L 305.136316 34.900611 
L 306.287649 66.488442 
L 306.671427 87.546997 
L 307.438982 140.544358 
L 307.822759 159.848033 
L 308.590314 180.555611 
L 308.974092 185.82025 
L 309.357869 186.522201 
L 309.741647 179.151707 
L 310.125424 177.396828 
L 310.892979 144.756069 
L 311.660535 90.354804 
L 312.044312 63.680635 
L 312.42809 49.290623 
L 312.811867 45.078912 
L 313.195645 48.939647 
L 314.346977 80.176503 
L 314.730755 82.282358 
L 315.114532 93.513587 
L 315.49831 98.076274 
L 317.03342 170.728286 
L 317.417198 183.714394 
L 318.184753 193.541719 
L 318.56853 191.435864 
L 319.336085 181.608539 
L 320.10364 155.285346 
L 322.022528 48.588671 
L 322.406306 44.025985 
L 322.790083 42.973057 
L 323.173861 44.727936 
L 323.557638 57.714045 
L 323.941416 75.613816 
L 324.325193 87.546997 
L 324.708971 93.864563 
L 325.092748 111.413358 
L 325.860303 156.68925 
L 326.627858 184.416346 
L 327.011636 190.03196 
L 327.395413 193.190744 
L 327.779191 194.594647 
L 328.546746 184.767322 
L 328.930524 175.290972 
L 329.698079 138.438503 
L 330.465634 90.354804 
L 330.849411 72.455033 
L 331.233189 64.031611 
L 331.616966 63.329659 
L 332.000744 66.488442 
L 332.768299 81.931382 
L 333.919632 110.711406 
L 334.303409 126.154346 
L 334.303409 126.154346 
" clip-path="url(#p792d2d9044)" style="fill: none; stroke: #98fe09; stroke-width: 2; stroke-linecap: square"/>
   </g>
   <g id="patch_3">
    <path d="M 33.2875 245.082531 
L 33.2875 22.318125 
" style="fill: none; stroke: #000000; stroke-width: 0.8; stroke-linejoin: miter; stroke-linecap: square"/>
   </g>
   <g id="patch_4">
    <path d="M 348.6375 245.082531 
L 348.6375 22.318125 
" style="fill: none; stroke: #000000; stroke-width: 0.8; stroke-linejoin: miter; stroke-linecap: square"/>
   </g>
   <g id="patch_5">
    <path d="M 33.2875 245.082531 
L 348.6375 245.082531 
" style="fill: none; stroke: #000000; stroke-width: 0.8; stroke-linejoin: miter; stroke-linecap: square"/>
   </g>
   <g id="patch_6">
    <path d="M 33.2875 22.318125 
L 348.6375 22.318125 
" style="fill: none; stroke: #000000; stroke-width: 0.8; stroke-linejoin: miter; stroke-linecap: square"/>
   </g>
   <g id="text_15">
    <!-- Series H1 -->
    <g style="fill: #ffffff" transform="translate(158.630937 16.318125) scale(0.12 -0.12)">
     <defs>
      <path id="DejaVuSans-Bold-53" d="M 3834 4519 
L 3834 3531 
Q 3450 3703 3084 3790 
Q 2719 3878 2394 3878 
Q 1963 3878 1756 3759 
Q 1550 3641 1550 3391 
Q 1550 3203 1689 3098 
Q 1828 2994 2194 2919 
L 2706 2816 
Q 3484 2659 3812 2340 
Q 4141 2022 4141 1434 
Q 4141 663 3683 286 
Q 3225 -91 2284 -91 
Q 1841 -91 1394 -6 
Q 947 78 500 244 
L 500 1259 
Q 947 1022 1364 901 
Q 1781 781 2169 781 
Q 2563 781 2772 912 
Q 2981 1044 2981 1288 
Q 2981 1506 2839 1625 
Q 2697 1744 2272 1838 
L 1806 1941 
Q 1106 2091 782 2419 
Q 459 2747 459 3303 
Q 459 4000 909 4375 
Q 1359 4750 2203 4750 
Q 2588 4750 2994 4692 
Q 3400 4634 3834 4519 
z
" transform="scale(0.015625)"/>
      <path id="DejaVuSans-Bold-65" d="M 4031 1759 
L 4031 1441 
L 1416 1441 
Q 1456 1047 1700 850 
Q 1944 653 2381 653 
Q 2734 653 3104 758 
Q 3475 863 3866 1075 
L 3866 213 
Q 3469 63 3072 -14 
Q 2675 -91 2278 -91 
Q 1328 -91 801 392 
Q 275 875 275 1747 
Q 275 2603 792 3093 
Q 1309 3584 2216 3584 
Q 3041 3584 3536 3087 
Q 4031 2591 4031 1759 
z
M 2881 2131 
Q 2881 2450 2695 2645 
Q 2509 2841 2209 2841 
Q 1884 2841 1681 2658 
Q 1478 2475 1428 2131 
L 2881 2131 
z
" transform="scale(0.015625)"/>
      <path id="DejaVuSans-Bold-72" d="M 3138 2547 
Q 2991 2616 2845 2648 
Q 2700 2681 2553 2681 
Q 2122 2681 1889 2404 
Q 1656 2128 1656 1613 
L 1656 0 
L 538 0 
L 538 3500 
L 1656 3500 
L 1656 2925 
Q 1872 3269 2151 3426 
Q 2431 3584 2822 3584 
Q 2878 3584 2943 3579 
Q 3009 3575 3134 3559 
L 3138 2547 
z
" transform="scale(0.015625)"/>
      <path id="DejaVuSans-Bold-69" d="M 538 3500 
L 1656 3500 
L 1656 0 
L 538 0 
L 538 3500 
z
M 538 4863 
L 1656 4863 
L 1656 3950 
L 538 3950 
L 538 4863 
z
" transform="scale(0.015625)"/>
      <path id="DejaVuSans-Bold-73" d="M 3272 3391 
L 3272 2541 
Q 2913 2691 2578 2766 
Q 2244 2841 1947 2841 
Q 1628 2841 1473 2761 
Q 1319 2681 1319 2516 
Q 1319 2381 1436 2309 
Q 1553 2238 1856 2203 
L 2053 2175 
Q 2913 2066 3209 1816 
Q 3506 1566 3506 1031 
Q 3506 472 3093 190 
Q 2681 -91 1863 -91 
Q 1516 -91 1145 -36 
Q 775 19 384 128 
L 384 978 
Q 719 816 1070 734 
Q 1422 653 1784 653 
Q 2113 653 2278 743 
Q 2444 834 2444 1013 
Q 2444 1163 2330 1236 
Q 2216 1309 1875 1350 
L 1678 1375 
Q 931 1469 631 1722 
Q 331 1975 331 2491 
Q 331 3047 712 3315 
Q 1094 3584 1881 3584 
Q 2191 3584 2531 3537 
Q 2872 3491 3272 3391 
z
" transform="scale(0.015625)"/>
      <path id="DejaVuSans-Bold-20" transform="scale(0.015625)"/>
      <path id="DejaVuSans-Bold-48" d="M 588 4666 
L 1791 4666 
L 1791 2888 
L 3566 2888 
L 3566 4666 
L 4769 4666 
L 4769 0 
L 3566 0 
L 3566 1978 
L 1791 1978 
L 1791 0 
L 588 0 
L 588 4666 
z
" transform="scale(0.015625)"/>
      <path id="DejaVuSans-Bold-31" d="M 750 831 
L 1813 831 
L 1813 3847 
L 722 3622 
L 722 4441 
L 1806 4666 
L 2950 4666 
L 2950 831 
L 4013 831 
L 4013 0 
L 750 0 
L 750 831 
z
" transform="scale(0.015625)"/>
     </defs>
     <use xlink:href="#DejaVuSans-Bold-53"/>
     <use xlink:href="#DejaVuSans-Bold-65" transform="translate(72.021484 0)"/>
     <use xlink:href="#DejaVuSans-Bold-72" transform="translate(139.84375 0)"/>
     <use xlink:href="#DejaVuSans-Bold-69" transform="translate(189.160156 0)"/>
     <use xlink:href="#DejaVuSans-Bold-65" transform="translate(223.4375 0)"/>
     <use xlink:href="#DejaVuSans-Bold-73" transform="translate(291.259766 0)"/>
     <use xlink:href="#DejaVuSans-Bold-20" transform="translate(350.78125 0)"/>
     <use xlink:href="#DejaVuSans-Bold-48" transform="translate(385.595703 0)"/>
     <use xlink:href="#DejaVuSans-Bold-31" transform="translate(469.287109 0)"/>
    </g>
   </g>
  </g>
  <g id="axes_2">
   <g id="patch_7">
    <path d="M 391.8175 245.082531 
L 707.1675 245.082531 
L 707.1675 22.318125 
L 391.8175 22.318125 
z
" style="fill: #160741"/>
   </g>
   <g id="matplotlib.axis_3">
    <g id="xtick_9">
     <g id="line2d_16">
      <g>
       <use xlink:href="#m3c3cda0ffd" x="405.767813" y="245.082531" style="fill: #ffffff; stroke: #ffffff; stroke-width: 0.8"/>
      </g>
     </g>
     <g id="text_16">
      <!-- 0 -->
      <g style="fill: #ffffff" transform="translate(405.469503 261.954404) rotate(-45) scale(0.1 -0.1)">
       <use xlink:href="#DejaVuSans-30"/>
      </g>
     </g>
    </g>
    <g id="xtick_10">
     <g id="line2d_17">
      <g>
       <use xlink:href="#m3c3cda0ffd" x="444.145567" y="245.082531" style="fill: #ffffff; stroke: #ffffff; stroke-width: 0.8"/>
      </g>
     </g>
     <g id="text_17">
      <!-- 100 -->
      <g style="fill: #ffffff" transform="translate(439.348289 270.952338) rotate(-45) scale(0.1 -0.1)">
       <use xlink:href="#DejaVuSans-31"/>
       <use xlink:href="#DejaVuSans-30" transform="translate(63.623047 0)"/>
       <use xlink:href="#DejaVuSans-30" transform="translate(127.246094 0)"/>
      </g>
     </g>
    </g>
    <g id="xtick_11">
     <g id="line2d_18">
      <g>
       <use xlink:href="#m3c3cda0ffd" x="482.52332" y="245.082531" style="fill: #ffffff; stroke: #ffffff; stroke-width: 0.8"/>
      </g>
     </g>
     <g id="text_18">
      <!-- 200 -->
      <g style="fill: #ffffff" transform="translate(477.726043 270.952338) rotate(-45) scale(0.1 -0.1)">
       <use xlink:href="#DejaVuSans-32"/>
       <use xlink:href="#DejaVuSans-30" transform="translate(63.623047 0)"/>
       <use xlink:href="#DejaVuSans-30" transform="translate(127.246094 0)"/>
      </g>
     </g>
    </g>
    <g id="xtick_12">
     <g id="line2d_19">
      <g>
       <use xlink:href="#m3c3cda0ffd" x="520.901074" y="245.082531" style="fill: #ffffff; stroke: #ffffff; stroke-width: 0.8"/>
      </g>
     </g>
     <g id="text_19">
      <!-- 300 -->
      <g style="fill: #ffffff" transform="translate(516.103796 270.952338) rotate(-45) scale(0.1 -0.1)">
       <use xlink:href="#DejaVuSans-33"/>
       <use xlink:href="#DejaVuSans-30" transform="translate(63.623047 0)"/>
       <use xlink:href="#DejaVuSans-30" transform="translate(127.246094 0)"/>
      </g>
     </g>
    </g>
    <g id="xtick_13">
     <g id="line2d_20">
      <g>
       <use xlink:href="#m3c3cda0ffd" x="559.278827" y="245.082531" style="fill: #ffffff; stroke: #ffffff; stroke-width: 0.8"/>
      </g>
     </g>
     <g id="text_20">
      <!-- 400 -->
      <g style="fill: #ffffff" transform="translate(554.48155 270.952338) rotate(-45) scale(0.1 -0.1)">
       <use xlink:href="#DejaVuSans-34"/>
       <use xlink:href="#DejaVuSans-30" transform="translate(63.623047 0)"/>
       <use xlink:href="#DejaVuSans-30" transform="translate(127.246094 0)"/>
      </g>
     </g>
    </g>
    <g id="xtick_14">
     <g id="line2d_21">
      <g>
       <use xlink:href="#m3c3cda0ffd" x="597.656581" y="245.082531" style="fill: #ffffff; stroke: #ffffff; stroke-width: 0.8"/>
      </g>
     </g>
     <g id="text_21">
      <!-- 500 -->
      <g style="fill: #ffffff" transform="translate(592.859303 270.952338) rotate(-45) scale(0.1 -0.1)">
       <use xlink:href="#DejaVuSans-35"/>
       <use xlink:href="#DejaVuSans-30" transform="translate(63.623047 0)"/>
       <use xlink:href="#DejaVuSans-30" transform="translate(127.246094 0)"/>
      </g>
     </g>
    </g>
    <g id="xtick_15">
     <g id="line2d_22">
      <g>
       <use xlink:href="#m3c3cda0ffd" x="636.034334" y="245.082531" style="fill: #ffffff; stroke: #ffffff; stroke-width: 0.8"/>
      </g>
     </g>
     <g id="text_22">
      <!-- 600 -->
      <g style="fill: #ffffff" transform="translate(631.237056 270.952338) rotate(-45) scale(0.1 -0.1)">
       <use xlink:href="#DejaVuSans-36"/>
       <use xlink:href="#DejaVuSans-30" transform="translate(63.623047 0)"/>
       <use xlink:href="#DejaVuSans-30" transform="translate(127.246094 0)"/>
      </g>
     </g>
    </g>
    <g id="xtick_16">
     <g id="line2d_23">
      <g>
       <use xlink:href="#m3c3cda0ffd" x="674.412087" y="245.082531" style="fill: #ffffff; stroke: #ffffff; stroke-width: 0.8"/>
      </g>
     </g>
     <g id="text_23">
      <!-- 700 -->
      <g style="fill: #ffffff" transform="translate(669.61481 270.952338) rotate(-45) scale(0.1 -0.1)">
       <use xlink:href="#DejaVuSans-37"/>
       <use xlink:href="#DejaVuSans-30" transform="translate(63.623047 0)"/>
       <use xlink:href="#DejaVuSans-30" transform="translate(127.246094 0)"/>
      </g>
     </g>
    </g>
   </g>
   <g id="matplotlib.axis_4">
    <g id="ytick_7">
     <g id="line2d_24">
      <g>
       <use xlink:href="#m6728a30e53" x="391.8175" y="232.253521" style="fill: #ffffff; stroke: #ffffff; stroke-width: 0.8"/>
      </g>
     </g>
     <g id="text_24">
      <!-- 1500 -->
      <g style="fill: #ffffff" transform="translate(359.3675 236.05274) scale(0.1 -0.1)">
       <use xlink:href="#DejaVuSans-31"/>
       <use xlink:href="#DejaVuSans-35" transform="translate(63.623047 0)"/>
       <use xlink:href="#DejaVuSans-30" transform="translate(127.246094 0)"/>
       <use xlink:href="#DejaVuSans-30" transform="translate(190.869141 0)"/>
      </g>
     </g>
    </g>
    <g id="ytick_8">
     <g id="line2d_25">
      <g>
       <use xlink:href="#m6728a30e53" x="391.8175" y="192.4983" style="fill: #ffffff; stroke: #ffffff; stroke-width: 0.8"/>
      </g>
     </g>
     <g id="text_25">
      <!-- 2000 -->
      <g style="fill: #ffffff" transform="translate(359.3675 196.297519) scale(0.1 -0.1)">
       <use xlink:href="#DejaVuSans-32"/>
       <use xlink:href="#DejaVuSans-30" transform="translate(63.623047 0)"/>
       <use xlink:href="#DejaVuSans-30" transform="translate(127.246094 0)"/>
       <use xlink:href="#DejaVuSans-30" transform="translate(190.869141 0)"/>
      </g>
     </g>
    </g>
    <g id="ytick_9">
     <g id="line2d_26">
      <g>
       <use xlink:href="#m6728a30e53" x="391.8175" y="152.743079" style="fill: #ffffff; stroke: #ffffff; stroke-width: 0.8"/>
      </g>
     </g>
     <g id="text_26">
      <!-- 2500 -->
      <g style="fill: #ffffff" transform="translate(359.3675 156.542298) scale(0.1 -0.1)">
       <use xlink:href="#DejaVuSans-32"/>
       <use xlink:href="#DejaVuSans-35" transform="translate(63.623047 0)"/>
       <use xlink:href="#DejaVuSans-30" transform="translate(127.246094 0)"/>
       <use xlink:href="#DejaVuSans-30" transform="translate(190.869141 0)"/>
      </g>
     </g>
    </g>
    <g id="ytick_10">
     <g id="line2d_27">
      <g>
       <use xlink:href="#m6728a30e53" x="391.8175" y="112.987858" style="fill: #ffffff; stroke: #ffffff; stroke-width: 0.8"/>
      </g>
     </g>
     <g id="text_27">
      <!-- 3000 -->
      <g style="fill: #ffffff" transform="translate(359.3675 116.787076) scale(0.1 -0.1)">
       <use xlink:href="#DejaVuSans-33"/>
       <use xlink:href="#DejaVuSans-30" transform="translate(63.623047 0)"/>
       <use xlink:href="#DejaVuSans-30" transform="translate(127.246094 0)"/>
       <use xlink:href="#DejaVuSans-30" transform="translate(190.869141 0)"/>
      </g>
     </g>
    </g>
    <g id="ytick_11">
     <g id="line2d_28">
      <g>
       <use xlink:href="#m6728a30e53" x="391.8175" y="73.232637" style="fill: #ffffff; stroke: #ffffff; stroke-width: 0.8"/>
      </g>
     </g>
     <g id="text_28">
      <!-- 3500 -->
      <g style="fill: #ffffff" transform="translate(359.3675 77.031855) scale(0.1 -0.1)">
       <use xlink:href="#DejaVuSans-33"/>
       <use xlink:href="#DejaVuSans-35" transform="translate(63.623047 0)"/>
       <use xlink:href="#DejaVuSans-30" transform="translate(127.246094 0)"/>
       <use xlink:href="#DejaVuSans-30" transform="translate(190.869141 0)"/>
      </g>
     </g>
    </g>
    <g id="ytick_12">
     <g id="line2d_29">
      <g>
       <use xlink:href="#m6728a30e53" x="391.8175" y="33.477416" style="fill: #ffffff; stroke: #ffffff; stroke-width: 0.8"/>
      </g>
     </g>
     <g id="text_29">
      <!-- 4000 -->
      <g style="fill: #ffffff" transform="translate(359.3675 37.276634) scale(0.1 -0.1)">
       <use xlink:href="#DejaVuSans-34"/>
       <use xlink:href="#DejaVuSans-30" transform="translate(63.623047 0)"/>
       <use xlink:href="#DejaVuSans-30" transform="translate(127.246094 0)"/>
       <use xlink:href="#DejaVuSans-30" transform="translate(190.869141 0)"/>
      </g>
     </g>
    </g>
   </g>
   <g id="line2d_30">
    <path d="M 406.151591 103.128563 
L 406.919146 123.960299 
L 407.302924 128.174352 
L 407.686701 149.244619 
L 408.070479 176.516701 
L 408.454256 192.816342 
L 409.221811 213.568567 
L 409.605589 215.317797 
L 409.989366 214.443182 
L 410.756921 201.164938 
L 411.140699 189.556414 
L 411.908254 179.538098 
L 412.675809 160.376081 
L 414.594697 117.917505 
L 414.978474 111.238628 
L 415.362252 114.896108 
L 416.513584 134.853229 
L 416.897362 150.357766 
L 417.281139 175.721597 
L 418.048694 205.776544 
L 418.81625 215.397307 
L 419.200027 215.794859 
L 419.583805 211.421785 
L 422.654025 137.556584 
L 423.037802 132.785958 
L 423.805357 128.094842 
L 424.189135 130.400645 
L 424.572913 137.397563 
L 424.95669 147.415879 
L 425.340468 153.538183 
L 425.724245 156.877622 
L 426.108023 170.473907 
L 426.875578 209.593045 
L 427.259355 217.226047 
L 427.643133 227.323874 
L 428.02691 227.482894 
L 428.410688 231.855969 
L 428.794465 229.232124 
L 429.562021 213.568567 
L 430.329576 181.525859 
L 431.097131 158.149789 
L 431.480908 150.516786 
L 431.864686 140.33945 
L 432.632241 128.651415 
L 433.016018 124.516872 
L 433.399796 122.529111 
L 433.783573 130.639176 
L 435.702461 189.556414 
L 436.086239 211.739827 
L 436.853794 227.482894 
L 437.237571 231.617437 
L 437.621349 233.366667 
L 438.005126 233.366667 
L 438.388904 231.060864 
L 438.772681 222.473737 
L 439.540236 178.822504 
L 440.307791 144.394482 
L 440.691569 132.467916 
L 441.075347 127.140716 
L 441.842902 113.226389 
L 442.226679 108.217231 
L 442.610457 109.330377 
L 442.994234 117.599463 
L 443.378012 132.229385 
L 443.761789 153.776715 
L 444.145567 164.749156 
L 444.529344 168.724678 
L 445.680677 209.752066 
L 446.064454 210.944723 
L 446.448232 226.767301 
L 446.83201 225.813175 
L 447.215787 227.482894 
L 447.599565 227.323874 
L 447.983342 212.455421 
L 449.518452 135.489313 
L 450.286007 104.241709 
L 450.669785 100.425208 
L 451.053562 91.997101 
L 451.821118 86.192839 
L 452.204895 93.348779 
L 452.97245 118.156036 
L 453.356228 126.266102 
L 453.740005 144.951056 
L 454.50756 189.238372 
L 455.275115 213.568567 
L 455.658893 217.941641 
L 456.04267 214.681713 
L 456.810225 199.813261 
L 457.194003 182.241453 
L 457.577781 172.7002 
L 458.729113 127.379248 
L 459.880446 100.186677 
L 460.648001 91.520038 
L 461.031778 90.327382 
L 461.415556 95.654581 
L 461.799333 109.966461 
L 462.183111 116.088765 
L 462.566888 125.470997 
L 462.950666 144.553503 
L 463.334444 171.587054 
L 463.718221 186.932569 
L 464.101999 197.507458 
L 464.485776 202.914168 
L 464.869554 210.46766 
L 465.637109 204.663398 
L 466.020886 193.690957 
L 466.404664 187.648163 
L 466.788441 184.865297 
L 467.172219 179.776629 
L 467.555996 172.064116 
L 467.939774 172.77971 
L 468.323551 176.039638 
L 468.707329 174.926492 
L 469.474884 174.52894 
L 469.858662 174.60845 
L 470.242439 172.382158 
L 470.626217 173.177262 
L 471.009994 175.642086 
L 471.393772 174.926492 
L 471.777549 177.629847 
L 472.161327 189.079351 
L 472.545104 210.149618 
L 473.312659 227.323874 
L 473.696437 233.048625 
L 474.080214 234.082261 
L 474.463992 232.01499 
L 475.615325 204.424866 
L 475.999102 194.088509 
L 476.38288 190.987602 
L 477.150435 180.492223 
L 477.534212 180.571734 
L 477.91799 177.311805 
L 478.301767 177.550337 
L 478.685545 176.437191 
L 479.069322 171.348522 
L 479.4531 168.327126 
L 479.836878 168.327126 
L 480.220655 174.369919 
L 480.604433 176.755232 
L 480.98821 178.265931 
L 481.371988 191.385154 
L 481.755765 209.036472 
L 482.139543 219.849892 
L 482.907098 231.855969 
L 483.290875 231.537927 
L 483.674653 234.956876 
L 484.442208 217.226047 
L 484.825985 205.378992 
L 485.977318 188.99984 
L 486.744873 173.972367 
L 487.128651 168.009084 
L 487.512428 164.431114 
L 487.896206 159.660487 
L 488.279983 157.593216 
L 488.663761 156.162028 
L 489.047538 157.195664 
L 489.815093 166.180344 
L 490.198871 167.770552 
L 491.350204 215.635839 
L 491.733981 225.574644 
L 492.501536 233.128136 
L 492.885314 233.128136 
L 494.036646 202.675637 
L 495.187979 171.666564 
L 495.955534 143.201826 
L 496.723089 121.813517 
L 497.490644 111.715691 
L 497.874422 109.409888 
L 498.258199 114.578067 
L 498.641977 127.140716 
L 499.025754 135.01225 
L 499.409532 139.464835 
L 499.793309 155.684965 
L 500.177087 178.424952 
L 500.560864 194.406551 
L 501.328419 214.443182 
L 501.712197 219.293319 
L 502.095975 218.657235 
L 502.479752 219.45234 
L 502.86353 215.556328 
L 503.247307 202.596126 
L 504.39864 136.125396 
L 505.549972 93.984862 
L 506.317527 75.538439 
L 506.701305 71.96047 
L 507.085082 72.03998 
L 507.46886 77.36718 
L 508.236415 105.036814 
L 508.620193 113.623941 
L 509.00397 131.116239 
L 509.771525 177.868379 
L 510.53908 204.742908 
L 511.306635 217.385068 
L 511.690413 216.351433 
L 512.07419 213.011994 
L 512.457968 198.143541 
L 513.225523 141.373086 
L 514.376856 91.440528 
L 515.144411 69.177604 
L 515.911966 59.954393 
L 516.295743 56.058381 
L 516.679521 59.715861 
L 517.447076 85.874797 
L 517.830853 94.541435 
L 518.982186 167.134469 
L 519.749741 191.067112 
L 520.133519 196.15578 
L 520.517296 198.620604 
L 520.901074 192.657321 
L 521.668629 169.837824 
L 523.971294 61.067539 
L 524.355071 52.400901 
L 524.738849 46.278597 
L 525.506404 40.235803 
L 525.890182 44.131815 
L 527.041514 78.400815 
L 528.192847 151.629933 
L 528.960402 178.265931 
L 529.344179 183.116068 
L 529.727957 186.455506 
L 530.495512 175.642086 
L 531.263067 145.348608 
L 532.4144 91.440528 
L 533.181955 83.171442 
L 533.565732 79.672982 
L 533.94951 71.006344 
L 534.717065 63.691384 
L 535.100842 63.611873 
L 535.48462 71.96047 
L 535.868398 87.544516 
L 536.252175 95.575071 
L 537.403508 171.428033 
L 538.171063 194.883613 
L 538.938618 204.027314 
L 539.322395 194.645082 
L 539.706173 189.397393 
L 542.392616 80.388576 
L 543.160171 73.550678 
L 543.543948 73.153126 
L 543.927726 71.244876 
L 544.311503 73.78921 
L 545.079058 100.107166 
L 545.462836 109.330377 
L 546.614168 174.846982 
L 546.997946 189.635924 
L 547.381724 199.892771 
L 548.149279 205.856054 
L 548.916834 191.226133 
L 549.300611 178.265931 
L 550.068166 144.314972 
L 550.451944 120.302818 
L 551.603276 75.140887 
L 551.987054 65.520124 
L 552.370832 59.954393 
L 552.754609 51.844328 
L 553.138387 50.651671 
L 553.522164 55.81985 
L 554.289719 84.841161 
L 554.673497 91.997101 
L 555.824829 161.568738 
L 556.208607 175.801107 
L 556.592384 180.969286 
L 556.976162 191.941727 
L 557.359939 190.033476 
L 557.743717 187.409632 
L 558.127495 178.10691 
L 558.89505 143.678888 
L 560.43016 71.96047 
L 560.813937 64.565998 
L 561.197715 50.49265 
L 561.581492 52.003349 
L 561.96527 50.015588 
L 562.349047 50.731182 
L 562.732825 54.865725 
L 563.50038 81.501723 
L 563.884158 90.08885 
L 565.419268 166.736917 
L 566.5706 191.941727 
L 566.954378 184.547256 
L 567.338155 188.363757 
L 568.873265 117.917505 
L 570.024598 81.342702 
L 570.408376 74.345783 
L 571.175931 57.56908 
L 571.559708 56.058381 
L 571.943486 59.874882 
L 573.094818 94.302904 
L 574.246151 160.376081 
L 574.629929 174.44943 
L 575.397484 192.657321 
L 576.165039 194.486061 
L 576.548816 194.724592 
L 576.932594 182.957047 
L 577.700149 144.235462 
L 578.851481 102.015417 
L 579.235259 88.26011 
L 580.002814 70.688303 
L 580.386592 67.269353 
L 580.770369 62.339706 
L 581.154147 65.361103 
L 581.537924 73.550678 
L 582.305479 97.403811 
L 583.456812 166.895938 
L 584.224367 190.112987 
L 584.608144 195.917249 
L 584.991922 194.406551 
L 585.375699 190.510539 
L 586.143255 172.382158 
L 587.294587 140.896023 
L 588.062142 109.489398 
L 588.829697 85.477245 
L 589.213475 78.798368 
L 589.597252 75.458929 
L 589.98103 74.981866 
L 590.364807 79.19592 
L 591.132362 106.14996 
L 591.51614 117.917505 
L 592.667473 182.002922 
L 593.05125 194.24753 
L 593.818805 205.538012 
L 594.202583 207.207732 
L 594.58636 202.675637 
L 596.12147 167.770552 
L 597.656581 128.810436 
L 598.424136 120.302818 
L 598.807913 118.951141 
L 599.191691 116.883869 
L 599.575468 120.62086 
L 600.343023 139.146793 
L 600.726801 144.076441 
L 601.878133 199.65424 
L 602.261911 211.898848 
L 602.645689 218.100662 
L 603.029466 221.28108 
L 603.413244 220.167934 
L 604.180799 205.378992 
L 604.564576 194.724592 
L 604.948354 188.443267 
L 606.867241 132.388406 
L 607.634796 118.79212 
L 608.402352 111.55667 
L 608.786129 114.101004 
L 609.169907 122.4496 
L 609.553684 127.538269 
L 609.937462 135.409802 
L 611.472572 200.051792 
L 611.856349 208.956961 
L 612.240127 207.764305 
L 612.623904 209.354514 
L 614.159015 178.981525 
L 614.92657 152.345527 
L 616.077902 107.422127 
L 616.845457 86.749412 
L 617.613012 73.471168 
L 617.99679 78.082774 
L 619.148122 113.544431 
L 620.683233 193.452425 
L 621.450788 208.877451 
L 621.834565 211.024233 
L 622.218343 204.186335 
L 622.60212 200.210813 
L 624.13723 127.538269 
L 624.904786 88.101089 
L 625.288563 72.676064 
L 625.672341 63.293831 
L 626.439896 51.685307 
L 626.823673 49.220483 
L 627.207451 57.410059 
L 628.742561 126.981696 
L 629.510116 170.394397 
L 629.893893 185.898933 
L 630.661449 202.596126 
L 631.045226 206.88969 
L 631.429004 208.797941 
L 631.812781 204.822418 
L 632.196559 196.553332 
L 634.499224 82.137806 
L 635.266779 63.452852 
L 635.650556 57.092017 
L 636.034334 55.183766 
L 636.418112 62.180685 
L 637.569444 96.211154 
L 639.104554 173.415794 
L 640.255887 198.302562 
L 640.639664 197.189416 
L 641.023442 198.620604 
L 641.407219 186.455506 
L 642.558552 128.174352 
L 643.709885 79.593472 
L 644.093662 67.746416 
L 644.861217 54.706704 
L 645.244995 51.844328 
L 645.628772 57.410059 
L 646.396327 84.125567 
L 646.780105 92.474164 
L 647.931438 163.317968 
L 648.698993 190.033476 
L 649.08277 197.507458 
L 649.466548 195.996759 
L 649.850325 192.657321 
L 650.234103 183.59313 
L 650.61788 169.678803 
L 651.385435 130.559665 
L 651.769213 101.061291 
L 652.536768 63.13481 
L 652.920546 50.095098 
L 653.304323 48.186847 
L 653.688101 41.189928 
L 654.071878 41.348949 
L 654.455656 43.654752 
L 654.839433 49.856567 
L 655.990766 86.51088 
L 657.142098 159.580977 
L 657.525876 173.336283 
L 658.293431 191.623685 
L 658.677209 194.24753 
L 659.060986 190.112987 
L 659.444764 181.525859 
L 659.828541 167.611532 
L 660.596096 123.562747 
L 661.747429 62.578237 
L 662.131206 50.810692 
L 662.514984 44.290836 
L 662.898761 33.874968 
L 663.282539 33.477416 
L 663.666316 32.44378 
L 664.050094 36.419302 
L 665.201427 77.128648 
L 665.968982 136.045886 
L 666.352759 156.798111 
L 667.120314 183.43411 
L 667.504092 188.602288 
L 667.887869 189.079351 
L 668.271647 189.079351 
L 669.422979 150.914339 
L 670.574312 96.847238 
L 671.341867 71.721938 
L 671.725645 63.373342 
L 672.109422 57.966632 
L 672.876977 56.932996 
L 673.260755 61.147049 
L 674.412087 104.639261 
L 675.56342 177.470826 
L 675.947198 193.770467 
L 676.330975 202.675637 
L 676.714753 204.981439 
L 677.09853 206.174096 
L 677.482308 202.675637 
L 677.866085 196.314801 
L 678.249863 187.012079 
L 679.017418 159.183425 
L 679.784973 124.914424 
L 680.552528 102.731011 
L 680.936306 93.58731 
L 681.320083 89.532277 
L 681.703861 87.385495 
L 682.087638 87.385495 
L 682.471416 90.247871 
L 683.238971 118.076526 
L 683.622748 126.902185 
L 684.390303 176.834743 
L 685.157858 210.388149 
L 685.541636 214.363672 
L 685.925413 221.917164 
L 686.309191 220.804017 
L 687.076746 207.764305 
L 687.844301 180.253692 
L 688.611856 144.394482 
L 689.763189 96.608707 
L 690.530744 73.312147 
L 690.914521 69.257115 
L 691.298299 68.621031 
L 691.682076 74.186762 
L 692.065854 95.177519 
L 692.833409 119.507714 
L 692.833409 119.507714 
" clip-path="url(#padcc9e426c)" style="fill: none; stroke: #98fe09; stroke-width: 2; stroke-linecap: square"/>
   </g>
   <g id="patch_8">
    <path d="M 391.8175 245.082531 
L 391.8175 22.318125 
" style="fill: none; stroke: #000000; stroke-width: 0.8; stroke-linejoin: miter; stroke-linecap: square"/>
   </g>
   <g id="patch_9">
    <path d="M 707.1675 245.082531 
L 707.1675 22.318125 
" style="fill: none; stroke: #000000; stroke-width: 0.8; stroke-linejoin: miter; stroke-linecap: square"/>
   </g>
   <g id="patch_10">
    <path d="M 391.8175 245.082531 
L 707.1675 245.082531 
" style="fill: none; stroke: #000000; stroke-width: 0.8; stroke-linejoin: miter; stroke-linecap: square"/>
   </g>
   <g id="patch_11">
    <path d="M 391.8175 22.318125 
L 707.1675 22.318125 
" style="fill: none; stroke: #000000; stroke-width: 0.8; stroke-linejoin: miter; stroke-linecap: square"/>
   </g>
   <g id="text_30">
    <!-- Series H2 -->
    <g style="fill: #ffffff" transform="translate(517.160937 16.318125) scale(0.12 -0.12)">
     <defs>
      <path id="DejaVuSans-Bold-32" d="M 1844 884 
L 3897 884 
L 3897 0 
L 506 0 
L 506 884 
L 2209 2388 
Q 2438 2594 2547 2791 
Q 2656 2988 2656 3200 
Q 2656 3528 2436 3728 
Q 2216 3928 1850 3928 
Q 1569 3928 1234 3808 
Q 900 3688 519 3450 
L 519 4475 
Q 925 4609 1322 4679 
Q 1719 4750 2100 4750 
Q 2938 4750 3402 4381 
Q 3866 4013 3866 3353 
Q 3866 2972 3669 2642 
Q 3472 2313 2841 1759 
L 1844 884 
z
" transform="scale(0.015625)"/>
     </defs>
     <use xlink:href="#DejaVuSans-Bold-53"/>
     <use xlink:href="#DejaVuSans-Bold-65" transform="translate(72.021484 0)"/>
     <use xlink:href="#DejaVuSans-Bold-72" transform="translate(139.84375 0)"/>
     <use xlink:href="#DejaVuSans-Bold-69" transform="translate(189.160156 0)"/>
     <use xlink:href="#DejaVuSans-Bold-65" transform="translate(223.4375 0)"/>
     <use xlink:href="#DejaVuSans-Bold-73" transform="translate(291.259766 0)"/>
     <use xlink:href="#DejaVuSans-Bold-20" transform="translate(350.78125 0)"/>
     <use xlink:href="#DejaVuSans-Bold-48" transform="translate(385.595703 0)"/>
     <use xlink:href="#DejaVuSans-Bold-32" transform="translate(469.287109 0)"/>
    </g>
   </g>
  </g>
  <g id="axes_3">
   <g id="patch_12">
    <path d="M 750.3475 245.082531 
L 1065.6975 245.082531 
L 1065.6975 22.318125 
L 750.3475 22.318125 
z
" style="fill: #160741"/>
   </g>
   <g id="matplotlib.axis_5">
    <g id="xtick_17">
     <g id="line2d_31">
      <g>
       <use xlink:href="#m3c3cda0ffd" x="764.297813" y="245.082531" style="fill: #ffffff; stroke: #ffffff; stroke-width: 0.8"/>
      </g>
     </g>
     <g id="text_31">
      <!-- 0 -->
      <g style="fill: #ffffff" transform="translate(763.999503 261.954404) rotate(-45) scale(0.1 -0.1)">
       <use xlink:href="#DejaVuSans-30"/>
      </g>
     </g>
    </g>
    <g id="xtick_18">
     <g id="line2d_32">
      <g>
       <use xlink:href="#m3c3cda0ffd" x="802.675567" y="245.082531" style="fill: #ffffff; stroke: #ffffff; stroke-width: 0.8"/>
      </g>
     </g>
     <g id="text_32">
      <!-- 100 -->
      <g style="fill: #ffffff" transform="translate(797.878289 270.952338) rotate(-45) scale(0.1 -0.1)">
       <use xlink:href="#DejaVuSans-31"/>
       <use xlink:href="#DejaVuSans-30" transform="translate(63.623047 0)"/>
       <use xlink:href="#DejaVuSans-30" transform="translate(127.246094 0)"/>
      </g>
     </g>
    </g>
    <g id="xtick_19">
     <g id="line2d_33">
      <g>
       <use xlink:href="#m3c3cda0ffd" x="841.05332" y="245.082531" style="fill: #ffffff; stroke: #ffffff; stroke-width: 0.8"/>
      </g>
     </g>
     <g id="text_33">
      <!-- 200 -->
      <g style="fill: #ffffff" transform="translate(836.256043 270.952338) rotate(-45) scale(0.1 -0.1)">
       <use xlink:href="#DejaVuSans-32"/>
       <use xlink:href="#DejaVuSans-30" transform="translate(63.623047 0)"/>
       <use xlink:href="#DejaVuSans-30" transform="translate(127.246094 0)"/>
      </g>
     </g>
    </g>
    <g id="xtick_20">
     <g id="line2d_34">
      <g>
       <use xlink:href="#m3c3cda0ffd" x="879.431074" y="245.082531" style="fill: #ffffff; stroke: #ffffff; stroke-width: 0.8"/>
      </g>
     </g>
     <g id="text_34">
      <!-- 300 -->
      <g style="fill: #ffffff" transform="translate(874.633796 270.952338) rotate(-45) scale(0.1 -0.1)">
       <use xlink:href="#DejaVuSans-33"/>
       <use xlink:href="#DejaVuSans-30" transform="translate(63.623047 0)"/>
       <use xlink:href="#DejaVuSans-30" transform="translate(127.246094 0)"/>
      </g>
     </g>
    </g>
    <g id="xtick_21">
     <g id="line2d_35">
      <g>
       <use xlink:href="#m3c3cda0ffd" x="917.808827" y="245.082531" style="fill: #ffffff; stroke: #ffffff; stroke-width: 0.8"/>
      </g>
     </g>
     <g id="text_35">
      <!-- 400 -->
      <g style="fill: #ffffff" transform="translate(913.01155 270.952338) rotate(-45) scale(0.1 -0.1)">
       <use xlink:href="#DejaVuSans-34"/>
       <use xlink:href="#DejaVuSans-30" transform="translate(63.623047 0)"/>
       <use xlink:href="#DejaVuSans-30" transform="translate(127.246094 0)"/>
      </g>
     </g>
    </g>
    <g id="xtick_22">
     <g id="line2d_36">
      <g>
       <use xlink:href="#m3c3cda0ffd" x="956.186581" y="245.082531" style="fill: #ffffff; stroke: #ffffff; stroke-width: 0.8"/>
      </g>
     </g>
     <g id="text_36">
      <!-- 500 -->
      <g style="fill: #ffffff" transform="translate(951.389303 270.952338) rotate(-45) scale(0.1 -0.1)">
       <use xlink:href="#DejaVuSans-35"/>
       <use xlink:href="#DejaVuSans-30" transform="translate(63.623047 0)"/>
       <use xlink:href="#DejaVuSans-30" transform="translate(127.246094 0)"/>
      </g>
     </g>
    </g>
    <g id="xtick_23">
     <g id="line2d_37">
      <g>
       <use xlink:href="#m3c3cda0ffd" x="994.564334" y="245.082531" style="fill: #ffffff; stroke: #ffffff; stroke-width: 0.8"/>
      </g>
     </g>
     <g id="text_37">
      <!-- 600 -->
      <g style="fill: #ffffff" transform="translate(989.767056 270.952338) rotate(-45) scale(0.1 -0.1)">
       <use xlink:href="#DejaVuSans-36"/>
       <use xlink:href="#DejaVuSans-30" transform="translate(63.623047 0)"/>
       <use xlink:href="#DejaVuSans-30" transform="translate(127.246094 0)"/>
      </g>
     </g>
    </g>
    <g id="xtick_24">
     <g id="line2d_38">
      <g>
       <use xlink:href="#m3c3cda0ffd" x="1032.942087" y="245.082531" style="fill: #ffffff; stroke: #ffffff; stroke-width: 0.8"/>
      </g>
     </g>
     <g id="text_38">
      <!-- 700 -->
      <g style="fill: #ffffff" transform="translate(1028.14481 270.952338) rotate(-45) scale(0.1 -0.1)">
       <use xlink:href="#DejaVuSans-37"/>
       <use xlink:href="#DejaVuSans-30" transform="translate(63.623047 0)"/>
       <use xlink:href="#DejaVuSans-30" transform="translate(127.246094 0)"/>
      </g>
     </g>
    </g>
   </g>
   <g id="matplotlib.axis_6">
    <g id="ytick_13">
     <g id="line2d_39">
      <g>
       <use xlink:href="#m6728a30e53" x="750.3475" y="239.657737" style="fill: #ffffff; stroke: #ffffff; stroke-width: 0.8"/>
      </g>
     </g>
     <g id="text_39">
      <!-- 800 -->
      <g style="fill: #ffffff" transform="translate(724.26 243.456956) scale(0.1 -0.1)">
       <use xlink:href="#DejaVuSans-38"/>
       <use xlink:href="#DejaVuSans-30" transform="translate(63.623047 0)"/>
       <use xlink:href="#DejaVuSans-30" transform="translate(127.246094 0)"/>
      </g>
     </g>
    </g>
    <g id="ytick_14">
     <g id="line2d_40">
      <g>
       <use xlink:href="#m6728a30e53" x="750.3475" y="202.050848" style="fill: #ffffff; stroke: #ffffff; stroke-width: 0.8"/>
      </g>
     </g>
     <g id="text_40">
      <!-- 1000 -->
      <g style="fill: #ffffff" transform="translate(717.8975 205.850067) scale(0.1 -0.1)">
       <use xlink:href="#DejaVuSans-31"/>
       <use xlink:href="#DejaVuSans-30" transform="translate(63.623047 0)"/>
       <use xlink:href="#DejaVuSans-30" transform="translate(127.246094 0)"/>
       <use xlink:href="#DejaVuSans-30" transform="translate(190.869141 0)"/>
      </g>
     </g>
    </g>
    <g id="ytick_15">
     <g id="line2d_41">
      <g>
       <use xlink:href="#m6728a30e53" x="750.3475" y="164.44396" style="fill: #ffffff; stroke: #ffffff; stroke-width: 0.8"/>
      </g>
     </g>
     <g id="text_41">
      <!-- 1200 -->
      <g style="fill: #ffffff" transform="translate(717.8975 168.243178) scale(0.1 -0.1)">
       <use xlink:href="#DejaVuSans-31"/>
       <use xlink:href="#DejaVuSans-32" transform="translate(63.623047 0)"/>
       <use xlink:href="#DejaVuSans-30" transform="translate(127.246094 0)"/>
       <use xlink:href="#DejaVuSans-30" transform="translate(190.869141 0)"/>
      </g>
     </g>
    </g>
    <g id="ytick_16">
     <g id="line2d_42">
      <g>
       <use xlink:href="#m6728a30e53" x="750.3475" y="126.837071" style="fill: #ffffff; stroke: #ffffff; stroke-width: 0.8"/>
      </g>
     </g>
     <g id="text_42">
      <!-- 1400 -->
      <g style="fill: #ffffff" transform="translate(717.8975 130.636289) scale(0.1 -0.1)">
       <use xlink:href="#DejaVuSans-31"/>
       <use xlink:href="#DejaVuSans-34" transform="translate(63.623047 0)"/>
       <use xlink:href="#DejaVuSans-30" transform="translate(127.246094 0)"/>
       <use xlink:href="#DejaVuSans-30" transform="translate(190.869141 0)"/>
      </g>
     </g>
    </g>
    <g id="ytick_17">
     <g id="line2d_43">
      <g>
       <use xlink:href="#m6728a30e53" x="750.3475" y="89.230182" style="fill: #ffffff; stroke: #ffffff; stroke-width: 0.8"/>
      </g>
     </g>
     <g id="text_43">
      <!-- 1600 -->
      <g style="fill: #ffffff" transform="translate(717.8975 93.029401) scale(0.1 -0.1)">
       <use xlink:href="#DejaVuSans-31"/>
       <use xlink:href="#DejaVuSans-36" transform="translate(63.623047 0)"/>
       <use xlink:href="#DejaVuSans-30" transform="translate(127.246094 0)"/>
       <use xlink:href="#DejaVuSans-30" transform="translate(190.869141 0)"/>
      </g>
     </g>
    </g>
    <g id="ytick_18">
     <g id="line2d_44">
      <g>
       <use xlink:href="#m6728a30e53" x="750.3475" y="51.623293" style="fill: #ffffff; stroke: #ffffff; stroke-width: 0.8"/>
      </g>
     </g>
     <g id="text_44">
      <!-- 1800 -->
      <g style="fill: #ffffff" transform="translate(717.8975 55.422512) scale(0.1 -0.1)">
       <use xlink:href="#DejaVuSans-31"/>
       <use xlink:href="#DejaVuSans-38" transform="translate(63.623047 0)"/>
       <use xlink:href="#DejaVuSans-30" transform="translate(127.246094 0)"/>
       <use xlink:href="#DejaVuSans-30" transform="translate(190.869141 0)"/>
      </g>
     </g>
    </g>
   </g>
   <g id="line2d_45">
    <path d="M 764.681591 46.358329 
L 765.065368 50.495086 
L 765.449146 33.383952 
L 765.832924 61.025015 
L 766.600479 85.469493 
L 767.751811 165.948235 
L 768.135589 181.743128 
L 768.519366 191.144851 
L 768.903144 197.538022 
L 769.286921 196.221781 
L 769.670699 184.939714 
L 770.822031 120.255865 
L 772.357142 60.460912 
L 772.740919 57.640395 
L 773.124697 47.298501 
L 773.508474 49.178845 
L 773.892252 43.725846 
L 774.276029 44.477984 
L 775.043584 58.956636 
L 775.427362 76.067771 
L 775.811139 87.537872 
L 776.962472 166.512338 
L 777.34625 182.871335 
L 778.113805 198.854263 
L 778.497582 199.418366 
L 778.88136 190.204678 
L 780.032692 122.324244 
L 781.95158 55.195948 
L 783.102913 42.033536 
L 783.870468 49.930983 
L 784.254245 60.084843 
L 785.0218 85.845562 
L 785.405578 110.478074 
L 786.173133 168.204648 
L 786.55691 185.691852 
L 786.940688 195.845712 
L 787.324465 201.674779 
L 787.708243 203.743158 
L 788.092021 201.110676 
L 788.475798 188.700403 
L 789.627131 125.52083 
L 790.394686 93.743009 
L 791.162241 72.683151 
L 791.546018 68.358359 
L 792.313573 57.640395 
L 792.697351 58.204499 
L 793.081128 63.281429 
L 793.464906 73.435289 
L 793.848684 88.29001 
L 794.232461 98.067801 
L 795.767571 186.632024 
L 796.535126 204.495296 
L 796.918904 207.691882 
L 797.302681 209.760261 
L 797.686459 203.367089 
L 798.070236 186.443989 
L 798.837791 143.760171 
L 799.221569 124.016554 
L 800.372902 89.418216 
L 801.524234 75.879736 
L 801.908012 77.195977 
L 802.291789 82.272907 
L 803.443122 116.871245 
L 803.826899 137.743068 
L 804.210677 152.409755 
L 804.594454 173.093544 
L 805.36201 198.102125 
L 805.745787 202.238883 
L 806.129565 205.059399 
L 806.513342 209.384192 
L 806.89712 202.050848 
L 808.816007 124.016554 
L 809.583562 105.965247 
L 810.351118 94.871215 
L 810.734895 98.819939 
L 811.118673 96.75156 
L 811.50245 96.375491 
L 811.886228 102.204559 
L 812.270005 116.495176 
L 812.653783 123.452451 
L 813.805115 189.264506 
L 814.188893 200.358538 
L 814.57267 208.067951 
L 814.956448 210.324364 
L 815.340225 207.315813 
L 815.724003 199.982469 
L 816.491558 159.743098 
L 817.642891 113.67466 
L 818.410446 89.98232 
L 818.794223 77.384012 
L 819.561778 65.725876 
L 819.945556 63.657498 
L 820.329333 65.537842 
L 820.713111 64.59767 
L 821.480666 89.606251 
L 821.864444 103.144731 
L 823.015776 178.734577 
L 823.399554 197.161953 
L 823.783331 204.871365 
L 824.167109 205.999572 
L 824.550886 202.050848 
L 824.934664 192.649126 
L 826.085996 135.298621 
L 827.621107 81.144701 
L 828.388662 65.725876 
L 828.772439 64.785704 
L 829.156217 64.409635 
L 829.539994 66.101945 
L 829.923772 74.939564 
L 830.307549 86.5977 
L 830.691327 91.486595 
L 831.075104 104.084903 
L 832.226437 176.478164 
L 832.610214 190.580747 
L 832.993992 199.230332 
L 833.37777 202.991021 
L 833.761547 201.110676 
L 834.145325 191.144851 
L 834.91288 136.050758 
L 835.680435 99.384042 
L 836.064212 79.076322 
L 836.831767 57.452361 
L 837.215545 59.896809 
L 837.9831 48.614742 
L 838.366878 48.238673 
L 838.750655 51.247224 
L 839.134433 56.700223 
L 839.51821 68.170324 
L 839.901988 85.845562 
L 840.285765 96.563525 
L 841.437098 179.862784 
L 842.204653 200.546573 
L 842.58843 206.375641 
L 842.972208 203.179055 
L 843.355985 193.213229 
L 844.891096 119.503727 
L 846.809983 40.341226 
L 847.577538 32.44378 
L 847.961316 35.452331 
L 848.345093 44.28995 
L 848.728871 55.760051 
L 849.496426 83.965217 
L 850.647759 161.811477 
L 851.415314 183.435438 
L 851.799091 186.632024 
L 852.182869 183.999542 
L 852.566646 176.478164 
L 854.101756 105.401144 
L 854.869311 86.785734 
L 855.253089 85.281459 
L 855.636867 82.084873 
L 856.020644 74.939564 
L 856.404422 71.742979 
L 856.788199 64.785704 
L 857.171977 70.238703 
L 857.555754 81.896839 
L 857.939532 97.503697 
L 858.707087 110.666109 
L 859.474642 151.281548 
L 859.858419 178.170474 
L 860.625975 201.674779 
L 861.777307 198.478194 
L 862.161085 197.726056 
L 862.544862 190.392713 
L 863.312417 166.700373 
L 863.696195 170.084993 
L 864.079972 163.879856 
L 864.46375 164.631994 
L 864.847527 167.076442 
L 865.231305 168.392683 
L 865.615082 163.691822 
L 865.99886 160.495236 
L 866.382638 154.854203 
L 866.766415 161.05934 
L 867.150193 171.401234 
L 867.53397 171.025165 
L 867.917748 171.589268 
L 868.301525 181.931163 
L 869.06908 212.768812 
L 869.452858 223.110706 
L 869.836635 230.067981 
L 870.220413 233.264566 
L 870.60419 230.444049 
L 870.987968 231.760291 
L 871.371745 227.999602 
L 871.755523 216.153432 
L 872.139301 198.478194 
L 873.290633 166.324304 
L 874.441966 144.512308 
L 874.825743 142.44393 
L 875.209521 139.247344 
L 875.593298 134.922552 
L 875.977076 136.238793 
L 876.360853 142.255895 
L 876.744631 144.13624 
L 877.128408 150.90548 
L 878.279741 213.520949 
L 878.663519 224.050878 
L 879.047296 225.931223 
L 879.431074 226.495326 
L 880.198629 209.008123 
L 880.966184 170.273027 
L 881.733739 149.025135 
L 882.885071 121.572106 
L 883.268849 125.896899 
L 883.652627 125.52083 
L 884.036404 126.272967 
L 884.420182 123.264416 
L 884.803959 121.572106 
L 885.187737 127.401174 
L 885.571514 136.426827 
L 885.955292 139.999482 
L 886.339069 147.332825 
L 887.490402 208.632054 
L 887.874179 218.409845 
L 888.257957 224.050878 
L 888.641735 226.307292 
L 889.025512 221.606431 
L 889.40929 210.888467 
L 890.176845 171.025165 
L 890.9444 145.264446 
L 891.328177 140.375551 
L 891.711955 139.05931 
L 892.47951 124.956726 
L 892.863287 122.13621 
L 893.247065 116.119107 
L 893.630842 112.358419 
L 894.01462 112.546453 
L 894.398398 108.59773 
L 895.165953 131.161863 
L 895.54973 147.896928 
L 896.701063 214.837191 
L 897.08484 225.179085 
L 897.468618 229.315843 
L 897.852395 227.999602 
L 898.61995 211.640605 
L 899.771283 153.725996 
L 901.306393 112.546453 
L 901.690171 105.21311 
L 902.073948 102.392593 
L 902.457726 105.965247 
L 902.841503 99.384042 
L 903.225281 98.44387 
L 903.609058 103.5208 
L 904.376613 126.272967 
L 904.760391 136.426827 
L 905.911724 197.161953 
L 906.295501 209.008123 
L 906.679279 215.213259 
L 907.063056 219.350017 
L 907.446834 215.401294 
L 907.830611 205.247434 
L 908.598166 170.461062 
L 909.365721 151.093514 
L 909.749499 143.008033 
L 910.133276 138.871275 
L 910.517054 138.307172 
L 910.900832 132.478104 
L 911.284609 130.785794 
L 911.668387 130.59776 
L 912.052164 126.272967 
L 912.435942 123.82852 
L 912.819719 127.589209 
L 913.203497 139.435378 
L 913.971052 151.845652 
L 915.122384 210.136329 
L 915.506162 219.538052 
L 916.273717 227.999602 
L 916.657495 223.486775 
L 917.041272 212.956846 
L 918.192605 163.503787 
L 918.576382 153.914031 
L 918.96016 147.144791 
L 919.343937 144.512308 
L 919.727715 138.871275 
L 920.111492 128.529381 
L 920.49527 124.580657 
L 920.879047 118.375521 
L 921.262825 115.555004 
L 921.646602 115.743039 
L 922.03038 119.879796 
L 923.181713 144.512308 
L 923.949268 186.820058 
L 924.716823 215.025225 
L 925.484378 224.803016 
L 925.868155 222.922672 
L 926.251933 224.050878 
L 926.63571 217.281638 
L 928.170821 155.98241 
L 928.554598 144.13624 
L 929.705931 120.631934 
L 930.089708 114.990901 
L 930.473486 107.657557 
L 930.857263 103.332765 
L 931.241041 106.153282 
L 931.624818 115.178935 
L 932.008596 127.21314 
L 932.392373 125.332795 
L 933.159929 182.119197 
L 933.543706 201.298711 
L 933.927484 210.700433 
L 934.311261 223.110706 
L 934.695039 226.495326 
L 935.078816 224.426947 
L 935.462594 227.059429 
L 935.846371 219.914121 
L 938.149036 120.067831 
L 939.300369 92.050699 
L 939.684147 83.589149 
L 940.067924 83.777183 
L 940.451702 82.084873 
L 940.835479 86.973769 
L 941.603034 111.418246 
L 942.754367 187.384162 
L 943.521922 208.632054 
L 943.905699 209.572226 
L 944.289477 204.495296 
L 944.673255 193.589298 
L 946.208365 112.358419 
L 946.97592 82.272907 
L 947.743475 65.161773 
L 948.127252 60.460912 
L 948.51103 58.204499 
L 948.894807 54.631844 
L 949.278585 57.264326 
L 949.662362 61.589119 
L 950.813695 106.717385 
L 951.965028 182.683301 
L 952.348805 196.033746 
L 952.732583 204.307262 
L 953.11636 210.136329 
L 953.500138 207.315813 
L 953.883915 199.418366 
L 954.65147 156.734547 
L 955.419025 127.777243 
L 956.186581 110.102005 
L 957.337913 88.666079 
L 958.105468 82.648976 
L 958.489246 85.845562 
L 958.873023 94.871215 
L 959.640578 120.819969 
L 960.024356 130.033656 
L 960.791911 180.802956 
L 961.175689 199.230332 
L 961.943244 215.777363 
L 962.327021 217.469673 
L 962.710799 214.837191 
L 963.094576 205.811537 
L 963.862131 171.965337 
L 964.629686 148.461032 
L 965.013464 142.44393 
L 965.397241 133.606311 
L 965.781019 129.281519 
L 966.164796 122.324244 
L 966.932352 116.307142 
L 967.316129 108.785764 
L 967.699907 110.29004 
L 968.083684 114.238763 
L 969.235017 141.691792 
L 970.002572 188.512368 
L 970.386349 205.247434 
L 970.770127 214.085053 
L 971.537682 223.862844 
L 971.921459 218.409845 
L 972.305237 208.255985 
L 973.45657 158.990961 
L 974.224125 140.563585 
L 974.99168 129.281519 
L 975.375457 119.879796 
L 976.52679 105.025075 
L 977.294345 111.98235 
L 978.0619 134.358448 
L 978.445678 140.75162 
L 979.59701 209.948295 
L 979.980788 219.350017 
L 980.364565 225.931223 
L 980.748343 227.623533 
L 981.13212 223.862844 
L 981.515898 215.213259 
L 982.66723 165.008063 
L 983.434786 148.084963 
L 984.586118 131.161863 
L 984.969896 123.264416 
L 985.353673 112.922522 
L 985.737451 112.170384 
L 986.121228 112.922522 
L 986.505006 117.999452 
L 987.272561 142.44393 
L 987.656338 148.837101 
L 988.040116 164.067891 
L 988.807671 201.862814 
L 989.191449 212.392743 
L 989.575226 219.161983 
L 989.959004 223.674809 
L 990.726559 221.982499 
L 991.110336 215.777363 
L 992.645446 164.631994 
L 993.413001 157.862754 
L 993.796779 158.990961 
L 994.180556 158.426857 
L 994.564334 158.238823 
L 994.948112 159.178995 
L 995.331889 162.75165 
L 996.099444 176.29013 
L 996.483222 176.29013 
L 996.866999 172.341406 
L 997.634554 204.871365 
L 998.402109 227.811567 
L 999.169664 234.580807 
L 999.553442 233.452601 
L 999.937219 234.956876 
L 1000.320997 230.256015 
L 1001.47233 192.273057 
L 1001.856107 185.691852 
L 1002.623662 179.110646 
L 1003.00744 180.050818 
L 1003.391217 185.315783 
L 1003.774995 175.537992 
L 1004.158772 172.341406 
L 1004.54255 176.478164 
L 1004.926327 177.418336 
L 1005.310105 173.093544 
L 1005.693882 173.093544 
L 1006.07766 173.657647 
L 1006.845215 209.760261 
L 1007.228993 221.042327 
L 1007.61277 227.247464 
L 1007.996548 230.444049 
L 1008.380325 232.324394 
L 1008.764103 226.119257 
L 1010.299213 169.708924 
L 1010.68299 160.683271 
L 1011.450546 151.657617 
L 1011.834323 146.204618 
L 1012.218101 158.802926 
L 1012.601878 160.871305 
L 1012.985656 161.247374 
L 1013.369433 158.614892 
L 1013.753211 153.161893 
L 1014.520766 161.05934 
L 1014.904543 159.555064 
L 1015.288321 166.888407 
L 1016.055876 204.495296 
L 1016.439653 218.597879 
L 1016.823431 225.743188 
L 1017.207209 229.503877 
L 1017.590986 231.196187 
L 1017.974764 224.803016 
L 1018.742319 197.161953 
L 1019.126096 181.179025 
L 1019.893651 161.811477 
L 1020.277429 158.050788 
L 1020.661206 149.589238 
L 1021.428761 140.563585 
L 1021.812539 137.178965 
L 1022.580094 138.495206 
L 1022.963872 136.050758 
L 1023.347649 137.743068 
L 1023.731427 141.503757 
L 1024.115204 143.384102 
L 1024.498982 153.914031 
L 1025.650314 214.461122 
L 1026.034092 223.862844 
L 1026.417869 229.127808 
L 1026.801647 230.256015 
L 1027.185424 225.555154 
L 1027.569202 215.777363 
L 1028.336757 178.734577 
L 1028.720535 164.820028 
L 1029.104312 158.802926 
L 1030.255645 127.21314 
L 1031.0232 107.093454 
L 1031.406977 104.837041 
L 1031.790755 94.871215 
L 1032.174532 92.802836 
L 1032.55831 94.871215 
L 1033.325865 116.495176 
L 1033.709643 131.349897 
L 1034.477198 183.059369 
L 1034.860975 201.486745 
L 1035.244753 212.768812 
L 1035.62853 219.914121 
L 1036.012308 223.486775 
L 1036.396085 218.973948 
L 1036.779863 207.691882 
L 1037.547418 170.084993 
L 1037.931195 159.743098 
L 1038.69875 131.914001 
L 1039.082528 118.939624 
L 1039.466306 100.13618 
L 1040.233861 75.503668 
L 1041.001416 60.272878 
L 1041.385193 59.708774 
L 1041.768971 63.845532 
L 1042.536526 92.050699 
L 1042.920303 113.110556 
L 1043.687858 168.768752 
L 1044.071636 190.768782 
L 1044.839191 211.264536 
L 1045.222969 217.657707 
L 1045.606746 216.341466 
L 1045.990524 205.999572 
L 1046.374301 188.324334 
L 1046.758079 165.384132 
L 1049.060744 70.238703 
L 1049.444521 60.272878 
L 1050.212076 48.050639 
L 1050.979632 59.52074 
L 1051.363409 74.375461 
L 1051.363409 74.375461 
" clip-path="url(#pb1fad4d165)" style="fill: none; stroke: #98fe09; stroke-width: 2; stroke-linecap: square"/>
   </g>
   <g id="patch_13">
    <path d="M 750.3475 245.082531 
L 750.3475 22.318125 
" style="fill: none; stroke: #000000; stroke-width: 0.8; stroke-linejoin: miter; stroke-linecap: square"/>
   </g>
   <g id="patch_14">
    <path d="M 1065.6975 245.082531 
L 1065.6975 22.318125 
" style="fill: none; stroke: #000000; stroke-width: 0.8; stroke-linejoin: miter; stroke-linecap: square"/>
   </g>
   <g id="patch_15">
    <path d="M 750.3475 245.082531 
L 1065.6975 245.082531 
" style="fill: none; stroke: #000000; stroke-width: 0.8; stroke-linejoin: miter; stroke-linecap: square"/>
   </g>
   <g id="patch_16">
    <path d="M 750.3475 22.318125 
L 1065.6975 22.318125 
" style="fill: none; stroke: #000000; stroke-width: 0.8; stroke-linejoin: miter; stroke-linecap: square"/>
   </g>
   <g id="text_45">
    <!-- Series H3 -->
    <g style="fill: #ffffff" transform="translate(875.690938 16.318125) scale(0.12 -0.12)">
     <defs>
      <path id="DejaVuSans-Bold-33" d="M 2981 2516 
Q 3453 2394 3698 2092 
Q 3944 1791 3944 1325 
Q 3944 631 3412 270 
Q 2881 -91 1863 -91 
Q 1503 -91 1142 -33 
Q 781 25 428 141 
L 428 1069 
Q 766 900 1098 814 
Q 1431 728 1753 728 
Q 2231 728 2486 893 
Q 2741 1059 2741 1369 
Q 2741 1688 2480 1852 
Q 2219 2016 1709 2016 
L 1228 2016 
L 1228 2791 
L 1734 2791 
Q 2188 2791 2409 2933 
Q 2631 3075 2631 3366 
Q 2631 3634 2415 3781 
Q 2200 3928 1806 3928 
Q 1516 3928 1219 3862 
Q 922 3797 628 3669 
L 628 4550 
Q 984 4650 1334 4700 
Q 1684 4750 2022 4750 
Q 2931 4750 3382 4451 
Q 3834 4153 3834 3553 
Q 3834 3144 3618 2883 
Q 3403 2622 2981 2516 
z
" transform="scale(0.015625)"/>
     </defs>
     <use xlink:href="#DejaVuSans-Bold-53"/>
     <use xlink:href="#DejaVuSans-Bold-65" transform="translate(72.021484 0)"/>
     <use xlink:href="#DejaVuSans-Bold-72" transform="translate(139.84375 0)"/>
     <use xlink:href="#DejaVuSans-Bold-69" transform="translate(189.160156 0)"/>
     <use xlink:href="#DejaVuSans-Bold-65" transform="translate(223.4375 0)"/>
     <use xlink:href="#DejaVuSans-Bold-73" transform="translate(291.259766 0)"/>
     <use xlink:href="#DejaVuSans-Bold-20" transform="translate(350.78125 0)"/>
     <use xlink:href="#DejaVuSans-Bold-48" transform="translate(385.595703 0)"/>
     <use xlink:href="#DejaVuSans-Bold-33" transform="translate(469.287109 0)"/>
    </g>
   </g>
  </g>
 </g>
 <defs>
  <clipPath id="p792d2d9044">
   <rect x="33.2875" y="22.318125" width="315.35" height="222.764406"/>
  </clipPath>
  <clipPath id="padcc9e426c">
   <rect x="391.8175" y="22.318125" width="315.35" height="222.764406"/>
  </clipPath>
  <clipPath id="pb1fad4d165">
   <rect x="750.3475" y="22.318125" width="315.35" height="222.764406"/>
  </clipPath>
 </defs>
</svg>
