<svg width="559" height="342" viewBox="0 0 559 342" fill="none" xmlns="http://www.w3.org/2000/svg">
<rect x="2.5" y="2.5" width="554" height="337" fill="#0C0C0C"/>
<rect x="2.5" y="2.5" width="554" height="337" stroke="white" stroke-width="5"/>
<path d="M80.3876 123.507L67 121.612V186.466L81.2086 188.55L94.2805 177.689L107.731 153.818L134.759 161.649L147.705 134.873L162.103 122.622L174.922 130.453L188.689 120.981L216.222 137.021L229.357 132.6L256.764 192.529L271.098 201.559L283.791 217.915L297.874 212.863L311.451 227.829L325.091 249.679L337.91 226.314L351.551 230.103L365.759 229.218L379.652 252.584L392.471 261.488L406.427 259.151L419.689 278.159L433.329 272.16L446.906 282.264L460.546 287V221.262L446.906 216.652L433.329 206.864L419.689 212.863L406.427 194.171L392.471 195.749L378.768 187.287L365.57 164.048L352.435 165.311L338.352 161.775L325.091 185.456L311.325 161.775L298 147.251L283.791 152.934L270.467 135.947L256.764 126.475L229.357 67.1143L216.222 71.2821L189.32 56L176.185 65.1566L162.103 56.8841L148.778 69.2613L134.759 95.5946L107.731 87.8272L94.2805 112.897L80.3876 123.507Z" fill="#0E00F8"/>
<path d="M67.2526 153.629L80.0719 155.776L93.9016 145.356L107.668 120.16L134.507 128.053L148.652 102.036L161.534 90.0375L175.364 97.4891L188.752 88.5851L215.906 103.615L229.483 100.078L256.7 159.439L270.341 168.153L284.107 184.825L297.558 179.583L310.63 193.665L324.46 217.22L338.226 193.665L351.424 197.581L365.128 196.318L378.326 218.799L392.661 228.713L406.301 128.874L419.752 244.816L433.203 239.386L446.148 248.858L460.23 253.594" stroke="white" stroke-width="2"/>
<path d="M409.332 124.77L403.396 131.59M403.396 124.77L409.332 131.59" stroke="#02FEFA" stroke-width="2"/>
<line x1="51" y1="49" x2="51" y2="294" stroke="white" stroke-width="2"/>
<line x1="510" y1="295" x2="50" y2="295" stroke="white" stroke-width="2"/>
</svg>
