<svg width="1630" height="348" viewBox="0 0 1630 348" fill="none" xmlns="http://www.w3.org/2000/svg">
<g clip-path="url(#clip0_29_3228)">
<path d="M0 347.199H1629.12V0H0V347.199Z" fill="#0C0C0C"/>
<path d="M54.1375 281.886H1537.6V29.7574H54.1375V281.886Z" fill="#0C0C0C"/>
<path d="M131.581 281.886V286.553V281.886Z" fill="#F0F0F0"/>
<path d="M131.581 281.886V286.553" stroke="#F0F0F0" stroke-width="1.06667"/>
<path d="M120.389 314.723L124.364 312.428L124.917 313.387L119.573 316.472L119.02 315.514C119.193 314.817 119.436 313.877 119.747 312.693C120.058 311.508 120.246 310.751 120.311 310.421C120.44 309.802 120.494 309.309 120.474 308.942C120.456 308.574 120.368 308.253 120.209 307.978C119.951 307.531 119.584 307.257 119.107 307.157C118.63 307.055 118.14 307.15 117.636 307.441C117.278 307.647 116.937 307.927 116.612 308.28C116.287 308.632 115.973 309.065 115.667 309.578L115.003 308.427C115.355 307.978 115.703 307.592 116.047 307.269C116.392 306.944 116.73 306.687 117.061 306.496C117.933 305.992 118.754 305.809 119.525 305.946C120.294 306.083 120.89 306.515 121.311 307.244C121.511 307.59 121.635 307.956 121.684 308.342C121.734 308.725 121.709 309.226 121.609 309.845C121.579 310.009 121.462 310.496 121.259 311.308C121.057 312.119 120.767 313.258 120.389 314.723Z" fill="#F0F0F0"/>
<path d="M125.316 302.932C124.73 303.27 124.456 303.814 124.494 304.562C124.532 305.308 124.885 306.26 125.554 307.419C126.22 308.572 126.867 309.353 127.495 309.76C128.124 310.166 128.731 310.2 129.317 309.862C129.908 309.521 130.184 308.977 130.145 308.23C130.108 307.481 129.756 306.53 129.09 305.377C128.421 304.219 127.773 303.437 127.144 303.032C126.516 302.624 125.907 302.591 125.316 302.932ZM124.795 302.03C125.739 301.485 126.676 301.442 127.605 301.902C128.534 302.36 129.408 303.299 130.228 304.72C131.046 306.137 131.422 307.362 131.355 308.397C131.288 309.43 130.782 310.219 129.838 310.764C128.895 311.309 127.959 311.352 127.031 310.894C126.101 310.434 125.228 309.496 124.41 308.079C123.59 306.659 123.213 305.432 123.281 304.398C123.347 303.364 123.852 302.575 124.795 302.03Z" fill="#F0F0F0"/>
<path d="M132.663 298.691C132.077 299.029 131.803 299.572 131.84 300.32C131.878 301.067 132.231 302.019 132.9 303.177C133.566 304.331 134.213 305.111 134.841 305.518C135.47 305.925 136.078 305.959 136.664 305.621C137.254 305.28 137.53 304.736 137.492 303.988C137.454 303.24 137.102 302.289 136.436 301.136C135.768 299.977 135.119 299.195 134.491 298.79C133.863 298.383 133.253 298.35 132.663 298.691ZM132.142 297.789C133.086 297.243 134.023 297.201 134.952 297.66C135.88 298.118 136.755 299.058 137.575 300.478C138.393 301.895 138.769 303.121 138.702 304.155C138.635 305.189 138.129 305.978 137.185 306.523C136.242 307.067 135.306 307.11 134.377 306.652C133.448 306.193 132.574 305.255 131.756 303.838C130.936 302.417 130.56 301.19 130.627 300.157C130.694 299.123 131.199 298.333 132.142 297.789Z" fill="#F0F0F0"/>
<path d="M142.128 298.119C141.587 298.431 141.245 298.822 141.102 299.291C140.96 299.76 141.035 300.247 141.327 300.753C141.621 301.261 142.005 301.57 142.482 301.682C142.959 301.793 143.469 301.692 144.01 301.379C144.552 301.067 144.894 300.675 145.037 300.204C145.181 299.731 145.108 299.243 144.817 298.739C144.524 298.232 144.139 297.924 143.662 297.813C143.185 297.702 142.674 297.804 142.128 298.119ZM140.71 298.293C140.153 298.454 139.641 298.447 139.174 298.27C138.709 298.091 138.337 297.762 138.059 297.28C137.671 296.608 137.604 295.938 137.857 295.271C138.111 294.603 138.655 294.028 139.488 293.547C140.327 293.063 141.098 292.879 141.801 292.994C142.504 293.109 143.05 293.503 143.438 294.175C143.716 294.656 143.815 295.144 143.736 295.637C143.657 296.128 143.41 296.574 142.994 296.974C143.617 296.785 144.188 296.788 144.709 296.985C145.23 297.18 145.646 297.545 145.955 298.082C146.427 298.898 146.54 299.669 146.294 300.393C146.047 301.116 145.46 301.745 144.531 302.281C143.604 302.817 142.765 303.011 142.014 302.864C141.264 302.714 140.653 302.232 140.182 301.415C139.872 300.878 139.764 300.335 139.857 299.786C139.951 299.235 140.235 298.737 140.71 298.293ZM139.255 296.735C139.506 297.17 139.838 297.431 140.251 297.519C140.665 297.605 141.118 297.506 141.61 297.222C142.1 296.94 142.412 296.597 142.546 296.194C142.682 295.79 142.624 295.37 142.373 294.935C142.121 294.498 141.786 294.237 141.368 294.153C140.952 294.068 140.499 294.167 140.009 294.449C139.517 294.733 139.205 295.076 139.073 295.478C138.942 295.879 139.003 296.298 139.255 296.735Z" fill="#F0F0F0"/>
<path d="M298.165 281.886V286.553V281.886Z" fill="#F0F0F0"/>
<path d="M298.165 281.886V286.553" stroke="#F0F0F0" stroke-width="1.06667"/>
<path d="M286.973 314.723L290.948 312.428L291.501 313.386L286.157 316.472L285.604 315.514C285.777 314.817 286.02 313.877 286.331 312.693C286.642 311.508 286.83 310.751 286.895 310.421C287.023 309.802 287.078 309.309 287.058 308.941C287.04 308.573 286.952 308.252 286.793 307.978C286.535 307.531 286.168 307.257 285.691 307.157C285.214 307.055 284.723 307.15 284.219 307.441C283.862 307.647 283.521 307.927 283.196 308.28C282.871 308.632 282.557 309.065 282.251 309.578L281.587 308.427C281.939 307.978 282.287 307.592 282.631 307.269C282.976 306.944 283.314 306.686 283.645 306.496C284.517 305.992 285.338 305.809 286.109 305.946C286.878 306.082 287.474 306.515 287.894 307.244C288.094 307.59 288.219 307.956 288.268 308.341C288.318 308.725 288.293 309.226 288.193 309.845C288.163 310.009 288.046 310.496 287.843 311.308C287.64 312.119 287.351 313.257 286.973 314.723Z" fill="#F0F0F0"/>
<path d="M291.9 302.932C291.314 303.27 291.04 303.813 291.078 304.562C291.115 305.308 291.469 306.26 292.138 307.419C292.804 308.572 293.451 309.352 294.079 309.76C294.708 310.166 295.315 310.2 295.901 309.862C296.492 309.521 296.768 308.977 296.729 308.229C296.692 307.481 296.34 306.53 295.674 305.377C295.005 304.219 294.356 303.437 293.728 303.031C293.1 302.624 292.491 302.591 291.9 302.932ZM291.379 302.03C292.323 301.485 293.26 301.442 294.189 301.901C295.118 302.36 295.992 303.299 296.812 304.72C297.63 306.136 298.006 307.362 297.939 308.397C297.872 309.43 297.366 310.219 296.422 310.764C295.479 311.309 294.543 311.352 293.615 310.893C292.685 310.434 291.812 309.496 290.994 308.079C290.174 306.658 289.797 305.432 289.865 304.398C289.931 303.364 290.436 302.574 291.379 302.03Z" fill="#F0F0F0"/>
<path d="M299.247 298.691C298.661 299.029 298.387 299.572 298.424 300.32C298.462 301.066 298.815 302.019 299.484 303.177C300.15 304.331 300.797 305.111 301.425 305.518C302.054 305.925 302.662 305.959 303.248 305.621C303.838 305.28 304.114 304.735 304.076 303.988C304.038 303.24 303.686 302.289 303.02 301.135C302.352 299.977 301.703 299.195 301.074 298.79C300.446 298.383 299.837 298.35 299.247 298.691ZM298.726 297.789C299.67 297.243 300.607 297.201 301.536 297.66C302.464 298.118 303.339 299.058 304.159 300.478C304.977 301.895 305.353 303.121 305.286 304.155C305.218 305.188 304.713 305.978 303.768 306.523C302.825 307.067 301.89 307.11 300.961 306.652C300.032 306.193 299.158 305.254 298.34 303.837C297.52 302.417 297.144 301.19 297.211 300.157C297.278 299.122 297.783 298.333 298.726 297.789Z" fill="#F0F0F0"/>
<path d="M308.518 303.328L307.919 302.291C308.284 302.262 308.633 302.198 308.966 302.1C309.3 302.002 309.609 301.871 309.891 301.708C310.643 301.274 311.071 300.69 311.175 299.956C311.28 299.222 311.064 298.323 310.525 297.26C310.494 297.709 310.361 298.117 310.125 298.484C309.891 298.85 309.571 299.15 309.166 299.384C308.324 299.87 307.511 300.001 306.726 299.775C305.941 299.549 305.293 298.993 304.783 298.109C304.284 297.246 304.14 296.405 304.35 295.588C304.559 294.77 305.088 294.115 305.937 293.625C306.911 293.063 307.87 293.007 308.814 293.458C309.758 293.907 310.64 294.842 311.46 296.263C312.226 297.589 312.523 298.83 312.349 299.986C312.177 301.14 311.559 302.025 310.496 302.638C310.21 302.804 309.904 302.943 309.578 303.056C309.253 303.168 308.899 303.259 308.518 303.328ZM308.723 298.451C309.235 298.156 309.539 297.748 309.636 297.227C309.733 296.704 309.606 296.138 309.254 295.528C308.904 294.923 308.478 294.531 307.976 294.353C307.475 294.174 306.969 294.232 306.458 294.527C305.947 294.822 305.643 295.232 305.548 295.755C305.452 296.278 305.579 296.843 305.928 297.448C306.28 298.058 306.707 298.451 307.207 298.629C307.707 298.806 308.212 298.746 308.723 298.451Z" fill="#F0F0F0"/>
<path d="M464.294 281.886V286.553V281.886Z" fill="#F0F0F0"/>
<path d="M464.294 281.886V286.553" stroke="#F0F0F0" stroke-width="1.06667"/>
<path d="M453.102 314.723L457.077 312.428L457.63 313.387L452.286 316.472L451.733 315.514C451.906 314.817 452.148 313.877 452.459 312.693C452.771 311.508 452.959 310.751 453.024 310.421C453.152 309.802 453.207 309.309 453.187 308.942C453.169 308.574 453.08 308.253 452.922 307.978C452.664 307.531 452.296 307.257 451.82 307.157C451.343 307.055 450.852 307.15 450.348 307.441C449.991 307.647 449.65 307.927 449.324 308.28C449 308.632 448.685 309.065 448.38 309.578L447.716 308.427C448.068 307.978 448.416 307.592 448.76 307.269C449.105 306.944 449.443 306.687 449.774 306.496C450.646 305.992 451.467 305.809 452.237 305.946C453.007 306.083 453.602 306.515 454.023 307.244C454.223 307.59 454.348 307.956 454.397 308.342C454.447 308.725 454.422 309.226 454.322 309.845C454.292 310.009 454.175 310.496 453.971 311.308C453.769 312.119 453.479 313.258 453.102 314.723Z" fill="#F0F0F0"/>
<path d="M458.029 302.932C457.443 303.271 457.169 303.814 457.206 304.562C457.244 305.308 457.598 306.26 458.266 307.419C458.932 308.572 459.579 309.353 460.207 309.76C460.837 310.166 461.444 310.201 462.03 309.862C462.62 309.521 462.896 308.977 462.858 308.23C462.82 307.481 462.469 306.531 461.803 305.377C461.134 304.219 460.485 303.437 459.857 303.032C459.229 302.624 458.619 302.591 458.029 302.932ZM457.508 302.03C458.452 301.485 459.389 301.442 460.318 301.902C461.247 302.36 462.121 303.299 462.941 304.72C463.759 306.137 464.135 307.362 464.068 308.397C464.001 309.43 463.495 310.219 462.551 310.764C461.608 311.309 460.672 311.352 459.743 310.894C458.814 310.434 457.941 309.496 457.122 308.079C456.302 306.659 455.926 305.432 455.993 304.399C456.06 303.364 456.565 302.575 457.508 302.03Z" fill="#F0F0F0"/>
<path d="M467.012 306.692L468.872 305.618L465.164 299.195L463.374 300.77L462.775 299.733L464.554 298.164L465.693 297.507L470 304.967L471.86 303.893L472.413 304.851L467.565 307.65L467.012 306.692Z" fill="#F0F0F0"/>
<path d="M472.722 294.449C472.136 294.787 471.862 295.331 471.899 296.079C471.937 296.825 472.291 297.777 472.959 298.936C473.625 300.089 474.272 300.869 474.9 301.277C475.53 301.683 476.137 301.717 476.723 301.379C477.314 301.038 477.59 300.494 477.551 299.746C477.513 298.998 477.162 298.047 476.496 296.894C475.827 295.736 475.178 294.954 474.55 294.549C473.922 294.141 473.312 294.108 472.722 294.449ZM472.201 293.547C473.145 293.002 474.082 292.959 475.011 293.419C475.94 293.877 476.814 294.816 477.634 296.237C478.452 297.654 478.828 298.879 478.761 299.914C478.694 300.947 478.188 301.736 477.244 302.281C476.301 302.826 475.365 302.869 474.437 302.411C473.507 301.951 472.634 301.013 471.816 299.596C470.995 298.176 470.619 296.949 470.687 295.915C470.753 294.881 471.258 294.091 472.201 293.547Z" fill="#F0F0F0"/>
<path d="M630.422 281.886V286.553V281.886Z" fill="#F0F0F0"/>
<path d="M630.422 281.886V286.553" stroke="#F0F0F0" stroke-width="1.06667"/>
<path d="M619.231 314.723L623.205 312.428L623.759 313.387L618.415 316.472L617.861 315.514C618.035 314.817 618.277 313.877 618.588 312.693C618.9 311.508 619.088 310.751 619.153 310.421C619.281 309.802 619.335 309.309 619.316 308.942C619.298 308.574 619.209 308.253 619.051 307.978C618.793 307.531 618.425 307.257 617.949 307.157C617.472 307.055 616.981 307.15 616.477 307.441C616.12 307.647 615.779 307.927 615.453 308.28C615.129 308.632 614.814 309.065 614.509 309.578L613.844 308.427C614.196 307.978 614.544 307.592 614.888 307.269C615.234 306.944 615.572 306.687 615.902 306.496C616.774 305.992 617.596 305.809 618.366 305.946C619.136 306.083 619.731 306.515 620.152 307.244C620.352 307.59 620.477 307.956 620.526 308.342C620.576 308.725 620.551 309.226 620.451 309.845C620.42 310.009 620.303 310.496 620.1 311.308C619.898 312.119 619.608 313.258 619.231 314.723Z" fill="#F0F0F0"/>
<path d="M624.158 302.932C623.572 303.27 623.298 303.814 623.335 304.562C623.373 305.308 623.726 306.26 624.395 307.419C625.061 308.572 625.708 309.353 626.336 309.76C626.965 310.166 627.573 310.2 628.159 309.862C628.749 309.521 629.025 308.977 628.987 308.23C628.949 307.481 628.597 306.53 627.931 305.377C627.263 304.219 626.614 303.437 625.986 303.032C625.357 302.624 624.748 302.591 624.158 302.932ZM623.637 302.03C624.581 301.485 625.518 301.442 626.447 301.902C627.375 302.36 628.25 303.299 629.07 304.72C629.888 306.137 630.264 307.362 630.197 308.397C630.13 309.43 629.624 310.219 628.679 310.764C627.736 311.309 626.801 311.352 625.872 310.894C624.943 310.434 624.069 309.496 623.251 308.079C622.431 306.659 622.055 305.432 622.122 304.398C622.189 303.364 622.694 302.575 623.637 302.03Z" fill="#F0F0F0"/>
<path d="M633.141 306.692L635.001 305.618L631.293 299.195L629.503 300.77L628.904 299.733L630.683 298.164L631.821 297.507L636.129 304.967L637.989 303.893L638.542 304.851L633.694 307.65L633.141 306.692Z" fill="#F0F0F0"/>
<path d="M640.487 302.451L642.348 301.377L638.639 294.954L636.849 296.528L636.25 295.491L638.029 293.923L639.168 293.265L643.475 300.726L645.335 299.652L645.889 300.61L641.041 303.409L640.487 302.451Z" fill="#F0F0F0"/>
<path d="M796.551 281.886V286.553V281.886Z" fill="#F0F0F0"/>
<path d="M796.551 281.886V286.553" stroke="#F0F0F0" stroke-width="1.06667"/>
<path d="M785.36 314.723L789.334 312.428L789.887 313.386L784.543 316.472L783.99 315.514C784.164 314.817 784.406 313.877 784.717 312.693C785.029 311.508 785.217 310.751 785.282 310.421C785.41 309.802 785.464 309.309 785.445 308.941C785.426 308.573 785.338 308.252 785.18 307.978C784.921 307.531 784.554 307.257 784.078 307.157C783.6 307.055 783.11 307.15 782.606 307.441C782.249 307.647 781.907 307.927 781.582 308.28C781.258 308.632 780.943 309.065 780.638 309.578L779.973 308.427C780.325 307.978 780.673 307.592 781.017 307.269C781.362 306.944 781.7 306.686 782.031 306.496C782.903 305.992 783.724 305.809 784.495 305.946C785.265 306.082 785.86 306.515 786.281 307.244C786.481 307.59 786.606 307.956 786.655 308.341C786.705 308.725 786.68 309.226 786.58 309.845C786.549 310.009 786.432 310.496 786.229 311.308C786.027 312.119 785.737 313.257 785.36 314.723Z" fill="#F0F0F0"/>
<path d="M790.286 302.932C789.701 303.27 789.426 303.814 789.464 304.562C789.502 305.308 789.855 306.26 790.524 307.419C791.19 308.572 791.837 309.353 792.465 309.76C793.094 310.166 793.702 310.2 794.287 309.862C794.878 309.521 795.154 308.977 795.115 308.23C795.078 307.481 794.726 306.53 794.06 305.377C793.392 304.219 792.743 303.437 792.114 303.032C791.486 302.624 790.877 302.591 790.286 302.932ZM789.766 302.03C790.71 301.485 791.647 301.442 792.576 301.902C793.504 302.36 794.379 303.299 795.199 304.72C796.017 306.137 796.392 307.362 796.326 308.397C796.258 309.43 795.753 310.219 794.808 310.764C793.865 311.309 792.93 311.352 792.001 310.894C791.072 310.434 790.198 309.496 789.38 308.079C788.56 306.659 788.184 305.432 788.251 304.398C788.318 303.364 788.823 302.575 789.766 302.03Z" fill="#F0F0F0"/>
<path d="M799.27 306.692L801.13 305.618L797.422 299.195L795.632 300.77L795.033 299.732L796.812 298.164L797.95 297.507L802.257 304.967L804.118 303.893L804.671 304.851L799.823 307.65L799.27 306.692Z" fill="#F0F0F0"/>
<path d="M807.399 301.999L811.374 299.704L811.927 300.662L806.583 303.747L806.03 302.789C806.203 302.092 806.446 301.152 806.757 299.969C807.068 298.783 807.256 298.026 807.321 297.697C807.45 297.077 807.504 296.584 807.484 296.217C807.466 295.849 807.378 295.528 807.219 295.254C806.961 294.806 806.594 294.532 806.117 294.432C805.64 294.331 805.15 294.425 804.646 294.716C804.288 294.923 803.947 295.202 803.622 295.555C803.297 295.908 802.983 296.34 802.677 296.853L802.013 295.702C802.365 295.254 802.713 294.868 803.057 294.544C803.402 294.22 803.74 293.962 804.071 293.771C804.943 293.267 805.764 293.084 806.535 293.222C807.304 293.358 807.9 293.79 808.321 294.519C808.521 294.866 808.645 295.231 808.694 295.617C808.744 296 808.719 296.501 808.619 297.12C808.589 297.284 808.472 297.772 808.269 298.583C808.067 299.395 807.777 300.533 807.399 301.999Z" fill="#F0F0F0"/>
<path d="M963.135 281.886V286.553V281.886Z" fill="#F0F0F0"/>
<path d="M963.135 281.886V286.553" stroke="#F0F0F0" stroke-width="1.06667"/>
<path d="M951.944 314.723L955.918 312.428L956.471 313.387L951.127 316.472L950.574 315.514C950.748 314.817 950.99 313.877 951.301 312.693C951.613 311.508 951.801 310.751 951.866 310.421C951.994 309.802 952.048 309.309 952.029 308.942C952.01 308.574 951.922 308.253 951.764 307.978C951.505 307.531 951.138 307.257 950.662 307.157C950.184 307.055 949.694 307.15 949.19 307.441C948.833 307.647 948.491 307.927 948.166 308.28C947.842 308.632 947.527 309.065 947.222 309.578L946.557 308.427C946.909 307.978 947.257 307.592 947.601 307.269C947.946 306.944 948.284 306.687 948.615 306.496C949.487 305.992 950.308 305.809 951.079 305.946C951.849 306.083 952.444 306.515 952.865 307.244C953.065 307.59 953.19 307.956 953.239 308.342C953.289 308.725 953.264 309.226 953.164 309.845C953.133 310.009 953.016 310.496 952.813 311.308C952.611 312.119 952.321 313.258 951.944 314.723Z" fill="#F0F0F0"/>
<path d="M956.87 302.932C956.285 303.27 956.01 303.814 956.048 304.562C956.086 305.308 956.439 306.26 957.108 307.419C957.774 308.572 958.421 309.353 959.049 309.76C959.678 310.166 960.286 310.2 960.871 309.862C961.462 309.521 961.738 308.977 961.699 308.23C961.662 307.481 961.31 306.53 960.644 305.377C959.975 304.219 959.327 303.437 958.698 303.032C958.07 302.624 957.461 302.591 956.87 302.932ZM956.35 302.03C957.294 301.485 958.231 301.442 959.16 301.902C960.088 302.36 960.963 303.299 961.783 304.72C962.601 306.137 962.976 307.362 962.91 308.397C962.842 309.43 962.336 310.219 961.392 310.764C960.449 311.309 959.514 311.352 958.585 310.894C957.656 310.434 956.782 309.496 955.964 308.079C955.144 306.659 954.768 305.432 954.835 304.398C954.902 303.364 955.407 302.575 956.35 302.03Z" fill="#F0F0F0"/>
<path d="M965.854 306.692L967.714 305.618L964.006 299.195L962.216 300.77L961.617 299.733L963.396 298.164L964.534 297.507L968.842 304.967L970.702 303.893L971.255 304.851L966.407 307.65L965.854 306.692Z" fill="#F0F0F0"/>
<path d="M974.386 296.991C974.998 296.793 975.563 296.791 976.082 296.984C976.601 297.175 977.017 297.541 977.33 298.082C977.809 298.912 977.894 299.72 977.586 300.506C977.277 301.29 976.597 301.986 975.544 302.594C975.192 302.797 974.808 302.972 974.394 303.118C973.98 303.265 973.533 303.383 973.054 303.473L972.42 302.374C972.841 302.376 973.267 302.316 973.696 302.193C974.127 302.07 974.547 301.89 974.958 301.653C975.671 301.241 976.133 300.786 976.345 300.289C976.556 299.791 976.507 299.274 976.197 298.736C975.91 298.239 975.512 297.952 975.003 297.874C974.494 297.794 973.929 297.933 973.31 298.291L972.328 298.857L971.788 297.921L972.814 297.328C973.374 297.005 973.737 296.646 973.905 296.251C974.073 295.856 974.036 295.448 973.793 295.027C973.543 294.595 973.199 294.352 972.759 294.298C972.319 294.242 971.814 294.379 971.242 294.709C970.93 294.89 970.614 295.118 970.297 295.392C969.978 295.666 969.646 295.997 969.3 296.386L968.714 295.373C969.078 295.002 969.431 294.678 969.774 294.4C970.117 294.122 970.456 293.886 970.79 293.693C971.655 293.194 972.452 292.995 973.182 293.099C973.913 293.2 974.471 293.585 974.857 294.253C975.126 294.72 975.22 295.191 975.139 295.666C975.057 296.142 974.806 296.583 974.386 296.991Z" fill="#F0F0F0"/>
<path d="M1129.26 281.886V286.553V281.886Z" fill="#F0F0F0"/>
<path d="M1129.26 281.886V286.553" stroke="#F0F0F0" stroke-width="1.06667"/>
<path d="M1118.07 314.723L1122.05 312.428L1122.6 313.387L1117.26 316.472L1116.7 315.514C1116.88 314.817 1117.12 313.877 1117.43 312.693C1117.74 311.508 1117.93 310.751 1117.99 310.421C1118.12 309.802 1118.18 309.309 1118.16 308.942C1118.14 308.574 1118.05 308.253 1117.89 307.978C1117.63 307.531 1117.27 307.257 1116.79 307.157C1116.31 307.055 1115.82 307.15 1115.32 307.441C1114.96 307.647 1114.62 307.927 1114.29 308.28C1113.97 308.632 1113.66 309.065 1113.35 309.578L1112.69 308.427C1113.04 307.978 1113.39 307.592 1113.73 307.269C1114.08 306.944 1114.41 306.687 1114.74 306.496C1115.62 305.992 1116.44 305.809 1117.21 305.946C1117.98 306.083 1118.57 306.515 1118.99 307.244C1119.19 307.59 1119.32 307.956 1119.37 308.342C1119.42 308.725 1119.39 309.226 1119.29 309.845C1119.26 310.009 1119.15 310.496 1118.94 311.308C1118.74 312.119 1118.45 313.258 1118.07 314.723Z" fill="#F0F0F0"/>
<path d="M1123 302.932C1122.41 303.27 1122.14 303.814 1122.18 304.562C1122.21 305.308 1122.57 306.26 1123.24 307.419C1123.9 308.572 1124.55 309.353 1125.18 309.76C1125.81 310.166 1126.41 310.2 1127 309.862C1127.59 309.521 1127.87 308.977 1127.83 308.23C1127.79 307.481 1127.44 306.53 1126.77 305.377C1126.1 304.219 1125.46 303.437 1124.83 303.032C1124.2 302.624 1123.59 302.591 1123 302.932ZM1122.48 302.03C1123.42 301.485 1124.36 301.442 1125.29 301.902C1126.22 302.36 1127.09 303.299 1127.91 304.72C1128.73 306.137 1129.11 307.362 1129.04 308.397C1128.97 309.43 1128.47 310.219 1127.52 310.764C1126.58 311.309 1125.64 311.352 1124.71 310.894C1123.78 310.434 1122.91 309.496 1122.09 308.079C1121.27 306.659 1120.9 305.432 1120.96 304.398C1121.03 303.364 1121.54 302.575 1122.48 302.03Z" fill="#F0F0F0"/>
<path d="M1131.98 306.692L1133.84 305.618L1130.13 299.195L1128.34 300.77L1127.75 299.733L1129.52 298.164L1130.66 297.507L1134.97 304.967L1136.83 303.893L1137.38 304.851L1132.54 307.65L1131.98 306.692Z" fill="#F0F0F0"/>
<path d="M1138.53 294.29L1138.25 300.445L1141.12 298.784L1138.53 294.29ZM1137.65 293.47L1139.09 292.643L1142.25 298.13L1143.46 297.436L1144 298.383L1142.8 299.077L1143.95 301.062L1142.81 301.716L1141.67 299.731L1137.87 301.925L1137.23 300.826L1137.65 293.47Z" fill="#F0F0F0"/>
<path d="M1295.39 281.886V286.553V281.886Z" fill="#F0F0F0"/>
<path d="M1295.39 281.886V286.553" stroke="#F0F0F0" stroke-width="1.06667"/>
<path d="M1284.2 314.723L1288.18 312.428L1288.73 313.386L1283.38 316.472L1282.83 315.514C1283.01 314.817 1283.25 313.877 1283.56 312.693C1283.87 311.508 1284.06 310.751 1284.12 310.421C1284.25 309.802 1284.31 309.309 1284.29 308.941C1284.27 308.573 1284.18 308.252 1284.02 307.978C1283.76 307.531 1283.4 307.257 1282.92 307.157C1282.44 307.055 1281.95 307.15 1281.45 307.441C1281.09 307.647 1280.75 307.927 1280.42 308.28C1280.1 308.632 1279.78 309.065 1279.48 309.578L1278.81 308.427C1279.17 307.978 1279.51 307.592 1279.86 307.269C1280.2 306.944 1280.54 306.686 1280.87 306.496C1281.74 305.992 1282.57 305.809 1283.34 305.946C1284.11 306.082 1284.7 306.515 1285.12 307.244C1285.32 307.59 1285.45 307.956 1285.5 308.341C1285.55 308.725 1285.52 309.226 1285.42 309.845C1285.39 310.009 1285.27 310.496 1285.07 311.308C1284.87 312.119 1284.58 313.257 1284.2 314.723Z" fill="#F0F0F0"/>
<path d="M1289.13 302.932C1288.54 303.27 1288.27 303.813 1288.31 304.562C1288.34 305.308 1288.7 306.26 1289.37 307.419C1290.03 308.572 1290.68 309.352 1291.31 309.76C1291.94 310.166 1292.54 310.2 1293.13 309.862C1293.72 309.521 1294 308.977 1293.96 308.229C1293.92 307.481 1293.57 306.53 1292.9 305.377C1292.23 304.219 1291.58 303.437 1290.96 303.031C1290.33 302.624 1289.72 302.591 1289.13 302.932ZM1288.61 302.03C1289.55 301.485 1290.49 301.442 1291.42 301.901C1292.35 302.36 1293.22 303.299 1294.04 304.72C1294.86 306.136 1295.23 307.362 1295.17 308.397C1295.1 309.43 1294.59 310.219 1293.65 310.764C1292.71 311.309 1291.77 311.352 1290.84 310.893C1289.91 310.434 1289.04 309.496 1288.22 308.079C1287.4 306.658 1287.03 305.432 1287.09 304.398C1287.16 303.364 1287.66 302.574 1288.61 302.03Z" fill="#F0F0F0"/>
<path d="M1298.11 306.692L1299.97 305.618L1296.26 299.195L1294.47 300.77L1293.87 299.732L1295.65 298.164L1296.79 297.507L1301.1 304.967L1302.96 303.893L1303.51 304.851L1298.66 307.65L1298.11 306.692Z" fill="#F0F0F0"/>
<path d="M1300.96 295.097L1305.44 292.516L1305.99 293.476L1302.56 295.455L1303.75 297.517C1303.88 297.366 1304.03 297.229 1304.17 297.106C1304.32 296.982 1304.48 296.873 1304.65 296.777C1305.59 296.234 1306.48 296.062 1307.33 296.26C1308.17 296.458 1308.85 296.996 1309.36 297.875C1309.88 298.781 1310 299.648 1309.73 300.477C1309.46 301.304 1308.81 302.014 1307.78 302.606C1307.43 302.81 1307.05 302.988 1306.65 303.14C1306.25 303.291 1305.82 303.419 1305.36 303.525L1304.69 302.379C1305.14 302.368 1305.57 302.303 1305.98 302.185C1306.39 302.067 1306.8 301.892 1307.2 301.66C1307.85 301.284 1308.27 300.816 1308.45 300.256C1308.63 299.695 1308.56 299.121 1308.22 298.534C1307.88 297.948 1307.42 297.594 1306.84 297.472C1306.27 297.348 1305.65 297.474 1305 297.849C1304.7 298.025 1304.41 298.234 1304.15 298.476C1303.89 298.718 1303.64 299.002 1303.41 299.327L1300.96 295.097Z" fill="#F0F0F0"/>
<path d="M1461.52 281.886V286.553V281.886Z" fill="#F0F0F0"/>
<path d="M1461.52 281.886V286.553" stroke="#F0F0F0" stroke-width="1.06667"/>
<path d="M1450.33 314.723L1454.3 312.428L1454.86 313.387L1449.51 316.472L1448.96 315.514C1449.13 314.817 1449.38 313.877 1449.69 312.693C1450 311.508 1450.19 310.751 1450.25 310.421C1450.38 309.802 1450.43 309.309 1450.42 308.942C1450.4 308.574 1450.31 308.253 1450.15 307.978C1449.89 307.531 1449.52 307.257 1449.05 307.157C1448.57 307.055 1448.08 307.15 1447.58 307.441C1447.22 307.647 1446.88 307.927 1446.55 308.28C1446.23 308.632 1445.91 309.065 1445.61 309.578L1444.94 308.427C1445.3 307.978 1445.64 307.592 1445.99 307.269C1446.33 306.944 1446.67 306.687 1447 306.496C1447.87 305.992 1448.69 305.809 1449.47 305.946C1450.24 306.083 1450.83 306.515 1451.25 307.244C1451.45 307.59 1451.58 307.956 1451.63 308.342C1451.67 308.725 1451.65 309.226 1451.55 309.845C1451.52 310.009 1451.4 310.496 1451.2 311.308C1451 312.119 1450.71 313.258 1450.33 314.723Z" fill="#F0F0F0"/>
<path d="M1455.26 302.932C1454.67 303.27 1454.4 303.814 1454.43 304.562C1454.47 305.308 1454.83 306.26 1455.49 307.419C1456.16 308.572 1456.81 309.353 1457.44 309.76C1458.06 310.166 1458.67 310.2 1459.26 309.862C1459.85 309.521 1460.12 308.977 1460.09 308.23C1460.05 307.481 1459.7 306.53 1459.03 305.377C1458.36 304.219 1457.71 303.437 1457.08 303.032C1456.46 302.624 1455.85 302.591 1455.26 302.932ZM1454.74 302.03C1455.68 301.485 1456.62 301.442 1457.55 301.902C1458.47 302.36 1459.35 303.299 1460.17 304.72C1460.99 306.137 1461.36 307.362 1461.3 308.397C1461.23 309.43 1460.72 310.219 1459.78 310.764C1458.84 311.309 1457.9 311.352 1456.97 310.894C1456.04 310.434 1455.17 309.496 1454.35 308.079C1453.53 306.659 1453.15 305.432 1453.22 304.398C1453.29 303.364 1453.79 302.575 1454.74 302.03Z" fill="#F0F0F0"/>
<path d="M1464.24 306.692L1466.1 305.618L1462.39 299.195L1460.6 300.77L1460 299.733L1461.78 298.164L1462.92 297.507L1467.23 304.967L1469.09 303.893L1469.64 304.851L1464.79 307.65L1464.24 306.692Z" fill="#F0F0F0"/>
<path d="M1471.83 297.373C1471.32 297.668 1471.01 298.077 1470.91 298.6C1470.82 299.121 1470.95 299.686 1471.3 300.294C1471.65 300.899 1472.07 301.292 1472.57 301.472C1473.08 301.65 1473.58 301.592 1474.09 301.297C1474.6 301.002 1474.91 300.592 1475 300.069C1475.1 299.544 1474.97 298.98 1474.62 298.375C1474.27 297.766 1473.84 297.373 1473.35 297.197C1472.84 297.019 1472.34 297.078 1471.83 297.373ZM1472.03 292.497L1472.63 293.534C1472.26 293.565 1471.91 293.629 1471.58 293.726C1471.25 293.822 1470.94 293.952 1470.65 294.118C1469.9 294.552 1469.47 295.137 1469.37 295.874C1469.27 296.61 1469.48 297.507 1470.02 298.566C1470.05 298.111 1470.19 297.7 1470.42 297.332C1470.65 296.964 1470.97 296.664 1471.37 296.432C1472.22 295.944 1473.04 295.815 1473.82 296.045C1474.61 296.274 1475.26 296.83 1475.77 297.713C1476.27 298.578 1476.41 299.42 1476.2 300.238C1475.99 301.055 1475.46 301.709 1474.61 302.199C1473.64 302.762 1472.68 302.819 1471.73 302.37C1470.79 301.92 1469.91 300.987 1469.09 299.57C1468.32 298.24 1468.02 296.997 1468.2 295.841C1468.37 294.684 1468.99 293.8 1470.06 293.186C1470.34 293.02 1470.65 292.882 1470.97 292.77C1471.29 292.659 1471.65 292.568 1472.03 292.497Z" fill="#F0F0F0"/>
<path d="M764.491 325.106H772.714V326.214H769.264V334.826H767.943V326.214H764.491V325.106Z" fill="#F0F0F0"/>
<path d="M773.515 327.535H774.713V334.826H773.515V327.535ZM773.515 324.695H774.713V326.214H773.515V324.695Z" fill="#F0F0F0"/>
<path d="M782.897 328.935C783.197 328.396 783.555 327.999 783.972 327.743C784.388 327.488 784.879 327.36 785.442 327.36C786.202 327.36 786.788 327.626 787.201 328.158C787.613 328.688 787.82 329.444 787.82 330.424V334.826H786.615V330.464C786.615 329.765 786.491 329.247 786.242 328.91C785.995 328.571 785.618 328.401 785.111 328.401C784.49 328.401 783.999 328.608 783.638 329.02C783.279 329.431 783.099 329.993 783.099 330.706V334.826H781.895V330.464C781.895 329.761 781.771 329.242 781.524 328.906C781.276 328.569 780.895 328.401 780.378 328.401C779.765 328.401 779.279 328.608 778.917 329.022C778.558 329.436 778.378 329.997 778.378 330.706V334.826H777.174V327.535H778.378V328.668C778.651 328.221 778.979 327.891 779.361 327.678C779.743 327.466 780.197 327.36 780.722 327.36C781.252 327.36 781.703 327.494 782.074 327.764C782.445 328.032 782.719 328.422 782.897 328.935Z" fill="#F0F0F0"/>
<path d="M796.445 330.88V331.466H790.937C790.99 332.291 791.238 332.919 791.683 333.351C792.127 333.783 792.747 333.999 793.541 333.999C794.001 333.999 794.447 333.943 794.879 333.83C795.311 333.718 795.74 333.549 796.166 333.322V334.455C795.736 334.637 795.295 334.776 794.843 334.872C794.392 334.968 793.934 335.016 793.47 335.016C792.306 335.016 791.385 334.678 790.706 334.001C790.027 333.324 789.687 332.407 789.687 331.251C789.687 330.058 790.009 329.112 790.654 328.412C791.298 327.71 792.168 327.36 793.262 327.36C794.243 327.36 795.018 327.676 795.589 328.308C796.16 328.938 796.445 329.796 796.445 330.88ZM795.247 330.528C795.239 329.874 795.056 329.352 794.697 328.962C794.339 328.57 793.865 328.374 793.274 328.374C792.606 328.374 792.072 328.563 791.67 328.941C791.269 329.319 791.038 329.851 790.977 330.537L795.247 330.528Z" fill="#F0F0F0"/>
<path d="M802.539 324.695H805.299V325.626H803.737V335.653H805.299V336.585H802.539V324.695Z" fill="#F0F0F0"/>
<path d="M812.649 328.641V324.695H813.847V334.826H812.649V333.733C812.398 334.166 812.08 334.488 811.695 334.699C811.311 334.91 810.85 335.016 810.311 335.016C809.431 335.016 808.714 334.664 808.159 333.962C807.607 333.258 807.33 332.333 807.33 331.187C807.33 330.041 807.607 329.117 808.159 328.414C808.714 327.711 809.431 327.36 810.311 327.36C810.85 327.36 811.311 327.465 811.695 327.676C812.08 327.886 812.398 328.208 812.649 328.641ZM808.568 331.187C808.568 332.067 808.749 332.758 809.111 333.26C809.474 333.761 809.972 334.012 810.605 334.012C811.239 334.012 811.737 333.761 812.101 333.26C812.466 332.758 812.649 332.067 812.649 331.187C812.649 330.306 812.466 329.615 812.101 329.114C811.737 328.612 811.239 328.362 810.605 328.362C809.972 328.362 809.474 328.612 809.111 329.114C808.749 329.615 808.568 330.306 808.568 331.187Z" fill="#F0F0F0"/>
<path d="M820.962 327.749V328.883C820.625 328.709 820.274 328.579 819.908 328.493C819.544 328.405 819.167 328.362 818.775 328.362C818.18 328.362 817.735 328.453 817.437 328.635C817.14 328.817 816.992 329.09 816.992 329.455C816.992 329.733 817.098 329.951 817.31 330.11C817.523 330.268 817.951 330.419 818.594 330.562L819.004 330.653C819.854 330.835 820.458 331.092 820.817 331.424C821.175 331.756 821.354 332.219 821.354 332.814C821.354 333.492 821.086 334.028 820.55 334.424C820.014 334.819 819.277 335.016 818.34 335.016C817.949 335.016 817.542 334.978 817.119 334.901C816.695 334.825 816.249 334.711 815.781 334.56V333.322C816.224 333.553 816.66 333.726 817.09 333.841C817.519 333.955 817.944 334.012 818.367 334.012C818.93 334.012 819.364 333.915 819.667 333.722C819.971 333.529 820.123 333.257 820.123 332.905C820.123 332.58 820.013 332.331 819.794 332.158C819.576 331.984 819.095 331.817 818.352 331.655L817.935 331.558C817.194 331.402 816.658 331.162 816.327 330.839C815.998 330.515 815.833 330.071 815.833 329.508C815.833 328.821 816.076 328.292 816.562 327.92C817.049 327.546 817.739 327.36 818.633 327.36C819.075 327.36 819.491 327.392 819.881 327.458C820.273 327.521 820.633 327.619 820.962 327.749Z" fill="#F0F0F0"/>
<path d="M826.061 324.695V336.585H823.301V335.653H824.857V325.626H823.301V324.695H826.061Z" fill="#F0F0F0"/>
<path d="M54.1375 278.365H49.4708H54.1375Z" fill="#F0F0F0"/>
<path d="M54.1375 278.365H49.4708" stroke="#F0F0F0" stroke-width="1.06667"/>
<path d="M37.7604 273.71H42.9229V274.818H38.9646V277.2C39.1548 277.134 39.3451 277.086 39.5354 277.054C39.7271 277.022 39.9187 277.006 40.1104 277.006C41.1951 277.006 42.0541 277.303 42.6875 277.897C43.3222 278.492 43.6396 279.297 43.6396 280.312C43.6396 281.358 43.3139 282.171 42.6625 282.752C42.0111 283.331 41.093 283.62 39.9083 283.62C39.5 283.62 39.084 283.586 38.6604 283.516C38.2382 283.447 37.8014 283.343 37.35 283.204V281.881C37.7403 282.093 38.1437 282.252 38.5604 282.356C38.9771 282.46 39.4173 282.512 39.8812 282.512C40.6326 282.512 41.2271 282.315 41.6646 281.92C42.1034 281.526 42.3229 280.99 42.3229 280.312C42.3229 279.636 42.1034 279.1 41.6646 278.706C41.2271 278.31 40.6326 278.112 39.8812 278.112C39.5298 278.112 39.1791 278.151 38.8291 278.229C38.4805 278.306 38.1243 278.428 37.7604 278.593V273.71Z" fill="#F0F0F0"/>
<path d="M54.1375 248.143H49.4708H54.1375Z" fill="#F0F0F0"/>
<path d="M54.1375 248.143H49.4708" stroke="#F0F0F0" stroke-width="1.06667"/>
<path d="M40.7229 247.825C40.1326 247.825 39.6646 248.027 39.3187 248.431C38.9743 248.834 38.8021 249.387 38.8021 250.09C38.8021 250.788 38.9743 251.341 39.3187 251.748C39.6646 252.154 40.1326 252.356 40.7229 252.356C41.3132 252.356 41.7805 252.154 42.125 251.748C42.4694 251.341 42.6416 250.788 42.6416 250.09C42.6416 249.387 42.4694 248.834 42.125 248.431C41.7805 248.027 41.3132 247.825 40.7229 247.825ZM43.3333 243.702V244.9C43.0028 244.745 42.6694 244.626 42.3333 244.544C41.9972 244.461 41.6639 244.419 41.3333 244.419C40.4653 244.419 39.8021 244.712 39.3437 245.298C38.8868 245.884 38.6257 246.77 38.5604 247.954C38.8159 247.577 39.1368 247.287 39.5229 247.086C39.9104 246.884 40.3361 246.783 40.8 246.783C41.7764 246.783 42.5479 247.08 43.1146 247.673C43.6812 248.265 43.9646 249.07 43.9646 250.09C43.9646 251.088 43.6694 251.89 43.0791 252.494C42.4889 253.097 41.7034 253.398 40.7229 253.398C39.5979 253.398 38.7382 252.968 38.1437 252.106C37.5493 251.244 37.2521 249.995 37.2521 248.358C37.2521 246.822 37.6166 245.597 38.3458 244.683C39.075 243.77 40.0534 243.313 41.2812 243.313C41.6118 243.313 41.9451 243.345 42.2812 243.411C42.6173 243.476 42.968 243.573 43.3333 243.702Z" fill="#F0F0F0"/>
<path d="M54.1375 217.921H49.4708H54.1375Z" fill="#F0F0F0"/>
<path d="M54.1375 217.921H49.4708" stroke="#F0F0F0" stroke-width="1.06667"/>
<path d="M37.4146 213.265H43.6646V213.826L40.1354 222.986H38.7625L42.0833 214.374H37.4146V213.265Z" fill="#F0F0F0"/>
<path d="M54.1375 187.698H49.4708H54.1375Z" fill="#F0F0F0"/>
<path d="M54.1375 187.698H49.4708" stroke="#F0F0F0" stroke-width="1.06667"/>
<path d="M40.5583 188.147C39.9333 188.147 39.4416 188.314 39.0833 188.649C38.7264 188.984 38.5479 189.444 38.5479 190.028C38.5479 190.614 38.7264 191.075 39.0833 191.41C39.4416 191.744 39.9333 191.912 40.5583 191.912C41.1833 191.912 41.6757 191.744 42.0354 191.408C42.3965 191.07 42.5771 190.61 42.5771 190.028C42.5771 189.444 42.3979 188.984 42.0396 188.649C41.6826 188.314 41.1889 188.147 40.5583 188.147ZM39.2437 187.589C38.6798 187.45 38.2403 187.187 37.925 186.801C37.6111 186.414 37.4541 185.942 37.4541 185.387C37.4541 184.61 37.7305 183.996 38.2833 183.545C38.8375 183.094 39.5958 182.868 40.5583 182.868C41.5264 182.868 42.2861 183.094 42.8375 183.545C43.3889 183.996 43.6646 184.61 43.6646 185.387C43.6646 185.942 43.5069 186.414 43.1916 186.801C42.8778 187.187 42.4409 187.45 41.8812 187.589C42.5146 187.736 43.0076 188.025 43.3604 188.455C43.7146 188.885 43.8916 189.409 43.8916 190.028C43.8916 190.971 43.6041 191.695 43.0291 192.199C42.4541 192.702 41.6305 192.953 40.5583 192.953C39.4875 192.953 38.6639 192.702 38.0875 192.199C37.5125 191.695 37.225 190.971 37.225 190.028C37.225 189.409 37.4028 188.885 37.7583 188.455C38.1153 188.025 38.6104 187.736 39.2437 187.589ZM38.7625 185.512C38.7625 186.014 38.9194 186.407 39.2333 186.689C39.5486 186.971 39.9903 187.112 40.5583 187.112C41.1236 187.112 41.5653 186.971 41.8833 186.689C42.2028 186.407 42.3625 186.014 42.3625 185.512C42.3625 185.008 42.2028 184.614 41.8833 184.333C41.5653 184.051 41.1236 183.91 40.5583 183.91C39.9903 183.91 39.5486 184.051 39.2333 184.333C38.9194 184.614 38.7625 185.008 38.7625 185.512Z" fill="#F0F0F0"/>
<path d="M54.1375 157.476H49.4708H54.1375Z" fill="#F0F0F0"/>
<path d="M54.1375 157.476H49.4708" stroke="#F0F0F0" stroke-width="1.06667"/>
<path d="M37.7854 162.339V161.141C38.116 161.298 38.45 161.418 38.7875 161.5C39.1264 161.582 39.459 161.623 39.7854 161.623C40.6535 161.623 41.316 161.331 41.7729 160.748C42.2312 160.164 42.493 159.277 42.5583 158.087C42.3069 158.461 41.9875 158.748 41.6 158.948C41.2139 159.148 40.7868 159.248 40.3187 159.248C39.3465 159.248 38.5771 158.954 38.0104 158.366C37.4437 157.777 37.1604 156.973 37.1604 155.952C37.1604 154.955 37.4555 154.155 38.0458 153.552C38.6361 152.948 39.4215 152.646 40.4021 152.646C41.5271 152.646 42.3854 153.077 42.9771 153.939C43.5701 154.8 43.8667 156.051 43.8667 157.691C43.8667 159.223 43.5028 160.446 42.775 161.36C42.0486 162.274 41.0715 162.731 39.8437 162.731C39.5132 162.731 39.1785 162.698 38.8396 162.633C38.5021 162.568 38.1507 162.47 37.7854 162.339ZM40.4021 158.218C40.9923 158.218 41.4597 158.017 41.8042 157.614C42.15 157.21 42.3229 156.656 42.3229 155.952C42.3229 155.253 42.15 154.701 41.8042 154.296C41.4597 153.89 40.9923 153.687 40.4021 153.687C39.8118 153.687 39.3444 153.89 39 154.296C38.6555 154.701 38.4833 155.253 38.4833 155.952C38.4833 156.656 38.6555 157.21 39 157.614C39.3444 158.017 39.8118 158.218 40.4021 158.218Z" fill="#F0F0F0"/>
<path d="M54.1375 127.253H49.4708H54.1375Z" fill="#F0F0F0"/>
<path d="M54.1375 127.253H49.4708" stroke="#F0F0F0" stroke-width="1.06667"/>
<path d="M29.4916 131.213H31.6396V123.796L29.3021 124.265V123.067L31.6271 122.598H32.9416V131.213H35.0896V132.319H29.4916V131.213Z" fill="#F0F0F0"/>
<path d="M40.5581 123.465C39.8817 123.465 39.3726 123.798 39.031 124.465C38.6907 125.13 38.5206 126.131 38.5206 127.469C38.5206 128.801 38.6907 129.8 39.031 130.467C39.3726 131.134 39.8817 131.467 40.5581 131.467C41.24 131.467 41.7511 131.134 42.0914 130.467C42.4331 129.8 42.6039 128.801 42.6039 127.469C42.6039 126.131 42.4331 125.13 42.0914 124.465C41.7511 123.798 41.24 123.465 40.5581 123.465ZM40.5581 122.423C41.6483 122.423 42.481 122.854 43.056 123.717C43.631 124.578 43.9185 125.829 43.9185 127.469C43.9185 129.105 43.631 130.354 43.056 131.217C42.481 132.078 41.6483 132.509 40.5581 132.509C39.4692 132.509 38.6372 132.078 38.0622 131.217C37.4872 130.354 37.1997 129.105 37.1997 127.469C37.1997 125.829 37.4872 124.578 38.0622 123.717C38.6372 122.854 39.4692 122.423 40.5581 122.423Z" fill="#F0F0F0"/>
<path d="M54.1375 97.031H49.4708H54.1375Z" fill="#F0F0F0"/>
<path d="M54.1375 97.031H49.4708" stroke="#F0F0F0" stroke-width="1.06667"/>
<path d="M29.4916 100.99H31.6396V93.5736L29.3021 94.0424V92.8445L31.6271 92.3757H32.9416V100.99H35.0896V102.097H29.4916V100.99Z" fill="#F0F0F0"/>
<path d="M37.9747 100.99H40.1226V93.5736L37.7851 94.0424V92.8445L40.1101 92.3757H41.4247V100.99H43.5726V102.097H37.9747V100.99Z" fill="#F0F0F0"/>
<path d="M54.1375 66.8086H49.4708H54.1375Z" fill="#F0F0F0"/>
<path d="M54.1375 66.8086H49.4708" stroke="#F0F0F0" stroke-width="1.06667"/>
<path d="M29.4916 70.768H31.6396V63.3514L29.3021 63.8201V62.6222L31.6271 62.1534H32.9416V70.768H35.0896V71.8743H29.4916V70.768Z" fill="#F0F0F0"/>
<path d="M38.8789 70.768H43.4685V71.8743H37.2976V70.768C37.7962 70.2514 38.4761 69.5583 39.3372 68.6889C40.1997 67.818 40.7414 67.2562 40.9622 67.0034C41.3831 66.5312 41.6768 66.1312 41.8435 65.8034C42.0115 65.4757 42.0956 65.1534 42.0956 64.8368C42.0956 64.3201 41.9143 63.8993 41.5518 63.5743C41.1893 63.2479 40.7171 63.0847 40.1351 63.0847C39.7226 63.0847 39.2872 63.1562 38.8289 63.2993C38.3719 63.4423 37.8831 63.6597 37.3622 63.9514V62.6222C37.8914 62.4097 38.3858 62.2493 38.8456 62.1409C39.3067 62.0326 39.7282 61.9784 40.1101 61.9784C41.1171 61.9784 41.9199 62.2305 42.5185 62.7347C43.1171 63.2375 43.4164 63.9097 43.4164 64.7514C43.4164 65.1514 43.3414 65.5305 43.1914 65.8889C43.0428 66.2458 42.7706 66.6673 42.3747 67.1534C42.2664 67.2798 41.9212 67.6437 41.3393 68.2451C40.7587 68.8465 39.9386 69.6875 38.8789 70.768Z" fill="#F0F0F0"/>
<path d="M54.1375 36.5862H49.4708H54.1375Z" fill="#F0F0F0"/>
<path d="M54.1375 36.5862H49.4708" stroke="#F0F0F0" stroke-width="1.06667"/>
<path d="M29.4916 40.5456H31.6396V33.1289L29.3021 33.5977V32.3998L31.6271 31.931H32.9416V40.5456H35.0896V41.6519H29.4916V40.5456Z" fill="#F0F0F0"/>
<path d="M41.731 36.4102C42.3601 36.5449 42.8511 36.8255 43.2039 37.2518C43.5581 37.6768 43.7351 38.2018 43.7351 38.8268C43.7351 39.7852 43.4053 40.5275 42.7456 41.0539C42.0858 41.5789 41.1483 41.8414 39.9331 41.8414C39.5261 41.8414 39.1067 41.8012 38.6747 41.7206C38.2428 41.64 37.7969 41.5192 37.3372 41.3581V40.0893C37.7011 40.3018 38.0997 40.4623 38.5331 40.5706C38.9678 40.6789 39.4219 40.7331 39.8956 40.7331C40.7192 40.7331 41.3469 40.5706 41.7789 40.2456C42.2108 39.9206 42.4268 39.4477 42.4268 38.8268C42.4268 38.2532 42.2261 37.8053 41.8247 37.4831C41.4233 37.1595 40.865 36.9977 40.1497 36.9977H39.0164V35.9164H40.2018C40.8476 35.9164 41.3421 35.7873 41.6851 35.5289C42.0282 35.2706 42.1997 34.8984 42.1997 34.4123C42.1997 33.9137 42.0226 33.531 41.6685 33.2643C41.3157 32.9963 40.8094 32.8623 40.1497 32.8623C39.7886 32.8623 39.4018 32.9018 38.9893 32.981C38.5768 33.0588 38.1233 33.1796 37.6289 33.3435V32.1727C38.1289 32.0338 38.5969 31.9296 39.0331 31.8602C39.4692 31.7907 39.8803 31.756 40.2664 31.756C41.265 31.756 42.0546 31.9831 42.6351 32.4373C43.2171 32.89 43.5081 33.5025 43.5081 34.2748C43.5081 34.8137 43.3539 35.2685 43.0456 35.6393C42.7372 36.0102 42.299 36.2671 41.731 36.4102Z" fill="#F0F0F0"/>
<path d="M10.0104 187.757V179.535H11.1187V182.985H19.7312V184.305H11.1187V187.757H10.0104Z" fill="#F0F0F0"/>
<path d="M16.0667 177.202C16.0667 178.17 16.1771 178.841 16.3979 179.215C16.6187 179.589 16.9965 179.775 17.5312 179.775C17.9562 179.775 18.2937 179.635 18.5437 179.355C18.7923 179.074 18.9167 178.693 18.9167 178.213C18.9167 177.548 18.6812 177.014 18.2104 176.613C17.7396 176.211 17.1139 176.011 16.3333 176.011H16.0667V177.202ZM15.5708 174.813H19.7312V176.011H18.625C19.0667 176.284 19.393 176.625 19.6042 177.034C19.8153 177.442 19.9208 177.941 19.9208 178.532C19.9208 179.277 19.7111 179.871 19.2917 180.313C18.8722 180.753 18.3111 180.973 17.6083 180.973C16.7889 180.973 16.1708 180.699 15.7542 180.15C15.3375 179.6 15.1292 178.781 15.1292 177.692V176.011H15.0104C14.459 176.011 14.0326 176.192 13.7312 176.555C13.4298 176.917 13.2792 177.426 13.2792 178.082C13.2792 178.498 13.3292 178.905 13.4292 179.3C13.5292 179.695 13.6792 180.074 13.8792 180.438H12.7708C12.6014 180 12.475 179.575 12.3917 179.163C12.3069 178.75 12.2646 178.349 12.2646 177.959C12.2646 176.903 12.5382 176.115 13.0854 175.594C13.6312 175.073 14.4597 174.813 15.5708 174.813Z" fill="#F0F0F0"/>
<path d="M13.5583 168.122C13.4805 168.256 13.4236 168.403 13.3875 168.561C13.35 168.719 13.3312 168.894 13.3312 169.084C13.3312 169.762 13.5514 170.282 13.9916 170.644C14.4319 171.007 15.0646 171.188 15.8896 171.188H19.7312V172.392H12.4396V171.188H13.5729C13.1298 170.935 12.8014 170.608 12.5875 170.205C12.3722 169.801 12.2646 169.31 12.2646 168.732C12.2646 168.65 12.2701 168.559 12.2812 168.459C12.291 168.359 12.3069 168.249 12.3291 168.128L13.5583 168.122Z" fill="#F0F0F0"/>
<path d="M16 162.3C15.1319 162.3 14.4597 162.479 13.9833 162.838C13.5055 163.195 13.2667 163.697 13.2667 164.344C13.2667 164.986 13.5055 165.486 13.9833 165.844C14.4597 166.202 15.1319 166.381 16 166.381C16.8639 166.381 17.5347 166.202 18.0125 165.844C18.4903 165.486 18.7292 164.986 18.7292 164.344C18.7292 163.697 18.4903 163.195 18.0125 162.838C17.5347 162.479 16.8639 162.3 16 162.3ZM18.8271 161.102C20.0673 161.102 20.9903 161.378 21.5958 161.929C22.2014 162.479 22.5042 163.323 22.5042 164.461C22.5042 164.881 22.4729 165.279 22.4104 165.652C22.3479 166.026 22.2514 166.388 22.1208 166.74H20.9562C21.1465 166.388 21.2868 166.041 21.3771 165.698C21.4687 165.355 21.5146 165.006 21.5146 164.65C21.5146 163.864 21.3097 163.276 20.9 162.886C20.4903 162.495 19.8708 162.3 19.0417 162.3H18.4479C18.8785 162.547 19.2 162.864 19.4125 163.25C19.625 163.636 19.7312 164.099 19.7312 164.638C19.7312 165.531 19.391 166.251 18.7104 166.798C18.0285 167.345 17.125 167.619 16 167.619C14.8722 167.619 13.968 167.345 13.2875 166.798C12.6055 166.251 12.2646 165.531 12.2646 164.638C12.2646 164.099 12.3708 163.636 12.5833 163.25C12.7958 162.864 13.1166 162.547 13.5458 162.3H12.4396V161.102H18.8271Z" fill="#F0F0F0"/>
<path d="M15.7854 152.397H16.3708V157.905C17.1958 157.853 17.8243 157.604 18.2562 157.16C18.6882 156.715 18.9042 156.096 18.9042 155.301C18.9042 154.842 18.8479 154.396 18.7354 153.964C18.6229 153.532 18.4535 153.103 18.2271 152.676H19.3604C19.5423 153.107 19.6812 153.548 19.7771 153.999C19.8729 154.451 19.9208 154.908 19.9208 155.372C19.9208 156.536 19.5826 157.457 18.9062 158.137C18.2285 158.816 17.3118 159.155 16.1562 159.155C14.9632 159.155 14.0167 158.833 13.3167 158.189C12.6153 157.544 12.2646 156.675 12.2646 155.58C12.2646 154.6 12.5805 153.824 13.2125 153.253C13.843 152.682 14.7007 152.397 15.7854 152.397ZM15.4333 153.595C14.7792 153.603 14.2569 153.787 13.8667 154.145C13.475 154.503 13.2792 154.978 13.2792 155.568C13.2792 156.236 13.468 156.771 13.8458 157.172C14.2236 157.573 14.7555 157.805 15.4417 157.866L15.4333 153.595Z" fill="#F0F0F0"/>
<path d="M10.3687 149.246H12.4396V146.779H13.3708V149.246H17.3291C17.9236 149.246 18.3055 149.165 18.475 149.002C18.6444 148.84 18.7291 148.509 18.7291 148.009V146.779H19.7312V148.009C19.7312 148.934 19.559 149.572 19.2146 149.923C18.8687 150.274 18.2403 150.45 17.3291 150.45H13.3708V151.329H12.4396V150.45H10.3687V149.246Z" fill="#F0F0F0"/>
<path d="M9.59998 141.076V138.315H10.5312V139.878H20.5583V138.315H21.4896V141.076H9.59998Z" fill="#F0F0F0"/>
<path d="M20.4083 132.73C21.2764 133.068 21.8423 133.397 22.1062 133.72C22.3715 134.04 22.5042 134.47 22.5042 135.007V135.965H21.5021V135.261C21.5021 134.932 21.4236 134.677 21.2667 134.495C21.1111 134.311 20.7423 134.109 20.1604 133.888L19.6146 133.674L12.4396 136.622V135.353L18.1417 133.074L12.4396 130.795V129.526L20.4083 132.73Z" fill="#F0F0F0"/>
<path d="M9.59998 125.073H21.4896V127.833H20.5583V126.277H10.5312V127.833H9.59998V125.073Z" fill="#F0F0F0"/>
<mask id="mask0_29_3228" style="mask-type:luminance" maskUnits="userSpaceOnUse" x="54" y="29" width="1484" height="253">
<path d="M1537.6 29.7574H54.1375V281.886H1537.6V29.7574Z" fill="white"/>
</mask>
<g mask="url(#mask0_29_3228)">
<path d="M121.568 139.622L122.023 171.995L122.478 182.147L122.933 185.508L123.388 190.915L123.843 194.237L124.298 175.184L124.754 162.637L125.664 185.593L126.119 191.346L126.574 194.899L127.029 201.921L127.484 176.055L127.94 168.957L128.395 192.158L128.85 192.111L129.305 186.127L130.215 192.584L130.671 136.225L131.126 145.811L131.581 178.819L132.036 174.561L133.401 189.205L133.857 142.085L134.312 162.106L134.767 174.686L135.222 180.195L135.677 179.184L136.132 178.849L136.587 181.678L137.043 127.358L137.498 123.413L137.953 159.477L138.408 170.587L138.863 171.145L139.773 180.956L140.229 162.342L140.684 100.138L141.139 144.029L142.049 171.274L142.504 172.721L142.959 175.084L143.87 165.44L144.325 168.534L144.78 167.343H145.235L145.69 162.788L146.146 171.439L146.601 136.379L147.056 63.8632L147.511 108.054L147.966 136.57L149.332 169.893L149.787 169.039L150.242 169.072L150.697 181.184L151.152 185.735L151.607 184.27L152.062 193.762L152.518 198.955L152.973 201.12L153.428 196.416L153.883 194.086L154.338 196.511L154.793 194.694L155.248 196.907L155.704 206.485L156.159 190.4L156.614 198.984L157.069 200.587L157.524 200.758H157.979L158.435 201.231H158.89L159.345 207.737H160.255L160.71 183.928L161.165 191.096L161.621 193.149L162.076 206.315L162.531 193.307L162.986 201.533L163.441 201.342L163.896 197.1L164.351 203.503L164.807 207.076L165.262 216.934L165.717 214.354L166.172 207.346L166.627 208.054L167.082 206.922L167.537 209.521L167.993 210.324L168.448 217.855L168.903 212.966L169.358 194.976L169.813 202.247L170.268 205.409L170.723 204.547L171.634 218.187L172.089 211.527L172.544 208.515L172.999 207.366L173.454 202.378L174.365 209.271L174.82 209.667L175.275 212.826L175.73 199.444L176.185 199.25L176.64 205.047L177.096 182.198L177.551 205.85L178.006 214.699L178.461 215.476L178.916 205.191L179.371 203.062L179.826 206.259L180.282 197.28L180.737 197.1L181.192 210.089L181.647 183.317L182.102 166.122L182.557 184.947L183.468 198.314L183.923 187.066L184.378 192.835L184.833 195.933L185.288 192.655L185.743 198.984L186.198 198.444L187.109 204.6L187.564 215.706L188.019 217.122L188.474 206.072L188.929 209.065L189.385 206.999L189.84 202.428L190.295 204.003L190.75 214.452L191.205 214.134L191.66 204.143L192.115 208.334L192.571 205.519L193.026 205.757L193.481 209.024L193.936 218.243L194.391 218.132L194.846 204.886L195.301 206.98L195.757 204.178L196.212 206.788L196.667 213.58L197.122 222.902L197.577 221.227L198.032 218.692L198.487 209.877L198.943 209.751L199.398 209.899L199.853 213.153L200.308 221.974H201.218L201.674 213.271L202.129 211.371L202.584 211.818L203.039 211.504L203.494 212.295L203.949 223.36L204.404 221.473L204.86 212.386L205.315 210.583L205.77 212.09L206.225 212.363L206.68 218.805L207.135 220.408L207.59 211.194L208.046 207.134L208.501 210.583L208.956 211.172L209.411 212.989L209.866 210.626L210.321 218.326L210.776 219.033L211.232 210.346L211.687 213.059L212.142 213.916L212.597 215.148L213.052 217.554L213.507 222.227L213.962 223.13H214.418L214.873 213.989L215.328 209.541L215.783 216.748L216.238 221.227L216.693 219.205L217.149 208.983L217.604 202.894L218.059 208.535L218.514 211.728L218.969 211.194L219.424 210.132H228.072L228.527 205.047L228.982 214.378L229.438 210.367L229.893 179.329L230.348 199.594L230.803 198.458L231.258 187.325L231.713 189.807L232.168 202.544L232.624 202.165L233.079 200.094L233.534 202.793L233.989 206.731L234.444 206.278L234.899 208.778L235.354 209.604L236.265 202.296L236.72 190.445L237.175 196.066L238.085 198.91L238.54 204.903L238.996 200.401L239.451 189.258L239.906 193.874L240.361 187.475L240.816 194.024L241.271 192.751L241.726 202.362L242.182 198.955L242.637 192.076L243.092 188.76L243.547 195.379L244.002 185.254L244.457 179.841L244.912 194.655L245.368 182.333L245.823 148.961L246.278 177.466L246.733 192.823L247.188 193.479L247.643 193.234L248.099 201.151L248.554 170.923L249.009 181.413L249.464 185.17L249.919 194.011L250.374 197.644L250.829 198.574L251.285 201.294L251.74 180.163L252.195 178.511L252.65 183.865L253.105 196.579L253.56 197.857L254.015 202.002L254.471 189.938L254.926 190.069L255.381 186.671L255.836 195.986L256.291 196.934L256.746 204.336L257.657 207.463L258.112 184.634L258.567 182.968L259.022 188.572L259.477 191.541L259.932 198.72L260.388 200.155L260.843 207.58L261.298 182.333L262.208 173.295L262.663 191.518L263.118 196.24L263.574 203.096L264.029 206.56L264.484 185.414L264.939 182.7H265.849L266.304 200.232L266.76 199.564L267.215 209.835L267.67 186.485L268.125 184.397L268.58 163.312L269.035 195.339L269.49 203.384L270.401 210.453L270.856 189.569L271.311 156.399L271.766 186.456L272.221 205.647L272.676 188.489L273.132 194.706L273.587 203.675L274.497 165.654L274.952 189.602L275.407 197.814L275.863 200.386L276.318 196.443L276.773 210.026L277.228 186.291L277.683 184.873L278.593 202.91L279.049 201.231L279.504 202.894L279.959 208.474L280.414 189.548L280.869 155.702L281.779 202.231L282.235 201.262L282.69 196.348L283.145 199.609L283.6 172.616L284.055 178.879L284.51 190.881L285.876 199.474L286.331 201.872L286.786 180.705L287.241 187.496L288.607 199.911L289.062 195.681L289.517 207.308L289.972 186.75L290.427 175.78L290.882 193.028L291.338 185.077L291.793 194.604L292.248 166.876L292.703 195.339L293.158 188.887L293.613 168.821L294.068 187.799L294.524 199.161L294.979 204.868L295.434 203.934L295.889 204.353L296.344 180.1L296.799 170.917L297.254 178.154L297.71 178.331L298.165 194.989L298.62 163.272L299.075 153.79L299.53 122.605L300.44 174.574L300.896 183.537L301.351 186.34L301.806 180.778L302.261 183.431L302.716 150.959L303.171 165.551L303.627 172.28L304.082 184.552L304.537 189.205L304.992 192.169L305.447 198.084L305.902 186.359L306.357 163.489L306.813 192.847L307.268 194.426L307.723 189.656L308.633 206.184L309.999 194.061L310.909 192.992L311.364 190.522L311.819 196.701L312.729 152.957L313.185 185.821L313.64 185.688L314.55 186.204L315.005 194.886L315.46 184.744L315.915 187.145L316.371 199.28L316.826 192.453L317.281 194.694L318.191 207.875L318.646 211.15L319.102 205.337L319.557 205.011L320.012 205.905L320.467 202.944L320.922 205.85L321.377 217.663L321.832 214.354L322.288 203.299L323.198 198.328L323.653 203.589L324.108 203.64L324.563 211.527L325.474 203.35L325.929 205.501L326.384 205.739L326.839 204.23L327.294 205.119L327.749 215.35L328.66 207.153L329.115 208.717L329.57 203.847L330.025 191.657L330.48 210.41L330.935 215.553L331.846 207.816L332.301 209.085L332.756 208.88L333.211 209.354L333.666 208.799L334.121 216.041L334.577 212.432L335.487 191.484L336.397 206.827L336.852 210.153L337.307 216.223L337.763 202.727L338.218 204.53L338.673 203.367L339.128 203.35L339.583 202.231L340.038 197.985L340.493 210.539L340.949 210.887L341.859 205.191L342.314 203.045L343.68 217.636L344.135 215.274L344.59 208.717L345.045 206.598L345.5 202.428L345.955 202.28L346.41 206.617L346.866 213.652L347.321 213.036L347.776 203.265L348.231 202.428L348.686 204.477L349.141 203.589L350.052 192.465L350.507 189.993L350.962 192.883L351.417 200.186L351.872 198.881L352.327 196.47L352.782 202.002L353.238 212.067L353.693 210.132L354.148 204.195L354.603 203.367L355.058 201.025L355.968 207.718L356.424 213.82L356.879 215.35L357.789 202.478L358.244 202.843L359.154 205.739L359.61 220.438L360.065 218.607L360.52 203.333L360.975 205.409L361.885 207.836L362.341 205.979L362.796 216.828L363.251 221.722L363.706 218.382L364.161 204.143L364.616 202.961L365.071 207.915L365.527 214.748L365.982 218.104L366.437 220.021L367.347 203.537L368.257 210.669L368.713 208.575L369.623 218.748L370.533 207.797L370.988 207.816L371.443 204.85L371.899 206.091L372.354 219.09L372.809 217.256L373.264 211.46L373.719 202.511L374.174 207.994L374.63 202.91L375.085 211.863L375.54 215.375L375.995 213.413L376.45 210.175L376.905 211.931L377.36 209.188L377.816 214.037L378.271 215.426L378.726 223.294L380.546 208.334L381.002 214.947L381.457 216.563L381.912 208.717L382.367 193.936L382.822 193.577L383.277 203.316L383.732 207.134L384.188 202.593L384.643 206.579L385.098 211.976L385.553 211.172L386.008 207.269L386.463 208.334L386.918 204.494L387.374 207.172L387.829 208.114L388.284 211.438L388.739 209.333L389.194 201.598L389.649 203.572L390.105 192.859L390.56 197.336L391.015 195.866L391.47 208.758L391.925 209.396L392.38 203.248L392.835 199.221L393.291 196.948L393.746 201.614L394.201 204.671L394.656 209.646L395.111 207.172L395.566 198.027L396.021 192.429L396.477 176.562L396.932 182.495L397.387 193.393L397.842 200.54L398.297 198.013L398.752 191.738L399.207 194.313L399.663 195.105L400.118 196.497L400.573 181.438L401.028 196.416L401.483 195.72L401.938 188.676L402.394 175.494L402.849 178.849L403.304 188.137L403.759 167.395L404.214 194.275L404.669 194.136L405.124 189.311L405.58 182.452L406.035 193.454L406.49 193.651L406.945 186.146L407.4 188.509L407.855 191.657L408.31 182.786L408.766 186.485L409.221 188.802L409.676 192.584L410.131 190.323L410.586 189.109L411.041 185.395L411.496 188.23L411.952 183.812L412.407 189.066L412.862 184.37L413.317 181.241L413.772 186.282L414.227 159.765L414.682 169.044L415.138 171.995L415.593 187.265L416.503 184.543L416.958 187.881L417.413 174.646L417.869 135.166L418.324 121.814H418.779L419.234 176.759H420.599L421.055 128.799L421.51 164.758L421.965 180.092L422.42 185.32L422.875 182.452L423.33 191.05L423.785 154.458L424.241 145.188L424.696 152.507L425.151 172.969L425.606 174.66L426.061 179.306L426.516 178.265L426.971 163.819L427.427 118.79L427.882 155.185H429.247L429.702 166.567L430.158 154.859L430.613 161.662L431.068 171.244L431.523 174.17L432.433 184.379L432.888 183.563L433.799 145.91L434.254 170.221L434.709 180.481L435.164 184L435.619 186.031L436.074 192.763L436.53 160.572L437.44 170.65L437.895 181.078L438.35 183.238L438.805 187.657L439.26 194.061L439.716 163.159L440.171 157.409L441.081 179.176L441.536 173.643L441.991 172.746L442.446 175.454H442.902L443.357 110.368L443.812 153.711L444.267 165.581L444.722 171.713L445.177 172.432L445.633 179.345H446.088L446.543 153.731L446.998 169.989L447.453 178.161L448.363 159.721L448.819 174.358L449.274 150.591L449.729 149.475L450.184 149.167L450.639 175.821L451.094 170.011L451.549 174.891L452.005 177.488L452.46 155.67L452.915 148.462L453.37 164.673L453.825 172.359L454.28 175.63L454.735 171.874L455.191 176.228L456.101 134.447L456.556 159.604L457.011 171.659L457.466 169.955L457.921 133.363L458.377 167.608L458.832 152.268L459.287 151.389L459.742 147.487L460.197 167.009L461.108 178.97L461.563 178.691L462.018 152.551L462.473 140.915L462.928 156.955L463.383 163.976L463.838 176.013L464.294 177.59L465.204 166.281L465.659 165.634L466.114 176.346L466.569 178.058L467.48 169.646L467.935 159.809L468.39 142.616L468.845 151.125L469.3 167.209L469.755 169.496L470.21 169.126L470.666 167.786L471.121 164.143L471.576 96.7912L472.031 134.711L472.486 150.672L472.941 156.94L473.397 159.381L473.852 157.194H474.762L475.217 82.4014L475.672 119.268L476.127 136.488L476.583 144.165L477.038 146.785L477.493 150.571L477.948 148.29L478.403 119.995L478.858 129.793L479.313 123.883L479.769 131.527L480.224 123.657L480.679 127.236L481.134 91.2448H481.589L482.955 153.856L483.865 174.144L484.32 179.638L484.775 181.094L485.23 180.369L485.685 187.455L486.141 186.33L486.596 189.851L487.051 195.405L487.506 191.738L487.961 189.462H488.416L488.872 178.317L489.327 192.895L489.782 191.518L490.237 195.041L490.692 195.973L491.147 194.49L491.602 193.887L492.058 195.261L492.513 185.64L492.968 165.762L493.423 198.142L493.878 199.684L494.333 195.157L494.788 194.643L495.244 198.837L495.699 201.485L496.154 199.654L496.609 200.263L497.064 202.478L497.519 197.532L497.974 196.375L498.43 196.715L499.34 200.915L499.795 205.721L500.25 203.83L501.16 193.688L501.616 186.828L502.071 195.853L503.436 203.214L503.891 202.577L504.347 198.156L504.802 199.399L505.257 204.195L505.712 206.827L506.167 204.23L506.622 203.452L507.077 188.147L507.988 197.956L508.443 201.009L508.898 200.494L509.353 204.318L509.808 202.843L510.263 202.329L510.719 199.534L511.174 200.201L512.084 194.199L512.539 201.231L513.449 198.328L513.905 197.673L514.815 184.781L515.27 159.862L516.18 188.055L516.635 187.617L517.091 185.489L517.546 188.209L518.001 192.346L518.456 194.149L518.911 204.477L519.822 198.502L520.277 198.242L520.732 202.461L521.187 197.462L521.642 187.962L522.097 204.565L522.552 206.315L523.008 199.609L523.463 200.186L523.918 199.146L524.373 208.983L524.828 203.146L525.283 209.667L525.738 207.444L526.194 203.606L527.104 211.018L527.559 205.924L528.014 203.555L528.924 207.463L529.38 205.592L529.835 206.315L530.29 206.409L530.745 211.683L531.2 215.098L531.655 214.6L532.111 216.249L533.476 210.389L534.386 200.931L535.297 209.292L535.752 189.645L536.207 156.885L536.662 211.106L537.572 223.993L538.027 264.864L538.483 268.603L538.938 270.426L539.393 238.886L539.848 228.412L540.303 211.282L540.758 206.184L541.213 213.724L541.669 216.616L542.124 211.683L542.579 217.015L543.034 217.691L543.489 220.378L543.944 221.412H544.399L544.855 243.98H545.31L545.765 211.683L546.675 216.275L547.13 214.526L547.586 220.139L548.041 223.525H548.496L548.951 207.191H550.772L551.227 213.94L551.682 215.578L552.137 210.604L552.592 210.453L553.047 198.386L553.958 208.555L554.413 210.734L554.868 209.604L555.323 203.744L555.778 204.3L556.233 183.848L557.144 202.165L557.599 201.31L558.054 189.215L558.509 193.812L558.964 193.75L559.419 190.712L559.875 191.982L560.33 189.462L560.785 197.63L561.695 166.912L562.15 174.002L562.605 185.745L563.061 187.415L563.516 191.403L563.971 192.076L564.426 183.44L564.881 190.08L565.336 188.582L565.791 188.75L566.247 183.625L566.702 193.787L567.157 178.398L567.612 179.214L568.067 165.198L568.977 174.384L569.433 172.292L569.888 176.965L570.343 179.207L570.798 174.384L571.253 178.213L571.708 185.254L572.163 182.08L572.619 161.803L573.074 185.489L573.984 182.021L574.439 184.216L575.35 181.521L575.805 179.084L576.26 185.198L576.715 180.274L577.17 180.988L577.625 174.06L578.536 168.805L578.991 153.488L579.446 177.423L579.901 131.297L580.811 164.371L581.266 172.746L581.722 169.072L582.177 159.053L582.632 155.185L583.087 142.35L583.542 84.1531L583.997 148.545L584.452 169.044L585.363 177.793L585.818 178.518L586.273 147.489L586.728 144.899L587.639 174.222L588.094 178.294L588.549 179.522L589.004 181.603L589.459 157.179L589.914 148.134L590.369 153.593L590.825 174.176L591.28 180.013L591.735 177.881L592.19 184.589L592.645 152.653L593.1 161.976L593.555 141.138L594.011 172.876L594.466 170.633L595.376 184.543L596.286 124.978L596.741 165.998L597.197 177.279L597.652 179.747L598.107 179.959L598.562 187.435L599.017 171.689L599.472 161.666L599.927 133.626L600.383 172.579L600.838 175.44L601.293 159.163L601.748 161.508L602.658 153.544L603.114 119.803L603.569 169.876L604.024 168.033L604.479 164.087L604.934 177.633L605.389 155.432L605.844 141.66L606.3 166.241L606.755 176.485L607.21 176.283L607.665 175.596L608.12 182.172L608.575 161.253L609.03 151.119L609.941 178.102L610.396 170.795L610.851 169.424L611.306 165.522L612.216 122.367L612.672 163.015L613.127 178.205L613.582 166.221L614.037 165.222L614.492 175.842L615.403 119.513L615.858 160.08L616.768 175.91L617.678 180.98L618.133 148.941L618.589 129.592L619.044 152.371L619.499 165.083L619.954 163.065L620.409 134.407L620.864 170.507L621.319 159.709L621.775 153.58L622.23 135.729L622.685 164.087L623.14 172.938L623.595 171.487L624.05 183.343L624.505 154.253L624.961 153.979L625.416 136.797L625.871 163.517L627.236 184.818L627.691 159.789L628.147 145.999L628.602 160.399L629.057 161.236L629.512 174.358L629.967 169.663L630.878 145.418L631.333 127.437L631.788 155.617L632.243 158.346L632.698 159.081L633.153 151.825L633.608 154.512L634.064 100.715L634.519 145.91L634.974 151.462L635.429 168.924L635.884 169.165L636.339 166.688L636.794 165.929L637.25 142.355L637.705 146.971L638.16 164.013L638.615 166.477L639.07 167.08L639.525 173.081L639.98 175.332L640.891 140.844L641.346 163.934L641.801 169.319L642.256 172.74L642.711 174.137L643.166 181.903L643.622 176.186L644.077 155.241L644.532 176.936L644.987 177.164L645.442 171.528L645.897 174.554L646.352 171.516L646.808 157.727L647.263 133.989L647.718 168.39L648.173 179.138L648.628 179.437L649.083 182.89L649.539 190.312L649.994 192.512L650.449 186.947L650.904 188.562L651.359 173.257L651.814 188.971L652.269 186.986L652.725 201.326L653.18 202.214L653.635 191.576L654.09 197.322L655 194.275L655.455 198.084L655.911 203.316L656.366 199.82L656.821 194.162L657.276 195.235L657.731 194.809L658.641 198.013L659.097 207.424L660.007 195.339L660.462 197.1L660.917 194.63L661.828 203.18L662.283 201.072L662.738 200.743L663.193 202.034L663.648 197.913L664.103 205.337L664.558 204.512L665.469 212.64L665.924 210.432L666.834 201.921L667.289 198.589L667.744 179.545L668.2 177.684L668.655 194.212L669.11 203.384L670.02 197.616L670.475 199.866L670.93 197.448L671.841 210.026L672.296 206.072L672.751 204.975L673.206 201.072L674.116 205.011L674.572 181.192L675.027 172.777L675.482 183.369L675.937 184.018L676.392 181.413L676.847 171.989L677.303 170.329L678.213 203.18L678.668 200.805L679.123 187.769L679.578 187.445L680.033 190.268L680.944 192.264L681.399 202.56L681.854 197.956L682.309 186.868L683.219 182.231L683.675 177.619L684.13 168.325L684.585 173.7L685.04 187.335L685.495 193.874L685.95 196.592L686.406 194.388L686.861 193.368L687.771 209.962L689.592 198.881L690.047 198.999L690.502 204.477L690.957 214.305L691.867 201.566L692.322 202.395L692.778 200.079L693.233 201.358L693.688 206.788L694.143 214.501L694.598 210.756L695.053 203.197L695.508 199.414L695.964 181.135L696.419 197.772L697.329 215.098L697.784 213.7L698.239 205.721L698.694 205.047L699.15 204.689L699.605 201.199L700.515 214.798L700.97 214.575L701.425 203.35L701.881 201.422L702.336 208.014L702.791 211.282L703.246 206.941L703.701 212.226L704.156 210.346L704.611 204.318L705.066 211.953L705.522 205.246L705.977 206.447L706.432 205.739L707.342 198.662L707.797 202.018L708.253 208.293L708.708 206.372L709.163 195.261L709.618 197.49L710.073 209.877L710.528 200.293L710.983 200.79L711.439 200.994L711.894 198.793L712.349 202.793L712.804 205.119L713.259 206.128L713.714 211.571L714.17 189.344L714.625 199.79L715.08 200.915L715.535 199.429L715.99 157.476L716.445 165.396L717.355 194.376L717.811 200.432L718.266 199.624L718.721 178.879L719.176 199.25L719.631 207.076L720.086 197.169L720.542 195.144L720.997 194.376L721.452 185.974L721.907 190.768L722.362 193.824L722.817 202.346L723.272 203.333L724.183 175.691L724.638 179.607L725.093 180.561L725.548 175.944L726.458 138.345L726.914 159.053L727.369 171.398L727.824 177.186L728.279 177.867L728.734 179.974L729.189 184.763L729.644 183.59L730.1 187.125L731.01 183.67L731.465 186.195L731.92 181.937L732.375 186.388L732.83 174.456L733.286 184.452L733.741 182.597L734.196 182.418L734.651 178.894L735.106 178.451L735.561 174.911L736.017 164.844L736.472 165.762L736.927 166.316L737.382 172.261L737.837 166.477L738.292 170.153L738.747 150.663L739.203 175.272L739.658 174.04L740.113 164.371L740.568 180.481L741.023 182.951H741.478L741.933 186.515L742.389 184.117L742.844 151.865L743.299 152.87L743.754 156.685L744.209 135.043L744.664 124.75L745.119 154.119L745.575 135.148L746.03 138.891L746.485 146.958L746.94 170.946L747.395 174.111L747.85 174.686L748.305 169.402L748.761 150.83L749.216 142.341L749.671 141.691L750.126 173.226L750.581 179.13L751.036 179.569L751.492 179.138L751.947 156.565L752.402 119.62L753.312 179.376L754.222 174.957L754.678 181.82L755.133 161.173L755.588 157.652L756.043 140.649L756.498 175.171L756.953 178.287L757.408 176.647L757.864 183.194L758.319 158.435L758.774 161.005L759.229 166.406L759.684 180.657L760.139 182.469L760.594 183.634L761.05 162.482L761.505 154.763L761.96 157.15L762.87 174.944H763.325L764.236 186.041L764.691 162.566L765.146 121.73L765.601 163.222L766.056 164.725L766.511 160.951L767.422 180.155L767.877 146.698L768.332 153.622L768.787 163.791L769.242 167.949L769.697 165.232L770.153 161.482L770.608 174.397L771.063 146.122L771.518 135.08L771.973 162.425L772.428 173.764L772.883 181.159L773.339 180.794L773.794 186.272L774.249 155.289L774.704 143.343L775.614 174.423L776.069 174.884L776.525 169.927L776.98 180.021L777.435 165.179L777.89 142.511L778.345 165.796L778.8 176.83L779.256 164.616L779.711 165.698L780.166 176.048L780.621 148.014L781.076 148.222L781.531 131.885L781.986 163.617L782.442 168.171L782.897 159.294L783.352 162.198L783.807 136.305L784.262 141.182L784.717 160.247L785.628 154.162L786.083 161.355L786.538 176.144L787.448 131.7L787.903 162.098L788.358 171.576L788.814 169.927L789.269 173.025L789.724 181.962L790.179 142.459L790.634 143.489L791.545 176.724L792 169.391L792.455 230.427H793.365L793.82 198.705L794.275 149.957L794.731 161.081L795.641 173.982L796.096 183.326L797.006 119.858L797.461 131.536L797.917 151.807L798.372 164.654L798.827 172.536L799.282 167.896L799.737 126.078L800.647 158.289L801.103 158.818L801.558 159.91L802.013 165.747L802.468 165.357L802.923 119.336L803.378 110.042L803.833 140.515L804.289 139.221L804.744 124.651L805.654 145.022L806.109 131.981L806.564 79.7385L807.02 118.739L807.475 122.123L807.93 136.837L808.385 130.411L808.84 146.104L809.295 139.881L809.75 116.934L810.206 117.16L810.661 120.658L811.116 135.291L811.571 121.588L812.026 130.621L812.481 94.7617L812.936 46.4526L813.392 99.3068L813.847 121.767L814.302 131.382L814.757 129.498L815.212 145.34L815.667 147.369L816.578 160.076L817.033 152.03L817.488 155.747L818.398 175.515L818.853 178.789L819.308 153.972L819.764 158.939L820.219 177.079L820.674 167.938L821.129 168.267L821.584 166.053L822.039 176.668L822.495 176.401L822.95 172.067L823.405 178.08L823.86 175.746L824.77 180.274L825.225 168.599L825.681 178.309L826.136 174.614L826.591 77.5427L827.046 86.0516L827.501 106.311L828.411 127.674L828.867 118.728L829.777 124.368L830.232 122.815L830.687 122.995L831.142 120.921L831.598 126.235L832.053 94.5275L832.508 91.7577L832.963 103.701L833.873 146.111L834.328 157.543L834.784 162.527L835.239 160.551L835.694 164.588L836.149 171.345L836.604 175.725L837.059 178.257L837.514 177.387L837.97 183.767L838.425 176.873L838.88 176.951L839.335 182.206L839.79 184.388L840.245 185.745L840.7 193.04L841.156 192.087L841.611 184.625L842.066 184.966L842.521 188.003L842.976 184.708L843.431 167.938L843.886 186.456L844.342 186.195L844.797 181.004L845.252 182.538L845.707 177.561L846.162 179.943L846.617 185.954L847.072 196.524L847.528 190.201L847.983 179.833L848.438 178.993L848.893 176.555L849.348 168.551L849.803 149.241L850.259 167.281L850.714 173.088H851.169L851.624 182.503L852.079 181.455L852.534 181.987L852.989 186.769L853.445 186.041L853.9 152.787L854.355 162.513L854.81 177.129L855.265 182.155L855.72 189.013L856.175 191.645L856.631 196.483L857.086 193.161L857.541 192.763L857.996 191.118L858.451 186.554L858.906 189.13L859.362 194.719L859.817 203.469L860.272 201.63L861.182 178.339L862.092 194.036L862.548 194.899L863.003 203.52L863.458 198.589L863.913 198.099L864.368 193.149L864.823 193.332L865.278 187.983L866.189 198.042L866.644 196.934L867.099 192.489L867.554 189.71L868.009 198.242L868.464 196.053L868.92 191.323L869.375 189.483L870.285 198.779L870.74 192.275L871.195 190.802L871.65 196.093L872.106 196.389L872.561 201.614L873.016 190.367L873.471 193.701L873.926 175.569L874.381 182.215L874.836 191.842L875.292 189.993L875.747 200.79L876.202 202.231L877.112 194.63L877.567 199.489L878.023 200.033L878.478 201.63L878.933 207.483L879.388 203.917L879.843 202.362L880.298 198.502L880.753 197.49L881.209 201.057L881.664 197.1L882.119 199.594L882.574 200.324L883.029 195.496L883.484 194.275L883.939 187.506L884.395 168.023L884.85 175.501L885.305 176.062L885.76 186.848L886.215 188.971L886.67 187.84L887.126 187.932L887.581 189.634L888.036 188.065L888.491 194.237L888.946 193.479L889.401 186.089L889.856 188.426L890.312 184L891.222 159.668L891.677 179.062L892.132 179.115L892.587 182.761L893.042 190.29L893.498 191.796L893.953 185.517L894.408 185.273L894.863 184.045L895.318 184.279L895.773 183.334L896.228 185.745L896.684 189.365L897.139 180.401L897.594 157.253L898.049 167.681L898.504 163.503L898.959 176.387L899.414 170.65L899.87 176.082L900.325 183.874L900.78 175.89L901.235 177.568L901.69 159.656L902.145 157.235L902.6 176.269L903.056 181.554L903.511 176.041L903.966 178.294L904.421 165.29L904.876 144.088L905.331 153.066L905.787 169.882L906.697 176.64L907.152 170.61L907.607 173.421L908.062 158.489L908.517 170.772L908.973 173.522L909.428 165.217L909.883 126.836L910.338 166.81L910.793 164.096L911.248 132.119L911.703 78.446L912.159 138.476L912.614 164.036L913.069 167.111L913.524 157.446L913.979 165.145L914.434 133.079L914.89 138.959L915.345 109.359L915.8 164.867L916.255 170.754L916.71 145.231L917.165 173.854L917.62 140.866L918.076 139.16L918.531 167.229L918.986 182.529L919.441 180.401L919.896 172.255L920.351 177.918L920.806 149.641L921.262 131.797L921.717 162.518L922.172 172.653L922.627 168.534L923.082 156.198L923.537 171.074L923.992 132.751L924.448 130.213L924.903 160.003L925.358 177.662L925.813 180.545L926.268 175.555L926.723 180.393L927.178 156.399L927.634 154.33L928.089 102.104L928.544 164.161L928.999 173.188L929.454 172.907L929.909 180.124L930.364 141.051L931.73 177.143L932.185 177.401L932.64 172.746L933.095 171.582L933.551 150.833L934.006 113.826L934.461 161.194L935.371 172.641L935.826 170.518L936.281 173.835L936.737 135.771L937.192 136.713L937.647 162.61L938.102 175.972L938.557 172.635L939.012 162.093L939.467 179.207L939.923 149.469L940.378 154.099L941.288 177.669L941.743 176.618L942.198 179.329L942.654 183.785L943.109 152.061L943.564 136.756L944.019 167.896L944.474 178.796L945.384 159.6L945.84 175.732L946.295 143.346L946.75 130.584L947.205 162.032L947.66 169.132L948.115 173.144L948.57 165.059L949.026 167.943L949.481 146.95L949.936 137.02L950.391 138.046L950.846 165.669L951.301 164.157L951.756 128.445L952.212 165.401L952.667 149.841L953.122 149.429L953.577 144.562L954.032 163.732L954.487 166.452L954.942 174.417L955.398 178.902L955.853 148.008L956.308 146.961L956.763 163.778L957.218 172.013L958.584 181.274L959.039 149.722L959.494 137.763L959.949 168.432L960.404 169.33L960.859 158.523L961.314 167.034L961.77 171.599L962.68 122.936L963.135 154.102L964.045 155.811L964.501 147.313L964.956 150.234L965.411 123.242L965.866 142.63L966.321 154.082L966.776 155.554L967.231 158.293L967.687 153.079L968.597 81.6925L969.507 149.015L969.962 162.119L970.873 167.901L971.328 173.963L971.783 158.574L972.238 126.616L972.693 157.305L973.148 161.679L973.604 170.011L974.059 171.493L974.514 173.841L974.969 171.546L975.424 124.104L975.879 168.033L976.334 172.219L976.79 173.025L977.245 170.232L977.7 171.08L978.155 139.154L978.61 126.462L979.065 161.397L979.52 171.743L980.886 184.892L981.341 186.524L981.796 185.087L982.706 188.447L983.162 192.453L983.617 190.915L984.072 193.21L984.527 193.052L984.982 188.687L985.437 187.496L985.892 190.378L986.348 192.181L986.803 191.564L987.258 195.144L987.713 197.28L988.168 192.417L988.623 181.912L989.078 188.354L989.989 191.587L990.444 195.444L990.899 194.388L991.354 192.679L992.265 192.346L992.72 190.102L993.63 200.201L994.085 202.362L994.54 195.015L994.995 193.639L995.906 176.193L996.361 185.754L996.816 192.146L997.271 190.6L997.726 192.394L998.182 191.039L999.092 171.356L999.547 187.115L1000 192.799L1000.46 174.607L1001.37 191.738L1001.82 194.376L1002.73 194.566L1003.19 194.706L1003.64 203.384L1004.1 195.444L1004.55 199.896L1005.01 197.35L1005.46 201.646L1005.92 204.318L1006.37 204.53L1007.28 198.56L1007.74 197.476L1008.19 200.774L1008.65 185.376L1009.56 206.788L1010.02 206.846L1010.93 200.571L1011.38 200.727L1011.84 198.589L1012.29 192.134L1012.75 208.495L1013.2 201.71L1013.66 197.294L1014.11 195.8L1014.57 187.335L1015.02 188.291L1015.48 182.52L1016.39 193.899L1016.84 178.503L1017.75 194.414L1018.21 180.778L1018.66 190.701L1019.12 203.969L1019.57 201.326L1020.03 193.234L1020.48 196.093L1020.94 196.294L1021.39 195.973L1021.85 200.34L1022.3 209.899L1022.76 208.819L1023.21 203.589L1023.67 200.125L1024.12 199.459L1024.58 198.343L1025.04 199.73L1025.49 210.239L1025.95 212.478L1026.86 200.54L1027.31 202.593L1027.77 200.217L1028.22 205.61L1028.68 216.988L1029.59 210.239L1030.04 204.3L1030.5 201.262L1030.95 199.384L1031.41 205.011L1032.32 209.209L1033.23 201.678L1033.68 207.269L1034.14 209.396L1034.59 208.758L1035.05 209.044L1035.5 210.974L1036.41 188.478L1036.87 199.31L1037.78 207.816L1038.23 208.273L1038.69 205.684L1039.14 205.083L1039.6 203.709L1040.51 209.333L1040.97 208.074L1041.42 209.127L1041.88 212.135L1042.33 209.168L1042.79 207.875L1043.24 205.961L1043.7 200.774L1044.15 199.146L1044.61 209.793L1045.06 209.772L1045.52 208.616L1045.97 209.416L1046.43 208.213L1046.88 202.444L1047.34 202.793L1047.79 214.501L1048.25 213.628L1048.7 208.134L1049.61 201.937L1050.07 205.228L1050.52 203.623L1050.98 207.718L1051.43 207.211L1051.89 200.309L1052.34 198.999L1052.8 194.963L1053.25 189.494L1053.71 200.064L1054.16 205.282L1054.62 205.482L1055.07 199.851H1055.53L1055.99 228.923L1056.44 198.357L1056.9 192.907L1057.35 198.764L1057.81 171.671L1058.26 171.695L1058.72 192.193L1059.17 193.874L1059.63 200.324L1060.08 204.654L1060.54 198.618L1060.99 201.986L1061.9 190.312L1062.36 167.765L1062.81 178.758L1064.18 192.883L1064.63 192.406L1065.09 194.439L1065.54 194.745L1066 194.049L1066.45 196.948L1066.91 196.294L1067.36 183.081L1067.82 180.053L1068.27 189.472L1068.73 193.454L1069.18 193.161L1069.64 193.368L1070.09 201.438L1070.55 173.364L1071.01 193.986L1071.46 197.729L1072.37 188.687L1072.83 187.871L1073.28 193.454L1073.74 166.446L1074.19 188.687L1074.65 184.79L1075.1 186.554L1075.56 170.164L1076.01 100.904L1076.47 151.658L1076.92 152.921L1077.38 132.597L1077.83 164.461L1078.29 172.328L1079.2 159.849L1079.65 171.683L1080.11 114.681L1080.56 117.069L1081.02 153.05L1081.47 172.322L1081.93 176.027L1082.38 176.788L1082.84 183.776L1083.29 165.576L1083.75 165.459L1084.2 102.48L1084.66 107.334L1085.57 160.854L1086.02 159.66L1086.48 137.306L1086.94 122.312L1087.39 147.262L1087.85 152.12L1088.76 170.209L1089.21 165.634L1089.67 128.664L1090.12 120.038L1090.58 151.337L1091.03 165.116L1091.49 164.259L1091.94 151.134L1092.4 171.737L1093.31 144.693L1093.76 156.594L1094.22 154.522L1094.67 143.933L1095.58 163.439L1096.04 151.176L1096.49 95.6078L1096.95 147.575L1097.4 167.183L1097.86 170.272L1098.31 174.522L1098.77 181.954L1099.22 155.649L1099.68 149.306L1100.13 172.536L1100.59 182.037L1101.04 184.8L1101.5 186.388L1101.96 189.13L1102.87 163.791L1103.32 178.54L1103.78 184.099L1104.23 180.738L1104.69 182.933L1105.14 192.859L1105.6 170.352L1106.05 139L1106.96 176.654L1107.42 178.272L1107.87 168.615L1108.33 173.982L1108.78 160.321L1109.24 101.036L1109.69 152.787L1110.15 174.417L1110.6 174.293L1111.06 170.392L1111.51 176.443L1111.97 165.454L1112.42 115.512L1112.88 166.276L1113.33 181.795L1113.79 181.004L1114.24 179.383L1114.7 182.563L1115.15 162.846L1115.61 133.134L1116.97 170.192L1117.43 172.957L1118.34 159.946L1118.8 137.782L1119.25 161.563L1119.71 172.304L1120.16 168.604L1120.62 151.349L1121.07 160.383L1121.53 156.674L1121.98 150.293L1123.35 183.776L1123.8 178.879L1124.26 184.735L1124.71 141.797L1125.17 130.134L1125.62 159.369L1126.08 170.204L1126.53 166.063L1126.99 172.919L1127.44 172.414L1128.35 122.836L1128.81 152.124L1129.26 162.443L1129.72 162.527L1130.17 159.801L1130.63 160.701L1131.08 169.485H1131.54L1131.99 157.735L1132.45 163.312L1132.9 161.885L1133.36 159.56L1133.82 161.924L1134.27 106.3L1134.73 87.7358L1135.18 132.166L1135.64 139.189L1136.09 134.949L1136.55 137.056L1137 144.339L1137.46 81.8103L1137.91 67.5104L1138.37 110.855L1138.82 127.124L1139.28 135.328L1139.73 131.289L1140.19 146.265L1140.64 142.65L1141.1 123.048L1141.55 127.258L1142.01 126.265L1142.46 115.758L1142.92 113.561L1143.37 119.996L1144.28 41.2179L1144.74 104.076L1145.19 131.931L1145.65 148.701L1146.1 154.353L1146.56 163.649L1147.93 178.302L1148.38 180.561L1148.84 183.732L1149.75 194.976L1150.2 195.959L1150.66 192.679L1151.11 191.198L1151.57 190.279L1152.02 189.949L1152.48 195.157L1152.93 202.544L1153.39 201.072L1153.84 193.663L1154.3 197.252L1154.75 188.168L1155.66 197.225L1156.12 207.718L1156.57 205.721L1157.03 191.691L1157.48 190.768L1157.94 200.263L1158.39 196.335L1158.85 191.039L1159.3 208.074L1159.76 203.146L1160.21 201.183L1160.67 197.673L1161.12 188.055L1161.58 187.566L1162.03 198.242L1162.49 203.214L1162.94 204.336L1163.4 199.926L1163.86 199.489L1164.31 201.358L1164.77 199.25L1165.22 199.926L1165.68 207.444L1166.13 205.794L1166.59 184.883L1167.04 190.004L1167.5 197.045L1167.95 174.43L1168.86 208.596L1169.32 210.004L1169.77 204.707L1170.23 201.598L1170.68 200.232L1171.14 199.519L1171.59 203.882L1172.05 213.177L1172.5 203.18L1172.96 204.353L1173.41 203.709L1173.87 204.743L1174.32 202.149L1174.78 205.519L1175.23 213.2L1175.69 213.748L1176.6 202.296L1177.05 199.265L1177.96 206.072L1178.42 212.64L1178.87 184.938L1179.33 202.346L1179.79 192.358L1180.24 197.031L1180.7 192.691L1181.15 197.448L1181.61 210.41L1182.06 205.757L1182.52 196.934L1182.97 192.955L1183.43 199.429L1183.88 202.395L1184.34 197.49L1184.79 210.647L1186.16 176.367L1186.61 190.668L1187.07 186.976L1187.52 165.025L1187.98 185.226L1188.43 196.633L1188.89 191.68L1189.8 194.924L1190.25 197.757L1190.71 198.749L1191.16 207.308L1191.62 200.109L1192.07 190.411L1192.53 192.087L1193.44 203.062L1193.89 202.1L1194.35 216.855L1194.81 215.937L1195.26 210.974L1195.72 202.56L1196.17 178.279L1196.63 187.275L1197.08 202.894L1197.54 192.787L1197.99 213.342L1198.9 198.852L1199.36 203.537L1199.81 200.14L1200.27 210.475L1200.72 214.798L1201.18 214.773L1201.63 212.09L1202.09 205.794L1202.54 204.636L1203 196.524L1203.45 207.327L1204.36 209.292L1204.82 206.807L1205.27 209.835L1205.73 211.128L1206.18 211.194L1206.64 207.288L1207.09 218.664L1207.55 216.616L1208 203.384L1208.46 211.773L1208.91 211.15L1209.37 214.501L1209.82 215.527L1210.28 221.381L1210.74 221.722L1211.19 196.066L1212.1 211.15L1212.56 209.688L1213.47 222.322L1213.92 220.021L1214.83 208.414L1215.29 211.062L1215.74 198.07L1216.2 201.598L1216.65 211.571L1217.56 209.024L1218.02 202.231L1218.47 205.155L1218.93 180.94L1219.38 203.028L1219.84 211.128L1220.29 210.175L1221.2 198.113L1221.66 197.63L1222.11 189.993L1222.57 193.713L1223.02 204.125L1223.48 206.96L1223.93 181.257L1224.39 180.553L1224.84 190.069L1225.76 200.448L1226.21 200.79L1226.67 198.027L1227.12 179.514L1227.58 193.651L1228.03 199.102L1228.49 196.756L1228.94 185.926L1229.4 198.545L1229.85 192.643L1230.31 176.408L1230.76 169.28L1231.22 182.342L1231.67 186.583L1232.13 189.109L1232.58 194.199L1233.49 179.222L1233.95 181.678L1234.4 187.688L1234.86 191.107L1235.31 192.62L1235.77 188.312L1236.22 172.031L1236.68 176.929L1237.13 189.742L1237.59 192.631H1238.04L1238.5 171.463L1238.95 186.897L1239.41 188.52L1239.86 176.381L1240.32 180.045L1240.77 174.222L1241.23 172.808L1241.69 162.338L1242.14 185.404L1242.6 165.025L1243.05 106.025L1243.51 125.441L1243.96 163.727L1244.42 166.107L1244.87 155.776L1245.33 168.913L1245.78 128.419L1246.24 136.061L1247.15 169.132L1247.6 160.829L1248.06 156.984L1248.51 181.678L1248.97 152.574L1249.42 139.116L1249.88 174.313L1250.33 182.942L1250.79 182.122L1251.24 162.342L1251.7 181.266L1252.15 177.539L1252.61 169.853L1253.06 166.502L1253.52 179.646L1253.97 179.399L1254.43 176.626L1254.88 186.632L1255.34 150.479L1255.79 128.321L1256.25 162.145L1256.71 167.358L1257.16 175.589L1257.62 170.158L1258.07 187.076L1258.53 154.226L1258.98 144.228L1259.44 172.549L1259.89 178.228L1260.35 177.859L1260.8 173.301L1261.26 181.62L1261.71 166.527L1262.17 88.736L1262.62 139.113L1263.08 161.144L1263.53 164.55L1263.99 131.593L1264.44 174.574L1264.9 163.417L1265.35 145.938L1265.81 164.72L1266.26 170.923L1266.72 173.529L1267.17 171.641L1267.63 186.32L1268.08 154.75L1268.54 143.75L1268.99 155.691L1269.45 179.857L1269.9 181.97L1270.36 181.795L1270.81 196.948L1271.72 156.482L1272.18 176.131L1272.64 181.11L1273.55 186.282L1274 200.603L1274.46 175.65L1274.91 166.197L1275.37 180.108L1275.82 187.932L1276.28 187.536L1276.73 185.254L1277.19 201.953L1278.1 155.227L1278.55 181.208L1279.01 188.666L1279.46 183.821L1279.92 189.098L1280.37 197.772L1280.83 188.739L1281.28 153.179L1281.74 179.024L1282.19 179.138L1282.65 178.6L1283.1 175.972L1283.56 196.47L1284.01 184.343L1284.47 165.164L1285.38 184.081L1285.83 180.569L1286.29 184.47L1286.74 196.402L1287.2 174.845L1287.66 162.028L1288.57 182.435L1289.02 184.607L1289.93 202.116L1290.84 176.654L1291.3 155.645L1291.75 182.282L1292.21 187.205L1292.66 184.579L1293.12 193.307L1293.57 175.972L1294.03 165.087L1294.94 190.015L1295.39 192.335L1295.85 178.57L1296.3 174.515L1296.76 159.453L1297.21 160.842L1298.12 172.585L1298.58 175.057L1299.03 173.427L1299.49 178.413L1299.94 130.681L1300.4 106.249L1301.31 154.149L1301.76 163.535L1302.22 164.031L1302.68 174.706L1303.13 161.139L1303.59 134.525L1304.04 158.924L1304.5 167.717L1304.95 170.022L1305.41 175.712L1305.86 190.004L1306.32 185.114L1306.77 176.851L1307.23 178.525L1307.68 179.299L1308.14 176.71L1308.59 169.618L1309.05 185.245L1309.96 118.694L1310.41 149.218L1310.87 166.117H1311.32L1312.23 191.198L1312.69 193.356L1313.14 189.775L1313.6 175.171L1314.51 192.017L1314.96 190.422L1315.42 193.466L1315.87 202.577L1316.33 181.537L1316.78 193.088L1317.24 193.626L1318.15 196.66L1318.61 185.849L1319.06 207.327L1319.52 203.299L1319.97 201.582L1320.43 196.866L1320.88 202.693L1321.34 205.887L1321.79 216.642L1322.25 216.327L1323.16 199.087L1323.61 193.887L1324.07 174.798L1324.52 190.212L1324.98 210.778L1325.43 211.683L1325.89 201.104L1326.34 200.309L1326.8 197.28L1327.25 199.579L1327.71 196.66L1328.16 213.342L1328.62 216.695L1329.07 207.678L1329.53 203.282L1329.98 207.288L1330.44 205.119L1330.89 209.106L1331.35 223.459L1331.8 220.618L1332.26 208.213L1332.71 187.952L1333.17 196.375L1333.63 209.375L1334.08 208.677L1334.54 220.769L1334.99 191.53L1335.45 215.324L1335.9 209.73L1336.81 212.896L1337.27 211.482L1337.72 223.064L1338.18 223.926L1338.63 213.153L1339.09 216.537L1339.54 215.148L1340 210.843L1340.45 209.458L1340.91 227.077L1341.36 217.068L1341.82 212.64L1342.27 211.172L1342.73 207.737L1343.18 206.98L1343.64 209.962L1344.09 223.625L1344.55 208.293L1345 198.574L1345.46 205.665L1345.91 200.618L1346.37 203.248L1347.28 211.706L1347.73 215.173L1348.19 208.054L1348.64 207.172L1349.56 200.774L1350.01 195.261L1350.47 213.556L1350.92 220.951L1351.38 207.915L1351.83 211.238L1352.29 195.628L1352.74 206.941L1353.2 209.127L1353.65 216.748L1354.11 219.962L1355.02 197.183L1355.93 209.772L1356.38 208.575L1356.84 225.763L1357.29 223.792L1357.75 213.604L1358.2 212.272L1358.66 213.676L1359.11 164.682L1359.57 179.253L1360.02 204.707L1360.48 213.083L1360.93 216.669L1361.39 212.64L1361.84 205.446L1362.3 210.175L1362.75 209.313L1363.21 226.194L1364.12 215.68L1364.58 211.796L1365.03 212.942L1365.49 215.886L1365.94 220.739L1366.85 232.498L1367.31 216.616H1367.76L1368.22 220.408L1368.67 216.171L1369.58 228.686L1370.04 232.275L1370.49 221.227L1370.95 220.139L1371.4 217.773L1371.86 221.754L1372.31 221.227L1372.77 234.768L1373.68 209.688L1374.13 215.578L1374.59 207.522L1375.04 209.106L1375.5 209.709L1375.95 204.178L1376.41 227.226L1376.86 219.033L1377.32 217.418L1377.77 224.23L1378.23 223.36L1379.14 233.821L1379.59 233.038L1380.05 222.163L1380.51 221.505L1380.96 217.993L1381.42 213.319L1381.87 211.976L1382.33 226.743L1382.78 218.438L1383.24 214.037L1383.69 215.223L1384.15 211.908L1384.6 184.957L1385.06 206.017L1385.51 216.406L1385.97 212.021L1386.42 204.583L1386.88 205.3L1387.33 203.589L1387.79 206.054L1388.24 212.318L1388.7 222.005L1389.15 222.934L1389.61 209.23L1390.06 211.15L1390.52 210.539L1390.97 208.656L1391.43 208.334L1391.88 219.176L1392.34 223.195L1392.79 212.432L1393.25 209.562L1393.7 209.73L1394.16 193.004L1395.07 217.691L1395.53 215.706L1395.98 209.899L1396.44 199.714L1396.89 201.072L1397.35 200.324L1397.8 209.168L1398.26 207.935L1398.71 211.238L1399.17 204.886L1399.62 195.248L1400.08 198.881L1400.99 193.016L1401.44 211.084L1401.9 203.503L1402.35 191.83L1402.81 189.237L1403.72 200.401L1404.17 201.326L1404.63 209.106L1405.08 194.049L1405.99 201.759L1406.45 197.814L1406.9 185.688L1407.36 183.186L1407.81 195.999L1408.27 196.24L1408.72 197.434L1409.63 185.282L1410.09 181.853L1410.54 167.597L1411 192.394L1411.46 164.152L1411.91 155.702L1412.37 174.951L1412.82 185.517L1413.28 175.467L1413.73 135.66L1414.19 184.252L1414.64 174.679L1415.1 171.109L1415.55 177.94L1416.01 187.445L1416.46 184.072L1416.92 170.09L1417.37 199.489L1417.83 175.245L1418.28 141.125L1418.74 170.789L1419.19 183.334L1420.1 191.164L1420.56 204.021L1421.01 176.36L1421.47 165.732L1421.92 185.423L1422.38 193.725L1422.83 195.261L1423.29 190.124L1423.74 207.153L1424.2 182.469H1424.65L1425.11 179.81L1425.56 192.335L1426.02 195.549L1426.48 192.823L1426.93 206.999L1427.39 178.668L1427.84 165.28L1428.3 175.698L1428.75 194.401L1429.21 189.699L1429.66 191.924L1430.12 189.44L1431.03 174.732L1431.48 185.983L1431.94 193.405L1432.39 194.149L1432.85 184.415L1433.3 199.146L1433.76 184.892L1434.21 145.621L1434.67 174.002L1435.12 184.846L1435.58 187.962L1436.03 177.779L1436.49 198.545L1437.4 152.532L1437.85 182.004L1438.31 192.943L1438.76 188.887L1439.22 197.602L1439.67 212.989L1440.13 190.656L1440.58 138.306L1441.04 162.063L1441.5 176.117L1441.95 182.726L1442.41 186.098L1442.86 200.962L1443.32 179.951L1443.77 167.364L1444.68 185.916L1445.14 191.553L1445.59 181.795L1446.05 200.048L1446.5 187.046L1446.96 62.2852L1447.41 81.2233L1447.87 166.187L1448.32 186.002L1448.78 185.236L1449.23 204.056L1450.14 172.684L1450.6 188.271L1451.05 194.414L1451.51 179.833L1451.96 191.738L1452.42 208.535L1452.87 196.214L1453.33 178.043L1453.78 180.545L1454.24 193.516L1454.69 200.033L1455.15 201.937L1455.6 212.733L1456.06 190.982L1456.51 176.816L1456.97 184.361L1457.88 207.424L1458.34 208.799L1458.79 214.28L1459.25 161.139L1459.7 149.901L1460.16 149.983L1460.61 175.869L1461.52 200.109L1461.98 192.98L1462.43 180.163L1462.89 148.556L1463.34 170.524L1463.8 177.043L1464.25 178.758L1464.71 178.925L1465.16 194.174L1465.62 179.184L1466.07 173.472L1466.53 183.616L1466.98 185.669L1467.44 186.986L1467.89 187.036L1468.35 193.222L1469.26 117.166L1469.71 153.672L1470.17 160.759" stroke="#02FEFA" stroke-width="2" stroke-linecap="square"/>
</g>
<path d="M54.1375 281.886V29.7574" stroke="#F0F0F0" stroke-width="1.06667" stroke-linecap="square"/>
<path d="M1537.6 281.886V29.7574" stroke="#F0F0F0" stroke-width="1.06667" stroke-linecap="square"/>
<path d="M54.1375 281.886H1537.6" stroke="#F0F0F0" stroke-width="1.06667" stroke-linecap="square"/>
<path d="M54.1375 29.7574H1537.6" stroke="#F0F0F0" stroke-width="1.06667" stroke-linecap="square"/>
<path d="M746.7 18.305V13.0075H748.137V18.25C748.137 19.0783 748.298 19.7 748.62 20.115C748.943 20.5283 749.428 20.735 750.075 20.735C750.85 20.735 751.462 20.4875 751.912 19.9925C752.364 19.4975 752.59 18.8225 752.59 17.9675V13.0075H754.027V21.7575H752.59V20.4125C752.241 20.9442 751.836 21.3392 751.375 21.5975C750.915 21.8558 750.38 21.985 749.77 21.985C748.765 21.985 748.001 21.6725 747.48 21.0475C746.96 20.4225 746.7 19.5083 746.7 18.305Z" fill="#F0F0F0"/>
<path d="M764.263 16.4751V21.7576H762.825V16.5226C762.825 15.6942 762.664 15.0751 762.34 14.6651C762.017 14.2534 761.533 14.0476 760.888 14.0476C760.111 14.0476 759.499 14.2951 759.05 14.7901C758.602 15.2834 758.378 15.9576 758.378 16.8126V21.7576H756.933V13.0076H758.378V14.3676C758.723 13.8409 759.128 13.4476 759.593 13.1876C760.059 12.9276 760.598 12.7976 761.208 12.7976C762.213 12.7976 762.973 13.1084 763.488 13.7301C764.004 14.3517 764.263 15.2667 764.263 16.4751Z" fill="#F0F0F0"/>
<path d="M767.128 13.0076H768.566V21.7576H767.128V13.0076ZM767.128 9.60007H768.566V11.4226H767.128V9.60007Z" fill="#F0F0F0"/>
<path d="M772.434 17.3901C772.434 18.4467 772.651 19.2759 773.086 19.8776C773.521 20.4792 774.119 20.7801 774.879 20.7801C775.639 20.7801 776.237 20.4792 776.674 19.8776C777.112 19.2759 777.331 18.4467 777.331 17.3901C777.331 16.3334 777.112 15.5042 776.674 14.9026C776.237 14.3009 775.639 14.0001 774.879 14.0001C774.119 14.0001 773.521 14.3009 773.086 14.9026C772.651 15.5042 772.434 16.3334 772.434 17.3901ZM777.331 20.4451C777.03 20.9651 776.648 21.3517 776.186 21.6051C775.726 21.8584 775.173 21.9851 774.526 21.9851C773.47 21.9851 772.609 21.5634 771.944 20.7201C771.28 19.8751 770.949 18.7651 770.949 17.3901C770.949 16.0151 771.28 14.9059 771.944 14.0626C772.609 13.2192 773.47 12.7976 774.526 12.7976C775.173 12.7976 775.726 12.9242 776.186 13.1776C776.648 13.4292 777.03 13.8151 777.331 14.3351V13.0076H778.769V25.0851H777.331V20.4451Z" fill="#F0F0F0"/>
<path d="M781.583 18.305V13.0075H783.02V18.25C783.02 19.0783 783.181 19.7 783.503 20.115C783.826 20.5283 784.311 20.735 784.958 20.735C785.733 20.735 786.345 20.4875 786.795 19.9925C787.247 19.4975 787.473 18.8225 787.473 17.9675V13.0075H788.91V21.7575H787.473V20.4125C787.124 20.9442 786.719 21.3392 786.258 21.5975C785.798 21.8558 785.263 21.985 784.653 21.985C783.648 21.985 782.884 21.6725 782.363 21.0475C781.843 20.4225 781.583 19.5083 781.583 18.305Z" fill="#F0F0F0"/>
<path d="M799.356 17.0225V17.725H792.746C792.809 18.715 793.107 19.4692 793.641 19.9875C794.174 20.5058 794.917 20.765 795.871 20.765C796.422 20.765 796.957 20.6975 797.476 20.5625C797.994 20.4275 798.509 20.2242 799.021 19.9525V21.3125C798.504 21.5308 797.975 21.6975 797.433 21.8125C796.891 21.9275 796.342 21.985 795.786 21.985C794.389 21.985 793.283 21.5792 792.468 20.7675C791.653 19.9542 791.246 18.8542 791.246 17.4675C791.246 16.0358 791.632 14.9 792.406 14.06C793.179 13.2183 794.222 12.7975 795.536 12.7975C796.712 12.7975 797.643 13.1767 798.328 13.935C799.013 14.6917 799.356 15.7208 799.356 17.0225ZM797.918 16.6C797.908 15.815 797.688 15.1883 797.258 14.72C796.828 14.25 796.259 14.015 795.551 14.015C794.749 14.015 794.107 14.2417 793.626 14.695C793.144 15.1483 792.866 15.7867 792.793 16.61L797.918 16.6Z" fill="#F0F0F0"/>
<path d="M808.364 24.415V25.53H800.049V24.415H808.364Z" fill="#F0F0F0"/>
<path d="M809.714 13.0076H811.152V21.7576H809.714V13.0076ZM809.714 9.60007H811.152V11.4226H809.714V9.60007Z" fill="#F0F0F0"/>
<path d="M819.917 14.335V9.59999H821.355V21.7575H819.917V20.445C819.616 20.965 819.234 21.3517 818.772 21.605C818.312 21.8583 817.759 21.985 817.112 21.985C816.056 21.985 815.195 21.5633 814.53 20.72C813.866 19.875 813.535 18.765 813.535 17.39C813.535 16.015 813.866 14.9058 814.53 14.0625C815.195 13.2192 816.056 12.7975 817.112 12.7975C817.759 12.7975 818.312 12.9242 818.772 13.1775C819.234 13.4292 819.616 13.815 819.917 14.335ZM815.02 17.39C815.02 18.4467 815.237 19.2758 815.672 19.8775C816.107 20.4792 816.705 20.78 817.465 20.78C818.225 20.78 818.823 20.4792 819.26 19.8775C819.698 19.2758 819.917 18.4467 819.917 17.39C819.917 16.3333 819.698 15.5042 819.26 14.9025C818.823 14.3008 818.225 14 817.465 14C816.705 14 816.107 14.3008 815.672 14.9025C815.237 15.5042 815.02 16.3333 815.02 17.39Z" fill="#F0F0F0"/>
<path d="M824.503 14.4926H834.518V15.8051H824.503V14.4926ZM824.503 17.6801H834.518V19.0076H824.503V17.6801Z" fill="#F0F0F0"/>
<path d="M841.3 11.1325C840.488 11.1325 839.877 11.5325 839.467 12.3325C839.059 13.1308 838.855 14.3325 838.855 15.9375C838.855 17.5358 839.059 18.735 839.467 19.535C839.877 20.335 840.488 20.735 841.3 20.735C842.118 20.735 842.731 20.335 843.14 19.535C843.55 18.735 843.755 17.5358 843.755 15.9375C843.755 14.3325 843.55 13.1308 843.14 12.3325C842.731 11.5325 842.118 11.1325 841.3 11.1325ZM841.3 9.88249C842.608 9.88249 843.607 10.4 844.297 11.435C844.987 12.4683 845.332 13.9692 845.332 15.9375C845.332 17.9008 844.987 19.4 844.297 20.435C843.607 21.4683 842.608 21.985 841.3 21.985C839.993 21.985 838.995 21.4683 838.305 20.435C837.615 19.4 837.27 17.9008 837.27 15.9375C837.27 13.9692 837.615 12.4683 838.305 11.435C838.995 10.4 839.993 9.88249 841.3 9.88249Z" fill="#F0F0F0"/>
<path opacity="0.8" d="M1566.29 45.9171H1616.85C1618.63 45.9171 1619.52 45.0283 1619.52 43.2505V25.013C1619.52 23.2352 1618.63 22.3463 1616.85 22.3463H1566.29C1564.52 22.3463 1563.63 23.2352 1563.63 25.013V43.2505C1563.63 45.0283 1564.52 45.9171 1566.29 45.9171Z" fill="#0C0C0C" stroke="#B9B9B9" stroke-width="1.33333"/>
<path d="M1568.96 33.1443H1582.29H1595.63" stroke="#02FEFA" stroke-width="2" stroke-linecap="square"/>
<path d="M1610.58 38.488C1610.25 39.3561 1609.92 39.9221 1609.59 40.1859C1609.27 40.4512 1608.84 40.5839 1608.31 40.5839H1607.35V39.5818H1608.05C1608.38 39.5818 1608.64 39.5033 1608.82 39.3464C1609 39.1908 1609.2 38.8221 1609.42 38.2401L1609.64 37.6943L1606.69 30.5193H1607.96L1610.24 36.2214L1612.52 30.5193H1613.79L1610.58 38.488Z" fill="#F0F0F0"/>
</g>
<rect x="2.5" y="2.5" width="1624.12" height="342.199" stroke="white" stroke-width="5"/>
<defs>
<clipPath id="clip0_29_3228">
<rect width="1629.12" height="347.199" fill="white"/>
</clipPath>
</defs>
</svg>
