<?xml version="1.0" encoding="utf-8" standalone="no"?>
<!DOCTYPE svg PUBLIC "-//W3C//DTD SVG 1.1//EN"
  "http://www.w3.org/Graphics/SVG/1.1/DTD/svg11.dtd">
<!-- Created with matplotlib (https://matplotlib.org/) -->
<svg height="648pt" version="1.1" viewBox="0 0 864 648" width="864pt" xmlns="http://www.w3.org/2000/svg" xmlns:xlink="http://www.w3.org/1999/xlink">
 <defs>
  <style type="text/css">
*{stroke-linecap:butt;stroke-linejoin:round;}
  </style>
 </defs>
 <g id="figure_1">
  <g id="patch_1">
   <path d="M 0 648 
L 864 648 
L 864 0 
L 0 0 
z
" style="fill:#121212;"/>
  </g>
  <g id="axes_1">
   <g id="patch_2">
    <path d="M 57.44 294.76 
L 853.2 294.76 
L 853.2 25.44 
L 57.44 25.44 
z
" style="fill:#121212;"/>
   </g>
   <g id="PolyCollection_1">
    <path clip-path="url(#p1273f16cde)" d="M 787.859003 103.261885 
L 787.859003 108.642125 
L 790.776012 109.889963 
L 793.693021 124.585649 
L 796.610029 152.059195 
L 799.527038 152.517704 
L 802.444047 118.256227 
L 805.361056 110.02999 
L 805.361056 100.370771 
L 805.361056 100.370771 
L 802.444047 100.184295 
L 799.527038 138.20033 
L 796.610029 138.415696 
L 793.693021 103.277931 
L 790.776012 103.24904 
L 787.859003 103.261885 
z
" style="fill:#8dd3c7;fill-opacity:0.108;"/>
   </g>
   <g id="PolyCollection_2">
    <path clip-path="url(#p1273f16cde)" d="M 790.776012 103.796559 
L 790.776012 108.090253 
L 793.693021 123.223472 
L 796.610029 152.612219 
L 799.527038 151.207803 
L 802.444047 115.093585 
L 805.361056 108.574234 
L 808.278065 110.509474 
L 808.278065 99.756009 
L 808.278065 99.756009 
L 805.361056 100.834496 
L 802.444047 99.974757 
L 799.527038 138.241525 
L 796.610029 138.668696 
L 793.693021 102.97967 
L 790.776012 103.796559 
z
" style="fill:#feffb3;fill-opacity:0.156;"/>
   </g>
   <g id="PolyCollection_3">
    <path clip-path="url(#p1273f16cde)" d="M 793.693021 103.405222 
L 793.693021 124.668651 
L 796.610029 153.006866 
L 799.527038 150.914004 
L 802.444047 116.112133 
L 805.361056 108.465471 
L 808.278065 111.888705 
L 811.195073 113.564649 
L 811.195073 100.352422 
L 811.195073 100.352422 
L 808.278065 100.011455 
L 805.361056 101.349023 
L 802.444047 100.252654 
L 799.527038 138.331219 
L 796.610029 138.832326 
L 793.693021 103.405222 
z
" style="fill:#bfbbd9;fill-opacity:0.204;"/>
   </g>
   <g id="PolyCollection_4">
    <path clip-path="url(#p1273f16cde)" d="M 796.610029 138.559034 
L 796.610029 149.917188 
L 799.527038 148.377314 
L 802.444047 110.206428 
L 805.361056 104.847955 
L 808.278065 107.75918 
L 811.195073 108.039128 
L 814.112082 127.226677 
L 814.112082 98.840647 
L 814.112082 98.840647 
L 811.195073 100.326266 
L 808.278065 100.287157 
L 805.361056 101.13103 
L 802.444047 100.498602 
L 799.527038 138.553349 
L 796.610029 138.559034 
z
" style="fill:#fa8174;fill-opacity:0.252;"/>
   </g>
   <g id="PolyCollection_5">
    <path clip-path="url(#p1273f16cde)" d="M 799.527038 138.221557 
L 799.527038 147.410791 
L 802.444047 108.175306 
L 805.361056 101.408927 
L 808.278065 106.514688 
L 811.195073 109.119018 
L 814.112082 125.124353 
L 817.029091 151.077274 
L 817.029091 135.389952 
L 817.029091 135.389952 
L 814.112082 99.07904 
L 811.195073 100.399878 
L 808.278065 100.069848 
L 805.361056 100.969559 
L 802.444047 100.231931 
L 799.527038 138.221557 
z
" style="fill:#81b1d2;fill-opacity:0.3;"/>
   </g>
   <g id="matplotlib.axis_1">
    <g id="xtick_1">
     <g id="line2d_1">
      <path clip-path="url(#p1273f16cde)" d="M 93.610909 294.76 
L 93.610909 25.44 
" style="fill:none;stroke:#ffffff;stroke-linecap:square;stroke-opacity:0.25;stroke-width:0.8;"/>
     </g>
     <g id="line2d_2">
      <defs>
       <path d="M 0 0 
L 0 3.5 
" id="m29901e472f" style="stroke:#ffffff;stroke-width:0.8;"/>
      </defs>
      <g>
       <use style="fill:#ffffff;stroke:#ffffff;stroke-width:0.8;" x="93.610909" xlink:href="#m29901e472f" y="294.76"/>
      </g>
     </g>
     <g id="text_1">
      <!-- 2025-01 -->
      <defs>
       <path d="M 19.1875 8.296875 
L 53.609375 8.296875 
L 53.609375 0 
L 7.328125 0 
L 7.328125 8.296875 
Q 12.9375 14.109375 22.625 23.890625 
Q 32.328125 33.6875 34.8125 36.53125 
Q 39.546875 41.84375 41.421875 45.53125 
Q 43.3125 49.21875 43.3125 52.78125 
Q 43.3125 58.59375 39.234375 62.25 
Q 35.15625 65.921875 28.609375 65.921875 
Q 23.96875 65.921875 18.8125 64.3125 
Q 13.671875 62.703125 7.8125 59.421875 
L 7.8125 69.390625 
Q 13.765625 71.78125 18.9375 73 
Q 24.125 74.21875 28.421875 74.21875 
Q 39.75 74.21875 46.484375 68.546875 
Q 53.21875 62.890625 53.21875 53.421875 
Q 53.21875 48.921875 51.53125 44.890625 
Q 49.859375 40.875 45.40625 35.40625 
Q 44.1875 33.984375 37.640625 27.21875 
Q 31.109375 20.453125 19.1875 8.296875 
z
" id="DejaVuSans-50"/>
       <path d="M 31.78125 66.40625 
Q 24.171875 66.40625 20.328125 58.90625 
Q 16.5 51.421875 16.5 36.375 
Q 16.5 21.390625 20.328125 13.890625 
Q 24.171875 6.390625 31.78125 6.390625 
Q 39.453125 6.390625 43.28125 13.890625 
Q 47.125 21.390625 47.125 36.375 
Q 47.125 51.421875 43.28125 58.90625 
Q 39.453125 66.40625 31.78125 66.40625 
z
M 31.78125 74.21875 
Q 44.046875 74.21875 50.515625 64.515625 
Q 56.984375 54.828125 56.984375 36.375 
Q 56.984375 17.96875 50.515625 8.265625 
Q 44.046875 -1.421875 31.78125 -1.421875 
Q 19.53125 -1.421875 13.0625 8.265625 
Q 6.59375 17.96875 6.59375 36.375 
Q 6.59375 54.828125 13.0625 64.515625 
Q 19.53125 74.21875 31.78125 74.21875 
z
" id="DejaVuSans-48"/>
       <path d="M 10.796875 72.90625 
L 49.515625 72.90625 
L 49.515625 64.59375 
L 19.828125 64.59375 
L 19.828125 46.734375 
Q 21.96875 47.46875 24.109375 47.828125 
Q 26.265625 48.1875 28.421875 48.1875 
Q 40.625 48.1875 47.75 41.5 
Q 54.890625 34.8125 54.890625 23.390625 
Q 54.890625 11.625 47.5625 5.09375 
Q 40.234375 -1.421875 26.90625 -1.421875 
Q 22.3125 -1.421875 17.546875 -0.640625 
Q 12.796875 0.140625 7.71875 1.703125 
L 7.71875 11.625 
Q 12.109375 9.234375 16.796875 8.0625 
Q 21.484375 6.890625 26.703125 6.890625 
Q 35.15625 6.890625 40.078125 11.328125 
Q 45.015625 15.765625 45.015625 23.390625 
Q 45.015625 31 40.078125 35.4375 
Q 35.15625 39.890625 26.703125 39.890625 
Q 22.75 39.890625 18.8125 39.015625 
Q 14.890625 38.140625 10.796875 36.28125 
z
" id="DejaVuSans-53"/>
       <path d="M 4.890625 31.390625 
L 31.203125 31.390625 
L 31.203125 23.390625 
L 4.890625 23.390625 
z
" id="DejaVuSans-45"/>
       <path d="M 12.40625 8.296875 
L 28.515625 8.296875 
L 28.515625 63.921875 
L 10.984375 60.40625 
L 10.984375 69.390625 
L 28.421875 72.90625 
L 38.28125 72.90625 
L 38.28125 8.296875 
L 54.390625 8.296875 
L 54.390625 0 
L 12.40625 0 
z
" id="DejaVuSans-49"/>
      </defs>
      <g style="fill:#ffffff;" transform="translate(72.719503 309.358437)scale(0.1 -0.1)">
       <use xlink:href="#DejaVuSans-50"/>
       <use x="63.623047" xlink:href="#DejaVuSans-48"/>
       <use x="127.246094" xlink:href="#DejaVuSans-50"/>
       <use x="190.869141" xlink:href="#DejaVuSans-53"/>
       <use x="254.492188" xlink:href="#DejaVuSans-45"/>
       <use x="290.576172" xlink:href="#DejaVuSans-48"/>
       <use x="354.199219" xlink:href="#DejaVuSans-49"/>
      </g>
     </g>
    </g>
    <g id="xtick_2">
     <g id="line2d_3">
      <path clip-path="url(#p1273f16cde)" d="M 184.038182 294.76 
L 184.038182 25.44 
" style="fill:none;stroke:#ffffff;stroke-linecap:square;stroke-opacity:0.25;stroke-width:0.8;"/>
     </g>
     <g id="line2d_4">
      <g>
       <use style="fill:#ffffff;stroke:#ffffff;stroke-width:0.8;" x="184.038182" xlink:href="#m29901e472f" y="294.76"/>
      </g>
     </g>
     <g id="text_2">
      <!-- 2025-02 -->
      <g style="fill:#ffffff;" transform="translate(163.146776 309.358437)scale(0.1 -0.1)">
       <use xlink:href="#DejaVuSans-50"/>
       <use x="63.623047" xlink:href="#DejaVuSans-48"/>
       <use x="127.246094" xlink:href="#DejaVuSans-50"/>
       <use x="190.869141" xlink:href="#DejaVuSans-53"/>
       <use x="254.492188" xlink:href="#DejaVuSans-45"/>
       <use x="290.576172" xlink:href="#DejaVuSans-48"/>
       <use x="354.199219" xlink:href="#DejaVuSans-50"/>
      </g>
     </g>
    </g>
    <g id="xtick_3">
     <g id="line2d_5">
      <path clip-path="url(#p1273f16cde)" d="M 265.714428 294.76 
L 265.714428 25.44 
" style="fill:none;stroke:#ffffff;stroke-linecap:square;stroke-opacity:0.25;stroke-width:0.8;"/>
     </g>
     <g id="line2d_6">
      <g>
       <use style="fill:#ffffff;stroke:#ffffff;stroke-width:0.8;" x="265.714428" xlink:href="#m29901e472f" y="294.76"/>
      </g>
     </g>
     <g id="text_3">
      <!-- 2025-03 -->
      <defs>
       <path d="M 40.578125 39.3125 
Q 47.65625 37.796875 51.625 33 
Q 55.609375 28.21875 55.609375 21.1875 
Q 55.609375 10.40625 48.1875 4.484375 
Q 40.765625 -1.421875 27.09375 -1.421875 
Q 22.515625 -1.421875 17.65625 -0.515625 
Q 12.796875 0.390625 7.625 2.203125 
L 7.625 11.71875 
Q 11.71875 9.328125 16.59375 8.109375 
Q 21.484375 6.890625 26.8125 6.890625 
Q 36.078125 6.890625 40.9375 10.546875 
Q 45.796875 14.203125 45.796875 21.1875 
Q 45.796875 27.640625 41.28125 31.265625 
Q 36.765625 34.90625 28.71875 34.90625 
L 20.21875 34.90625 
L 20.21875 43.015625 
L 29.109375 43.015625 
Q 36.375 43.015625 40.234375 45.921875 
Q 44.09375 48.828125 44.09375 54.296875 
Q 44.09375 59.90625 40.109375 62.90625 
Q 36.140625 65.921875 28.71875 65.921875 
Q 24.65625 65.921875 20.015625 65.03125 
Q 15.375 64.15625 9.8125 62.3125 
L 9.8125 71.09375 
Q 15.4375 72.65625 20.34375 73.4375 
Q 25.25 74.21875 29.59375 74.21875 
Q 40.828125 74.21875 47.359375 69.109375 
Q 53.90625 64.015625 53.90625 55.328125 
Q 53.90625 49.265625 50.4375 45.09375 
Q 46.96875 40.921875 40.578125 39.3125 
z
" id="DejaVuSans-51"/>
      </defs>
      <g style="fill:#ffffff;" transform="translate(244.823022 309.358437)scale(0.1 -0.1)">
       <use xlink:href="#DejaVuSans-50"/>
       <use x="63.623047" xlink:href="#DejaVuSans-48"/>
       <use x="127.246094" xlink:href="#DejaVuSans-50"/>
       <use x="190.869141" xlink:href="#DejaVuSans-53"/>
       <use x="254.492188" xlink:href="#DejaVuSans-45"/>
       <use x="290.576172" xlink:href="#DejaVuSans-48"/>
       <use x="354.199219" xlink:href="#DejaVuSans-51"/>
      </g>
     </g>
    </g>
    <g id="xtick_4">
     <g id="line2d_7">
      <path clip-path="url(#p1273f16cde)" d="M 356.141701 294.76 
L 356.141701 25.44 
" style="fill:none;stroke:#ffffff;stroke-linecap:square;stroke-opacity:0.25;stroke-width:0.8;"/>
     </g>
     <g id="line2d_8">
      <g>
       <use style="fill:#ffffff;stroke:#ffffff;stroke-width:0.8;" x="356.141701" xlink:href="#m29901e472f" y="294.76"/>
      </g>
     </g>
     <g id="text_4">
      <!-- 2025-04 -->
      <defs>
       <path d="M 37.796875 64.3125 
L 12.890625 25.390625 
L 37.796875 25.390625 
z
M 35.203125 72.90625 
L 47.609375 72.90625 
L 47.609375 25.390625 
L 58.015625 25.390625 
L 58.015625 17.1875 
L 47.609375 17.1875 
L 47.609375 0 
L 37.796875 0 
L 37.796875 17.1875 
L 4.890625 17.1875 
L 4.890625 26.703125 
z
" id="DejaVuSans-52"/>
      </defs>
      <g style="fill:#ffffff;" transform="translate(335.250295 309.358437)scale(0.1 -0.1)">
       <use xlink:href="#DejaVuSans-50"/>
       <use x="63.623047" xlink:href="#DejaVuSans-48"/>
       <use x="127.246094" xlink:href="#DejaVuSans-50"/>
       <use x="190.869141" xlink:href="#DejaVuSans-53"/>
       <use x="254.492188" xlink:href="#DejaVuSans-45"/>
       <use x="290.576172" xlink:href="#DejaVuSans-48"/>
       <use x="354.199219" xlink:href="#DejaVuSans-52"/>
      </g>
     </g>
    </g>
    <g id="xtick_5">
     <g id="line2d_9">
      <path clip-path="url(#p1273f16cde)" d="M 443.651965 294.76 
L 443.651965 25.44 
" style="fill:none;stroke:#ffffff;stroke-linecap:square;stroke-opacity:0.25;stroke-width:0.8;"/>
     </g>
     <g id="line2d_10">
      <g>
       <use style="fill:#ffffff;stroke:#ffffff;stroke-width:0.8;" x="443.651965" xlink:href="#m29901e472f" y="294.76"/>
      </g>
     </g>
     <g id="text_5">
      <!-- 2025-05 -->
      <g style="fill:#ffffff;" transform="translate(422.760559 309.358437)scale(0.1 -0.1)">
       <use xlink:href="#DejaVuSans-50"/>
       <use x="63.623047" xlink:href="#DejaVuSans-48"/>
       <use x="127.246094" xlink:href="#DejaVuSans-50"/>
       <use x="190.869141" xlink:href="#DejaVuSans-53"/>
       <use x="254.492188" xlink:href="#DejaVuSans-45"/>
       <use x="290.576172" xlink:href="#DejaVuSans-48"/>
       <use x="354.199219" xlink:href="#DejaVuSans-53"/>
      </g>
     </g>
    </g>
    <g id="xtick_6">
     <g id="line2d_11">
      <path clip-path="url(#p1273f16cde)" d="M 534.079238 294.76 
L 534.079238 25.44 
" style="fill:none;stroke:#ffffff;stroke-linecap:square;stroke-opacity:0.25;stroke-width:0.8;"/>
     </g>
     <g id="line2d_12">
      <g>
       <use style="fill:#ffffff;stroke:#ffffff;stroke-width:0.8;" x="534.079238" xlink:href="#m29901e472f" y="294.76"/>
      </g>
     </g>
     <g id="text_6">
      <!-- 2025-06 -->
      <defs>
       <path d="M 33.015625 40.375 
Q 26.375 40.375 22.484375 35.828125 
Q 18.609375 31.296875 18.609375 23.390625 
Q 18.609375 15.53125 22.484375 10.953125 
Q 26.375 6.390625 33.015625 6.390625 
Q 39.65625 6.390625 43.53125 10.953125 
Q 47.40625 15.53125 47.40625 23.390625 
Q 47.40625 31.296875 43.53125 35.828125 
Q 39.65625 40.375 33.015625 40.375 
z
M 52.59375 71.296875 
L 52.59375 62.3125 
Q 48.875 64.0625 45.09375 64.984375 
Q 41.3125 65.921875 37.59375 65.921875 
Q 27.828125 65.921875 22.671875 59.328125 
Q 17.53125 52.734375 16.796875 39.40625 
Q 19.671875 43.65625 24.015625 45.921875 
Q 28.375 48.1875 33.59375 48.1875 
Q 44.578125 48.1875 50.953125 41.515625 
Q 57.328125 34.859375 57.328125 23.390625 
Q 57.328125 12.15625 50.6875 5.359375 
Q 44.046875 -1.421875 33.015625 -1.421875 
Q 20.359375 -1.421875 13.671875 8.265625 
Q 6.984375 17.96875 6.984375 36.375 
Q 6.984375 53.65625 15.1875 63.9375 
Q 23.390625 74.21875 37.203125 74.21875 
Q 40.921875 74.21875 44.703125 73.484375 
Q 48.484375 72.75 52.59375 71.296875 
z
" id="DejaVuSans-54"/>
      </defs>
      <g style="fill:#ffffff;" transform="translate(513.187831 309.358437)scale(0.1 -0.1)">
       <use xlink:href="#DejaVuSans-50"/>
       <use x="63.623047" xlink:href="#DejaVuSans-48"/>
       <use x="127.246094" xlink:href="#DejaVuSans-50"/>
       <use x="190.869141" xlink:href="#DejaVuSans-53"/>
       <use x="254.492188" xlink:href="#DejaVuSans-45"/>
       <use x="290.576172" xlink:href="#DejaVuSans-48"/>
       <use x="354.199219" xlink:href="#DejaVuSans-54"/>
      </g>
     </g>
    </g>
    <g id="xtick_7">
     <g id="line2d_13">
      <path clip-path="url(#p1273f16cde)" d="M 621.589501 294.76 
L 621.589501 25.44 
" style="fill:none;stroke:#ffffff;stroke-linecap:square;stroke-opacity:0.25;stroke-width:0.8;"/>
     </g>
     <g id="line2d_14">
      <g>
       <use style="fill:#ffffff;stroke:#ffffff;stroke-width:0.8;" x="621.589501" xlink:href="#m29901e472f" y="294.76"/>
      </g>
     </g>
     <g id="text_7">
      <!-- 2025-07 -->
      <defs>
       <path d="M 8.203125 72.90625 
L 55.078125 72.90625 
L 55.078125 68.703125 
L 28.609375 0 
L 18.3125 0 
L 43.21875 64.59375 
L 8.203125 64.59375 
z
" id="DejaVuSans-55"/>
      </defs>
      <g style="fill:#ffffff;" transform="translate(600.698095 309.358437)scale(0.1 -0.1)">
       <use xlink:href="#DejaVuSans-50"/>
       <use x="63.623047" xlink:href="#DejaVuSans-48"/>
       <use x="127.246094" xlink:href="#DejaVuSans-50"/>
       <use x="190.869141" xlink:href="#DejaVuSans-53"/>
       <use x="254.492188" xlink:href="#DejaVuSans-45"/>
       <use x="290.576172" xlink:href="#DejaVuSans-48"/>
       <use x="354.199219" xlink:href="#DejaVuSans-55"/>
      </g>
     </g>
    </g>
    <g id="xtick_8">
     <g id="line2d_15">
      <path clip-path="url(#p1273f16cde)" d="M 712.016774 294.76 
L 712.016774 25.44 
" style="fill:none;stroke:#ffffff;stroke-linecap:square;stroke-opacity:0.25;stroke-width:0.8;"/>
     </g>
     <g id="line2d_16">
      <g>
       <use style="fill:#ffffff;stroke:#ffffff;stroke-width:0.8;" x="712.016774" xlink:href="#m29901e472f" y="294.76"/>
      </g>
     </g>
     <g id="text_8">
      <!-- 2025-08 -->
      <defs>
       <path d="M 31.78125 34.625 
Q 24.75 34.625 20.71875 30.859375 
Q 16.703125 27.09375 16.703125 20.515625 
Q 16.703125 13.921875 20.71875 10.15625 
Q 24.75 6.390625 31.78125 6.390625 
Q 38.8125 6.390625 42.859375 10.171875 
Q 46.921875 13.96875 46.921875 20.515625 
Q 46.921875 27.09375 42.890625 30.859375 
Q 38.875 34.625 31.78125 34.625 
z
M 21.921875 38.8125 
Q 15.578125 40.375 12.03125 44.71875 
Q 8.5 49.078125 8.5 55.328125 
Q 8.5 64.0625 14.71875 69.140625 
Q 20.953125 74.21875 31.78125 74.21875 
Q 42.671875 74.21875 48.875 69.140625 
Q 55.078125 64.0625 55.078125 55.328125 
Q 55.078125 49.078125 51.53125 44.71875 
Q 48 40.375 41.703125 38.8125 
Q 48.828125 37.15625 52.796875 32.3125 
Q 56.78125 27.484375 56.78125 20.515625 
Q 56.78125 9.90625 50.3125 4.234375 
Q 43.84375 -1.421875 31.78125 -1.421875 
Q 19.734375 -1.421875 13.25 4.234375 
Q 6.78125 9.90625 6.78125 20.515625 
Q 6.78125 27.484375 10.78125 32.3125 
Q 14.796875 37.15625 21.921875 38.8125 
z
M 18.3125 54.390625 
Q 18.3125 48.734375 21.84375 45.5625 
Q 25.390625 42.390625 31.78125 42.390625 
Q 38.140625 42.390625 41.71875 45.5625 
Q 45.3125 48.734375 45.3125 54.390625 
Q 45.3125 60.0625 41.71875 63.234375 
Q 38.140625 66.40625 31.78125 66.40625 
Q 25.390625 66.40625 21.84375 63.234375 
Q 18.3125 60.0625 18.3125 54.390625 
z
" id="DejaVuSans-56"/>
      </defs>
      <g style="fill:#ffffff;" transform="translate(691.125368 309.358437)scale(0.1 -0.1)">
       <use xlink:href="#DejaVuSans-50"/>
       <use x="63.623047" xlink:href="#DejaVuSans-48"/>
       <use x="127.246094" xlink:href="#DejaVuSans-50"/>
       <use x="190.869141" xlink:href="#DejaVuSans-53"/>
       <use x="254.492188" xlink:href="#DejaVuSans-45"/>
       <use x="290.576172" xlink:href="#DejaVuSans-48"/>
       <use x="354.199219" xlink:href="#DejaVuSans-56"/>
      </g>
     </g>
    </g>
    <g id="xtick_9">
     <g id="line2d_17">
      <path clip-path="url(#p1273f16cde)" d="M 802.444047 294.76 
L 802.444047 25.44 
" style="fill:none;stroke:#ffffff;stroke-linecap:square;stroke-opacity:0.25;stroke-width:0.8;"/>
     </g>
     <g id="line2d_18">
      <g>
       <use style="fill:#ffffff;stroke:#ffffff;stroke-width:0.8;" x="802.444047" xlink:href="#m29901e472f" y="294.76"/>
      </g>
     </g>
     <g id="text_9">
      <!-- 2025-09 -->
      <defs>
       <path d="M 10.984375 1.515625 
L 10.984375 10.5 
Q 14.703125 8.734375 18.5 7.8125 
Q 22.3125 6.890625 25.984375 6.890625 
Q 35.75 6.890625 40.890625 13.453125 
Q 46.046875 20.015625 46.78125 33.40625 
Q 43.953125 29.203125 39.59375 26.953125 
Q 35.25 24.703125 29.984375 24.703125 
Q 19.046875 24.703125 12.671875 31.3125 
Q 6.296875 37.9375 6.296875 49.421875 
Q 6.296875 60.640625 12.9375 67.421875 
Q 19.578125 74.21875 30.609375 74.21875 
Q 43.265625 74.21875 49.921875 64.515625 
Q 56.59375 54.828125 56.59375 36.375 
Q 56.59375 19.140625 48.40625 8.859375 
Q 40.234375 -1.421875 26.421875 -1.421875 
Q 22.703125 -1.421875 18.890625 -0.6875 
Q 15.09375 0.046875 10.984375 1.515625 
z
M 30.609375 32.421875 
Q 37.25 32.421875 41.125 36.953125 
Q 45.015625 41.5 45.015625 49.421875 
Q 45.015625 57.28125 41.125 61.84375 
Q 37.25 66.40625 30.609375 66.40625 
Q 23.96875 66.40625 20.09375 61.84375 
Q 16.21875 57.28125 16.21875 49.421875 
Q 16.21875 41.5 20.09375 36.953125 
Q 23.96875 32.421875 30.609375 32.421875 
z
" id="DejaVuSans-57"/>
      </defs>
      <g style="fill:#ffffff;" transform="translate(781.552641 309.358437)scale(0.1 -0.1)">
       <use xlink:href="#DejaVuSans-50"/>
       <use x="63.623047" xlink:href="#DejaVuSans-48"/>
       <use x="127.246094" xlink:href="#DejaVuSans-50"/>
       <use x="190.869141" xlink:href="#DejaVuSans-53"/>
       <use x="254.492188" xlink:href="#DejaVuSans-45"/>
       <use x="290.576172" xlink:href="#DejaVuSans-48"/>
       <use x="354.199219" xlink:href="#DejaVuSans-57"/>
      </g>
     </g>
    </g>
    <g id="text_10">
     <!-- Date -->
     <defs>
      <path d="M 19.671875 64.796875 
L 19.671875 8.109375 
L 31.59375 8.109375 
Q 46.6875 8.109375 53.6875 14.9375 
Q 60.6875 21.78125 60.6875 36.53125 
Q 60.6875 51.171875 53.6875 57.984375 
Q 46.6875 64.796875 31.59375 64.796875 
z
M 9.8125 72.90625 
L 30.078125 72.90625 
Q 51.265625 72.90625 61.171875 64.09375 
Q 71.09375 55.28125 71.09375 36.53125 
Q 71.09375 17.671875 61.125 8.828125 
Q 51.171875 0 30.078125 0 
L 9.8125 0 
z
" id="DejaVuSans-68"/>
      <path d="M 34.28125 27.484375 
Q 23.390625 27.484375 19.1875 25 
Q 14.984375 22.515625 14.984375 16.5 
Q 14.984375 11.71875 18.140625 8.90625 
Q 21.296875 6.109375 26.703125 6.109375 
Q 34.1875 6.109375 38.703125 11.40625 
Q 43.21875 16.703125 43.21875 25.484375 
L 43.21875 27.484375 
z
M 52.203125 31.203125 
L 52.203125 0 
L 43.21875 0 
L 43.21875 8.296875 
Q 40.140625 3.328125 35.546875 0.953125 
Q 30.953125 -1.421875 24.3125 -1.421875 
Q 15.921875 -1.421875 10.953125 3.296875 
Q 6 8.015625 6 15.921875 
Q 6 25.140625 12.171875 29.828125 
Q 18.359375 34.515625 30.609375 34.515625 
L 43.21875 34.515625 
L 43.21875 35.40625 
Q 43.21875 41.609375 39.140625 45 
Q 35.0625 48.390625 27.6875 48.390625 
Q 23 48.390625 18.546875 47.265625 
Q 14.109375 46.140625 10.015625 43.890625 
L 10.015625 52.203125 
Q 14.9375 54.109375 19.578125 55.046875 
Q 24.21875 56 28.609375 56 
Q 40.484375 56 46.34375 49.84375 
Q 52.203125 43.703125 52.203125 31.203125 
z
" id="DejaVuSans-97"/>
      <path d="M 18.3125 70.21875 
L 18.3125 54.6875 
L 36.8125 54.6875 
L 36.8125 47.703125 
L 18.3125 47.703125 
L 18.3125 18.015625 
Q 18.3125 11.328125 20.140625 9.421875 
Q 21.96875 7.515625 27.59375 7.515625 
L 36.8125 7.515625 
L 36.8125 0 
L 27.59375 0 
Q 17.1875 0 13.234375 3.875 
Q 9.28125 7.765625 9.28125 18.015625 
L 9.28125 47.703125 
L 2.6875 47.703125 
L 2.6875 54.6875 
L 9.28125 54.6875 
L 9.28125 70.21875 
z
" id="DejaVuSans-116"/>
      <path d="M 56.203125 29.59375 
L 56.203125 25.203125 
L 14.890625 25.203125 
Q 15.484375 15.921875 20.484375 11.0625 
Q 25.484375 6.203125 34.421875 6.203125 
Q 39.59375 6.203125 44.453125 7.46875 
Q 49.3125 8.734375 54.109375 11.28125 
L 54.109375 2.78125 
Q 49.265625 0.734375 44.1875 -0.34375 
Q 39.109375 -1.421875 33.890625 -1.421875 
Q 20.796875 -1.421875 13.15625 6.1875 
Q 5.515625 13.8125 5.515625 26.8125 
Q 5.515625 40.234375 12.765625 48.109375 
Q 20.015625 56 32.328125 56 
Q 43.359375 56 49.78125 48.890625 
Q 56.203125 41.796875 56.203125 29.59375 
z
M 47.21875 32.234375 
Q 47.125 39.59375 43.09375 43.984375 
Q 39.0625 48.390625 32.421875 48.390625 
Q 24.90625 48.390625 20.390625 44.140625 
Q 15.875 39.890625 15.1875 32.171875 
z
" id="DejaVuSans-101"/>
     </defs>
     <g style="fill:#ffffff;" transform="translate(443.369219 323.036562)scale(0.1 -0.1)">
      <use xlink:href="#DejaVuSans-68"/>
      <use x="77.001953" xlink:href="#DejaVuSans-97"/>
      <use x="138.28125" xlink:href="#DejaVuSans-116"/>
      <use x="177.490234" xlink:href="#DejaVuSans-101"/>
     </g>
    </g>
   </g>
   <g id="matplotlib.axis_2">
    <g id="ytick_1">
     <g id="line2d_19">
      <path clip-path="url(#p1273f16cde)" d="M 57.44 260.560586 
L 853.2 260.560586 
" style="fill:none;stroke:#ffffff;stroke-linecap:square;stroke-opacity:0.25;stroke-width:0.8;"/>
     </g>
     <g id="line2d_20">
      <defs>
       <path d="M 0 0 
L -3.5 0 
" id="m23d5f880c1" style="stroke:#ffffff;stroke-width:0.8;"/>
      </defs>
      <g>
       <use style="fill:#ffffff;stroke:#ffffff;stroke-width:0.8;" x="57.44" xlink:href="#m23d5f880c1" y="260.560586"/>
      </g>
     </g>
     <g id="text_11">
      <!-- 2800 -->
      <g style="fill:#ffffff;" transform="translate(24.99 264.359805)scale(0.1 -0.1)">
       <use xlink:href="#DejaVuSans-50"/>
       <use x="63.623047" xlink:href="#DejaVuSans-56"/>
       <use x="127.246094" xlink:href="#DejaVuSans-48"/>
       <use x="190.869141" xlink:href="#DejaVuSans-48"/>
      </g>
     </g>
    </g>
    <g id="ytick_2">
     <g id="line2d_21">
      <path clip-path="url(#p1273f16cde)" d="M 57.44 224.582223 
L 853.2 224.582223 
" style="fill:none;stroke:#ffffff;stroke-linecap:square;stroke-opacity:0.25;stroke-width:0.8;"/>
     </g>
     <g id="line2d_22">
      <g>
       <use style="fill:#ffffff;stroke:#ffffff;stroke-width:0.8;" x="57.44" xlink:href="#m23d5f880c1" y="224.582223"/>
      </g>
     </g>
     <g id="text_12">
      <!-- 2900 -->
      <g style="fill:#ffffff;" transform="translate(24.99 228.381441)scale(0.1 -0.1)">
       <use xlink:href="#DejaVuSans-50"/>
       <use x="63.623047" xlink:href="#DejaVuSans-57"/>
       <use x="127.246094" xlink:href="#DejaVuSans-48"/>
       <use x="190.869141" xlink:href="#DejaVuSans-48"/>
      </g>
     </g>
    </g>
    <g id="ytick_3">
     <g id="line2d_23">
      <path clip-path="url(#p1273f16cde)" d="M 57.44 188.603859 
L 853.2 188.603859 
" style="fill:none;stroke:#ffffff;stroke-linecap:square;stroke-opacity:0.25;stroke-width:0.8;"/>
     </g>
     <g id="line2d_24">
      <g>
       <use style="fill:#ffffff;stroke:#ffffff;stroke-width:0.8;" x="57.44" xlink:href="#m23d5f880c1" y="188.603859"/>
      </g>
     </g>
     <g id="text_13">
      <!-- 3000 -->
      <g style="fill:#ffffff;" transform="translate(24.99 192.403077)scale(0.1 -0.1)">
       <use xlink:href="#DejaVuSans-51"/>
       <use x="63.623047" xlink:href="#DejaVuSans-48"/>
       <use x="127.246094" xlink:href="#DejaVuSans-48"/>
       <use x="190.869141" xlink:href="#DejaVuSans-48"/>
      </g>
     </g>
    </g>
    <g id="ytick_4">
     <g id="line2d_25">
      <path clip-path="url(#p1273f16cde)" d="M 57.44 152.625495 
L 853.2 152.625495 
" style="fill:none;stroke:#ffffff;stroke-linecap:square;stroke-opacity:0.25;stroke-width:0.8;"/>
     </g>
     <g id="line2d_26">
      <g>
       <use style="fill:#ffffff;stroke:#ffffff;stroke-width:0.8;" x="57.44" xlink:href="#m23d5f880c1" y="152.625495"/>
      </g>
     </g>
     <g id="text_14">
      <!-- 3100 -->
      <g style="fill:#ffffff;" transform="translate(24.99 156.424714)scale(0.1 -0.1)">
       <use xlink:href="#DejaVuSans-51"/>
       <use x="63.623047" xlink:href="#DejaVuSans-49"/>
       <use x="127.246094" xlink:href="#DejaVuSans-48"/>
       <use x="190.869141" xlink:href="#DejaVuSans-48"/>
      </g>
     </g>
    </g>
    <g id="ytick_5">
     <g id="line2d_27">
      <path clip-path="url(#p1273f16cde)" d="M 57.44 116.647131 
L 853.2 116.647131 
" style="fill:none;stroke:#ffffff;stroke-linecap:square;stroke-opacity:0.25;stroke-width:0.8;"/>
     </g>
     <g id="line2d_28">
      <g>
       <use style="fill:#ffffff;stroke:#ffffff;stroke-width:0.8;" x="57.44" xlink:href="#m23d5f880c1" y="116.647131"/>
      </g>
     </g>
     <g id="text_15">
      <!-- 3200 -->
      <g style="fill:#ffffff;" transform="translate(24.99 120.44635)scale(0.1 -0.1)">
       <use xlink:href="#DejaVuSans-51"/>
       <use x="63.623047" xlink:href="#DejaVuSans-50"/>
       <use x="127.246094" xlink:href="#DejaVuSans-48"/>
       <use x="190.869141" xlink:href="#DejaVuSans-48"/>
      </g>
     </g>
    </g>
    <g id="ytick_6">
     <g id="line2d_29">
      <path clip-path="url(#p1273f16cde)" d="M 57.44 80.668767 
L 853.2 80.668767 
" style="fill:none;stroke:#ffffff;stroke-linecap:square;stroke-opacity:0.25;stroke-width:0.8;"/>
     </g>
     <g id="line2d_30">
      <g>
       <use style="fill:#ffffff;stroke:#ffffff;stroke-width:0.8;" x="57.44" xlink:href="#m23d5f880c1" y="80.668767"/>
      </g>
     </g>
     <g id="text_16">
      <!-- 3300 -->
      <g style="fill:#ffffff;" transform="translate(24.99 84.467986)scale(0.1 -0.1)">
       <use xlink:href="#DejaVuSans-51"/>
       <use x="63.623047" xlink:href="#DejaVuSans-51"/>
       <use x="127.246094" xlink:href="#DejaVuSans-48"/>
       <use x="190.869141" xlink:href="#DejaVuSans-48"/>
      </g>
     </g>
    </g>
    <g id="ytick_7">
     <g id="line2d_31">
      <path clip-path="url(#p1273f16cde)" d="M 57.44 44.690403 
L 853.2 44.690403 
" style="fill:none;stroke:#ffffff;stroke-linecap:square;stroke-opacity:0.25;stroke-width:0.8;"/>
     </g>
     <g id="line2d_32">
      <g>
       <use style="fill:#ffffff;stroke:#ffffff;stroke-width:0.8;" x="57.44" xlink:href="#m23d5f880c1" y="44.690403"/>
      </g>
     </g>
     <g id="text_17">
      <!-- 3400 -->
      <g style="fill:#ffffff;" transform="translate(24.99 48.489622)scale(0.1 -0.1)">
       <use xlink:href="#DejaVuSans-51"/>
       <use x="63.623047" xlink:href="#DejaVuSans-52"/>
       <use x="127.246094" xlink:href="#DejaVuSans-48"/>
       <use x="190.869141" xlink:href="#DejaVuSans-48"/>
      </g>
     </g>
    </g>
    <g id="text_18">
     <!-- Cloud Cost -->
     <defs>
      <path d="M 64.40625 67.28125 
L 64.40625 56.890625 
Q 59.421875 61.53125 53.78125 63.8125 
Q 48.140625 66.109375 41.796875 66.109375 
Q 29.296875 66.109375 22.65625 58.46875 
Q 16.015625 50.828125 16.015625 36.375 
Q 16.015625 21.96875 22.65625 14.328125 
Q 29.296875 6.6875 41.796875 6.6875 
Q 48.140625 6.6875 53.78125 8.984375 
Q 59.421875 11.28125 64.40625 15.921875 
L 64.40625 5.609375 
Q 59.234375 2.09375 53.4375 0.328125 
Q 47.65625 -1.421875 41.21875 -1.421875 
Q 24.65625 -1.421875 15.125 8.703125 
Q 5.609375 18.84375 5.609375 36.375 
Q 5.609375 53.953125 15.125 64.078125 
Q 24.65625 74.21875 41.21875 74.21875 
Q 47.75 74.21875 53.53125 72.484375 
Q 59.328125 70.75 64.40625 67.28125 
z
" id="DejaVuSans-67"/>
      <path d="M 9.421875 75.984375 
L 18.40625 75.984375 
L 18.40625 0 
L 9.421875 0 
z
" id="DejaVuSans-108"/>
      <path d="M 30.609375 48.390625 
Q 23.390625 48.390625 19.1875 42.75 
Q 14.984375 37.109375 14.984375 27.296875 
Q 14.984375 17.484375 19.15625 11.84375 
Q 23.34375 6.203125 30.609375 6.203125 
Q 37.796875 6.203125 41.984375 11.859375 
Q 46.1875 17.53125 46.1875 27.296875 
Q 46.1875 37.015625 41.984375 42.703125 
Q 37.796875 48.390625 30.609375 48.390625 
z
M 30.609375 56 
Q 42.328125 56 49.015625 48.375 
Q 55.71875 40.765625 55.71875 27.296875 
Q 55.71875 13.875 49.015625 6.21875 
Q 42.328125 -1.421875 30.609375 -1.421875 
Q 18.84375 -1.421875 12.171875 6.21875 
Q 5.515625 13.875 5.515625 27.296875 
Q 5.515625 40.765625 12.171875 48.375 
Q 18.84375 56 30.609375 56 
z
" id="DejaVuSans-111"/>
      <path d="M 8.5 21.578125 
L 8.5 54.6875 
L 17.484375 54.6875 
L 17.484375 21.921875 
Q 17.484375 14.15625 20.5 10.265625 
Q 23.53125 6.390625 29.59375 6.390625 
Q 36.859375 6.390625 41.078125 11.03125 
Q 45.3125 15.671875 45.3125 23.6875 
L 45.3125 54.6875 
L 54.296875 54.6875 
L 54.296875 0 
L 45.3125 0 
L 45.3125 8.40625 
Q 42.046875 3.421875 37.71875 1 
Q 33.40625 -1.421875 27.6875 -1.421875 
Q 18.265625 -1.421875 13.375 4.4375 
Q 8.5 10.296875 8.5 21.578125 
z
M 31.109375 56 
z
" id="DejaVuSans-117"/>
      <path d="M 45.40625 46.390625 
L 45.40625 75.984375 
L 54.390625 75.984375 
L 54.390625 0 
L 45.40625 0 
L 45.40625 8.203125 
Q 42.578125 3.328125 38.25 0.953125 
Q 33.9375 -1.421875 27.875 -1.421875 
Q 17.96875 -1.421875 11.734375 6.484375 
Q 5.515625 14.40625 5.515625 27.296875 
Q 5.515625 40.1875 11.734375 48.09375 
Q 17.96875 56 27.875 56 
Q 33.9375 56 38.25 53.625 
Q 42.578125 51.265625 45.40625 46.390625 
z
M 14.796875 27.296875 
Q 14.796875 17.390625 18.875 11.75 
Q 22.953125 6.109375 30.078125 6.109375 
Q 37.203125 6.109375 41.296875 11.75 
Q 45.40625 17.390625 45.40625 27.296875 
Q 45.40625 37.203125 41.296875 42.84375 
Q 37.203125 48.484375 30.078125 48.484375 
Q 22.953125 48.484375 18.875 42.84375 
Q 14.796875 37.203125 14.796875 27.296875 
z
" id="DejaVuSans-100"/>
      <path id="DejaVuSans-32"/>
      <path d="M 44.28125 53.078125 
L 44.28125 44.578125 
Q 40.484375 46.53125 36.375 47.5 
Q 32.28125 48.484375 27.875 48.484375 
Q 21.1875 48.484375 17.84375 46.4375 
Q 14.5 44.390625 14.5 40.28125 
Q 14.5 37.15625 16.890625 35.375 
Q 19.28125 33.59375 26.515625 31.984375 
L 29.59375 31.296875 
Q 39.15625 29.25 43.1875 25.515625 
Q 47.21875 21.78125 47.21875 15.09375 
Q 47.21875 7.46875 41.1875 3.015625 
Q 35.15625 -1.421875 24.609375 -1.421875 
Q 20.21875 -1.421875 15.453125 -0.5625 
Q 10.6875 0.296875 5.421875 2 
L 5.421875 11.28125 
Q 10.40625 8.6875 15.234375 7.390625 
Q 20.0625 6.109375 24.8125 6.109375 
Q 31.15625 6.109375 34.5625 8.28125 
Q 37.984375 10.453125 37.984375 14.40625 
Q 37.984375 18.0625 35.515625 20.015625 
Q 33.0625 21.96875 24.703125 23.78125 
L 21.578125 24.515625 
Q 13.234375 26.265625 9.515625 29.90625 
Q 5.8125 33.546875 5.8125 39.890625 
Q 5.8125 47.609375 11.28125 51.796875 
Q 16.75 56 26.8125 56 
Q 31.78125 56 36.171875 55.265625 
Q 40.578125 54.546875 44.28125 53.078125 
z
" id="DejaVuSans-115"/>
     </defs>
     <g style="fill:#ffffff;" transform="translate(18.910312 187.0875)rotate(-90)scale(0.1 -0.1)">
      <use xlink:href="#DejaVuSans-67"/>
      <use x="69.824219" xlink:href="#DejaVuSans-108"/>
      <use x="97.607422" xlink:href="#DejaVuSans-111"/>
      <use x="158.789062" xlink:href="#DejaVuSans-117"/>
      <use x="222.167969" xlink:href="#DejaVuSans-100"/>
      <use x="285.644531" xlink:href="#DejaVuSans-32"/>
      <use x="317.431641" xlink:href="#DejaVuSans-67"/>
      <use x="387.255859" xlink:href="#DejaVuSans-111"/>
      <use x="448.4375" xlink:href="#DejaVuSans-115"/>
      <use x="500.537109" xlink:href="#DejaVuSans-116"/>
     </g>
    </g>
   </g>
   <g id="line2d_33">
    <path clip-path="url(#p1273f16cde)" d="M 93.610909 261.600361 
L 96.527918 258.416276 
L 99.444927 260.179216 
L 102.361935 282.518182 
L 105.278944 279.90975 
L 108.195953 255.33293 
L 111.112962 257.606763 
L 116.946979 255.228593 
L 119.863988 253.627556 
L 122.780997 278.413051 
L 125.698006 277.236558 
L 128.615015 252.249584 
L 131.532023 251.77467 
L 134.449032 251.673931 
L 137.366041 250.896798 
L 140.28305 251.116266 
L 143.200059 273.609939 
L 146.117067 272.980318 
L 149.034076 248.004137 
L 151.951085 247.928583 
L 154.868094 246.575796 
L 157.785103 245.460467 
L 160.702111 245.431684 
L 163.61912 268.939947 
L 166.536129 268.572968 
L 169.453138 243.596788 
L 172.370147 243.438483 
L 175.287155 242.01374 
L 178.204164 241.628771 
L 181.121173 239.268591 
L 184.038182 263.672715 
L 186.955191 263.953346 
L 189.872199 239.466472 
L 192.789208 239.023938 
L 195.706217 236.64217 
L 198.623226 236.663757 
L 201.540235 235.904614 
L 204.457243 261.920569 
L 207.374252 259.358909 
L 210.291261 233.925804 
L 213.20827 234.361142 
L 216.125279 233.288987 
L 219.042287 232.090907 
L 221.959296 231.583612 
L 224.876305 256.556194 
L 227.793314 255.768268 
L 230.710323 229.752313 
L 233.627331 228.762908 
L 236.54434 227.158273 
L 239.461349 229.388932 
L 242.378358 227.017958 
L 245.295367 251.925779 
L 248.212375 251.256581 
L 251.129384 225.294594 
L 254.046393 225.679563 
L 256.963402 223.542448 
L 259.880411 221.783106 
L 262.797419 223.531654 
L 265.714428 247.223407 
L 268.631437 247.579593 
L 271.548446 220.577831 
L 274.465455 220.624603 
L 277.382463 219.41573 
L 280.299472 217.537659 
L 283.216481 217.346974 
L 286.13349 242.387915 
L 289.050499 242.215219 
L 291.967507 215.483294 
L 294.884516 213.903844 
L 297.801525 214.270823 
L 300.718534 213.414538 
L 303.635543 213.630409 
L 306.552551 162.332457 
L 309.46956 239.473667 
L 312.386569 210.6514 
L 315.303578 211.586838 
L 318.220587 209.510886 
L 321.137595 209.514484 
L 324.054604 207.899055 
L 326.971613 234.742513 
L 329.888622 233.411313 
L 332.80563 206.290822 
L 335.722639 207.319804 
L 338.639648 205.664799 
L 341.556657 205.772734 
L 344.473666 204.68259 
L 347.390674 230.144478 
L 350.307683 230.14088 
L 353.224692 202.782932 
L 356.141701 202.311615 
L 359.05871 200.908459 
L 361.975718 201.181895 
L 364.892727 200.14212 
L 367.809736 226.838066 
L 370.726745 225.722737 
L 373.643754 197.569667 
L 376.560762 199.073563 
L 379.477771 196.526294 
L 382.39478 196.10175 
L 385.311789 195.231073 
L 388.228798 221.90903 
L 391.145806 223.977786 
L 394.062815 193.871091 
L 396.979824 192.435554 
L 399.896833 193.360198 
L 402.813842 190.575473 
L 405.73085 190.740974 
L 408.647859 218.332781 
L 411.564868 218.865261 
L 414.481877 188.492326 
L 417.398886 187.639639 
L 420.315894 187.632443 
L 423.232903 187.081974 
L 426.149912 186.398385 
L 429.066921 215.591229 
L 431.98393 214.457911 
L 434.900938 184.761369 
L 440.734956 182.527113 
L 443.651965 183.43017 
L 446.568974 182.091775 
L 449.485982 209.629615 
L 452.402991 210.539867 
L 455.32 180.454759 
L 458.237009 179.04081 
L 461.154018 177.813947 
L 464.071026 177.849926 
L 466.988035 176.29566 
L 469.905044 120.291739 
L 472.822053 205.225863 
L 475.739062 175.093983 
L 478.65607 173.118771 
L 481.573079 174.302459 
L 484.490088 175.054407 
L 487.407097 171.881115 
L 490.324106 202.772138 
L 493.241114 201.707179 
L 496.158123 169.898707 
L 499.075132 171.118374 
L 501.992141 170.182936 
L 504.90915 169.855533 
L 507.826158 168.783378 
L 510.743167 197.688396 
L 513.660176 197.083959 
L 516.577185 166.128175 
L 519.494194 166.736209 
L 522.411202 166.739807 
L 525.328211 164.304072 
L 528.24522 164.016245 
L 531.162229 193.532895 
L 534.079238 192.831316 
L 536.996246 161.839554 
L 539.913255 160.778192 
L 542.830264 160.511952 
L 545.747273 159.504558 
L 548.664282 159.731222 
L 551.58129 189.812732 
L 554.498299 188.978034 
L 557.415308 156.727028 
L 560.332317 157.025649 
L 563.249326 155.770004 
L 566.166334 155.518155 
L 569.083343 154.820175 
L 572.000352 184.970044 
L 574.917361 186.466744 
L 577.83437 153.643683 
L 580.751378 153.093214 
L 583.668387 153.064431 
L 586.585396 151.225937 
L 589.502405 149.596117 
L 592.419413 181.566491 
L 595.336422 180.65264 
L 598.253431 147.491382 
L 601.17044 146.771815 
L 604.087449 147.110012 
L 607.004457 145.303898 
L 609.921466 145.548551 
L 612.838475 177.846328 
L 615.755484 177.051206 
L 618.672493 144.60232 
L 624.50651 142.504781 
L 627.423519 140.925331 
L 630.340528 37.681818 
L 633.257537 173.698023 
L 636.174545 171.805561 
L 639.091554 139.561751 
L 642.008563 137.931931 
L 644.925572 137.579343 
L 647.842581 138.007486 
L 650.759589 135.381065 
L 653.676598 168.902107 
L 656.593607 168.135768 
L 659.510616 134.862977 
L 662.427625 133.985105 
L 665.344633 132.499198 
L 668.261642 132.322904 
L 671.178651 131.297521 
L 674.09566 164.034234 
L 677.012669 162.713828 
L 679.929677 129.68569 
L 682.846686 129.840397 
L 685.763695 127.303922 
L 688.680704 127.829207 
L 691.597713 126.138223 
L 694.514721 159.846353 
L 697.43173 159.709635 
L 700.348739 124.97972 
L 703.265748 123.202389 
L 706.182757 122.378484 
L 709.099765 123.285139 
L 712.016774 122.565572 
L 714.933783 155.399427 
L 717.850792 156.205342 
L 720.767801 120.464435 
L 723.684809 120.021902 
L 726.601818 119.01091 
L 729.518827 119.197997 
L 732.435836 119.147627 
L 735.352845 153.341464 
L 738.269853 152.03545 
L 741.186862 116.359304 
L 744.103871 115.679313 
L 747.02088 113.412676 
L 749.937889 113.340719 
L 752.854897 113.955949 
L 755.771906 147.070436 
L 758.688915 147.081229 
L 761.605924 111.441062 
L 767.439941 109.667329 
L 770.35695 109.674524 
L 773.273959 107.904389 
L 776.190968 144.127405 
L 779.107977 142.753032 
L 782.024985 105.155642 
L 784.941994 106.224199 
L 787.859003 104.795858 
L 790.776012 105.155642 
L 793.693021 104.2274 
L 796.610029 139.594132 
L 799.527038 139.219957 
L 799.527038 139.219957 
" style="fill:none;stroke:#8dd3c7;stroke-linecap:square;stroke-opacity:0.85;stroke-width:2;"/>
   </g>
   <g id="line2d_34">
    <path clip-path="url(#p1273f16cde)" d="M 787.859003 105.951987 
L 790.776012 106.569483 
L 793.693021 113.931844 
L 796.610029 145.237446 
L 799.527038 145.359017 
L 802.444047 109.220261 
L 805.361056 105.200363 
" style="fill:none;stroke:#feffb3;stroke-linecap:square;stroke-opacity:0.27;stroke-width:2;"/>
   </g>
   <g id="line2d_35">
    <path clip-path="url(#p1273f16cde)" d="M 790.776012 105.943388 
L 793.693021 113.101571 
L 796.610029 145.640439 
L 799.527038 144.724646 
L 802.444047 107.534171 
L 805.361056 104.704365 
L 808.278065 105.132723 
" style="fill:none;stroke:#bfbbd9;stroke-linecap:square;stroke-opacity:0.39;stroke-width:2;"/>
   </g>
   <g id="line2d_36">
    <path clip-path="url(#p1273f16cde)" d="M 793.693021 114.036901 
L 796.610029 145.919596 
L 799.527038 144.622576 
L 802.444047 108.182394 
L 805.361056 104.907247 
L 808.278065 105.950044 
L 811.195073 106.958518 
" style="fill:none;stroke:#fa8174;stroke-linecap:square;stroke-opacity:0.51;stroke-width:2;"/>
   </g>
   <g id="line2d_37">
    <path clip-path="url(#p1273f16cde)" d="M 796.610029 144.238111 
L 799.527038 143.465332 
L 802.444047 105.352515 
L 805.361056 102.989492 
L 808.278065 104.023187 
L 811.195073 104.182679 
L 814.112082 113.033644 
" style="fill:none;stroke:#81b1d2;stroke-linecap:square;stroke-opacity:0.63;stroke-width:2;"/>
   </g>
   <g id="line2d_38">
    <path clip-path="url(#p1273f16cde)" d="M 799.527038 142.81621 
L 802.444047 104.203582 
L 805.361056 101.189243 
L 808.278065 103.292286 
L 811.195073 104.759412 
L 814.112082 112.101697 
L 817.029091 143.233631 
" style="fill:none;stroke:#fdb462;stroke-linecap:square;stroke-opacity:0.75;stroke-width:2;"/>
   </g>
   <g id="line2d_39"/>
   <g id="patch_3">
    <path d="M 57.44 294.76 
L 57.44 25.44 
" style="fill:none;stroke:#ffffff;stroke-linecap:square;stroke-linejoin:miter;stroke-width:0.8;"/>
   </g>
   <g id="patch_4">
    <path d="M 853.2 294.76 
L 853.2 25.44 
" style="fill:none;stroke:#ffffff;stroke-linecap:square;stroke-linejoin:miter;stroke-width:0.8;"/>
   </g>
   <g id="patch_5">
    <path d="M 57.44 294.76 
L 853.2 294.76 
" style="fill:none;stroke:#ffffff;stroke-linecap:square;stroke-linejoin:miter;stroke-width:0.8;"/>
   </g>
   <g id="patch_6">
    <path d="M 57.44 25.44 
L 853.2 25.44 
" style="fill:none;stroke:#ffffff;stroke-linecap:square;stroke-linejoin:miter;stroke-width:0.8;"/>
   </g>
   <g id="text_19">
    <!-- Cloud Cost, 1-week forecasts -->
    <defs>
     <path d="M 11.71875 12.40625 
L 22.015625 12.40625 
L 22.015625 4 
L 14.015625 -11.625 
L 7.71875 -11.625 
L 11.71875 4 
z
" id="DejaVuSans-44"/>
     <path d="M 4.203125 54.6875 
L 13.1875 54.6875 
L 24.421875 12.015625 
L 35.59375 54.6875 
L 46.1875 54.6875 
L 57.421875 12.015625 
L 68.609375 54.6875 
L 77.59375 54.6875 
L 63.28125 0 
L 52.6875 0 
L 40.921875 44.828125 
L 29.109375 0 
L 18.5 0 
z
" id="DejaVuSans-119"/>
     <path d="M 9.078125 75.984375 
L 18.109375 75.984375 
L 18.109375 31.109375 
L 44.921875 54.6875 
L 56.390625 54.6875 
L 27.390625 29.109375 
L 57.625 0 
L 45.90625 0 
L 18.109375 26.703125 
L 18.109375 0 
L 9.078125 0 
z
" id="DejaVuSans-107"/>
     <path d="M 37.109375 75.984375 
L 37.109375 68.5 
L 28.515625 68.5 
Q 23.6875 68.5 21.796875 66.546875 
Q 19.921875 64.59375 19.921875 59.515625 
L 19.921875 54.6875 
L 34.71875 54.6875 
L 34.71875 47.703125 
L 19.921875 47.703125 
L 19.921875 0 
L 10.890625 0 
L 10.890625 47.703125 
L 2.296875 47.703125 
L 2.296875 54.6875 
L 10.890625 54.6875 
L 10.890625 58.5 
Q 10.890625 67.625 15.140625 71.796875 
Q 19.390625 75.984375 28.609375 75.984375 
z
" id="DejaVuSans-102"/>
     <path d="M 41.109375 46.296875 
Q 39.59375 47.171875 37.8125 47.578125 
Q 36.03125 48 33.890625 48 
Q 26.265625 48 22.1875 43.046875 
Q 18.109375 38.09375 18.109375 28.8125 
L 18.109375 0 
L 9.078125 0 
L 9.078125 54.6875 
L 18.109375 54.6875 
L 18.109375 46.1875 
Q 20.953125 51.171875 25.484375 53.578125 
Q 30.03125 56 36.53125 56 
Q 37.453125 56 38.578125 55.875 
Q 39.703125 55.765625 41.0625 55.515625 
z
" id="DejaVuSans-114"/>
     <path d="M 48.78125 52.59375 
L 48.78125 44.1875 
Q 44.96875 46.296875 41.140625 47.34375 
Q 37.3125 48.390625 33.40625 48.390625 
Q 24.65625 48.390625 19.8125 42.84375 
Q 14.984375 37.3125 14.984375 27.296875 
Q 14.984375 17.28125 19.8125 11.734375 
Q 24.65625 6.203125 33.40625 6.203125 
Q 37.3125 6.203125 41.140625 7.25 
Q 44.96875 8.296875 48.78125 10.40625 
L 48.78125 2.09375 
Q 45.015625 0.34375 40.984375 -0.53125 
Q 36.96875 -1.421875 32.421875 -1.421875 
Q 20.0625 -1.421875 12.78125 6.34375 
Q 5.515625 14.109375 5.515625 27.296875 
Q 5.515625 40.671875 12.859375 48.328125 
Q 20.21875 56 33.015625 56 
Q 37.15625 56 41.109375 55.140625 
Q 45.0625 54.296875 48.78125 52.59375 
z
" id="DejaVuSans-99"/>
    </defs>
    <g style="fill:#ffffff;" transform="translate(367.947812 19.44)scale(0.12 -0.12)">
     <use xlink:href="#DejaVuSans-67"/>
     <use x="69.824219" xlink:href="#DejaVuSans-108"/>
     <use x="97.607422" xlink:href="#DejaVuSans-111"/>
     <use x="158.789062" xlink:href="#DejaVuSans-117"/>
     <use x="222.167969" xlink:href="#DejaVuSans-100"/>
     <use x="285.644531" xlink:href="#DejaVuSans-32"/>
     <use x="317.431641" xlink:href="#DejaVuSans-67"/>
     <use x="387.255859" xlink:href="#DejaVuSans-111"/>
     <use x="448.4375" xlink:href="#DejaVuSans-115"/>
     <use x="500.537109" xlink:href="#DejaVuSans-116"/>
     <use x="539.746094" xlink:href="#DejaVuSans-44"/>
     <use x="571.533203" xlink:href="#DejaVuSans-32"/>
     <use x="603.320312" xlink:href="#DejaVuSans-49"/>
     <use x="666.943359" xlink:href="#DejaVuSans-45"/>
     <use x="703.027344" xlink:href="#DejaVuSans-119"/>
     <use x="784.814453" xlink:href="#DejaVuSans-101"/>
     <use x="846.337891" xlink:href="#DejaVuSans-101"/>
     <use x="907.861328" xlink:href="#DejaVuSans-107"/>
     <use x="965.771484" xlink:href="#DejaVuSans-32"/>
     <use x="997.558594" xlink:href="#DejaVuSans-102"/>
     <use x="1032.763672" xlink:href="#DejaVuSans-111"/>
     <use x="1093.945312" xlink:href="#DejaVuSans-114"/>
     <use x="1135.027344" xlink:href="#DejaVuSans-101"/>
     <use x="1196.550781" xlink:href="#DejaVuSans-99"/>
     <use x="1251.53125" xlink:href="#DejaVuSans-97"/>
     <use x="1312.810547" xlink:href="#DejaVuSans-115"/>
     <use x="1364.910156" xlink:href="#DejaVuSans-116"/>
     <use x="1404.119141" xlink:href="#DejaVuSans-115"/>
    </g>
   </g>
   <g id="legend_1">
    <g id="patch_7">
     <path d="M 688.426563 92.1525 
L 846.2 92.1525 
Q 848.2 92.1525 848.2 90.1525 
L 848.2 32.44 
Q 848.2 30.44 846.2 30.44 
L 688.426563 30.44 
Q 686.426563 30.44 686.426563 32.44 
L 686.426563 90.1525 
Q 686.426563 92.1525 688.426563 92.1525 
z
" style="fill:#121212;opacity:0.8;stroke:#ffffff;stroke-linejoin:miter;"/>
    </g>
    <g id="line2d_40">
     <path d="M 690.426563 38.538437 
L 710.426563 38.538437 
" style="fill:none;stroke:#8dd3c7;stroke-linecap:square;stroke-opacity:0.85;stroke-width:2;"/>
    </g>
    <g id="line2d_41"/>
    <g id="text_20">
     <!-- Observed -->
     <defs>
      <path d="M 39.40625 66.21875 
Q 28.65625 66.21875 22.328125 58.203125 
Q 16.015625 50.203125 16.015625 36.375 
Q 16.015625 22.609375 22.328125 14.59375 
Q 28.65625 6.59375 39.40625 6.59375 
Q 50.140625 6.59375 56.421875 14.59375 
Q 62.703125 22.609375 62.703125 36.375 
Q 62.703125 50.203125 56.421875 58.203125 
Q 50.140625 66.21875 39.40625 66.21875 
z
M 39.40625 74.21875 
Q 54.734375 74.21875 63.90625 63.9375 
Q 73.09375 53.65625 73.09375 36.375 
Q 73.09375 19.140625 63.90625 8.859375 
Q 54.734375 -1.421875 39.40625 -1.421875 
Q 24.03125 -1.421875 14.8125 8.828125 
Q 5.609375 19.09375 5.609375 36.375 
Q 5.609375 53.65625 14.8125 63.9375 
Q 24.03125 74.21875 39.40625 74.21875 
z
" id="DejaVuSans-79"/>
      <path d="M 48.6875 27.296875 
Q 48.6875 37.203125 44.609375 42.84375 
Q 40.53125 48.484375 33.40625 48.484375 
Q 26.265625 48.484375 22.1875 42.84375 
Q 18.109375 37.203125 18.109375 27.296875 
Q 18.109375 17.390625 22.1875 11.75 
Q 26.265625 6.109375 33.40625 6.109375 
Q 40.53125 6.109375 44.609375 11.75 
Q 48.6875 17.390625 48.6875 27.296875 
z
M 18.109375 46.390625 
Q 20.953125 51.265625 25.265625 53.625 
Q 29.59375 56 35.59375 56 
Q 45.5625 56 51.78125 48.09375 
Q 58.015625 40.1875 58.015625 27.296875 
Q 58.015625 14.40625 51.78125 6.484375 
Q 45.5625 -1.421875 35.59375 -1.421875 
Q 29.59375 -1.421875 25.265625 0.953125 
Q 20.953125 3.328125 18.109375 8.203125 
L 18.109375 0 
L 9.078125 0 
L 9.078125 75.984375 
L 18.109375 75.984375 
z
" id="DejaVuSans-98"/>
      <path d="M 2.984375 54.6875 
L 12.5 54.6875 
L 29.59375 8.796875 
L 46.6875 54.6875 
L 56.203125 54.6875 
L 35.6875 0 
L 23.484375 0 
z
" id="DejaVuSans-118"/>
     </defs>
     <g style="fill:#ffffff;" transform="translate(718.426563 42.038437)scale(0.1 -0.1)">
      <use xlink:href="#DejaVuSans-79"/>
      <use x="78.710938" xlink:href="#DejaVuSans-98"/>
      <use x="142.1875" xlink:href="#DejaVuSans-115"/>
      <use x="194.287109" xlink:href="#DejaVuSans-101"/>
      <use x="255.810547" xlink:href="#DejaVuSans-114"/>
      <use x="296.923828" xlink:href="#DejaVuSans-118"/>
      <use x="356.103516" xlink:href="#DejaVuSans-101"/>
      <use x="417.626953" xlink:href="#DejaVuSans-100"/>
     </g>
    </g>
    <g id="line2d_42">
     <path d="M 690.426563 53.216562 
L 710.426563 53.216562 
" style="fill:none;stroke:#fdb462;stroke-linecap:square;stroke-opacity:0.75;stroke-width:2;"/>
    </g>
    <g id="line2d_43"/>
    <g id="text_21">
     <!-- Forecast mean -->
     <defs>
      <path d="M 9.8125 72.90625 
L 51.703125 72.90625 
L 51.703125 64.59375 
L 19.671875 64.59375 
L 19.671875 43.109375 
L 48.578125 43.109375 
L 48.578125 34.8125 
L 19.671875 34.8125 
L 19.671875 0 
L 9.8125 0 
z
" id="DejaVuSans-70"/>
      <path d="M 52 44.1875 
Q 55.375 50.25 60.0625 53.125 
Q 64.75 56 71.09375 56 
Q 79.640625 56 84.28125 50.015625 
Q 88.921875 44.046875 88.921875 33.015625 
L 88.921875 0 
L 79.890625 0 
L 79.890625 32.71875 
Q 79.890625 40.578125 77.09375 44.375 
Q 74.3125 48.1875 68.609375 48.1875 
Q 61.625 48.1875 57.5625 43.546875 
Q 53.515625 38.921875 53.515625 30.90625 
L 53.515625 0 
L 44.484375 0 
L 44.484375 32.71875 
Q 44.484375 40.625 41.703125 44.40625 
Q 38.921875 48.1875 33.109375 48.1875 
Q 26.21875 48.1875 22.15625 43.53125 
Q 18.109375 38.875 18.109375 30.90625 
L 18.109375 0 
L 9.078125 0 
L 9.078125 54.6875 
L 18.109375 54.6875 
L 18.109375 46.1875 
Q 21.1875 51.21875 25.484375 53.609375 
Q 29.78125 56 35.6875 56 
Q 41.65625 56 45.828125 52.96875 
Q 50 49.953125 52 44.1875 
z
" id="DejaVuSans-109"/>
      <path d="M 54.890625 33.015625 
L 54.890625 0 
L 45.90625 0 
L 45.90625 32.71875 
Q 45.90625 40.484375 42.875 44.328125 
Q 39.84375 48.1875 33.796875 48.1875 
Q 26.515625 48.1875 22.3125 43.546875 
Q 18.109375 38.921875 18.109375 30.90625 
L 18.109375 0 
L 9.078125 0 
L 9.078125 54.6875 
L 18.109375 54.6875 
L 18.109375 46.1875 
Q 21.34375 51.125 25.703125 53.5625 
Q 30.078125 56 35.796875 56 
Q 45.21875 56 50.046875 50.171875 
Q 54.890625 44.34375 54.890625 33.015625 
z
" id="DejaVuSans-110"/>
     </defs>
     <g style="fill:#ffffff;" transform="translate(718.426563 56.716562)scale(0.1 -0.1)">
      <use xlink:href="#DejaVuSans-70"/>
      <use x="57.472656" xlink:href="#DejaVuSans-111"/>
      <use x="118.654297" xlink:href="#DejaVuSans-114"/>
      <use x="159.736328" xlink:href="#DejaVuSans-101"/>
      <use x="221.259766" xlink:href="#DejaVuSans-99"/>
      <use x="276.240234" xlink:href="#DejaVuSans-97"/>
      <use x="337.519531" xlink:href="#DejaVuSans-115"/>
      <use x="389.619141" xlink:href="#DejaVuSans-116"/>
      <use x="428.828125" xlink:href="#DejaVuSans-32"/>
      <use x="460.615234" xlink:href="#DejaVuSans-109"/>
      <use x="558.027344" xlink:href="#DejaVuSans-101"/>
      <use x="619.550781" xlink:href="#DejaVuSans-97"/>
      <use x="680.830078" xlink:href="#DejaVuSans-110"/>
     </g>
    </g>
    <g id="patch_8">
     <path d="M 690.426563 71.394687 
L 710.426563 71.394687 
L 710.426563 64.394687 
L 690.426563 64.394687 
z
" style="fill:#81b1d2;opacity:0.3;"/>
    </g>
    <g id="text_22">
     <!-- Forecast interval (99%) -->
     <defs>
      <path d="M 9.421875 54.6875 
L 18.40625 54.6875 
L 18.40625 0 
L 9.421875 0 
z
M 9.421875 75.984375 
L 18.40625 75.984375 
L 18.40625 64.59375 
L 9.421875 64.59375 
z
" id="DejaVuSans-105"/>
      <path d="M 31 75.875 
Q 24.46875 64.65625 21.28125 53.65625 
Q 18.109375 42.671875 18.109375 31.390625 
Q 18.109375 20.125 21.3125 9.0625 
Q 24.515625 -2 31 -13.1875 
L 23.1875 -13.1875 
Q 15.875 -1.703125 12.234375 9.375 
Q 8.59375 20.453125 8.59375 31.390625 
Q 8.59375 42.28125 12.203125 53.3125 
Q 15.828125 64.359375 23.1875 75.875 
z
" id="DejaVuSans-40"/>
      <path d="M 46 62.703125 
L 46 43.796875 
L 73.1875 43.796875 
L 73.1875 35.5 
L 46 35.5 
L 46 16.609375 
L 37.796875 16.609375 
L 37.796875 35.5 
L 10.59375 35.5 
L 10.59375 43.796875 
L 37.796875 43.796875 
L 37.796875 62.703125 
z
M 10.59375 8.296875 
L 73.1875 8.296875 
L 73.1875 0 
L 10.59375 0 
z
" id="DejaVuSans-177"/>
      <path d="M 72.703125 32.078125 
Q 68.453125 32.078125 66.03125 28.46875 
Q 63.625 24.859375 63.625 18.40625 
Q 63.625 12.0625 66.03125 8.421875 
Q 68.453125 4.78125 72.703125 4.78125 
Q 76.859375 4.78125 79.265625 8.421875 
Q 81.6875 12.0625 81.6875 18.40625 
Q 81.6875 24.8125 79.265625 28.4375 
Q 76.859375 32.078125 72.703125 32.078125 
z
M 72.703125 38.28125 
Q 80.421875 38.28125 84.953125 32.90625 
Q 89.5 27.546875 89.5 18.40625 
Q 89.5 9.28125 84.9375 3.921875 
Q 80.375 -1.421875 72.703125 -1.421875 
Q 64.890625 -1.421875 60.34375 3.921875 
Q 55.8125 9.28125 55.8125 18.40625 
Q 55.8125 27.59375 60.375 32.9375 
Q 64.9375 38.28125 72.703125 38.28125 
z
M 22.3125 68.015625 
Q 18.109375 68.015625 15.6875 64.375 
Q 13.28125 60.75 13.28125 54.390625 
Q 13.28125 47.953125 15.671875 44.328125 
Q 18.0625 40.71875 22.3125 40.71875 
Q 26.5625 40.71875 28.96875 44.328125 
Q 31.390625 47.953125 31.390625 54.390625 
Q 31.390625 60.6875 28.953125 64.34375 
Q 26.515625 68.015625 22.3125 68.015625 
z
M 66.40625 74.21875 
L 74.21875 74.21875 
L 28.609375 -1.421875 
L 20.796875 -1.421875 
z
M 22.3125 74.21875 
Q 30.03125 74.21875 34.609375 68.875 
Q 39.203125 63.53125 39.203125 54.390625 
Q 39.203125 45.171875 34.640625 39.84375 
Q 30.078125 34.515625 22.3125 34.515625 
Q 14.546875 34.515625 10.03125 39.859375 
Q 5.515625 45.21875 5.515625 54.390625 
Q 5.515625 63.484375 10.046875 68.84375 
Q 14.59375 74.21875 22.3125 74.21875 
z
" id="DejaVuSans-37"/>
      <path d="M 8.015625 75.875 
L 15.828125 75.875 
Q 23.140625 64.359375 26.78125 53.3125 
Q 30.421875 42.28125 30.421875 31.390625 
Q 30.421875 20.453125 26.78125 9.375 
Q 23.140625 -1.703125 15.828125 -13.1875 
L 8.015625 -13.1875 
Q 14.5 -2 17.703125 9.0625 
Q 20.90625 20.125 20.90625 31.390625 
Q 20.90625 42.671875 17.703125 53.65625 
Q 14.5 64.65625 8.015625 75.875 
z
" id="DejaVuSans-41"/>
     </defs>
     <g style="fill:#ffffff;" transform="translate(718.426563 71.394687)scale(0.1 -0.1)">
      <use xlink:href="#DejaVuSans-70"/>
      <use x="57.472656" xlink:href="#DejaVuSans-111"/>
      <use x="118.654297" xlink:href="#DejaVuSans-114"/>
      <use x="159.736328" xlink:href="#DejaVuSans-101"/>
      <use x="221.259766" xlink:href="#DejaVuSans-99"/>
      <use x="276.240234" xlink:href="#DejaVuSans-97"/>
      <use x="337.519531" xlink:href="#DejaVuSans-115"/>
      <use x="389.619141" xlink:href="#DejaVuSans-116"/>
      <use x="428.828125" xlink:href="#DejaVuSans-32"/>
      <use x="460.615234" xlink:href="#DejaVuSans-105"/>
      <use x="488.398438" xlink:href="#DejaVuSans-110"/>
      <use x="551.777344" xlink:href="#DejaVuSans-116"/>
      <use x="590.986328" xlink:href="#DejaVuSans-101"/>
      <use x="652.509766" xlink:href="#DejaVuSans-114"/>
      <use x="693.623047" xlink:href="#DejaVuSans-118"/>
      <use x="752.802734" xlink:href="#DejaVuSans-97"/>
      <use x="814.082031" xlink:href="#DejaVuSans-108"/>
      <use x="841.865234" xlink:href="#DejaVuSans-32"/>
      <use x="873.652344" xlink:href="#DejaVuSans-40"/>
      <use x="912.666016" xlink:href="#DejaVuSans-177"/>
      <use x="996.455078" xlink:href="#DejaVuSans-57"/>
      <use x="1060.078125" xlink:href="#DejaVuSans-57"/>
      <use x="1123.701172" xlink:href="#DejaVuSans-37"/>
      <use x="1218.720703" xlink:href="#DejaVuSans-41"/>
     </g>
    </g>
    <g id="line2d_44">
     <path d="M 690.426563 82.572812 
L 710.426563 82.572812 
" style="fill:none;stroke:#808080;stroke-dasharray:5.55,2.4;stroke-dashoffset:0;stroke-opacity:0.6;stroke-width:1.5;"/>
    </g>
    <g id="line2d_45"/>
    <g id="text_23">
     <!-- Anchor day -->
     <defs>
      <path d="M 34.1875 63.1875 
L 20.796875 26.90625 
L 47.609375 26.90625 
z
M 28.609375 72.90625 
L 39.796875 72.90625 
L 67.578125 0 
L 57.328125 0 
L 50.6875 18.703125 
L 17.828125 18.703125 
L 11.1875 0 
L 0.78125 0 
z
" id="DejaVuSans-65"/>
      <path d="M 54.890625 33.015625 
L 54.890625 0 
L 45.90625 0 
L 45.90625 32.71875 
Q 45.90625 40.484375 42.875 44.328125 
Q 39.84375 48.1875 33.796875 48.1875 
Q 26.515625 48.1875 22.3125 43.546875 
Q 18.109375 38.921875 18.109375 30.90625 
L 18.109375 0 
L 9.078125 0 
L 9.078125 75.984375 
L 18.109375 75.984375 
L 18.109375 46.1875 
Q 21.34375 51.125 25.703125 53.5625 
Q 30.078125 56 35.796875 56 
Q 45.21875 56 50.046875 50.171875 
Q 54.890625 44.34375 54.890625 33.015625 
z
" id="DejaVuSans-104"/>
      <path d="M 32.171875 -5.078125 
Q 28.375 -14.84375 24.75 -17.8125 
Q 21.140625 -20.796875 15.09375 -20.796875 
L 7.90625 -20.796875 
L 7.90625 -13.28125 
L 13.1875 -13.28125 
Q 16.890625 -13.28125 18.9375 -11.515625 
Q 21 -9.765625 23.484375 -3.21875 
L 25.09375 0.875 
L 2.984375 54.6875 
L 12.5 54.6875 
L 29.59375 11.921875 
L 46.6875 54.6875 
L 56.203125 54.6875 
z
" id="DejaVuSans-121"/>
     </defs>
     <g style="fill:#ffffff;" transform="translate(718.426563 86.072812)scale(0.1 -0.1)">
      <use xlink:href="#DejaVuSans-65"/>
      <use x="68.408203" xlink:href="#DejaVuSans-110"/>
      <use x="131.787109" xlink:href="#DejaVuSans-99"/>
      <use x="186.767578" xlink:href="#DejaVuSans-104"/>
      <use x="250.146484" xlink:href="#DejaVuSans-111"/>
      <use x="311.328125" xlink:href="#DejaVuSans-114"/>
      <use x="352.441406" xlink:href="#DejaVuSans-32"/>
      <use x="384.228516" xlink:href="#DejaVuSans-100"/>
      <use x="447.705078" xlink:href="#DejaVuSans-97"/>
      <use x="508.984375" xlink:href="#DejaVuSans-121"/>
     </g>
    </g>
   </g>
  </g>
  <g id="axes_2">
   <g id="patch_9">
    <path d="M 57.44 606.04 
L 853.2 606.04 
L 853.2 336.72 
L 57.44 336.72 
z
" style="fill:#121212;"/>
   </g>
   <g id="PolyCollection_6">
    <path clip-path="url(#p0f2f250bea)" d="M 455.32 368.946223 
L 455.32 393.265413 
L 495.108 398.905755 
L 534.896 465.33163 
L 574.684 589.514624 
L 614.472 591.587125 
L 654.26 436.722053 
L 694.048 399.538694 
L 694.048 355.878121 
L 694.048 355.878121 
L 654.26 355.035232 
L 614.472 526.871257 
L 574.684 527.844734 
L 534.896 369.018754 
L 495.108 368.888166 
L 455.32 368.946223 
z
" style="fill:#8dd3c7;fill-opacity:0.108;"/>
   </g>
   <g id="PolyCollection_7">
    <path clip-path="url(#p0f2f250bea)" d="M 495.108 371.363002 
L 495.108 390.770899 
L 534.896 459.174464 
L 574.684 592.014342 
L 614.472 585.666253 
L 654.26 422.426615 
L 694.048 392.958538 
L 733.836 401.706005 
L 733.836 353.099338 
L 733.836 353.099338 
L 694.048 357.974202 
L 654.26 354.088101 
L 614.472 527.057464 
L 574.684 528.988317 
L 534.896 367.670588 
L 495.108 371.363002 
z
" style="fill:#feffb3;fill-opacity:0.156;"/>
   </g>
   <g id="PolyCollection_8">
    <path clip-path="url(#p0f2f250bea)" d="M 534.896 369.594123 
L 534.896 465.706807 
L 574.684 593.798182 
L 614.472 584.338253 
L 654.26 427.030545 
L 694.048 392.466921 
L 733.836 407.940256 
L 773.624 415.51568 
L 773.624 355.795182 
L 773.624 355.795182 
L 733.836 354.253979 
L 694.048 360.29991 
L 654.26 355.344221 
L 614.472 527.462889 
L 574.684 529.727938 
L 534.896 369.594123 
z
" style="fill:#bfbbd9;fill-opacity:0.204;"/>
   </g>
   <g id="PolyCollection_9">
    <path clip-path="url(#p0f2f250bea)" d="M 574.684 528.492634 
L 574.684 579.832549 
L 614.472 572.872175 
L 654.26 400.336209 
L 694.048 376.115409 
L 733.836 389.274419 
L 773.624 390.539808 
L 813.412 477.269322 
L 813.412 348.961818 
L 813.412 348.961818 
L 773.624 355.676953 
L 733.836 355.500179 
L 694.048 359.314562 
L 654.26 356.455929 
L 614.472 528.466939 
L 574.684 528.492634 
z
" style="fill:#fa8174;fill-opacity:0.252;"/>
   </g>
   <g id="PolyCollection_10">
    <path clip-path="url(#p0f2f250bea)" d="M 614.472 526.967206 
L 614.472 568.503402 
L 654.26 391.155346 
L 694.048 360.570681 
L 733.836 383.6492 
L 773.624 395.421014 
L 813.412 467.766623 
L 853.2 585.076248 
L 853.2 514.168087 
L 853.2 514.168087 
L 813.412 350.039375 
L 773.624 356.009685 
L 733.836 354.517921 
L 694.048 358.584698 
L 654.26 355.250549 
L 614.472 526.967206 
z
" style="fill:#81b1d2;fill-opacity:0.3;"/>
   </g>
   <g id="matplotlib.axis_3">
    <g id="xtick_10">
     <g id="line2d_46">
      <path clip-path="url(#p0f2f250bea)" d="M 57.44 606.04 
L 57.44 336.72 
" style="fill:none;stroke:#ffffff;stroke-linecap:square;stroke-opacity:0.25;stroke-width:0.8;"/>
     </g>
     <g id="line2d_47">
      <g>
       <use style="fill:#ffffff;stroke:#ffffff;stroke-width:0.8;" x="57.44" xlink:href="#m29901e472f" y="606.04"/>
      </g>
     </g>
     <g id="text_24">
      <!-- 2025-08-17 -->
      <g style="fill:#ffffff;" transform="translate(28.382188 620.638437)scale(0.1 -0.1)">
       <use xlink:href="#DejaVuSans-50"/>
       <use x="63.623047" xlink:href="#DejaVuSans-48"/>
       <use x="127.246094" xlink:href="#DejaVuSans-50"/>
       <use x="190.869141" xlink:href="#DejaVuSans-53"/>
       <use x="254.492188" xlink:href="#DejaVuSans-45"/>
       <use x="290.576172" xlink:href="#DejaVuSans-48"/>
       <use x="354.199219" xlink:href="#DejaVuSans-56"/>
       <use x="417.822266" xlink:href="#DejaVuSans-45"/>
       <use x="453.90625" xlink:href="#DejaVuSans-49"/>
       <use x="517.529297" xlink:href="#DejaVuSans-55"/>
      </g>
     </g>
    </g>
    <g id="xtick_11">
     <g id="line2d_48">
      <path clip-path="url(#p0f2f250bea)" d="M 137.016 606.04 
L 137.016 336.72 
" style="fill:none;stroke:#ffffff;stroke-linecap:square;stroke-opacity:0.25;stroke-width:0.8;"/>
     </g>
     <g id="line2d_49">
      <g>
       <use style="fill:#ffffff;stroke:#ffffff;stroke-width:0.8;" x="137.016" xlink:href="#m29901e472f" y="606.04"/>
      </g>
     </g>
     <g id="text_25">
      <!-- 2025-08-19 -->
      <g style="fill:#ffffff;" transform="translate(107.958188 620.638437)scale(0.1 -0.1)">
       <use xlink:href="#DejaVuSans-50"/>
       <use x="63.623047" xlink:href="#DejaVuSans-48"/>
       <use x="127.246094" xlink:href="#DejaVuSans-50"/>
       <use x="190.869141" xlink:href="#DejaVuSans-53"/>
       <use x="254.492188" xlink:href="#DejaVuSans-45"/>
       <use x="290.576172" xlink:href="#DejaVuSans-48"/>
       <use x="354.199219" xlink:href="#DejaVuSans-56"/>
       <use x="417.822266" xlink:href="#DejaVuSans-45"/>
       <use x="453.90625" xlink:href="#DejaVuSans-49"/>
       <use x="517.529297" xlink:href="#DejaVuSans-57"/>
      </g>
     </g>
    </g>
    <g id="xtick_12">
     <g id="line2d_50">
      <path clip-path="url(#p0f2f250bea)" d="M 216.592 606.04 
L 216.592 336.72 
" style="fill:none;stroke:#ffffff;stroke-linecap:square;stroke-opacity:0.25;stroke-width:0.8;"/>
     </g>
     <g id="line2d_51">
      <g>
       <use style="fill:#ffffff;stroke:#ffffff;stroke-width:0.8;" x="216.592" xlink:href="#m29901e472f" y="606.04"/>
      </g>
     </g>
     <g id="text_26">
      <!-- 2025-08-21 -->
      <g style="fill:#ffffff;" transform="translate(187.534188 620.638437)scale(0.1 -0.1)">
       <use xlink:href="#DejaVuSans-50"/>
       <use x="63.623047" xlink:href="#DejaVuSans-48"/>
       <use x="127.246094" xlink:href="#DejaVuSans-50"/>
       <use x="190.869141" xlink:href="#DejaVuSans-53"/>
       <use x="254.492188" xlink:href="#DejaVuSans-45"/>
       <use x="290.576172" xlink:href="#DejaVuSans-48"/>
       <use x="354.199219" xlink:href="#DejaVuSans-56"/>
       <use x="417.822266" xlink:href="#DejaVuSans-45"/>
       <use x="453.90625" xlink:href="#DejaVuSans-50"/>
       <use x="517.529297" xlink:href="#DejaVuSans-49"/>
      </g>
     </g>
    </g>
    <g id="xtick_13">
     <g id="line2d_52">
      <path clip-path="url(#p0f2f250bea)" d="M 296.168 606.04 
L 296.168 336.72 
" style="fill:none;stroke:#ffffff;stroke-linecap:square;stroke-opacity:0.25;stroke-width:0.8;"/>
     </g>
     <g id="line2d_53">
      <g>
       <use style="fill:#ffffff;stroke:#ffffff;stroke-width:0.8;" x="296.168" xlink:href="#m29901e472f" y="606.04"/>
      </g>
     </g>
     <g id="text_27">
      <!-- 2025-08-23 -->
      <g style="fill:#ffffff;" transform="translate(267.110188 620.638437)scale(0.1 -0.1)">
       <use xlink:href="#DejaVuSans-50"/>
       <use x="63.623047" xlink:href="#DejaVuSans-48"/>
       <use x="127.246094" xlink:href="#DejaVuSans-50"/>
       <use x="190.869141" xlink:href="#DejaVuSans-53"/>
       <use x="254.492188" xlink:href="#DejaVuSans-45"/>
       <use x="290.576172" xlink:href="#DejaVuSans-48"/>
       <use x="354.199219" xlink:href="#DejaVuSans-56"/>
       <use x="417.822266" xlink:href="#DejaVuSans-45"/>
       <use x="453.90625" xlink:href="#DejaVuSans-50"/>
       <use x="517.529297" xlink:href="#DejaVuSans-51"/>
      </g>
     </g>
    </g>
    <g id="xtick_14">
     <g id="line2d_54">
      <path clip-path="url(#p0f2f250bea)" d="M 375.744 606.04 
L 375.744 336.72 
" style="fill:none;stroke:#ffffff;stroke-linecap:square;stroke-opacity:0.25;stroke-width:0.8;"/>
     </g>
     <g id="line2d_55">
      <g>
       <use style="fill:#ffffff;stroke:#ffffff;stroke-width:0.8;" x="375.744" xlink:href="#m29901e472f" y="606.04"/>
      </g>
     </g>
     <g id="text_28">
      <!-- 2025-08-25 -->
      <g style="fill:#ffffff;" transform="translate(346.686188 620.638437)scale(0.1 -0.1)">
       <use xlink:href="#DejaVuSans-50"/>
       <use x="63.623047" xlink:href="#DejaVuSans-48"/>
       <use x="127.246094" xlink:href="#DejaVuSans-50"/>
       <use x="190.869141" xlink:href="#DejaVuSans-53"/>
       <use x="254.492188" xlink:href="#DejaVuSans-45"/>
       <use x="290.576172" xlink:href="#DejaVuSans-48"/>
       <use x="354.199219" xlink:href="#DejaVuSans-56"/>
       <use x="417.822266" xlink:href="#DejaVuSans-45"/>
       <use x="453.90625" xlink:href="#DejaVuSans-50"/>
       <use x="517.529297" xlink:href="#DejaVuSans-53"/>
      </g>
     </g>
    </g>
    <g id="xtick_15">
     <g id="line2d_56">
      <path clip-path="url(#p0f2f250bea)" d="M 455.32 606.04 
L 455.32 336.72 
" style="fill:none;stroke:#ffffff;stroke-linecap:square;stroke-opacity:0.25;stroke-width:0.8;"/>
     </g>
     <g id="line2d_57">
      <g>
       <use style="fill:#ffffff;stroke:#ffffff;stroke-width:0.8;" x="455.32" xlink:href="#m29901e472f" y="606.04"/>
      </g>
     </g>
     <g id="text_29">
      <!-- 2025-08-27 -->
      <g style="fill:#ffffff;" transform="translate(426.262188 620.638437)scale(0.1 -0.1)">
       <use xlink:href="#DejaVuSans-50"/>
       <use x="63.623047" xlink:href="#DejaVuSans-48"/>
       <use x="127.246094" xlink:href="#DejaVuSans-50"/>
       <use x="190.869141" xlink:href="#DejaVuSans-53"/>
       <use x="254.492188" xlink:href="#DejaVuSans-45"/>
       <use x="290.576172" xlink:href="#DejaVuSans-48"/>
       <use x="354.199219" xlink:href="#DejaVuSans-56"/>
       <use x="417.822266" xlink:href="#DejaVuSans-45"/>
       <use x="453.90625" xlink:href="#DejaVuSans-50"/>
       <use x="517.529297" xlink:href="#DejaVuSans-55"/>
      </g>
     </g>
    </g>
    <g id="xtick_16">
     <g id="line2d_58">
      <path clip-path="url(#p0f2f250bea)" d="M 534.896 606.04 
L 534.896 336.72 
" style="fill:none;stroke:#ffffff;stroke-linecap:square;stroke-opacity:0.25;stroke-width:0.8;"/>
     </g>
     <g id="line2d_59">
      <g>
       <use style="fill:#ffffff;stroke:#ffffff;stroke-width:0.8;" x="534.896" xlink:href="#m29901e472f" y="606.04"/>
      </g>
     </g>
     <g id="text_30">
      <!-- 2025-08-29 -->
      <g style="fill:#ffffff;" transform="translate(505.838188 620.638437)scale(0.1 -0.1)">
       <use xlink:href="#DejaVuSans-50"/>
       <use x="63.623047" xlink:href="#DejaVuSans-48"/>
       <use x="127.246094" xlink:href="#DejaVuSans-50"/>
       <use x="190.869141" xlink:href="#DejaVuSans-53"/>
       <use x="254.492188" xlink:href="#DejaVuSans-45"/>
       <use x="290.576172" xlink:href="#DejaVuSans-48"/>
       <use x="354.199219" xlink:href="#DejaVuSans-56"/>
       <use x="417.822266" xlink:href="#DejaVuSans-45"/>
       <use x="453.90625" xlink:href="#DejaVuSans-50"/>
       <use x="517.529297" xlink:href="#DejaVuSans-57"/>
      </g>
     </g>
    </g>
    <g id="xtick_17">
     <g id="line2d_60">
      <path clip-path="url(#p0f2f250bea)" d="M 614.472 606.04 
L 614.472 336.72 
" style="fill:none;stroke:#ffffff;stroke-linecap:square;stroke-opacity:0.25;stroke-width:0.8;"/>
     </g>
     <g id="line2d_61">
      <g>
       <use style="fill:#ffffff;stroke:#ffffff;stroke-width:0.8;" x="614.472" xlink:href="#m29901e472f" y="606.04"/>
      </g>
     </g>
     <g id="text_31">
      <!-- 2025-08-31 -->
      <g style="fill:#ffffff;" transform="translate(585.414188 620.638437)scale(0.1 -0.1)">
       <use xlink:href="#DejaVuSans-50"/>
       <use x="63.623047" xlink:href="#DejaVuSans-48"/>
       <use x="127.246094" xlink:href="#DejaVuSans-50"/>
       <use x="190.869141" xlink:href="#DejaVuSans-53"/>
       <use x="254.492188" xlink:href="#DejaVuSans-45"/>
       <use x="290.576172" xlink:href="#DejaVuSans-48"/>
       <use x="354.199219" xlink:href="#DejaVuSans-56"/>
       <use x="417.822266" xlink:href="#DejaVuSans-45"/>
       <use x="453.90625" xlink:href="#DejaVuSans-51"/>
       <use x="517.529297" xlink:href="#DejaVuSans-49"/>
      </g>
     </g>
    </g>
    <g id="xtick_18">
     <g id="line2d_62">
      <path clip-path="url(#p0f2f250bea)" d="M 654.26 606.04 
L 654.26 336.72 
" style="fill:none;stroke:#ffffff;stroke-linecap:square;stroke-opacity:0.25;stroke-width:0.8;"/>
     </g>
     <g id="line2d_63">
      <g>
       <use style="fill:#ffffff;stroke:#ffffff;stroke-width:0.8;" x="654.26" xlink:href="#m29901e472f" y="606.04"/>
      </g>
     </g>
     <g id="text_32">
      <!-- 2025-09-01 -->
      <g style="fill:#ffffff;" transform="translate(625.202188 620.638437)scale(0.1 -0.1)">
       <use xlink:href="#DejaVuSans-50"/>
       <use x="63.623047" xlink:href="#DejaVuSans-48"/>
       <use x="127.246094" xlink:href="#DejaVuSans-50"/>
       <use x="190.869141" xlink:href="#DejaVuSans-53"/>
       <use x="254.492188" xlink:href="#DejaVuSans-45"/>
       <use x="290.576172" xlink:href="#DejaVuSans-48"/>
       <use x="354.199219" xlink:href="#DejaVuSans-57"/>
       <use x="417.822266" xlink:href="#DejaVuSans-45"/>
       <use x="453.90625" xlink:href="#DejaVuSans-48"/>
       <use x="517.529297" xlink:href="#DejaVuSans-49"/>
      </g>
     </g>
    </g>
    <g id="xtick_19">
     <g id="line2d_64">
      <path clip-path="url(#p0f2f250bea)" d="M 733.836 606.04 
L 733.836 336.72 
" style="fill:none;stroke:#ffffff;stroke-linecap:square;stroke-opacity:0.25;stroke-width:0.8;"/>
     </g>
     <g id="line2d_65">
      <g>
       <use style="fill:#ffffff;stroke:#ffffff;stroke-width:0.8;" x="733.836" xlink:href="#m29901e472f" y="606.04"/>
      </g>
     </g>
     <g id="text_33">
      <!-- 2025-09-03 -->
      <g style="fill:#ffffff;" transform="translate(704.778188 620.638437)scale(0.1 -0.1)">
       <use xlink:href="#DejaVuSans-50"/>
       <use x="63.623047" xlink:href="#DejaVuSans-48"/>
       <use x="127.246094" xlink:href="#DejaVuSans-50"/>
       <use x="190.869141" xlink:href="#DejaVuSans-53"/>
       <use x="254.492188" xlink:href="#DejaVuSans-45"/>
       <use x="290.576172" xlink:href="#DejaVuSans-48"/>
       <use x="354.199219" xlink:href="#DejaVuSans-57"/>
       <use x="417.822266" xlink:href="#DejaVuSans-45"/>
       <use x="453.90625" xlink:href="#DejaVuSans-48"/>
       <use x="517.529297" xlink:href="#DejaVuSans-51"/>
      </g>
     </g>
    </g>
    <g id="xtick_20">
     <g id="line2d_66">
      <path clip-path="url(#p0f2f250bea)" d="M 813.412 606.04 
L 813.412 336.72 
" style="fill:none;stroke:#ffffff;stroke-linecap:square;stroke-opacity:0.25;stroke-width:0.8;"/>
     </g>
     <g id="line2d_67">
      <g>
       <use style="fill:#ffffff;stroke:#ffffff;stroke-width:0.8;" x="813.412" xlink:href="#m29901e472f" y="606.04"/>
      </g>
     </g>
     <g id="text_34">
      <!-- 2025-09-05 -->
      <g style="fill:#ffffff;" transform="translate(784.354188 620.638437)scale(0.1 -0.1)">
       <use xlink:href="#DejaVuSans-50"/>
       <use x="63.623047" xlink:href="#DejaVuSans-48"/>
       <use x="127.246094" xlink:href="#DejaVuSans-50"/>
       <use x="190.869141" xlink:href="#DejaVuSans-53"/>
       <use x="254.492188" xlink:href="#DejaVuSans-45"/>
       <use x="290.576172" xlink:href="#DejaVuSans-48"/>
       <use x="354.199219" xlink:href="#DejaVuSans-57"/>
       <use x="417.822266" xlink:href="#DejaVuSans-45"/>
       <use x="453.90625" xlink:href="#DejaVuSans-48"/>
       <use x="517.529297" xlink:href="#DejaVuSans-53"/>
      </g>
     </g>
    </g>
    <g id="text_35">
     <!-- Date -->
     <g style="fill:#ffffff;" transform="translate(443.369219 634.316562)scale(0.1 -0.1)">
      <use xlink:href="#DejaVuSans-68"/>
      <use x="77.001953" xlink:href="#DejaVuSans-97"/>
      <use x="138.28125" xlink:href="#DejaVuSans-116"/>
      <use x="177.490234" xlink:href="#DejaVuSans-101"/>
     </g>
    </g>
   </g>
   <g id="matplotlib.axis_4">
    <g id="ytick_8">
     <g id="line2d_68">
      <path clip-path="url(#p0f2f250bea)" d="M 57.44 592.074351 
L 853.2 592.074351 
" style="fill:none;stroke:#ffffff;stroke-linecap:square;stroke-opacity:0.25;stroke-width:0.8;"/>
     </g>
     <g id="line2d_69">
      <g>
       <use style="fill:#ffffff;stroke:#ffffff;stroke-width:0.8;" x="57.44" xlink:href="#m23d5f880c1" y="592.074351"/>
      </g>
     </g>
     <g id="text_36">
      <!-- 3100 -->
      <g style="fill:#ffffff;" transform="translate(24.99 595.87357)scale(0.1 -0.1)">
       <use xlink:href="#DejaVuSans-51"/>
       <use x="63.623047" xlink:href="#DejaVuSans-49"/>
       <use x="127.246094" xlink:href="#DejaVuSans-48"/>
       <use x="190.869141" xlink:href="#DejaVuSans-48"/>
      </g>
     </g>
    </g>
    <g id="ytick_9">
     <g id="line2d_70">
      <path clip-path="url(#p0f2f250bea)" d="M 57.44 559.549238 
L 853.2 559.549238 
" style="fill:none;stroke:#ffffff;stroke-linecap:square;stroke-opacity:0.25;stroke-width:0.8;"/>
     </g>
     <g id="line2d_71">
      <g>
       <use style="fill:#ffffff;stroke:#ffffff;stroke-width:0.8;" x="57.44" xlink:href="#m23d5f880c1" y="559.549238"/>
      </g>
     </g>
     <g id="text_37">
      <!-- 3120 -->
      <g style="fill:#ffffff;" transform="translate(24.99 563.348457)scale(0.1 -0.1)">
       <use xlink:href="#DejaVuSans-51"/>
       <use x="63.623047" xlink:href="#DejaVuSans-49"/>
       <use x="127.246094" xlink:href="#DejaVuSans-50"/>
       <use x="190.869141" xlink:href="#DejaVuSans-48"/>
      </g>
     </g>
    </g>
    <g id="ytick_10">
     <g id="line2d_72">
      <path clip-path="url(#p0f2f250bea)" d="M 57.44 527.024125 
L 853.2 527.024125 
" style="fill:none;stroke:#ffffff;stroke-linecap:square;stroke-opacity:0.25;stroke-width:0.8;"/>
     </g>
     <g id="line2d_73">
      <g>
       <use style="fill:#ffffff;stroke:#ffffff;stroke-width:0.8;" x="57.44" xlink:href="#m23d5f880c1" y="527.024125"/>
      </g>
     </g>
     <g id="text_38">
      <!-- 3140 -->
      <g style="fill:#ffffff;" transform="translate(24.99 530.823344)scale(0.1 -0.1)">
       <use xlink:href="#DejaVuSans-51"/>
       <use x="63.623047" xlink:href="#DejaVuSans-49"/>
       <use x="127.246094" xlink:href="#DejaVuSans-52"/>
       <use x="190.869141" xlink:href="#DejaVuSans-48"/>
      </g>
     </g>
    </g>
    <g id="ytick_11">
     <g id="line2d_74">
      <path clip-path="url(#p0f2f250bea)" d="M 57.44 494.499013 
L 853.2 494.499013 
" style="fill:none;stroke:#ffffff;stroke-linecap:square;stroke-opacity:0.25;stroke-width:0.8;"/>
     </g>
     <g id="line2d_75">
      <g>
       <use style="fill:#ffffff;stroke:#ffffff;stroke-width:0.8;" x="57.44" xlink:href="#m23d5f880c1" y="494.499013"/>
      </g>
     </g>
     <g id="text_39">
      <!-- 3160 -->
      <g style="fill:#ffffff;" transform="translate(24.99 498.298231)scale(0.1 -0.1)">
       <use xlink:href="#DejaVuSans-51"/>
       <use x="63.623047" xlink:href="#DejaVuSans-49"/>
       <use x="127.246094" xlink:href="#DejaVuSans-54"/>
       <use x="190.869141" xlink:href="#DejaVuSans-48"/>
      </g>
     </g>
    </g>
    <g id="ytick_12">
     <g id="line2d_76">
      <path clip-path="url(#p0f2f250bea)" d="M 57.44 461.9739 
L 853.2 461.9739 
" style="fill:none;stroke:#ffffff;stroke-linecap:square;stroke-opacity:0.25;stroke-width:0.8;"/>
     </g>
     <g id="line2d_77">
      <g>
       <use style="fill:#ffffff;stroke:#ffffff;stroke-width:0.8;" x="57.44" xlink:href="#m23d5f880c1" y="461.9739"/>
      </g>
     </g>
     <g id="text_40">
      <!-- 3180 -->
      <g style="fill:#ffffff;" transform="translate(24.99 465.773119)scale(0.1 -0.1)">
       <use xlink:href="#DejaVuSans-51"/>
       <use x="63.623047" xlink:href="#DejaVuSans-49"/>
       <use x="127.246094" xlink:href="#DejaVuSans-56"/>
       <use x="190.869141" xlink:href="#DejaVuSans-48"/>
      </g>
     </g>
    </g>
    <g id="ytick_13">
     <g id="line2d_78">
      <path clip-path="url(#p0f2f250bea)" d="M 57.44 429.448787 
L 853.2 429.448787 
" style="fill:none;stroke:#ffffff;stroke-linecap:square;stroke-opacity:0.25;stroke-width:0.8;"/>
     </g>
     <g id="line2d_79">
      <g>
       <use style="fill:#ffffff;stroke:#ffffff;stroke-width:0.8;" x="57.44" xlink:href="#m23d5f880c1" y="429.448787"/>
      </g>
     </g>
     <g id="text_41">
      <!-- 3200 -->
      <g style="fill:#ffffff;" transform="translate(24.99 433.248006)scale(0.1 -0.1)">
       <use xlink:href="#DejaVuSans-51"/>
       <use x="63.623047" xlink:href="#DejaVuSans-50"/>
       <use x="127.246094" xlink:href="#DejaVuSans-48"/>
       <use x="190.869141" xlink:href="#DejaVuSans-48"/>
      </g>
     </g>
    </g>
    <g id="ytick_14">
     <g id="line2d_80">
      <path clip-path="url(#p0f2f250bea)" d="M 57.44 396.923675 
L 853.2 396.923675 
" style="fill:none;stroke:#ffffff;stroke-linecap:square;stroke-opacity:0.25;stroke-width:0.8;"/>
     </g>
     <g id="line2d_81">
      <g>
       <use style="fill:#ffffff;stroke:#ffffff;stroke-width:0.8;" x="57.44" xlink:href="#m23d5f880c1" y="396.923675"/>
      </g>
     </g>
     <g id="text_42">
      <!-- 3220 -->
      <g style="fill:#ffffff;" transform="translate(24.99 400.722893)scale(0.1 -0.1)">
       <use xlink:href="#DejaVuSans-51"/>
       <use x="63.623047" xlink:href="#DejaVuSans-50"/>
       <use x="127.246094" xlink:href="#DejaVuSans-50"/>
       <use x="190.869141" xlink:href="#DejaVuSans-48"/>
      </g>
     </g>
    </g>
    <g id="ytick_15">
     <g id="line2d_82">
      <path clip-path="url(#p0f2f250bea)" d="M 57.44 364.398562 
L 853.2 364.398562 
" style="fill:none;stroke:#ffffff;stroke-linecap:square;stroke-opacity:0.25;stroke-width:0.8;"/>
     </g>
     <g id="line2d_83">
      <g>
       <use style="fill:#ffffff;stroke:#ffffff;stroke-width:0.8;" x="57.44" xlink:href="#m23d5f880c1" y="364.398562"/>
      </g>
     </g>
     <g id="text_43">
      <!-- 3240 -->
      <g style="fill:#ffffff;" transform="translate(24.99 368.197781)scale(0.1 -0.1)">
       <use xlink:href="#DejaVuSans-51"/>
       <use x="63.623047" xlink:href="#DejaVuSans-50"/>
       <use x="127.246094" xlink:href="#DejaVuSans-52"/>
       <use x="190.869141" xlink:href="#DejaVuSans-48"/>
      </g>
     </g>
    </g>
    <g id="text_44">
     <!-- Cloud Cost (zoom) -->
     <defs>
      <path d="M 5.515625 54.6875 
L 48.1875 54.6875 
L 48.1875 46.484375 
L 14.40625 7.171875 
L 48.1875 7.171875 
L 48.1875 0 
L 4.296875 0 
L 4.296875 8.203125 
L 38.09375 47.515625 
L 5.515625 47.515625 
z
" id="DejaVuSans-122"/>
     </defs>
     <g style="fill:#ffffff;" transform="translate(18.910312 517.471406)rotate(-90)scale(0.1 -0.1)">
      <use xlink:href="#DejaVuSans-67"/>
      <use x="69.824219" xlink:href="#DejaVuSans-108"/>
      <use x="97.607422" xlink:href="#DejaVuSans-111"/>
      <use x="158.789062" xlink:href="#DejaVuSans-117"/>
      <use x="222.167969" xlink:href="#DejaVuSans-100"/>
      <use x="285.644531" xlink:href="#DejaVuSans-32"/>
      <use x="317.431641" xlink:href="#DejaVuSans-67"/>
      <use x="387.255859" xlink:href="#DejaVuSans-111"/>
      <use x="448.4375" xlink:href="#DejaVuSans-115"/>
      <use x="500.537109" xlink:href="#DejaVuSans-116"/>
      <use x="539.746094" xlink:href="#DejaVuSans-32"/>
      <use x="571.533203" xlink:href="#DejaVuSans-40"/>
      <use x="610.546875" xlink:href="#DejaVuSans-122"/>
      <use x="663.037109" xlink:href="#DejaVuSans-111"/>
      <use x="724.21875" xlink:href="#DejaVuSans-111"/>
      <use x="785.400391" xlink:href="#DejaVuSans-109"/>
      <use x="882.8125" xlink:href="#DejaVuSans-41"/>
     </g>
    </g>
   </g>
   <g id="line2d_84">
    <path clip-path="url(#p0f2f250bea)" d="M 57.44 567.013752 
L 97.228 405.916868 
L 137.016 402.030117 
L 176.804 397.899428 
L 216.592 397.931953 
L 256.38 389.930775 
L 296.168 553.662193 
L 335.956 547.449896 
L 375.744 377.506182 
L 415.532 382.336162 
L 455.32 375.879927 
L 495.108 377.506182 
L 534.896 373.310443 
L 574.684 533.171372 
L 614.472 531.480066 
" style="fill:none;stroke:#8dd3c7;stroke-linecap:square;stroke-opacity:0.9;stroke-width:2;"/>
   </g>
   <g id="line2d_85">
    <path clip-path="url(#p0f2f250bea)" d="M 455.32 381.105737 
L 495.108 383.896879 
L 534.896 417.175436 
L 574.684 558.679679 
L 614.472 559.229191 
L 654.26 395.878643 
L 694.048 377.708326 
" style="fill:none;stroke:#feffb3;stroke-linecap:square;stroke-opacity:0.27;stroke-width:2;"/>
   </g>
   <g id="line2d_86">
    <path clip-path="url(#p0f2f250bea)" d="M 495.108 381.066869 
L 534.896 413.422526 
L 574.684 560.501248 
L 614.472 556.361777 
L 654.26 388.257358 
L 694.048 375.46637 
L 733.836 377.40259 
" style="fill:none;stroke:#bfbbd9;stroke-linecap:square;stroke-opacity:0.39;stroke-width:2;"/>
   </g>
   <g id="line2d_87">
    <path clip-path="url(#p0f2f250bea)" d="M 534.896 417.650303 
L 574.684 561.76306 
L 614.472 555.900408 
L 654.26 391.187383 
L 694.048 376.383415 
L 733.836 381.096955 
L 773.624 385.655349 
" style="fill:none;stroke:#fa8174;stroke-linecap:square;stroke-opacity:0.51;stroke-width:2;"/>
   </g>
   <g id="line2d_88">
    <path clip-path="url(#p0f2f250bea)" d="M 574.684 554.162592 
L 614.472 550.669557 
L 654.26 378.396069 
L 694.048 367.714985 
L 733.836 372.38738 
L 773.624 373.108299 
L 813.412 413.115489 
" style="fill:none;stroke:#81b1d2;stroke-linecap:square;stroke-opacity:0.63;stroke-width:2;"/>
   </g>
   <g id="line2d_89">
    <path clip-path="url(#p0f2f250bea)" d="M 614.472 547.735467 
L 654.26 373.202785 
L 694.048 359.57769 
L 733.836 369.083642 
L 773.624 375.715187 
L 813.412 408.902999 
L 853.2 549.622248 
" style="fill:none;stroke:#fdb462;stroke-linecap:square;stroke-opacity:0.75;stroke-width:2;"/>
   </g>
   <g id="patch_10">
    <path d="M 57.44 606.04 
L 57.44 336.72 
" style="fill:none;stroke:#ffffff;stroke-linecap:square;stroke-linejoin:miter;stroke-width:0.8;"/>
   </g>
   <g id="patch_11">
    <path d="M 853.2 606.04 
L 853.2 336.72 
" style="fill:none;stroke:#ffffff;stroke-linecap:square;stroke-linejoin:miter;stroke-width:0.8;"/>
   </g>
   <g id="patch_12">
    <path d="M 57.44 606.04 
L 853.2 606.04 
" style="fill:none;stroke:#ffffff;stroke-linecap:square;stroke-linejoin:miter;stroke-width:0.8;"/>
   </g>
   <g id="patch_13">
    <path d="M 57.44 336.72 
L 853.2 336.72 
" style="fill:none;stroke:#ffffff;stroke-linecap:square;stroke-linejoin:miter;stroke-width:0.8;"/>
   </g>
   <g id="legend_2">
    <g id="patch_14">
     <path d="M 727.878125 359.398125 
L 846.2 359.398125 
Q 848.2 359.398125 848.2 357.398125 
L 848.2 343.72 
Q 848.2 341.72 846.2 341.72 
L 727.878125 341.72 
Q 725.878125 341.72 725.878125 343.72 
L 725.878125 357.398125 
Q 725.878125 359.398125 727.878125 359.398125 
z
" style="fill:#121212;opacity:0.8;stroke:#ffffff;stroke-linejoin:miter;"/>
    </g>
    <g id="line2d_90">
     <path d="M 729.878125 349.818438 
L 749.878125 349.818438 
" style="fill:none;stroke:#8dd3c7;stroke-linecap:square;stroke-opacity:0.9;stroke-width:2;"/>
    </g>
    <g id="line2d_91"/>
    <g id="text_45">
     <!-- Observed (zoom) -->
     <g style="fill:#ffffff;" transform="translate(757.878125 353.318438)scale(0.1 -0.1)">
      <use xlink:href="#DejaVuSans-79"/>
      <use x="78.710938" xlink:href="#DejaVuSans-98"/>
      <use x="142.1875" xlink:href="#DejaVuSans-115"/>
      <use x="194.287109" xlink:href="#DejaVuSans-101"/>
      <use x="255.810547" xlink:href="#DejaVuSans-114"/>
      <use x="296.923828" xlink:href="#DejaVuSans-118"/>
      <use x="356.103516" xlink:href="#DejaVuSans-101"/>
      <use x="417.626953" xlink:href="#DejaVuSans-100"/>
      <use x="481.103516" xlink:href="#DejaVuSans-32"/>
      <use x="512.890625" xlink:href="#DejaVuSans-40"/>
      <use x="551.904297" xlink:href="#DejaVuSans-122"/>
      <use x="604.394531" xlink:href="#DejaVuSans-111"/>
      <use x="665.576172" xlink:href="#DejaVuSans-111"/>
      <use x="726.757812" xlink:href="#DejaVuSans-109"/>
      <use x="824.169922" xlink:href="#DejaVuSans-41"/>
     </g>
    </g>
   </g>
  </g>
 </g>
 <defs>
  <clipPath id="p1273f16cde">
   <rect height="269.32" width="795.76" x="57.44" y="25.44"/>
  </clipPath>
  <clipPath id="p0f2f250bea">
   <rect height="269.32" width="795.76" x="57.44" y="336.72"/>
  </clipPath>
 </defs>
</svg>
