<svg width="1440" height="1024" viewBox="0 0 1440 1024" fill="none" xmlns="http://www.w3.org/2000/svg">
<rect width="1440" height="1024" fill="black"/>
<path d="M483.64 670.368L716.299 437.707C718.477 435.53 722.007 435.53 724.155 437.707L835.646 550.138C837.822 552.317 841.323 552.317 843.5 550.138L998.412 395.228C1000.59 393.052 1000.59 389.551 998.412 387.374L964.67 353.633C962.49 351.456 958.99 351.456 956.816 353.633L844.41 466.036C842.234 468.213 838.735 468.213 836.557 466.036L724.155 353.691C721.977 351.515 718.477 351.515 716.299 353.691L603.897 466.094C601.72 468.271 598.22 468.271 596.043 466.094L483.64 353.691C481.463 351.515 477.963 351.515 475.786 353.691L441.633 387.845C439.456 390.022 439.456 393.522 441.633 395.699L554.036 508.102C556.212 510.279 556.212 513.78 554.036 515.956L441.633 628.359C439.456 630.536 439.456 634.037 441.633 636.213L475.786 670.368C477.963 672.544 481.463 672.544 483.64 670.368Z" fill="white"/>
<path d="M483.64 670.368L716.299 437.707C718.477 435.53 722.007 435.53 724.155 437.707L835.646 550.138C837.822 552.317 841.323 552.317 843.5 550.138L998.412 395.228C1000.59 393.052 1000.59 389.551 998.412 387.374L964.67 353.633C962.49 351.456 958.99 351.456 956.816 353.633L844.41 466.036C842.234 468.213 838.735 468.213 836.557 466.036L724.155 353.691C721.977 351.515 718.477 351.515 716.299 353.691L603.897 466.094C601.72 468.271 598.22 468.271 596.043 466.094L483.64 353.691C481.463 351.515 477.963 351.515 475.786 353.691L441.633 387.845C439.456 390.022 439.456 393.522 441.633 395.699L554.036 508.102C556.212 510.279 556.212 513.78 554.036 515.956L441.633 628.359C439.456 630.536 439.456 634.037 441.633 636.213L475.786 670.368C477.963 672.544 481.463 672.544 483.64 670.368Z" fill="white"/>
<path d="M818.553 575.144L819.406 574.291L781.751 536.637C779.575 534.459 776.074 534.459 773.898 536.637L724.181 586.351C722.005 588.528 718.504 588.528 716.327 586.351L666.613 536.637C664.437 534.459 660.935 534.459 658.759 536.637L624.605 570.79C622.428 572.966 622.428 576.467 624.605 578.644L716.327 670.366C718.504 672.544 722.005 672.544 724.181 670.366L818.993 575.554L818.581 575.144H818.553Z" fill="white"/>
<path d="M898.359 535.686L864.225 569.82C862.053 571.99 862.053 575.512 864.225 577.682L956.85 670.31C959.021 672.482 962.54 672.482 964.714 670.31L998.845 636.175C1001.02 634.003 1001.02 630.484 998.845 628.313L906.221 535.686C904.049 533.514 900.53 533.514 898.359 535.686Z" fill="white"/>
</svg>
