<?xml version="1.0" encoding="utf-8" standalone="no"?>
<!DOCTYPE svg PUBLIC "-//W3C//DTD SVG 1.1//EN"
  "http://www.w3.org/Graphics/SVG/1.1/DTD/svg11.dtd">
<!-- Created with matplotlib (https://matplotlib.org/) -->
<svg height="720pt" version="1.1" viewBox="0 0 1080 720" width="1080pt" xmlns="http://www.w3.org/2000/svg" xmlns:xlink="http://www.w3.org/1999/xlink">
 <defs>
  <style type="text/css">
*{stroke-linecap:butt;stroke-linejoin:round;}
  </style>
 </defs>
 <g id="figure_1">
  <g id="patch_1">
   <path d="M 0 720 
L 1080 720 
L 1080 0 
L 0 0 
z
" style="fill:#121212;"/>
  </g>
  <g id="axes_1">
   <g id="patch_2">
    <path d="M 145.1 620.44 
L 1069.2 620.44 
L 1069.2 54 
L 145.1 54 
z
" style="fill:#121212;"/>
   </g>
   <g id="matplotlib.axis_1">
    <g id="xtick_1">
     <g id="line2d_1">
      <path clip-path="url(#padb1cc6ece)" d="M 187.104545 620.44 
L 187.104545 54 
" style="fill:none;stroke:#ffffff;stroke-linecap:square;stroke-opacity:0.2;stroke-width:0.6;"/>
     </g>
     <g id="line2d_2">
      <defs>
       <path d="M 0 0 
L 0 3.5 
" id="m36902be8b9" style="stroke:#ffffff;stroke-width:0.8;"/>
      </defs>
      <g>
       <use style="fill:#ffffff;stroke:#ffffff;stroke-width:0.8;" x="187.104545" xlink:href="#m36902be8b9" y="620.44"/>
      </g>
     </g>
     <g id="text_1">
      <!-- 0 -->
      <defs>
       <path d="M 31.78125 66.40625 
Q 24.171875 66.40625 20.328125 58.90625 
Q 16.5 51.421875 16.5 36.375 
Q 16.5 21.390625 20.328125 13.890625 
Q 24.171875 6.390625 31.78125 6.390625 
Q 39.453125 6.390625 43.28125 13.890625 
Q 47.125 21.390625 47.125 36.375 
Q 47.125 51.421875 43.28125 58.90625 
Q 39.453125 66.40625 31.78125 66.40625 
z
M 31.78125 74.21875 
Q 44.046875 74.21875 50.515625 64.515625 
Q 56.984375 54.828125 56.984375 36.375 
Q 56.984375 17.96875 50.515625 8.265625 
Q 44.046875 -1.421875 31.78125 -1.421875 
Q 19.53125 -1.421875 13.0625 8.265625 
Q 6.59375 17.96875 6.59375 36.375 
Q 6.59375 54.828125 13.0625 64.515625 
Q 19.53125 74.21875 31.78125 74.21875 
z
" id="DejaVuSans-48"/>
      </defs>
      <g style="fill:#ffffff;" transform="translate(174.379545 657.83375)scale(0.4 -0.4)">
       <use xlink:href="#DejaVuSans-48"/>
      </g>
     </g>
    </g>
    <g id="xtick_2">
     <g id="line2d_3">
      <path clip-path="url(#padb1cc6ece)" d="M 355.122727 620.44 
L 355.122727 54 
" style="fill:none;stroke:#ffffff;stroke-linecap:square;stroke-opacity:0.2;stroke-width:0.6;"/>
     </g>
     <g id="line2d_4">
      <g>
       <use style="fill:#ffffff;stroke:#ffffff;stroke-width:0.8;" x="355.122727" xlink:href="#m36902be8b9" y="620.44"/>
      </g>
     </g>
     <g id="text_2">
      <!-- 2 -->
      <defs>
       <path d="M 19.1875 8.296875 
L 53.609375 8.296875 
L 53.609375 0 
L 7.328125 0 
L 7.328125 8.296875 
Q 12.9375 14.109375 22.625 23.890625 
Q 32.328125 33.6875 34.8125 36.53125 
Q 39.546875 41.84375 41.421875 45.53125 
Q 43.3125 49.21875 43.3125 52.78125 
Q 43.3125 58.59375 39.234375 62.25 
Q 35.15625 65.921875 28.609375 65.921875 
Q 23.96875 65.921875 18.8125 64.3125 
Q 13.671875 62.703125 7.8125 59.421875 
L 7.8125 69.390625 
Q 13.765625 71.78125 18.9375 73 
Q 24.125 74.21875 28.421875 74.21875 
Q 39.75 74.21875 46.484375 68.546875 
Q 53.21875 62.890625 53.21875 53.421875 
Q 53.21875 48.921875 51.53125 44.890625 
Q 49.859375 40.875 45.40625 35.40625 
Q 44.1875 33.984375 37.640625 27.21875 
Q 31.109375 20.453125 19.1875 8.296875 
z
" id="DejaVuSans-50"/>
      </defs>
      <g style="fill:#ffffff;" transform="translate(342.397727 657.83375)scale(0.4 -0.4)">
       <use xlink:href="#DejaVuSans-50"/>
      </g>
     </g>
    </g>
    <g id="xtick_3">
     <g id="line2d_5">
      <path clip-path="url(#padb1cc6ece)" d="M 523.140909 620.44 
L 523.140909 54 
" style="fill:none;stroke:#ffffff;stroke-linecap:square;stroke-opacity:0.2;stroke-width:0.6;"/>
     </g>
     <g id="line2d_6">
      <g>
       <use style="fill:#ffffff;stroke:#ffffff;stroke-width:0.8;" x="523.140909" xlink:href="#m36902be8b9" y="620.44"/>
      </g>
     </g>
     <g id="text_3">
      <!-- 4 -->
      <defs>
       <path d="M 37.796875 64.3125 
L 12.890625 25.390625 
L 37.796875 25.390625 
z
M 35.203125 72.90625 
L 47.609375 72.90625 
L 47.609375 25.390625 
L 58.015625 25.390625 
L 58.015625 17.1875 
L 47.609375 17.1875 
L 47.609375 0 
L 37.796875 0 
L 37.796875 17.1875 
L 4.890625 17.1875 
L 4.890625 26.703125 
z
" id="DejaVuSans-52"/>
      </defs>
      <g style="fill:#ffffff;" transform="translate(510.415909 657.83375)scale(0.4 -0.4)">
       <use xlink:href="#DejaVuSans-52"/>
      </g>
     </g>
    </g>
    <g id="xtick_4">
     <g id="line2d_7">
      <path clip-path="url(#padb1cc6ece)" d="M 691.159091 620.44 
L 691.159091 54 
" style="fill:none;stroke:#ffffff;stroke-linecap:square;stroke-opacity:0.2;stroke-width:0.6;"/>
     </g>
     <g id="line2d_8">
      <g>
       <use style="fill:#ffffff;stroke:#ffffff;stroke-width:0.8;" x="691.159091" xlink:href="#m36902be8b9" y="620.44"/>
      </g>
     </g>
     <g id="text_4">
      <!-- 6 -->
      <defs>
       <path d="M 33.015625 40.375 
Q 26.375 40.375 22.484375 35.828125 
Q 18.609375 31.296875 18.609375 23.390625 
Q 18.609375 15.53125 22.484375 10.953125 
Q 26.375 6.390625 33.015625 6.390625 
Q 39.65625 6.390625 43.53125 10.953125 
Q 47.40625 15.53125 47.40625 23.390625 
Q 47.40625 31.296875 43.53125 35.828125 
Q 39.65625 40.375 33.015625 40.375 
z
M 52.59375 71.296875 
L 52.59375 62.3125 
Q 48.875 64.0625 45.09375 64.984375 
Q 41.3125 65.921875 37.59375 65.921875 
Q 27.828125 65.921875 22.671875 59.328125 
Q 17.53125 52.734375 16.796875 39.40625 
Q 19.671875 43.65625 24.015625 45.921875 
Q 28.375 48.1875 33.59375 48.1875 
Q 44.578125 48.1875 50.953125 41.515625 
Q 57.328125 34.859375 57.328125 23.390625 
Q 57.328125 12.15625 50.6875 5.359375 
Q 44.046875 -1.421875 33.015625 -1.421875 
Q 20.359375 -1.421875 13.671875 8.265625 
Q 6.984375 17.96875 6.984375 36.375 
Q 6.984375 53.65625 15.1875 63.9375 
Q 23.390625 74.21875 37.203125 74.21875 
Q 40.921875 74.21875 44.703125 73.484375 
Q 48.484375 72.75 52.59375 71.296875 
z
" id="DejaVuSans-54"/>
      </defs>
      <g style="fill:#ffffff;" transform="translate(678.434091 657.83375)scale(0.4 -0.4)">
       <use xlink:href="#DejaVuSans-54"/>
      </g>
     </g>
    </g>
    <g id="xtick_5">
     <g id="line2d_9">
      <path clip-path="url(#padb1cc6ece)" d="M 859.177273 620.44 
L 859.177273 54 
" style="fill:none;stroke:#ffffff;stroke-linecap:square;stroke-opacity:0.2;stroke-width:0.6;"/>
     </g>
     <g id="line2d_10">
      <g>
       <use style="fill:#ffffff;stroke:#ffffff;stroke-width:0.8;" x="859.177273" xlink:href="#m36902be8b9" y="620.44"/>
      </g>
     </g>
     <g id="text_5">
      <!-- 8 -->
      <defs>
       <path d="M 31.78125 34.625 
Q 24.75 34.625 20.71875 30.859375 
Q 16.703125 27.09375 16.703125 20.515625 
Q 16.703125 13.921875 20.71875 10.15625 
Q 24.75 6.390625 31.78125 6.390625 
Q 38.8125 6.390625 42.859375 10.171875 
Q 46.921875 13.96875 46.921875 20.515625 
Q 46.921875 27.09375 42.890625 30.859375 
Q 38.875 34.625 31.78125 34.625 
z
M 21.921875 38.8125 
Q 15.578125 40.375 12.03125 44.71875 
Q 8.5 49.078125 8.5 55.328125 
Q 8.5 64.0625 14.71875 69.140625 
Q 20.953125 74.21875 31.78125 74.21875 
Q 42.671875 74.21875 48.875 69.140625 
Q 55.078125 64.0625 55.078125 55.328125 
Q 55.078125 49.078125 51.53125 44.71875 
Q 48 40.375 41.703125 38.8125 
Q 48.828125 37.15625 52.796875 32.3125 
Q 56.78125 27.484375 56.78125 20.515625 
Q 56.78125 9.90625 50.3125 4.234375 
Q 43.84375 -1.421875 31.78125 -1.421875 
Q 19.734375 -1.421875 13.25 4.234375 
Q 6.78125 9.90625 6.78125 20.515625 
Q 6.78125 27.484375 10.78125 32.3125 
Q 14.796875 37.15625 21.921875 38.8125 
z
M 18.3125 54.390625 
Q 18.3125 48.734375 21.84375 45.5625 
Q 25.390625 42.390625 31.78125 42.390625 
Q 38.140625 42.390625 41.71875 45.5625 
Q 45.3125 48.734375 45.3125 54.390625 
Q 45.3125 60.0625 41.71875 63.234375 
Q 38.140625 66.40625 31.78125 66.40625 
Q 25.390625 66.40625 21.84375 63.234375 
Q 18.3125 60.0625 18.3125 54.390625 
z
" id="DejaVuSans-56"/>
      </defs>
      <g style="fill:#ffffff;" transform="translate(846.452273 657.83375)scale(0.4 -0.4)">
       <use xlink:href="#DejaVuSans-56"/>
      </g>
     </g>
    </g>
    <g id="xtick_6">
     <g id="line2d_11">
      <path clip-path="url(#padb1cc6ece)" d="M 1027.195455 620.44 
L 1027.195455 54 
" style="fill:none;stroke:#ffffff;stroke-linecap:square;stroke-opacity:0.2;stroke-width:0.6;"/>
     </g>
     <g id="line2d_12">
      <g>
       <use style="fill:#ffffff;stroke:#ffffff;stroke-width:0.8;" x="1027.195455" xlink:href="#m36902be8b9" y="620.44"/>
      </g>
     </g>
     <g id="text_6">
      <!-- 10 -->
      <defs>
       <path d="M 12.40625 8.296875 
L 28.515625 8.296875 
L 28.515625 63.921875 
L 10.984375 60.40625 
L 10.984375 69.390625 
L 28.421875 72.90625 
L 38.28125 72.90625 
L 38.28125 8.296875 
L 54.390625 8.296875 
L 54.390625 0 
L 12.40625 0 
z
" id="DejaVuSans-49"/>
      </defs>
      <g style="fill:#ffffff;" transform="translate(1001.745455 657.83375)scale(0.4 -0.4)">
       <use xlink:href="#DejaVuSans-49"/>
       <use x="63.623047" xlink:href="#DejaVuSans-48"/>
      </g>
     </g>
    </g>
    <g id="text_7">
     <!-- Time -->
     <defs>
      <path d="M -0.296875 72.90625 
L 61.375 72.90625 
L 61.375 64.59375 
L 35.5 64.59375 
L 35.5 0 
L 25.59375 0 
L 25.59375 64.59375 
L -0.296875 64.59375 
z
" id="DejaVuSans-84"/>
      <path d="M 9.421875 54.6875 
L 18.40625 54.6875 
L 18.40625 0 
L 9.421875 0 
z
M 9.421875 75.984375 
L 18.40625 75.984375 
L 18.40625 64.59375 
L 9.421875 64.59375 
z
" id="DejaVuSans-105"/>
      <path d="M 52 44.1875 
Q 55.375 50.25 60.0625 53.125 
Q 64.75 56 71.09375 56 
Q 79.640625 56 84.28125 50.015625 
Q 88.921875 44.046875 88.921875 33.015625 
L 88.921875 0 
L 79.890625 0 
L 79.890625 32.71875 
Q 79.890625 40.578125 77.09375 44.375 
Q 74.3125 48.1875 68.609375 48.1875 
Q 61.625 48.1875 57.5625 43.546875 
Q 53.515625 38.921875 53.515625 30.90625 
L 53.515625 0 
L 44.484375 0 
L 44.484375 32.71875 
Q 44.484375 40.625 41.703125 44.40625 
Q 38.921875 48.1875 33.109375 48.1875 
Q 26.21875 48.1875 22.15625 43.53125 
Q 18.109375 38.875 18.109375 30.90625 
L 18.109375 0 
L 9.078125 0 
L 9.078125 54.6875 
L 18.109375 54.6875 
L 18.109375 46.1875 
Q 21.1875 51.21875 25.484375 53.609375 
Q 29.78125 56 35.6875 56 
Q 41.65625 56 45.828125 52.96875 
Q 50 49.953125 52 44.1875 
z
" id="DejaVuSans-109"/>
      <path d="M 56.203125 29.59375 
L 56.203125 25.203125 
L 14.890625 25.203125 
Q 15.484375 15.921875 20.484375 11.0625 
Q 25.484375 6.203125 34.421875 6.203125 
Q 39.59375 6.203125 44.453125 7.46875 
Q 49.3125 8.734375 54.109375 11.28125 
L 54.109375 2.78125 
Q 49.265625 0.734375 44.1875 -0.34375 
Q 39.109375 -1.421875 33.890625 -1.421875 
Q 20.796875 -1.421875 13.15625 6.1875 
Q 5.515625 13.8125 5.515625 26.8125 
Q 5.515625 40.234375 12.765625 48.109375 
Q 20.015625 56 32.328125 56 
Q 43.359375 56 49.78125 48.890625 
Q 56.203125 41.796875 56.203125 29.59375 
z
M 47.21875 32.234375 
Q 47.125 39.59375 43.09375 43.984375 
Q 39.0625 48.390625 32.421875 48.390625 
Q 24.90625 48.390625 20.390625 44.140625 
Q 15.875 39.890625 15.1875 32.171875 
z
" id="DejaVuSans-101"/>
     </defs>
     <g style="fill:#ffffff;" transform="translate(557.6 700.54625)scale(0.4 -0.4)">
      <use xlink:href="#DejaVuSans-84"/>
      <use x="61.037109" xlink:href="#DejaVuSans-105"/>
      <use x="88.820312" xlink:href="#DejaVuSans-109"/>
      <use x="186.232422" xlink:href="#DejaVuSans-101"/>
     </g>
    </g>
   </g>
   <g id="matplotlib.axis_2">
    <g id="ytick_1">
     <g id="line2d_13">
      <path clip-path="url(#padb1cc6ece)" d="M 145.1 612.746535 
L 1069.2 612.746535 
" style="fill:none;stroke:#ffffff;stroke-linecap:square;stroke-opacity:0.2;stroke-width:0.6;"/>
     </g>
     <g id="line2d_14">
      <defs>
       <path d="M 0 0 
L -3.5 0 
" id="m59716fa304" style="stroke:#ffffff;stroke-width:0.8;"/>
      </defs>
      <g>
       <use style="fill:#ffffff;stroke:#ffffff;stroke-width:0.8;" x="145.1" xlink:href="#m59716fa304" y="612.746535"/>
      </g>
     </g>
     <g id="text_8">
      <!-- −40 -->
      <defs>
       <path d="M 10.59375 35.5 
L 73.1875 35.5 
L 73.1875 27.203125 
L 10.59375 27.203125 
z
" id="DejaVuSans-8722"/>
      </defs>
      <g style="fill:#ffffff;" transform="translate(53.68125 627.94341)scale(0.4 -0.4)">
       <use xlink:href="#DejaVuSans-8722"/>
       <use x="83.789062" xlink:href="#DejaVuSans-52"/>
       <use x="147.412109" xlink:href="#DejaVuSans-48"/>
      </g>
     </g>
    </g>
    <g id="ytick_2">
     <g id="line2d_15">
      <path clip-path="url(#padb1cc6ece)" d="M 145.1 501.142595 
L 1069.2 501.142595 
" style="fill:none;stroke:#ffffff;stroke-linecap:square;stroke-opacity:0.2;stroke-width:0.6;"/>
     </g>
     <g id="line2d_16">
      <g>
       <use style="fill:#ffffff;stroke:#ffffff;stroke-width:0.8;" x="145.1" xlink:href="#m59716fa304" y="501.142595"/>
      </g>
     </g>
     <g id="text_9">
      <!-- −20 -->
      <g style="fill:#ffffff;" transform="translate(53.68125 516.33947)scale(0.4 -0.4)">
       <use xlink:href="#DejaVuSans-8722"/>
       <use x="83.789062" xlink:href="#DejaVuSans-50"/>
       <use x="147.412109" xlink:href="#DejaVuSans-48"/>
      </g>
     </g>
    </g>
    <g id="ytick_3">
     <g id="line2d_17">
      <path clip-path="url(#padb1cc6ece)" d="M 145.1 389.538655 
L 1069.2 389.538655 
" style="fill:none;stroke:#ffffff;stroke-linecap:square;stroke-opacity:0.2;stroke-width:0.6;"/>
     </g>
     <g id="line2d_18">
      <g>
       <use style="fill:#ffffff;stroke:#ffffff;stroke-width:0.8;" x="145.1" xlink:href="#m59716fa304" y="389.538655"/>
      </g>
     </g>
     <g id="text_10">
      <!-- 0 -->
      <g style="fill:#ffffff;" transform="translate(112.65 404.73553)scale(0.4 -0.4)">
       <use xlink:href="#DejaVuSans-48"/>
      </g>
     </g>
    </g>
    <g id="ytick_4">
     <g id="line2d_19">
      <path clip-path="url(#padb1cc6ece)" d="M 145.1 277.934716 
L 1069.2 277.934716 
" style="fill:none;stroke:#ffffff;stroke-linecap:square;stroke-opacity:0.2;stroke-width:0.6;"/>
     </g>
     <g id="line2d_20">
      <g>
       <use style="fill:#ffffff;stroke:#ffffff;stroke-width:0.8;" x="145.1" xlink:href="#m59716fa304" y="277.934716"/>
      </g>
     </g>
     <g id="text_11">
      <!-- 20 -->
      <g style="fill:#ffffff;" transform="translate(87.2 293.131591)scale(0.4 -0.4)">
       <use xlink:href="#DejaVuSans-50"/>
       <use x="63.623047" xlink:href="#DejaVuSans-48"/>
      </g>
     </g>
    </g>
    <g id="ytick_5">
     <g id="line2d_21">
      <path clip-path="url(#padb1cc6ece)" d="M 145.1 166.330776 
L 1069.2 166.330776 
" style="fill:none;stroke:#ffffff;stroke-linecap:square;stroke-opacity:0.2;stroke-width:0.6;"/>
     </g>
     <g id="line2d_22">
      <g>
       <use style="fill:#ffffff;stroke:#ffffff;stroke-width:0.8;" x="145.1" xlink:href="#m59716fa304" y="166.330776"/>
      </g>
     </g>
     <g id="text_12">
      <!-- 40 -->
      <g style="fill:#ffffff;" transform="translate(87.2 181.527651)scale(0.4 -0.4)">
       <use xlink:href="#DejaVuSans-52"/>
       <use x="63.623047" xlink:href="#DejaVuSans-48"/>
      </g>
     </g>
    </g>
    <g id="ytick_6">
     <g id="line2d_23">
      <path clip-path="url(#padb1cc6ece)" d="M 145.1 54.726837 
L 1069.2 54.726837 
" style="fill:none;stroke:#ffffff;stroke-linecap:square;stroke-opacity:0.2;stroke-width:0.6;"/>
     </g>
     <g id="line2d_24">
      <g>
       <use style="fill:#ffffff;stroke:#ffffff;stroke-width:0.8;" x="145.1" xlink:href="#m59716fa304" y="54.726837"/>
      </g>
     </g>
     <g id="text_13">
      <!-- 60 -->
      <g style="fill:#ffffff;" transform="translate(87.2 69.923712)scale(0.4 -0.4)">
       <use xlink:href="#DejaVuSans-54"/>
       <use x="63.623047" xlink:href="#DejaVuSans-48"/>
      </g>
     </g>
    </g>
    <g id="text_14">
     <!-- Amplitude -->
     <defs>
      <path d="M 34.1875 63.1875 
L 20.796875 26.90625 
L 47.609375 26.90625 
z
M 28.609375 72.90625 
L 39.796875 72.90625 
L 67.578125 0 
L 57.328125 0 
L 50.6875 18.703125 
L 17.828125 18.703125 
L 11.1875 0 
L 0.78125 0 
z
" id="DejaVuSans-65"/>
      <path d="M 18.109375 8.203125 
L 18.109375 -20.796875 
L 9.078125 -20.796875 
L 9.078125 54.6875 
L 18.109375 54.6875 
L 18.109375 46.390625 
Q 20.953125 51.265625 25.265625 53.625 
Q 29.59375 56 35.59375 56 
Q 45.5625 56 51.78125 48.09375 
Q 58.015625 40.1875 58.015625 27.296875 
Q 58.015625 14.40625 51.78125 6.484375 
Q 45.5625 -1.421875 35.59375 -1.421875 
Q 29.59375 -1.421875 25.265625 0.953125 
Q 20.953125 3.328125 18.109375 8.203125 
z
M 48.6875 27.296875 
Q 48.6875 37.203125 44.609375 42.84375 
Q 40.53125 48.484375 33.40625 48.484375 
Q 26.265625 48.484375 22.1875 42.84375 
Q 18.109375 37.203125 18.109375 27.296875 
Q 18.109375 17.390625 22.1875 11.75 
Q 26.265625 6.109375 33.40625 6.109375 
Q 40.53125 6.109375 44.609375 11.75 
Q 48.6875 17.390625 48.6875 27.296875 
z
" id="DejaVuSans-112"/>
      <path d="M 9.421875 75.984375 
L 18.40625 75.984375 
L 18.40625 0 
L 9.421875 0 
z
" id="DejaVuSans-108"/>
      <path d="M 18.3125 70.21875 
L 18.3125 54.6875 
L 36.8125 54.6875 
L 36.8125 47.703125 
L 18.3125 47.703125 
L 18.3125 18.015625 
Q 18.3125 11.328125 20.140625 9.421875 
Q 21.96875 7.515625 27.59375 7.515625 
L 36.8125 7.515625 
L 36.8125 0 
L 27.59375 0 
Q 17.1875 0 13.234375 3.875 
Q 9.28125 7.765625 9.28125 18.015625 
L 9.28125 47.703125 
L 2.6875 47.703125 
L 2.6875 54.6875 
L 9.28125 54.6875 
L 9.28125 70.21875 
z
" id="DejaVuSans-116"/>
      <path d="M 8.5 21.578125 
L 8.5 54.6875 
L 17.484375 54.6875 
L 17.484375 21.921875 
Q 17.484375 14.15625 20.5 10.265625 
Q 23.53125 6.390625 29.59375 6.390625 
Q 36.859375 6.390625 41.078125 11.03125 
Q 45.3125 15.671875 45.3125 23.6875 
L 45.3125 54.6875 
L 54.296875 54.6875 
L 54.296875 0 
L 45.3125 0 
L 45.3125 8.40625 
Q 42.046875 3.421875 37.71875 1 
Q 33.40625 -1.421875 27.6875 -1.421875 
Q 18.265625 -1.421875 13.375 4.4375 
Q 8.5 10.296875 8.5 21.578125 
z
M 31.109375 56 
z
" id="DejaVuSans-117"/>
      <path d="M 45.40625 46.390625 
L 45.40625 75.984375 
L 54.390625 75.984375 
L 54.390625 0 
L 45.40625 0 
L 45.40625 8.203125 
Q 42.578125 3.328125 38.25 0.953125 
Q 33.9375 -1.421875 27.875 -1.421875 
Q 17.96875 -1.421875 11.734375 6.484375 
Q 5.515625 14.40625 5.515625 27.296875 
Q 5.515625 40.1875 11.734375 48.09375 
Q 17.96875 56 27.875 56 
Q 33.9375 56 38.25 53.625 
Q 42.578125 51.265625 45.40625 46.390625 
z
M 14.796875 27.296875 
Q 14.796875 17.390625 18.875 11.75 
Q 22.953125 6.109375 30.078125 6.109375 
Q 37.203125 6.109375 41.296875 11.75 
Q 45.40625 17.390625 45.40625 27.296875 
Q 45.40625 37.203125 41.296875 42.84375 
Q 37.203125 48.484375 30.078125 48.484375 
Q 22.953125 48.484375 18.875 42.84375 
Q 14.796875 37.203125 14.796875 27.296875 
z
" id="DejaVuSans-100"/>
     </defs>
     <g style="fill:#ffffff;" transform="translate(41.3625 439.710625)rotate(-90)scale(0.4 -0.4)">
      <use xlink:href="#DejaVuSans-65"/>
      <use x="68.408203" xlink:href="#DejaVuSans-109"/>
      <use x="165.820312" xlink:href="#DejaVuSans-112"/>
      <use x="229.296875" xlink:href="#DejaVuSans-108"/>
      <use x="257.080078" xlink:href="#DejaVuSans-105"/>
      <use x="284.863281" xlink:href="#DejaVuSans-116"/>
      <use x="324.072266" xlink:href="#DejaVuSans-117"/>
      <use x="387.451172" xlink:href="#DejaVuSans-100"/>
      <use x="450.927734" xlink:href="#DejaVuSans-101"/>
     </g>
    </g>
   </g>
   <g id="line2d_25">
    <path clip-path="url(#padb1cc6ece)" d="M 187.104545 359.683709 
L 187.945477 435.01525 
L 188.786409 433.577799 
L 189.627341 376.960303 
L 190.468273 544.795619 
L 191.309205 289.380816 
L 192.150137 307.323032 
L 192.991068 356.904056 
L 193.832 413.843167 
L 194.672932 354.011698 
L 195.513864 518.327657 
L 196.354796 297.370467 
L 197.195728 456.085062 
L 198.036659 484.138278 
L 198.877591 484.12949 
L 199.718523 410.858496 
L 200.559455 406.936559 
L 201.400387 326.183203 
L 202.241319 448.511555 
L 203.08225 329.881541 
L 203.923182 290.91834 
L 204.764114 390.609262 
L 205.605046 328.934848 
L 206.445978 289.270238 
L 207.28691 316.418412 
L 208.127841 222.241039 
L 208.968773 463.033115 
L 209.809705 381.978996 
L 210.650637 489.634795 
L 211.491569 416.389098 
L 212.332501 401.061742 
L 213.173433 480.544673 
L 214.014364 409.097827 
L 214.855296 269.149608 
L 215.696228 325.66835 
L 216.53716 441.568338 
L 217.378092 355.374063 
L 218.219024 326.521159 
L 219.059955 391.369838 
L 219.900887 386.981029 
L 220.741819 425.821983 
L 221.582751 373.938906 
L 222.423683 262.825737 
L 223.264615 332.416876 
L 224.105546 420.801123 
L 224.946478 409.252485 
L 225.78741 476.612837 
L 226.628342 399.253976 
L 227.469274 278.602498 
L 228.310206 438.766675 
L 229.151138 361.17005 
L 229.992069 497.714336 
L 230.833001 438.437222 
L 231.673933 393.556711 
L 232.514865 440.742553 
L 233.355797 367.845727 
L 234.196729 419.432766 
L 235.03766 337.949322 
L 235.878592 373.341129 
L 236.719524 465.945345 
L 237.560456 489.481736 
L 238.401388 285.618391 
L 239.24232 413.438701 
L 240.083251 492.003678 
L 240.924183 474.798983 
L 241.765115 401.807698 
L 242.606047 305.823917 
L 243.446979 373.971969 
L 244.287911 388.267363 
L 245.128842 358.079263 
L 245.969774 461.890253 
L 246.810706 398.692337 
L 247.651638 544.44275 
L 248.49257 452.903621 
L 249.333502 395.340032 
L 250.174434 470.213761 
L 251.015365 429.090322 
L 251.856297 399.219916 
L 252.697229 436.279476 
L 253.538161 453.725289 
L 254.379093 404.30416 
L 255.220025 372.248407 
L 256.060956 539.990761 
L 256.901888 382.371401 
L 257.74282 348.341563 
L 258.583752 397.297959 
L 259.424684 565.808703 
L 260.265616 332.84498 
L 261.106547 381.747899 
L 261.947479 269.061184 
L 262.788411 422.377372 
L 263.629343 412.201171 
L 264.470275 231.584079 
L 265.311207 506.241357 
L 266.152139 349.535739 
L 266.99307 444.19983 
L 267.834002 444.838708 
L 268.674934 442.572416 
L 269.515866 407.168953 
L 270.356798 327.812889 
L 271.19773 474.271503 
L 272.038661 264.153136 
L 272.879593 342.42954 
L 273.720525 484.486736 
L 274.561457 348.938656 
L 275.402389 449.51281 
L 276.243321 368.374132 
L 277.084252 564.844401 
L 277.925184 331.360015 
L 278.766116 295.389587 
L 279.607048 388.416332 
L 280.44798 288.231906 
L 281.288912 408.801656 
L 282.129843 328.93334 
L 282.970775 449.986863 
L 283.811707 292.423754 
L 284.652639 530.647672 
L 285.493571 334.435381 
L 286.334503 488.763344 
L 287.175435 284.640774 
L 288.016366 441.167608 
L 288.857298 413.756897 
L 289.69823 215.59203 
L 290.539162 338.755454 
L 291.380094 418.7087 
L 292.221026 354.47876 
L 293.061957 432.883449 
L 294.743821 298.932915 
L 295.584753 328.458771 
L 296.425685 467.085994 
L 297.266617 489.359038 
L 298.107548 380.877036 
L 298.94848 361.987939 
L 299.789412 405.782981 
L 300.630344 397.257921 
L 301.471276 352.519346 
L 302.312208 321.39102 
L 303.15314 312.788933 
L 303.994071 454.175908 
L 304.835003 359.999557 
L 305.675935 298.256188 
L 306.516867 440.607732 
L 307.357799 318.823776 
L 308.198731 328.542991 
L 309.039662 392.89972 
L 309.880594 411.309771 
L 310.721526 384.986548 
L 311.562458 558.266129 
L 312.40339 398.364007 
L 313.244322 343.944988 
L 314.085253 358.360789 
L 314.926185 313.074829 
L 315.767117 512.930605 
L 316.608049 417.646565 
L 317.448981 365.772318 
L 318.289913 437.46146 
L 319.971776 332.120547 
L 320.812708 335.729953 
L 321.65364 389.755846 
L 322.494572 356.977401 
L 323.335504 332.4526 
L 324.176436 223.578895 
L 325.017367 373.947843 
L 325.858299 454.382377 
L 328.381095 367.966261 
L 329.222027 408.372586 
L 330.062958 376.226915 
L 330.90389 386.675151 
L 331.744822 325.518773 
L 332.585754 363.399502 
L 333.426686 323.062026 
L 334.267618 493.45844 
L 335.108549 515.379578 
L 335.949481 415.704095 
L 336.790413 463.71829 
L 337.631345 367.566271 
L 338.472277 325.789506 
L 339.313209 353.72591 
L 340.154141 469.104411 
L 340.995072 556.42733 
L 341.836004 427.501144 
L 342.676936 443.882357 
L 343.517868 470.421342 
L 344.3588 463.753541 
L 345.199732 409.403509 
L 346.040663 434.838988 
L 346.881595 319.532452 
L 347.722527 504.880281 
L 348.563459 334.107373 
L 349.404391 293.146045 
L 350.245323 493.442371 
L 351.086254 245.547943 
L 351.927186 336.913302 
L 352.768118 464.886185 
L 353.60905 272.413462 
L 354.449982 408.469821 
L 355.290914 469.897561 
L 356.131845 429.379117 
L 356.972777 314.680254 
L 357.813709 341.75611 
L 358.654641 509.411698 
L 359.495573 480.828529 
L 360.336505 387.503714 
L 361.177437 368.809113 
L 362.018368 372.855611 
L 362.8593 465.630459 
L 363.700232 402.523594 
L 364.541164 295.949797 
L 365.382096 496.15555 
L 366.223028 469.433506 
L 367.063959 256.893843 
L 367.904891 310.475699 
L 368.745823 272.237768 
L 369.586755 377.121382 
L 370.427687 146.883732 
L 371.268619 406.255739 
L 372.10955 312.56119 
L 372.950482 394.915154 
L 373.791414 423.700221 
L 374.632346 317.502452 
L 375.473278 319.968688 
L 376.31421 395.380665 
L 377.155142 407.895313 
L 377.996073 343.748591 
L 378.837005 443.83701 
L 379.677937 383.021028 
L 380.518869 415.134691 
L 381.359801 440.889671 
L 382.200733 422.099031 
L 383.041664 312.080671 
L 383.882596 502.91127 
L 384.723528 516.846605 
L 385.56446 415.904488 
L 386.405392 341.647287 
L 387.246324 482.985911 
L 388.087255 435.567841 
L 388.928187 452.484651 
L 389.769119 442.722945 
L 390.610051 388.883588 
L 391.450983 369.130851 
L 392.291915 341.846597 
L 393.132846 377.518565 
L 393.973778 426.933322 
L 394.81471 346.022644 
L 395.655642 300.34866 
L 396.496574 389.900618 
L 397.337506 258.530724 
L 398.178438 425.989183 
L 399.019369 358.751593 
L 399.860301 440.349607 
L 400.701233 511.040064 
L 401.542165 399.487869 
L 402.383097 395.74813 
L 403.224029 264.523466 
L 404.06496 500.55806 
L 404.905892 323.507805 
L 405.746824 365.858619 
L 406.587756 446.096312 
L 407.428688 379.598972 
L 408.26962 234.148367 
L 409.110551 398.42703 
L 409.951483 363.075175 
L 410.792415 373.140732 
L 411.633347 544.88817 
L 412.474279 399.170516 
L 413.315211 376.4644 
L 414.156143 247.962133 
L 414.997074 371.436233 
L 415.838006 363.992386 
L 416.678938 318.034088 
L 417.51987 348.744881 
L 418.360802 300.589663 
L 419.201734 474.135783 
L 420.042665 351.30267 
L 420.883597 311.745308 
L 421.724529 487.945951 
L 422.565461 397.590068 
L 423.406393 382.290605 
L 424.247325 318.307642 
L 425.088256 399.576127 
L 425.929188 421.731005 
L 426.77012 112.819282 
L 427.611052 323.805176 
L 428.451984 299.056802 
L 429.292916 388.280222 
L 430.133847 378.747914 
L 430.974779 371.841569 
L 431.815711 402.731011 
L 432.656643 352.074821 
L 433.497575 244.158214 
L 434.338507 283.052273 
L 435.179439 424.309266 
L 436.02037 390.898974 
L 436.861302 340.585647 
L 437.702234 594.692727 
L 438.543166 137.209743 
L 439.384098 375.753306 
L 440.22503 401.263705 
L 441.065961 400.071035 
L 441.906893 385.409835 
L 442.747825 429.668131 
L 443.588757 278.426759 
L 444.429689 207.755974 
L 445.270621 339.336302 
L 446.111552 396.28095 
L 446.952484 335.691869 
L 447.793416 489.094177 
L 448.634348 354.968269 
L 449.47528 375.238352 
L 450.316212 246.431545 
L 451.157144 349.951944 
L 451.998075 394.435754 
L 452.839007 307.948052 
L 453.679939 381.841439 
L 454.520871 239.368481 
L 455.361803 411.680752 
L 456.202735 377.38791 
L 457.043666 225.034508 
L 457.884598 313.823025 
L 458.72553 437.255185 
L 459.566462 404.124461 
L 460.407394 432.528223 
L 461.248326 369.526133 
L 462.089257 399.451893 
L 462.930189 277.894989 
L 463.771121 322.794051 
L 464.612053 314.886974 
L 465.452985 370.29971 
L 466.293917 307.776816 
L 467.134848 309.662777 
L 467.97578 482.630901 
L 468.816712 326.053595 
L 469.657644 332.974791 
L 470.498576 413.557263 
L 471.339508 429.889991 
L 472.18044 345.83292 
L 473.021371 407.050899 
L 473.862303 394.808159 
L 474.703235 507.977042 
L 475.544167 366.46418 
L 476.385099 387.352444 
L 477.226031 594.553452 
L 478.066962 444.940363 
L 478.907894 316.492473 
L 479.748826 386.070503 
L 480.589758 441.446468 
L 481.43069 400.288536 
L 482.271622 319.699533 
L 483.112553 347.660938 
L 483.953485 342.955827 
L 484.794417 400.542763 
L 485.635349 299.309426 
L 486.476281 360.265943 
L 487.317213 371.140821 
L 488.158145 413.202941 
L 488.999076 449.38424 
L 489.840008 344.676124 
L 490.68094 335.043364 
L 491.521872 464.155659 
L 492.362804 438.95081 
L 493.203736 454.424041 
L 494.044667 295.39899 
L 494.885599 245.085389 
L 495.726531 346.148496 
L 497.408395 428.265154 
L 498.249327 437.084739 
L 499.090258 458.815231 
L 499.93119 397.419824 
L 500.772122 429.860155 
L 501.613054 310.110806 
L 502.453986 519.0161 
L 503.294918 340.11586 
L 504.135849 299.858867 
L 504.976781 285.680038 
L 505.817713 268.706656 
L 506.658645 512.820934 
L 507.499577 409.823517 
L 508.340509 387.738128 
L 509.181441 320.270832 
L 510.022372 327.965017 
L 510.863304 393.09249 
L 511.704236 369.726635 
L 512.545168 275.600884 
L 513.3861 368.287018 
L 514.227032 276.737272 
L 515.067963 474.222488 
L 515.908895 249.565035 
L 516.749827 466.736528 
L 517.590759 462.703757 
L 518.431691 437.049207 
L 519.272623 252.296975 
L 520.113554 305.007137 
L 520.954486 373.088532 
L 521.795418 401.210008 
L 522.63635 395.608775 
L 523.477282 343.246191 
L 524.318214 372.725612 
L 525.159146 358.144241 
L 526.000077 481.12238 
L 526.841009 542.32076 
L 527.681941 342.133929 
L 528.522873 317.311138 
L 529.363805 354.463353 
L 530.204737 431.990265 
L 531.045668 293.620814 
L 531.8866 310.879265 
L 532.727532 410.571378 
L 533.568464 226.713775 
L 534.409396 492.54375 
L 535.250328 238.659141 
L 536.091259 405.262596 
L 536.932191 207.138293 
L 537.773123 391.677595 
L 538.614055 502.652245 
L 539.454987 246.607936 
L 540.295919 248.599358 
L 541.13685 364.178951 
L 541.977782 413.616777 
L 542.818714 382.530469 
L 543.659646 263.933838 
L 545.34151 432.650614 
L 546.182442 285.61363 
L 547.023373 410.110134 
L 547.864305 406.789388 
L 548.705237 370.285496 
L 549.546169 480.346036 
L 550.387101 318.360306 
L 551.228033 372.359111 
L 552.068964 375.691489 
L 552.909896 348.200588 
L 553.750828 355.72604 
L 554.59176 406.995906 
L 555.432692 509.761485 
L 556.273624 422.480536 
L 557.114555 393.9003 
L 557.955487 307.826747 
L 559.637351 525.978273 
L 560.478283 364.640905 
L 561.319215 432.09057 
L 562.160147 271.33856 
L 563.001078 404.832219 
L 563.84201 297.030805 
L 564.682942 431.439041 
L 565.523874 365.742892 
L 566.364806 336.024083 
L 567.205738 380.936041 
L 568.046669 169.308577 
L 568.887601 359.159581 
L 569.728533 440.822241 
L 570.569465 382.984394 
L 571.410397 342.621848 
L 572.251329 443.24868 
L 573.09226 406.202853 
L 573.933192 512.077566 
L 574.774124 404.330581 
L 575.615056 393.281759 
L 576.455988 340.318762 
L 577.29692 268.639892 
L 578.137851 490.451571 
L 578.978783 256.236737 
L 579.819715 445.85764 
L 580.660647 404.843949 
L 581.501579 404.033326 
L 582.342511 215.228159 
L 583.183443 378.461877 
L 584.024374 387.24624 
L 584.865306 457.694568 
L 585.706238 467.904198 
L 586.54717 386.444455 
L 587.388102 289.913542 
L 588.229034 386.10553 
L 589.069965 371.992583 
L 589.910897 428.804769 
L 590.751829 446.044793 
L 591.592761 380.644437 
L 592.433693 352.580002 
L 593.274625 280.874058 
L 594.115556 316.457073 
L 594.956488 544.646764 
L 595.79742 282.792913 
L 596.638352 413.695839 
L 597.479284 457.003524 
L 598.320216 348.512581 
L 599.161148 415.949468 
L 600.002079 332.670301 
L 600.843011 295.164295 
L 601.683943 410.533234 
L 602.524875 338.052496 
L 603.365807 397.513796 
L 604.206739 182.407434 
L 605.04767 241.307597 
L 605.888602 357.905504 
L 606.729534 232.965622 
L 607.570466 313.284807 
L 608.411398 247.444602 
L 609.25233 350.166363 
L 610.093261 385.208935 
L 610.934193 385.743041 
L 611.775125 380.083981 
L 612.616057 376.69934 
L 613.456989 465.924 
L 614.297921 350.897133 
L 615.138852 318.661562 
L 615.979784 192.585426 
L 616.820716 336.579366 
L 617.661648 309.157461 
L 618.50258 408.530253 
L 619.343512 433.759599 
L 620.184444 354.821613 
L 621.025375 330.94195 
L 621.866307 315.520924 
L 622.707239 212.657751 
L 623.548171 382.175523 
L 624.389103 379.988787 
L 625.230035 230.823007 
L 626.070966 526.53606 
L 626.911898 307.455205 
L 627.75283 305.877108 
L 628.593762 412.510842 
L 629.434694 319.418147 
L 630.275626 457.079405 
L 631.957489 350.122387 
L 632.798421 395.127301 
L 633.639353 333.203044 
L 634.480285 387.213148 
L 635.321217 241.498948 
L 636.162149 369.235116 
L 637.00308 376.760092 
L 637.844012 419.610882 
L 638.684944 334.353863 
L 639.525876 376.323864 
L 640.366808 242.554041 
L 641.20774 330.188072 
L 642.048671 342.992202 
L 642.889603 319.571254 
L 643.730535 424.208645 
L 644.571467 375.302072 
L 645.412399 363.700295 
L 646.253331 378.729888 
L 647.094262 305.028251 
L 647.935194 415.773504 
L 648.776126 417.8683 
L 649.617058 254.333708 
L 650.45799 319.521671 
L 651.298922 299.13189 
L 652.139853 331.553512 
L 652.980785 408.854369 
L 653.821717 339.899834 
L 654.662649 318.580666 
L 655.503581 229.84 
L 656.344513 335.120611 
L 657.185445 355.810968 
L 658.026376 308.084788 
L 658.867308 186.579797 
L 659.70824 472.272698 
L 660.549172 463.84673 
L 661.390104 288.958328 
L 662.231036 375.520902 
L 663.071967 349.42718 
L 663.912899 423.863126 
L 664.753831 357.189134 
L 665.594763 398.015117 
L 666.435695 375.492202 
L 667.276627 344.839209 
L 668.117558 279.127691 
L 668.95849 491.700915 
L 669.799422 421.839116 
L 670.640354 291.562842 
L 671.481286 465.46207 
L 672.322218 369.012089 
L 673.16315 407.548319 
L 674.004081 381.969207 
L 674.845013 383.476711 
L 675.685945 342.152159 
L 676.526877 365.346973 
L 677.367809 401.572444 
L 678.208741 468.493969 
L 679.049672 347.029365 
L 679.890604 298.140611 
L 680.731536 290.290762 
L 681.572468 413.367691 
L 682.4134 289.761384 
L 683.254332 358.047265 
L 684.095263 368.978319 
L 684.936195 352.593254 
L 685.777127 321.155305 
L 686.618059 343.86652 
L 687.458991 324.815408 
L 688.299923 423.293929 
L 689.140854 500.327116 
L 689.981786 418.84204 
L 690.822718 386.868346 
L 691.66365 286.478915 
L 692.504582 298.061726 
L 693.345514 451.267228 
L 694.186446 416.257276 
L 695.027377 409.959289 
L 695.868309 492.176719 
L 696.709241 194.848666 
L 698.391105 494.704105 
L 699.232037 312.982869 
L 700.072968 283.372094 
L 700.9139 340.223212 
L 701.754832 451.414664 
L 702.595764 350.702251 
L 703.436696 310.407104 
L 704.277628 446.885063 
L 705.118559 322.373916 
L 705.959491 366.096906 
L 706.800423 338.062671 
L 707.641355 327.098869 
L 708.482287 403.857175 
L 709.323219 375.170456 
L 710.164151 320.584518 
L 711.005082 534.591521 
L 711.846014 310.770797 
L 712.686946 511.927331 
L 713.527878 312.713505 
L 714.36881 338.224409 
L 715.209742 230.663915 
L 716.050673 205.461374 
L 716.891605 405.218295 
L 719.414401 274.40791 
L 720.255333 252.480391 
L 721.096264 296.814871 
L 721.937196 384.841213 
L 722.778128 248.380894 
L 723.61906 292.847492 
L 724.459992 510.060178 
L 725.300924 300.917526 
L 726.141855 510.449967 
L 726.982787 323.196762 
L 727.823719 333.594744 
L 728.664651 324.811633 
L 729.505583 411.142648 
L 730.346515 378.306118 
L 731.187447 318.147354 
L 732.028378 387.028537 
L 732.86931 275.830954 
L 733.710242 371.504243 
L 734.551174 419.840411 
L 735.392106 311.34808 
L 736.233038 418.664953 
L 737.073969 507.77993 
L 737.914901 238.309861 
L 738.755833 417.78085 
L 739.596765 460.511792 
L 741.278629 242.526584 
L 742.11956 333.982655 
L 742.960492 316.805749 
L 743.801424 330.495352 
L 744.642356 233.182318 
L 745.483288 265.074748 
L 746.32422 429.40739 
L 747.165152 359.274239 
L 748.006083 367.031841 
L 748.847015 261.605138 
L 749.687947 334.035526 
L 750.528879 324.889336 
L 751.369811 379.151318 
L 752.210743 254.89084 
L 753.051674 340.123621 
L 753.892606 257.306387 
L 754.733538 420.001047 
L 755.57447 235.559602 
L 756.415402 380.650035 
L 757.256334 325.401081 
L 758.097265 312.158362 
L 758.938197 305.662233 
L 759.779129 375.554278 
L 760.620061 503.95987 
L 761.460993 395.454749 
L 762.301925 265.827558 
L 763.983788 425.440957 
L 764.82472 257.422389 
L 765.665652 316.803231 
L 766.506584 443.563164 
L 767.347516 398.53323 
L 768.188448 346.30255 
L 769.029379 444.045437 
L 769.870311 247.07105 
L 770.711243 333.13505 
L 771.552175 401.886474 
L 772.393107 386.884591 
L 773.234039 410.92363 
L 774.07497 379.528889 
L 774.915902 383.337997 
L 775.756834 314.805496 
L 776.597766 333.159643 
L 777.438698 368.50245 
L 778.27963 244.323115 
L 779.120561 400.749411 
L 780.802425 228.515238 
L 781.643357 378.704625 
L 783.325221 312.516635 
L 784.166153 279.354295 
L 785.007084 310.799271 
L 785.848016 298.718239 
L 786.688948 310.240549 
L 787.52988 446.099816 
L 788.370812 321.259482 
L 789.211744 392.879932 
L 790.052675 428.10017 
L 790.893607 266.095178 
L 791.734539 345.969516 
L 792.575471 365.19602 
L 793.416403 381.20605 
L 794.257335 278.135903 
L 795.098266 444.693251 
L 795.939198 382.905809 
L 796.78013 233.967549 
L 797.621062 513.163452 
L 798.461994 273.396425 
L 799.302926 336.885895 
L 800.143857 417.102969 
L 800.984789 323.243374 
L 801.825721 349.021527 
L 802.666653 398.139785 
L 803.507585 335.220762 
L 804.348517 456.417831 
L 805.189449 445.924007 
L 806.03038 292.413433 
L 806.871312 333.86402 
L 807.712244 306.139052 
L 808.553176 325.568428 
L 809.394108 370.628692 
L 810.23504 376.860673 
L 811.075971 315.309894 
L 811.916903 427.054657 
L 812.757835 370.162413 
L 813.598767 398.470811 
L 814.439699 334.732327 
L 815.280631 407.510989 
L 816.121562 422.415473 
L 816.962494 371.668456 
L 817.803426 285.052715 
L 818.644358 253.031332 
L 819.48529 409.419898 
L 820.326222 243.353154 
L 821.167154 420.327968 
L 822.008085 265.011876 
L 822.849017 329.777872 
L 823.689949 326.939823 
L 824.530881 229.375729 
L 825.371813 379.719531 
L 826.212745 281.197376 
L 827.053676 350.928332 
L 827.894608 186.185438 
L 828.73554 383.573995 
L 829.576472 294.167926 
L 830.417404 360.457898 
L 831.258336 214.453716 
L 832.099267 241.575289 
L 832.940199 442.114936 
L 833.781131 325.416753 
L 834.622063 329.1895 
L 835.462995 274.681123 
L 836.303927 444.750953 
L 837.144858 344.2659 
L 837.98579 480.400526 
L 838.826722 304.02194 
L 839.667654 228.155068 
L 841.349518 372.440503 
L 842.19045 324.600946 
L 843.031381 203.168471 
L 843.872313 324.544734 
L 844.713245 418.713254 
L 845.554177 358.692896 
L 846.395109 365.735749 
L 847.236041 304.433172 
L 848.076972 343.600756 
L 848.917904 430.413549 
L 849.758836 541.376116 
L 850.599768 431.999154 
L 851.4407 464.019947 
L 852.281632 422.273474 
L 853.122563 362.05509 
L 853.963495 340.437889 
L 854.804427 404.509324 
L 855.645359 241.785784 
L 856.486291 479.098336 
L 857.327223 418.918544 
L 858.168155 219.494087 
L 859.009086 347.281973 
L 859.850018 358.320251 
L 860.69095 290.851698 
L 861.531882 347.303578 
L 862.372814 382.104393 
L 863.213746 458.59522 
L 864.054677 433.901841 
L 864.895609 346.696052 
L 865.736541 289.189751 
L 866.577473 352.831263 
L 867.418405 333.667221 
L 868.259337 253.20695 
L 869.100268 290.664919 
L 869.9412 351.437757 
L 870.782132 436.434904 
L 871.623064 395.718644 
L 872.463996 284.987168 
L 873.304928 353.134076 
L 874.145859 312.403226 
L 874.986791 358.455906 
L 875.827723 288.539554 
L 876.668655 417.922761 
L 877.509587 314.497339 
L 878.350519 319.70381 
L 879.191451 243.52782 
L 880.032382 218.103375 
L 880.873314 359.851772 
L 881.714246 345.512175 
L 882.555178 373.335574 
L 883.39611 341.351763 
L 884.237042 279.276596 
L 885.077973 453.587732 
L 885.918905 304.627767 
L 886.759837 398.700058 
L 887.600769 427.067574 
L 888.441701 238.313047 
L 889.282633 230.391731 
L 890.123564 234.776604 
L 890.964496 335.041744 
L 891.805428 408.86016 
L 892.64636 335.995772 
L 893.487292 355.405157 
L 894.328224 426.498201 
L 895.169156 388.564724 
L 896.010087 378.220477 
L 896.851019 336.617617 
L 897.691951 206.493769 
L 898.532883 286.882344 
L 899.373815 257.275217 
L 900.214747 145.618143 
L 901.055678 344.005541 
L 901.89661 420.578835 
L 902.737542 263.954376 
L 903.578474 351.442985 
L 904.419406 390.047248 
L 906.101269 284.089057 
L 906.942201 259.827043 
L 907.783133 309.721912 
L 908.624065 394.031886 
L 909.464997 300.402971 
L 910.305929 434.84546 
L 911.14686 329.395148 
L 911.987792 343.313278 
L 912.828724 223.110136 
L 913.669656 266.197008 
L 914.510588 244.735152 
L 915.35152 418.109147 
L 916.192452 359.750534 
L 917.033383 443.768983 
L 917.874315 386.023068 
L 918.715247 398.382034 
L 919.556179 285.871399 
L 920.397111 203.353056 
L 921.238043 341.064948 
L 922.078974 391.834644 
L 922.919906 511.682293 
L 923.760838 357.09232 
L 924.60177 381.529945 
L 925.442702 331.288377 
L 926.283634 391.432059 
L 927.124565 270.041549 
L 927.965497 363.220194 
L 928.806429 320.526887 
L 929.647361 291.723185 
L 930.488293 395.674397 
L 932.170157 220.362267 
L 933.011088 385.220503 
L 933.85202 196.715124 
L 934.692952 224.259843 
L 935.533884 284.277847 
L 936.374816 395.42293 
L 937.215748 321.585824 
L 938.056679 434.120743 
L 938.897611 215.87379 
L 939.738543 395.53977 
L 940.579475 79.747273 
L 941.420407 510.532247 
L 942.261339 374.056575 
L 943.10227 211.558327 
L 943.943202 512.495245 
L 944.784134 470.333236 
L 945.625066 382.197318 
L 946.465998 379.55509 
L 947.30693 304.051279 
L 948.147861 341.219516 
L 948.988793 309.642437 
L 949.829725 406.801406 
L 950.670657 384.801266 
L 951.511589 304.498524 
L 952.352521 213.160597 
L 953.193453 251.712782 
L 954.034384 366.958812 
L 954.875316 337.151438 
L 955.716248 314.174843 
L 956.55718 383.419604 
L 957.398112 428.591011 
L 958.239044 485.977775 
L 959.920907 252.990944 
L 960.761839 253.539093 
L 961.602771 275.435519 
L 962.443703 409.186961 
L 963.284635 467.744683 
L 964.125566 410.993785 
L 964.966498 311.844641 
L 965.80743 310.466674 
L 966.648362 364.660493 
L 967.489294 320.937324 
L 968.330226 311.704135 
L 969.171158 220.720235 
L 970.012089 322.160637 
L 970.853021 398.267951 
L 971.693953 390.395011 
L 972.534885 372.016896 
L 973.375817 322.160536 
L 974.216749 365.805033 
L 975.05768 331.128844 
L 975.898612 376.329774 
L 976.739544 260.434538 
L 977.580476 389.13679 
L 978.421408 281.675961 
L 979.26234 426.777026 
L 980.103271 398.097358 
L 980.944203 301.133401 
L 981.785135 438.863345 
L 982.626067 317.77587 
L 983.466999 370.891186 
L 984.307931 265.738384 
L 985.148862 309.65244 
L 985.989794 286.326844 
L 986.830726 421.574795 
L 987.671658 476.39062 
L 988.51259 316.737349 
L 989.353522 215.07105 
L 990.194454 440.481467 
L 991.035385 299.211389 
L 991.876317 351.959839 
L 992.717249 258.666883 
L 993.558181 426.523698 
L 994.399113 261.54119 
L 995.240045 248.302969 
L 996.080976 319.402738 
L 996.921908 403.46461 
L 997.76284 231.647983 
L 998.603772 212.014286 
L 999.444704 371.727534 
L 1000.285636 430.4061 
L 1001.126567 287.755854 
L 1001.967499 338.840994 
L 1002.808431 299.747695 
L 1003.649363 346.73771 
L 1004.490295 470.37619 
L 1005.331227 359.203816 
L 1006.172159 356.619792 
L 1007.01309 431.643124 
L 1007.854022 314.308926 
L 1008.694954 317.394053 
L 1009.535886 497.474021 
L 1010.376818 295.778804 
L 1011.21775 218.117364 
L 1012.058681 431.338649 
L 1012.899613 183.503646 
L 1013.740545 336.401594 
L 1014.581477 380.328206 
L 1015.422409 276.920753 
L 1016.263341 353.334623 
L 1017.104272 303.898136 
L 1017.945204 273.878271 
L 1018.786136 385.130369 
L 1019.627068 347.119916 
L 1021.308932 433.946547 
L 1022.149863 423.191039 
L 1022.990795 325.061784 
L 1023.831727 293.130169 
L 1024.672659 322.421281 
L 1025.513591 285.821567 
L 1027.195455 351.973818 
L 1027.195455 351.973818 
" style="fill:none;stroke:#0000ff;stroke-linecap:square;stroke-width:2.2;"/>
   </g>
   <g id="patch_3">
    <path d="M 145.1 620.44 
L 145.1 54 
" style="fill:none;stroke:#ffffff;stroke-linecap:square;stroke-linejoin:miter;stroke-width:0.8;"/>
   </g>
   <g id="patch_4">
    <path d="M 145.1 620.44 
L 1069.2 620.44 
" style="fill:none;stroke:#ffffff;stroke-linecap:square;stroke-linejoin:miter;stroke-width:0.8;"/>
   </g>
   <g id="text_15">
    <!-- Measured Signal -->
    <defs>
     <path d="M 9.8125 72.90625 
L 24.515625 72.90625 
L 43.109375 23.296875 
L 61.8125 72.90625 
L 76.515625 72.90625 
L 76.515625 0 
L 66.890625 0 
L 66.890625 64.015625 
L 48.09375 14.015625 
L 38.1875 14.015625 
L 19.390625 64.015625 
L 19.390625 0 
L 9.8125 0 
z
" id="DejaVuSans-77"/>
     <path d="M 34.28125 27.484375 
Q 23.390625 27.484375 19.1875 25 
Q 14.984375 22.515625 14.984375 16.5 
Q 14.984375 11.71875 18.140625 8.90625 
Q 21.296875 6.109375 26.703125 6.109375 
Q 34.1875 6.109375 38.703125 11.40625 
Q 43.21875 16.703125 43.21875 25.484375 
L 43.21875 27.484375 
z
M 52.203125 31.203125 
L 52.203125 0 
L 43.21875 0 
L 43.21875 8.296875 
Q 40.140625 3.328125 35.546875 0.953125 
Q 30.953125 -1.421875 24.3125 -1.421875 
Q 15.921875 -1.421875 10.953125 3.296875 
Q 6 8.015625 6 15.921875 
Q 6 25.140625 12.171875 29.828125 
Q 18.359375 34.515625 30.609375 34.515625 
L 43.21875 34.515625 
L 43.21875 35.40625 
Q 43.21875 41.609375 39.140625 45 
Q 35.0625 48.390625 27.6875 48.390625 
Q 23 48.390625 18.546875 47.265625 
Q 14.109375 46.140625 10.015625 43.890625 
L 10.015625 52.203125 
Q 14.9375 54.109375 19.578125 55.046875 
Q 24.21875 56 28.609375 56 
Q 40.484375 56 46.34375 49.84375 
Q 52.203125 43.703125 52.203125 31.203125 
z
" id="DejaVuSans-97"/>
     <path d="M 44.28125 53.078125 
L 44.28125 44.578125 
Q 40.484375 46.53125 36.375 47.5 
Q 32.28125 48.484375 27.875 48.484375 
Q 21.1875 48.484375 17.84375 46.4375 
Q 14.5 44.390625 14.5 40.28125 
Q 14.5 37.15625 16.890625 35.375 
Q 19.28125 33.59375 26.515625 31.984375 
L 29.59375 31.296875 
Q 39.15625 29.25 43.1875 25.515625 
Q 47.21875 21.78125 47.21875 15.09375 
Q 47.21875 7.46875 41.1875 3.015625 
Q 35.15625 -1.421875 24.609375 -1.421875 
Q 20.21875 -1.421875 15.453125 -0.5625 
Q 10.6875 0.296875 5.421875 2 
L 5.421875 11.28125 
Q 10.40625 8.6875 15.234375 7.390625 
Q 20.0625 6.109375 24.8125 6.109375 
Q 31.15625 6.109375 34.5625 8.28125 
Q 37.984375 10.453125 37.984375 14.40625 
Q 37.984375 18.0625 35.515625 20.015625 
Q 33.0625 21.96875 24.703125 23.78125 
L 21.578125 24.515625 
Q 13.234375 26.265625 9.515625 29.90625 
Q 5.8125 33.546875 5.8125 39.890625 
Q 5.8125 47.609375 11.28125 51.796875 
Q 16.75 56 26.8125 56 
Q 31.78125 56 36.171875 55.265625 
Q 40.578125 54.546875 44.28125 53.078125 
z
" id="DejaVuSans-115"/>
     <path d="M 41.109375 46.296875 
Q 39.59375 47.171875 37.8125 47.578125 
Q 36.03125 48 33.890625 48 
Q 26.265625 48 22.1875 43.046875 
Q 18.109375 38.09375 18.109375 28.8125 
L 18.109375 0 
L 9.078125 0 
L 9.078125 54.6875 
L 18.109375 54.6875 
L 18.109375 46.1875 
Q 20.953125 51.171875 25.484375 53.578125 
Q 30.03125 56 36.53125 56 
Q 37.453125 56 38.578125 55.875 
Q 39.703125 55.765625 41.0625 55.515625 
z
" id="DejaVuSans-114"/>
     <path id="DejaVuSans-32"/>
     <path d="M 53.515625 70.515625 
L 53.515625 60.890625 
Q 47.90625 63.578125 42.921875 64.890625 
Q 37.9375 66.21875 33.296875 66.21875 
Q 25.25 66.21875 20.875 63.09375 
Q 16.5 59.96875 16.5 54.203125 
Q 16.5 49.359375 19.40625 46.890625 
Q 22.3125 44.4375 30.421875 42.921875 
L 36.375 41.703125 
Q 47.40625 39.59375 52.65625 34.296875 
Q 57.90625 29 57.90625 20.125 
Q 57.90625 9.515625 50.796875 4.046875 
Q 43.703125 -1.421875 29.984375 -1.421875 
Q 24.8125 -1.421875 18.96875 -0.25 
Q 13.140625 0.921875 6.890625 3.21875 
L 6.890625 13.375 
Q 12.890625 10.015625 18.65625 8.296875 
Q 24.421875 6.59375 29.984375 6.59375 
Q 38.421875 6.59375 43.015625 9.90625 
Q 47.609375 13.234375 47.609375 19.390625 
Q 47.609375 24.75 44.3125 27.78125 
Q 41.015625 30.8125 33.5 32.328125 
L 27.484375 33.5 
Q 16.453125 35.6875 11.515625 40.375 
Q 6.59375 45.0625 6.59375 53.421875 
Q 6.59375 63.09375 13.40625 68.65625 
Q 20.21875 74.21875 32.171875 74.21875 
Q 37.3125 74.21875 42.625 73.28125 
Q 47.953125 72.359375 53.515625 70.515625 
z
" id="DejaVuSans-83"/>
     <path d="M 45.40625 27.984375 
Q 45.40625 37.75 41.375 43.109375 
Q 37.359375 48.484375 30.078125 48.484375 
Q 22.859375 48.484375 18.828125 43.109375 
Q 14.796875 37.75 14.796875 27.984375 
Q 14.796875 18.265625 18.828125 12.890625 
Q 22.859375 7.515625 30.078125 7.515625 
Q 37.359375 7.515625 41.375 12.890625 
Q 45.40625 18.265625 45.40625 27.984375 
z
M 54.390625 6.78125 
Q 54.390625 -7.171875 48.1875 -13.984375 
Q 42 -20.796875 29.203125 -20.796875 
Q 24.46875 -20.796875 20.265625 -20.09375 
Q 16.0625 -19.390625 12.109375 -17.921875 
L 12.109375 -9.1875 
Q 16.0625 -11.328125 19.921875 -12.34375 
Q 23.78125 -13.375 27.78125 -13.375 
Q 36.625 -13.375 41.015625 -8.765625 
Q 45.40625 -4.15625 45.40625 5.171875 
L 45.40625 9.625 
Q 42.625 4.78125 38.28125 2.390625 
Q 33.9375 0 27.875 0 
Q 17.828125 0 11.671875 7.65625 
Q 5.515625 15.328125 5.515625 27.984375 
Q 5.515625 40.671875 11.671875 48.328125 
Q 17.828125 56 27.875 56 
Q 33.9375 56 38.28125 53.609375 
Q 42.625 51.21875 45.40625 46.390625 
L 45.40625 54.6875 
L 54.390625 54.6875 
z
" id="DejaVuSans-103"/>
     <path d="M 54.890625 33.015625 
L 54.890625 0 
L 45.90625 0 
L 45.90625 32.71875 
Q 45.90625 40.484375 42.875 44.328125 
Q 39.84375 48.1875 33.796875 48.1875 
Q 26.515625 48.1875 22.3125 43.546875 
Q 18.109375 38.921875 18.109375 30.90625 
L 18.109375 0 
L 9.078125 0 
L 9.078125 54.6875 
L 18.109375 54.6875 
L 18.109375 46.1875 
Q 21.34375 51.125 25.703125 53.5625 
Q 30.078125 56 35.796875 56 
Q 45.21875 56 50.046875 50.171875 
Q 54.890625 44.34375 54.890625 33.015625 
z
" id="DejaVuSans-110"/>
    </defs>
    <g style="fill:#ffffff;" transform="translate(420.484375 44.641406)scale(0.45 -0.45)">
     <use xlink:href="#DejaVuSans-77"/>
     <use x="86.279297" xlink:href="#DejaVuSans-101"/>
     <use x="147.802734" xlink:href="#DejaVuSans-97"/>
     <use x="209.082031" xlink:href="#DejaVuSans-115"/>
     <use x="261.181641" xlink:href="#DejaVuSans-117"/>
     <use x="324.560547" xlink:href="#DejaVuSans-114"/>
     <use x="365.642578" xlink:href="#DejaVuSans-101"/>
     <use x="427.166016" xlink:href="#DejaVuSans-100"/>
     <use x="490.642578" xlink:href="#DejaVuSans-32"/>
     <use x="522.429688" xlink:href="#DejaVuSans-83"/>
     <use x="585.90625" xlink:href="#DejaVuSans-105"/>
     <use x="613.689453" xlink:href="#DejaVuSans-103"/>
     <use x="677.166016" xlink:href="#DejaVuSans-110"/>
     <use x="740.544922" xlink:href="#DejaVuSans-97"/>
     <use x="801.824219" xlink:href="#DejaVuSans-108"/>
    </g>
   </g>
  </g>
 </g>
 <defs>
  <clipPath id="padb1cc6ece">
   <rect height="566.44" width="924.1" x="145.1" y="54"/>
  </clipPath>
 </defs>
</svg>
