<?xml version="1.0" encoding="utf-8" standalone="no"?>
<!DOCTYPE svg PUBLIC "-//W3C//DTD SVG 1.1//EN"
  "http://www.w3.org/Graphics/SVG/1.1/DTD/svg11.dtd">
<!-- Created with matplotlib (https://matplotlib.org/) -->
<svg height="720pt" version="1.1" viewBox="0 0 1080 720" width="1080pt" xmlns="http://www.w3.org/2000/svg" xmlns:xlink="http://www.w3.org/1999/xlink">
 <defs>
  <style type="text/css">
*{stroke-linecap:butt;stroke-linejoin:round;}
  </style>
 </defs>
 <g id="figure_1">
  <g id="patch_1">
   <path d="M 0 720 
L 1080 720 
L 1080 0 
L 0 0 
z
" style="fill:#121212;"/>
  </g>
  <g id="axes_1">
   <g id="patch_2">
    <path d="M 111.62 620.44 
L 1069.2 620.44 
L 1069.2 54 
L 111.62 54 
z
" style="fill:#121212;"/>
   </g>
   <g id="matplotlib.axis_1">
    <g id="xtick_1">
     <g id="line2d_1">
      <path clip-path="url(#pf22bf140b8)" d="M 155.146364 620.44 
L 155.146364 54 
" style="fill:none;stroke:#ffffff;stroke-linecap:square;stroke-opacity:0.2;stroke-width:0.6;"/>
     </g>
     <g id="line2d_2">
      <defs>
       <path d="M 0 0 
L 0 3.5 
" id="mbeb61f10da" style="stroke:#ffffff;stroke-width:0.8;"/>
      </defs>
      <g>
       <use style="fill:#ffffff;stroke:#ffffff;stroke-width:0.8;" x="155.146364" xlink:href="#mbeb61f10da" y="620.44"/>
      </g>
     </g>
     <g id="text_1">
      <!-- 0 -->
      <defs>
       <path d="M 31.78125 66.40625 
Q 24.171875 66.40625 20.328125 58.90625 
Q 16.5 51.421875 16.5 36.375 
Q 16.5 21.390625 20.328125 13.890625 
Q 24.171875 6.390625 31.78125 6.390625 
Q 39.453125 6.390625 43.28125 13.890625 
Q 47.125 21.390625 47.125 36.375 
Q 47.125 51.421875 43.28125 58.90625 
Q 39.453125 66.40625 31.78125 66.40625 
z
M 31.78125 74.21875 
Q 44.046875 74.21875 50.515625 64.515625 
Q 56.984375 54.828125 56.984375 36.375 
Q 56.984375 17.96875 50.515625 8.265625 
Q 44.046875 -1.421875 31.78125 -1.421875 
Q 19.53125 -1.421875 13.0625 8.265625 
Q 6.59375 17.96875 6.59375 36.375 
Q 6.59375 54.828125 13.0625 64.515625 
Q 19.53125 74.21875 31.78125 74.21875 
z
" id="DejaVuSans-48"/>
      </defs>
      <g style="fill:#ffffff;" transform="translate(142.421364 657.83375)scale(0.4 -0.4)">
       <use xlink:href="#DejaVuSans-48"/>
      </g>
     </g>
    </g>
    <g id="xtick_2">
     <g id="line2d_3">
      <path clip-path="url(#pf22bf140b8)" d="M 329.251818 620.44 
L 329.251818 54 
" style="fill:none;stroke:#ffffff;stroke-linecap:square;stroke-opacity:0.2;stroke-width:0.6;"/>
     </g>
     <g id="line2d_4">
      <g>
       <use style="fill:#ffffff;stroke:#ffffff;stroke-width:0.8;" x="329.251818" xlink:href="#mbeb61f10da" y="620.44"/>
      </g>
     </g>
     <g id="text_2">
      <!-- 2 -->
      <defs>
       <path d="M 19.1875 8.296875 
L 53.609375 8.296875 
L 53.609375 0 
L 7.328125 0 
L 7.328125 8.296875 
Q 12.9375 14.109375 22.625 23.890625 
Q 32.328125 33.6875 34.8125 36.53125 
Q 39.546875 41.84375 41.421875 45.53125 
Q 43.3125 49.21875 43.3125 52.78125 
Q 43.3125 58.59375 39.234375 62.25 
Q 35.15625 65.921875 28.609375 65.921875 
Q 23.96875 65.921875 18.8125 64.3125 
Q 13.671875 62.703125 7.8125 59.421875 
L 7.8125 69.390625 
Q 13.765625 71.78125 18.9375 73 
Q 24.125 74.21875 28.421875 74.21875 
Q 39.75 74.21875 46.484375 68.546875 
Q 53.21875 62.890625 53.21875 53.421875 
Q 53.21875 48.921875 51.53125 44.890625 
Q 49.859375 40.875 45.40625 35.40625 
Q 44.1875 33.984375 37.640625 27.21875 
Q 31.109375 20.453125 19.1875 8.296875 
z
" id="DejaVuSans-50"/>
      </defs>
      <g style="fill:#ffffff;" transform="translate(316.526818 657.83375)scale(0.4 -0.4)">
       <use xlink:href="#DejaVuSans-50"/>
      </g>
     </g>
    </g>
    <g id="xtick_3">
     <g id="line2d_5">
      <path clip-path="url(#pf22bf140b8)" d="M 503.357273 620.44 
L 503.357273 54 
" style="fill:none;stroke:#ffffff;stroke-linecap:square;stroke-opacity:0.2;stroke-width:0.6;"/>
     </g>
     <g id="line2d_6">
      <g>
       <use style="fill:#ffffff;stroke:#ffffff;stroke-width:0.8;" x="503.357273" xlink:href="#mbeb61f10da" y="620.44"/>
      </g>
     </g>
     <g id="text_3">
      <!-- 4 -->
      <defs>
       <path d="M 37.796875 64.3125 
L 12.890625 25.390625 
L 37.796875 25.390625 
z
M 35.203125 72.90625 
L 47.609375 72.90625 
L 47.609375 25.390625 
L 58.015625 25.390625 
L 58.015625 17.1875 
L 47.609375 17.1875 
L 47.609375 0 
L 37.796875 0 
L 37.796875 17.1875 
L 4.890625 17.1875 
L 4.890625 26.703125 
z
" id="DejaVuSans-52"/>
      </defs>
      <g style="fill:#ffffff;" transform="translate(490.632273 657.83375)scale(0.4 -0.4)">
       <use xlink:href="#DejaVuSans-52"/>
      </g>
     </g>
    </g>
    <g id="xtick_4">
     <g id="line2d_7">
      <path clip-path="url(#pf22bf140b8)" d="M 677.462727 620.44 
L 677.462727 54 
" style="fill:none;stroke:#ffffff;stroke-linecap:square;stroke-opacity:0.2;stroke-width:0.6;"/>
     </g>
     <g id="line2d_8">
      <g>
       <use style="fill:#ffffff;stroke:#ffffff;stroke-width:0.8;" x="677.462727" xlink:href="#mbeb61f10da" y="620.44"/>
      </g>
     </g>
     <g id="text_4">
      <!-- 6 -->
      <defs>
       <path d="M 33.015625 40.375 
Q 26.375 40.375 22.484375 35.828125 
Q 18.609375 31.296875 18.609375 23.390625 
Q 18.609375 15.53125 22.484375 10.953125 
Q 26.375 6.390625 33.015625 6.390625 
Q 39.65625 6.390625 43.53125 10.953125 
Q 47.40625 15.53125 47.40625 23.390625 
Q 47.40625 31.296875 43.53125 35.828125 
Q 39.65625 40.375 33.015625 40.375 
z
M 52.59375 71.296875 
L 52.59375 62.3125 
Q 48.875 64.0625 45.09375 64.984375 
Q 41.3125 65.921875 37.59375 65.921875 
Q 27.828125 65.921875 22.671875 59.328125 
Q 17.53125 52.734375 16.796875 39.40625 
Q 19.671875 43.65625 24.015625 45.921875 
Q 28.375 48.1875 33.59375 48.1875 
Q 44.578125 48.1875 50.953125 41.515625 
Q 57.328125 34.859375 57.328125 23.390625 
Q 57.328125 12.15625 50.6875 5.359375 
Q 44.046875 -1.421875 33.015625 -1.421875 
Q 20.359375 -1.421875 13.671875 8.265625 
Q 6.984375 17.96875 6.984375 36.375 
Q 6.984375 53.65625 15.1875 63.9375 
Q 23.390625 74.21875 37.203125 74.21875 
Q 40.921875 74.21875 44.703125 73.484375 
Q 48.484375 72.75 52.59375 71.296875 
z
" id="DejaVuSans-54"/>
      </defs>
      <g style="fill:#ffffff;" transform="translate(664.737727 657.83375)scale(0.4 -0.4)">
       <use xlink:href="#DejaVuSans-54"/>
      </g>
     </g>
    </g>
    <g id="xtick_5">
     <g id="line2d_9">
      <path clip-path="url(#pf22bf140b8)" d="M 851.568182 620.44 
L 851.568182 54 
" style="fill:none;stroke:#ffffff;stroke-linecap:square;stroke-opacity:0.2;stroke-width:0.6;"/>
     </g>
     <g id="line2d_10">
      <g>
       <use style="fill:#ffffff;stroke:#ffffff;stroke-width:0.8;" x="851.568182" xlink:href="#mbeb61f10da" y="620.44"/>
      </g>
     </g>
     <g id="text_5">
      <!-- 8 -->
      <defs>
       <path d="M 31.78125 34.625 
Q 24.75 34.625 20.71875 30.859375 
Q 16.703125 27.09375 16.703125 20.515625 
Q 16.703125 13.921875 20.71875 10.15625 
Q 24.75 6.390625 31.78125 6.390625 
Q 38.8125 6.390625 42.859375 10.171875 
Q 46.921875 13.96875 46.921875 20.515625 
Q 46.921875 27.09375 42.890625 30.859375 
Q 38.875 34.625 31.78125 34.625 
z
M 21.921875 38.8125 
Q 15.578125 40.375 12.03125 44.71875 
Q 8.5 49.078125 8.5 55.328125 
Q 8.5 64.0625 14.71875 69.140625 
Q 20.953125 74.21875 31.78125 74.21875 
Q 42.671875 74.21875 48.875 69.140625 
Q 55.078125 64.0625 55.078125 55.328125 
Q 55.078125 49.078125 51.53125 44.71875 
Q 48 40.375 41.703125 38.8125 
Q 48.828125 37.15625 52.796875 32.3125 
Q 56.78125 27.484375 56.78125 20.515625 
Q 56.78125 9.90625 50.3125 4.234375 
Q 43.84375 -1.421875 31.78125 -1.421875 
Q 19.734375 -1.421875 13.25 4.234375 
Q 6.78125 9.90625 6.78125 20.515625 
Q 6.78125 27.484375 10.78125 32.3125 
Q 14.796875 37.15625 21.921875 38.8125 
z
M 18.3125 54.390625 
Q 18.3125 48.734375 21.84375 45.5625 
Q 25.390625 42.390625 31.78125 42.390625 
Q 38.140625 42.390625 41.71875 45.5625 
Q 45.3125 48.734375 45.3125 54.390625 
Q 45.3125 60.0625 41.71875 63.234375 
Q 38.140625 66.40625 31.78125 66.40625 
Q 25.390625 66.40625 21.84375 63.234375 
Q 18.3125 60.0625 18.3125 54.390625 
z
" id="DejaVuSans-56"/>
      </defs>
      <g style="fill:#ffffff;" transform="translate(838.843182 657.83375)scale(0.4 -0.4)">
       <use xlink:href="#DejaVuSans-56"/>
      </g>
     </g>
    </g>
    <g id="xtick_6">
     <g id="line2d_11">
      <path clip-path="url(#pf22bf140b8)" d="M 1025.673636 620.44 
L 1025.673636 54 
" style="fill:none;stroke:#ffffff;stroke-linecap:square;stroke-opacity:0.2;stroke-width:0.6;"/>
     </g>
     <g id="line2d_12">
      <g>
       <use style="fill:#ffffff;stroke:#ffffff;stroke-width:0.8;" x="1025.673636" xlink:href="#mbeb61f10da" y="620.44"/>
      </g>
     </g>
     <g id="text_6">
      <!-- 10 -->
      <defs>
       <path d="M 12.40625 8.296875 
L 28.515625 8.296875 
L 28.515625 63.921875 
L 10.984375 60.40625 
L 10.984375 69.390625 
L 28.421875 72.90625 
L 38.28125 72.90625 
L 38.28125 8.296875 
L 54.390625 8.296875 
L 54.390625 0 
L 12.40625 0 
z
" id="DejaVuSans-49"/>
      </defs>
      <g style="fill:#ffffff;" transform="translate(1000.223636 657.83375)scale(0.4 -0.4)">
       <use xlink:href="#DejaVuSans-49"/>
       <use x="63.623047" xlink:href="#DejaVuSans-48"/>
      </g>
     </g>
    </g>
    <g id="text_7">
     <!-- Time -->
     <defs>
      <path d="M -0.296875 72.90625 
L 61.375 72.90625 
L 61.375 64.59375 
L 35.5 64.59375 
L 35.5 0 
L 25.59375 0 
L 25.59375 64.59375 
L -0.296875 64.59375 
z
" id="DejaVuSans-84"/>
      <path d="M 9.421875 54.6875 
L 18.40625 54.6875 
L 18.40625 0 
L 9.421875 0 
z
M 9.421875 75.984375 
L 18.40625 75.984375 
L 18.40625 64.59375 
L 9.421875 64.59375 
z
" id="DejaVuSans-105"/>
      <path d="M 52 44.1875 
Q 55.375 50.25 60.0625 53.125 
Q 64.75 56 71.09375 56 
Q 79.640625 56 84.28125 50.015625 
Q 88.921875 44.046875 88.921875 33.015625 
L 88.921875 0 
L 79.890625 0 
L 79.890625 32.71875 
Q 79.890625 40.578125 77.09375 44.375 
Q 74.3125 48.1875 68.609375 48.1875 
Q 61.625 48.1875 57.5625 43.546875 
Q 53.515625 38.921875 53.515625 30.90625 
L 53.515625 0 
L 44.484375 0 
L 44.484375 32.71875 
Q 44.484375 40.625 41.703125 44.40625 
Q 38.921875 48.1875 33.109375 48.1875 
Q 26.21875 48.1875 22.15625 43.53125 
Q 18.109375 38.875 18.109375 30.90625 
L 18.109375 0 
L 9.078125 0 
L 9.078125 54.6875 
L 18.109375 54.6875 
L 18.109375 46.1875 
Q 21.1875 51.21875 25.484375 53.609375 
Q 29.78125 56 35.6875 56 
Q 41.65625 56 45.828125 52.96875 
Q 50 49.953125 52 44.1875 
z
" id="DejaVuSans-109"/>
      <path d="M 56.203125 29.59375 
L 56.203125 25.203125 
L 14.890625 25.203125 
Q 15.484375 15.921875 20.484375 11.0625 
Q 25.484375 6.203125 34.421875 6.203125 
Q 39.59375 6.203125 44.453125 7.46875 
Q 49.3125 8.734375 54.109375 11.28125 
L 54.109375 2.78125 
Q 49.265625 0.734375 44.1875 -0.34375 
Q 39.109375 -1.421875 33.890625 -1.421875 
Q 20.796875 -1.421875 13.15625 6.1875 
Q 5.515625 13.8125 5.515625 26.8125 
Q 5.515625 40.234375 12.765625 48.109375 
Q 20.015625 56 32.328125 56 
Q 43.359375 56 49.78125 48.890625 
Q 56.203125 41.796875 56.203125 29.59375 
z
M 47.21875 32.234375 
Q 47.125 39.59375 43.09375 43.984375 
Q 39.0625 48.390625 32.421875 48.390625 
Q 24.90625 48.390625 20.390625 44.140625 
Q 15.875 39.890625 15.1875 32.171875 
z
" id="DejaVuSans-101"/>
     </defs>
     <g style="fill:#ffffff;" transform="translate(540.86 700.54625)scale(0.4 -0.4)">
      <use xlink:href="#DejaVuSans-84"/>
      <use x="61.037109" xlink:href="#DejaVuSans-105"/>
      <use x="88.820312" xlink:href="#DejaVuSans-109"/>
      <use x="186.232422" xlink:href="#DejaVuSans-101"/>
     </g>
    </g>
   </g>
   <g id="matplotlib.axis_2">
    <g id="ytick_1">
     <g id="line2d_13">
      <path clip-path="url(#pf22bf140b8)" d="M 111.62 589.806946 
L 1069.2 589.806946 
" style="fill:none;stroke:#ffffff;stroke-linecap:square;stroke-opacity:0.2;stroke-width:0.6;"/>
     </g>
     <g id="line2d_14">
      <defs>
       <path d="M 0 0 
L -3.5 0 
" id="mcbe9a42288" style="stroke:#ffffff;stroke-width:0.8;"/>
      </defs>
      <g>
       <use style="fill:#ffffff;stroke:#ffffff;stroke-width:0.8;" x="111.62" xlink:href="#mcbe9a42288" y="589.806946"/>
      </g>
     </g>
     <g id="text_8">
      <!-- 0 -->
      <g style="fill:#ffffff;" transform="translate(79.17 605.003821)scale(0.4 -0.4)">
       <use xlink:href="#DejaVuSans-48"/>
      </g>
     </g>
    </g>
    <g id="ytick_2">
     <g id="line2d_15">
      <path clip-path="url(#pf22bf140b8)" d="M 111.62 493.991896 
L 1069.2 493.991896 
" style="fill:none;stroke:#ffffff;stroke-linecap:square;stroke-opacity:0.2;stroke-width:0.6;"/>
     </g>
     <g id="line2d_16">
      <g>
       <use style="fill:#ffffff;stroke:#ffffff;stroke-width:0.8;" x="111.62" xlink:href="#mcbe9a42288" y="493.991896"/>
      </g>
     </g>
     <g id="text_9">
      <!-- 2 -->
      <g style="fill:#ffffff;" transform="translate(79.17 509.188771)scale(0.4 -0.4)">
       <use xlink:href="#DejaVuSans-50"/>
      </g>
     </g>
    </g>
    <g id="ytick_3">
     <g id="line2d_17">
      <path clip-path="url(#pf22bf140b8)" d="M 111.62 398.176846 
L 1069.2 398.176846 
" style="fill:none;stroke:#ffffff;stroke-linecap:square;stroke-opacity:0.2;stroke-width:0.6;"/>
     </g>
     <g id="line2d_18">
      <g>
       <use style="fill:#ffffff;stroke:#ffffff;stroke-width:0.8;" x="111.62" xlink:href="#mcbe9a42288" y="398.176846"/>
      </g>
     </g>
     <g id="text_10">
      <!-- 4 -->
      <g style="fill:#ffffff;" transform="translate(79.17 413.373721)scale(0.4 -0.4)">
       <use xlink:href="#DejaVuSans-52"/>
      </g>
     </g>
    </g>
    <g id="ytick_4">
     <g id="line2d_19">
      <path clip-path="url(#pf22bf140b8)" d="M 111.62 302.361797 
L 1069.2 302.361797 
" style="fill:none;stroke:#ffffff;stroke-linecap:square;stroke-opacity:0.2;stroke-width:0.6;"/>
     </g>
     <g id="line2d_20">
      <g>
       <use style="fill:#ffffff;stroke:#ffffff;stroke-width:0.8;" x="111.62" xlink:href="#mcbe9a42288" y="302.361797"/>
      </g>
     </g>
     <g id="text_11">
      <!-- 6 -->
      <g style="fill:#ffffff;" transform="translate(79.17 317.558672)scale(0.4 -0.4)">
       <use xlink:href="#DejaVuSans-54"/>
      </g>
     </g>
    </g>
    <g id="ytick_5">
     <g id="line2d_21">
      <path clip-path="url(#pf22bf140b8)" d="M 111.62 206.546747 
L 1069.2 206.546747 
" style="fill:none;stroke:#ffffff;stroke-linecap:square;stroke-opacity:0.2;stroke-width:0.6;"/>
     </g>
     <g id="line2d_22">
      <g>
       <use style="fill:#ffffff;stroke:#ffffff;stroke-width:0.8;" x="111.62" xlink:href="#mcbe9a42288" y="206.546747"/>
      </g>
     </g>
     <g id="text_12">
      <!-- 8 -->
      <g style="fill:#ffffff;" transform="translate(79.17 221.743622)scale(0.4 -0.4)">
       <use xlink:href="#DejaVuSans-56"/>
      </g>
     </g>
    </g>
    <g id="ytick_6">
     <g id="line2d_23">
      <path clip-path="url(#pf22bf140b8)" d="M 111.62 110.731697 
L 1069.2 110.731697 
" style="fill:none;stroke:#ffffff;stroke-linecap:square;stroke-opacity:0.2;stroke-width:0.6;"/>
     </g>
     <g id="line2d_24">
      <g>
       <use style="fill:#ffffff;stroke:#ffffff;stroke-width:0.8;" x="111.62" xlink:href="#mcbe9a42288" y="110.731697"/>
      </g>
     </g>
     <g id="text_13">
      <!-- 10 -->
      <g style="fill:#ffffff;" transform="translate(53.72 125.928572)scale(0.4 -0.4)">
       <use xlink:href="#DejaVuSans-49"/>
       <use x="63.623047" xlink:href="#DejaVuSans-48"/>
      </g>
     </g>
    </g>
    <g id="text_14">
     <!-- Amplitude -->
     <defs>
      <path d="M 34.1875 63.1875 
L 20.796875 26.90625 
L 47.609375 26.90625 
z
M 28.609375 72.90625 
L 39.796875 72.90625 
L 67.578125 0 
L 57.328125 0 
L 50.6875 18.703125 
L 17.828125 18.703125 
L 11.1875 0 
L 0.78125 0 
z
" id="DejaVuSans-65"/>
      <path d="M 18.109375 8.203125 
L 18.109375 -20.796875 
L 9.078125 -20.796875 
L 9.078125 54.6875 
L 18.109375 54.6875 
L 18.109375 46.390625 
Q 20.953125 51.265625 25.265625 53.625 
Q 29.59375 56 35.59375 56 
Q 45.5625 56 51.78125 48.09375 
Q 58.015625 40.1875 58.015625 27.296875 
Q 58.015625 14.40625 51.78125 6.484375 
Q 45.5625 -1.421875 35.59375 -1.421875 
Q 29.59375 -1.421875 25.265625 0.953125 
Q 20.953125 3.328125 18.109375 8.203125 
z
M 48.6875 27.296875 
Q 48.6875 37.203125 44.609375 42.84375 
Q 40.53125 48.484375 33.40625 48.484375 
Q 26.265625 48.484375 22.1875 42.84375 
Q 18.109375 37.203125 18.109375 27.296875 
Q 18.109375 17.390625 22.1875 11.75 
Q 26.265625 6.109375 33.40625 6.109375 
Q 40.53125 6.109375 44.609375 11.75 
Q 48.6875 17.390625 48.6875 27.296875 
z
" id="DejaVuSans-112"/>
      <path d="M 9.421875 75.984375 
L 18.40625 75.984375 
L 18.40625 0 
L 9.421875 0 
z
" id="DejaVuSans-108"/>
      <path d="M 18.3125 70.21875 
L 18.3125 54.6875 
L 36.8125 54.6875 
L 36.8125 47.703125 
L 18.3125 47.703125 
L 18.3125 18.015625 
Q 18.3125 11.328125 20.140625 9.421875 
Q 21.96875 7.515625 27.59375 7.515625 
L 36.8125 7.515625 
L 36.8125 0 
L 27.59375 0 
Q 17.1875 0 13.234375 3.875 
Q 9.28125 7.765625 9.28125 18.015625 
L 9.28125 47.703125 
L 2.6875 47.703125 
L 2.6875 54.6875 
L 9.28125 54.6875 
L 9.28125 70.21875 
z
" id="DejaVuSans-116"/>
      <path d="M 8.5 21.578125 
L 8.5 54.6875 
L 17.484375 54.6875 
L 17.484375 21.921875 
Q 17.484375 14.15625 20.5 10.265625 
Q 23.53125 6.390625 29.59375 6.390625 
Q 36.859375 6.390625 41.078125 11.03125 
Q 45.3125 15.671875 45.3125 23.6875 
L 45.3125 54.6875 
L 54.296875 54.6875 
L 54.296875 0 
L 45.3125 0 
L 45.3125 8.40625 
Q 42.046875 3.421875 37.71875 1 
Q 33.40625 -1.421875 27.6875 -1.421875 
Q 18.265625 -1.421875 13.375 4.4375 
Q 8.5 10.296875 8.5 21.578125 
z
M 31.109375 56 
z
" id="DejaVuSans-117"/>
      <path d="M 45.40625 46.390625 
L 45.40625 75.984375 
L 54.390625 75.984375 
L 54.390625 0 
L 45.40625 0 
L 45.40625 8.203125 
Q 42.578125 3.328125 38.25 0.953125 
Q 33.9375 -1.421875 27.875 -1.421875 
Q 17.96875 -1.421875 11.734375 6.484375 
Q 5.515625 14.40625 5.515625 27.296875 
Q 5.515625 40.1875 11.734375 48.09375 
Q 17.96875 56 27.875 56 
Q 33.9375 56 38.25 53.625 
Q 42.578125 51.265625 45.40625 46.390625 
z
M 14.796875 27.296875 
Q 14.796875 17.390625 18.875 11.75 
Q 22.953125 6.109375 30.078125 6.109375 
Q 37.203125 6.109375 41.296875 11.75 
Q 45.40625 17.390625 45.40625 27.296875 
Q 45.40625 37.203125 41.296875 42.84375 
Q 37.203125 48.484375 30.078125 48.484375 
Q 22.953125 48.484375 18.875 42.84375 
Q 14.796875 37.203125 14.796875 27.296875 
z
" id="DejaVuSans-100"/>
     </defs>
     <g style="fill:#ffffff;" transform="translate(41.40125 439.710625)rotate(-90)scale(0.4 -0.4)">
      <use xlink:href="#DejaVuSans-65"/>
      <use x="68.408203" xlink:href="#DejaVuSans-109"/>
      <use x="165.820312" xlink:href="#DejaVuSans-112"/>
      <use x="229.296875" xlink:href="#DejaVuSans-108"/>
      <use x="257.080078" xlink:href="#DejaVuSans-105"/>
      <use x="284.863281" xlink:href="#DejaVuSans-116"/>
      <use x="324.072266" xlink:href="#DejaVuSans-117"/>
      <use x="387.451172" xlink:href="#DejaVuSans-100"/>
      <use x="450.927734" xlink:href="#DejaVuSans-101"/>
     </g>
    </g>
   </g>
   <g id="line2d_25">
    <path clip-path="url(#pf22bf140b8)" d="M 155.146364 551.71709 
L 156.017762 551.793039 
L 156.889161 550.341674 
L 157.76056 549.755431 
L 158.631958 548.774705 
L 159.503357 550.733427 
L 161.246154 549.530578 
L 162.117553 550.14901 
L 162.988952 549.88695 
L 163.86035 551.127795 
L 164.731749 550.006717 
L 165.603148 551.850651 
L 166.474546 552.273949 
L 167.345945 551.979806 
L 168.217344 553.665949 
L 169.088742 553.545666 
L 169.960141 554.092695 
L 170.83154 555.920733 
L 171.702938 558.229385 
L 172.574337 557.376439 
L 173.445736 558.953168 
L 174.317134 558.570752 
L 175.188533 560.399159 
L 176.059932 561.886407 
L 177.802729 565.24684 
L 178.674128 566.170782 
L 179.545526 567.483897 
L 180.416925 568.412364 
L 181.288324 570.172534 
L 182.159722 570.843522 
L 183.031121 573.261734 
L 183.90252 572.839733 
L 184.773918 575.727344 
L 185.645317 576.830531 
L 186.516716 578.49101 
L 187.388114 579.105059 
L 188.259513 580.86674 
L 189.130912 581.347292 
L 190.00231 582.925277 
L 190.873709 583.040386 
L 191.745108 585.525098 
L 192.616507 586.214866 
L 193.487905 586.583134 
L 194.359304 587.673206 
L 196.102101 589.330593 
L 196.9735 590.725546 
L 197.844899 590.998862 
L 198.716297 592.401662 
L 199.587696 592.984798 
L 201.330493 593.457731 
L 203.073291 594.692727 
L 203.944689 594.17915 
L 204.816088 594.057776 
L 205.687487 594.666016 
L 206.558885 593.768683 
L 207.430284 593.747093 
L 208.301683 592.380211 
L 209.173081 592.286144 
L 210.04448 591.384538 
L 210.915879 591.55532 
L 211.787277 590.925177 
L 212.658676 589.980547 
L 213.530075 590.084412 
L 214.401473 588.427535 
L 215.272872 587.079809 
L 216.144271 586.246803 
L 217.015669 584.878006 
L 217.887068 584.131369 
L 219.629865 579.777703 
L 220.501264 578.514045 
L 221.372663 576.849129 
L 222.244061 574.631115 
L 223.11546 573.227198 
L 223.986859 571.469193 
L 224.858257 568.880561 
L 225.729656 568.192103 
L 226.601055 565.06739 
L 228.343852 560.560238 
L 229.215251 559.076084 
L 230.086649 556.3706 
L 230.958048 554.350685 
L 232.700845 548.72313 
L 233.572244 546.819759 
L 234.443643 543.719512 
L 235.315041 541.792113 
L 236.18644 540.425305 
L 237.057839 537.025594 
L 237.929237 534.83418 
L 238.800636 531.269695 
L 239.672035 529.75285 
L 240.543433 527.019049 
L 241.414832 524.683335 
L 242.286231 523.052294 
L 245.771825 513.407012 
L 246.643224 511.381012 
L 247.514623 508.527536 
L 248.386021 508.083551 
L 249.25742 505.4587 
L 251.000217 501.46735 
L 251.871616 499.773273 
L 252.743015 498.549887 
L 253.614414 495.591991 
L 254.485812 494.829612 
L 255.357211 493.612589 
L 256.22861 490.879279 
L 257.100008 489.815998 
L 257.971407 489.017513 
L 259.714204 486.587109 
L 260.585603 485.028656 
L 261.457002 484.236897 
L 262.3284 483.106849 
L 263.199799 482.951654 
L 264.071198 482.264453 
L 264.942596 481.829697 
L 265.813995 481.937885 
L 266.685394 481.300627 
L 267.556792 481.122051 
L 268.428191 480.692849 
L 269.29959 481.492857 
L 270.170988 480.553813 
L 271.042387 481.228014 
L 271.913786 481.02176 
L 272.785184 482.008526 
L 273.656583 481.69887 
L 274.527982 482.756229 
L 275.39938 482.69611 
L 276.270779 484.207978 
L 277.142178 484.196629 
L 278.013576 485.822946 
L 278.884975 486.307083 
L 279.756374 487.192471 
L 280.627772 487.509462 
L 281.499171 488.869058 
L 282.37057 490.480048 
L 283.241968 491.236377 
L 284.113367 492.640985 
L 284.984766 494.803519 
L 285.856164 496.266819 
L 286.727563 496.819612 
L 287.598962 497.842351 
L 288.47036 499.039121 
L 289.341759 500.670716 
L 290.213158 502.748878 
L 291.084556 503.972832 
L 291.955955 504.970995 
L 295.44155 510.897217 
L 296.312948 511.875231 
L 297.184347 513.383344 
L 298.055746 515.155067 
L 298.927144 516.542143 
L 299.798543 516.836373 
L 301.54134 520.909561 
L 302.412739 521.282745 
L 303.284138 522.473632 
L 305.026935 524.071626 
L 305.898334 524.822801 
L 306.769732 524.884686 
L 307.641131 526.973435 
L 308.51253 528.04579 
L 309.383928 528.075742 
L 310.255327 528.36564 
L 311.126726 529.018463 
L 311.998124 529.306831 
L 312.869523 529.771083 
L 313.740922 529.353424 
L 315.483719 529.758931 
L 316.355118 529.113236 
L 317.226517 529.860634 
L 318.097915 529.35802 
L 318.969314 528.485818 
L 319.840713 528.806399 
L 320.712111 527.902845 
L 321.58351 528.014376 
L 322.454909 526.886103 
L 323.326307 526.055215 
L 324.197706 525.031175 
L 325.069105 522.841189 
L 325.940503 521.861132 
L 326.811902 521.186846 
L 327.683301 519.852914 
L 328.554699 518.236874 
L 329.426098 517.563539 
L 330.297497 515.03645 
L 331.168895 513.940982 
L 332.040294 512.365706 
L 332.911693 510.464798 
L 333.783091 508.994908 
L 334.65449 507.192119 
L 335.525889 504.795764 
L 336.397287 503.155011 
L 338.140085 498.712437 
L 339.882882 494.301277 
L 340.754281 492.797453 
L 341.625679 490.173204 
L 342.497078 486.923088 
L 343.368477 485.94189 
L 344.239875 483.131631 
L 345.982673 478.237011 
L 347.72547 473.4393 
L 349.468267 469.536079 
L 352.082463 461.63427 
L 352.953862 460.16266 
L 353.825261 458.445609 
L 354.696659 456.031451 
L 355.568058 452.850831 
L 356.439457 451.643314 
L 358.182254 448.101611 
L 359.925051 442.694582 
L 360.79645 442.011906 
L 361.667849 440.837469 
L 362.539247 437.850909 
L 363.410646 437.630778 
L 364.282045 434.785574 
L 365.153443 434.438782 
L 366.024842 432.397545 
L 367.767639 430.274799 
L 368.639038 429.738242 
L 369.510437 429.771243 
L 370.381835 428.271959 
L 371.253234 427.065523 
L 373.86743 425.256591 
L 374.738829 425.068086 
L 375.610228 424.179273 
L 376.481626 424.689926 
L 377.353025 424.546508 
L 378.224424 424.654904 
L 379.095822 426.230767 
L 379.967221 424.879736 
L 380.83862 424.670319 
L 381.710018 426.065194 
L 382.581417 426.194614 
L 383.452816 426.125602 
L 386.067012 428.836207 
L 387.809809 430.664847 
L 388.681208 431.979829 
L 389.552606 433.045512 
L 390.424005 432.995957 
L 391.295404 435.512598 
L 392.166802 435.729179 
L 393.038201 437.641895 
L 394.780998 440.544205 
L 395.652397 441.24558 
L 397.395194 445.509003 
L 398.266593 445.911896 
L 399.137992 447.167797 
L 400.00939 449.236512 
L 400.880789 450.967803 
L 401.752188 452.98928 
L 402.623586 453.792282 
L 403.494985 455.458528 
L 404.366384 456.119246 
L 406.109181 459.578667 
L 406.98058 460.790746 
L 408.723377 464.504822 
L 409.594776 465.774348 
L 410.466174 465.735942 
L 411.337573 466.788135 
L 412.208972 469.541468 
L 413.08037 470.21873 
L 413.951769 471.126883 
L 414.823168 472.205342 
L 415.694566 473.764015 
L 416.565965 473.980547 
L 417.437364 475.162316 
L 418.308762 475.449172 
L 419.180161 476.000082 
L 420.05156 477.296026 
L 420.922958 477.377771 
L 421.794357 478.675141 
L 422.665756 478.015092 
L 423.537154 478.500472 
L 424.408553 477.608609 
L 425.279952 477.470264 
L 426.15135 478.295854 
L 427.022749 478.212507 
L 427.894148 477.95982 
L 428.765546 477.192422 
L 429.636945 476.763117 
L 430.508344 476.684131 
L 431.379742 476.169936 
L 432.251141 476.128158 
L 433.12254 474.821803 
L 434.865337 471.835352 
L 435.736736 471.085267 
L 437.479533 469.25934 
L 438.350932 467.729875 
L 439.222331 465.29517 
L 440.093729 464.331373 
L 440.965128 463.164322 
L 441.836527 461.589374 
L 442.707925 459.771809 
L 443.579324 458.321489 
L 444.450723 455.49906 
L 445.322121 454.36732 
L 446.19352 451.618938 
L 447.064919 450.299345 
L 448.807716 445.530128 
L 449.679115 444.170513 
L 450.550513 441.990595 
L 452.293311 436.778052 
L 453.164709 434.398581 
L 454.036108 432.44182 
L 454.907507 429.271189 
L 455.778905 428.123564 
L 456.650304 426.011758 
L 457.521703 423.511565 
L 458.393101 421.401845 
L 459.2645 418.135564 
L 460.135899 416.077611 
L 461.007297 414.603428 
L 461.878696 411.812743 
L 462.750095 410.028252 
L 464.492892 405.3687 
L 465.364291 403.754423 
L 466.235689 400.239962 
L 467.107088 399.587454 
L 467.978487 397.166467 
L 468.849885 395.395317 
L 469.721284 393.982384 
L 470.592683 391.775286 
L 471.464081 390.107618 
L 472.33548 389.168177 
L 474.078277 385.689813 
L 474.949676 385.244348 
L 475.821075 383.804004 
L 476.692473 381.714348 
L 477.563872 380.915008 
L 478.435271 380.565126 
L 480.178068 378.938307 
L 481.049467 378.554963 
L 481.920865 377.458874 
L 484.535061 375.568189 
L 485.40646 375.528483 
L 486.277859 376.768108 
L 487.149257 375.650824 
L 488.020656 374.765779 
L 489.763453 376.183457 
L 490.634852 376.425849 
L 491.506251 376.170987 
L 492.377649 377.501601 
L 493.249048 378.379041 
L 494.120447 379.063415 
L 494.991845 379.275094 
L 495.863244 380.14365 
L 496.734643 381.22226 
L 497.606041 381.639731 
L 498.47744 383.753037 
L 499.348839 383.980944 
L 500.220238 385.530293 
L 501.091636 385.801404 
L 501.963035 387.993868 
L 502.834434 389.086672 
L 503.705832 389.75455 
L 504.577231 391.77165 
L 507.191427 395.8647 
L 508.062826 396.667221 
L 508.934224 398.368847 
L 509.805623 400.978349 
L 511.54842 403.437951 
L 512.419819 404.538853 
L 513.291218 405.050012 
L 514.162616 407.72153 
L 515.034015 409.174342 
L 515.905414 411.299627 
L 516.776812 411.941342 
L 517.648211 413.142618 
L 518.51961 414.842945 
L 519.391008 415.699984 
L 520.262407 416.864611 
L 521.133806 418.625256 
L 523.748002 421.67173 
L 524.6194 422.246615 
L 525.490799 424.005415 
L 526.362198 424.436104 
L 527.233596 424.374771 
L 528.104995 425.422325 
L 528.976394 426.253039 
L 529.847792 426.161172 
L 530.719191 426.871502 
L 531.59059 427.113658 
L 532.461988 427.199022 
L 533.333387 427.76799 
L 534.204786 427.515484 
L 535.076184 427.542161 
L 535.947583 428.199485 
L 536.818982 427.645844 
L 537.69038 426.6981 
L 538.561779 425.483045 
L 539.433178 425.272473 
L 540.304576 425.552214 
L 541.175975 424.301749 
L 542.047374 423.99183 
L 542.918772 422.323084 
L 543.790171 422.111715 
L 544.66157 419.661871 
L 546.404367 418.520678 
L 547.275766 415.78963 
L 548.147164 414.851024 
L 549.889962 412.134464 
L 550.76136 410.087397 
L 552.504158 407.598809 
L 553.375556 404.330934 
L 554.246955 402.052135 
L 555.118354 400.446525 
L 555.989752 398.484243 
L 556.861151 396.221819 
L 557.73255 394.656287 
L 558.603948 391.632312 
L 559.475347 390.277153 
L 560.346746 387.102998 
L 561.218145 385.318672 
L 564.703739 375.388091 
L 565.575138 373.53077 
L 566.446537 370.267268 
L 568.189334 365.418012 
L 569.060733 363.218357 
L 569.932131 360.587102 
L 570.80353 359.505376 
L 571.674929 356.352512 
L 572.546327 353.805896 
L 573.417726 351.948248 
L 574.289125 349.463747 
L 575.160523 348.908242 
L 576.031922 345.236201 
L 576.903321 342.983012 
L 577.774719 341.272134 
L 578.646118 340.166908 
L 579.517517 337.155157 
L 580.388915 336.962706 
L 582.131713 332.510671 
L 583.003111 330.757273 
L 584.745909 328.847193 
L 585.617307 326.611677 
L 586.488706 326.183404 
L 587.360105 324.261804 
L 588.231503 325.008513 
L 589.102902 322.3099 
L 589.974301 322.590954 
L 590.845699 320.833887 
L 591.717098 320.757215 
L 593.459895 319.111011 
L 594.331294 319.22787 
L 595.202693 319.675712 
L 596.074091 319.592074 
L 596.94549 319.146264 
L 597.816889 317.979337 
L 598.688287 318.923836 
L 599.559686 318.695786 
L 600.431085 319.49666 
L 601.302483 319.299628 
L 602.173882 319.286152 
L 603.045281 321.053538 
L 603.916679 320.524588 
L 604.788078 321.603791 
L 605.659477 322.439337 
L 606.530875 321.856682 
L 607.402274 323.505744 
L 608.273673 324.861237 
L 609.145071 325.55382 
L 610.01647 326.791719 
L 610.887869 327.483179 
L 611.759267 328.692513 
L 612.630666 330.2645 
L 613.502065 332.349696 
L 614.373463 332.612453 
L 615.244862 333.671323 
L 616.116261 335.371708 
L 616.987659 335.934455 
L 617.859058 338.717344 
L 618.730457 339.012867 
L 619.601855 340.207421 
L 622.216052 344.981104 
L 623.08745 347.485622 
L 623.958849 347.510603 
L 624.830248 349.347077 
L 626.573045 351.19901 
L 627.444444 352.625821 
L 628.315842 354.477832 
L 629.187241 354.672156 
L 630.05864 356.254479 
L 630.930038 358.44046 
L 631.801437 358.632852 
L 632.672836 358.439842 
L 633.544234 360.828229 
L 634.415633 360.209128 
L 635.287032 360.836479 
L 637.029829 362.537619 
L 638.772626 363.248226 
L 639.644025 364.525348 
L 641.386822 364.425248 
L 642.258221 364.028735 
L 643.12962 364.882023 
L 644.872417 363.552439 
L 645.743816 364.488657 
L 646.615214 363.217471 
L 649.22941 361.617479 
L 650.972208 359.744675 
L 651.843606 359.273766 
L 652.715005 358.164126 
L 653.586404 357.301069 
L 654.457802 355.381405 
L 656.2006 352.756901 
L 657.071998 351.332163 
L 658.814796 348.04077 
L 659.686194 345.345016 
L 660.557593 344.997648 
L 661.428992 341.497225 
L 662.30039 340.283979 
L 663.171789 337.426863 
L 664.914586 334.059273 
L 665.785985 331.381039 
L 666.657384 329.099683 
L 667.528782 327.269763 
L 668.400181 324.128615 
L 669.27158 322.523937 
L 671.014377 317.439163 
L 671.885776 315.872644 
L 672.757174 312.495441 
L 673.628573 309.852584 
L 675.37137 305.365666 
L 676.242769 302.29775 
L 677.985566 297.586538 
L 680.599762 289.469119 
L 681.471161 287.62532 
L 682.34256 284.698832 
L 684.085357 282.015869 
L 684.956756 278.076312 
L 685.828155 276.805138 
L 686.699553 274.16071 
L 687.570952 273.290451 
L 688.442351 271.215612 
L 689.313749 268.652592 
L 690.185148 267.587604 
L 691.056547 264.992822 
L 691.927945 264.094636 
L 692.799344 261.31351 
L 693.670743 260.023132 
L 694.542141 259.526168 
L 695.41354 257.413056 
L 696.284939 256.058629 
L 697.156337 255.013775 
L 698.027736 254.191564 
L 698.899135 253.032966 
L 699.770533 251.486228 
L 700.641932 251.520186 
L 701.513331 250.40092 
L 702.384729 250.035896 
L 704.127527 250.036819 
L 704.998925 248.952655 
L 705.870324 248.279114 
L 706.741723 249.194877 
L 707.613121 249.28761 
L 708.48452 248.33728 
L 709.355919 249.748549 
L 710.227317 249.502283 
L 711.098716 249.455028 
L 711.970115 250.586025 
L 712.841513 250.592366 
L 713.712912 251.532391 
L 714.584311 251.320416 
L 715.455709 252.24867 
L 716.327108 253.439569 
L 717.198507 253.589103 
L 718.069905 255.701036 
L 718.941304 255.933005 
L 719.812703 257.180621 
L 720.684101 258.075995 
L 721.5555 259.501494 
L 722.426899 259.563806 
L 723.298297 262.184529 
L 724.169696 262.572094 
L 725.912493 265.193375 
L 726.783892 267.258649 
L 727.655291 267.705545 
L 729.398088 270.301425 
L 730.269487 272.288139 
L 731.140885 273.669713 
L 732.012284 274.299607 
L 732.883683 276.307132 
L 733.755081 277.058281 
L 734.62648 277.390476 
L 735.497879 280.680097 
L 736.369277 280.634752 
L 738.983473 284.62608 
L 739.854872 285.201422 
L 740.726271 286.160504 
L 742.469068 288.922074 
L 743.340467 288.575864 
L 744.211866 290.053786 
L 745.083264 290.553357 
L 745.954663 290.489351 
L 746.826062 290.921763 
L 747.69746 292.353571 
L 748.568859 291.947604 
L 749.440258 292.773965 
L 750.311656 292.47037 
L 751.183055 293.537918 
L 752.054454 293.075317 
L 752.925852 292.896967 
L 753.797251 292.983984 
L 754.66865 293.402417 
L 755.540048 292.195756 
L 756.411447 291.443787 
L 757.282846 291.267769 
L 758.154244 290.147812 
L 759.025643 290.463403 
L 759.897042 288.851888 
L 760.76844 288.391769 
L 761.639839 286.023619 
L 762.511238 285.975768 
L 763.382636 284.052648 
L 764.254035 283.712549 
L 765.996832 280.628655 
L 766.868231 278.683053 
L 767.73963 277.73164 
L 768.611028 274.716245 
L 769.482427 273.444782 
L 770.353826 271.334696 
L 771.225224 270.465252 
L 772.096623 267.868768 
L 774.710819 261.280561 
L 775.582218 258.670718 
L 777.325015 254.661152 
L 778.196414 251.925943 
L 779.939211 248.453312 
L 780.81061 244.23591 
L 782.553407 241.129772 
L 783.424806 238.007554 
L 784.296204 236.408236 
L 786.039002 230.685981 
L 787.781799 226.357456 
L 788.653198 222.742573 
L 789.524596 221.662391 
L 790.395995 219.157189 
L 791.267394 216.286092 
L 793.010191 212.411559 
L 793.88159 209.468435 
L 794.752988 207.403331 
L 795.624387 206.233909 
L 796.495786 204.215456 
L 797.367184 201.320817 
L 798.238583 200.367108 
L 799.109982 198.6475 
L 799.98138 195.423259 
L 800.852779 194.756345 
L 801.724178 193.422556 
L 802.595576 190.952228 
L 803.466975 189.585347 
L 804.338374 188.886161 
L 805.209772 187.820091 
L 806.081171 186.403046 
L 806.95257 184.691885 
L 807.823969 184.420206 
L 808.695367 183.691837 
L 809.566766 182.217606 
L 810.438165 181.69036 
L 811.309563 181.961207 
L 813.052361 180.01519 
L 813.923759 180.173044 
L 814.795158 179.627278 
L 815.666557 180.167596 
L 816.537955 180.405403 
L 818.280753 179.792413 
L 819.152151 180.475539 
L 820.02355 180.75831 
L 820.894949 181.449205 
L 821.766347 182.430329 
L 822.637746 183.18778 
L 824.380543 183.500611 
L 825.251942 184.668999 
L 826.123341 184.508453 
L 826.994739 186.953649 
L 827.866138 187.530901 
L 828.737537 189.40136 
L 829.608935 189.448954 
L 830.480334 190.362886 
L 831.351733 192.84587 
L 832.223131 192.689426 
L 833.09453 195.072813 
L 833.965929 195.318936 
L 834.837327 197.489418 
L 835.708726 199.238499 
L 836.580125 200.121988 
L 837.451523 201.917157 
L 839.194321 204.402329 
L 840.065719 205.104983 
L 840.937118 208.418278 
L 841.808517 208.147565 
L 843.551314 212.762979 
L 844.422713 212.614554 
L 847.036909 217.534226 
L 847.908307 217.937043 
L 848.779706 220.427912 
L 849.651105 220.509845 
L 850.522503 222.048998 
L 851.393902 222.682616 
L 852.265301 223.891655 
L 853.136699 224.867726 
L 854.008098 225.07144 
L 854.879497 226.303577 
L 857.493693 227.694104 
L 858.365091 228.483505 
L 859.23649 228.948385 
L 860.107889 228.756974 
L 860.979287 228.904794 
L 861.850686 229.349748 
L 862.722085 228.678982 
L 863.593483 228.685606 
L 864.464882 228.572548 
L 865.336281 227.85221 
L 866.207679 227.319789 
L 867.950477 226.672908 
L 868.821876 225.233167 
L 869.693274 225.176405 
L 870.564673 224.079667 
L 871.436072 222.510803 
L 872.30747 221.393698 
L 873.178869 221.096415 
L 874.050268 220.439784 
L 874.921666 218.298477 
L 875.793065 217.881403 
L 876.664464 215.076665 
L 877.535862 214.546671 
L 878.407261 212.139508 
L 879.27866 211.175201 
L 880.150058 208.856636 
L 881.021457 206.93184 
L 881.892856 205.813865 
L 882.764254 202.773252 
L 883.635653 200.398572 
L 884.507052 198.468623 
L 885.37845 196.246079 
L 886.249849 195.228729 
L 888.864045 188.604455 
L 889.735444 185.282583 
L 890.606842 184.085192 
L 894.092437 174.147731 
L 894.963836 172.28587 
L 895.835234 169.470173 
L 898.44943 162.969833 
L 899.320829 160.060803 
L 900.192228 158.48864 
L 901.063626 156.256702 
L 901.935025 153.466267 
L 902.806424 151.400252 
L 903.677822 149.890559 
L 904.549221 147.985178 
L 905.42062 145.525275 
L 907.163417 142.202276 
L 908.034816 140.799722 
L 909.777613 137.568967 
L 910.649012 136.538422 
L 911.52041 133.735246 
L 912.391809 133.497772 
L 913.263208 132.336619 
L 914.134606 129.73569 
L 915.877404 128.910176 
L 916.748802 128.104909 
L 917.620201 127.526635 
L 918.4916 125.159876 
L 919.362998 125.279903 
L 920.234397 124.740171 
L 921.977194 124.034907 
L 922.848593 125.103002 
L 923.719992 123.753192 
L 924.59139 122.633215 
L 925.462789 123.987112 
L 926.334188 124.225665 
L 927.205586 123.50075 
L 928.076985 124.212195 
L 928.948384 125.275133 
L 929.819783 124.448773 
L 931.56258 126.940704 
L 932.433979 127.503308 
L 933.305377 127.848852 
L 934.176776 128.517896 
L 935.048175 130.144047 
L 935.919573 130.412367 
L 937.662371 133.759724 
L 938.533769 133.975609 
L 939.405168 135.965411 
L 940.276567 135.845255 
L 941.147965 138.649068 
L 942.019364 140.352338 
L 942.890763 140.255475 
L 943.762161 142.59962 
L 944.63356 144.071142 
L 945.504959 146.056774 
L 946.376357 147.10275 
L 947.247756 149.357975 
L 948.119155 149.646666 
L 948.990553 151.406704 
L 949.861952 152.644278 
L 951.604749 156.845031 
L 952.476148 156.840832 
L 953.347547 158.404434 
L 954.218945 160.801889 
L 955.090344 162.641133 
L 955.961743 163.366054 
L 956.833141 163.807428 
L 957.70454 166.372337 
L 958.575939 166.890692 
L 959.447337 168.651886 
L 960.318736 169.365566 
L 961.190135 170.979683 
L 962.061533 171.749212 
L 962.932932 171.550471 
L 964.675729 174.981061 
L 965.547128 174.517941 
L 966.418527 176.023794 
L 967.289925 176.054743 
L 968.161324 176.599251 
L 969.032723 176.984458 
L 969.904121 177.638896 
L 970.77552 177.949906 
L 971.646919 177.145954 
L 973.389716 177.322401 
L 974.261115 176.801758 
L 975.132513 177.443838 
L 976.003912 176.548942 
L 976.875311 175.166298 
L 977.746709 175.676743 
L 978.618108 174.013534 
L 979.489507 174.121418 
L 980.360905 173.493746 
L 981.232304 172.056947 
L 982.975101 170.265953 
L 983.8465 168.924211 
L 984.717899 166.682581 
L 985.589297 165.342162 
L 988.203493 162.243797 
L 989.074892 160.036046 
L 989.946291 158.868119 
L 990.81769 155.829813 
L 991.689088 153.476879 
L 992.560487 152.502665 
L 993.431886 150.456364 
L 994.303284 148.992487 
L 995.174683 146.290971 
L 996.046082 144.424517 
L 996.91748 141.573702 
L 997.788879 140.342319 
L 998.660278 137.993451 
L 999.531676 134.26693 
L 1000.403075 132.920151 
L 1002.145872 127.576445 
L 1003.017271 126.114839 
L 1003.88867 123.166279 
L 1004.760068 121.341043 
L 1005.631467 118.68361 
L 1006.502866 117.270841 
L 1007.374264 114.340245 
L 1008.245663 112.384226 
L 1009.117062 109.645105 
L 1010.859859 106.277446 
L 1013.474055 99.708169 
L 1014.345454 97.728181 
L 1015.216852 96.766249 
L 1016.088251 93.958156 
L 1016.95965 92.818848 
L 1017.831048 90.995712 
L 1018.702447 88.681821 
L 1020.445244 86.123398 
L 1021.316643 84.256522 
L 1022.188042 83.574704 
L 1023.05944 82.703978 
L 1023.930839 81.076029 
L 1024.802238 79.747273 
L 1025.673636 79.828161 
L 1025.673636 79.828161 
" style="fill:none;stroke:#00ff00;stroke-linecap:square;stroke-width:2.2;"/>
   </g>
   <g id="patch_3">
    <path d="M 111.62 620.44 
L 111.62 54 
" style="fill:none;stroke:#ffffff;stroke-linecap:square;stroke-linejoin:miter;stroke-width:0.8;"/>
   </g>
   <g id="patch_4">
    <path d="M 111.62 620.44 
L 1069.2 620.44 
" style="fill:none;stroke:#ffffff;stroke-linecap:square;stroke-linejoin:miter;stroke-width:0.8;"/>
   </g>
   <g id="text_15">
    <!-- Measured Signal -->
    <defs>
     <path d="M 9.8125 72.90625 
L 24.515625 72.90625 
L 43.109375 23.296875 
L 61.8125 72.90625 
L 76.515625 72.90625 
L 76.515625 0 
L 66.890625 0 
L 66.890625 64.015625 
L 48.09375 14.015625 
L 38.1875 14.015625 
L 19.390625 64.015625 
L 19.390625 0 
L 9.8125 0 
z
" id="DejaVuSans-77"/>
     <path d="M 34.28125 27.484375 
Q 23.390625 27.484375 19.1875 25 
Q 14.984375 22.515625 14.984375 16.5 
Q 14.984375 11.71875 18.140625 8.90625 
Q 21.296875 6.109375 26.703125 6.109375 
Q 34.1875 6.109375 38.703125 11.40625 
Q 43.21875 16.703125 43.21875 25.484375 
L 43.21875 27.484375 
z
M 52.203125 31.203125 
L 52.203125 0 
L 43.21875 0 
L 43.21875 8.296875 
Q 40.140625 3.328125 35.546875 0.953125 
Q 30.953125 -1.421875 24.3125 -1.421875 
Q 15.921875 -1.421875 10.953125 3.296875 
Q 6 8.015625 6 15.921875 
Q 6 25.140625 12.171875 29.828125 
Q 18.359375 34.515625 30.609375 34.515625 
L 43.21875 34.515625 
L 43.21875 35.40625 
Q 43.21875 41.609375 39.140625 45 
Q 35.0625 48.390625 27.6875 48.390625 
Q 23 48.390625 18.546875 47.265625 
Q 14.109375 46.140625 10.015625 43.890625 
L 10.015625 52.203125 
Q 14.9375 54.109375 19.578125 55.046875 
Q 24.21875 56 28.609375 56 
Q 40.484375 56 46.34375 49.84375 
Q 52.203125 43.703125 52.203125 31.203125 
z
" id="DejaVuSans-97"/>
     <path d="M 44.28125 53.078125 
L 44.28125 44.578125 
Q 40.484375 46.53125 36.375 47.5 
Q 32.28125 48.484375 27.875 48.484375 
Q 21.1875 48.484375 17.84375 46.4375 
Q 14.5 44.390625 14.5 40.28125 
Q 14.5 37.15625 16.890625 35.375 
Q 19.28125 33.59375 26.515625 31.984375 
L 29.59375 31.296875 
Q 39.15625 29.25 43.1875 25.515625 
Q 47.21875 21.78125 47.21875 15.09375 
Q 47.21875 7.46875 41.1875 3.015625 
Q 35.15625 -1.421875 24.609375 -1.421875 
Q 20.21875 -1.421875 15.453125 -0.5625 
Q 10.6875 0.296875 5.421875 2 
L 5.421875 11.28125 
Q 10.40625 8.6875 15.234375 7.390625 
Q 20.0625 6.109375 24.8125 6.109375 
Q 31.15625 6.109375 34.5625 8.28125 
Q 37.984375 10.453125 37.984375 14.40625 
Q 37.984375 18.0625 35.515625 20.015625 
Q 33.0625 21.96875 24.703125 23.78125 
L 21.578125 24.515625 
Q 13.234375 26.265625 9.515625 29.90625 
Q 5.8125 33.546875 5.8125 39.890625 
Q 5.8125 47.609375 11.28125 51.796875 
Q 16.75 56 26.8125 56 
Q 31.78125 56 36.171875 55.265625 
Q 40.578125 54.546875 44.28125 53.078125 
z
" id="DejaVuSans-115"/>
     <path d="M 41.109375 46.296875 
Q 39.59375 47.171875 37.8125 47.578125 
Q 36.03125 48 33.890625 48 
Q 26.265625 48 22.1875 43.046875 
Q 18.109375 38.09375 18.109375 28.8125 
L 18.109375 0 
L 9.078125 0 
L 9.078125 54.6875 
L 18.109375 54.6875 
L 18.109375 46.1875 
Q 20.953125 51.171875 25.484375 53.578125 
Q 30.03125 56 36.53125 56 
Q 37.453125 56 38.578125 55.875 
Q 39.703125 55.765625 41.0625 55.515625 
z
" id="DejaVuSans-114"/>
     <path id="DejaVuSans-32"/>
     <path d="M 53.515625 70.515625 
L 53.515625 60.890625 
Q 47.90625 63.578125 42.921875 64.890625 
Q 37.9375 66.21875 33.296875 66.21875 
Q 25.25 66.21875 20.875 63.09375 
Q 16.5 59.96875 16.5 54.203125 
Q 16.5 49.359375 19.40625 46.890625 
Q 22.3125 44.4375 30.421875 42.921875 
L 36.375 41.703125 
Q 47.40625 39.59375 52.65625 34.296875 
Q 57.90625 29 57.90625 20.125 
Q 57.90625 9.515625 50.796875 4.046875 
Q 43.703125 -1.421875 29.984375 -1.421875 
Q 24.8125 -1.421875 18.96875 -0.25 
Q 13.140625 0.921875 6.890625 3.21875 
L 6.890625 13.375 
Q 12.890625 10.015625 18.65625 8.296875 
Q 24.421875 6.59375 29.984375 6.59375 
Q 38.421875 6.59375 43.015625 9.90625 
Q 47.609375 13.234375 47.609375 19.390625 
Q 47.609375 24.75 44.3125 27.78125 
Q 41.015625 30.8125 33.5 32.328125 
L 27.484375 33.5 
Q 16.453125 35.6875 11.515625 40.375 
Q 6.59375 45.0625 6.59375 53.421875 
Q 6.59375 63.09375 13.40625 68.65625 
Q 20.21875 74.21875 32.171875 74.21875 
Q 37.3125 74.21875 42.625 73.28125 
Q 47.953125 72.359375 53.515625 70.515625 
z
" id="DejaVuSans-83"/>
     <path d="M 45.40625 27.984375 
Q 45.40625 37.75 41.375 43.109375 
Q 37.359375 48.484375 30.078125 48.484375 
Q 22.859375 48.484375 18.828125 43.109375 
Q 14.796875 37.75 14.796875 27.984375 
Q 14.796875 18.265625 18.828125 12.890625 
Q 22.859375 7.515625 30.078125 7.515625 
Q 37.359375 7.515625 41.375 12.890625 
Q 45.40625 18.265625 45.40625 27.984375 
z
M 54.390625 6.78125 
Q 54.390625 -7.171875 48.1875 -13.984375 
Q 42 -20.796875 29.203125 -20.796875 
Q 24.46875 -20.796875 20.265625 -20.09375 
Q 16.0625 -19.390625 12.109375 -17.921875 
L 12.109375 -9.1875 
Q 16.0625 -11.328125 19.921875 -12.34375 
Q 23.78125 -13.375 27.78125 -13.375 
Q 36.625 -13.375 41.015625 -8.765625 
Q 45.40625 -4.15625 45.40625 5.171875 
L 45.40625 9.625 
Q 42.625 4.78125 38.28125 2.390625 
Q 33.9375 0 27.875 0 
Q 17.828125 0 11.671875 7.65625 
Q 5.515625 15.328125 5.515625 27.984375 
Q 5.515625 40.671875 11.671875 48.328125 
Q 17.828125 56 27.875 56 
Q 33.9375 56 38.28125 53.609375 
Q 42.625 51.21875 45.40625 46.390625 
L 45.40625 54.6875 
L 54.390625 54.6875 
z
" id="DejaVuSans-103"/>
     <path d="M 54.890625 33.015625 
L 54.890625 0 
L 45.90625 0 
L 45.90625 32.71875 
Q 45.90625 40.484375 42.875 44.328125 
Q 39.84375 48.1875 33.796875 48.1875 
Q 26.515625 48.1875 22.3125 43.546875 
Q 18.109375 38.921875 18.109375 30.90625 
L 18.109375 0 
L 9.078125 0 
L 9.078125 54.6875 
L 18.109375 54.6875 
L 18.109375 46.1875 
Q 21.34375 51.125 25.703125 53.5625 
Q 30.078125 56 35.796875 56 
Q 45.21875 56 50.046875 50.171875 
Q 54.890625 44.34375 54.890625 33.015625 
z
" id="DejaVuSans-110"/>
    </defs>
    <g style="fill:#ffffff;" transform="translate(403.744375 44.641406)scale(0.45 -0.45)">
     <use xlink:href="#DejaVuSans-77"/>
     <use x="86.279297" xlink:href="#DejaVuSans-101"/>
     <use x="147.802734" xlink:href="#DejaVuSans-97"/>
     <use x="209.082031" xlink:href="#DejaVuSans-115"/>
     <use x="261.181641" xlink:href="#DejaVuSans-117"/>
     <use x="324.560547" xlink:href="#DejaVuSans-114"/>
     <use x="365.642578" xlink:href="#DejaVuSans-101"/>
     <use x="427.166016" xlink:href="#DejaVuSans-100"/>
     <use x="490.642578" xlink:href="#DejaVuSans-32"/>
     <use x="522.429688" xlink:href="#DejaVuSans-83"/>
     <use x="585.90625" xlink:href="#DejaVuSans-105"/>
     <use x="613.689453" xlink:href="#DejaVuSans-103"/>
     <use x="677.166016" xlink:href="#DejaVuSans-110"/>
     <use x="740.544922" xlink:href="#DejaVuSans-97"/>
     <use x="801.824219" xlink:href="#DejaVuSans-108"/>
    </g>
   </g>
  </g>
 </g>
 <defs>
  <clipPath id="pf22bf140b8">
   <rect height="566.44" width="957.58" x="111.62" y="54"/>
  </clipPath>
 </defs>
</svg>
