<?xml version="1.0" encoding="utf-8" standalone="no"?>
<!DOCTYPE svg PUBLIC "-//W3C//DTD SVG 1.1//EN"
  "http://www.w3.org/Graphics/SVG/1.1/DTD/svg11.dtd">
<!-- Created with matplotlib (https://matplotlib.org/) -->
<svg height="720pt" version="1.1" viewBox="0 0 1080 720" width="1080pt" xmlns="http://www.w3.org/2000/svg" xmlns:xlink="http://www.w3.org/1999/xlink">
 <defs>
  <style type="text/css">
*{stroke-linecap:butt;stroke-linejoin:round;}
  </style>
 </defs>
 <g id="figure_1">
  <g id="patch_1">
   <path d="M 0 720 
L 1080 720 
L 1080 0 
L 0 0 
z
" style="fill:#121212;"/>
  </g>
  <g id="axes_1">
   <g id="patch_2">
    <path d="M 149.87 620.44 
L 1069.2 620.44 
L 1069.2 54 
L 149.87 54 
z
" style="fill:#121212;"/>
   </g>
   <g id="matplotlib.axis_1">
    <g id="xtick_1">
     <g id="line2d_1">
      <path clip-path="url(#p27e04d64fd)" d="M 191.657727 620.44 
L 191.657727 54 
" style="fill:none;stroke:#ffffff;stroke-linecap:square;stroke-opacity:0.2;stroke-width:0.6;"/>
     </g>
     <g id="line2d_2">
      <defs>
       <path d="M 0 0 
L 0 3.5 
" id="mbde96b48e8" style="stroke:#ffffff;stroke-width:0.8;"/>
      </defs>
      <g>
       <use style="fill:#ffffff;stroke:#ffffff;stroke-width:0.8;" x="191.657727" xlink:href="#mbde96b48e8" y="620.44"/>
      </g>
     </g>
     <g id="text_1">
      <!-- 0 -->
      <defs>
       <path d="M 31.78125 66.40625 
Q 24.171875 66.40625 20.328125 58.90625 
Q 16.5 51.421875 16.5 36.375 
Q 16.5 21.390625 20.328125 13.890625 
Q 24.171875 6.390625 31.78125 6.390625 
Q 39.453125 6.390625 43.28125 13.890625 
Q 47.125 21.390625 47.125 36.375 
Q 47.125 51.421875 43.28125 58.90625 
Q 39.453125 66.40625 31.78125 66.40625 
z
M 31.78125 74.21875 
Q 44.046875 74.21875 50.515625 64.515625 
Q 56.984375 54.828125 56.984375 36.375 
Q 56.984375 17.96875 50.515625 8.265625 
Q 44.046875 -1.421875 31.78125 -1.421875 
Q 19.53125 -1.421875 13.0625 8.265625 
Q 6.59375 17.96875 6.59375 36.375 
Q 6.59375 54.828125 13.0625 64.515625 
Q 19.53125 74.21875 31.78125 74.21875 
z
" id="DejaVuSans-48"/>
      </defs>
      <g style="fill:#ffffff;" transform="translate(178.932727 657.83375)scale(0.4 -0.4)">
       <use xlink:href="#DejaVuSans-48"/>
      </g>
     </g>
    </g>
    <g id="xtick_2">
     <g id="line2d_3">
      <path clip-path="url(#p27e04d64fd)" d="M 358.808636 620.44 
L 358.808636 54 
" style="fill:none;stroke:#ffffff;stroke-linecap:square;stroke-opacity:0.2;stroke-width:0.6;"/>
     </g>
     <g id="line2d_4">
      <g>
       <use style="fill:#ffffff;stroke:#ffffff;stroke-width:0.8;" x="358.808636" xlink:href="#mbde96b48e8" y="620.44"/>
      </g>
     </g>
     <g id="text_2">
      <!-- 2 -->
      <defs>
       <path d="M 19.1875 8.296875 
L 53.609375 8.296875 
L 53.609375 0 
L 7.328125 0 
L 7.328125 8.296875 
Q 12.9375 14.109375 22.625 23.890625 
Q 32.328125 33.6875 34.8125 36.53125 
Q 39.546875 41.84375 41.421875 45.53125 
Q 43.3125 49.21875 43.3125 52.78125 
Q 43.3125 58.59375 39.234375 62.25 
Q 35.15625 65.921875 28.609375 65.921875 
Q 23.96875 65.921875 18.8125 64.3125 
Q 13.671875 62.703125 7.8125 59.421875 
L 7.8125 69.390625 
Q 13.765625 71.78125 18.9375 73 
Q 24.125 74.21875 28.421875 74.21875 
Q 39.75 74.21875 46.484375 68.546875 
Q 53.21875 62.890625 53.21875 53.421875 
Q 53.21875 48.921875 51.53125 44.890625 
Q 49.859375 40.875 45.40625 35.40625 
Q 44.1875 33.984375 37.640625 27.21875 
Q 31.109375 20.453125 19.1875 8.296875 
z
" id="DejaVuSans-50"/>
      </defs>
      <g style="fill:#ffffff;" transform="translate(346.083636 657.83375)scale(0.4 -0.4)">
       <use xlink:href="#DejaVuSans-50"/>
      </g>
     </g>
    </g>
    <g id="xtick_3">
     <g id="line2d_5">
      <path clip-path="url(#p27e04d64fd)" d="M 525.959545 620.44 
L 525.959545 54 
" style="fill:none;stroke:#ffffff;stroke-linecap:square;stroke-opacity:0.2;stroke-width:0.6;"/>
     </g>
     <g id="line2d_6">
      <g>
       <use style="fill:#ffffff;stroke:#ffffff;stroke-width:0.8;" x="525.959545" xlink:href="#mbde96b48e8" y="620.44"/>
      </g>
     </g>
     <g id="text_3">
      <!-- 4 -->
      <defs>
       <path d="M 37.796875 64.3125 
L 12.890625 25.390625 
L 37.796875 25.390625 
z
M 35.203125 72.90625 
L 47.609375 72.90625 
L 47.609375 25.390625 
L 58.015625 25.390625 
L 58.015625 17.1875 
L 47.609375 17.1875 
L 47.609375 0 
L 37.796875 0 
L 37.796875 17.1875 
L 4.890625 17.1875 
L 4.890625 26.703125 
z
" id="DejaVuSans-52"/>
      </defs>
      <g style="fill:#ffffff;" transform="translate(513.234545 657.83375)scale(0.4 -0.4)">
       <use xlink:href="#DejaVuSans-52"/>
      </g>
     </g>
    </g>
    <g id="xtick_4">
     <g id="line2d_7">
      <path clip-path="url(#p27e04d64fd)" d="M 693.110455 620.44 
L 693.110455 54 
" style="fill:none;stroke:#ffffff;stroke-linecap:square;stroke-opacity:0.2;stroke-width:0.6;"/>
     </g>
     <g id="line2d_8">
      <g>
       <use style="fill:#ffffff;stroke:#ffffff;stroke-width:0.8;" x="693.110455" xlink:href="#mbde96b48e8" y="620.44"/>
      </g>
     </g>
     <g id="text_4">
      <!-- 6 -->
      <defs>
       <path d="M 33.015625 40.375 
Q 26.375 40.375 22.484375 35.828125 
Q 18.609375 31.296875 18.609375 23.390625 
Q 18.609375 15.53125 22.484375 10.953125 
Q 26.375 6.390625 33.015625 6.390625 
Q 39.65625 6.390625 43.53125 10.953125 
Q 47.40625 15.53125 47.40625 23.390625 
Q 47.40625 31.296875 43.53125 35.828125 
Q 39.65625 40.375 33.015625 40.375 
z
M 52.59375 71.296875 
L 52.59375 62.3125 
Q 48.875 64.0625 45.09375 64.984375 
Q 41.3125 65.921875 37.59375 65.921875 
Q 27.828125 65.921875 22.671875 59.328125 
Q 17.53125 52.734375 16.796875 39.40625 
Q 19.671875 43.65625 24.015625 45.921875 
Q 28.375 48.1875 33.59375 48.1875 
Q 44.578125 48.1875 50.953125 41.515625 
Q 57.328125 34.859375 57.328125 23.390625 
Q 57.328125 12.15625 50.6875 5.359375 
Q 44.046875 -1.421875 33.015625 -1.421875 
Q 20.359375 -1.421875 13.671875 8.265625 
Q 6.984375 17.96875 6.984375 36.375 
Q 6.984375 53.65625 15.1875 63.9375 
Q 23.390625 74.21875 37.203125 74.21875 
Q 40.921875 74.21875 44.703125 73.484375 
Q 48.484375 72.75 52.59375 71.296875 
z
" id="DejaVuSans-54"/>
      </defs>
      <g style="fill:#ffffff;" transform="translate(680.385455 657.83375)scale(0.4 -0.4)">
       <use xlink:href="#DejaVuSans-54"/>
      </g>
     </g>
    </g>
    <g id="xtick_5">
     <g id="line2d_9">
      <path clip-path="url(#p27e04d64fd)" d="M 860.261364 620.44 
L 860.261364 54 
" style="fill:none;stroke:#ffffff;stroke-linecap:square;stroke-opacity:0.2;stroke-width:0.6;"/>
     </g>
     <g id="line2d_10">
      <g>
       <use style="fill:#ffffff;stroke:#ffffff;stroke-width:0.8;" x="860.261364" xlink:href="#mbde96b48e8" y="620.44"/>
      </g>
     </g>
     <g id="text_5">
      <!-- 8 -->
      <defs>
       <path d="M 31.78125 34.625 
Q 24.75 34.625 20.71875 30.859375 
Q 16.703125 27.09375 16.703125 20.515625 
Q 16.703125 13.921875 20.71875 10.15625 
Q 24.75 6.390625 31.78125 6.390625 
Q 38.8125 6.390625 42.859375 10.171875 
Q 46.921875 13.96875 46.921875 20.515625 
Q 46.921875 27.09375 42.890625 30.859375 
Q 38.875 34.625 31.78125 34.625 
z
M 21.921875 38.8125 
Q 15.578125 40.375 12.03125 44.71875 
Q 8.5 49.078125 8.5 55.328125 
Q 8.5 64.0625 14.71875 69.140625 
Q 20.953125 74.21875 31.78125 74.21875 
Q 42.671875 74.21875 48.875 69.140625 
Q 55.078125 64.0625 55.078125 55.328125 
Q 55.078125 49.078125 51.53125 44.71875 
Q 48 40.375 41.703125 38.8125 
Q 48.828125 37.15625 52.796875 32.3125 
Q 56.78125 27.484375 56.78125 20.515625 
Q 56.78125 9.90625 50.3125 4.234375 
Q 43.84375 -1.421875 31.78125 -1.421875 
Q 19.734375 -1.421875 13.25 4.234375 
Q 6.78125 9.90625 6.78125 20.515625 
Q 6.78125 27.484375 10.78125 32.3125 
Q 14.796875 37.15625 21.921875 38.8125 
z
M 18.3125 54.390625 
Q 18.3125 48.734375 21.84375 45.5625 
Q 25.390625 42.390625 31.78125 42.390625 
Q 38.140625 42.390625 41.71875 45.5625 
Q 45.3125 48.734375 45.3125 54.390625 
Q 45.3125 60.0625 41.71875 63.234375 
Q 38.140625 66.40625 31.78125 66.40625 
Q 25.390625 66.40625 21.84375 63.234375 
Q 18.3125 60.0625 18.3125 54.390625 
z
" id="DejaVuSans-56"/>
      </defs>
      <g style="fill:#ffffff;" transform="translate(847.536364 657.83375)scale(0.4 -0.4)">
       <use xlink:href="#DejaVuSans-56"/>
      </g>
     </g>
    </g>
    <g id="xtick_6">
     <g id="line2d_11">
      <path clip-path="url(#p27e04d64fd)" d="M 1027.412273 620.44 
L 1027.412273 54 
" style="fill:none;stroke:#ffffff;stroke-linecap:square;stroke-opacity:0.2;stroke-width:0.6;"/>
     </g>
     <g id="line2d_12">
      <g>
       <use style="fill:#ffffff;stroke:#ffffff;stroke-width:0.8;" x="1027.412273" xlink:href="#mbde96b48e8" y="620.44"/>
      </g>
     </g>
     <g id="text_6">
      <!-- 10 -->
      <defs>
       <path d="M 12.40625 8.296875 
L 28.515625 8.296875 
L 28.515625 63.921875 
L 10.984375 60.40625 
L 10.984375 69.390625 
L 28.421875 72.90625 
L 38.28125 72.90625 
L 38.28125 8.296875 
L 54.390625 8.296875 
L 54.390625 0 
L 12.40625 0 
z
" id="DejaVuSans-49"/>
      </defs>
      <g style="fill:#ffffff;" transform="translate(1001.962273 657.83375)scale(0.4 -0.4)">
       <use xlink:href="#DejaVuSans-49"/>
       <use x="63.623047" xlink:href="#DejaVuSans-48"/>
      </g>
     </g>
    </g>
    <g id="text_7">
     <!-- Time -->
     <defs>
      <path d="M -0.296875 72.90625 
L 61.375 72.90625 
L 61.375 64.59375 
L 35.5 64.59375 
L 35.5 0 
L 25.59375 0 
L 25.59375 64.59375 
L -0.296875 64.59375 
z
" id="DejaVuSans-84"/>
      <path d="M 9.421875 54.6875 
L 18.40625 54.6875 
L 18.40625 0 
L 9.421875 0 
z
M 9.421875 75.984375 
L 18.40625 75.984375 
L 18.40625 64.59375 
L 9.421875 64.59375 
z
" id="DejaVuSans-105"/>
      <path d="M 52 44.1875 
Q 55.375 50.25 60.0625 53.125 
Q 64.75 56 71.09375 56 
Q 79.640625 56 84.28125 50.015625 
Q 88.921875 44.046875 88.921875 33.015625 
L 88.921875 0 
L 79.890625 0 
L 79.890625 32.71875 
Q 79.890625 40.578125 77.09375 44.375 
Q 74.3125 48.1875 68.609375 48.1875 
Q 61.625 48.1875 57.5625 43.546875 
Q 53.515625 38.921875 53.515625 30.90625 
L 53.515625 0 
L 44.484375 0 
L 44.484375 32.71875 
Q 44.484375 40.625 41.703125 44.40625 
Q 38.921875 48.1875 33.109375 48.1875 
Q 26.21875 48.1875 22.15625 43.53125 
Q 18.109375 38.875 18.109375 30.90625 
L 18.109375 0 
L 9.078125 0 
L 9.078125 54.6875 
L 18.109375 54.6875 
L 18.109375 46.1875 
Q 21.1875 51.21875 25.484375 53.609375 
Q 29.78125 56 35.6875 56 
Q 41.65625 56 45.828125 52.96875 
Q 50 49.953125 52 44.1875 
z
" id="DejaVuSans-109"/>
      <path d="M 56.203125 29.59375 
L 56.203125 25.203125 
L 14.890625 25.203125 
Q 15.484375 15.921875 20.484375 11.0625 
Q 25.484375 6.203125 34.421875 6.203125 
Q 39.59375 6.203125 44.453125 7.46875 
Q 49.3125 8.734375 54.109375 11.28125 
L 54.109375 2.78125 
Q 49.265625 0.734375 44.1875 -0.34375 
Q 39.109375 -1.421875 33.890625 -1.421875 
Q 20.796875 -1.421875 13.15625 6.1875 
Q 5.515625 13.8125 5.515625 26.8125 
Q 5.515625 40.234375 12.765625 48.109375 
Q 20.015625 56 32.328125 56 
Q 43.359375 56 49.78125 48.890625 
Q 56.203125 41.796875 56.203125 29.59375 
z
M 47.21875 32.234375 
Q 47.125 39.59375 43.09375 43.984375 
Q 39.0625 48.390625 32.421875 48.390625 
Q 24.90625 48.390625 20.390625 44.140625 
Q 15.875 39.890625 15.1875 32.171875 
z
" id="DejaVuSans-101"/>
     </defs>
     <g style="fill:#ffffff;" transform="translate(559.985 700.54625)scale(0.4 -0.4)">
      <use xlink:href="#DejaVuSans-84"/>
      <use x="61.037109" xlink:href="#DejaVuSans-105"/>
      <use x="88.820312" xlink:href="#DejaVuSans-109"/>
      <use x="186.232422" xlink:href="#DejaVuSans-101"/>
     </g>
    </g>
   </g>
   <g id="matplotlib.axis_2">
    <g id="ytick_1">
     <g id="line2d_13">
      <path clip-path="url(#p27e04d64fd)" d="M 149.87 582.213518 
L 1069.2 582.213518 
" style="fill:none;stroke:#ffffff;stroke-linecap:square;stroke-opacity:0.2;stroke-width:0.6;"/>
     </g>
     <g id="line2d_14">
      <defs>
       <path d="M 0 0 
L -3.5 0 
" id="md5ce7b780c" style="stroke:#ffffff;stroke-width:0.8;"/>
      </defs>
      <g>
       <use style="fill:#ffffff;stroke:#ffffff;stroke-width:0.8;" x="149.87" xlink:href="#md5ce7b780c" y="582.213518"/>
      </g>
     </g>
     <g id="text_8">
      <!-- 0 -->
      <g style="fill:#ffffff;" transform="translate(117.42 597.410393)scale(0.4 -0.4)">
       <use xlink:href="#DejaVuSans-48"/>
      </g>
     </g>
    </g>
    <g id="ytick_2">
     <g id="line2d_15">
      <path clip-path="url(#p27e04d64fd)" d="M 149.87 488.621301 
L 1069.2 488.621301 
" style="fill:none;stroke:#ffffff;stroke-linecap:square;stroke-opacity:0.2;stroke-width:0.6;"/>
     </g>
     <g id="line2d_16">
      <g>
       <use style="fill:#ffffff;stroke:#ffffff;stroke-width:0.8;" x="149.87" xlink:href="#md5ce7b780c" y="488.621301"/>
      </g>
     </g>
     <g id="text_9">
      <!-- 2 -->
      <g style="fill:#ffffff;" transform="translate(117.42 503.818176)scale(0.4 -0.4)">
       <use xlink:href="#DejaVuSans-50"/>
      </g>
     </g>
    </g>
    <g id="ytick_3">
     <g id="line2d_17">
      <path clip-path="url(#p27e04d64fd)" d="M 149.87 395.029085 
L 1069.2 395.029085 
" style="fill:none;stroke:#ffffff;stroke-linecap:square;stroke-opacity:0.2;stroke-width:0.6;"/>
     </g>
     <g id="line2d_18">
      <g>
       <use style="fill:#ffffff;stroke:#ffffff;stroke-width:0.8;" x="149.87" xlink:href="#md5ce7b780c" y="395.029085"/>
      </g>
     </g>
     <g id="text_10">
      <!-- 4 -->
      <g style="fill:#ffffff;" transform="translate(117.42 410.22596)scale(0.4 -0.4)">
       <use xlink:href="#DejaVuSans-52"/>
      </g>
     </g>
    </g>
    <g id="ytick_4">
     <g id="line2d_19">
      <path clip-path="url(#p27e04d64fd)" d="M 149.87 301.436869 
L 1069.2 301.436869 
" style="fill:none;stroke:#ffffff;stroke-linecap:square;stroke-opacity:0.2;stroke-width:0.6;"/>
     </g>
     <g id="line2d_20">
      <g>
       <use style="fill:#ffffff;stroke:#ffffff;stroke-width:0.8;" x="149.87" xlink:href="#md5ce7b780c" y="301.436869"/>
      </g>
     </g>
     <g id="text_11">
      <!-- 6 -->
      <g style="fill:#ffffff;" transform="translate(117.42 316.633744)scale(0.4 -0.4)">
       <use xlink:href="#DejaVuSans-54"/>
      </g>
     </g>
    </g>
    <g id="ytick_5">
     <g id="line2d_21">
      <path clip-path="url(#p27e04d64fd)" d="M 149.87 207.844653 
L 1069.2 207.844653 
" style="fill:none;stroke:#ffffff;stroke-linecap:square;stroke-opacity:0.2;stroke-width:0.6;"/>
     </g>
     <g id="line2d_22">
      <g>
       <use style="fill:#ffffff;stroke:#ffffff;stroke-width:0.8;" x="149.87" xlink:href="#md5ce7b780c" y="207.844653"/>
      </g>
     </g>
     <g id="text_12">
      <!-- 8 -->
      <g style="fill:#ffffff;" transform="translate(117.42 223.041528)scale(0.4 -0.4)">
       <use xlink:href="#DejaVuSans-56"/>
      </g>
     </g>
    </g>
    <g id="ytick_6">
     <g id="line2d_23">
      <path clip-path="url(#p27e04d64fd)" d="M 149.87 114.252437 
L 1069.2 114.252437 
" style="fill:none;stroke:#ffffff;stroke-linecap:square;stroke-opacity:0.2;stroke-width:0.6;"/>
     </g>
     <g id="line2d_24">
      <g>
       <use style="fill:#ffffff;stroke:#ffffff;stroke-width:0.8;" x="149.87" xlink:href="#md5ce7b780c" y="114.252437"/>
      </g>
     </g>
     <g id="text_13">
      <!-- 10 -->
      <g style="fill:#ffffff;" transform="translate(91.97 129.449312)scale(0.4 -0.4)">
       <use xlink:href="#DejaVuSans-49"/>
       <use x="63.623047" xlink:href="#DejaVuSans-48"/>
      </g>
     </g>
    </g>
    <g id="text_14">
     <!-- Amplitude -->
     <defs>
      <path d="M 34.1875 63.1875 
L 20.796875 26.90625 
L 47.609375 26.90625 
z
M 28.609375 72.90625 
L 39.796875 72.90625 
L 67.578125 0 
L 57.328125 0 
L 50.6875 18.703125 
L 17.828125 18.703125 
L 11.1875 0 
L 0.78125 0 
z
" id="DejaVuSans-65"/>
      <path d="M 18.109375 8.203125 
L 18.109375 -20.796875 
L 9.078125 -20.796875 
L 9.078125 54.6875 
L 18.109375 54.6875 
L 18.109375 46.390625 
Q 20.953125 51.265625 25.265625 53.625 
Q 29.59375 56 35.59375 56 
Q 45.5625 56 51.78125 48.09375 
Q 58.015625 40.1875 58.015625 27.296875 
Q 58.015625 14.40625 51.78125 6.484375 
Q 45.5625 -1.421875 35.59375 -1.421875 
Q 29.59375 -1.421875 25.265625 0.953125 
Q 20.953125 3.328125 18.109375 8.203125 
z
M 48.6875 27.296875 
Q 48.6875 37.203125 44.609375 42.84375 
Q 40.53125 48.484375 33.40625 48.484375 
Q 26.265625 48.484375 22.1875 42.84375 
Q 18.109375 37.203125 18.109375 27.296875 
Q 18.109375 17.390625 22.1875 11.75 
Q 26.265625 6.109375 33.40625 6.109375 
Q 40.53125 6.109375 44.609375 11.75 
Q 48.6875 17.390625 48.6875 27.296875 
z
" id="DejaVuSans-112"/>
      <path d="M 9.421875 75.984375 
L 18.40625 75.984375 
L 18.40625 0 
L 9.421875 0 
z
" id="DejaVuSans-108"/>
      <path d="M 18.3125 70.21875 
L 18.3125 54.6875 
L 36.8125 54.6875 
L 36.8125 47.703125 
L 18.3125 47.703125 
L 18.3125 18.015625 
Q 18.3125 11.328125 20.140625 9.421875 
Q 21.96875 7.515625 27.59375 7.515625 
L 36.8125 7.515625 
L 36.8125 0 
L 27.59375 0 
Q 17.1875 0 13.234375 3.875 
Q 9.28125 7.765625 9.28125 18.015625 
L 9.28125 47.703125 
L 2.6875 47.703125 
L 2.6875 54.6875 
L 9.28125 54.6875 
L 9.28125 70.21875 
z
" id="DejaVuSans-116"/>
      <path d="M 8.5 21.578125 
L 8.5 54.6875 
L 17.484375 54.6875 
L 17.484375 21.921875 
Q 17.484375 14.15625 20.5 10.265625 
Q 23.53125 6.390625 29.59375 6.390625 
Q 36.859375 6.390625 41.078125 11.03125 
Q 45.3125 15.671875 45.3125 23.6875 
L 45.3125 54.6875 
L 54.296875 54.6875 
L 54.296875 0 
L 45.3125 0 
L 45.3125 8.40625 
Q 42.046875 3.421875 37.71875 1 
Q 33.40625 -1.421875 27.6875 -1.421875 
Q 18.265625 -1.421875 13.375 4.4375 
Q 8.5 10.296875 8.5 21.578125 
z
M 31.109375 56 
z
" id="DejaVuSans-117"/>
      <path d="M 45.40625 46.390625 
L 45.40625 75.984375 
L 54.390625 75.984375 
L 54.390625 0 
L 45.40625 0 
L 45.40625 8.203125 
Q 42.578125 3.328125 38.25 0.953125 
Q 33.9375 -1.421875 27.875 -1.421875 
Q 17.96875 -1.421875 11.734375 6.484375 
Q 5.515625 14.40625 5.515625 27.296875 
Q 5.515625 40.1875 11.734375 48.09375 
Q 17.96875 56 27.875 56 
Q 33.9375 56 38.25 53.625 
Q 42.578125 51.265625 45.40625 46.390625 
z
M 14.796875 27.296875 
Q 14.796875 17.390625 18.875 11.75 
Q 22.953125 6.109375 30.078125 6.109375 
Q 37.203125 6.109375 41.296875 11.75 
Q 45.40625 17.390625 45.40625 27.296875 
Q 45.40625 37.203125 41.296875 42.84375 
Q 37.203125 48.484375 30.078125 48.484375 
Q 22.953125 48.484375 18.875 42.84375 
Q 14.796875 37.203125 14.796875 27.296875 
z
" id="DejaVuSans-100"/>
     </defs>
     <g style="fill:#ffffff;" transform="translate(79.65125 439.710625)rotate(-90)scale(0.4 -0.4)">
      <use xlink:href="#DejaVuSans-65"/>
      <use x="68.408203" xlink:href="#DejaVuSans-109"/>
      <use x="165.820312" xlink:href="#DejaVuSans-112"/>
      <use x="229.296875" xlink:href="#DejaVuSans-108"/>
      <use x="257.080078" xlink:href="#DejaVuSans-105"/>
      <use x="284.863281" xlink:href="#DejaVuSans-116"/>
      <use x="324.072266" xlink:href="#DejaVuSans-117"/>
      <use x="387.451172" xlink:href="#DejaVuSans-100"/>
      <use x="450.927734" xlink:href="#DejaVuSans-101"/>
     </g>
    </g>
   </g>
   <g id="line2d_25">
    <path clip-path="url(#p27e04d64fd)" d="M 191.657727 545.440539 
L 192.494318 547.160824 
L 193.33091 550.667884 
L 194.167501 528.279984 
L 195.004092 540.224701 
L 195.840683 546.018146 
L 196.677274 558.954235 
L 197.513865 531.144074 
L 198.350456 527.447519 
L 199.187048 549.295054 
L 200.023639 551.013749 
L 200.86023 562.617876 
L 201.696821 546.940078 
L 202.533412 547.407918 
L 203.370003 540.485074 
L 204.206594 546.736024 
L 205.043185 552.007427 
L 205.879777 543.0291 
L 206.716368 545.051617 
L 207.552959 555.518019 
L 208.38955 558.652125 
L 209.226141 546.888556 
L 210.062732 542.690526 
L 210.899323 554.396339 
L 211.735915 563.933172 
L 212.572506 562.774107 
L 213.409097 571.503187 
L 214.245688 556.922278 
L 215.082279 561.830922 
L 215.91887 558.594686 
L 216.755461 570.64109 
L 217.592053 571.343434 
L 218.428644 548.771354 
L 219.265235 572.79524 
L 220.101826 563.783946 
L 220.938417 567.425265 
L 221.775008 568.490275 
L 222.611599 573.959584 
L 223.44819 582.522426 
L 224.284782 573.434344 
L 225.121373 570.378214 
L 225.957964 566.222962 
L 226.794555 581.812335 
L 227.631146 567.177874 
L 228.467737 579.98612 
L 229.304328 585.67159 
L 230.14092 569.19487 
L 230.977511 585.157886 
L 231.814102 587.033375 
L 232.650693 591.69451 
L 233.487284 591.211215 
L 234.323875 581.474954 
L 235.160466 583.954526 
L 235.997058 578.095428 
L 236.833649 594.692727 
L 237.67024 583.010124 
L 238.506831 588.162738 
L 239.343422 591.647287 
L 240.180013 571.827081 
L 241.016604 594.228518 
L 241.853195 594.650512 
L 242.689787 590.11783 
L 243.526378 578.771294 
L 244.362969 583.24348 
L 245.19956 573.772936 
L 246.036151 580.403484 
L 246.872742 584.690815 
L 247.709333 584.292382 
L 248.545925 571.473041 
L 249.382516 580.764893 
L 250.219107 577.265935 
L 251.055698 564.831963 
L 251.892289 575.849794 
L 252.72888 576.242876 
L 253.565471 567.696516 
L 254.402063 563.008076 
L 255.238654 586.891795 
L 256.075245 559.148901 
L 256.911836 564.477192 
L 257.748427 563.275465 
L 258.585018 570.419487 
L 259.421609 562.926795 
L 260.2582 564.915097 
L 261.094792 564.97709 
L 261.931383 572.196618 
L 262.767974 545.004708 
L 263.604565 534.686664 
L 264.441156 543.872767 
L 265.277747 525.642023 
L 266.114338 541.58448 
L 266.95093 538.539524 
L 267.787521 547.369161 
L 268.624112 535.320622 
L 269.460703 532.506356 
L 270.297294 533.42158 
L 271.133885 521.662233 
L 271.970476 523.2597 
L 272.807068 524.386441 
L 273.643659 520.636912 
L 274.48025 519.596862 
L 275.316841 503.173295 
L 276.153432 526.865859 
L 276.990023 509.57274 
L 277.826614 521.163949 
L 278.663205 509.036177 
L 279.499797 502.598897 
L 280.336388 491.502873 
L 281.172979 502.760576 
L 282.00957 495.9615 
L 282.846161 505.560345 
L 283.682752 508.162626 
L 284.519343 511.532293 
L 285.355935 495.742595 
L 286.192526 499.480588 
L 287.029117 492.102445 
L 287.865708 503.690818 
L 288.702299 481.330129 
L 289.53889 509.432826 
L 290.375481 482.65536 
L 291.212073 506.078001 
L 292.048664 483.892521 
L 292.885255 479.911835 
L 293.721846 480.750436 
L 294.558437 475.865579 
L 295.395028 476.156284 
L 296.231619 472.823293 
L 297.06821 476.107647 
L 298.741393 467.998732 
L 299.577984 479.149559 
L 300.414575 471.341694 
L 301.251166 464.977259 
L 302.087757 481.38969 
L 302.924348 474.064681 
L 303.76094 490.269417 
L 304.597531 477.65127 
L 305.434122 476.039338 
L 306.270713 467.298711 
L 307.107304 486.7759 
L 307.943895 472.578977 
L 308.780486 482.771083 
L 309.617078 469.906699 
L 310.453669 488.755075 
L 311.29026 488.933531 
L 312.126851 488.134648 
L 312.963442 467.951503 
L 313.800033 482.96631 
L 314.636624 487.472178 
L 315.473215 487.003182 
L 316.309807 490.767096 
L 317.146398 487.283023 
L 317.982989 476.583879 
L 318.81958 481.092485 
L 319.656171 483.547951 
L 320.492762 493.901226 
L 321.329353 486.619951 
L 322.165945 504.720603 
L 323.002536 487.55763 
L 323.839127 496.590191 
L 324.675718 491.543224 
L 325.512309 498.071994 
L 326.3489 507.200635 
L 327.185491 521.313303 
L 328.022083 526.306768 
L 328.858674 503.25369 
L 329.695265 511.231176 
L 330.531856 532.139555 
L 331.368447 501.214777 
L 332.205038 512.791075 
L 333.041629 514.102379 
L 333.87822 499.348016 
L 334.714812 514.484209 
L 335.551403 517.103176 
L 336.387994 534.949423 
L 337.224585 507.867251 
L 338.061176 511.701957 
L 338.897767 517.605766 
L 339.734358 513.403011 
L 340.57095 507.16554 
L 341.407541 524.105343 
L 342.244132 533.110195 
L 343.080723 535.363141 
L 343.917314 516.529528 
L 344.753905 525.736202 
L 345.590496 513.2923 
L 346.427088 520.761272 
L 347.263679 518.460699 
L 348.10027 537.827517 
L 348.936861 521.353677 
L 349.773452 521.019089 
L 350.610043 528.677078 
L 351.446634 529.420966 
L 352.283225 500.719319 
L 353.119817 524.738586 
L 353.956408 528.219708 
L 354.792999 517.309204 
L 355.62959 516.181628 
L 356.466181 530.421597 
L 357.302772 511.819086 
L 358.139363 514.337989 
L 358.975955 521.863415 
L 359.812546 497.508747 
L 360.649137 505.327148 
L 361.485728 517.090147 
L 362.322319 502.666984 
L 363.15891 490.395674 
L 363.995501 498.787908 
L 364.832093 488.849065 
L 365.668684 498.934403 
L 366.505275 471.848133 
L 367.341866 496.676577 
L 368.178457 490.48776 
L 369.015048 482.671429 
L 369.851639 485.709459 
L 370.688231 484.763281 
L 372.361413 462.280787 
L 373.198004 469.708083 
L 374.034595 461.12977 
L 374.871186 472.391412 
L 375.707777 441.641539 
L 376.544368 479.195503 
L 377.38096 453.833444 
L 378.217551 478.046736 
L 379.054142 454.562884 
L 379.890733 449.890143 
L 380.727324 452.443566 
L 381.563915 452.068782 
L 382.400506 461.231684 
L 383.237098 458.480438 
L 384.073689 462.81827 
L 384.91028 446.457883 
L 385.746871 458.351816 
L 386.583462 439.472483 
L 387.420053 450.414645 
L 388.256644 451.231581 
L 389.093236 437.221758 
L 389.929827 438.863797 
L 390.766418 446.863571 
L 391.603009 453.077791 
L 392.4396 435.33507 
L 393.276191 435.431664 
L 394.112782 422.565067 
L 394.949373 431.957808 
L 395.785965 427.809623 
L 396.622556 416.840411 
L 397.459147 420.105095 
L 398.295738 425.583382 
L 399.132329 407.973926 
L 399.96892 410.048277 
L 400.805511 405.318761 
L 401.642103 423.187939 
L 402.478694 411.098896 
L 403.315285 415.86658 
L 404.151876 413.361994 
L 404.988467 407.760099 
L 405.825058 421.315245 
L 406.661649 414.623604 
L 407.498241 418.975331 
L 408.334832 406.550935 
L 410.008014 427.5247 
L 410.844605 446.980084 
L 411.681196 427.1312 
L 412.517787 420.412064 
L 413.354378 409.801345 
L 414.19097 424.571225 
L 415.027561 418.027612 
L 415.864152 433.757003 
L 416.700743 430.927879 
L 417.537334 409.690905 
L 418.373925 445.267726 
L 419.210516 424.756695 
L 420.047108 421.010185 
L 420.883699 437.04765 
L 421.72029 439.605212 
L 422.556881 434.8485 
L 423.393472 436.128037 
L 424.230063 448.33892 
L 425.066654 447.78114 
L 425.903246 442.172883 
L 426.739837 432.568079 
L 427.576428 443.238041 
L 428.413019 451.80997 
L 429.24961 451.813674 
L 430.086201 451.346242 
L 430.922792 452.360405 
L 431.759383 466.074332 
L 432.595975 441.051805 
L 433.432566 464.126783 
L 434.269157 463.190408 
L 435.105748 476.208194 
L 435.942339 455.009374 
L 436.77893 462.048664 
L 437.615521 463.712878 
L 438.452113 467.134065 
L 439.288704 467.48119 
L 440.125295 468.009337 
L 440.961886 473.899796 
L 441.798477 461.281733 
L 442.635068 472.77214 
L 443.471659 480.287176 
L 444.308251 464.99489 
L 445.144842 462.344665 
L 445.981433 462.08531 
L 446.818024 460.859439 
L 447.654615 484.723232 
L 448.491206 465.696415 
L 449.327797 471.42254 
L 450.164388 485.910942 
L 451.00098 485.909611 
L 451.837571 459.932418 
L 452.674162 493.215394 
L 453.510753 462.034707 
L 454.347344 474.841136 
L 455.183935 483.139541 
L 456.020526 484.303375 
L 456.857118 439.324596 
L 457.693709 493.45042 
L 458.5303 482.780826 
L 459.366891 464.068204 
L 460.203482 469.954657 
L 461.040073 465.308484 
L 461.876664 467.510645 
L 462.713256 468.423026 
L 463.549847 450.340643 
L 464.386438 465.328638 
L 465.223029 462.609561 
L 466.05962 459.203054 
L 466.896211 461.739057 
L 467.732802 452.923191 
L 468.569393 445.350451 
L 469.405985 451.291715 
L 470.242576 451.4282 
L 471.079167 446.973829 
L 471.915758 443.803683 
L 472.752349 443.116465 
L 473.58894 448.083568 
L 474.425531 440.247072 
L 475.262123 442.446114 
L 476.098714 442.854276 
L 476.935305 448.144222 
L 477.771896 430.071244 
L 478.608487 429.570496 
L 479.445078 412.943586 
L 480.281669 412.609756 
L 481.118261 418.2491 
L 481.954852 429.529311 
L 482.791443 410.531736 
L 483.628034 417.814476 
L 484.464625 417.142117 
L 485.301216 412.532524 
L 486.137807 405.139143 
L 486.974398 417.705238 
L 487.81099 420.859658 
L 488.647581 400.855937 
L 489.484172 403.590774 
L 490.320763 390.915483 
L 491.993945 381.917656 
L 492.830536 372.416141 
L 493.667128 388.672032 
L 494.503719 388.174494 
L 495.34031 393.436594 
L 496.176901 392.813516 
L 497.013492 370.455476 
L 497.850083 382.215543 
L 498.686674 385.927605 
L 499.523266 364.741355 
L 500.359857 377.224948 
L 501.196448 396.105995 
L 502.033039 394.017949 
L 502.86963 369.611338 
L 503.706221 385.683654 
L 504.542812 369.503974 
L 505.379403 358.539932 
L 506.215995 364.228503 
L 507.052586 381.170555 
L 507.889177 372.7217 
L 508.725768 375.995473 
L 509.562359 364.191016 
L 510.39895 370.505082 
L 511.235541 379.941783 
L 512.072133 380.166611 
L 512.908724 368.641503 
L 513.745315 367.158789 
L 514.581906 383.764425 
L 515.418497 376.263604 
L 516.255088 382.41681 
L 517.091679 376.258263 
L 517.928271 372.346727 
L 518.764862 379.555255 
L 519.601453 375.550256 
L 520.438044 379.747782 
L 521.274635 390.214377 
L 522.111226 382.162865 
L 522.947817 390.940642 
L 524.621 372.796561 
L 525.457591 386.380508 
L 526.294182 373.600491 
L 527.130773 391.62952 
L 527.967364 375.652415 
L 528.803955 401.780872 
L 529.640546 390.075402 
L 530.477138 405.86648 
L 531.313729 380.406825 
L 532.15032 392.935063 
L 532.986911 390.805688 
L 533.823502 379.945551 
L 534.660093 405.597694 
L 535.496684 392.398878 
L 536.333276 394.907841 
L 537.169867 417.873686 
L 538.006458 409.943192 
L 538.843049 393.612809 
L 539.67964 409.575078 
L 540.516231 408.485789 
L 541.352822 428.503848 
L 542.189414 413.606712 
L 543.026005 415.363427 
L 543.862596 405.992091 
L 544.699187 422.230972 
L 545.535778 435.313478 
L 546.372369 419.011515 
L 547.20896 411.593437 
L 548.045551 409.300878 
L 548.882143 415.987122 
L 549.718734 426.704777 
L 550.555325 420.190646 
L 551.391916 431.602628 
L 552.228507 411.902532 
L 553.065098 432.310899 
L 553.901689 432.586932 
L 554.738281 412.74719 
L 555.574872 412.725821 
L 556.411463 421.965015 
L 557.248054 433.202535 
L 558.084645 420.562977 
L 558.921236 420.709296 
L 559.757827 428.382025 
L 560.594419 418.441639 
L 561.43101 420.062161 
L 562.267601 427.76867 
L 563.104192 425.759848 
L 563.940783 411.295262 
L 564.777374 410.271323 
L 565.613965 406.961485 
L 566.450556 413.450486 
L 567.287148 407.446773 
L 568.123739 405.691904 
L 568.96033 404.420474 
L 569.796921 406.430766 
L 570.633512 404.041755 
L 571.470103 406.566445 
L 572.306694 397.968754 
L 573.143286 401.927388 
L 573.979877 386.713462 
L 574.816468 394.649073 
L 575.653059 401.43307 
L 576.48965 388.727261 
L 577.326241 413.608181 
L 578.999424 379.255868 
L 579.836015 391.610639 
L 580.672606 374.217581 
L 581.509197 389.635789 
L 582.345788 371.020734 
L 583.182379 369.995168 
L 584.01897 371.751991 
L 584.855561 374.933682 
L 585.692153 368.482435 
L 586.528744 374.816722 
L 587.365335 367.155853 
L 588.201926 362.525306 
L 589.038517 362.345298 
L 589.875108 364.720096 
L 590.711699 350.97525 
L 591.548291 360.234474 
L 592.384882 348.604383 
L 593.221473 347.398374 
L 594.058064 351.551806 
L 594.894655 335.430021 
L 595.731246 339.13594 
L 596.567837 337.641176 
L 597.404429 345.088945 
L 598.24102 329.008689 
L 599.077611 340.848255 
L 599.914202 324.629835 
L 600.750793 335.88677 
L 601.587384 321.199871 
L 602.423975 324.997419 
L 603.260566 335.28442 
L 604.097158 331.680442 
L 604.933749 334.644278 
L 605.77034 327.976401 
L 606.606931 318.081479 
L 607.443522 318.364007 
L 608.280113 314.520059 
L 609.116704 319.573109 
L 609.953296 320.276616 
L 610.789887 325.295645 
L 611.626478 324.516716 
L 612.463069 320.414985 
L 613.29966 321.123851 
L 614.136251 337.042207 
L 614.972842 312.464244 
L 615.809434 319.224015 
L 616.646025 322.749292 
L 617.482616 316.231067 
L 618.319207 320.166426 
L 619.155798 313.489358 
L 619.992389 301.034708 
L 620.82898 311.92078 
L 621.665571 293.621152 
L 622.502163 317.9925 
L 623.338754 321.652442 
L 624.175345 313.410536 
L 625.011936 316.66594 
L 625.848527 329.42125 
L 626.685118 317.095714 
L 627.521709 349.323292 
L 628.358301 318.761425 
L 629.194892 337.913555 
L 630.031483 318.005541 
L 631.704665 347.064875 
L 632.541256 336.254685 
L 634.214439 356.128578 
L 635.05103 336.640957 
L 635.887621 323.82785 
L 636.724212 325.072481 
L 637.560803 355.004426 
L 638.397394 345.275292 
L 639.233985 349.986502 
L 640.070576 350.233705 
L 640.907168 335.855364 
L 641.743759 340.341366 
L 642.58035 350.674207 
L 643.416941 335.645205 
L 644.253532 348.138623 
L 645.090123 339.682488 
L 645.926714 343.248038 
L 646.763306 356.378279 
L 647.599897 360.382898 
L 648.436488 356.111822 
L 649.273079 346.729062 
L 650.10967 351.242056 
L 650.946261 365.578282 
L 651.782852 347.70158 
L 652.619444 367.920385 
L 653.456035 360.994503 
L 654.292626 361.447886 
L 655.129217 352.899337 
L 655.965808 355.593308 
L 656.802399 346.766836 
L 657.63899 366.368755 
L 658.475581 349.636091 
L 659.312173 351.939467 
L 660.148764 335.656015 
L 661.821946 371.091905 
L 662.658537 368.915568 
L 663.495128 351.665674 
L 664.331719 358.130792 
L 666.004902 354.317678 
L 666.841493 358.361427 
L 667.678084 366.233032 
L 668.514675 370.17998 
L 669.351266 359.385036 
L 670.187857 362.00034 
L 671.024449 354.32606 
L 671.86104 355.330015 
L 672.697631 358.890074 
L 673.534222 345.9041 
L 674.370813 343.24485 
L 675.207404 362.807374 
L 676.043995 344.767029 
L 676.880586 339.208588 
L 677.717178 347.605431 
L 678.553769 330.241893 
L 679.39036 339.070376 
L 680.226951 341.514804 
L 681.063542 335.388657 
L 681.900133 316.666015 
L 682.736724 349.415895 
L 683.573316 329.969384 
L 684.409907 313.94036 
L 685.246498 316.380375 
L 686.083089 322.31025 
L 686.91968 315.678611 
L 687.756271 342.143379 
L 688.592862 312.604656 
L 689.429454 291.499905 
L 690.266045 305.907118 
L 691.102636 296.391966 
L 691.939227 300.35962 
L 692.775818 291.078843 
L 693.612409 304.835767 
L 694.449 292.203614 
L 695.285592 302.875199 
L 696.122183 305.656628 
L 696.958774 289.14238 
L 697.795365 286.694641 
L 698.631956 301.319273 
L 699.468547 282.965961 
L 700.305138 287.263051 
L 701.141729 273.398737 
L 701.978321 255.866819 
L 702.814912 278.622166 
L 703.651503 274.990813 
L 704.488094 267.224035 
L 705.324685 256.162707 
L 706.161276 248.731529 
L 706.997867 277.425076 
L 707.834459 277.423191 
L 708.67105 259.51736 
L 709.507641 274.132911 
L 710.344232 253.653013 
L 711.180823 259.95477 
L 712.017414 244.748079 
L 712.854005 255.475402 
L 713.690597 254.217545 
L 714.527188 266.376498 
L 715.363779 248.783391 
L 716.20037 251.577568 
L 717.036961 247.921152 
L 717.873552 234.451266 
L 718.710143 257.783157 
L 719.546734 240.446656 
L 720.383326 250.997305 
L 721.219917 257.309382 
L 722.056508 240.665468 
L 722.893099 257.670464 
L 723.72969 243.314515 
L 724.566281 249.318102 
L 725.402872 257.437008 
L 726.239464 232.827798 
L 727.076055 244.763966 
L 727.912646 244.898753 
L 728.749237 232.588168 
L 729.585828 256.461304 
L 730.422419 245.083606 
L 731.25901 240.589622 
L 732.095602 254.390476 
L 732.932193 259.941715 
L 733.768784 253.885301 
L 734.605375 251.163419 
L 735.441966 261.250511 
L 736.278557 257.991406 
L 737.115148 267.763287 
L 737.951739 260.875303 
L 738.788331 269.36812 
L 739.624922 274.123931 
L 740.461513 271.784293 
L 741.298104 265.526542 
L 742.134695 279.364747 
L 742.971286 267.317742 
L 743.807877 275.87955 
L 744.644469 269.282051 
L 745.48106 264.104015 
L 746.317651 264.910275 
L 747.154242 282.435903 
L 747.990833 273.475641 
L 748.827424 274.144212 
L 749.664015 270.162804 
L 750.500607 285.733831 
L 751.337198 267.296942 
L 752.173789 262.067421 
L 753.01038 284.316635 
L 753.846971 279.538239 
L 754.683562 294.017534 
L 755.520153 282.648054 
L 756.356744 301.752269 
L 757.193336 297.616871 
L 758.029927 290.0833 
L 758.866518 299.932707 
L 759.703109 306.723099 
L 760.5397 272.22816 
L 761.376291 301.702681 
L 762.212882 298.856162 
L 763.049474 285.162307 
L 763.886065 290.779562 
L 764.722656 276.709626 
L 765.559247 313.231291 
L 766.395838 292.718147 
L 767.232429 280.986454 
L 768.06902 290.050431 
L 768.905612 288.936915 
L 769.742203 296.028653 
L 770.578794 296.313235 
L 771.415385 284.07048 
L 772.251976 279.03046 
L 773.088567 317.39005 
L 773.925158 273.533164 
L 774.761749 294.143585 
L 775.598341 288.423041 
L 776.434932 278.337221 
L 777.271523 292.733912 
L 778.108114 258.817139 
L 778.944705 280.651186 
L 779.781296 286.255618 
L 780.617887 267.054492 
L 781.454479 270.990257 
L 782.29107 254.111247 
L 783.127661 275.497215 
L 783.964252 264.159322 
L 784.800843 262.006575 
L 785.637434 269.459809 
L 786.474025 249.663532 
L 787.310617 254.674999 
L 788.147208 265.390756 
L 788.983799 240.645505 
L 789.82039 251.298054 
L 790.656981 256.891206 
L 791.493572 251.77538 
L 792.330163 254.685339 
L 794.003346 241.326471 
L 794.839937 239.382608 
L 795.676528 239.052479 
L 796.513119 223.38462 
L 797.34971 235.082165 
L 798.186301 223.305585 
L 799.022892 232.420171 
L 799.859484 228.274788 
L 800.696075 228.623458 
L 801.532666 210.844561 
L 802.369257 221.604256 
L 803.205848 213.266936 
L 804.042439 216.154453 
L 804.87903 219.562984 
L 806.552213 203.185934 
L 807.388804 211.570662 
L 808.225395 193.931973 
L 809.061986 185.580206 
L 809.898577 207.077355 
L 810.735168 188.211124 
L 811.571759 199.198692 
L 812.408351 193.733141 
L 813.244942 182.984036 
L 814.081533 203.721714 
L 814.918124 184.436429 
L 815.754715 201.583302 
L 816.591306 195.05971 
L 817.427897 176.42907 
L 818.264489 183.758094 
L 819.10108 177.432958 
L 819.937671 173.465138 
L 820.774262 175.983592 
L 821.610853 182.154415 
L 822.447444 189.360975 
L 823.284035 181.828941 
L 824.120627 178.600015 
L 824.957218 183.337671 
L 825.793809 191.513615 
L 827.466991 177.075446 
L 828.303582 180.711552 
L 829.976764 182.211843 
L 830.813356 194.082746 
L 831.649947 179.056595 
L 832.486538 186.724028 
L 833.323129 196.84764 
L 834.15972 203.442219 
L 834.996311 177.372901 
L 835.832902 194.092135 
L 836.669494 188.556281 
L 837.506085 198.443733 
L 838.342676 178.686876 
L 839.179267 194.142979 
L 840.015858 195.996282 
L 840.852449 191.986562 
L 841.68904 202.989 
L 842.525632 201.568203 
L 843.362223 209.997393 
L 844.198814 212.34118 
L 845.035405 199.563682 
L 845.871996 189.646953 
L 846.708587 194.802224 
L 847.545178 201.393115 
L 848.381769 216.514125 
L 849.218361 218.86644 
L 850.054952 219.609607 
L 850.891543 223.669272 
L 851.728134 214.475678 
L 852.564725 216.23078 
L 853.401316 211.87173 
L 854.237907 206.038333 
L 855.074499 225.008347 
L 855.91109 204.712342 
L 856.747681 221.881457 
L 857.584272 221.99792 
L 858.420863 213.97429 
L 859.257454 217.777324 
L 860.094045 211.772162 
L 860.930637 229.268083 
L 861.767228 212.107722 
L 862.603819 218.698382 
L 863.44041 236.777991 
L 864.277001 215.527689 
L 865.113592 242.232176 
L 865.950183 241.603886 
L 866.786775 233.959661 
L 867.623366 229.987969 
L 868.459957 247.07141 
L 869.296548 230.472667 
L 870.133139 223.329139 
L 870.96973 232.839735 
L 871.806321 231.698669 
L 872.642912 259.39527 
L 873.479504 235.727349 
L 874.316095 227.097374 
L 875.152686 230.785158 
L 876.825868 216.525832 
L 877.662459 229.714541 
L 878.49905 219.986572 
L 879.335642 228.855635 
L 880.172233 219.57493 
L 881.008824 215.321642 
L 881.845415 218.249897 
L 882.682006 216.069022 
L 884.355188 204.59059 
L 885.19178 213.566884 
L 886.028371 206.501186 
L 886.864962 210.072804 
L 887.701553 207.925097 
L 888.538144 220.881199 
L 889.374735 220.518114 
L 890.211326 189.056217 
L 891.047917 188.186276 
L 891.884509 198.93773 
L 892.7211 193.45283 
L 893.557691 196.469823 
L 894.394282 195.105954 
L 895.230873 182.564358 
L 896.067464 203.48764 
L 896.904055 194.319732 
L 897.740647 172.607926 
L 898.577238 168.340582 
L 899.413829 184.790624 
L 900.25042 173.674161 
L 901.087011 180.430953 
L 901.923602 170.911853 
L 902.760193 193.400276 
L 903.596785 162.739738 
L 904.433376 164.297196 
L 905.269967 170.471693 
L 906.106558 144.959767 
L 906.943149 160.973509 
L 907.77974 154.699691 
L 908.616331 138.787218 
L 909.452922 161.324168 
L 910.289514 150.689685 
L 911.126105 160.166871 
L 911.962696 129.87375 
L 912.799287 141.619074 
L 913.635878 148.121429 
L 914.472469 147.35166 
L 915.30906 153.763872 
L 916.145652 131.185289 
L 916.982243 130.605399 
L 917.818834 133.857399 
L 918.655425 130.824803 
L 919.492016 120.887521 
L 920.328607 125.078299 
L 921.165198 125.314245 
L 922.00179 137.923196 
L 922.838381 128.31167 
L 923.674972 132.873682 
L 924.511563 121.476147 
L 925.348154 129.545425 
L 926.184745 101.037628 
L 927.021336 125.697923 
L 927.857927 115.809343 
L 928.694519 123.298687 
L 929.53111 127.085711 
L 930.367701 147.371414 
L 931.204292 125.912987 
L 932.040883 137.591995 
L 932.877474 128.367932 
L 933.714065 132.350097 
L 934.550657 139.974478 
L 935.387248 126.366968 
L 936.223839 109.053724 
L 937.06043 142.638224 
L 937.897021 115.592957 
L 938.733612 126.274158 
L 939.570203 149.379648 
L 940.406795 132.187021 
L 941.243386 132.295261 
L 942.079977 156.193872 
L 942.916568 141.432761 
L 943.753159 135.191008 
L 944.58975 150.368251 
L 945.426341 144.466227 
L 946.262932 155.107103 
L 947.099524 145.721947 
L 947.936115 147.488715 
L 948.772706 147.470741 
L 949.609297 151.766644 
L 950.445888 159.043439 
L 951.282479 132.714367 
L 952.11907 151.799067 
L 952.955662 156.280771 
L 953.792253 171.39009 
L 954.628844 148.694268 
L 955.465435 152.597115 
L 956.302026 142.555477 
L 957.138617 159.338024 
L 957.975208 166.0952 
L 958.8118 163.000632 
L 959.648391 164.499005 
L 960.484982 159.417047 
L 961.321573 164.132445 
L 962.158164 176.424653 
L 962.994755 184.797739 
L 963.831346 187.379142 
L 964.667937 167.904989 
L 965.504529 166.710199 
L 966.34112 172.000448 
L 967.177711 161.447665 
L 968.014302 183.426091 
L 968.850893 185.496367 
L 969.687484 162.53915 
L 970.524075 190.94669 
L 971.360667 167.177555 
L 972.197258 189.510972 
L 973.033849 173.086906 
L 973.87044 184.158328 
L 974.707031 168.233575 
L 975.543622 181.84002 
L 976.380213 167.531636 
L 977.216805 187.04165 
L 978.053396 164.340538 
L 978.889987 169.741893 
L 979.726578 178.036776 
L 980.563169 185.069897 
L 981.39976 165.877766 
L 982.236351 176.836536 
L 983.072942 173.129356 
L 983.909534 180.884308 
L 984.746125 173.88074 
L 985.582716 165.611971 
L 986.419307 185.394859 
L 987.255898 163.160368 
L 988.092489 158.555802 
L 988.92908 180.000523 
L 989.765672 164.310782 
L 990.602263 156.584689 
L 991.438854 162.269659 
L 992.275445 158.892058 
L 993.112036 167.921516 
L 993.948627 162.955779 
L 994.785218 155.021454 
L 995.62181 165.440779 
L 996.458401 142.848413 
L 997.294992 133.938417 
L 998.131583 176.238743 
L 998.968174 129.908415 
L 999.804765 128.108482 
L 1000.641356 137.497809 
L 1001.477947 134.231234 
L 1002.314539 159.490864 
L 1003.15113 134.540779 
L 1003.987721 146.653819 
L 1004.824312 122.198865 
L 1005.660903 146.333218 
L 1006.497494 140.660541 
L 1007.334085 117.221911 
L 1008.170677 128.358297 
L 1009.007268 115.239425 
L 1009.843859 112.550252 
L 1010.68045 135.698476 
L 1011.517041 125.540046 
L 1012.353632 94.361833 
L 1013.190223 119.070515 
L 1014.026815 100.316616 
L 1014.863406 95.725175 
L 1015.699997 93.623912 
L 1016.536588 100.546383 
L 1017.373179 104.538672 
L 1018.20977 98.508077 
L 1019.046361 91.362218 
L 1019.882952 90.236964 
L 1020.719544 99.508111 
L 1021.556135 82.839533 
L 1022.392726 102.467663 
L 1023.229317 92.085179 
L 1024.065908 91.977062 
L 1024.902499 94.354201 
L 1025.73909 95.242719 
L 1026.575682 79.747273 
L 1027.412273 88.539349 
L 1027.412273 88.539349 
" style="fill:none;stroke:#00ffff;stroke-linecap:square;stroke-width:2.2;"/>
   </g>
   <g id="patch_3">
    <path d="M 149.87 620.44 
L 149.87 54 
" style="fill:none;stroke:#ffffff;stroke-linecap:square;stroke-linejoin:miter;stroke-width:0.8;"/>
   </g>
   <g id="patch_4">
    <path d="M 149.87 620.44 
L 1069.2 620.44 
" style="fill:none;stroke:#ffffff;stroke-linecap:square;stroke-linejoin:miter;stroke-width:0.8;"/>
   </g>
   <g id="text_15">
    <!-- Measured Signal -->
    <defs>
     <path d="M 9.8125 72.90625 
L 24.515625 72.90625 
L 43.109375 23.296875 
L 61.8125 72.90625 
L 76.515625 72.90625 
L 76.515625 0 
L 66.890625 0 
L 66.890625 64.015625 
L 48.09375 14.015625 
L 38.1875 14.015625 
L 19.390625 64.015625 
L 19.390625 0 
L 9.8125 0 
z
" id="DejaVuSans-77"/>
     <path d="M 34.28125 27.484375 
Q 23.390625 27.484375 19.1875 25 
Q 14.984375 22.515625 14.984375 16.5 
Q 14.984375 11.71875 18.140625 8.90625 
Q 21.296875 6.109375 26.703125 6.109375 
Q 34.1875 6.109375 38.703125 11.40625 
Q 43.21875 16.703125 43.21875 25.484375 
L 43.21875 27.484375 
z
M 52.203125 31.203125 
L 52.203125 0 
L 43.21875 0 
L 43.21875 8.296875 
Q 40.140625 3.328125 35.546875 0.953125 
Q 30.953125 -1.421875 24.3125 -1.421875 
Q 15.921875 -1.421875 10.953125 3.296875 
Q 6 8.015625 6 15.921875 
Q 6 25.140625 12.171875 29.828125 
Q 18.359375 34.515625 30.609375 34.515625 
L 43.21875 34.515625 
L 43.21875 35.40625 
Q 43.21875 41.609375 39.140625 45 
Q 35.0625 48.390625 27.6875 48.390625 
Q 23 48.390625 18.546875 47.265625 
Q 14.109375 46.140625 10.015625 43.890625 
L 10.015625 52.203125 
Q 14.9375 54.109375 19.578125 55.046875 
Q 24.21875 56 28.609375 56 
Q 40.484375 56 46.34375 49.84375 
Q 52.203125 43.703125 52.203125 31.203125 
z
" id="DejaVuSans-97"/>
     <path d="M 44.28125 53.078125 
L 44.28125 44.578125 
Q 40.484375 46.53125 36.375 47.5 
Q 32.28125 48.484375 27.875 48.484375 
Q 21.1875 48.484375 17.84375 46.4375 
Q 14.5 44.390625 14.5 40.28125 
Q 14.5 37.15625 16.890625 35.375 
Q 19.28125 33.59375 26.515625 31.984375 
L 29.59375 31.296875 
Q 39.15625 29.25 43.1875 25.515625 
Q 47.21875 21.78125 47.21875 15.09375 
Q 47.21875 7.46875 41.1875 3.015625 
Q 35.15625 -1.421875 24.609375 -1.421875 
Q 20.21875 -1.421875 15.453125 -0.5625 
Q 10.6875 0.296875 5.421875 2 
L 5.421875 11.28125 
Q 10.40625 8.6875 15.234375 7.390625 
Q 20.0625 6.109375 24.8125 6.109375 
Q 31.15625 6.109375 34.5625 8.28125 
Q 37.984375 10.453125 37.984375 14.40625 
Q 37.984375 18.0625 35.515625 20.015625 
Q 33.0625 21.96875 24.703125 23.78125 
L 21.578125 24.515625 
Q 13.234375 26.265625 9.515625 29.90625 
Q 5.8125 33.546875 5.8125 39.890625 
Q 5.8125 47.609375 11.28125 51.796875 
Q 16.75 56 26.8125 56 
Q 31.78125 56 36.171875 55.265625 
Q 40.578125 54.546875 44.28125 53.078125 
z
" id="DejaVuSans-115"/>
     <path d="M 41.109375 46.296875 
Q 39.59375 47.171875 37.8125 47.578125 
Q 36.03125 48 33.890625 48 
Q 26.265625 48 22.1875 43.046875 
Q 18.109375 38.09375 18.109375 28.8125 
L 18.109375 0 
L 9.078125 0 
L 9.078125 54.6875 
L 18.109375 54.6875 
L 18.109375 46.1875 
Q 20.953125 51.171875 25.484375 53.578125 
Q 30.03125 56 36.53125 56 
Q 37.453125 56 38.578125 55.875 
Q 39.703125 55.765625 41.0625 55.515625 
z
" id="DejaVuSans-114"/>
     <path id="DejaVuSans-32"/>
     <path d="M 53.515625 70.515625 
L 53.515625 60.890625 
Q 47.90625 63.578125 42.921875 64.890625 
Q 37.9375 66.21875 33.296875 66.21875 
Q 25.25 66.21875 20.875 63.09375 
Q 16.5 59.96875 16.5 54.203125 
Q 16.5 49.359375 19.40625 46.890625 
Q 22.3125 44.4375 30.421875 42.921875 
L 36.375 41.703125 
Q 47.40625 39.59375 52.65625 34.296875 
Q 57.90625 29 57.90625 20.125 
Q 57.90625 9.515625 50.796875 4.046875 
Q 43.703125 -1.421875 29.984375 -1.421875 
Q 24.8125 -1.421875 18.96875 -0.25 
Q 13.140625 0.921875 6.890625 3.21875 
L 6.890625 13.375 
Q 12.890625 10.015625 18.65625 8.296875 
Q 24.421875 6.59375 29.984375 6.59375 
Q 38.421875 6.59375 43.015625 9.90625 
Q 47.609375 13.234375 47.609375 19.390625 
Q 47.609375 24.75 44.3125 27.78125 
Q 41.015625 30.8125 33.5 32.328125 
L 27.484375 33.5 
Q 16.453125 35.6875 11.515625 40.375 
Q 6.59375 45.0625 6.59375 53.421875 
Q 6.59375 63.09375 13.40625 68.65625 
Q 20.21875 74.21875 32.171875 74.21875 
Q 37.3125 74.21875 42.625 73.28125 
Q 47.953125 72.359375 53.515625 70.515625 
z
" id="DejaVuSans-83"/>
     <path d="M 45.40625 27.984375 
Q 45.40625 37.75 41.375 43.109375 
Q 37.359375 48.484375 30.078125 48.484375 
Q 22.859375 48.484375 18.828125 43.109375 
Q 14.796875 37.75 14.796875 27.984375 
Q 14.796875 18.265625 18.828125 12.890625 
Q 22.859375 7.515625 30.078125 7.515625 
Q 37.359375 7.515625 41.375 12.890625 
Q 45.40625 18.265625 45.40625 27.984375 
z
M 54.390625 6.78125 
Q 54.390625 -7.171875 48.1875 -13.984375 
Q 42 -20.796875 29.203125 -20.796875 
Q 24.46875 -20.796875 20.265625 -20.09375 
Q 16.0625 -19.390625 12.109375 -17.921875 
L 12.109375 -9.1875 
Q 16.0625 -11.328125 19.921875 -12.34375 
Q 23.78125 -13.375 27.78125 -13.375 
Q 36.625 -13.375 41.015625 -8.765625 
Q 45.40625 -4.15625 45.40625 5.171875 
L 45.40625 9.625 
Q 42.625 4.78125 38.28125 2.390625 
Q 33.9375 0 27.875 0 
Q 17.828125 0 11.671875 7.65625 
Q 5.515625 15.328125 5.515625 27.984375 
Q 5.515625 40.671875 11.671875 48.328125 
Q 17.828125 56 27.875 56 
Q 33.9375 56 38.28125 53.609375 
Q 42.625 51.21875 45.40625 46.390625 
L 45.40625 54.6875 
L 54.390625 54.6875 
z
" id="DejaVuSans-103"/>
     <path d="M 54.890625 33.015625 
L 54.890625 0 
L 45.90625 0 
L 45.90625 32.71875 
Q 45.90625 40.484375 42.875 44.328125 
Q 39.84375 48.1875 33.796875 48.1875 
Q 26.515625 48.1875 22.3125 43.546875 
Q 18.109375 38.921875 18.109375 30.90625 
L 18.109375 0 
L 9.078125 0 
L 9.078125 54.6875 
L 18.109375 54.6875 
L 18.109375 46.1875 
Q 21.34375 51.125 25.703125 53.5625 
Q 30.078125 56 35.796875 56 
Q 45.21875 56 50.046875 50.171875 
Q 54.890625 44.34375 54.890625 33.015625 
z
" id="DejaVuSans-110"/>
    </defs>
    <g style="fill:#ffffff;" transform="translate(422.869375 44.641406)scale(0.45 -0.45)">
     <use xlink:href="#DejaVuSans-77"/>
     <use x="86.279297" xlink:href="#DejaVuSans-101"/>
     <use x="147.802734" xlink:href="#DejaVuSans-97"/>
     <use x="209.082031" xlink:href="#DejaVuSans-115"/>
     <use x="261.181641" xlink:href="#DejaVuSans-117"/>
     <use x="324.560547" xlink:href="#DejaVuSans-114"/>
     <use x="365.642578" xlink:href="#DejaVuSans-101"/>
     <use x="427.166016" xlink:href="#DejaVuSans-100"/>
     <use x="490.642578" xlink:href="#DejaVuSans-32"/>
     <use x="522.429688" xlink:href="#DejaVuSans-83"/>
     <use x="585.90625" xlink:href="#DejaVuSans-105"/>
     <use x="613.689453" xlink:href="#DejaVuSans-103"/>
     <use x="677.166016" xlink:href="#DejaVuSans-110"/>
     <use x="740.544922" xlink:href="#DejaVuSans-97"/>
     <use x="801.824219" xlink:href="#DejaVuSans-108"/>
    </g>
   </g>
  </g>
 </g>
 <defs>
  <clipPath id="p27e04d64fd">
   <rect height="566.44" width="919.33" x="149.87" y="54"/>
  </clipPath>
 </defs>
</svg>
