<?xml version="1.0" encoding="utf-8" standalone="no"?>
<!DOCTYPE svg PUBLIC "-//W3C//DTD SVG 1.1//EN"
  "http://www.w3.org/Graphics/SVG/1.1/DTD/svg11.dtd">
<!-- Created with matplotlib (https://matplotlib.org/) -->
<svg height="720pt" version="1.1" viewBox="0 0 1080 720" width="1080pt" xmlns="http://www.w3.org/2000/svg" xmlns:xlink="http://www.w3.org/1999/xlink">
 <defs>
  <style type="text/css">
*{stroke-linecap:butt;stroke-linejoin:round;}
  </style>
 </defs>
 <g id="figure_1">
  <g id="patch_1">
   <path d="M 0 720 
L 1080 720 
L 1080 0 
L 0 0 
z
" style="fill:#121212;"/>
  </g>
  <g id="axes_1">
   <g id="patch_2">
    <path d="M 157.88 620.44 
L 1069.2 620.44 
L 1069.2 54 
L 157.88 54 
z
" style="fill:#121212;"/>
   </g>
   <g id="matplotlib.axis_1">
    <g id="xtick_1">
     <g id="line2d_1">
      <path clip-path="url(#p46fec298e1)" d="M 199.303636 620.44 
L 199.303636 54 
" style="fill:none;stroke:#ffffff;stroke-linecap:square;stroke-opacity:0.2;stroke-width:0.6;"/>
     </g>
     <g id="line2d_2">
      <defs>
       <path d="M 0 0 
L 0 3.5 
" id="mb3b4e8ac2b" style="stroke:#ffffff;stroke-width:0.8;"/>
      </defs>
      <g>
       <use style="fill:#ffffff;stroke:#ffffff;stroke-width:0.8;" x="199.303636" xlink:href="#mb3b4e8ac2b" y="620.44"/>
      </g>
     </g>
     <g id="text_1">
      <!-- 0 -->
      <defs>
       <path d="M 31.78125 66.40625 
Q 24.171875 66.40625 20.328125 58.90625 
Q 16.5 51.421875 16.5 36.375 
Q 16.5 21.390625 20.328125 13.890625 
Q 24.171875 6.390625 31.78125 6.390625 
Q 39.453125 6.390625 43.28125 13.890625 
Q 47.125 21.390625 47.125 36.375 
Q 47.125 51.421875 43.28125 58.90625 
Q 39.453125 66.40625 31.78125 66.40625 
z
M 31.78125 74.21875 
Q 44.046875 74.21875 50.515625 64.515625 
Q 56.984375 54.828125 56.984375 36.375 
Q 56.984375 17.96875 50.515625 8.265625 
Q 44.046875 -1.421875 31.78125 -1.421875 
Q 19.53125 -1.421875 13.0625 8.265625 
Q 6.59375 17.96875 6.59375 36.375 
Q 6.59375 54.828125 13.0625 64.515625 
Q 19.53125 74.21875 31.78125 74.21875 
z
" id="DejaVuSans-48"/>
      </defs>
      <g style="fill:#ffffff;" transform="translate(186.578636 657.83375)scale(0.4 -0.4)">
       <use xlink:href="#DejaVuSans-48"/>
      </g>
     </g>
    </g>
    <g id="xtick_2">
     <g id="line2d_3">
      <path clip-path="url(#p46fec298e1)" d="M 364.998182 620.44 
L 364.998182 54 
" style="fill:none;stroke:#ffffff;stroke-linecap:square;stroke-opacity:0.2;stroke-width:0.6;"/>
     </g>
     <g id="line2d_4">
      <g>
       <use style="fill:#ffffff;stroke:#ffffff;stroke-width:0.8;" x="364.998182" xlink:href="#mb3b4e8ac2b" y="620.44"/>
      </g>
     </g>
     <g id="text_2">
      <!-- 2 -->
      <defs>
       <path d="M 19.1875 8.296875 
L 53.609375 8.296875 
L 53.609375 0 
L 7.328125 0 
L 7.328125 8.296875 
Q 12.9375 14.109375 22.625 23.890625 
Q 32.328125 33.6875 34.8125 36.53125 
Q 39.546875 41.84375 41.421875 45.53125 
Q 43.3125 49.21875 43.3125 52.78125 
Q 43.3125 58.59375 39.234375 62.25 
Q 35.15625 65.921875 28.609375 65.921875 
Q 23.96875 65.921875 18.8125 64.3125 
Q 13.671875 62.703125 7.8125 59.421875 
L 7.8125 69.390625 
Q 13.765625 71.78125 18.9375 73 
Q 24.125 74.21875 28.421875 74.21875 
Q 39.75 74.21875 46.484375 68.546875 
Q 53.21875 62.890625 53.21875 53.421875 
Q 53.21875 48.921875 51.53125 44.890625 
Q 49.859375 40.875 45.40625 35.40625 
Q 44.1875 33.984375 37.640625 27.21875 
Q 31.109375 20.453125 19.1875 8.296875 
z
" id="DejaVuSans-50"/>
      </defs>
      <g style="fill:#ffffff;" transform="translate(352.273182 657.83375)scale(0.4 -0.4)">
       <use xlink:href="#DejaVuSans-50"/>
      </g>
     </g>
    </g>
    <g id="xtick_3">
     <g id="line2d_5">
      <path clip-path="url(#p46fec298e1)" d="M 530.692727 620.44 
L 530.692727 54 
" style="fill:none;stroke:#ffffff;stroke-linecap:square;stroke-opacity:0.2;stroke-width:0.6;"/>
     </g>
     <g id="line2d_6">
      <g>
       <use style="fill:#ffffff;stroke:#ffffff;stroke-width:0.8;" x="530.692727" xlink:href="#mb3b4e8ac2b" y="620.44"/>
      </g>
     </g>
     <g id="text_3">
      <!-- 4 -->
      <defs>
       <path d="M 37.796875 64.3125 
L 12.890625 25.390625 
L 37.796875 25.390625 
z
M 35.203125 72.90625 
L 47.609375 72.90625 
L 47.609375 25.390625 
L 58.015625 25.390625 
L 58.015625 17.1875 
L 47.609375 17.1875 
L 47.609375 0 
L 37.796875 0 
L 37.796875 17.1875 
L 4.890625 17.1875 
L 4.890625 26.703125 
z
" id="DejaVuSans-52"/>
      </defs>
      <g style="fill:#ffffff;" transform="translate(517.967727 657.83375)scale(0.4 -0.4)">
       <use xlink:href="#DejaVuSans-52"/>
      </g>
     </g>
    </g>
    <g id="xtick_4">
     <g id="line2d_7">
      <path clip-path="url(#p46fec298e1)" d="M 696.387273 620.44 
L 696.387273 54 
" style="fill:none;stroke:#ffffff;stroke-linecap:square;stroke-opacity:0.2;stroke-width:0.6;"/>
     </g>
     <g id="line2d_8">
      <g>
       <use style="fill:#ffffff;stroke:#ffffff;stroke-width:0.8;" x="696.387273" xlink:href="#mb3b4e8ac2b" y="620.44"/>
      </g>
     </g>
     <g id="text_4">
      <!-- 6 -->
      <defs>
       <path d="M 33.015625 40.375 
Q 26.375 40.375 22.484375 35.828125 
Q 18.609375 31.296875 18.609375 23.390625 
Q 18.609375 15.53125 22.484375 10.953125 
Q 26.375 6.390625 33.015625 6.390625 
Q 39.65625 6.390625 43.53125 10.953125 
Q 47.40625 15.53125 47.40625 23.390625 
Q 47.40625 31.296875 43.53125 35.828125 
Q 39.65625 40.375 33.015625 40.375 
z
M 52.59375 71.296875 
L 52.59375 62.3125 
Q 48.875 64.0625 45.09375 64.984375 
Q 41.3125 65.921875 37.59375 65.921875 
Q 27.828125 65.921875 22.671875 59.328125 
Q 17.53125 52.734375 16.796875 39.40625 
Q 19.671875 43.65625 24.015625 45.921875 
Q 28.375 48.1875 33.59375 48.1875 
Q 44.578125 48.1875 50.953125 41.515625 
Q 57.328125 34.859375 57.328125 23.390625 
Q 57.328125 12.15625 50.6875 5.359375 
Q 44.046875 -1.421875 33.015625 -1.421875 
Q 20.359375 -1.421875 13.671875 8.265625 
Q 6.984375 17.96875 6.984375 36.375 
Q 6.984375 53.65625 15.1875 63.9375 
Q 23.390625 74.21875 37.203125 74.21875 
Q 40.921875 74.21875 44.703125 73.484375 
Q 48.484375 72.75 52.59375 71.296875 
z
" id="DejaVuSans-54"/>
      </defs>
      <g style="fill:#ffffff;" transform="translate(683.662273 657.83375)scale(0.4 -0.4)">
       <use xlink:href="#DejaVuSans-54"/>
      </g>
     </g>
    </g>
    <g id="xtick_5">
     <g id="line2d_9">
      <path clip-path="url(#p46fec298e1)" d="M 862.081818 620.44 
L 862.081818 54 
" style="fill:none;stroke:#ffffff;stroke-linecap:square;stroke-opacity:0.2;stroke-width:0.6;"/>
     </g>
     <g id="line2d_10">
      <g>
       <use style="fill:#ffffff;stroke:#ffffff;stroke-width:0.8;" x="862.081818" xlink:href="#mb3b4e8ac2b" y="620.44"/>
      </g>
     </g>
     <g id="text_5">
      <!-- 8 -->
      <defs>
       <path d="M 31.78125 34.625 
Q 24.75 34.625 20.71875 30.859375 
Q 16.703125 27.09375 16.703125 20.515625 
Q 16.703125 13.921875 20.71875 10.15625 
Q 24.75 6.390625 31.78125 6.390625 
Q 38.8125 6.390625 42.859375 10.171875 
Q 46.921875 13.96875 46.921875 20.515625 
Q 46.921875 27.09375 42.890625 30.859375 
Q 38.875 34.625 31.78125 34.625 
z
M 21.921875 38.8125 
Q 15.578125 40.375 12.03125 44.71875 
Q 8.5 49.078125 8.5 55.328125 
Q 8.5 64.0625 14.71875 69.140625 
Q 20.953125 74.21875 31.78125 74.21875 
Q 42.671875 74.21875 48.875 69.140625 
Q 55.078125 64.0625 55.078125 55.328125 
Q 55.078125 49.078125 51.53125 44.71875 
Q 48 40.375 41.703125 38.8125 
Q 48.828125 37.15625 52.796875 32.3125 
Q 56.78125 27.484375 56.78125 20.515625 
Q 56.78125 9.90625 50.3125 4.234375 
Q 43.84375 -1.421875 31.78125 -1.421875 
Q 19.734375 -1.421875 13.25 4.234375 
Q 6.78125 9.90625 6.78125 20.515625 
Q 6.78125 27.484375 10.78125 32.3125 
Q 14.796875 37.15625 21.921875 38.8125 
z
M 18.3125 54.390625 
Q 18.3125 48.734375 21.84375 45.5625 
Q 25.390625 42.390625 31.78125 42.390625 
Q 38.140625 42.390625 41.71875 45.5625 
Q 45.3125 48.734375 45.3125 54.390625 
Q 45.3125 60.0625 41.71875 63.234375 
Q 38.140625 66.40625 31.78125 66.40625 
Q 25.390625 66.40625 21.84375 63.234375 
Q 18.3125 60.0625 18.3125 54.390625 
z
" id="DejaVuSans-56"/>
      </defs>
      <g style="fill:#ffffff;" transform="translate(849.356818 657.83375)scale(0.4 -0.4)">
       <use xlink:href="#DejaVuSans-56"/>
      </g>
     </g>
    </g>
    <g id="xtick_6">
     <g id="line2d_11">
      <path clip-path="url(#p46fec298e1)" d="M 1027.776364 620.44 
L 1027.776364 54 
" style="fill:none;stroke:#ffffff;stroke-linecap:square;stroke-opacity:0.2;stroke-width:0.6;"/>
     </g>
     <g id="line2d_12">
      <g>
       <use style="fill:#ffffff;stroke:#ffffff;stroke-width:0.8;" x="1027.776364" xlink:href="#mb3b4e8ac2b" y="620.44"/>
      </g>
     </g>
     <g id="text_6">
      <!-- 10 -->
      <defs>
       <path d="M 12.40625 8.296875 
L 28.515625 8.296875 
L 28.515625 63.921875 
L 10.984375 60.40625 
L 10.984375 69.390625 
L 28.421875 72.90625 
L 38.28125 72.90625 
L 38.28125 8.296875 
L 54.390625 8.296875 
L 54.390625 0 
L 12.40625 0 
z
" id="DejaVuSans-49"/>
      </defs>
      <g style="fill:#ffffff;" transform="translate(1002.326364 657.83375)scale(0.4 -0.4)">
       <use xlink:href="#DejaVuSans-49"/>
       <use x="63.623047" xlink:href="#DejaVuSans-48"/>
      </g>
     </g>
    </g>
    <g id="text_7">
     <!-- Time -->
     <defs>
      <path d="M -0.296875 72.90625 
L 61.375 72.90625 
L 61.375 64.59375 
L 35.5 64.59375 
L 35.5 0 
L 25.59375 0 
L 25.59375 64.59375 
L -0.296875 64.59375 
z
" id="DejaVuSans-84"/>
      <path d="M 9.421875 54.6875 
L 18.40625 54.6875 
L 18.40625 0 
L 9.421875 0 
z
M 9.421875 75.984375 
L 18.40625 75.984375 
L 18.40625 64.59375 
L 9.421875 64.59375 
z
" id="DejaVuSans-105"/>
      <path d="M 52 44.1875 
Q 55.375 50.25 60.0625 53.125 
Q 64.75 56 71.09375 56 
Q 79.640625 56 84.28125 50.015625 
Q 88.921875 44.046875 88.921875 33.015625 
L 88.921875 0 
L 79.890625 0 
L 79.890625 32.71875 
Q 79.890625 40.578125 77.09375 44.375 
Q 74.3125 48.1875 68.609375 48.1875 
Q 61.625 48.1875 57.5625 43.546875 
Q 53.515625 38.921875 53.515625 30.90625 
L 53.515625 0 
L 44.484375 0 
L 44.484375 32.71875 
Q 44.484375 40.625 41.703125 44.40625 
Q 38.921875 48.1875 33.109375 48.1875 
Q 26.21875 48.1875 22.15625 43.53125 
Q 18.109375 38.875 18.109375 30.90625 
L 18.109375 0 
L 9.078125 0 
L 9.078125 54.6875 
L 18.109375 54.6875 
L 18.109375 46.1875 
Q 21.1875 51.21875 25.484375 53.609375 
Q 29.78125 56 35.6875 56 
Q 41.65625 56 45.828125 52.96875 
Q 50 49.953125 52 44.1875 
z
" id="DejaVuSans-109"/>
      <path d="M 56.203125 29.59375 
L 56.203125 25.203125 
L 14.890625 25.203125 
Q 15.484375 15.921875 20.484375 11.0625 
Q 25.484375 6.203125 34.421875 6.203125 
Q 39.59375 6.203125 44.453125 7.46875 
Q 49.3125 8.734375 54.109375 11.28125 
L 54.109375 2.78125 
Q 49.265625 0.734375 44.1875 -0.34375 
Q 39.109375 -1.421875 33.890625 -1.421875 
Q 20.796875 -1.421875 13.15625 6.1875 
Q 5.515625 13.8125 5.515625 26.8125 
Q 5.515625 40.234375 12.765625 48.109375 
Q 20.015625 56 32.328125 56 
Q 43.359375 56 49.78125 48.890625 
Q 56.203125 41.796875 56.203125 29.59375 
z
M 47.21875 32.234375 
Q 47.125 39.59375 43.09375 43.984375 
Q 39.0625 48.390625 32.421875 48.390625 
Q 24.90625 48.390625 20.390625 44.140625 
Q 15.875 39.890625 15.1875 32.171875 
z
" id="DejaVuSans-101"/>
     </defs>
     <g style="fill:#ffffff;" transform="translate(563.99 700.54625)scale(0.4 -0.4)">
      <use xlink:href="#DejaVuSans-84"/>
      <use x="61.037109" xlink:href="#DejaVuSans-105"/>
      <use x="88.820312" xlink:href="#DejaVuSans-109"/>
      <use x="186.232422" xlink:href="#DejaVuSans-101"/>
     </g>
    </g>
   </g>
   <g id="matplotlib.axis_2">
    <g id="ytick_1">
     <g id="line2d_13">
      <path clip-path="url(#p46fec298e1)" d="M 157.88 604.36301 
L 1069.2 604.36301 
" style="fill:none;stroke:#ffffff;stroke-linecap:square;stroke-opacity:0.2;stroke-width:0.6;"/>
     </g>
     <g id="line2d_14">
      <defs>
       <path d="M 0 0 
L -3.5 0 
" id="m459734d206" style="stroke:#ffffff;stroke-width:0.8;"/>
      </defs>
      <g>
       <use style="fill:#ffffff;stroke:#ffffff;stroke-width:0.8;" x="157.88" xlink:href="#m459734d206" y="604.36301"/>
      </g>
     </g>
     <g id="text_8">
      <!-- −1.0 -->
      <defs>
       <path d="M 10.59375 35.5 
L 73.1875 35.5 
L 73.1875 27.203125 
L 10.59375 27.203125 
z
" id="DejaVuSans-8722"/>
       <path d="M 10.6875 12.40625 
L 21 12.40625 
L 21 0 
L 10.6875 0 
z
" id="DejaVuSans-46"/>
      </defs>
      <g style="fill:#ffffff;" transform="translate(53.74875 619.559885)scale(0.4 -0.4)">
       <use xlink:href="#DejaVuSans-8722"/>
       <use x="83.789062" xlink:href="#DejaVuSans-49"/>
       <use x="147.412109" xlink:href="#DejaVuSans-46"/>
       <use x="179.199219" xlink:href="#DejaVuSans-48"/>
      </g>
     </g>
    </g>
    <g id="ytick_2">
     <g id="line2d_15">
      <path clip-path="url(#p46fec298e1)" d="M 157.88 484.238718 
L 1069.2 484.238718 
" style="fill:none;stroke:#ffffff;stroke-linecap:square;stroke-opacity:0.2;stroke-width:0.6;"/>
     </g>
     <g id="line2d_16">
      <g>
       <use style="fill:#ffffff;stroke:#ffffff;stroke-width:0.8;" x="157.88" xlink:href="#m459734d206" y="484.238718"/>
      </g>
     </g>
     <g id="text_9">
      <!-- −0.5 -->
      <defs>
       <path d="M 10.796875 72.90625 
L 49.515625 72.90625 
L 49.515625 64.59375 
L 19.828125 64.59375 
L 19.828125 46.734375 
Q 21.96875 47.46875 24.109375 47.828125 
Q 26.265625 48.1875 28.421875 48.1875 
Q 40.625 48.1875 47.75 41.5 
Q 54.890625 34.8125 54.890625 23.390625 
Q 54.890625 11.625 47.5625 5.09375 
Q 40.234375 -1.421875 26.90625 -1.421875 
Q 22.3125 -1.421875 17.546875 -0.640625 
Q 12.796875 0.140625 7.71875 1.703125 
L 7.71875 11.625 
Q 12.109375 9.234375 16.796875 8.0625 
Q 21.484375 6.890625 26.703125 6.890625 
Q 35.15625 6.890625 40.078125 11.328125 
Q 45.015625 15.765625 45.015625 23.390625 
Q 45.015625 31 40.078125 35.4375 
Q 35.15625 39.890625 26.703125 39.890625 
Q 22.75 39.890625 18.8125 39.015625 
Q 14.890625 38.140625 10.796875 36.28125 
z
" id="DejaVuSans-53"/>
      </defs>
      <g style="fill:#ffffff;" transform="translate(53.74875 499.435593)scale(0.4 -0.4)">
       <use xlink:href="#DejaVuSans-8722"/>
       <use x="83.789062" xlink:href="#DejaVuSans-48"/>
       <use x="147.412109" xlink:href="#DejaVuSans-46"/>
       <use x="179.199219" xlink:href="#DejaVuSans-53"/>
      </g>
     </g>
    </g>
    <g id="ytick_3">
     <g id="line2d_17">
      <path clip-path="url(#p46fec298e1)" d="M 157.88 364.114426 
L 1069.2 364.114426 
" style="fill:none;stroke:#ffffff;stroke-linecap:square;stroke-opacity:0.2;stroke-width:0.6;"/>
     </g>
     <g id="line2d_18">
      <g>
       <use style="fill:#ffffff;stroke:#ffffff;stroke-width:0.8;" x="157.88" xlink:href="#m459734d206" y="364.114426"/>
      </g>
     </g>
     <g id="text_10">
      <!-- 0.0 -->
      <g style="fill:#ffffff;" transform="translate(87.2675 379.311301)scale(0.4 -0.4)">
       <use xlink:href="#DejaVuSans-48"/>
       <use x="63.623047" xlink:href="#DejaVuSans-46"/>
       <use x="95.410156" xlink:href="#DejaVuSans-48"/>
      </g>
     </g>
    </g>
    <g id="ytick_4">
     <g id="line2d_19">
      <path clip-path="url(#p46fec298e1)" d="M 157.88 243.990134 
L 1069.2 243.990134 
" style="fill:none;stroke:#ffffff;stroke-linecap:square;stroke-opacity:0.2;stroke-width:0.6;"/>
     </g>
     <g id="line2d_20">
      <g>
       <use style="fill:#ffffff;stroke:#ffffff;stroke-width:0.8;" x="157.88" xlink:href="#m459734d206" y="243.990134"/>
      </g>
     </g>
     <g id="text_11">
      <!-- 0.5 -->
      <g style="fill:#ffffff;" transform="translate(87.2675 259.187009)scale(0.4 -0.4)">
       <use xlink:href="#DejaVuSans-48"/>
       <use x="63.623047" xlink:href="#DejaVuSans-46"/>
       <use x="95.410156" xlink:href="#DejaVuSans-53"/>
      </g>
     </g>
    </g>
    <g id="ytick_5">
     <g id="line2d_21">
      <path clip-path="url(#p46fec298e1)" d="M 157.88 123.865842 
L 1069.2 123.865842 
" style="fill:none;stroke:#ffffff;stroke-linecap:square;stroke-opacity:0.2;stroke-width:0.6;"/>
     </g>
     <g id="line2d_22">
      <g>
       <use style="fill:#ffffff;stroke:#ffffff;stroke-width:0.8;" x="157.88" xlink:href="#m459734d206" y="123.865842"/>
      </g>
     </g>
     <g id="text_12">
      <!-- 1.0 -->
      <g style="fill:#ffffff;" transform="translate(87.2675 139.062717)scale(0.4 -0.4)">
       <use xlink:href="#DejaVuSans-49"/>
       <use x="63.623047" xlink:href="#DejaVuSans-46"/>
       <use x="95.410156" xlink:href="#DejaVuSans-48"/>
      </g>
     </g>
    </g>
    <g id="text_13">
     <!-- Amplitude -->
     <defs>
      <path d="M 34.1875 63.1875 
L 20.796875 26.90625 
L 47.609375 26.90625 
z
M 28.609375 72.90625 
L 39.796875 72.90625 
L 67.578125 0 
L 57.328125 0 
L 50.6875 18.703125 
L 17.828125 18.703125 
L 11.1875 0 
L 0.78125 0 
z
" id="DejaVuSans-65"/>
      <path d="M 18.109375 8.203125 
L 18.109375 -20.796875 
L 9.078125 -20.796875 
L 9.078125 54.6875 
L 18.109375 54.6875 
L 18.109375 46.390625 
Q 20.953125 51.265625 25.265625 53.625 
Q 29.59375 56 35.59375 56 
Q 45.5625 56 51.78125 48.09375 
Q 58.015625 40.1875 58.015625 27.296875 
Q 58.015625 14.40625 51.78125 6.484375 
Q 45.5625 -1.421875 35.59375 -1.421875 
Q 29.59375 -1.421875 25.265625 0.953125 
Q 20.953125 3.328125 18.109375 8.203125 
z
M 48.6875 27.296875 
Q 48.6875 37.203125 44.609375 42.84375 
Q 40.53125 48.484375 33.40625 48.484375 
Q 26.265625 48.484375 22.1875 42.84375 
Q 18.109375 37.203125 18.109375 27.296875 
Q 18.109375 17.390625 22.1875 11.75 
Q 26.265625 6.109375 33.40625 6.109375 
Q 40.53125 6.109375 44.609375 11.75 
Q 48.6875 17.390625 48.6875 27.296875 
z
" id="DejaVuSans-112"/>
      <path d="M 9.421875 75.984375 
L 18.40625 75.984375 
L 18.40625 0 
L 9.421875 0 
z
" id="DejaVuSans-108"/>
      <path d="M 18.3125 70.21875 
L 18.3125 54.6875 
L 36.8125 54.6875 
L 36.8125 47.703125 
L 18.3125 47.703125 
L 18.3125 18.015625 
Q 18.3125 11.328125 20.140625 9.421875 
Q 21.96875 7.515625 27.59375 7.515625 
L 36.8125 7.515625 
L 36.8125 0 
L 27.59375 0 
Q 17.1875 0 13.234375 3.875 
Q 9.28125 7.765625 9.28125 18.015625 
L 9.28125 47.703125 
L 2.6875 47.703125 
L 2.6875 54.6875 
L 9.28125 54.6875 
L 9.28125 70.21875 
z
" id="DejaVuSans-116"/>
      <path d="M 8.5 21.578125 
L 8.5 54.6875 
L 17.484375 54.6875 
L 17.484375 21.921875 
Q 17.484375 14.15625 20.5 10.265625 
Q 23.53125 6.390625 29.59375 6.390625 
Q 36.859375 6.390625 41.078125 11.03125 
Q 45.3125 15.671875 45.3125 23.6875 
L 45.3125 54.6875 
L 54.296875 54.6875 
L 54.296875 0 
L 45.3125 0 
L 45.3125 8.40625 
Q 42.046875 3.421875 37.71875 1 
Q 33.40625 -1.421875 27.6875 -1.421875 
Q 18.265625 -1.421875 13.375 4.4375 
Q 8.5 10.296875 8.5 21.578125 
z
M 31.109375 56 
z
" id="DejaVuSans-117"/>
      <path d="M 45.40625 46.390625 
L 45.40625 75.984375 
L 54.390625 75.984375 
L 54.390625 0 
L 45.40625 0 
L 45.40625 8.203125 
Q 42.578125 3.328125 38.25 0.953125 
Q 33.9375 -1.421875 27.875 -1.421875 
Q 17.96875 -1.421875 11.734375 6.484375 
Q 5.515625 14.40625 5.515625 27.296875 
Q 5.515625 40.1875 11.734375 48.09375 
Q 17.96875 56 27.875 56 
Q 33.9375 56 38.25 53.625 
Q 42.578125 51.265625 45.40625 46.390625 
z
M 14.796875 27.296875 
Q 14.796875 17.390625 18.875 11.75 
Q 22.953125 6.109375 30.078125 6.109375 
Q 37.203125 6.109375 41.296875 11.75 
Q 45.40625 17.390625 45.40625 27.296875 
Q 45.40625 37.203125 41.296875 42.84375 
Q 37.203125 48.484375 30.078125 48.484375 
Q 22.953125 48.484375 18.875 42.84375 
Q 14.796875 37.203125 14.796875 27.296875 
z
" id="DejaVuSans-100"/>
     </defs>
     <g style="fill:#ffffff;" transform="translate(41.43 439.710625)rotate(-90)scale(0.4 -0.4)">
      <use xlink:href="#DejaVuSans-65"/>
      <use x="68.408203" xlink:href="#DejaVuSans-109"/>
      <use x="165.820312" xlink:href="#DejaVuSans-112"/>
      <use x="229.296875" xlink:href="#DejaVuSans-108"/>
      <use x="257.080078" xlink:href="#DejaVuSans-105"/>
      <use x="284.863281" xlink:href="#DejaVuSans-116"/>
      <use x="324.072266" xlink:href="#DejaVuSans-117"/>
      <use x="387.451172" xlink:href="#DejaVuSans-100"/>
      <use x="450.927734" xlink:href="#DejaVuSans-101"/>
     </g>
    </g>
   </g>
   <g id="line2d_23">
    <path clip-path="url(#p46fec298e1)" d="M 199.303636 384.720894 
L 200.132938 336.295306 
L 200.96224 273.723945 
L 201.791542 376.850788 
L 202.620844 523.611881 
L 203.450147 439.053255 
L 204.279449 227.464422 
L 205.108751 222.873466 
L 205.938053 278.75971 
L 206.767355 417.981059 
L 207.596657 290.529435 
L 208.425959 447.394685 
L 209.255261 492.105277 
L 210.913865 389.436573 
L 211.743167 268.452849 
L 212.572469 251.433322 
L 213.401771 415.519359 
L 214.231073 367.681866 
L 215.060375 267.981289 
L 215.889677 398.066792 
L 216.718979 361.977656 
L 217.548281 262.683495 
L 218.377583 354.669198 
L 219.206885 339.404398 
L 220.036187 356.873197 
L 220.865489 354.66366 
L 221.694791 288.65365 
L 222.524093 426.335628 
L 223.353395 232.517582 
L 224.182697 369.742699 
L 225.011999 231.240552 
L 225.841301 358.707386 
L 226.670603 370.347623 
L 227.499905 261.532158 
L 228.329207 345.232788 
L 229.158509 232.91174 
L 229.987811 455.664688 
L 230.817113 396.324826 
L 231.646416 491.646619 
L 232.475718 466.516641 
L 233.30502 306.538033 
L 234.134322 308.469809 
L 234.963624 248.77904 
L 235.792926 208.403796 
L 236.622228 421.545979 
L 237.45153 510.510347 
L 238.280832 490.786534 
L 239.110134 438.367456 
L 239.939436 346.171421 
L 240.768738 403.084243 
L 241.59804 233.616063 
L 243.256644 489.059223 
L 244.085946 336.843387 
L 244.915248 358.08808 
L 245.74455 435.801045 
L 246.573852 355.440675 
L 247.403154 389.790416 
L 248.232456 380.926507 
L 249.061758 396.004708 
L 249.89106 319.160521 
L 250.720362 398.637574 
L 251.549664 330.702012 
L 252.378966 416.746203 
L 253.208268 312.681633 
L 254.03757 348.543575 
L 255.696174 319.583638 
L 256.525476 264.305675 
L 257.354778 378.608446 
L 258.18408 566.168006 
L 259.013382 194.537899 
L 259.842685 341.553685 
L 260.671987 394.850284 
L 261.501289 456.141273 
L 262.330591 414.366541 
L 263.159893 423.278651 
L 263.989195 476.568364 
L 264.818497 285.7167 
L 265.647799 334.623284 
L 266.477101 401.124599 
L 267.306403 230.988725 
L 268.135705 316.997029 
L 268.965007 322.794745 
L 269.794309 269.935488 
L 270.623611 486.724671 
L 271.452913 395.167292 
L 272.282215 403.458187 
L 273.111517 487.903681 
L 273.940819 352.931551 
L 274.770121 442.055774 
L 275.599423 292.785115 
L 276.428725 461.96246 
L 277.258027 269.122121 
L 278.087329 412.182814 
L 278.916631 299.25195 
L 279.745933 340.751846 
L 280.575235 213.068559 
L 281.404537 404.020694 
L 282.233839 363.768506 
L 283.063141 225.139449 
L 283.892443 516.494096 
L 284.721745 438.254984 
L 285.551047 265.10759 
L 286.380349 347.013787 
L 287.209651 473.047991 
L 288.038953 405.777707 
L 288.868256 373.429528 
L 289.697558 405.817371 
L 290.52686 254.564883 
L 291.356162 358.670542 
L 292.185464 357.191167 
L 293.014766 424.597282 
L 293.844068 363.590549 
L 294.67337 409.157705 
L 295.502672 397.18547 
L 296.331974 383.520937 
L 297.161276 429.054277 
L 297.990578 384.410907 
L 298.81988 314.438053 
L 299.649182 317.309931 
L 300.478484 348.090407 
L 301.307786 384.71199 
L 302.137088 330.172734 
L 302.96639 381.024452 
L 304.624994 311.285291 
L 305.454296 399.701412 
L 306.283598 280.186246 
L 307.1129 374.417326 
L 307.942202 399.538827 
L 308.771504 215.601838 
L 309.600806 346.24475 
L 310.430108 203.058033 
L 311.25941 397.740519 
L 312.918014 303.266674 
L 313.747316 399.327037 
L 314.576618 249.683328 
L 315.40592 340.612399 
L 316.235222 445.573555 
L 317.064525 240.836119 
L 317.893827 363.973257 
L 318.723129 373.453575 
L 319.552431 351.920301 
L 320.381733 349.483773 
L 321.211035 444.349246 
L 322.040337 336.154772 
L 322.869639 449.704348 
L 323.698941 389.993651 
L 324.528243 405.830543 
L 325.357545 364.246002 
L 326.186847 306.562062 
L 327.016149 285.075168 
L 327.845451 413.658788 
L 328.674753 334.22778 
L 329.504055 525.123936 
L 330.333357 332.484597 
L 331.162659 239.923424 
L 331.991961 268.506244 
L 332.821263 382.348187 
L 333.650565 319.392071 
L 334.479867 455.950108 
L 335.309169 434.860726 
L 336.138471 265.916136 
L 336.967773 379.180121 
L 337.797075 310.247602 
L 338.626377 252.966586 
L 339.455679 250.319234 
L 340.284981 379.11461 
L 341.114283 388.454654 
L 341.943585 497.462999 
L 342.772887 297.468437 
L 343.602189 389.750695 
L 344.431491 294.895464 
L 345.260794 321.92487 
L 346.090096 340.069946 
L 346.919398 360.810639 
L 347.7487 268.871252 
L 348.578002 210.409636 
L 349.407304 434.53759 
L 350.236606 329.253608 
L 351.065908 265.681563 
L 351.89521 484.802649 
L 352.724512 351.785746 
L 353.553814 423.710861 
L 354.383116 339.599262 
L 355.212418 336.51307 
L 356.04172 295.163586 
L 356.871022 300.973751 
L 357.700324 430.653717 
L 358.529626 300.204899 
L 359.358928 383.301656 
L 360.18823 310.138988 
L 361.017532 378.222789 
L 361.846834 465.839515 
L 362.676136 79.747273 
L 363.505438 332.68146 
L 364.33474 306.586416 
L 365.164042 326.029426 
L 365.993344 322.691739 
L 366.822646 309.583676 
L 367.651948 346.510937 
L 368.48125 372.018569 
L 369.310552 512.950762 
L 370.139854 325.697966 
L 370.969156 283.789648 
L 371.798458 345.184379 
L 372.62776 385.028859 
L 373.457063 412.792516 
L 374.286365 365.888353 
L 375.115667 368.85791 
L 375.944969 318.57618 
L 376.774271 456.216439 
L 377.603573 303.359799 
L 378.432875 394.845634 
L 379.262177 172.810951 
L 380.091479 376.536897 
L 380.920781 336.382542 
L 381.750083 422.059893 
L 382.579385 387.840277 
L 383.408687 401.544462 
L 384.237989 431.26531 
L 385.067291 446.813179 
L 385.896593 351.785527 
L 386.725895 526.25363 
L 387.555197 283.559902 
L 388.384499 243.669344 
L 390.043103 389.758085 
L 390.872405 332.805845 
L 391.701707 334.86982 
L 392.531009 354.117628 
L 393.360311 347.71755 
L 394.189613 336.681729 
L 395.018915 356.781293 
L 395.848217 450.938427 
L 396.677519 241.821535 
L 397.506821 243.670576 
L 398.336123 257.802139 
L 399.165425 298.390391 
L 399.994727 479.558012 
L 400.824029 427.636405 
L 401.653332 411.57063 
L 402.482634 334.888289 
L 403.311936 407.656211 
L 404.141238 430.54539 
L 404.97054 375.370407 
L 405.799842 497.533789 
L 406.629144 392.634479 
L 407.458446 415.125762 
L 408.287748 268.070291 
L 409.946352 381.623582 
L 410.775654 372.653182 
L 411.604956 284.893484 
L 412.434258 324.651465 
L 413.26356 341.053961 
L 414.092862 232.220773 
L 414.922164 395.458227 
L 415.751466 434.082295 
L 416.580768 454.994959 
L 417.41007 371.690569 
L 418.239372 393.146451 
L 419.068674 313.619361 
L 419.897976 389.362903 
L 420.727278 410.005641 
L 421.55658 412.966222 
L 422.385882 417.966063 
L 423.215184 377.817639 
L 424.044486 296.361889 
L 424.873788 240.47852 
L 425.70309 454.444837 
L 427.361694 290.322364 
L 428.190996 244.736609 
L 429.020298 430.405864 
L 429.849601 478.115361 
L 430.678903 386.618221 
L 431.508205 314.605235 
L 432.337507 320.456373 
L 433.166809 339.079387 
L 433.996111 317.840396 
L 434.825413 378.161555 
L 435.654715 388.498083 
L 436.484017 455.524857 
L 437.313319 386.770736 
L 438.142621 457.229861 
L 438.971923 390.644273 
L 439.801225 297.004499 
L 440.630527 240.259798 
L 441.459829 286.663395 
L 442.289131 345.760729 
L 443.118433 337.570109 
L 443.947735 471.695485 
L 444.777037 428.590159 
L 445.606339 286.108063 
L 446.435641 423.157758 
L 447.264943 374.23032 
L 448.094245 333.64543 
L 448.923547 387.00901 
L 449.752849 407.233895 
L 450.582151 321.154796 
L 452.240755 263.286959 
L 453.070057 306.002919 
L 453.899359 357.510456 
L 454.728661 350.064849 
L 455.557963 421.457392 
L 456.387265 409.80675 
L 457.216567 452.101677 
L 458.04587 459.475521 
L 458.875172 350.647231 
L 459.704474 387.525889 
L 460.533776 366.418954 
L 461.363078 404.374506 
L 462.19238 305.84108 
L 463.021682 338.240994 
L 463.850984 250.423855 
L 464.680286 269.450167 
L 465.509588 345.798048 
L 466.33889 457.779475 
L 467.168192 519.346045 
L 467.997494 298.922068 
L 468.826796 430.82049 
L 470.4854 317.588087 
L 471.314702 413.331841 
L 472.144004 404.204438 
L 473.802608 230.871852 
L 474.63191 283.617677 
L 475.461212 445.687305 
L 476.290514 378.101253 
L 477.119816 439.446398 
L 477.949118 438.392685 
L 478.77842 449.136252 
L 479.607722 335.842887 
L 480.437024 406.804766 
L 481.266326 416.370808 
L 482.095628 393.451462 
L 482.92493 417.497651 
L 483.754232 300.489952 
L 484.583534 250.474499 
L 485.412836 444.802722 
L 487.071441 320.798222 
L 487.900743 353.525484 
L 488.730045 349.959237 
L 489.559347 276.321861 
L 490.388649 345.876725 
L 491.217951 300.056422 
L 492.047253 321.659302 
L 492.876555 461.41533 
L 493.705857 327.31243 
L 494.535159 381.458566 
L 495.364461 594.692727 
L 496.193763 250.265631 
L 497.023065 384.062702 
L 497.852367 404.015216 
L 498.681669 240.504327 
L 499.510971 427.418858 
L 500.340273 382.24559 
L 501.169575 391.664334 
L 501.998877 327.779923 
L 502.828179 389.61015 
L 503.657481 385.770837 
L 504.486783 309.244998 
L 505.316085 348.81666 
L 506.145387 405.530555 
L 506.974689 511.309157 
L 507.803991 392.944816 
L 508.633293 438.104617 
L 509.462595 365.282786 
L 510.291897 345.316711 
L 511.121199 313.71135 
L 511.950501 304.503935 
L 512.779803 243.198723 
L 513.609105 377.870815 
L 514.438407 366.223366 
L 515.26771 290.234412 
L 516.097012 327.796155 
L 516.926314 350.376235 
L 517.755616 380.012494 
L 518.584918 497.189829 
L 519.41422 297.009954 
L 520.243522 361.950861 
L 521.072824 236.71716 
L 521.902126 324.877891 
L 522.731428 363.116182 
L 523.56073 341.245098 
L 524.390032 342.502732 
L 525.219334 406.100542 
L 526.048636 188.461604 
L 526.877938 472.814307 
L 527.70724 279.126855 
L 528.536542 304.564317 
L 529.365844 343.279398 
L 530.195146 407.108059 
L 531.024448 388.411253 
L 531.85375 189.357982 
L 532.683052 323.963382 
L 533.512354 219.768935 
L 534.341656 464.84616 
L 535.170958 329.23871 
L 536.00026 457.858611 
L 536.829562 319.182757 
L 537.658864 402.189628 
L 538.488166 324.695933 
L 539.317468 352.591772 
L 540.14677 371.434455 
L 540.976072 407.377414 
L 541.805374 203.517936 
L 542.634676 331.04667 
L 543.463979 309.475782 
L 544.293281 351.519036 
L 545.122583 411.13949 
L 545.951885 347.393013 
L 546.781187 340.992319 
L 547.610489 432.585206 
L 548.439791 219.61078 
L 549.269093 270.753941 
L 550.098395 439.133263 
L 550.927697 256.142561 
L 552.586301 462.387373 
L 553.415603 390.44242 
L 554.244905 352.408347 
L 555.074207 346.516729 
L 555.903509 302.79827 
L 556.732811 444.785898 
L 557.562113 387.432514 
L 558.391415 481.799312 
L 559.220717 459.19984 
L 560.050019 369.042024 
L 560.879321 312.070958 
L 561.708623 399.95919 
L 562.537925 425.732228 
L 563.367227 356.413393 
L 564.196529 406.632246 
L 565.025831 380.562685 
L 565.855133 294.80265 
L 566.684435 434.207111 
L 567.513737 380.456514 
L 568.343039 262.848729 
L 569.172341 395.80889 
L 570.001643 415.315608 
L 570.830945 355.378568 
L 571.660248 310.783067 
L 572.48955 372.273096 
L 573.318852 340.599958 
L 574.148154 376.568937 
L 574.977456 431.611483 
L 575.806758 426.973799 
L 576.63606 389.064487 
L 577.465362 323.566666 
L 578.294664 323.505495 
L 579.123966 235.854525 
L 579.953268 259.693322 
L 580.78257 356.505487 
L 581.611872 225.884578 
L 582.441174 339.763177 
L 583.270476 301.070535 
L 584.099778 394.149933 
L 584.92908 432.04742 
L 585.758382 296.243599 
L 586.587684 321.920254 
L 587.416986 368.438806 
L 588.246288 480.10415 
L 589.07559 362.983455 
L 589.904892 315.431219 
L 590.734194 319.148566 
L 591.563496 316.437917 
L 592.392798 458.154488 
L 593.2221 401.547821 
L 594.051402 363.713753 
L 594.880704 394.460279 
L 595.710006 532.17461 
L 596.539308 379.621728 
L 598.197912 403.267222 
L 599.027214 250.298309 
L 599.856517 345.671143 
L 601.515121 307.166718 
L 602.344423 369.791685 
L 603.173725 419.63477 
L 604.003027 421.769649 
L 604.832329 359.798602 
L 605.661631 368.396654 
L 606.490933 313.522055 
L 607.320235 355.84865 
L 608.149537 427.836619 
L 608.978839 402.872589 
L 609.808141 334.04384 
L 610.637443 490.760075 
L 611.466745 334.502904 
L 612.296047 464.859983 
L 613.125349 353.619865 
L 613.954651 371.655729 
L 614.783953 454.904349 
L 615.613255 271.6273 
L 616.442557 495.467063 
L 617.271859 369.468444 
L 618.101161 529.264327 
L 618.930463 400.123144 
L 620.589067 294.721608 
L 621.418369 394.420076 
L 622.247671 339.963091 
L 623.076973 412.054171 
L 623.906275 387.142399 
L 624.735577 525.423836 
L 625.564879 439.040801 
L 626.394181 278.466341 
L 627.223483 357.05843 
L 628.052786 348.489205 
L 628.882088 288.241849 
L 629.71139 401.170319 
L 630.540692 379.214277 
L 631.369994 366.341939 
L 632.199296 275.039577 
L 633.028598 515.830893 
L 633.8579 241.86836 
L 634.687202 380.667795 
L 635.516504 334.832875 
L 636.345806 354.148501 
L 637.175108 266.056565 
L 638.00441 478.631877 
L 638.833712 258.895783 
L 639.663014 331.423413 
L 640.492316 351.979282 
L 641.321618 213.527221 
L 642.15092 400.868642 
L 642.980222 445.772767 
L 643.809524 200.572167 
L 644.638826 272.705332 
L 645.468128 382.777448 
L 646.29743 452.394126 
L 647.126732 229.201843 
L 647.956034 403.402891 
L 648.785336 286.827008 
L 649.614638 266.161289 
L 650.44394 380.329303 
L 651.273242 330.207683 
L 652.102544 268.253593 
L 652.931846 323.400316 
L 653.761148 277.752923 
L 654.59045 253.248392 
L 655.419752 403.113292 
L 656.249055 230.40421 
L 657.078357 386.279901 
L 657.907659 470.515454 
L 658.736961 259.558748 
L 659.566263 319.350016 
L 660.395565 431.062424 
L 661.224867 312.731364 
L 662.054169 281.664446 
L 662.883471 308.71143 
L 663.712773 452.101387 
L 664.542075 356.156602 
L 665.371377 473.518348 
L 666.200679 298.099997 
L 667.029981 383.21143 
L 667.859283 391.751402 
L 668.688585 439.362464 
L 669.517887 326.909551 
L 670.347189 308.696735 
L 671.176491 344.338898 
L 672.005793 350.687805 
L 673.664397 435.339984 
L 674.493699 413.906696 
L 675.323001 508.502207 
L 676.152303 256.031416 
L 676.981605 380.899076 
L 677.810907 460.681971 
L 678.640209 464.997782 
L 679.469511 356.202592 
L 680.298813 306.066331 
L 681.128115 312.609639 
L 681.957417 468.861628 
L 682.786719 271.294126 
L 683.616021 269.731391 
L 684.445324 380.989887 
L 685.274626 322.714569 
L 686.103928 360.89809 
L 686.93323 407.837509 
L 687.762532 578.27894 
L 688.591834 384.726046 
L 689.421136 406.037073 
L 690.250438 355.0701 
L 691.07974 390.367476 
L 692.738344 339.048422 
L 693.567646 296.414448 
L 694.396948 479.212162 
L 696.055552 550.533629 
L 697.714156 434.079257 
L 699.37276 258.78314 
L 700.202062 440.832744 
L 701.031364 445.597847 
L 701.860666 367.65287 
L 702.689968 347.968465 
L 703.51927 400.972637 
L 704.348572 405.640732 
L 705.177874 252.810795 
L 706.007176 365.166321 
L 706.836478 377.74079 
L 707.66578 385.534145 
L 708.495082 346.659542 
L 709.324384 236.55783 
L 710.153686 390.653462 
L 710.982988 469.968642 
L 711.81229 446.820867 
L 712.641593 408.994798 
L 713.470895 339.848895 
L 714.300197 439.619434 
L 715.129499 400.728785 
L 715.958801 387.355785 
L 716.788103 370.877095 
L 717.617405 402.80293 
L 718.446707 376.841449 
L 719.276009 344.007047 
L 720.105311 211.399093 
L 720.934613 376.085058 
L 721.763915 443.640516 
L 723.422519 211.388981 
L 724.251821 300.972707 
L 725.081123 329.686141 
L 725.910425 385.126059 
L 726.739727 307.362894 
L 727.569029 455.815241 
L 729.227633 200.26682 
L 730.886237 347.863971 
L 731.715539 349.526781 
L 732.544841 317.958161 
L 733.374143 435.835682 
L 735.032747 280.144707 
L 735.862049 341.61123 
L 736.691351 504.078199 
L 737.520653 334.083597 
L 738.349955 467.61534 
L 739.179257 364.429124 
L 740.008559 322.23004 
L 740.837861 368.163566 
L 741.667164 313.728325 
L 742.496466 241.293919 
L 743.325768 410.224168 
L 744.15507 375.009306 
L 744.984372 266.519682 
L 745.813674 343.622666 
L 746.642976 445.362907 
L 748.30158 420.123771 
L 749.130882 222.682866 
L 749.960184 271.673072 
L 750.789486 465.823212 
L 751.618788 333.16271 
L 752.44809 336.040062 
L 753.277392 367.418437 
L 754.106694 518.840312 
L 754.935996 451.756765 
L 755.765298 409.22401 
L 756.5946 304.084182 
L 757.423902 309.386681 
L 758.253204 353.876036 
L 759.082506 429.868217 
L 759.911808 288.49573 
L 760.74111 446.331438 
L 761.570412 296.535407 
L 762.399714 358.674615 
L 763.229016 437.500683 
L 764.058318 408.251758 
L 764.88762 365.187562 
L 765.716922 278.403959 
L 766.546224 272.095173 
L 767.375526 448.18311 
L 768.204828 374.867068 
L 769.03413 354.067165 
L 769.863433 435.917891 
L 770.692735 469.732452 
L 771.522037 447.421705 
L 772.351339 461.978752 
L 773.180641 305.330486 
L 774.009943 439.285945 
L 774.839245 416.235535 
L 776.497849 246.578746 
L 777.327151 309.461766 
L 778.156453 346.73366 
L 778.985755 347.549402 
L 779.815057 476.150764 
L 780.644359 353.590215 
L 781.473661 346.336524 
L 782.302963 199.335479 
L 783.132265 374.778339 
L 783.961567 358.558809 
L 784.790869 290.241187 
L 785.620171 428.689604 
L 786.449473 346.764412 
L 787.278775 368.240784 
L 788.108077 393.09969 
L 788.937379 373.149953 
L 789.766681 425.121984 
L 790.595983 222.205018 
L 791.425285 400.04126 
L 792.254587 486.608844 
L 793.083889 406.724697 
L 793.913191 362.77526 
L 794.742493 370.444685 
L 795.571795 266.74954 
L 796.401097 384.820611 
L 797.230399 335.728894 
L 798.059702 308.299035 
L 798.889004 485.048379 
L 799.718306 332.473552 
L 800.547608 274.175602 
L 801.37691 308.512377 
L 802.206212 377.652976 
L 803.035514 333.908267 
L 803.864816 255.412454 
L 804.694118 381.251793 
L 805.52342 348.166634 
L 806.352722 295.644133 
L 807.182024 356.592751 
L 808.011326 394.449546 
L 808.840628 306.921157 
L 809.66993 401.838121 
L 810.499232 365.555223 
L 811.328534 407.430028 
L 812.157836 343.567818 
L 812.987138 291.936283 
L 813.81644 288.131572 
L 814.645742 278.789724 
L 815.475044 388.096744 
L 816.304346 385.875329 
L 817.133648 397.870032 
L 817.96295 392.293098 
L 818.792252 439.894637 
L 819.621554 429.457605 
L 820.450856 423.844775 
L 821.280158 562.191371 
L 822.938762 349.732526 
L 823.768064 330.877896 
L 824.597366 348.55964 
L 825.426668 243.013829 
L 826.255971 345.295413 
L 827.085273 403.662775 
L 827.914575 292.395215 
L 828.743877 354.273438 
L 829.573179 500.714874 
L 830.402481 358.921901 
L 831.231783 310.562841 
L 832.061085 303.399811 
L 832.890387 333.91695 
L 833.719689 475.1231 
L 834.548991 300.108409 
L 835.378293 312.458765 
L 836.207595 289.622712 
L 837.036897 414.244943 
L 837.866199 383.707607 
L 838.695501 405.754674 
L 839.524803 266.306302 
L 840.354105 282.823142 
L 841.183407 349.252676 
L 842.012709 340.859618 
L 842.842011 327.867409 
L 843.671313 263.550483 
L 844.500615 463.84046 
L 845.329917 387.453383 
L 846.159219 262.818876 
L 846.988521 363.647706 
L 847.817823 349.683493 
L 848.647125 352.34815 
L 849.476427 329.96283 
L 850.305729 315.067325 
L 851.135031 464.25422 
L 851.964333 316.860696 
L 852.793635 318.587903 
L 853.622937 473.266938 
L 854.45224 279.217035 
L 855.281542 347.970143 
L 856.110844 437.548771 
L 856.940146 208.287734 
L 857.769448 323.185927 
L 858.59875 392.428311 
L 859.428052 214.168099 
L 860.257354 318.34499 
L 861.086656 475.370052 
L 861.915958 262.636476 
L 862.74526 277.184906 
L 863.574562 353.821058 
L 864.403864 365.490646 
L 865.233166 382.733505 
L 866.062468 416.301656 
L 866.89177 397.603005 
L 867.721072 337.855201 
L 868.550374 326.558226 
L 869.379676 366.917873 
L 870.208978 270.243667 
L 871.03828 388.031919 
L 871.867582 447.998332 
L 872.696884 276.815911 
L 873.526186 260.506512 
L 874.355488 437.696551 
L 875.18479 383.711953 
L 876.014092 365.126078 
L 876.843394 460.151751 
L 877.672696 436.504471 
L 878.501998 559.027762 
L 879.3313 326.89435 
L 880.160602 375.478625 
L 880.989904 310.375305 
L 881.819206 345.287511 
L 882.648509 398.31514 
L 883.477811 377.421249 
L 884.307113 432.225132 
L 885.136415 350.851932 
L 885.965717 348.596149 
L 886.795019 310.08409 
L 887.624321 225.524843 
L 888.453623 333.242099 
L 889.282925 404.690429 
L 890.112227 374.74809 
L 890.941529 349.917165 
L 891.770831 347.674394 
L 892.600133 465.229108 
L 893.429435 426.441082 
L 894.258737 269.391506 
L 895.088039 401.56483 
L 895.917341 358.898882 
L 896.746643 215.038937 
L 897.575945 274.622707 
L 898.405247 463.12053 
L 899.234549 337.282737 
L 900.063851 348.644772 
L 900.893153 476.814672 
L 901.722455 322.616279 
L 902.551757 427.828143 
L 903.381059 288.322555 
L 904.210361 402.765517 
L 905.039663 318.308928 
L 905.868965 356.490679 
L 906.698267 491.274515 
L 907.527569 400.971714 
L 908.356871 375.065405 
L 909.186173 298.774287 
L 910.015475 399.899022 
L 910.844778 231.669333 
L 911.67408 397.571486 
L 912.503382 327.250557 
L 913.332684 371.761787 
L 914.161986 504.067816 
L 914.991288 285.536513 
L 915.82059 422.687463 
L 916.649892 219.136458 
L 917.479194 431.422405 
L 918.308496 286.197727 
L 919.137798 284.415698 
L 919.9671 567.326306 
L 920.796402 547.409044 
L 921.625704 376.079044 
L 922.455006 356.060969 
L 923.284308 357.213408 
L 924.11361 465.483689 
L 924.942912 439.309202 
L 925.772214 339.071797 
L 926.601516 412.975088 
L 927.430818 400.793094 
L 928.26012 290.468092 
L 929.089422 321.42056 
L 929.918724 316.419968 
L 930.748026 452.051143 
L 931.577328 484.369562 
L 932.40663 374.799915 
L 933.235932 286.134474 
L 934.894536 484.174312 
L 935.723838 364.392669 
L 936.55314 370.573467 
L 937.382442 410.464694 
L 938.211744 424.698579 
L 939.041047 318.308676 
L 939.870349 477.491289 
L 940.699651 252.365872 
L 941.528953 251.808428 
L 942.358255 438.861535 
L 943.187557 349.364021 
L 944.016859 398.691799 
L 944.846161 409.73555 
L 945.675463 365.260709 
L 946.504765 472.45042 
L 947.334067 297.060205 
L 948.163369 330.003675 
L 948.992671 384.293271 
L 949.821973 284.005608 
L 950.651275 491.929715 
L 951.480577 453.831984 
L 952.309879 453.707887 
L 953.139181 319.231763 
L 953.968483 399.66273 
L 954.797785 181.325975 
L 955.627087 272.81338 
L 956.456389 261.978734 
L 957.285691 279.431546 
L 958.114993 278.667789 
L 958.944295 496.975465 
L 959.773597 364.744422 
L 960.602899 465.010085 
L 961.432201 394.400824 
L 962.261503 312.55532 
L 963.090805 353.97303 
L 963.920107 516.300609 
L 964.749409 562.407631 
L 965.578711 313.446517 
L 966.408013 270.422838 
L 967.237315 377.144254 
L 968.066618 370.89104 
L 968.89592 232.835568 
L 969.725222 309.444176 
L 970.554524 336.986013 
L 971.383826 494.645702 
L 972.213128 445.799529 
L 973.04243 364.148124 
L 973.871732 420.467736 
L 974.701034 400.095389 
L 975.530336 462.086705 
L 976.359638 390.769978 
L 977.18894 334.22604 
L 978.018242 359.953424 
L 978.847544 343.862569 
L 979.676846 264.061934 
L 980.506148 458.081293 
L 981.33545 309.328521 
L 982.164752 357.77482 
L 982.994054 246.994219 
L 983.823356 430.101774 
L 984.652658 268.055202 
L 985.48196 202.751327 
L 986.311262 278.301976 
L 987.140564 317.39877 
L 987.969866 325.75045 
L 988.799168 303.097135 
L 989.62847 285.054759 
L 990.457772 336.796045 
L 991.287074 321.397893 
L 992.116376 438.510548 
L 992.945678 472.975504 
L 993.77498 233.336113 
L 994.604282 416.765373 
L 995.433584 333.393865 
L 996.262887 445.248874 
L 997.092189 538.269794 
L 997.921491 372.865679 
L 998.750793 393.826613 
L 999.580095 422.15129 
L 1000.409397 411.474062 
L 1001.238699 526.408114 
L 1002.068001 382.764066 
L 1002.897303 295.057111 
L 1003.726605 517.742386 
L 1004.555907 427.120352 
L 1005.385209 367.694418 
L 1006.214511 347.670434 
L 1007.043813 466.275511 
L 1007.873115 525.788479 
L 1008.702417 461.892576 
L 1009.531719 376.706985 
L 1010.361021 405.3057 
L 1011.190323 351.606651 
L 1012.019625 350.239506 
L 1012.848927 325.387928 
L 1013.678229 378.738638 
L 1014.507531 392.096672 
L 1015.336833 397.533834 
L 1016.166135 265.184235 
L 1016.995437 467.789394 
L 1017.824739 259.942914 
L 1018.654041 300.034988 
L 1019.483343 355.700268 
L 1020.312645 267.236886 
L 1021.141947 297.362051 
L 1021.971249 408.444888 
L 1022.800551 374.845243 
L 1023.629853 241.353758 
L 1024.459156 200.975744 
L 1026.11776 440.257253 
L 1027.776364 259.902687 
L 1027.776364 259.902687 
" style="fill:none;stroke:#00ff00;stroke-linecap:square;stroke-width:2.2;"/>
   </g>
   <g id="patch_3">
    <path d="M 157.88 620.44 
L 157.88 54 
" style="fill:none;stroke:#ffffff;stroke-linecap:square;stroke-linejoin:miter;stroke-width:0.8;"/>
   </g>
   <g id="patch_4">
    <path d="M 157.88 620.44 
L 1069.2 620.44 
" style="fill:none;stroke:#ffffff;stroke-linecap:square;stroke-linejoin:miter;stroke-width:0.8;"/>
   </g>
   <g id="text_14">
    <!-- Noise -->
    <defs>
     <path d="M 9.8125 72.90625 
L 23.09375 72.90625 
L 55.421875 11.921875 
L 55.421875 72.90625 
L 64.984375 72.90625 
L 64.984375 0 
L 51.703125 0 
L 19.390625 60.984375 
L 19.390625 0 
L 9.8125 0 
z
" id="DejaVuSans-78"/>
     <path d="M 30.609375 48.390625 
Q 23.390625 48.390625 19.1875 42.75 
Q 14.984375 37.109375 14.984375 27.296875 
Q 14.984375 17.484375 19.15625 11.84375 
Q 23.34375 6.203125 30.609375 6.203125 
Q 37.796875 6.203125 41.984375 11.859375 
Q 46.1875 17.53125 46.1875 27.296875 
Q 46.1875 37.015625 41.984375 42.703125 
Q 37.796875 48.390625 30.609375 48.390625 
z
M 30.609375 56 
Q 42.328125 56 49.015625 48.375 
Q 55.71875 40.765625 55.71875 27.296875 
Q 55.71875 13.875 49.015625 6.21875 
Q 42.328125 -1.421875 30.609375 -1.421875 
Q 18.84375 -1.421875 12.171875 6.21875 
Q 5.515625 13.875 5.515625 27.296875 
Q 5.515625 40.765625 12.171875 48.375 
Q 18.84375 56 30.609375 56 
z
" id="DejaVuSans-111"/>
     <path d="M 44.28125 53.078125 
L 44.28125 44.578125 
Q 40.484375 46.53125 36.375 47.5 
Q 32.28125 48.484375 27.875 48.484375 
Q 21.1875 48.484375 17.84375 46.4375 
Q 14.5 44.390625 14.5 40.28125 
Q 14.5 37.15625 16.890625 35.375 
Q 19.28125 33.59375 26.515625 31.984375 
L 29.59375 31.296875 
Q 39.15625 29.25 43.1875 25.515625 
Q 47.21875 21.78125 47.21875 15.09375 
Q 47.21875 7.46875 41.1875 3.015625 
Q 35.15625 -1.421875 24.609375 -1.421875 
Q 20.21875 -1.421875 15.453125 -0.5625 
Q 10.6875 0.296875 5.421875 2 
L 5.421875 11.28125 
Q 10.40625 8.6875 15.234375 7.390625 
Q 20.0625 6.109375 24.8125 6.109375 
Q 31.15625 6.109375 34.5625 8.28125 
Q 37.984375 10.453125 37.984375 14.40625 
Q 37.984375 18.0625 35.515625 20.015625 
Q 33.0625 21.96875 24.703125 23.78125 
L 21.578125 24.515625 
Q 13.234375 26.265625 9.515625 29.90625 
Q 5.8125 33.546875 5.8125 39.890625 
Q 5.8125 47.609375 11.28125 51.796875 
Q 16.75 56 26.8125 56 
Q 31.78125 56 36.171875 55.265625 
Q 40.578125 54.546875 44.28125 53.078125 
z
" id="DejaVuSans-115"/>
    </defs>
    <g style="fill:#ffffff;" transform="translate(551.123594 44.641406)scale(0.45 -0.45)">
     <use xlink:href="#DejaVuSans-78"/>
     <use x="74.804688" xlink:href="#DejaVuSans-111"/>
     <use x="135.986328" xlink:href="#DejaVuSans-105"/>
     <use x="163.769531" xlink:href="#DejaVuSans-115"/>
     <use x="215.869141" xlink:href="#DejaVuSans-101"/>
    </g>
   </g>
  </g>
 </g>
 <defs>
  <clipPath id="p46fec298e1">
   <rect height="566.44" width="911.32" x="157.88" y="54"/>
  </clipPath>
 </defs>
</svg>
