<?xml version="1.0" encoding="utf-8" standalone="no"?>
<!DOCTYPE svg PUBLIC "-//W3C//DTD SVG 1.1//EN"
  "http://www.w3.org/Graphics/SVG/1.1/DTD/svg11.dtd">
<!-- Created with matplotlib (https://matplotlib.org/) -->
<svg height="720pt" version="1.1" viewBox="0 0 1080 720" width="1080pt" xmlns="http://www.w3.org/2000/svg" xmlns:xlink="http://www.w3.org/1999/xlink">
 <defs>
  <style type="text/css">
*{stroke-linecap:butt;stroke-linejoin:round;}
  </style>
 </defs>
 <g id="figure_1">
  <g id="patch_1">
   <path d="M 0 720 
L 1080 720 
L 1080 0 
L 0 0 
z
" style="fill:#121212;"/>
  </g>
  <g id="axes_1">
   <g id="patch_2">
    <path d="M 149.87 620.44 
L 1069.2 620.44 
L 1069.2 54 
L 149.87 54 
z
" style="fill:#121212;"/>
   </g>
   <g id="matplotlib.axis_1">
    <g id="xtick_1">
     <g id="line2d_1">
      <path clip-path="url(#p746d25dac6)" d="M 191.657727 620.44 
L 191.657727 54 
" style="fill:none;stroke:#ffffff;stroke-linecap:square;stroke-opacity:0.2;stroke-width:0.6;"/>
     </g>
     <g id="line2d_2">
      <defs>
       <path d="M 0 0 
L 0 3.5 
" id="m1aef890db4" style="stroke:#ffffff;stroke-width:0.8;"/>
      </defs>
      <g>
       <use style="fill:#ffffff;stroke:#ffffff;stroke-width:0.8;" x="191.657727" xlink:href="#m1aef890db4" y="620.44"/>
      </g>
     </g>
     <g id="text_1">
      <!-- 0 -->
      <defs>
       <path d="M 31.78125 66.40625 
Q 24.171875 66.40625 20.328125 58.90625 
Q 16.5 51.421875 16.5 36.375 
Q 16.5 21.390625 20.328125 13.890625 
Q 24.171875 6.390625 31.78125 6.390625 
Q 39.453125 6.390625 43.28125 13.890625 
Q 47.125 21.390625 47.125 36.375 
Q 47.125 51.421875 43.28125 58.90625 
Q 39.453125 66.40625 31.78125 66.40625 
z
M 31.78125 74.21875 
Q 44.046875 74.21875 50.515625 64.515625 
Q 56.984375 54.828125 56.984375 36.375 
Q 56.984375 17.96875 50.515625 8.265625 
Q 44.046875 -1.421875 31.78125 -1.421875 
Q 19.53125 -1.421875 13.0625 8.265625 
Q 6.59375 17.96875 6.59375 36.375 
Q 6.59375 54.828125 13.0625 64.515625 
Q 19.53125 74.21875 31.78125 74.21875 
z
" id="DejaVuSans-48"/>
      </defs>
      <g style="fill:#ffffff;" transform="translate(178.932727 657.83375)scale(0.4 -0.4)">
       <use xlink:href="#DejaVuSans-48"/>
      </g>
     </g>
    </g>
    <g id="xtick_2">
     <g id="line2d_3">
      <path clip-path="url(#p746d25dac6)" d="M 358.808636 620.44 
L 358.808636 54 
" style="fill:none;stroke:#ffffff;stroke-linecap:square;stroke-opacity:0.2;stroke-width:0.6;"/>
     </g>
     <g id="line2d_4">
      <g>
       <use style="fill:#ffffff;stroke:#ffffff;stroke-width:0.8;" x="358.808636" xlink:href="#m1aef890db4" y="620.44"/>
      </g>
     </g>
     <g id="text_2">
      <!-- 2 -->
      <defs>
       <path d="M 19.1875 8.296875 
L 53.609375 8.296875 
L 53.609375 0 
L 7.328125 0 
L 7.328125 8.296875 
Q 12.9375 14.109375 22.625 23.890625 
Q 32.328125 33.6875 34.8125 36.53125 
Q 39.546875 41.84375 41.421875 45.53125 
Q 43.3125 49.21875 43.3125 52.78125 
Q 43.3125 58.59375 39.234375 62.25 
Q 35.15625 65.921875 28.609375 65.921875 
Q 23.96875 65.921875 18.8125 64.3125 
Q 13.671875 62.703125 7.8125 59.421875 
L 7.8125 69.390625 
Q 13.765625 71.78125 18.9375 73 
Q 24.125 74.21875 28.421875 74.21875 
Q 39.75 74.21875 46.484375 68.546875 
Q 53.21875 62.890625 53.21875 53.421875 
Q 53.21875 48.921875 51.53125 44.890625 
Q 49.859375 40.875 45.40625 35.40625 
Q 44.1875 33.984375 37.640625 27.21875 
Q 31.109375 20.453125 19.1875 8.296875 
z
" id="DejaVuSans-50"/>
      </defs>
      <g style="fill:#ffffff;" transform="translate(346.083636 657.83375)scale(0.4 -0.4)">
       <use xlink:href="#DejaVuSans-50"/>
      </g>
     </g>
    </g>
    <g id="xtick_3">
     <g id="line2d_5">
      <path clip-path="url(#p746d25dac6)" d="M 525.959545 620.44 
L 525.959545 54 
" style="fill:none;stroke:#ffffff;stroke-linecap:square;stroke-opacity:0.2;stroke-width:0.6;"/>
     </g>
     <g id="line2d_6">
      <g>
       <use style="fill:#ffffff;stroke:#ffffff;stroke-width:0.8;" x="525.959545" xlink:href="#m1aef890db4" y="620.44"/>
      </g>
     </g>
     <g id="text_3">
      <!-- 4 -->
      <defs>
       <path d="M 37.796875 64.3125 
L 12.890625 25.390625 
L 37.796875 25.390625 
z
M 35.203125 72.90625 
L 47.609375 72.90625 
L 47.609375 25.390625 
L 58.015625 25.390625 
L 58.015625 17.1875 
L 47.609375 17.1875 
L 47.609375 0 
L 37.796875 0 
L 37.796875 17.1875 
L 4.890625 17.1875 
L 4.890625 26.703125 
z
" id="DejaVuSans-52"/>
      </defs>
      <g style="fill:#ffffff;" transform="translate(513.234545 657.83375)scale(0.4 -0.4)">
       <use xlink:href="#DejaVuSans-52"/>
      </g>
     </g>
    </g>
    <g id="xtick_4">
     <g id="line2d_7">
      <path clip-path="url(#p746d25dac6)" d="M 693.110455 620.44 
L 693.110455 54 
" style="fill:none;stroke:#ffffff;stroke-linecap:square;stroke-opacity:0.2;stroke-width:0.6;"/>
     </g>
     <g id="line2d_8">
      <g>
       <use style="fill:#ffffff;stroke:#ffffff;stroke-width:0.8;" x="693.110455" xlink:href="#m1aef890db4" y="620.44"/>
      </g>
     </g>
     <g id="text_4">
      <!-- 6 -->
      <defs>
       <path d="M 33.015625 40.375 
Q 26.375 40.375 22.484375 35.828125 
Q 18.609375 31.296875 18.609375 23.390625 
Q 18.609375 15.53125 22.484375 10.953125 
Q 26.375 6.390625 33.015625 6.390625 
Q 39.65625 6.390625 43.53125 10.953125 
Q 47.40625 15.53125 47.40625 23.390625 
Q 47.40625 31.296875 43.53125 35.828125 
Q 39.65625 40.375 33.015625 40.375 
z
M 52.59375 71.296875 
L 52.59375 62.3125 
Q 48.875 64.0625 45.09375 64.984375 
Q 41.3125 65.921875 37.59375 65.921875 
Q 27.828125 65.921875 22.671875 59.328125 
Q 17.53125 52.734375 16.796875 39.40625 
Q 19.671875 43.65625 24.015625 45.921875 
Q 28.375 48.1875 33.59375 48.1875 
Q 44.578125 48.1875 50.953125 41.515625 
Q 57.328125 34.859375 57.328125 23.390625 
Q 57.328125 12.15625 50.6875 5.359375 
Q 44.046875 -1.421875 33.015625 -1.421875 
Q 20.359375 -1.421875 13.671875 8.265625 
Q 6.984375 17.96875 6.984375 36.375 
Q 6.984375 53.65625 15.1875 63.9375 
Q 23.390625 74.21875 37.203125 74.21875 
Q 40.921875 74.21875 44.703125 73.484375 
Q 48.484375 72.75 52.59375 71.296875 
z
" id="DejaVuSans-54"/>
      </defs>
      <g style="fill:#ffffff;" transform="translate(680.385455 657.83375)scale(0.4 -0.4)">
       <use xlink:href="#DejaVuSans-54"/>
      </g>
     </g>
    </g>
    <g id="xtick_5">
     <g id="line2d_9">
      <path clip-path="url(#p746d25dac6)" d="M 860.261364 620.44 
L 860.261364 54 
" style="fill:none;stroke:#ffffff;stroke-linecap:square;stroke-opacity:0.2;stroke-width:0.6;"/>
     </g>
     <g id="line2d_10">
      <g>
       <use style="fill:#ffffff;stroke:#ffffff;stroke-width:0.8;" x="860.261364" xlink:href="#m1aef890db4" y="620.44"/>
      </g>
     </g>
     <g id="text_5">
      <!-- 8 -->
      <defs>
       <path d="M 31.78125 34.625 
Q 24.75 34.625 20.71875 30.859375 
Q 16.703125 27.09375 16.703125 20.515625 
Q 16.703125 13.921875 20.71875 10.15625 
Q 24.75 6.390625 31.78125 6.390625 
Q 38.8125 6.390625 42.859375 10.171875 
Q 46.921875 13.96875 46.921875 20.515625 
Q 46.921875 27.09375 42.890625 30.859375 
Q 38.875 34.625 31.78125 34.625 
z
M 21.921875 38.8125 
Q 15.578125 40.375 12.03125 44.71875 
Q 8.5 49.078125 8.5 55.328125 
Q 8.5 64.0625 14.71875 69.140625 
Q 20.953125 74.21875 31.78125 74.21875 
Q 42.671875 74.21875 48.875 69.140625 
Q 55.078125 64.0625 55.078125 55.328125 
Q 55.078125 49.078125 51.53125 44.71875 
Q 48 40.375 41.703125 38.8125 
Q 48.828125 37.15625 52.796875 32.3125 
Q 56.78125 27.484375 56.78125 20.515625 
Q 56.78125 9.90625 50.3125 4.234375 
Q 43.84375 -1.421875 31.78125 -1.421875 
Q 19.734375 -1.421875 13.25 4.234375 
Q 6.78125 9.90625 6.78125 20.515625 
Q 6.78125 27.484375 10.78125 32.3125 
Q 14.796875 37.15625 21.921875 38.8125 
z
M 18.3125 54.390625 
Q 18.3125 48.734375 21.84375 45.5625 
Q 25.390625 42.390625 31.78125 42.390625 
Q 38.140625 42.390625 41.71875 45.5625 
Q 45.3125 48.734375 45.3125 54.390625 
Q 45.3125 60.0625 41.71875 63.234375 
Q 38.140625 66.40625 31.78125 66.40625 
Q 25.390625 66.40625 21.84375 63.234375 
Q 18.3125 60.0625 18.3125 54.390625 
z
" id="DejaVuSans-56"/>
      </defs>
      <g style="fill:#ffffff;" transform="translate(847.536364 657.83375)scale(0.4 -0.4)">
       <use xlink:href="#DejaVuSans-56"/>
      </g>
     </g>
    </g>
    <g id="xtick_6">
     <g id="line2d_11">
      <path clip-path="url(#p746d25dac6)" d="M 1027.412273 620.44 
L 1027.412273 54 
" style="fill:none;stroke:#ffffff;stroke-linecap:square;stroke-opacity:0.2;stroke-width:0.6;"/>
     </g>
     <g id="line2d_12">
      <g>
       <use style="fill:#ffffff;stroke:#ffffff;stroke-width:0.8;" x="1027.412273" xlink:href="#m1aef890db4" y="620.44"/>
      </g>
     </g>
     <g id="text_6">
      <!-- 10 -->
      <defs>
       <path d="M 12.40625 8.296875 
L 28.515625 8.296875 
L 28.515625 63.921875 
L 10.984375 60.40625 
L 10.984375 69.390625 
L 28.421875 72.90625 
L 38.28125 72.90625 
L 38.28125 8.296875 
L 54.390625 8.296875 
L 54.390625 0 
L 12.40625 0 
z
" id="DejaVuSans-49"/>
      </defs>
      <g style="fill:#ffffff;" transform="translate(1001.962273 657.83375)scale(0.4 -0.4)">
       <use xlink:href="#DejaVuSans-49"/>
       <use x="63.623047" xlink:href="#DejaVuSans-48"/>
      </g>
     </g>
    </g>
    <g id="text_7">
     <!-- Time -->
     <defs>
      <path d="M -0.296875 72.90625 
L 61.375 72.90625 
L 61.375 64.59375 
L 35.5 64.59375 
L 35.5 0 
L 25.59375 0 
L 25.59375 64.59375 
L -0.296875 64.59375 
z
" id="DejaVuSans-84"/>
      <path d="M 9.421875 54.6875 
L 18.40625 54.6875 
L 18.40625 0 
L 9.421875 0 
z
M 9.421875 75.984375 
L 18.40625 75.984375 
L 18.40625 64.59375 
L 9.421875 64.59375 
z
" id="DejaVuSans-105"/>
      <path d="M 52 44.1875 
Q 55.375 50.25 60.0625 53.125 
Q 64.75 56 71.09375 56 
Q 79.640625 56 84.28125 50.015625 
Q 88.921875 44.046875 88.921875 33.015625 
L 88.921875 0 
L 79.890625 0 
L 79.890625 32.71875 
Q 79.890625 40.578125 77.09375 44.375 
Q 74.3125 48.1875 68.609375 48.1875 
Q 61.625 48.1875 57.5625 43.546875 
Q 53.515625 38.921875 53.515625 30.90625 
L 53.515625 0 
L 44.484375 0 
L 44.484375 32.71875 
Q 44.484375 40.625 41.703125 44.40625 
Q 38.921875 48.1875 33.109375 48.1875 
Q 26.21875 48.1875 22.15625 43.53125 
Q 18.109375 38.875 18.109375 30.90625 
L 18.109375 0 
L 9.078125 0 
L 9.078125 54.6875 
L 18.109375 54.6875 
L 18.109375 46.1875 
Q 21.1875 51.21875 25.484375 53.609375 
Q 29.78125 56 35.6875 56 
Q 41.65625 56 45.828125 52.96875 
Q 50 49.953125 52 44.1875 
z
" id="DejaVuSans-109"/>
      <path d="M 56.203125 29.59375 
L 56.203125 25.203125 
L 14.890625 25.203125 
Q 15.484375 15.921875 20.484375 11.0625 
Q 25.484375 6.203125 34.421875 6.203125 
Q 39.59375 6.203125 44.453125 7.46875 
Q 49.3125 8.734375 54.109375 11.28125 
L 54.109375 2.78125 
Q 49.265625 0.734375 44.1875 -0.34375 
Q 39.109375 -1.421875 33.890625 -1.421875 
Q 20.796875 -1.421875 13.15625 6.1875 
Q 5.515625 13.8125 5.515625 26.8125 
Q 5.515625 40.234375 12.765625 48.109375 
Q 20.015625 56 32.328125 56 
Q 43.359375 56 49.78125 48.890625 
Q 56.203125 41.796875 56.203125 29.59375 
z
M 47.21875 32.234375 
Q 47.125 39.59375 43.09375 43.984375 
Q 39.0625 48.390625 32.421875 48.390625 
Q 24.90625 48.390625 20.390625 44.140625 
Q 15.875 39.890625 15.1875 32.171875 
z
" id="DejaVuSans-101"/>
     </defs>
     <g style="fill:#ffffff;" transform="translate(559.985 700.54625)scale(0.4 -0.4)">
      <use xlink:href="#DejaVuSans-84"/>
      <use x="61.037109" xlink:href="#DejaVuSans-105"/>
      <use x="88.820312" xlink:href="#DejaVuSans-109"/>
      <use x="186.232422" xlink:href="#DejaVuSans-101"/>
     </g>
    </g>
   </g>
   <g id="matplotlib.axis_2">
    <g id="ytick_1">
     <g id="line2d_13">
      <path clip-path="url(#p746d25dac6)" d="M 149.87 571.317861 
L 1069.2 571.317861 
" style="fill:none;stroke:#ffffff;stroke-linecap:square;stroke-opacity:0.2;stroke-width:0.6;"/>
     </g>
     <g id="line2d_14">
      <defs>
       <path d="M 0 0 
L -3.5 0 
" id="mcdd544a3ed" style="stroke:#ffffff;stroke-width:0.8;"/>
      </defs>
      <g>
       <use style="fill:#ffffff;stroke:#ffffff;stroke-width:0.8;" x="149.87" xlink:href="#mcdd544a3ed" y="571.317861"/>
      </g>
     </g>
     <g id="text_8">
      <!-- 0 -->
      <g style="fill:#ffffff;" transform="translate(117.42 586.514736)scale(0.4 -0.4)">
       <use xlink:href="#DejaVuSans-48"/>
      </g>
     </g>
    </g>
    <g id="ytick_2">
     <g id="line2d_15">
      <path clip-path="url(#p746d25dac6)" d="M 149.87 482.365385 
L 1069.2 482.365385 
" style="fill:none;stroke:#ffffff;stroke-linecap:square;stroke-opacity:0.2;stroke-width:0.6;"/>
     </g>
     <g id="line2d_16">
      <g>
       <use style="fill:#ffffff;stroke:#ffffff;stroke-width:0.8;" x="149.87" xlink:href="#mcdd544a3ed" y="482.365385"/>
      </g>
     </g>
     <g id="text_9">
      <!-- 2 -->
      <g style="fill:#ffffff;" transform="translate(117.42 497.56226)scale(0.4 -0.4)">
       <use xlink:href="#DejaVuSans-50"/>
      </g>
     </g>
    </g>
    <g id="ytick_3">
     <g id="line2d_17">
      <path clip-path="url(#p746d25dac6)" d="M 149.87 393.412909 
L 1069.2 393.412909 
" style="fill:none;stroke:#ffffff;stroke-linecap:square;stroke-opacity:0.2;stroke-width:0.6;"/>
     </g>
     <g id="line2d_18">
      <g>
       <use style="fill:#ffffff;stroke:#ffffff;stroke-width:0.8;" x="149.87" xlink:href="#mcdd544a3ed" y="393.412909"/>
      </g>
     </g>
     <g id="text_10">
      <!-- 4 -->
      <g style="fill:#ffffff;" transform="translate(117.42 408.609784)scale(0.4 -0.4)">
       <use xlink:href="#DejaVuSans-52"/>
      </g>
     </g>
    </g>
    <g id="ytick_4">
     <g id="line2d_19">
      <path clip-path="url(#p746d25dac6)" d="M 149.87 304.460434 
L 1069.2 304.460434 
" style="fill:none;stroke:#ffffff;stroke-linecap:square;stroke-opacity:0.2;stroke-width:0.6;"/>
     </g>
     <g id="line2d_20">
      <g>
       <use style="fill:#ffffff;stroke:#ffffff;stroke-width:0.8;" x="149.87" xlink:href="#mcdd544a3ed" y="304.460434"/>
      </g>
     </g>
     <g id="text_11">
      <!-- 6 -->
      <g style="fill:#ffffff;" transform="translate(117.42 319.657309)scale(0.4 -0.4)">
       <use xlink:href="#DejaVuSans-54"/>
      </g>
     </g>
    </g>
    <g id="ytick_5">
     <g id="line2d_21">
      <path clip-path="url(#p746d25dac6)" d="M 149.87 215.507958 
L 1069.2 215.507958 
" style="fill:none;stroke:#ffffff;stroke-linecap:square;stroke-opacity:0.2;stroke-width:0.6;"/>
     </g>
     <g id="line2d_22">
      <g>
       <use style="fill:#ffffff;stroke:#ffffff;stroke-width:0.8;" x="149.87" xlink:href="#mcdd544a3ed" y="215.507958"/>
      </g>
     </g>
     <g id="text_12">
      <!-- 8 -->
      <g style="fill:#ffffff;" transform="translate(117.42 230.704833)scale(0.4 -0.4)">
       <use xlink:href="#DejaVuSans-56"/>
      </g>
     </g>
    </g>
    <g id="ytick_6">
     <g id="line2d_23">
      <path clip-path="url(#p746d25dac6)" d="M 149.87 126.555483 
L 1069.2 126.555483 
" style="fill:none;stroke:#ffffff;stroke-linecap:square;stroke-opacity:0.2;stroke-width:0.6;"/>
     </g>
     <g id="line2d_24">
      <g>
       <use style="fill:#ffffff;stroke:#ffffff;stroke-width:0.8;" x="149.87" xlink:href="#mcdd544a3ed" y="126.555483"/>
      </g>
     </g>
     <g id="text_13">
      <!-- 10 -->
      <g style="fill:#ffffff;" transform="translate(91.97 141.752358)scale(0.4 -0.4)">
       <use xlink:href="#DejaVuSans-49"/>
       <use x="63.623047" xlink:href="#DejaVuSans-48"/>
      </g>
     </g>
    </g>
    <g id="text_14">
     <!-- Amplitude -->
     <defs>
      <path d="M 34.1875 63.1875 
L 20.796875 26.90625 
L 47.609375 26.90625 
z
M 28.609375 72.90625 
L 39.796875 72.90625 
L 67.578125 0 
L 57.328125 0 
L 50.6875 18.703125 
L 17.828125 18.703125 
L 11.1875 0 
L 0.78125 0 
z
" id="DejaVuSans-65"/>
      <path d="M 18.109375 8.203125 
L 18.109375 -20.796875 
L 9.078125 -20.796875 
L 9.078125 54.6875 
L 18.109375 54.6875 
L 18.109375 46.390625 
Q 20.953125 51.265625 25.265625 53.625 
Q 29.59375 56 35.59375 56 
Q 45.5625 56 51.78125 48.09375 
Q 58.015625 40.1875 58.015625 27.296875 
Q 58.015625 14.40625 51.78125 6.484375 
Q 45.5625 -1.421875 35.59375 -1.421875 
Q 29.59375 -1.421875 25.265625 0.953125 
Q 20.953125 3.328125 18.109375 8.203125 
z
M 48.6875 27.296875 
Q 48.6875 37.203125 44.609375 42.84375 
Q 40.53125 48.484375 33.40625 48.484375 
Q 26.265625 48.484375 22.1875 42.84375 
Q 18.109375 37.203125 18.109375 27.296875 
Q 18.109375 17.390625 22.1875 11.75 
Q 26.265625 6.109375 33.40625 6.109375 
Q 40.53125 6.109375 44.609375 11.75 
Q 48.6875 17.390625 48.6875 27.296875 
z
" id="DejaVuSans-112"/>
      <path d="M 9.421875 75.984375 
L 18.40625 75.984375 
L 18.40625 0 
L 9.421875 0 
z
" id="DejaVuSans-108"/>
      <path d="M 18.3125 70.21875 
L 18.3125 54.6875 
L 36.8125 54.6875 
L 36.8125 47.703125 
L 18.3125 47.703125 
L 18.3125 18.015625 
Q 18.3125 11.328125 20.140625 9.421875 
Q 21.96875 7.515625 27.59375 7.515625 
L 36.8125 7.515625 
L 36.8125 0 
L 27.59375 0 
Q 17.1875 0 13.234375 3.875 
Q 9.28125 7.765625 9.28125 18.015625 
L 9.28125 47.703125 
L 2.6875 47.703125 
L 2.6875 54.6875 
L 9.28125 54.6875 
L 9.28125 70.21875 
z
" id="DejaVuSans-116"/>
      <path d="M 8.5 21.578125 
L 8.5 54.6875 
L 17.484375 54.6875 
L 17.484375 21.921875 
Q 17.484375 14.15625 20.5 10.265625 
Q 23.53125 6.390625 29.59375 6.390625 
Q 36.859375 6.390625 41.078125 11.03125 
Q 45.3125 15.671875 45.3125 23.6875 
L 45.3125 54.6875 
L 54.296875 54.6875 
L 54.296875 0 
L 45.3125 0 
L 45.3125 8.40625 
Q 42.046875 3.421875 37.71875 1 
Q 33.40625 -1.421875 27.6875 -1.421875 
Q 18.265625 -1.421875 13.375 4.4375 
Q 8.5 10.296875 8.5 21.578125 
z
M 31.109375 56 
z
" id="DejaVuSans-117"/>
      <path d="M 45.40625 46.390625 
L 45.40625 75.984375 
L 54.390625 75.984375 
L 54.390625 0 
L 45.40625 0 
L 45.40625 8.203125 
Q 42.578125 3.328125 38.25 0.953125 
Q 33.9375 -1.421875 27.875 -1.421875 
Q 17.96875 -1.421875 11.734375 6.484375 
Q 5.515625 14.40625 5.515625 27.296875 
Q 5.515625 40.1875 11.734375 48.09375 
Q 17.96875 56 27.875 56 
Q 33.9375 56 38.25 53.625 
Q 42.578125 51.265625 45.40625 46.390625 
z
M 14.796875 27.296875 
Q 14.796875 17.390625 18.875 11.75 
Q 22.953125 6.109375 30.078125 6.109375 
Q 37.203125 6.109375 41.296875 11.75 
Q 45.40625 17.390625 45.40625 27.296875 
Q 45.40625 37.203125 41.296875 42.84375 
Q 37.203125 48.484375 30.078125 48.484375 
Q 22.953125 48.484375 18.875 42.84375 
Q 14.796875 37.203125 14.796875 27.296875 
z
" id="DejaVuSans-100"/>
     </defs>
     <g style="fill:#ffffff;" transform="translate(79.65125 439.710625)rotate(-90)scale(0.4 -0.4)">
      <use xlink:href="#DejaVuSans-65"/>
      <use x="68.408203" xlink:href="#DejaVuSans-109"/>
      <use x="165.820312" xlink:href="#DejaVuSans-112"/>
      <use x="229.296875" xlink:href="#DejaVuSans-108"/>
      <use x="257.080078" xlink:href="#DejaVuSans-105"/>
      <use x="284.863281" xlink:href="#DejaVuSans-116"/>
      <use x="324.072266" xlink:href="#DejaVuSans-117"/>
      <use x="387.451172" xlink:href="#DejaVuSans-100"/>
      <use x="450.927734" xlink:href="#DejaVuSans-101"/>
     </g>
    </g>
   </g>
   <g id="line2d_25">
    <path clip-path="url(#p746d25dac6)" d="M 191.657727 541.041822 
L 192.494318 535.146496 
L 193.33091 520.337799 
L 194.167501 515.745027 
L 195.004092 538.578457 
L 195.840683 528.928165 
L 196.677274 524.906148 
L 197.513865 512.489157 
L 198.350456 521.531112 
L 199.187048 532.62634 
L 200.023639 531.125068 
L 200.86023 568.743952 
L 201.696821 528.003128 
L 202.533412 539.944052 
L 203.370003 539.324645 
L 204.206594 531.912941 
L 205.043185 550.068133 
L 205.879777 553.224825 
L 206.716368 521.265145 
L 207.552959 522.255935 
L 208.38955 539.33226 
L 209.226141 544.570642 
L 210.062732 564.569725 
L 210.899323 565.787146 
L 211.735915 526.4919 
L 212.572506 533.502013 
L 213.409097 545.7207 
L 214.245688 567.717817 
L 215.082279 559.249226 
L 215.91887 540.823249 
L 216.755461 561.454173 
L 217.592053 557.994334 
L 218.428644 571.105047 
L 219.265235 538.732137 
L 220.101826 545.428906 
L 220.938417 561.60259 
L 221.775008 543.17392 
L 222.611599 558.21532 
L 223.44819 551.717519 
L 224.284782 554.87583 
L 225.121373 568.515713 
L 225.957964 550.058772 
L 226.794555 567.673395 
L 227.631146 551.993236 
L 228.467737 571.006054 
L 229.304328 573.794219 
L 230.14092 574.948822 
L 230.977511 569.34716 
L 231.814102 558.594105 
L 232.650693 565.97819 
L 233.487284 586.377855 
L 234.323875 571.745468 
L 235.160466 576.142151 
L 235.997058 574.046673 
L 236.833649 585.85231 
L 237.67024 571.240543 
L 238.506831 584.711251 
L 239.343422 579.027333 
L 240.180013 594.692727 
L 241.016604 561.640488 
L 241.853195 593.035885 
L 242.689787 581.975143 
L 243.526378 582.801825 
L 244.362969 583.418137 
L 245.19956 553.087969 
L 246.036151 560.963526 
L 246.872742 593.277017 
L 247.709333 566.054629 
L 248.545925 562.841304 
L 249.382516 572.093371 
L 250.219107 583.245178 
L 251.055698 566.886883 
L 251.892289 569.674837 
L 252.72888 567.450463 
L 253.565471 533.85411 
L 254.402063 575.44637 
L 255.238654 571.675573 
L 256.075245 544.648537 
L 256.911836 563.526029 
L 257.748427 551.32739 
L 258.585018 524.498875 
L 259.421609 555.525952 
L 260.2582 566.532609 
L 261.094792 550.505122 
L 261.931383 543.260491 
L 262.767974 532.921764 
L 263.604565 547.06406 
L 264.441156 538.491128 
L 265.277747 518.031135 
L 266.114338 548.302066 
L 266.95093 544.994593 
L 267.787521 528.333953 
L 268.624112 514.055904 
L 269.460703 509.06632 
L 270.297294 554.40387 
L 271.133885 525.691027 
L 271.970476 523.597022 
L 272.807068 518.195816 
L 273.643659 525.467066 
L 274.48025 495.259061 
L 275.316841 498.373902 
L 276.153432 495.462508 
L 276.990023 508.954047 
L 277.826614 498.113157 
L 278.663205 491.675643 
L 279.499797 475.287687 
L 280.336388 506.796802 
L 281.172979 483.275036 
L 282.00957 502.34608 
L 282.846161 493.859472 
L 283.682752 495.379959 
L 284.519343 479.0391 
L 285.355935 493.107468 
L 286.192526 499.706163 
L 287.029117 470.68029 
L 287.865708 468.48322 
L 288.702299 490.597308 
L 289.53889 471.671125 
L 290.375481 476.450969 
L 291.212073 471.662017 
L 292.048664 480.798702 
L 292.885255 475.784455 
L 293.721846 476.755222 
L 294.558437 473.396887 
L 295.395028 467.623433 
L 296.231619 445.705503 
L 297.06821 457.025173 
L 297.904802 473.201914 
L 298.741393 471.462112 
L 299.577984 456.988592 
L 300.414575 435.843093 
L 301.251166 487.250724 
L 302.087757 456.887017 
L 302.924348 459.616219 
L 303.76094 476.193233 
L 304.597531 479.200143 
L 305.434122 461.48018 
L 306.270713 480.937048 
L 307.107304 485.113976 
L 307.943895 493.676247 
L 308.780486 467.518237 
L 309.617078 501.572577 
L 310.453669 457.717347 
L 311.29026 490.712561 
L 312.126851 497.439606 
L 312.963442 480.59639 
L 313.800033 491.695687 
L 314.636624 463.630634 
L 315.473215 473.734535 
L 316.309807 494.638531 
L 317.146398 486.916365 
L 317.982989 486.672833 
L 318.81958 505.401534 
L 319.656171 475.843782 
L 320.492762 489.790385 
L 321.329353 475.190412 
L 322.165945 481.464849 
L 323.002536 485.472171 
L 323.839127 500.782868 
L 324.675718 498.581986 
L 325.512309 499.630295 
L 326.3489 490.840522 
L 327.185491 488.526888 
L 328.022083 527.237599 
L 328.858674 520.344315 
L 329.695265 517.943828 
L 330.531856 491.391163 
L 331.368447 504.264946 
L 332.205038 509.658667 
L 333.041629 485.9138 
L 333.87822 511.736938 
L 334.714812 505.136549 
L 335.551403 508.228543 
L 336.387994 503.189385 
L 337.224585 505.048426 
L 338.061176 533.824854 
L 338.897767 545.543838 
L 339.734358 497.947935 
L 340.57095 514.158101 
L 341.407541 517.147708 
L 342.244132 522.735104 
L 343.080723 500.099342 
L 343.917314 518.920799 
L 344.753905 500.395086 
L 345.590496 489.416931 
L 346.427088 508.771113 
L 347.263679 542.487972 
L 348.10027 508.818772 
L 348.936861 511.528157 
L 349.773452 502.958258 
L 350.610043 491.905123 
L 351.446634 522.853463 
L 352.283225 512.037078 
L 353.119817 498.337318 
L 353.956408 502.185999 
L 354.792999 529.303834 
L 355.62959 508.479006 
L 356.466181 502.352819 
L 357.302772 501.902152 
L 358.139363 506.883244 
L 358.975955 495.464988 
L 359.812546 472.033068 
L 360.649137 526.829311 
L 361.485728 521.392205 
L 362.322319 490.912311 
L 363.15891 504.878142 
L 363.995501 510.064269 
L 364.832093 487.779182 
L 365.668684 496.758444 
L 366.505275 491.290434 
L 367.341866 491.862491 
L 368.178457 471.443886 
L 369.015048 485.43398 
L 369.851639 479.578744 
L 370.688231 480.465468 
L 371.524822 455.251775 
L 372.361413 459.911763 
L 373.198004 476.826103 
L 374.034595 477.617509 
L 374.871186 473.633143 
L 375.707777 494.647246 
L 376.544368 468.72048 
L 377.38096 429.558356 
L 378.217551 462.636746 
L 379.054142 464.077353 
L 379.890733 463.677839 
L 380.727324 462.850914 
L 381.563915 443.601071 
L 382.400506 447.249534 
L 383.237098 442.71495 
L 384.073689 442.57668 
L 384.91028 430.901568 
L 385.746871 459.10246 
L 386.583462 432.789168 
L 387.420053 444.826074 
L 388.256644 436.709375 
L 389.093236 450.525866 
L 390.766418 427.251536 
L 391.603009 454.875442 
L 392.4396 440.439375 
L 393.276191 420.67426 
L 394.112782 452.235361 
L 394.949373 419.484906 
L 395.785965 411.152717 
L 396.622556 420.662348 
L 397.459147 408.775832 
L 398.295738 420.183456 
L 399.132329 424.197652 
L 399.96892 441.834677 
L 400.805511 416.932216 
L 401.642103 422.880315 
L 402.478694 418.855163 
L 403.315285 404.933586 
L 404.151876 417.184279 
L 404.988467 404.00963 
L 405.825058 406.208418 
L 406.661649 437.239616 
L 407.498241 422.971737 
L 408.334832 411.473008 
L 409.171423 435.774608 
L 410.008014 420.081077 
L 410.844605 437.665322 
L 411.681196 418.020286 
L 412.517787 390.553005 
L 413.354378 444.823317 
L 414.19097 423.608567 
L 415.027561 419.144957 
L 415.864152 449.305427 
L 416.700743 418.783708 
L 417.537334 432.805256 
L 418.373925 430.046042 
L 419.210516 446.236693 
L 420.047108 429.096391 
L 420.883699 441.001423 
L 421.72029 406.131122 
L 422.556881 418.346609 
L 423.393472 434.318672 
L 424.230063 435.511181 
L 425.066654 433.260741 
L 425.903246 446.260265 
L 426.739837 446.676827 
L 427.576428 438.724677 
L 428.413019 437.230987 
L 429.24961 453.236167 
L 430.086201 421.85667 
L 430.922792 425.838625 
L 431.759383 447.330257 
L 432.595975 460.269488 
L 433.432566 448.029747 
L 434.269157 419.46674 
L 435.105748 459.144412 
L 435.942339 476.759632 
L 436.77893 458.328942 
L 437.615521 446.367973 
L 438.452113 454.687272 
L 439.288704 448.417098 
L 440.125295 476.767694 
L 440.961886 450.373933 
L 441.798477 449.173639 
L 442.635068 450.002435 
L 443.471659 453.115385 
L 444.308251 493.314447 
L 445.981433 454.057384 
L 446.818024 465.636995 
L 447.654615 445.39884 
L 448.491206 470.451961 
L 449.327797 463.764852 
L 450.164388 446.358899 
L 451.837571 480.353189 
L 452.674162 476.544783 
L 453.510753 493.106695 
L 454.347344 463.147204 
L 455.183935 464.378328 
L 456.020526 476.970795 
L 456.857118 472.440755 
L 457.693709 466.410901 
L 458.5303 472.933523 
L 459.366891 451.106818 
L 460.203482 448.397459 
L 461.040073 475.630781 
L 462.713256 457.668991 
L 463.549847 469.572835 
L 464.386438 453.111231 
L 465.223029 447.621024 
L 466.05962 462.494587 
L 466.896211 455.906872 
L 467.732802 428.249903 
L 468.569393 446.458111 
L 469.405985 455.488852 
L 470.242576 454.81222 
L 471.079167 446.999011 
L 471.915758 437.220789 
L 472.752349 451.294693 
L 473.58894 435.050041 
L 474.425531 443.542012 
L 475.262123 426.743167 
L 476.098714 429.398602 
L 476.935305 414.587407 
L 477.771896 419.999201 
L 478.608487 439.449561 
L 479.445078 432.490483 
L 480.281669 430.090174 
L 481.118261 407.184299 
L 481.954852 427.211942 
L 482.791443 406.943733 
L 483.628034 429.377385 
L 484.464625 395.770201 
L 485.301216 410.935142 
L 486.137807 398.061536 
L 486.974398 406.093754 
L 487.81099 381.243571 
L 489.484172 404.584786 
L 490.320763 406.066019 
L 491.157354 409.993578 
L 491.993945 377.505726 
L 492.830536 378.277103 
L 493.667128 375.728465 
L 494.503719 398.360167 
L 496.176901 382.095424 
L 497.013492 388.218451 
L 497.850083 386.143611 
L 498.686674 388.893656 
L 499.523266 368.623011 
L 500.359857 388.177733 
L 501.196448 377.480769 
L 502.033039 383.452756 
L 502.86963 380.474823 
L 503.706221 380.070225 
L 504.542812 376.470604 
L 505.379403 368.022177 
L 506.215995 385.237177 
L 507.052586 385.113032 
L 507.889177 366.988615 
L 508.725768 375.145665 
L 509.562359 370.556781 
L 510.39895 355.179378 
L 511.235541 371.894832 
L 512.072133 362.261726 
L 512.908724 371.914976 
L 513.745315 389.721446 
L 514.581906 378.681499 
L 515.418497 382.863647 
L 516.255088 384.067741 
L 517.091679 365.916486 
L 517.928271 371.705479 
L 518.764862 337.915393 
L 519.601453 379.360234 
L 520.438044 372.555793 
L 522.111226 390.036331 
L 522.947817 377.384187 
L 523.784408 381.533408 
L 524.621 396.216701 
L 525.457591 407.91287 
L 526.294182 405.189086 
L 527.130773 388.978644 
L 527.967364 365.26497 
L 528.803955 407.68674 
L 529.640546 392.019634 
L 530.477138 382.40589 
L 531.313729 399.887473 
L 532.15032 394.48114 
L 532.986911 404.613477 
L 533.823502 398.71738 
L 534.660093 396.913394 
L 535.496684 377.907129 
L 536.333276 424.225196 
L 537.169867 421.597531 
L 538.006458 406.593755 
L 538.843049 387.47148 
L 539.67964 431.549042 
L 540.516231 404.460269 
L 541.352822 411.694162 
L 542.189414 404.052094 
L 543.026005 414.541634 
L 543.862596 411.572442 
L 544.699187 428.716592 
L 545.535778 417.347625 
L 546.372369 422.005843 
L 547.20896 404.567181 
L 548.045551 429.346382 
L 548.882143 404.012492 
L 549.718734 434.621891 
L 550.555325 420.021037 
L 551.391916 426.546781 
L 552.228507 435.752094 
L 553.065098 412.268398 
L 553.901689 418.125378 
L 555.574872 419.534161 
L 556.411463 411.628507 
L 557.248054 425.887501 
L 558.084645 423.41835 
L 558.921236 425.790926 
L 559.757827 397.661929 
L 560.594419 428.916098 
L 561.43101 436.442675 
L 562.267601 412.287615 
L 563.104192 437.114601 
L 563.940783 402.731721 
L 564.777374 424.171624 
L 565.613965 411.256444 
L 566.450556 394.258124 
L 567.287148 395.826898 
L 568.123739 413.09001 
L 568.96033 420.266871 
L 569.796921 377.900694 
L 570.633512 406.02557 
L 571.470103 408.618946 
L 572.306694 408.357375 
L 573.143286 410.765324 
L 573.979877 383.910126 
L 574.816468 383.390286 
L 575.653059 405.785596 
L 576.48965 387.292401 
L 577.326241 397.498481 
L 578.162832 402.479758 
L 578.999424 378.989487 
L 579.836015 376.418901 
L 580.672606 385.134093 
L 581.509197 384.897403 
L 582.345788 371.38888 
L 583.182379 378.80059 
L 584.01897 382.439789 
L 584.855561 372.506009 
L 585.692153 351.268708 
L 586.528744 350.145279 
L 587.365335 369.936808 
L 588.201926 363.262351 
L 589.038517 366.932993 
L 589.875108 381.318913 
L 590.711699 365.276586 
L 591.548291 356.608797 
L 592.384882 344.551585 
L 593.221473 323.078983 
L 594.058064 341.039959 
L 594.894655 338.58765 
L 595.731246 331.050932 
L 596.567837 351.110241 
L 597.404429 302.182932 
L 598.24102 339.992429 
L 599.077611 332.948566 
L 599.914202 331.857193 
L 600.750793 338.539914 
L 601.587384 342.835874 
L 602.423975 310.253744 
L 603.260566 313.11565 
L 604.097158 328.70556 
L 604.933749 319.620395 
L 605.77034 349.399555 
L 606.606931 321.083674 
L 607.443522 350.625116 
L 608.280113 317.453973 
L 609.116704 324.59225 
L 609.953296 324.772365 
L 610.789887 327.239305 
L 611.626478 329.102601 
L 612.463069 312.501411 
L 613.29966 339.977225 
L 614.136251 326.719333 
L 614.972842 322.886019 
L 615.809434 315.454792 
L 616.646025 335.858091 
L 617.482616 340.022508 
L 618.319207 302.648957 
L 619.155798 311.973108 
L 619.992389 300.270641 
L 620.82898 335.719904 
L 621.665571 326.778315 
L 622.502163 331.937739 
L 623.338754 322.947132 
L 624.175345 315.506395 
L 625.011936 300.869522 
L 625.848527 349.309722 
L 627.521709 338.586861 
L 628.358301 318.590984 
L 629.194892 313.72592 
L 630.868074 357.342942 
L 631.704665 336.777336 
L 632.541256 322.811467 
L 633.377847 322.264945 
L 634.214439 314.421243 
L 635.05103 340.009202 
L 635.887621 354.015414 
L 636.724212 360.053056 
L 637.560803 328.021027 
L 638.397394 360.11833 
L 639.233985 364.143625 
L 640.070576 335.492273 
L 640.907168 338.488125 
L 641.743759 354.041048 
L 642.58035 333.799299 
L 643.416941 334.321236 
L 644.253532 378.344818 
L 645.090123 346.00261 
L 645.926714 338.73175 
L 646.763306 358.747619 
L 647.599897 365.300937 
L 648.436488 357.215345 
L 649.273079 367.122081 
L 650.10967 383.170448 
L 650.946261 352.020233 
L 651.782852 347.835579 
L 652.619444 367.581492 
L 653.456035 356.358237 
L 654.292626 365.638837 
L 655.129217 360.241213 
L 655.965808 363.879494 
L 656.802399 358.513701 
L 657.63899 340.396459 
L 658.475581 373.641026 
L 659.312173 365.961012 
L 660.148764 353.988618 
L 660.985355 334.891149 
L 661.821946 353.242076 
L 663.495128 369.616493 
L 664.331719 354.184453 
L 665.168311 358.650659 
L 666.004902 367.141588 
L 666.841493 335.101404 
L 667.678084 354.161754 
L 668.514675 334.365293 
L 669.351266 366.86867 
L 670.187857 343.550225 
L 671.024449 363.200421 
L 671.86104 358.259366 
L 672.697631 345.470449 
L 673.534222 364.995078 
L 674.370813 334.137329 
L 675.207404 340.828683 
L 676.043995 363.463777 
L 676.880586 336.702986 
L 677.717178 348.881464 
L 678.553769 317.636292 
L 679.39036 321.023903 
L 680.226951 337.492546 
L 681.063542 336.095374 
L 681.900133 322.448292 
L 682.736724 334.882093 
L 683.573316 336.804389 
L 684.409907 339.539436 
L 685.246498 313.818036 
L 686.083089 312.800597 
L 686.91968 315.156468 
L 687.756271 313.402691 
L 688.592862 341.120038 
L 689.429454 315.542668 
L 690.266045 269.415881 
L 691.102636 310.51794 
L 691.939227 311.647722 
L 692.775818 315.384048 
L 693.612409 273.623176 
L 694.449 311.213361 
L 695.285592 286.379127 
L 696.122183 304.723338 
L 696.958774 314.884757 
L 697.795365 299.160783 
L 698.631956 300.262522 
L 699.468547 284.671816 
L 700.305138 280.993003 
L 701.141729 271.694681 
L 701.978321 301.309938 
L 702.814912 302.392785 
L 703.651503 291.145964 
L 704.488094 290.023159 
L 705.324685 254.385203 
L 706.161276 255.085555 
L 706.997867 267.197264 
L 707.834459 238.917632 
L 708.67105 268.218015 
L 709.507641 276.275735 
L 710.344232 253.577552 
L 711.180823 261.623249 
L 712.017414 253.074343 
L 712.854005 267.608632 
L 713.690597 273.624454 
L 714.527188 251.735675 
L 715.363779 244.918805 
L 716.20037 243.693103 
L 717.036961 247.443064 
L 717.873552 263.542995 
L 718.710143 261.922411 
L 719.546734 261.034152 
L 720.383326 243.698447 
L 721.219917 256.143907 
L 722.056508 251.648708 
L 722.893099 259.17111 
L 723.72969 250.313877 
L 724.566281 248.149154 
L 725.402872 241.438124 
L 727.076055 271.409489 
L 727.912646 274.499503 
L 728.749237 231.407254 
L 729.585828 261.312709 
L 730.422419 256.40303 
L 731.25901 275.561792 
L 732.095602 279.88097 
L 732.932193 261.27908 
L 733.768784 286.261193 
L 734.605375 281.175955 
L 735.441966 253.613718 
L 736.278557 245.973044 
L 737.115148 250.799524 
L 737.951739 291.237196 
L 738.788331 270.679923 
L 739.624922 255.208168 
L 740.461513 268.689148 
L 741.298104 280.30175 
L 742.134695 285.406958 
L 742.971286 294.167493 
L 743.807877 270.292539 
L 744.644469 259.144309 
L 745.48106 278.512289 
L 746.317651 275.213123 
L 747.154242 273.158339 
L 748.827424 300.351988 
L 750.500607 273.361336 
L 751.337198 284.80486 
L 752.173789 306.552643 
L 753.01038 301.101528 
L 753.846971 266.764505 
L 754.683562 296.288285 
L 755.520153 288.181949 
L 756.356744 286.618172 
L 757.193336 299.74542 
L 758.029927 291.350639 
L 758.866518 280.863097 
L 759.703109 290.296018 
L 760.5397 293.461923 
L 761.376291 286.080723 
L 762.212882 289.848565 
L 763.049474 274.754764 
L 763.886065 308.228272 
L 764.722656 305.198236 
L 765.559247 273.488722 
L 766.395838 302.506798 
L 767.232429 312.013013 
L 768.06902 291.688865 
L 768.905612 301.619511 
L 769.742203 283.519579 
L 770.578794 314.15684 
L 771.415385 313.803803 
L 772.251976 278.873902 
L 773.088567 268.342985 
L 773.925158 301.275629 
L 774.761749 265.067095 
L 776.434932 291.630573 
L 777.271523 279.360585 
L 778.108114 275.731416 
L 778.944705 292.10065 
L 779.781296 286.606487 
L 780.617887 275.976298 
L 781.454479 278.295632 
L 782.29107 270.999378 
L 783.127661 275.895917 
L 783.964252 286.69026 
L 784.800843 256.89309 
L 785.637434 277.054582 
L 786.474025 255.772213 
L 787.310617 281.536274 
L 788.147208 258.817691 
L 788.983799 244.508333 
L 789.82039 270.335457 
L 790.656981 281.568389 
L 791.493572 246.225166 
L 792.330163 247.263525 
L 793.166754 228.020569 
L 794.003346 274.217172 
L 794.839937 235.194716 
L 795.676528 240.957915 
L 796.513119 252.432894 
L 797.34971 204.746267 
L 798.186301 208.365183 
L 799.022892 252.158938 
L 799.859484 198.987172 
L 800.696075 215.12793 
L 801.532666 218.136021 
L 802.369257 222.056725 
L 803.205848 206.439831 
L 804.042439 213.786504 
L 804.87903 188.188277 
L 805.715622 205.020178 
L 806.552213 232.641947 
L 807.388804 212.186184 
L 808.225395 214.337598 
L 809.061986 237.501647 
L 809.898577 197.629947 
L 810.735168 229.716136 
L 811.571759 226.41094 
L 812.408351 195.900729 
L 813.244942 185.356267 
L 814.081533 203.873866 
L 814.918124 183.320262 
L 815.754715 207.780603 
L 816.591306 191.757583 
L 817.427897 202.63235 
L 818.264489 191.427055 
L 819.10108 207.278403 
L 819.937671 193.292792 
L 820.774262 176.532734 
L 821.610853 191.848647 
L 822.447444 187.759795 
L 823.284035 217.019179 
L 824.120627 164.728249 
L 824.957218 185.815051 
L 825.793809 194.908137 
L 826.6304 217.313166 
L 827.466991 176.144194 
L 828.303582 198.088478 
L 829.140173 168.826277 
L 829.976764 184.189525 
L 830.813356 208.058736 
L 831.649947 208.090784 
L 832.486538 205.035299 
L 833.323129 189.25223 
L 834.15972 201.610134 
L 834.996311 187.915412 
L 835.832902 197.567514 
L 836.669494 192.870911 
L 837.506085 191.679825 
L 838.342676 166.396109 
L 839.179267 195.560269 
L 840.015858 202.085388 
L 840.852449 201.838874 
L 841.68904 180.279443 
L 842.525632 209.965549 
L 843.362223 210.985036 
L 844.198814 224.475659 
L 845.035405 215.683776 
L 845.871996 211.715241 
L 846.708587 214.538371 
L 847.545178 229.675977 
L 848.381769 207.881554 
L 849.218361 213.959695 
L 850.054952 213.739965 
L 850.891543 212.206697 
L 851.728134 226.987898 
L 852.564725 227.594395 
L 853.401316 221.401671 
L 854.237907 232.218917 
L 855.074499 232.207397 
L 855.91109 238.956888 
L 856.747681 221.948077 
L 857.584272 241.153827 
L 858.420863 230.475297 
L 859.257454 208.651305 
L 860.094045 233.512233 
L 860.930637 228.265513 
L 861.767228 229.476988 
L 862.603819 233.786048 
L 863.44041 231.847827 
L 864.277001 238.909809 
L 865.113592 257.454353 
L 865.950183 220.578891 
L 867.623366 255.340962 
L 868.459957 251.502901 
L 869.296548 226.957614 
L 870.133139 256.820829 
L 870.96973 225.070575 
L 871.806321 231.0314 
L 872.642912 245.854269 
L 873.479504 226.009693 
L 874.316095 231.744767 
L 875.152686 249.386117 
L 875.989277 253.878718 
L 876.825868 230.895726 
L 877.662459 240.602377 
L 878.49905 215.195126 
L 879.335642 215.03016 
L 880.172233 228.807302 
L 881.008824 213.590254 
L 881.845415 225.322651 
L 882.682006 216.951886 
L 883.518597 221.301457 
L 884.355188 215.734684 
L 885.19178 219.641319 
L 886.028371 229.745559 
L 886.864962 224.761274 
L 887.701553 200.445305 
L 888.538144 195.347327 
L 889.374735 207.029947 
L 890.211326 208.238866 
L 891.047917 218.875586 
L 891.884509 210.108426 
L 892.7211 202.818687 
L 893.557691 204.087719 
L 894.394282 197.083746 
L 895.230873 205.118811 
L 896.067464 202.614127 
L 896.904055 213.815747 
L 897.740647 188.365977 
L 898.577238 174.345052 
L 899.413829 188.376657 
L 900.25042 189.040209 
L 901.087011 185.575934 
L 902.760193 193.098068 
L 903.596785 167.259245 
L 904.433376 183.634592 
L 905.269967 159.883837 
L 906.106558 150.003324 
L 906.943149 155.380325 
L 907.77974 162.573566 
L 909.452922 138.680111 
L 911.126105 185.050129 
L 911.962696 150.842671 
L 912.799287 170.133186 
L 913.635878 125.542358 
L 914.472469 144.836918 
L 915.30906 148.860828 
L 916.145652 137.357975 
L 916.982243 138.667822 
L 917.818834 156.828783 
L 918.655425 141.567248 
L 919.492016 132.274722 
L 920.328607 133.010678 
L 921.165198 137.575374 
L 922.00179 132.705501 
L 922.838381 145.424441 
L 923.674972 149.776331 
L 924.511563 148.132108 
L 925.348154 137.360184 
L 926.184745 161.793458 
L 927.021336 151.930142 
L 927.857927 162.726642 
L 928.694519 136.414556 
L 929.53111 132.639447 
L 930.367701 159.446393 
L 931.204292 123.70661 
L 932.040883 130.452005 
L 932.877474 133.338569 
L 933.714065 160.013474 
L 934.550657 130.512037 
L 935.387248 115.035955 
L 936.223839 130.513745 
L 937.06043 136.984665 
L 937.897021 136.644048 
L 938.733612 156.260967 
L 939.570203 132.978814 
L 940.406795 117.433533 
L 941.243386 178.845404 
L 942.079977 149.262861 
L 942.916568 138.753869 
L 943.753159 166.595916 
L 944.58975 147.024875 
L 945.426341 159.267388 
L 946.262932 159.646443 
L 947.099524 179.210654 
L 947.936115 156.42625 
L 948.772706 152.64034 
L 949.609297 152.573956 
L 951.282479 159.868567 
L 952.11907 167.702975 
L 952.955662 167.092969 
L 953.792253 166.29073 
L 954.628844 160.071034 
L 955.465435 172.664875 
L 956.302026 174.480971 
L 957.138617 163.596199 
L 957.975208 162.221586 
L 958.8118 170.471696 
L 959.648391 159.30346 
L 960.484982 142.024281 
L 961.321573 184.770761 
L 962.158164 169.222148 
L 962.994755 169.315985 
L 963.831346 196.859636 
L 964.667937 175.532455 
L 965.504529 179.328009 
L 966.34112 173.720918 
L 967.177711 175.42538 
L 968.014302 171.383334 
L 968.850893 189.361427 
L 969.687484 191.220917 
L 970.524075 171.166139 
L 971.360667 177.428932 
L 972.197258 174.850822 
L 973.033849 214.581626 
L 973.87044 191.816348 
L 974.707031 201.304641 
L 975.543622 171.156792 
L 976.380213 176.845729 
L 977.216805 210.487466 
L 978.053396 199.961823 
L 978.889987 160.076186 
L 979.726578 163.147681 
L 980.563169 167.897997 
L 981.39976 218.114875 
L 982.236351 193.918111 
L 983.072942 188.469485 
L 983.909534 180.255142 
L 984.746125 196.082962 
L 985.582716 192.799103 
L 986.419307 182.451422 
L 987.255898 181.336297 
L 988.092489 192.643379 
L 988.92908 184.872088 
L 989.765672 167.706265 
L 990.602263 181.032716 
L 991.438854 158.658459 
L 992.275445 190.921306 
L 993.112036 180.676264 
L 993.948627 183.782805 
L 994.785218 180.668081 
L 995.62181 153.320438 
L 996.458401 140.055735 
L 997.294992 166.292522 
L 998.131583 168.260835 
L 998.968174 151.544019 
L 999.804765 142.984918 
L 1000.641356 157.657856 
L 1001.477947 163.951401 
L 1002.314539 158.537761 
L 1003.15113 145.46685 
L 1003.987721 151.481193 
L 1004.824312 152.187412 
L 1005.660903 159.118666 
L 1006.497494 140.191152 
L 1007.334085 125.264297 
L 1008.170677 102.348124 
L 1009.007268 135.807703 
L 1009.843859 130.737385 
L 1010.68045 137.819803 
L 1011.517041 132.693694 
L 1012.353632 139.803296 
L 1013.190223 83.261489 
L 1014.026815 110.177157 
L 1014.863406 121.564097 
L 1015.699997 83.819919 
L 1016.536588 122.403276 
L 1017.373179 118.271683 
L 1018.20977 101.722866 
L 1019.046361 91.885825 
L 1019.882952 117.670984 
L 1020.719544 92.234234 
L 1021.556135 95.999333 
L 1022.392726 84.099503 
L 1023.229317 96.833429 
L 1024.065908 113.413557 
L 1024.902499 100.892674 
L 1025.73909 79.747273 
L 1026.575682 92.378421 
L 1027.412273 95.797356 
L 1027.412273 95.797356 
" style="fill:none;stroke:#00ffff;stroke-linecap:square;stroke-width:2.2;"/>
   </g>
   <g id="patch_3">
    <path d="M 149.87 620.44 
L 149.87 54 
" style="fill:none;stroke:#ffffff;stroke-linecap:square;stroke-linejoin:miter;stroke-width:0.8;"/>
   </g>
   <g id="patch_4">
    <path d="M 149.87 620.44 
L 1069.2 620.44 
" style="fill:none;stroke:#ffffff;stroke-linecap:square;stroke-linejoin:miter;stroke-width:0.8;"/>
   </g>
   <g id="text_15">
    <!-- Measured Signal -->
    <defs>
     <path d="M 9.8125 72.90625 
L 24.515625 72.90625 
L 43.109375 23.296875 
L 61.8125 72.90625 
L 76.515625 72.90625 
L 76.515625 0 
L 66.890625 0 
L 66.890625 64.015625 
L 48.09375 14.015625 
L 38.1875 14.015625 
L 19.390625 64.015625 
L 19.390625 0 
L 9.8125 0 
z
" id="DejaVuSans-77"/>
     <path d="M 34.28125 27.484375 
Q 23.390625 27.484375 19.1875 25 
Q 14.984375 22.515625 14.984375 16.5 
Q 14.984375 11.71875 18.140625 8.90625 
Q 21.296875 6.109375 26.703125 6.109375 
Q 34.1875 6.109375 38.703125 11.40625 
Q 43.21875 16.703125 43.21875 25.484375 
L 43.21875 27.484375 
z
M 52.203125 31.203125 
L 52.203125 0 
L 43.21875 0 
L 43.21875 8.296875 
Q 40.140625 3.328125 35.546875 0.953125 
Q 30.953125 -1.421875 24.3125 -1.421875 
Q 15.921875 -1.421875 10.953125 3.296875 
Q 6 8.015625 6 15.921875 
Q 6 25.140625 12.171875 29.828125 
Q 18.359375 34.515625 30.609375 34.515625 
L 43.21875 34.515625 
L 43.21875 35.40625 
Q 43.21875 41.609375 39.140625 45 
Q 35.0625 48.390625 27.6875 48.390625 
Q 23 48.390625 18.546875 47.265625 
Q 14.109375 46.140625 10.015625 43.890625 
L 10.015625 52.203125 
Q 14.9375 54.109375 19.578125 55.046875 
Q 24.21875 56 28.609375 56 
Q 40.484375 56 46.34375 49.84375 
Q 52.203125 43.703125 52.203125 31.203125 
z
" id="DejaVuSans-97"/>
     <path d="M 44.28125 53.078125 
L 44.28125 44.578125 
Q 40.484375 46.53125 36.375 47.5 
Q 32.28125 48.484375 27.875 48.484375 
Q 21.1875 48.484375 17.84375 46.4375 
Q 14.5 44.390625 14.5 40.28125 
Q 14.5 37.15625 16.890625 35.375 
Q 19.28125 33.59375 26.515625 31.984375 
L 29.59375 31.296875 
Q 39.15625 29.25 43.1875 25.515625 
Q 47.21875 21.78125 47.21875 15.09375 
Q 47.21875 7.46875 41.1875 3.015625 
Q 35.15625 -1.421875 24.609375 -1.421875 
Q 20.21875 -1.421875 15.453125 -0.5625 
Q 10.6875 0.296875 5.421875 2 
L 5.421875 11.28125 
Q 10.40625 8.6875 15.234375 7.390625 
Q 20.0625 6.109375 24.8125 6.109375 
Q 31.15625 6.109375 34.5625 8.28125 
Q 37.984375 10.453125 37.984375 14.40625 
Q 37.984375 18.0625 35.515625 20.015625 
Q 33.0625 21.96875 24.703125 23.78125 
L 21.578125 24.515625 
Q 13.234375 26.265625 9.515625 29.90625 
Q 5.8125 33.546875 5.8125 39.890625 
Q 5.8125 47.609375 11.28125 51.796875 
Q 16.75 56 26.8125 56 
Q 31.78125 56 36.171875 55.265625 
Q 40.578125 54.546875 44.28125 53.078125 
z
" id="DejaVuSans-115"/>
     <path d="M 41.109375 46.296875 
Q 39.59375 47.171875 37.8125 47.578125 
Q 36.03125 48 33.890625 48 
Q 26.265625 48 22.1875 43.046875 
Q 18.109375 38.09375 18.109375 28.8125 
L 18.109375 0 
L 9.078125 0 
L 9.078125 54.6875 
L 18.109375 54.6875 
L 18.109375 46.1875 
Q 20.953125 51.171875 25.484375 53.578125 
Q 30.03125 56 36.53125 56 
Q 37.453125 56 38.578125 55.875 
Q 39.703125 55.765625 41.0625 55.515625 
z
" id="DejaVuSans-114"/>
     <path id="DejaVuSans-32"/>
     <path d="M 53.515625 70.515625 
L 53.515625 60.890625 
Q 47.90625 63.578125 42.921875 64.890625 
Q 37.9375 66.21875 33.296875 66.21875 
Q 25.25 66.21875 20.875 63.09375 
Q 16.5 59.96875 16.5 54.203125 
Q 16.5 49.359375 19.40625 46.890625 
Q 22.3125 44.4375 30.421875 42.921875 
L 36.375 41.703125 
Q 47.40625 39.59375 52.65625 34.296875 
Q 57.90625 29 57.90625 20.125 
Q 57.90625 9.515625 50.796875 4.046875 
Q 43.703125 -1.421875 29.984375 -1.421875 
Q 24.8125 -1.421875 18.96875 -0.25 
Q 13.140625 0.921875 6.890625 3.21875 
L 6.890625 13.375 
Q 12.890625 10.015625 18.65625 8.296875 
Q 24.421875 6.59375 29.984375 6.59375 
Q 38.421875 6.59375 43.015625 9.90625 
Q 47.609375 13.234375 47.609375 19.390625 
Q 47.609375 24.75 44.3125 27.78125 
Q 41.015625 30.8125 33.5 32.328125 
L 27.484375 33.5 
Q 16.453125 35.6875 11.515625 40.375 
Q 6.59375 45.0625 6.59375 53.421875 
Q 6.59375 63.09375 13.40625 68.65625 
Q 20.21875 74.21875 32.171875 74.21875 
Q 37.3125 74.21875 42.625 73.28125 
Q 47.953125 72.359375 53.515625 70.515625 
z
" id="DejaVuSans-83"/>
     <path d="M 45.40625 27.984375 
Q 45.40625 37.75 41.375 43.109375 
Q 37.359375 48.484375 30.078125 48.484375 
Q 22.859375 48.484375 18.828125 43.109375 
Q 14.796875 37.75 14.796875 27.984375 
Q 14.796875 18.265625 18.828125 12.890625 
Q 22.859375 7.515625 30.078125 7.515625 
Q 37.359375 7.515625 41.375 12.890625 
Q 45.40625 18.265625 45.40625 27.984375 
z
M 54.390625 6.78125 
Q 54.390625 -7.171875 48.1875 -13.984375 
Q 42 -20.796875 29.203125 -20.796875 
Q 24.46875 -20.796875 20.265625 -20.09375 
Q 16.0625 -19.390625 12.109375 -17.921875 
L 12.109375 -9.1875 
Q 16.0625 -11.328125 19.921875 -12.34375 
Q 23.78125 -13.375 27.78125 -13.375 
Q 36.625 -13.375 41.015625 -8.765625 
Q 45.40625 -4.15625 45.40625 5.171875 
L 45.40625 9.625 
Q 42.625 4.78125 38.28125 2.390625 
Q 33.9375 0 27.875 0 
Q 17.828125 0 11.671875 7.65625 
Q 5.515625 15.328125 5.515625 27.984375 
Q 5.515625 40.671875 11.671875 48.328125 
Q 17.828125 56 27.875 56 
Q 33.9375 56 38.28125 53.609375 
Q 42.625 51.21875 45.40625 46.390625 
L 45.40625 54.6875 
L 54.390625 54.6875 
z
" id="DejaVuSans-103"/>
     <path d="M 54.890625 33.015625 
L 54.890625 0 
L 45.90625 0 
L 45.90625 32.71875 
Q 45.90625 40.484375 42.875 44.328125 
Q 39.84375 48.1875 33.796875 48.1875 
Q 26.515625 48.1875 22.3125 43.546875 
Q 18.109375 38.921875 18.109375 30.90625 
L 18.109375 0 
L 9.078125 0 
L 9.078125 54.6875 
L 18.109375 54.6875 
L 18.109375 46.1875 
Q 21.34375 51.125 25.703125 53.5625 
Q 30.078125 56 35.796875 56 
Q 45.21875 56 50.046875 50.171875 
Q 54.890625 44.34375 54.890625 33.015625 
z
" id="DejaVuSans-110"/>
    </defs>
    <g style="fill:#ffffff;" transform="translate(422.869375 44.641406)scale(0.45 -0.45)">
     <use xlink:href="#DejaVuSans-77"/>
     <use x="86.279297" xlink:href="#DejaVuSans-101"/>
     <use x="147.802734" xlink:href="#DejaVuSans-97"/>
     <use x="209.082031" xlink:href="#DejaVuSans-115"/>
     <use x="261.181641" xlink:href="#DejaVuSans-117"/>
     <use x="324.560547" xlink:href="#DejaVuSans-114"/>
     <use x="365.642578" xlink:href="#DejaVuSans-101"/>
     <use x="427.166016" xlink:href="#DejaVuSans-100"/>
     <use x="490.642578" xlink:href="#DejaVuSans-32"/>
     <use x="522.429688" xlink:href="#DejaVuSans-83"/>
     <use x="585.90625" xlink:href="#DejaVuSans-105"/>
     <use x="613.689453" xlink:href="#DejaVuSans-103"/>
     <use x="677.166016" xlink:href="#DejaVuSans-110"/>
     <use x="740.544922" xlink:href="#DejaVuSans-97"/>
     <use x="801.824219" xlink:href="#DejaVuSans-108"/>
    </g>
   </g>
  </g>
 </g>
 <defs>
  <clipPath id="p746d25dac6">
   <rect height="566.44" width="919.33" x="149.87" y="54"/>
  </clipPath>
 </defs>
</svg>
