<?xml version="1.0" encoding="utf-8" standalone="no"?>
<!DOCTYPE svg PUBLIC "-//W3C//DTD SVG 1.1//EN"
  "http://www.w3.org/Graphics/SVG/1.1/DTD/svg11.dtd">
<!-- Created with matplotlib (https://matplotlib.org/) -->
<svg height="720pt" version="1.1" viewBox="0 0 1080 720" width="1080pt" xmlns="http://www.w3.org/2000/svg" xmlns:xlink="http://www.w3.org/1999/xlink">
 <defs>
  <style type="text/css">
*{stroke-linecap:butt;stroke-linejoin:round;}
  </style>
 </defs>
 <g id="figure_1">
  <g id="patch_1">
   <path d="M 0 720 
L 1080 720 
L 1080 0 
L 0 0 
z
" style="fill:#121212;"/>
  </g>
  <g id="axes_1">
   <g id="patch_2">
    <path d="M 111.62 620.44 
L 1069.2 620.44 
L 1069.2 54 
L 111.62 54 
z
" style="fill:#121212;"/>
   </g>
   <g id="matplotlib.axis_1">
    <g id="xtick_1">
     <g id="line2d_1">
      <path clip-path="url(#p82c08fe338)" d="M 155.146364 620.44 
L 155.146364 54 
" style="fill:none;stroke:#ffffff;stroke-linecap:square;stroke-opacity:0.2;stroke-width:0.6;"/>
     </g>
     <g id="line2d_2">
      <defs>
       <path d="M 0 0 
L 0 3.5 
" id="mbbf3a27c12" style="stroke:#ffffff;stroke-width:0.8;"/>
      </defs>
      <g>
       <use style="fill:#ffffff;stroke:#ffffff;stroke-width:0.8;" x="155.146364" xlink:href="#mbbf3a27c12" y="620.44"/>
      </g>
     </g>
     <g id="text_1">
      <!-- 0 -->
      <defs>
       <path d="M 31.78125 66.40625 
Q 24.171875 66.40625 20.328125 58.90625 
Q 16.5 51.421875 16.5 36.375 
Q 16.5 21.390625 20.328125 13.890625 
Q 24.171875 6.390625 31.78125 6.390625 
Q 39.453125 6.390625 43.28125 13.890625 
Q 47.125 21.390625 47.125 36.375 
Q 47.125 51.421875 43.28125 58.90625 
Q 39.453125 66.40625 31.78125 66.40625 
z
M 31.78125 74.21875 
Q 44.046875 74.21875 50.515625 64.515625 
Q 56.984375 54.828125 56.984375 36.375 
Q 56.984375 17.96875 50.515625 8.265625 
Q 44.046875 -1.421875 31.78125 -1.421875 
Q 19.53125 -1.421875 13.0625 8.265625 
Q 6.59375 17.96875 6.59375 36.375 
Q 6.59375 54.828125 13.0625 64.515625 
Q 19.53125 74.21875 31.78125 74.21875 
z
" id="DejaVuSans-48"/>
      </defs>
      <g style="fill:#ffffff;" transform="translate(142.421364 657.83375)scale(0.4 -0.4)">
       <use xlink:href="#DejaVuSans-48"/>
      </g>
     </g>
    </g>
    <g id="xtick_2">
     <g id="line2d_3">
      <path clip-path="url(#p82c08fe338)" d="M 329.251818 620.44 
L 329.251818 54 
" style="fill:none;stroke:#ffffff;stroke-linecap:square;stroke-opacity:0.2;stroke-width:0.6;"/>
     </g>
     <g id="line2d_4">
      <g>
       <use style="fill:#ffffff;stroke:#ffffff;stroke-width:0.8;" x="329.251818" xlink:href="#mbbf3a27c12" y="620.44"/>
      </g>
     </g>
     <g id="text_2">
      <!-- 2 -->
      <defs>
       <path d="M 19.1875 8.296875 
L 53.609375 8.296875 
L 53.609375 0 
L 7.328125 0 
L 7.328125 8.296875 
Q 12.9375 14.109375 22.625 23.890625 
Q 32.328125 33.6875 34.8125 36.53125 
Q 39.546875 41.84375 41.421875 45.53125 
Q 43.3125 49.21875 43.3125 52.78125 
Q 43.3125 58.59375 39.234375 62.25 
Q 35.15625 65.921875 28.609375 65.921875 
Q 23.96875 65.921875 18.8125 64.3125 
Q 13.671875 62.703125 7.8125 59.421875 
L 7.8125 69.390625 
Q 13.765625 71.78125 18.9375 73 
Q 24.125 74.21875 28.421875 74.21875 
Q 39.75 74.21875 46.484375 68.546875 
Q 53.21875 62.890625 53.21875 53.421875 
Q 53.21875 48.921875 51.53125 44.890625 
Q 49.859375 40.875 45.40625 35.40625 
Q 44.1875 33.984375 37.640625 27.21875 
Q 31.109375 20.453125 19.1875 8.296875 
z
" id="DejaVuSans-50"/>
      </defs>
      <g style="fill:#ffffff;" transform="translate(316.526818 657.83375)scale(0.4 -0.4)">
       <use xlink:href="#DejaVuSans-50"/>
      </g>
     </g>
    </g>
    <g id="xtick_3">
     <g id="line2d_5">
      <path clip-path="url(#p82c08fe338)" d="M 503.357273 620.44 
L 503.357273 54 
" style="fill:none;stroke:#ffffff;stroke-linecap:square;stroke-opacity:0.2;stroke-width:0.6;"/>
     </g>
     <g id="line2d_6">
      <g>
       <use style="fill:#ffffff;stroke:#ffffff;stroke-width:0.8;" x="503.357273" xlink:href="#mbbf3a27c12" y="620.44"/>
      </g>
     </g>
     <g id="text_3">
      <!-- 4 -->
      <defs>
       <path d="M 37.796875 64.3125 
L 12.890625 25.390625 
L 37.796875 25.390625 
z
M 35.203125 72.90625 
L 47.609375 72.90625 
L 47.609375 25.390625 
L 58.015625 25.390625 
L 58.015625 17.1875 
L 47.609375 17.1875 
L 47.609375 0 
L 37.796875 0 
L 37.796875 17.1875 
L 4.890625 17.1875 
L 4.890625 26.703125 
z
" id="DejaVuSans-52"/>
      </defs>
      <g style="fill:#ffffff;" transform="translate(490.632273 657.83375)scale(0.4 -0.4)">
       <use xlink:href="#DejaVuSans-52"/>
      </g>
     </g>
    </g>
    <g id="xtick_4">
     <g id="line2d_7">
      <path clip-path="url(#p82c08fe338)" d="M 677.462727 620.44 
L 677.462727 54 
" style="fill:none;stroke:#ffffff;stroke-linecap:square;stroke-opacity:0.2;stroke-width:0.6;"/>
     </g>
     <g id="line2d_8">
      <g>
       <use style="fill:#ffffff;stroke:#ffffff;stroke-width:0.8;" x="677.462727" xlink:href="#mbbf3a27c12" y="620.44"/>
      </g>
     </g>
     <g id="text_4">
      <!-- 6 -->
      <defs>
       <path d="M 33.015625 40.375 
Q 26.375 40.375 22.484375 35.828125 
Q 18.609375 31.296875 18.609375 23.390625 
Q 18.609375 15.53125 22.484375 10.953125 
Q 26.375 6.390625 33.015625 6.390625 
Q 39.65625 6.390625 43.53125 10.953125 
Q 47.40625 15.53125 47.40625 23.390625 
Q 47.40625 31.296875 43.53125 35.828125 
Q 39.65625 40.375 33.015625 40.375 
z
M 52.59375 71.296875 
L 52.59375 62.3125 
Q 48.875 64.0625 45.09375 64.984375 
Q 41.3125 65.921875 37.59375 65.921875 
Q 27.828125 65.921875 22.671875 59.328125 
Q 17.53125 52.734375 16.796875 39.40625 
Q 19.671875 43.65625 24.015625 45.921875 
Q 28.375 48.1875 33.59375 48.1875 
Q 44.578125 48.1875 50.953125 41.515625 
Q 57.328125 34.859375 57.328125 23.390625 
Q 57.328125 12.15625 50.6875 5.359375 
Q 44.046875 -1.421875 33.015625 -1.421875 
Q 20.359375 -1.421875 13.671875 8.265625 
Q 6.984375 17.96875 6.984375 36.375 
Q 6.984375 53.65625 15.1875 63.9375 
Q 23.390625 74.21875 37.203125 74.21875 
Q 40.921875 74.21875 44.703125 73.484375 
Q 48.484375 72.75 52.59375 71.296875 
z
" id="DejaVuSans-54"/>
      </defs>
      <g style="fill:#ffffff;" transform="translate(664.737727 657.83375)scale(0.4 -0.4)">
       <use xlink:href="#DejaVuSans-54"/>
      </g>
     </g>
    </g>
    <g id="xtick_5">
     <g id="line2d_9">
      <path clip-path="url(#p82c08fe338)" d="M 851.568182 620.44 
L 851.568182 54 
" style="fill:none;stroke:#ffffff;stroke-linecap:square;stroke-opacity:0.2;stroke-width:0.6;"/>
     </g>
     <g id="line2d_10">
      <g>
       <use style="fill:#ffffff;stroke:#ffffff;stroke-width:0.8;" x="851.568182" xlink:href="#mbbf3a27c12" y="620.44"/>
      </g>
     </g>
     <g id="text_5">
      <!-- 8 -->
      <defs>
       <path d="M 31.78125 34.625 
Q 24.75 34.625 20.71875 30.859375 
Q 16.703125 27.09375 16.703125 20.515625 
Q 16.703125 13.921875 20.71875 10.15625 
Q 24.75 6.390625 31.78125 6.390625 
Q 38.8125 6.390625 42.859375 10.171875 
Q 46.921875 13.96875 46.921875 20.515625 
Q 46.921875 27.09375 42.890625 30.859375 
Q 38.875 34.625 31.78125 34.625 
z
M 21.921875 38.8125 
Q 15.578125 40.375 12.03125 44.71875 
Q 8.5 49.078125 8.5 55.328125 
Q 8.5 64.0625 14.71875 69.140625 
Q 20.953125 74.21875 31.78125 74.21875 
Q 42.671875 74.21875 48.875 69.140625 
Q 55.078125 64.0625 55.078125 55.328125 
Q 55.078125 49.078125 51.53125 44.71875 
Q 48 40.375 41.703125 38.8125 
Q 48.828125 37.15625 52.796875 32.3125 
Q 56.78125 27.484375 56.78125 20.515625 
Q 56.78125 9.90625 50.3125 4.234375 
Q 43.84375 -1.421875 31.78125 -1.421875 
Q 19.734375 -1.421875 13.25 4.234375 
Q 6.78125 9.90625 6.78125 20.515625 
Q 6.78125 27.484375 10.78125 32.3125 
Q 14.796875 37.15625 21.921875 38.8125 
z
M 18.3125 54.390625 
Q 18.3125 48.734375 21.84375 45.5625 
Q 25.390625 42.390625 31.78125 42.390625 
Q 38.140625 42.390625 41.71875 45.5625 
Q 45.3125 48.734375 45.3125 54.390625 
Q 45.3125 60.0625 41.71875 63.234375 
Q 38.140625 66.40625 31.78125 66.40625 
Q 25.390625 66.40625 21.84375 63.234375 
Q 18.3125 60.0625 18.3125 54.390625 
z
" id="DejaVuSans-56"/>
      </defs>
      <g style="fill:#ffffff;" transform="translate(838.843182 657.83375)scale(0.4 -0.4)">
       <use xlink:href="#DejaVuSans-56"/>
      </g>
     </g>
    </g>
    <g id="xtick_6">
     <g id="line2d_11">
      <path clip-path="url(#p82c08fe338)" d="M 1025.673636 620.44 
L 1025.673636 54 
" style="fill:none;stroke:#ffffff;stroke-linecap:square;stroke-opacity:0.2;stroke-width:0.6;"/>
     </g>
     <g id="line2d_12">
      <g>
       <use style="fill:#ffffff;stroke:#ffffff;stroke-width:0.8;" x="1025.673636" xlink:href="#mbbf3a27c12" y="620.44"/>
      </g>
     </g>
     <g id="text_6">
      <!-- 10 -->
      <defs>
       <path d="M 12.40625 8.296875 
L 28.515625 8.296875 
L 28.515625 63.921875 
L 10.984375 60.40625 
L 10.984375 69.390625 
L 28.421875 72.90625 
L 38.28125 72.90625 
L 38.28125 8.296875 
L 54.390625 8.296875 
L 54.390625 0 
L 12.40625 0 
z
" id="DejaVuSans-49"/>
      </defs>
      <g style="fill:#ffffff;" transform="translate(1000.223636 657.83375)scale(0.4 -0.4)">
       <use xlink:href="#DejaVuSans-49"/>
       <use x="63.623047" xlink:href="#DejaVuSans-48"/>
      </g>
     </g>
    </g>
    <g id="text_7">
     <!-- Time -->
     <defs>
      <path d="M -0.296875 72.90625 
L 61.375 72.90625 
L 61.375 64.59375 
L 35.5 64.59375 
L 35.5 0 
L 25.59375 0 
L 25.59375 64.59375 
L -0.296875 64.59375 
z
" id="DejaVuSans-84"/>
      <path d="M 9.421875 54.6875 
L 18.40625 54.6875 
L 18.40625 0 
L 9.421875 0 
z
M 9.421875 75.984375 
L 18.40625 75.984375 
L 18.40625 64.59375 
L 9.421875 64.59375 
z
" id="DejaVuSans-105"/>
      <path d="M 52 44.1875 
Q 55.375 50.25 60.0625 53.125 
Q 64.75 56 71.09375 56 
Q 79.640625 56 84.28125 50.015625 
Q 88.921875 44.046875 88.921875 33.015625 
L 88.921875 0 
L 79.890625 0 
L 79.890625 32.71875 
Q 79.890625 40.578125 77.09375 44.375 
Q 74.3125 48.1875 68.609375 48.1875 
Q 61.625 48.1875 57.5625 43.546875 
Q 53.515625 38.921875 53.515625 30.90625 
L 53.515625 0 
L 44.484375 0 
L 44.484375 32.71875 
Q 44.484375 40.625 41.703125 44.40625 
Q 38.921875 48.1875 33.109375 48.1875 
Q 26.21875 48.1875 22.15625 43.53125 
Q 18.109375 38.875 18.109375 30.90625 
L 18.109375 0 
L 9.078125 0 
L 9.078125 54.6875 
L 18.109375 54.6875 
L 18.109375 46.1875 
Q 21.1875 51.21875 25.484375 53.609375 
Q 29.78125 56 35.6875 56 
Q 41.65625 56 45.828125 52.96875 
Q 50 49.953125 52 44.1875 
z
" id="DejaVuSans-109"/>
      <path d="M 56.203125 29.59375 
L 56.203125 25.203125 
L 14.890625 25.203125 
Q 15.484375 15.921875 20.484375 11.0625 
Q 25.484375 6.203125 34.421875 6.203125 
Q 39.59375 6.203125 44.453125 7.46875 
Q 49.3125 8.734375 54.109375 11.28125 
L 54.109375 2.78125 
Q 49.265625 0.734375 44.1875 -0.34375 
Q 39.109375 -1.421875 33.890625 -1.421875 
Q 20.796875 -1.421875 13.15625 6.1875 
Q 5.515625 13.8125 5.515625 26.8125 
Q 5.515625 40.234375 12.765625 48.109375 
Q 20.015625 56 32.328125 56 
Q 43.359375 56 49.78125 48.890625 
Q 56.203125 41.796875 56.203125 29.59375 
z
M 47.21875 32.234375 
Q 47.125 39.59375 43.09375 43.984375 
Q 39.0625 48.390625 32.421875 48.390625 
Q 24.90625 48.390625 20.390625 44.140625 
Q 15.875 39.890625 15.1875 32.171875 
z
" id="DejaVuSans-101"/>
     </defs>
     <g style="fill:#ffffff;" transform="translate(540.86 700.54625)scale(0.4 -0.4)">
      <use xlink:href="#DejaVuSans-84"/>
      <use x="61.037109" xlink:href="#DejaVuSans-105"/>
      <use x="88.820312" xlink:href="#DejaVuSans-109"/>
      <use x="186.232422" xlink:href="#DejaVuSans-101"/>
     </g>
    </g>
   </g>
   <g id="matplotlib.axis_2">
    <g id="ytick_1">
     <g id="line2d_13">
      <path clip-path="url(#p82c08fe338)" d="M 111.62 590.464054 
L 1069.2 590.464054 
" style="fill:none;stroke:#ffffff;stroke-linecap:square;stroke-opacity:0.2;stroke-width:0.6;"/>
     </g>
     <g id="line2d_14">
      <defs>
       <path d="M 0 0 
L -3.5 0 
" id="m786ff90329" style="stroke:#ffffff;stroke-width:0.8;"/>
      </defs>
      <g>
       <use style="fill:#ffffff;stroke:#ffffff;stroke-width:0.8;" x="111.62" xlink:href="#m786ff90329" y="590.464054"/>
      </g>
     </g>
     <g id="text_8">
      <!-- 0 -->
      <g style="fill:#ffffff;" transform="translate(79.17 605.660929)scale(0.4 -0.4)">
       <use xlink:href="#DejaVuSans-48"/>
      </g>
     </g>
    </g>
    <g id="ytick_2">
     <g id="line2d_15">
      <path clip-path="url(#p82c08fe338)" d="M 111.62 494.673244 
L 1069.2 494.673244 
" style="fill:none;stroke:#ffffff;stroke-linecap:square;stroke-opacity:0.2;stroke-width:0.6;"/>
     </g>
     <g id="line2d_16">
      <g>
       <use style="fill:#ffffff;stroke:#ffffff;stroke-width:0.8;" x="111.62" xlink:href="#m786ff90329" y="494.673244"/>
      </g>
     </g>
     <g id="text_9">
      <!-- 2 -->
      <g style="fill:#ffffff;" transform="translate(79.17 509.870119)scale(0.4 -0.4)">
       <use xlink:href="#DejaVuSans-50"/>
      </g>
     </g>
    </g>
    <g id="ytick_3">
     <g id="line2d_17">
      <path clip-path="url(#p82c08fe338)" d="M 111.62 398.882433 
L 1069.2 398.882433 
" style="fill:none;stroke:#ffffff;stroke-linecap:square;stroke-opacity:0.2;stroke-width:0.6;"/>
     </g>
     <g id="line2d_18">
      <g>
       <use style="fill:#ffffff;stroke:#ffffff;stroke-width:0.8;" x="111.62" xlink:href="#m786ff90329" y="398.882433"/>
      </g>
     </g>
     <g id="text_10">
      <!-- 4 -->
      <g style="fill:#ffffff;" transform="translate(79.17 414.079308)scale(0.4 -0.4)">
       <use xlink:href="#DejaVuSans-52"/>
      </g>
     </g>
    </g>
    <g id="ytick_4">
     <g id="line2d_19">
      <path clip-path="url(#p82c08fe338)" d="M 111.62 303.091623 
L 1069.2 303.091623 
" style="fill:none;stroke:#ffffff;stroke-linecap:square;stroke-opacity:0.2;stroke-width:0.6;"/>
     </g>
     <g id="line2d_20">
      <g>
       <use style="fill:#ffffff;stroke:#ffffff;stroke-width:0.8;" x="111.62" xlink:href="#m786ff90329" y="303.091623"/>
      </g>
     </g>
     <g id="text_11">
      <!-- 6 -->
      <g style="fill:#ffffff;" transform="translate(79.17 318.288498)scale(0.4 -0.4)">
       <use xlink:href="#DejaVuSans-54"/>
      </g>
     </g>
    </g>
    <g id="ytick_5">
     <g id="line2d_21">
      <path clip-path="url(#p82c08fe338)" d="M 111.62 207.300812 
L 1069.2 207.300812 
" style="fill:none;stroke:#ffffff;stroke-linecap:square;stroke-opacity:0.2;stroke-width:0.6;"/>
     </g>
     <g id="line2d_22">
      <g>
       <use style="fill:#ffffff;stroke:#ffffff;stroke-width:0.8;" x="111.62" xlink:href="#m786ff90329" y="207.300812"/>
      </g>
     </g>
     <g id="text_12">
      <!-- 8 -->
      <g style="fill:#ffffff;" transform="translate(79.17 222.497687)scale(0.4 -0.4)">
       <use xlink:href="#DejaVuSans-56"/>
      </g>
     </g>
    </g>
    <g id="ytick_6">
     <g id="line2d_23">
      <path clip-path="url(#p82c08fe338)" d="M 111.62 111.510002 
L 1069.2 111.510002 
" style="fill:none;stroke:#ffffff;stroke-linecap:square;stroke-opacity:0.2;stroke-width:0.6;"/>
     </g>
     <g id="line2d_24">
      <g>
       <use style="fill:#ffffff;stroke:#ffffff;stroke-width:0.8;" x="111.62" xlink:href="#m786ff90329" y="111.510002"/>
      </g>
     </g>
     <g id="text_13">
      <!-- 10 -->
      <g style="fill:#ffffff;" transform="translate(53.72 126.706877)scale(0.4 -0.4)">
       <use xlink:href="#DejaVuSans-49"/>
       <use x="63.623047" xlink:href="#DejaVuSans-48"/>
      </g>
     </g>
    </g>
    <g id="text_14">
     <!-- Amplitude -->
     <defs>
      <path d="M 34.1875 63.1875 
L 20.796875 26.90625 
L 47.609375 26.90625 
z
M 28.609375 72.90625 
L 39.796875 72.90625 
L 67.578125 0 
L 57.328125 0 
L 50.6875 18.703125 
L 17.828125 18.703125 
L 11.1875 0 
L 0.78125 0 
z
" id="DejaVuSans-65"/>
      <path d="M 18.109375 8.203125 
L 18.109375 -20.796875 
L 9.078125 -20.796875 
L 9.078125 54.6875 
L 18.109375 54.6875 
L 18.109375 46.390625 
Q 20.953125 51.265625 25.265625 53.625 
Q 29.59375 56 35.59375 56 
Q 45.5625 56 51.78125 48.09375 
Q 58.015625 40.1875 58.015625 27.296875 
Q 58.015625 14.40625 51.78125 6.484375 
Q 45.5625 -1.421875 35.59375 -1.421875 
Q 29.59375 -1.421875 25.265625 0.953125 
Q 20.953125 3.328125 18.109375 8.203125 
z
M 48.6875 27.296875 
Q 48.6875 37.203125 44.609375 42.84375 
Q 40.53125 48.484375 33.40625 48.484375 
Q 26.265625 48.484375 22.1875 42.84375 
Q 18.109375 37.203125 18.109375 27.296875 
Q 18.109375 17.390625 22.1875 11.75 
Q 26.265625 6.109375 33.40625 6.109375 
Q 40.53125 6.109375 44.609375 11.75 
Q 48.6875 17.390625 48.6875 27.296875 
z
" id="DejaVuSans-112"/>
      <path d="M 9.421875 75.984375 
L 18.40625 75.984375 
L 18.40625 0 
L 9.421875 0 
z
" id="DejaVuSans-108"/>
      <path d="M 18.3125 70.21875 
L 18.3125 54.6875 
L 36.8125 54.6875 
L 36.8125 47.703125 
L 18.3125 47.703125 
L 18.3125 18.015625 
Q 18.3125 11.328125 20.140625 9.421875 
Q 21.96875 7.515625 27.59375 7.515625 
L 36.8125 7.515625 
L 36.8125 0 
L 27.59375 0 
Q 17.1875 0 13.234375 3.875 
Q 9.28125 7.765625 9.28125 18.015625 
L 9.28125 47.703125 
L 2.6875 47.703125 
L 2.6875 54.6875 
L 9.28125 54.6875 
L 9.28125 70.21875 
z
" id="DejaVuSans-116"/>
      <path d="M 8.5 21.578125 
L 8.5 54.6875 
L 17.484375 54.6875 
L 17.484375 21.921875 
Q 17.484375 14.15625 20.5 10.265625 
Q 23.53125 6.390625 29.59375 6.390625 
Q 36.859375 6.390625 41.078125 11.03125 
Q 45.3125 15.671875 45.3125 23.6875 
L 45.3125 54.6875 
L 54.296875 54.6875 
L 54.296875 0 
L 45.3125 0 
L 45.3125 8.40625 
Q 42.046875 3.421875 37.71875 1 
Q 33.40625 -1.421875 27.6875 -1.421875 
Q 18.265625 -1.421875 13.375 4.4375 
Q 8.5 10.296875 8.5 21.578125 
z
M 31.109375 56 
z
" id="DejaVuSans-117"/>
      <path d="M 45.40625 46.390625 
L 45.40625 75.984375 
L 54.390625 75.984375 
L 54.390625 0 
L 45.40625 0 
L 45.40625 8.203125 
Q 42.578125 3.328125 38.25 0.953125 
Q 33.9375 -1.421875 27.875 -1.421875 
Q 17.96875 -1.421875 11.734375 6.484375 
Q 5.515625 14.40625 5.515625 27.296875 
Q 5.515625 40.1875 11.734375 48.09375 
Q 17.96875 56 27.875 56 
Q 33.9375 56 38.25 53.625 
Q 42.578125 51.265625 45.40625 46.390625 
z
M 14.796875 27.296875 
Q 14.796875 17.390625 18.875 11.75 
Q 22.953125 6.109375 30.078125 6.109375 
Q 37.203125 6.109375 41.296875 11.75 
Q 45.40625 17.390625 45.40625 27.296875 
Q 45.40625 37.203125 41.296875 42.84375 
Q 37.203125 48.484375 30.078125 48.484375 
Q 22.953125 48.484375 18.875 42.84375 
Q 14.796875 37.203125 14.796875 27.296875 
z
" id="DejaVuSans-100"/>
     </defs>
     <g style="fill:#ffffff;" transform="translate(41.40125 439.710625)rotate(-90)scale(0.4 -0.4)">
      <use xlink:href="#DejaVuSans-65"/>
      <use x="68.408203" xlink:href="#DejaVuSans-109"/>
      <use x="165.820312" xlink:href="#DejaVuSans-112"/>
      <use x="229.296875" xlink:href="#DejaVuSans-108"/>
      <use x="257.080078" xlink:href="#DejaVuSans-105"/>
      <use x="284.863281" xlink:href="#DejaVuSans-116"/>
      <use x="324.072266" xlink:href="#DejaVuSans-117"/>
      <use x="387.451172" xlink:href="#DejaVuSans-100"/>
      <use x="450.927734" xlink:href="#DejaVuSans-101"/>
     </g>
    </g>
   </g>
   <g id="line2d_25">
    <path clip-path="url(#p82c08fe338)" d="M 155.146364 552.14773 
L 156.889161 551.188908 
L 158.631958 550.611852 
L 160.374756 550.410898 
L 162.117553 550.576618 
L 163.86035 551.095913 
L 165.603148 551.95215 
L 167.345945 553.125324 
L 169.088742 554.592262 
L 170.83154 556.326855 
L 173.445736 559.366978 
L 176.059932 562.837133 
L 179.545526 567.930509 
L 189.130912 582.374254 
L 191.745108 585.831532 
L 194.359304 588.855482 
L 196.102101 590.577864 
L 197.844899 592.031777 
L 199.587696 593.19143 
L 201.330493 594.033998 
L 203.073291 594.539845 
L 204.816088 594.692727 
L 206.558885 594.479953 
L 208.301683 593.892511 
L 210.04448 592.925163 
L 211.787277 591.576494 
L 213.530075 589.848929 
L 215.272872 587.74871 
L 217.015669 585.285829 
L 218.758467 582.473936 
L 220.501264 579.330199 
L 223.11546 574.038124 
L 225.729656 568.128534 
L 228.343852 561.697696 
L 231.829447 552.500723 
L 237.057839 537.95076 
L 243.157629 521.049994 
L 246.643224 512.015498 
L 249.25742 505.753223 
L 251.871616 500.049411 
L 254.485812 494.997208 
L 256.22861 492.030568 
L 257.971407 489.408174 
L 259.714204 487.145962 
L 261.457002 485.256298 
L 263.199799 483.747852 
L 264.942596 482.625514 
L 266.685394 481.89034 
L 268.428191 481.539547 
L 270.170988 481.566538 
L 271.913786 481.960972 
L 273.656583 482.708861 
L 275.39938 483.792718 
L 277.142178 485.191725 
L 278.884975 486.881948 
L 280.627772 488.836573 
L 283.241968 492.199254 
L 285.856164 495.981345 
L 289.341759 501.471601 
L 298.055746 515.572505 
L 300.669942 519.385096 
L 303.284138 522.789602 
L 305.026935 524.778637 
L 306.769732 526.508688 
L 308.51253 527.95313 
L 310.255327 529.088233 
L 311.998124 529.893402 
L 313.740922 530.351379 
L 315.483719 530.448419 
L 317.226517 530.174426 
L 318.969314 529.523055 
L 320.712111 528.491775 
L 322.454909 527.081891 
L 324.197706 525.298535 
L 325.940503 523.150614 
L 327.683301 520.650718 
L 329.426098 517.814993 
L 331.168895 514.662986 
L 333.783091 509.392514 
L 336.397287 503.551304 
L 339.882882 495.053155 
L 344.239875 483.674605 
L 352.953862 460.610132 
L 356.439457 452.103763 
L 359.053653 446.25627 
L 361.667849 440.980997 
L 364.282045 436.368685 
L 366.024842 433.700292 
L 367.767639 431.379136 
L 369.510437 429.420253 
L 371.253234 427.835078 
L 372.996031 426.631327 
L 374.738829 425.81292 
L 376.481626 425.37994 
L 378.224424 425.328636 
L 379.967221 425.651452 
L 381.710018 426.337111 
L 383.452816 427.370718 
L 385.195613 428.733919 
L 386.93841 430.405074 
L 388.681208 432.359479 
L 390.424005 434.569613 
L 393.038201 438.297911 
L 395.652397 442.422823 
L 399.137992 448.332261 
L 406.98058 461.868075 
L 409.594776 465.998353 
L 412.208972 469.734302 
L 413.951769 471.950926 
L 415.694566 473.913035 
L 417.437364 475.593206 
L 419.180161 476.966841 
L 420.922958 478.01242 
L 422.665756 478.711708 
L 424.408553 479.049943 
L 426.15135 479.015977 
L 427.894148 478.602393 
L 429.636945 477.805575 
L 431.379742 476.625742 
L 433.12254 475.066951 
L 434.865337 473.137048 
L 436.608134 470.847595 
L 438.350932 468.21375 
L 440.093729 465.254116 
L 442.707925 460.252469 
L 445.322121 454.654027 
L 447.936317 448.558522 
L 451.421912 439.850915 
L 458.393101 421.536921 
L 462.750095 410.354361 
L 466.235689 402.02747 
L 468.849885 396.322622 
L 471.464081 391.194839 
L 473.206879 388.141232 
L 474.949676 385.40635 
L 476.692473 383.009569 
L 478.435271 380.966865 
L 480.178068 379.290649 
L 481.920865 377.989641 
L 483.663663 377.068786 
L 485.40646 376.529201 
L 487.149257 376.368164 
L 488.892055 376.579142 
L 490.634852 377.151852 
L 492.377649 378.072368 
L 494.120447 379.323258 
L 495.863244 380.883755 
L 497.606041 382.72997 
L 499.348839 384.835127 
L 501.963035 388.413433 
L 504.577231 392.398991 
L 508.062826 398.141635 
L 516.776812 412.777698 
L 519.391008 416.723379 
L 522.005204 420.247798 
L 523.748002 422.309276 
L 525.490799 424.105631 
L 527.233596 425.610112 
L 528.976394 426.798855 
L 530.719191 427.651123 
L 532.461988 428.149516 
L 534.204786 428.280141 
L 535.947583 428.032754 
L 537.69038 427.400861 
L 539.433178 426.381781 
L 541.175975 424.976676 
L 542.918772 423.190537 
L 544.66157 421.032135 
L 546.404367 418.513931 
L 548.147164 415.651953 
L 549.889962 412.465635 
L 552.504158 407.128378 
L 555.118354 401.20175 
L 558.603948 392.560372 
L 562.960942 380.955264 
L 572.546327 355.017474 
L 576.031922 346.384909 
L 578.646118 340.464379 
L 581.260314 335.1308 
L 583.003111 331.944552 
L 584.745909 329.079931 
L 586.488706 326.55563 
L 588.231503 324.386896 
L 589.974301 322.585381 
L 591.717098 321.159024 
L 593.459895 320.111976 
L 595.202693 319.444552 
L 596.94549 319.153232 
L 598.688287 319.230696 
L 600.431085 319.665898 
L 602.173882 320.444175 
L 603.916679 321.547397 
L 605.659477 322.954145 
L 607.402274 324.63993 
L 609.145071 326.577435 
L 611.759267 329.889703 
L 614.373463 333.590629 
L 617.859058 338.923349 
L 625.701646 351.119251 
L 628.315842 354.791162 
L 630.930038 358.063312 
L 632.672836 359.967806 
L 634.415633 361.615485 
L 636.15843 362.978954 
L 637.901228 364.033635 
L 639.644025 364.758019 
L 641.386822 365.133877 
L 643.12962 365.146444 
L 644.872417 364.784573 
L 646.615214 364.040837 
L 648.358012 362.911614 
L 650.100809 361.397116 
L 651.843606 359.501394 
L 653.586404 357.232292 
L 655.329201 354.601375 
L 657.071998 351.623808 
L 658.814796 348.31821 
L 661.428992 342.793464 
L 664.043188 336.667052 
L 667.528782 327.736918 
L 671.885776 315.730453 
L 682.34256 286.411714 
L 685.828155 277.531582 
L 688.442351 271.452563 
L 691.056547 265.981938 
L 692.799344 262.715248 
L 694.542141 259.778146 
L 696.284939 257.188604 
L 698.027736 254.961111 
L 699.770533 253.106526 
L 701.513331 251.631976 
L 703.256128 250.540781 
L 704.998925 249.832423 
L 706.741723 249.502551 
L 708.48452 249.543026 
L 710.227317 249.942004 
L 711.970115 250.684054 
L 713.712912 251.750313 
L 715.455709 253.118678 
L 717.198507 254.764025 
L 718.941304 256.658462 
L 721.5555 259.900106 
L 724.169696 263.521949 
L 727.655291 268.734362 
L 734.62648 279.343137 
L 737.240676 282.994045 
L 739.854872 286.275864 
L 741.597669 288.203016 
L 743.340467 289.885613 
L 745.083264 291.295564 
L 746.826062 292.407519 
L 748.568859 293.199132 
L 750.311656 293.651283 
L 752.054454 293.748266 
L 753.797251 293.477954 
L 755.540048 292.831914 
L 757.282846 291.805497 
L 759.025643 290.397884 
L 760.76844 288.612094 
L 762.511238 286.454952 
L 764.254035 283.937028 
L 765.996832 281.072525 
L 767.73963 277.87914 
L 770.353826 272.519236 
L 772.968022 266.551143 
L 775.582218 260.072458 
L 779.067812 250.830113 
L 785.167603 233.803204 
L 790.395995 219.392049 
L 793.88159 210.410276 
L 796.495786 204.200976 
L 799.109982 198.560369 
L 801.724178 193.580196 
L 803.466975 190.665695 
L 805.209772 188.098136 
L 806.95257 185.892912 
L 808.695367 184.061824 
L 810.438165 182.61296 
L 812.180962 181.550618 
L 813.923759 180.875261 
L 815.666557 180.583512 
L 817.409354 180.668188 
L 819.152151 181.118375 
L 820.894949 181.919535 
L 822.637746 183.05365 
L 824.380543 184.499407 
L 826.123341 186.232408 
L 827.866138 188.225417 
L 830.480334 191.636621 
L 833.09453 195.455434 
L 836.580125 200.974943 
L 845.294111 215.046011 
L 847.908307 218.821769 
L 850.522503 222.177786 
L 852.265301 224.128558 
L 854.008098 225.816043 
L 855.750895 227.214047 
L 857.493693 228.299312 
L 859.23649 229.051745 
L 860.979287 229.454624 
L 862.722085 229.49476 
L 864.464882 229.162634 
L 866.207679 228.452487 
L 867.950477 227.36238 
L 869.693274 225.894216 
L 871.436072 224.053715 
L 873.178869 221.85036 
L 874.921666 219.297301 
L 876.664464 216.411224 
L 879.27866 211.502439 
L 881.892856 205.971019 
L 884.507052 199.911939 
L 887.992646 191.19875 
L 893.221038 177.344911 
L 899.320829 161.206806 
L 902.806424 152.583707 
L 905.42062 146.618788 
L 908.034816 141.20333 
L 910.649012 136.431196 
L 912.391809 133.647091 
L 914.134606 131.204224 
L 915.877404 129.11884 
L 917.620201 127.403634 
L 919.362998 126.067615 
L 921.105796 125.116019 
L 922.848593 124.550256 
L 924.59139 124.367896 
L 926.334188 124.562689 
L 928.076985 125.124631 
L 929.819783 126.040061 
L 931.56258 127.2918 
L 933.305377 128.85932 
L 935.048175 130.718946 
L 936.790972 132.844102 
L 939.405168 136.465127 
L 942.019364 140.50909 
L 945.504959 146.354572 
L 955.090344 162.77666 
L 957.70454 166.748979 
L 960.318736 170.277542 
L 962.061533 172.33072 
L 963.804331 174.111118 
L 965.547128 175.593133 
L 967.289925 176.754157 
L 969.032723 177.5748 
L 970.77552 178.039082 
L 972.518317 178.134594 
L 974.261115 177.852621 
L 976.003912 177.188229 
L 977.746709 176.140312 
L 979.489507 174.711606 
L 981.232304 172.908655 
L 982.975101 170.741752 
L 984.717899 168.224827 
L 986.460696 165.375316 
L 989.074892 160.523718 
L 991.689088 155.0542 
L 994.303284 149.0636 
L 997.788879 140.454524 
L 1003.017271 126.788935 
L 1009.117062 110.921538 
L 1012.602656 102.475484 
L 1015.216852 96.65182 
L 1017.831048 91.382919 
L 1020.445244 86.760522 
L 1022.188042 84.076824 
L 1023.930839 81.733931 
L 1025.673636 79.747273 
L 1025.673636 79.747273 
" style="fill:none;stroke:#ffffff;stroke-linecap:square;stroke-width:2.2;"/>
   </g>
   <g id="patch_3">
    <path d="M 111.62 620.44 
L 111.62 54 
" style="fill:none;stroke:#ffffff;stroke-linecap:square;stroke-linejoin:miter;stroke-width:0.8;"/>
   </g>
   <g id="patch_4">
    <path d="M 111.62 620.44 
L 1069.2 620.44 
" style="fill:none;stroke:#ffffff;stroke-linecap:square;stroke-linejoin:miter;stroke-width:0.8;"/>
   </g>
   <g id="text_15">
    <!-- Underlying Signal -->
    <defs>
     <path d="M 8.6875 72.90625 
L 18.609375 72.90625 
L 18.609375 28.609375 
Q 18.609375 16.890625 22.84375 11.734375 
Q 27.09375 6.59375 36.625 6.59375 
Q 46.09375 6.59375 50.34375 11.734375 
Q 54.59375 16.890625 54.59375 28.609375 
L 54.59375 72.90625 
L 64.5 72.90625 
L 64.5 27.390625 
Q 64.5 13.140625 57.4375 5.859375 
Q 50.390625 -1.421875 36.625 -1.421875 
Q 22.796875 -1.421875 15.734375 5.859375 
Q 8.6875 13.140625 8.6875 27.390625 
z
" id="DejaVuSans-85"/>
     <path d="M 54.890625 33.015625 
L 54.890625 0 
L 45.90625 0 
L 45.90625 32.71875 
Q 45.90625 40.484375 42.875 44.328125 
Q 39.84375 48.1875 33.796875 48.1875 
Q 26.515625 48.1875 22.3125 43.546875 
Q 18.109375 38.921875 18.109375 30.90625 
L 18.109375 0 
L 9.078125 0 
L 9.078125 54.6875 
L 18.109375 54.6875 
L 18.109375 46.1875 
Q 21.34375 51.125 25.703125 53.5625 
Q 30.078125 56 35.796875 56 
Q 45.21875 56 50.046875 50.171875 
Q 54.890625 44.34375 54.890625 33.015625 
z
" id="DejaVuSans-110"/>
     <path d="M 41.109375 46.296875 
Q 39.59375 47.171875 37.8125 47.578125 
Q 36.03125 48 33.890625 48 
Q 26.265625 48 22.1875 43.046875 
Q 18.109375 38.09375 18.109375 28.8125 
L 18.109375 0 
L 9.078125 0 
L 9.078125 54.6875 
L 18.109375 54.6875 
L 18.109375 46.1875 
Q 20.953125 51.171875 25.484375 53.578125 
Q 30.03125 56 36.53125 56 
Q 37.453125 56 38.578125 55.875 
Q 39.703125 55.765625 41.0625 55.515625 
z
" id="DejaVuSans-114"/>
     <path d="M 32.171875 -5.078125 
Q 28.375 -14.84375 24.75 -17.8125 
Q 21.140625 -20.796875 15.09375 -20.796875 
L 7.90625 -20.796875 
L 7.90625 -13.28125 
L 13.1875 -13.28125 
Q 16.890625 -13.28125 18.9375 -11.515625 
Q 21 -9.765625 23.484375 -3.21875 
L 25.09375 0.875 
L 2.984375 54.6875 
L 12.5 54.6875 
L 29.59375 11.921875 
L 46.6875 54.6875 
L 56.203125 54.6875 
z
" id="DejaVuSans-121"/>
     <path d="M 45.40625 27.984375 
Q 45.40625 37.75 41.375 43.109375 
Q 37.359375 48.484375 30.078125 48.484375 
Q 22.859375 48.484375 18.828125 43.109375 
Q 14.796875 37.75 14.796875 27.984375 
Q 14.796875 18.265625 18.828125 12.890625 
Q 22.859375 7.515625 30.078125 7.515625 
Q 37.359375 7.515625 41.375 12.890625 
Q 45.40625 18.265625 45.40625 27.984375 
z
M 54.390625 6.78125 
Q 54.390625 -7.171875 48.1875 -13.984375 
Q 42 -20.796875 29.203125 -20.796875 
Q 24.46875 -20.796875 20.265625 -20.09375 
Q 16.0625 -19.390625 12.109375 -17.921875 
L 12.109375 -9.1875 
Q 16.0625 -11.328125 19.921875 -12.34375 
Q 23.78125 -13.375 27.78125 -13.375 
Q 36.625 -13.375 41.015625 -8.765625 
Q 45.40625 -4.15625 45.40625 5.171875 
L 45.40625 9.625 
Q 42.625 4.78125 38.28125 2.390625 
Q 33.9375 0 27.875 0 
Q 17.828125 0 11.671875 7.65625 
Q 5.515625 15.328125 5.515625 27.984375 
Q 5.515625 40.671875 11.671875 48.328125 
Q 17.828125 56 27.875 56 
Q 33.9375 56 38.28125 53.609375 
Q 42.625 51.21875 45.40625 46.390625 
L 45.40625 54.6875 
L 54.390625 54.6875 
z
" id="DejaVuSans-103"/>
     <path id="DejaVuSans-32"/>
     <path d="M 53.515625 70.515625 
L 53.515625 60.890625 
Q 47.90625 63.578125 42.921875 64.890625 
Q 37.9375 66.21875 33.296875 66.21875 
Q 25.25 66.21875 20.875 63.09375 
Q 16.5 59.96875 16.5 54.203125 
Q 16.5 49.359375 19.40625 46.890625 
Q 22.3125 44.4375 30.421875 42.921875 
L 36.375 41.703125 
Q 47.40625 39.59375 52.65625 34.296875 
Q 57.90625 29 57.90625 20.125 
Q 57.90625 9.515625 50.796875 4.046875 
Q 43.703125 -1.421875 29.984375 -1.421875 
Q 24.8125 -1.421875 18.96875 -0.25 
Q 13.140625 0.921875 6.890625 3.21875 
L 6.890625 13.375 
Q 12.890625 10.015625 18.65625 8.296875 
Q 24.421875 6.59375 29.984375 6.59375 
Q 38.421875 6.59375 43.015625 9.90625 
Q 47.609375 13.234375 47.609375 19.390625 
Q 47.609375 24.75 44.3125 27.78125 
Q 41.015625 30.8125 33.5 32.328125 
L 27.484375 33.5 
Q 16.453125 35.6875 11.515625 40.375 
Q 6.59375 45.0625 6.59375 53.421875 
Q 6.59375 63.09375 13.40625 68.65625 
Q 20.21875 74.21875 32.171875 74.21875 
Q 37.3125 74.21875 42.625 73.28125 
Q 47.953125 72.359375 53.515625 70.515625 
z
" id="DejaVuSans-83"/>
     <path d="M 34.28125 27.484375 
Q 23.390625 27.484375 19.1875 25 
Q 14.984375 22.515625 14.984375 16.5 
Q 14.984375 11.71875 18.140625 8.90625 
Q 21.296875 6.109375 26.703125 6.109375 
Q 34.1875 6.109375 38.703125 11.40625 
Q 43.21875 16.703125 43.21875 25.484375 
L 43.21875 27.484375 
z
M 52.203125 31.203125 
L 52.203125 0 
L 43.21875 0 
L 43.21875 8.296875 
Q 40.140625 3.328125 35.546875 0.953125 
Q 30.953125 -1.421875 24.3125 -1.421875 
Q 15.921875 -1.421875 10.953125 3.296875 
Q 6 8.015625 6 15.921875 
Q 6 25.140625 12.171875 29.828125 
Q 18.359375 34.515625 30.609375 34.515625 
L 43.21875 34.515625 
L 43.21875 35.40625 
Q 43.21875 41.609375 39.140625 45 
Q 35.0625 48.390625 27.6875 48.390625 
Q 23 48.390625 18.546875 47.265625 
Q 14.109375 46.140625 10.015625 43.890625 
L 10.015625 52.203125 
Q 14.9375 54.109375 19.578125 55.046875 
Q 24.21875 56 28.609375 56 
Q 40.484375 56 46.34375 49.84375 
Q 52.203125 43.703125 52.203125 31.203125 
z
" id="DejaVuSans-97"/>
    </defs>
    <g style="fill:#ffffff;" transform="translate(391.675234 44.641406)scale(0.45 -0.45)">
     <use xlink:href="#DejaVuSans-85"/>
     <use x="73.193359" xlink:href="#DejaVuSans-110"/>
     <use x="136.572266" xlink:href="#DejaVuSans-100"/>
     <use x="200.048828" xlink:href="#DejaVuSans-101"/>
     <use x="261.572266" xlink:href="#DejaVuSans-114"/>
     <use x="302.685547" xlink:href="#DejaVuSans-108"/>
     <use x="330.46875" xlink:href="#DejaVuSans-121"/>
     <use x="389.648438" xlink:href="#DejaVuSans-105"/>
     <use x="417.431641" xlink:href="#DejaVuSans-110"/>
     <use x="480.810547" xlink:href="#DejaVuSans-103"/>
     <use x="544.287109" xlink:href="#DejaVuSans-32"/>
     <use x="576.074219" xlink:href="#DejaVuSans-83"/>
     <use x="639.550781" xlink:href="#DejaVuSans-105"/>
     <use x="667.333984" xlink:href="#DejaVuSans-103"/>
     <use x="730.810547" xlink:href="#DejaVuSans-110"/>
     <use x="794.189453" xlink:href="#DejaVuSans-97"/>
     <use x="855.46875" xlink:href="#DejaVuSans-108"/>
    </g>
   </g>
  </g>
 </g>
 <defs>
  <clipPath id="p82c08fe338">
   <rect height="566.44" width="957.58" x="111.62" y="54"/>
  </clipPath>
 </defs>
</svg>
