<svg width="559" height="342" viewBox="0 0 559 342" fill="none" xmlns="http://www.w3.org/2000/svg">
<rect x="2.5" y="2.5" width="554" height="337" fill="#0C0C0C"/>
<rect x="2.5" y="2.5" width="554" height="337" stroke="white" stroke-width="5"/>
<path d="M52.4 284.162C50.924 284.162 49.796 283.604 49.016 282.488C48.248 281.36 47.864 279.746 47.864 277.646C47.864 276.218 48.038 275.024 48.386 274.064C48.734 273.104 49.244 272.378 49.916 271.886C50.588 271.394 51.416 271.148 52.4 271.148C53.888 271.148 55.016 271.7 55.784 272.804C56.552 273.896 56.936 275.504 56.936 277.628C56.936 279.032 56.762 280.22 56.414 281.192C56.066 282.164 55.556 282.902 54.884 283.406C54.212 283.91 53.384 284.162 52.4 284.162ZM52.4 282.614C53.324 282.614 54.002 282.212 54.434 281.408C54.878 280.592 55.1 279.332 55.1 277.628C55.1 275.912 54.878 274.664 54.434 273.884C54.002 273.092 53.324 272.696 52.4 272.696C51.488 272.696 50.81 273.092 50.366 273.884C49.922 274.664 49.7 275.912 49.7 277.628C49.7 279.332 49.922 280.592 50.366 281.408C50.81 282.212 51.488 282.614 52.4 282.614Z" fill="white"/>
<path d="M86 278H148.064L155.47 242.48L163.228 278H317.507L327.734 48L337.079 278H376.75L384.685 243.183L391.914 278H420.83L429.822 183.046L438.638 278H497" stroke="#02FEFA" stroke-width="2"/>
<line x1="70" y1="58" x2="70" y2="294" stroke="#F0F0F0" stroke-width="2"/>
<line x1="512" y1="295" x2="69" y2="295" stroke="#F0F0F0" stroke-width="2"/>
</svg>
