<?xml version="1.0" encoding="utf-8" standalone="no"?>
<!DOCTYPE svg PUBLIC "-//W3C//DTD SVG 1.1//EN"
  "http://www.w3.org/Graphics/SVG/1.1/DTD/svg11.dtd">
<!-- Created with matplotlib (https://matplotlib.org/) -->
<svg height="360pt" version="1.1" viewBox="0 0 720 360" width="720pt" xmlns="http://www.w3.org/2000/svg" xmlns:xlink="http://www.w3.org/1999/xlink">
 <defs>
  <style type="text/css">
*{stroke-linecap:butt;stroke-linejoin:round;}
  </style>
 </defs>
 <g id="figure_1">
  <g id="patch_1">
   <path d="M 0 360 
L 720 360 
L 720 0 
L 0 0 
z
" style="fill:#121212;"/>
  </g>
  <g id="axes_1">
   <g id="patch_2">
    <path d="M 73.64 303.64 
L 709.2 303.64 
L 709.2 10.8 
L 73.64 10.8 
z
" style="fill:#121212;"/>
   </g>
   <g id="matplotlib.axis_1">
    <g id="xtick_1">
     <g id="line2d_1">
      <path clip-path="url(#p994fbff727)" d="M 102.529091 303.64 
L 102.529091 10.8 
" style="fill:none;stroke:#ffffff;stroke-linecap:square;stroke-opacity:0.2;stroke-width:0.8;"/>
     </g>
     <g id="line2d_2">
      <defs>
       <path d="M 0 0 
L 0 3.5 
" id="m439865384c" style="stroke:#ffffff;stroke-width:0.8;"/>
      </defs>
      <g>
       <use style="fill:#ffffff;stroke:#ffffff;stroke-width:0.8;" x="102.529091" xlink:href="#m439865384c" y="303.64"/>
      </g>
     </g>
     <g id="text_1">
      <!-- 0 -->
      <defs>
       <path d="M 31.78125 66.40625 
Q 24.171875 66.40625 20.328125 58.90625 
Q 16.5 51.421875 16.5 36.375 
Q 16.5 21.390625 20.328125 13.890625 
Q 24.171875 6.390625 31.78125 6.390625 
Q 39.453125 6.390625 43.28125 13.890625 
Q 47.125 21.390625 47.125 36.375 
Q 47.125 51.421875 43.28125 58.90625 
Q 39.453125 66.40625 31.78125 66.40625 
z
M 31.78125 74.21875 
Q 44.046875 74.21875 50.515625 64.515625 
Q 56.984375 54.828125 56.984375 36.375 
Q 56.984375 17.96875 50.515625 8.265625 
Q 44.046875 -1.421875 31.78125 -1.421875 
Q 19.53125 -1.421875 13.0625 8.265625 
Q 6.59375 17.96875 6.59375 36.375 
Q 6.59375 54.828125 13.0625 64.515625 
Q 19.53125 74.21875 31.78125 74.21875 
z
" id="DejaVuSans-48"/>
      </defs>
      <g style="fill:#ffffff;" transform="translate(97.757216 322.037656)scale(0.15 -0.15)">
       <use xlink:href="#DejaVuSans-48"/>
      </g>
     </g>
    </g>
    <g id="xtick_2">
     <g id="line2d_3">
      <path clip-path="url(#p994fbff727)" d="M 217.475131 303.64 
L 217.475131 10.8 
" style="fill:none;stroke:#ffffff;stroke-linecap:square;stroke-opacity:0.2;stroke-width:0.8;"/>
     </g>
     <g id="line2d_4">
      <g>
       <use style="fill:#ffffff;stroke:#ffffff;stroke-width:0.8;" x="217.475131" xlink:href="#m439865384c" y="303.64"/>
      </g>
     </g>
     <g id="text_2">
      <!-- 5 -->
      <defs>
       <path d="M 10.796875 72.90625 
L 49.515625 72.90625 
L 49.515625 64.59375 
L 19.828125 64.59375 
L 19.828125 46.734375 
Q 21.96875 47.46875 24.109375 47.828125 
Q 26.265625 48.1875 28.421875 48.1875 
Q 40.625 48.1875 47.75 41.5 
Q 54.890625 34.8125 54.890625 23.390625 
Q 54.890625 11.625 47.5625 5.09375 
Q 40.234375 -1.421875 26.90625 -1.421875 
Q 22.3125 -1.421875 17.546875 -0.640625 
Q 12.796875 0.140625 7.71875 1.703125 
L 7.71875 11.625 
Q 12.109375 9.234375 16.796875 8.0625 
Q 21.484375 6.890625 26.703125 6.890625 
Q 35.15625 6.890625 40.078125 11.328125 
Q 45.015625 15.765625 45.015625 23.390625 
Q 45.015625 31 40.078125 35.4375 
Q 35.15625 39.890625 26.703125 39.890625 
Q 22.75 39.890625 18.8125 39.015625 
Q 14.890625 38.140625 10.796875 36.28125 
z
" id="DejaVuSans-53"/>
      </defs>
      <g style="fill:#ffffff;" transform="translate(212.703256 322.037656)scale(0.15 -0.15)">
       <use xlink:href="#DejaVuSans-53"/>
      </g>
     </g>
    </g>
    <g id="xtick_3">
     <g id="line2d_5">
      <path clip-path="url(#p994fbff727)" d="M 332.421172 303.64 
L 332.421172 10.8 
" style="fill:none;stroke:#ffffff;stroke-linecap:square;stroke-opacity:0.2;stroke-width:0.8;"/>
     </g>
     <g id="line2d_6">
      <g>
       <use style="fill:#ffffff;stroke:#ffffff;stroke-width:0.8;" x="332.421172" xlink:href="#m439865384c" y="303.64"/>
      </g>
     </g>
     <g id="text_3">
      <!-- 10 -->
      <defs>
       <path d="M 12.40625 8.296875 
L 28.515625 8.296875 
L 28.515625 63.921875 
L 10.984375 60.40625 
L 10.984375 69.390625 
L 28.421875 72.90625 
L 38.28125 72.90625 
L 38.28125 8.296875 
L 54.390625 8.296875 
L 54.390625 0 
L 12.40625 0 
z
" id="DejaVuSans-49"/>
      </defs>
      <g style="fill:#ffffff;" transform="translate(322.877422 322.037656)scale(0.15 -0.15)">
       <use xlink:href="#DejaVuSans-49"/>
       <use x="63.623047" xlink:href="#DejaVuSans-48"/>
      </g>
     </g>
    </g>
    <g id="xtick_4">
     <g id="line2d_7">
      <path clip-path="url(#p994fbff727)" d="M 447.367212 303.64 
L 447.367212 10.8 
" style="fill:none;stroke:#ffffff;stroke-linecap:square;stroke-opacity:0.2;stroke-width:0.8;"/>
     </g>
     <g id="line2d_8">
      <g>
       <use style="fill:#ffffff;stroke:#ffffff;stroke-width:0.8;" x="447.367212" xlink:href="#m439865384c" y="303.64"/>
      </g>
     </g>
     <g id="text_4">
      <!-- 15 -->
      <g style="fill:#ffffff;" transform="translate(437.823462 322.037656)scale(0.15 -0.15)">
       <use xlink:href="#DejaVuSans-49"/>
       <use x="63.623047" xlink:href="#DejaVuSans-53"/>
      </g>
     </g>
    </g>
    <g id="xtick_5">
     <g id="line2d_9">
      <path clip-path="url(#p994fbff727)" d="M 562.313253 303.64 
L 562.313253 10.8 
" style="fill:none;stroke:#ffffff;stroke-linecap:square;stroke-opacity:0.2;stroke-width:0.8;"/>
     </g>
     <g id="line2d_10">
      <g>
       <use style="fill:#ffffff;stroke:#ffffff;stroke-width:0.8;" x="562.313253" xlink:href="#m439865384c" y="303.64"/>
      </g>
     </g>
     <g id="text_5">
      <!-- 20 -->
      <defs>
       <path d="M 19.1875 8.296875 
L 53.609375 8.296875 
L 53.609375 0 
L 7.328125 0 
L 7.328125 8.296875 
Q 12.9375 14.109375 22.625 23.890625 
Q 32.328125 33.6875 34.8125 36.53125 
Q 39.546875 41.84375 41.421875 45.53125 
Q 43.3125 49.21875 43.3125 52.78125 
Q 43.3125 58.59375 39.234375 62.25 
Q 35.15625 65.921875 28.609375 65.921875 
Q 23.96875 65.921875 18.8125 64.3125 
Q 13.671875 62.703125 7.8125 59.421875 
L 7.8125 69.390625 
Q 13.765625 71.78125 18.9375 73 
Q 24.125 74.21875 28.421875 74.21875 
Q 39.75 74.21875 46.484375 68.546875 
Q 53.21875 62.890625 53.21875 53.421875 
Q 53.21875 48.921875 51.53125 44.890625 
Q 49.859375 40.875 45.40625 35.40625 
Q 44.1875 33.984375 37.640625 27.21875 
Q 31.109375 20.453125 19.1875 8.296875 
z
" id="DejaVuSans-50"/>
      </defs>
      <g style="fill:#ffffff;" transform="translate(552.769503 322.037656)scale(0.15 -0.15)">
       <use xlink:href="#DejaVuSans-50"/>
       <use x="63.623047" xlink:href="#DejaVuSans-48"/>
      </g>
     </g>
    </g>
    <g id="xtick_6">
     <g id="line2d_11">
      <path clip-path="url(#p994fbff727)" d="M 677.259293 303.64 
L 677.259293 10.8 
" style="fill:none;stroke:#ffffff;stroke-linecap:square;stroke-opacity:0.2;stroke-width:0.8;"/>
     </g>
     <g id="line2d_12">
      <g>
       <use style="fill:#ffffff;stroke:#ffffff;stroke-width:0.8;" x="677.259293" xlink:href="#m439865384c" y="303.64"/>
      </g>
     </g>
     <g id="text_6">
      <!-- 25 -->
      <g style="fill:#ffffff;" transform="translate(667.715543 322.037656)scale(0.15 -0.15)">
       <use xlink:href="#DejaVuSans-50"/>
       <use x="63.623047" xlink:href="#DejaVuSans-53"/>
      </g>
     </g>
    </g>
    <g id="text_7">
     <!-- Time (t) -->
     <defs>
      <path d="M -0.296875 72.90625 
L 61.375 72.90625 
L 61.375 64.59375 
L 35.5 64.59375 
L 35.5 0 
L 25.59375 0 
L 25.59375 64.59375 
L -0.296875 64.59375 
z
" id="DejaVuSans-84"/>
      <path d="M 9.421875 54.6875 
L 18.40625 54.6875 
L 18.40625 0 
L 9.421875 0 
z
M 9.421875 75.984375 
L 18.40625 75.984375 
L 18.40625 64.59375 
L 9.421875 64.59375 
z
" id="DejaVuSans-105"/>
      <path d="M 52 44.1875 
Q 55.375 50.25 60.0625 53.125 
Q 64.75 56 71.09375 56 
Q 79.640625 56 84.28125 50.015625 
Q 88.921875 44.046875 88.921875 33.015625 
L 88.921875 0 
L 79.890625 0 
L 79.890625 32.71875 
Q 79.890625 40.578125 77.09375 44.375 
Q 74.3125 48.1875 68.609375 48.1875 
Q 61.625 48.1875 57.5625 43.546875 
Q 53.515625 38.921875 53.515625 30.90625 
L 53.515625 0 
L 44.484375 0 
L 44.484375 32.71875 
Q 44.484375 40.625 41.703125 44.40625 
Q 38.921875 48.1875 33.109375 48.1875 
Q 26.21875 48.1875 22.15625 43.53125 
Q 18.109375 38.875 18.109375 30.90625 
L 18.109375 0 
L 9.078125 0 
L 9.078125 54.6875 
L 18.109375 54.6875 
L 18.109375 46.1875 
Q 21.1875 51.21875 25.484375 53.609375 
Q 29.78125 56 35.6875 56 
Q 41.65625 56 45.828125 52.96875 
Q 50 49.953125 52 44.1875 
z
" id="DejaVuSans-109"/>
      <path d="M 56.203125 29.59375 
L 56.203125 25.203125 
L 14.890625 25.203125 
Q 15.484375 15.921875 20.484375 11.0625 
Q 25.484375 6.203125 34.421875 6.203125 
Q 39.59375 6.203125 44.453125 7.46875 
Q 49.3125 8.734375 54.109375 11.28125 
L 54.109375 2.78125 
Q 49.265625 0.734375 44.1875 -0.34375 
Q 39.109375 -1.421875 33.890625 -1.421875 
Q 20.796875 -1.421875 13.15625 6.1875 
Q 5.515625 13.8125 5.515625 26.8125 
Q 5.515625 40.234375 12.765625 48.109375 
Q 20.015625 56 32.328125 56 
Q 43.359375 56 49.78125 48.890625 
Q 56.203125 41.796875 56.203125 29.59375 
z
M 47.21875 32.234375 
Q 47.125 39.59375 43.09375 43.984375 
Q 39.0625 48.390625 32.421875 48.390625 
Q 24.90625 48.390625 20.390625 44.140625 
Q 15.875 39.890625 15.1875 32.171875 
z
" id="DejaVuSans-101"/>
      <path id="DejaVuSans-32"/>
      <path d="M 31 75.875 
Q 24.46875 64.65625 21.28125 53.65625 
Q 18.109375 42.671875 18.109375 31.390625 
Q 18.109375 20.125 21.3125 9.0625 
Q 24.515625 -2 31 -13.1875 
L 23.1875 -13.1875 
Q 15.875 -1.703125 12.234375 9.375 
Q 8.59375 20.453125 8.59375 31.390625 
Q 8.59375 42.28125 12.203125 53.3125 
Q 15.828125 64.359375 23.1875 75.875 
z
" id="DejaVuSans-40"/>
      <path d="M 18.3125 70.21875 
L 18.3125 54.6875 
L 36.8125 54.6875 
L 36.8125 47.703125 
L 18.3125 47.703125 
L 18.3125 18.015625 
Q 18.3125 11.328125 20.140625 9.421875 
Q 21.96875 7.515625 27.59375 7.515625 
L 36.8125 7.515625 
L 36.8125 0 
L 27.59375 0 
Q 17.1875 0 13.234375 3.875 
Q 9.28125 7.765625 9.28125 18.015625 
L 9.28125 47.703125 
L 2.6875 47.703125 
L 2.6875 54.6875 
L 9.28125 54.6875 
L 9.28125 70.21875 
z
" id="DejaVuSans-116"/>
      <path d="M 8.015625 75.875 
L 15.828125 75.875 
Q 23.140625 64.359375 26.78125 53.3125 
Q 30.421875 42.28125 30.421875 31.390625 
Q 30.421875 20.453125 26.78125 9.375 
Q 23.140625 -1.703125 15.828125 -13.1875 
L 8.015625 -13.1875 
Q 14.5 -2 17.703125 9.0625 
Q 20.90625 20.125 20.90625 31.390625 
Q 20.90625 42.671875 17.703125 53.65625 
Q 14.5 64.65625 8.015625 75.875 
z
" id="DejaVuSans-41"/>
     </defs>
     <g style="fill:#ffffff;" transform="translate(351.743438 344.354062)scale(0.2 -0.2)">
      <use xlink:href="#DejaVuSans-84"/>
      <use x="61.037109" xlink:href="#DejaVuSans-105"/>
      <use x="88.820312" xlink:href="#DejaVuSans-109"/>
      <use x="186.232422" xlink:href="#DejaVuSans-101"/>
      <use x="247.755859" xlink:href="#DejaVuSans-32"/>
      <use x="279.542969" xlink:href="#DejaVuSans-40"/>
      <use x="318.556641" xlink:href="#DejaVuSans-116"/>
      <use x="357.765625" xlink:href="#DejaVuSans-41"/>
     </g>
    </g>
   </g>
   <g id="matplotlib.axis_2">
    <g id="ytick_1">
     <g id="line2d_13">
      <path clip-path="url(#p994fbff727)" d="M 73.64 302.610416 
L 709.2 302.610416 
" style="fill:none;stroke:#ffffff;stroke-linecap:square;stroke-opacity:0.2;stroke-width:0.8;"/>
     </g>
     <g id="line2d_14">
      <defs>
       <path d="M 0 0 
L -3.5 0 
" id="mb8b20343a2" style="stroke:#ffffff;stroke-width:0.8;"/>
      </defs>
      <g>
       <use style="fill:#ffffff;stroke:#ffffff;stroke-width:0.8;" x="73.64" xlink:href="#mb8b20343a2" y="302.610416"/>
      </g>
     </g>
     <g id="text_8">
      <!-- −15 -->
      <defs>
       <path d="M 10.59375 35.5 
L 73.1875 35.5 
L 73.1875 27.203125 
L 10.59375 27.203125 
z
" id="DejaVuSans-8722"/>
      </defs>
      <g style="fill:#ffffff;" transform="translate(34.982969 308.309244)scale(0.15 -0.15)">
       <use xlink:href="#DejaVuSans-8722"/>
       <use x="83.789062" xlink:href="#DejaVuSans-49"/>
       <use x="147.412109" xlink:href="#DejaVuSans-53"/>
      </g>
     </g>
    </g>
    <g id="ytick_2">
     <g id="line2d_15">
      <path clip-path="url(#p994fbff727)" d="M 73.64 256.697572 
L 709.2 256.697572 
" style="fill:none;stroke:#ffffff;stroke-linecap:square;stroke-opacity:0.2;stroke-width:0.8;"/>
     </g>
     <g id="line2d_16">
      <g>
       <use style="fill:#ffffff;stroke:#ffffff;stroke-width:0.8;" x="73.64" xlink:href="#mb8b20343a2" y="256.697572"/>
      </g>
     </g>
     <g id="text_9">
      <!-- −10 -->
      <g style="fill:#ffffff;" transform="translate(34.982969 262.3964)scale(0.15 -0.15)">
       <use xlink:href="#DejaVuSans-8722"/>
       <use x="83.789062" xlink:href="#DejaVuSans-49"/>
       <use x="147.412109" xlink:href="#DejaVuSans-48"/>
      </g>
     </g>
    </g>
    <g id="ytick_3">
     <g id="line2d_17">
      <path clip-path="url(#p994fbff727)" d="M 73.64 210.784728 
L 709.2 210.784728 
" style="fill:none;stroke:#ffffff;stroke-linecap:square;stroke-opacity:0.2;stroke-width:0.8;"/>
     </g>
     <g id="line2d_18">
      <g>
       <use style="fill:#ffffff;stroke:#ffffff;stroke-width:0.8;" x="73.64" xlink:href="#mb8b20343a2" y="210.784728"/>
      </g>
     </g>
     <g id="text_10">
      <!-- −5 -->
      <g style="fill:#ffffff;" transform="translate(44.526719 216.483556)scale(0.15 -0.15)">
       <use xlink:href="#DejaVuSans-8722"/>
       <use x="83.789062" xlink:href="#DejaVuSans-53"/>
      </g>
     </g>
    </g>
    <g id="ytick_4">
     <g id="line2d_19">
      <path clip-path="url(#p994fbff727)" d="M 73.64 164.871884 
L 709.2 164.871884 
" style="fill:none;stroke:#ffffff;stroke-linecap:square;stroke-opacity:0.2;stroke-width:0.8;"/>
     </g>
     <g id="line2d_20">
      <g>
       <use style="fill:#ffffff;stroke:#ffffff;stroke-width:0.8;" x="73.64" xlink:href="#mb8b20343a2" y="164.871884"/>
      </g>
     </g>
     <g id="text_11">
      <!-- 0 -->
      <g style="fill:#ffffff;" transform="translate(57.09625 170.570712)scale(0.15 -0.15)">
       <use xlink:href="#DejaVuSans-48"/>
      </g>
     </g>
    </g>
    <g id="ytick_5">
     <g id="line2d_21">
      <path clip-path="url(#p994fbff727)" d="M 73.64 118.95904 
L 709.2 118.95904 
" style="fill:none;stroke:#ffffff;stroke-linecap:square;stroke-opacity:0.2;stroke-width:0.8;"/>
     </g>
     <g id="line2d_22">
      <g>
       <use style="fill:#ffffff;stroke:#ffffff;stroke-width:0.8;" x="73.64" xlink:href="#mb8b20343a2" y="118.95904"/>
      </g>
     </g>
     <g id="text_12">
      <!-- 5 -->
      <g style="fill:#ffffff;" transform="translate(57.09625 124.657868)scale(0.15 -0.15)">
       <use xlink:href="#DejaVuSans-53"/>
      </g>
     </g>
    </g>
    <g id="ytick_6">
     <g id="line2d_23">
      <path clip-path="url(#p994fbff727)" d="M 73.64 73.046196 
L 709.2 73.046196 
" style="fill:none;stroke:#ffffff;stroke-linecap:square;stroke-opacity:0.2;stroke-width:0.8;"/>
     </g>
     <g id="line2d_24">
      <g>
       <use style="fill:#ffffff;stroke:#ffffff;stroke-width:0.8;" x="73.64" xlink:href="#mb8b20343a2" y="73.046196"/>
      </g>
     </g>
     <g id="text_13">
      <!-- 10 -->
      <g style="fill:#ffffff;" transform="translate(47.5525 78.745024)scale(0.15 -0.15)">
       <use xlink:href="#DejaVuSans-49"/>
       <use x="63.623047" xlink:href="#DejaVuSans-48"/>
      </g>
     </g>
    </g>
    <g id="ytick_7">
     <g id="line2d_25">
      <path clip-path="url(#p994fbff727)" d="M 73.64 27.133352 
L 709.2 27.133352 
" style="fill:none;stroke:#ffffff;stroke-linecap:square;stroke-opacity:0.2;stroke-width:0.8;"/>
     </g>
     <g id="line2d_26">
      <g>
       <use style="fill:#ffffff;stroke:#ffffff;stroke-width:0.8;" x="73.64" xlink:href="#mb8b20343a2" y="27.133352"/>
      </g>
     </g>
     <g id="text_14">
      <!-- 15 -->
      <g style="fill:#ffffff;" transform="translate(47.5525 32.832181)scale(0.15 -0.15)">
       <use xlink:href="#DejaVuSans-49"/>
       <use x="63.623047" xlink:href="#DejaVuSans-53"/>
      </g>
     </g>
    </g>
    <g id="text_15">
     <!-- Amplitude (y) -->
     <defs>
      <path d="M 34.1875 63.1875 
L 20.796875 26.90625 
L 47.609375 26.90625 
z
M 28.609375 72.90625 
L 39.796875 72.90625 
L 67.578125 0 
L 57.328125 0 
L 50.6875 18.703125 
L 17.828125 18.703125 
L 11.1875 0 
L 0.78125 0 
z
" id="DejaVuSans-65"/>
      <path d="M 18.109375 8.203125 
L 18.109375 -20.796875 
L 9.078125 -20.796875 
L 9.078125 54.6875 
L 18.109375 54.6875 
L 18.109375 46.390625 
Q 20.953125 51.265625 25.265625 53.625 
Q 29.59375 56 35.59375 56 
Q 45.5625 56 51.78125 48.09375 
Q 58.015625 40.1875 58.015625 27.296875 
Q 58.015625 14.40625 51.78125 6.484375 
Q 45.5625 -1.421875 35.59375 -1.421875 
Q 29.59375 -1.421875 25.265625 0.953125 
Q 20.953125 3.328125 18.109375 8.203125 
z
M 48.6875 27.296875 
Q 48.6875 37.203125 44.609375 42.84375 
Q 40.53125 48.484375 33.40625 48.484375 
Q 26.265625 48.484375 22.1875 42.84375 
Q 18.109375 37.203125 18.109375 27.296875 
Q 18.109375 17.390625 22.1875 11.75 
Q 26.265625 6.109375 33.40625 6.109375 
Q 40.53125 6.109375 44.609375 11.75 
Q 48.6875 17.390625 48.6875 27.296875 
z
" id="DejaVuSans-112"/>
      <path d="M 9.421875 75.984375 
L 18.40625 75.984375 
L 18.40625 0 
L 9.421875 0 
z
" id="DejaVuSans-108"/>
      <path d="M 8.5 21.578125 
L 8.5 54.6875 
L 17.484375 54.6875 
L 17.484375 21.921875 
Q 17.484375 14.15625 20.5 10.265625 
Q 23.53125 6.390625 29.59375 6.390625 
Q 36.859375 6.390625 41.078125 11.03125 
Q 45.3125 15.671875 45.3125 23.6875 
L 45.3125 54.6875 
L 54.296875 54.6875 
L 54.296875 0 
L 45.3125 0 
L 45.3125 8.40625 
Q 42.046875 3.421875 37.71875 1 
Q 33.40625 -1.421875 27.6875 -1.421875 
Q 18.265625 -1.421875 13.375 4.4375 
Q 8.5 10.296875 8.5 21.578125 
z
M 31.109375 56 
z
" id="DejaVuSans-117"/>
      <path d="M 45.40625 46.390625 
L 45.40625 75.984375 
L 54.390625 75.984375 
L 54.390625 0 
L 45.40625 0 
L 45.40625 8.203125 
Q 42.578125 3.328125 38.25 0.953125 
Q 33.9375 -1.421875 27.875 -1.421875 
Q 17.96875 -1.421875 11.734375 6.484375 
Q 5.515625 14.40625 5.515625 27.296875 
Q 5.515625 40.1875 11.734375 48.09375 
Q 17.96875 56 27.875 56 
Q 33.9375 56 38.25 53.625 
Q 42.578125 51.265625 45.40625 46.390625 
z
M 14.796875 27.296875 
Q 14.796875 17.390625 18.875 11.75 
Q 22.953125 6.109375 30.078125 6.109375 
Q 37.203125 6.109375 41.296875 11.75 
Q 45.40625 17.390625 45.40625 27.296875 
Q 45.40625 37.203125 41.296875 42.84375 
Q 37.203125 48.484375 30.078125 48.484375 
Q 22.953125 48.484375 18.875 42.84375 
Q 14.796875 37.203125 14.796875 27.296875 
z
" id="DejaVuSans-100"/>
      <path d="M 32.171875 -5.078125 
Q 28.375 -14.84375 24.75 -17.8125 
Q 21.140625 -20.796875 15.09375 -20.796875 
L 7.90625 -20.796875 
L 7.90625 -13.28125 
L 13.1875 -13.28125 
Q 16.890625 -13.28125 18.9375 -11.515625 
Q 21 -9.765625 23.484375 -3.21875 
L 25.09375 0.875 
L 2.984375 54.6875 
L 12.5 54.6875 
L 29.59375 11.921875 
L 46.6875 54.6875 
L 56.203125 54.6875 
z
" id="DejaVuSans-121"/>
     </defs>
     <g style="fill:#ffffff;" transform="translate(26.823594 225.365313)rotate(-90)scale(0.2 -0.2)">
      <use xlink:href="#DejaVuSans-65"/>
      <use x="68.408203" xlink:href="#DejaVuSans-109"/>
      <use x="165.820312" xlink:href="#DejaVuSans-112"/>
      <use x="229.296875" xlink:href="#DejaVuSans-108"/>
      <use x="257.080078" xlink:href="#DejaVuSans-105"/>
      <use x="284.863281" xlink:href="#DejaVuSans-116"/>
      <use x="324.072266" xlink:href="#DejaVuSans-117"/>
      <use x="387.451172" xlink:href="#DejaVuSans-100"/>
      <use x="450.927734" xlink:href="#DejaVuSans-101"/>
      <use x="512.451172" xlink:href="#DejaVuSans-32"/>
      <use x="544.238281" xlink:href="#DejaVuSans-40"/>
      <use x="583.251953" xlink:href="#DejaVuSans-121"/>
      <use x="642.431641" xlink:href="#DejaVuSans-41"/>
     </g>
    </g>
   </g>
   <g id="line2d_27">
    <path clip-path="url(#p994fbff727)" d="M 102.529091 164.871884 
L 103.685233 105.575599 
L 104.552339 72.169702 
L 105.13041 58.198771 
L 105.419445 53.983948 
L 105.708481 51.625296 
L 105.997516 51.068325 
L 106.286551 52.212804 
L 106.575587 54.917222 
L 107.153658 64.269042 
L 108.020764 84.802607 
L 109.465941 120.962622 
L 110.333047 136.248739 
L 110.911118 142.722224 
L 111.489189 146.698262 
L 112.06726 149.134195 
L 112.645331 151.268425 
L 113.223402 154.384951 
L 113.801473 159.571753 
L 114.379543 167.509194 
L 114.957614 178.320326 
L 116.113756 205.976198 
L 117.269898 232.270213 
L 117.847969 240.42428 
L 118.137004 242.506084 
L 118.426039 243.034813 
L 118.715075 241.888047 
L 119.00411 238.985687 
L 119.582181 227.827193 
L 120.160252 209.874333 
L 121.027358 172.750998 
L 123.339642 63.648547 
L 123.917712 46.110852 
L 124.495783 35.532856 
L 124.784819 32.986095 
L 125.073854 32.238279 
L 125.36289 33.207448 
L 125.651925 35.767721 
L 126.229996 44.970098 
L 127.097102 65.688524 
L 128.542279 102.740193 
L 129.12035 113.826158 
L 129.698421 121.525573 
L 130.276492 125.878991 
L 130.565527 126.981527 
L 130.854563 127.528975 
L 131.143598 127.672742 
L 132.010704 127.394363 
L 132.29974 127.647759 
L 132.588775 128.344316 
L 132.877811 129.617846 
L 133.455882 134.286813 
L 134.033952 142.08563 
L 134.901059 159.077541 
L 136.635271 197.722588 
L 137.213342 205.844094 
L 137.502378 208.078791 
L 137.791413 208.889667 
L 138.080448 208.167158 
L 138.369484 205.843865 
L 138.658519 201.897904 
L 139.23659 189.287455 
L 139.814661 171.100838 
L 140.970803 124.299681 
L 142.126944 77.851467 
L 142.705015 60.151762 
L 143.283086 48.294807 
L 143.572122 44.839855 
L 143.861157 43.089274 
L 144.150192 43.023001 
L 144.439228 44.572949 
L 144.728263 47.625892 
L 145.306334 57.589706 
L 146.17344 78.967215 
L 147.618617 115.571774 
L 148.196688 125.658091 
L 148.774759 131.70483 
L 149.063795 133.169145 
L 149.35283 133.655584 
L 149.641865 133.259408 
L 149.930901 132.110125 
L 150.508972 128.206463 
L 151.665113 119.35626 
L 151.954149 118.047474 
L 152.243184 117.428719 
L 152.53222 117.617947 
L 152.821255 118.697962 
L 153.110291 120.712859 
L 153.688361 127.519033 
L 154.266432 137.573529 
L 156.578716 183.687677 
L 156.867751 186.705918 
L 157.156787 188.513566 
L 157.445822 189.007002 
L 157.734857 188.123778 
L 158.023893 185.845514 
L 158.601964 177.257299 
L 159.180035 163.988968 
L 160.336176 129.376633 
L 161.492318 97.089045 
L 162.070389 86.561968 
L 162.359424 83.306843 
L 162.64846 81.516899 
L 162.937495 81.229271 
L 163.226531 82.43337 
L 163.515566 85.071351 
L 164.093637 94.195399 
L 164.960743 114.824569 
L 166.40592 152.031435 
L 166.983991 162.444857 
L 167.562062 168.306882 
L 167.851097 169.353314 
L 168.140133 169.13853 
L 168.429168 167.715268 
L 169.007239 161.663571 
L 169.874345 147.051952 
L 171.030487 126.231859 
L 171.608558 119.129613 
L 171.897593 117.000376 
L 172.186629 115.958612 
L 172.475664 116.058294 
L 172.7647 117.310408 
L 173.053735 119.682733 
L 173.631806 127.452761 
L 174.498912 144.489443 
L 175.944089 173.806319 
L 176.52216 181.113007 
L 176.811196 183.216927 
L 177.100231 184.189528 
L 177.389266 184.009325 
L 177.678302 182.698132 
L 177.967337 180.320451 
L 178.545408 172.822604 
L 179.70155 151.809592 
L 180.568656 137.650035 
L 181.146727 132.135767 
L 181.435762 131.028748 
L 181.724798 131.148445 
L 182.013833 132.536517 
L 182.302869 135.189349 
L 182.88094 144.048028 
L 183.748046 164.219525 
L 185.193223 201.968658 
L 185.771294 212.840808 
L 186.349365 218.850105 
L 186.6384 219.723105 
L 186.927436 219.098176 
L 187.216471 216.976675 
L 187.794542 208.485804 
L 188.372613 195.174444 
L 189.528754 160.600637 
L 190.395861 135.601678 
L 190.973932 122.957523 
L 191.552002 115.127402 
L 191.841038 113.251674 
L 192.130073 112.771512 
L 192.419109 113.657326 
L 192.708144 115.836044 
L 193.286215 123.583463 
L 194.153321 141.043132 
L 195.598498 171.562109 
L 196.176569 179.809119 
L 196.75464 184.446583 
L 197.043675 185.368343 
L 197.332711 185.417345 
L 197.621746 184.685567 
L 198.199817 181.412607 
L 199.644994 171.067033 
L 199.93403 170.170648 
L 200.223065 170.063482 
L 200.512101 170.866962 
L 200.801136 172.667039 
L 201.379207 179.400072 
L 201.957278 190.120406 
L 202.824384 211.721667 
L 204.269561 248.775658 
L 204.847632 258.330978 
L 205.136667 261.11368 
L 205.425703 262.361817 
L 205.714738 261.97309 
L 206.003774 259.891203 
L 206.292809 256.108366 
L 206.87088 243.654915 
L 207.448951 225.513672 
L 208.605093 178.918702 
L 209.761234 133.098613 
L 210.339305 115.753132 
L 210.917376 104.121735 
L 211.206411 100.688502 
L 211.495447 98.87753 
L 211.784482 98.65532 
L 212.073518 99.943555 
L 212.362553 102.62282 
L 212.940624 111.50286 
L 213.80773 130.555906 
L 215.252907 163.040067 
L 215.830978 172.234218 
L 216.409049 178.295571 
L 216.98712 181.430998 
L 217.276155 182.123996 
L 217.565191 182.411508 
L 218.432297 182.495586 
L 218.721332 182.848631 
L 219.010368 183.645572 
L 219.299403 185.03262 
L 219.877474 190.031441 
L 220.455545 198.41834 
L 221.033616 210.153026 
L 222.189758 240.300317 
L 223.345899 268.770934 
L 223.92397 277.611828 
L 224.213006 279.921561 
L 224.502041 280.605314 
L 224.791076 279.547755 
L 225.080112 276.678538 
L 225.658183 265.466943 
L 226.236254 247.393549 
L 227.10336 210.197459 
L 229.126608 113.474268 
L 229.704679 93.494446 
L 230.28275 79.99205 
L 230.571785 75.890144 
L 230.86082 73.574079 
L 231.149856 72.99812 
L 231.438891 74.071163 
L 231.727927 76.66097 
L 232.305998 85.690575 
L 233.173104 105.634826 
L 234.618281 140.967109 
L 235.485387 156.024122 
L 236.063458 162.484879 
L 236.641529 166.5637 
L 237.508635 170.392648 
L 238.086706 173.254724 
L 238.664777 177.797216 
L 239.242848 184.927443 
L 239.820919 195.057966 
L 240.688025 215.280244 
L 242.422237 258.962884 
L 243.000308 268.016264 
L 243.289344 270.497512 
L 243.578379 271.379951 
L 243.867415 270.531894 
L 244.15645 267.864173 
L 244.445485 263.334259 
L 245.023556 248.765058 
L 245.601627 227.476249 
L 246.468733 186.173184 
L 248.491981 85.310171 
L 249.070052 65.597813 
L 249.648123 52.841612 
L 249.937159 49.245246 
L 250.226194 47.495855 
L 250.515229 47.527168 
L 250.804265 49.228155 
L 251.0933 52.447832 
L 251.671371 62.676851 
L 252.538477 84.083519 
L 253.983655 120.628131 
L 254.561725 131.504113 
L 255.139796 139.369152 
L 255.717867 144.491162 
L 256.295938 147.668785 
L 257.45208 152.963669 
L 258.030151 157.565186 
L 258.608221 164.720276 
L 259.186292 174.773463 
L 260.053399 194.539441 
L 261.498576 230.095219 
L 262.076647 240.224057 
L 262.365682 243.512207 
L 262.654717 245.363471 
L 262.943753 245.627044 
L 263.232788 244.190642 
L 263.521824 240.985404 
L 264.099894 229.22969 
L 264.677965 210.77249 
L 265.545072 173.259213 
L 267.56832 76.79117 
L 268.14639 57.162571 
L 268.724461 44.167394 
L 269.013497 40.382295 
L 269.302532 38.426083 
L 269.591568 38.252238 
L 269.880603 39.767415 
L 270.169638 42.835486 
L 270.747709 52.905464 
L 271.614816 74.47968 
L 273.059993 111.812348 
L 273.638064 122.752991 
L 274.216134 130.274526 
L 274.794205 134.49747 
L 275.083241 135.574283 
L 275.372276 136.131407 
L 275.661312 136.324996 
L 276.239382 136.310619 
L 276.528418 136.45612 
L 276.817453 136.929279 
L 277.106489 137.880779 
L 277.395524 139.438011 
L 277.973595 144.728342 
L 278.551666 153.15784 
L 279.418772 170.941178 
L 281.152985 209.894202 
L 281.731056 217.681635 
L 282.020091 219.684802 
L 282.309126 220.232399 
L 282.598162 219.225006 
L 282.887197 216.606342 
L 283.465268 206.542125 
L 284.043339 190.52664 
L 284.910445 158.145868 
L 286.644658 88.331626 
L 287.222729 71.493633 
L 287.800799 60.636753 
L 288.089835 57.704746 
L 288.37887 56.475969 
L 288.667906 56.918165 
L 288.956941 58.951627 
L 289.535012 67.257338 
L 290.113083 79.965514 
L 292.425366 137.162171 
L 293.003437 144.937841 
L 293.292473 147.25897 
L 293.581508 148.555194 
L 293.870543 148.893089 
L 294.159579 148.376942 
L 294.448614 147.143977 
L 295.026685 143.204543 
L 295.893791 136.515631 
L 296.471862 133.787287 
L 296.760898 133.435149 
L 297.049933 133.914328 
L 297.338969 135.298229 
L 297.628004 137.620878 
L 298.206075 145.012826 
L 299.073181 161.662 
L 300.518358 192.862789 
L 301.096429 201.602678 
L 301.385465 204.390966 
L 301.6745 205.938245 
L 301.963535 206.150836 
L 302.252571 204.977091 
L 302.541606 202.40992 
L 303.119677 193.293969 
L 303.697748 179.634689 
L 305.142925 136.097255 
L 306.010031 113.477381 
L 306.588102 103.675538 
L 306.877138 100.824752 
L 307.166173 99.451969 
L 307.455209 99.582437 
L 307.744244 101.193641 
L 308.033279 104.21619 
L 308.61135 113.999753 
L 309.478457 135.222871 
L 310.923634 172.175929 
L 311.501704 182.130402 
L 312.079775 187.431484 
L 312.368811 188.186862 
L 312.657846 187.689135 
L 312.946882 186.001973 
L 313.524952 179.518903 
L 314.392059 164.611857 
L 315.5482 144.168229 
L 316.126271 137.53371 
L 316.415307 135.682741 
L 316.704342 134.935764 
L 316.993378 135.336112 
L 317.282413 136.883927 
L 317.860484 143.209207 
L 318.438555 153.094193 
L 320.750838 197.971383 
L 321.328909 202.706284 
L 321.617944 203.387955 
L 321.90698 202.917278 
L 322.196015 201.326861 
L 322.774086 195.126133 
L 323.641192 180.49813 
L 324.797334 159.711752 
L 325.375405 152.732455 
L 325.66444 150.742845 
L 325.953476 149.919174 
L 326.242511 150.335874 
L 326.531547 152.023408 
L 326.820582 154.966725 
L 327.398653 164.334943 
L 328.265759 184.947854 
L 329.710936 222.220267 
L 330.289007 232.495121 
L 330.578043 235.819058 
L 330.867078 237.755178 
L 331.156114 238.222696 
L 331.445149 237.187234 
L 331.734184 234.662108 
L 332.312255 225.430954 
L 332.890326 211.53709 
L 335.491645 139.600114 
L 336.069716 132.336199 
L 336.358751 130.760194 
L 336.647787 130.575687 
L 336.936822 131.741994 
L 337.225857 134.175627 
L 337.803928 142.320002 
L 338.671035 159.998356 
L 339.827176 184.760225 
L 340.405247 194.091371 
L 340.983318 199.998984 
L 341.272353 201.54899 
L 341.561389 202.181171 
L 341.850424 201.959335 
L 342.13946 200.98439 
L 342.717531 197.337633 
L 343.873672 188.340971 
L 344.162708 186.878583 
L 344.451743 186.093451 
L 344.740779 186.130149 
L 345.029814 187.101699 
L 345.318849 189.084484 
L 345.89692 196.184909 
L 346.474991 207.203349 
L 347.342097 228.950566 
L 348.498239 258.997046 
L 349.07631 270.078269 
L 349.654381 276.157558 
L 349.943416 276.916833 
L 350.232452 276.02 
L 350.521487 273.422721 
L 351.099558 263.194356 
L 351.677629 246.85192 
L 352.544735 213.9541 
L 354.278948 143.756146 
L 354.857019 126.865109 
L 355.435089 115.809702 
L 355.724125 112.681209 
L 356.01316 111.170298 
L 356.302196 111.232002 
L 356.591231 112.777328 
L 356.880266 115.677335 
L 357.458337 124.859242 
L 358.325444 143.949968 
L 359.481585 170.071404 
L 360.059656 180.144464 
L 360.637727 187.166416 
L 361.215798 191.110945 
L 361.504833 192.087511 
L 361.793869 192.55091 
L 362.082904 192.646613 
L 362.95001 192.411518 
L 363.239046 192.743745 
L 363.528081 193.55786 
L 363.817117 194.994461 
L 364.395188 200.15947 
L 364.973258 208.740736 
L 365.551329 220.61658 
L 366.707471 250.582973 
L 367.574577 272.192143 
L 368.152648 282.581819 
L 368.441684 285.885072 
L 368.730719 287.675115 
L 369.019754 287.805924 
L 369.30879 286.173028 
L 369.597825 282.717906 
L 370.175896 270.352641 
L 370.753967 251.232182 
L 371.621073 212.854406 
L 373.644321 115.876772 
L 374.222392 96.380132 
L 374.800463 83.477535 
L 375.089498 79.689022 
L 375.378534 77.679026 
L 375.667569 77.390156 
L 375.956605 78.720579 
L 376.24564 81.528596 
L 376.823711 90.84734 
L 377.690817 110.795913 
L 379.135994 145.088337 
L 379.714065 155.218477 
L 380.292136 162.448355 
L 380.870207 167.050031 
L 381.448278 169.822698 
L 382.315384 173.130873 
L 382.893455 176.632891 
L 383.471526 182.431049 
L 384.049597 191.141165 
L 384.916703 209.582088 
L 386.939951 259.159306 
L 387.518022 267.298345 
L 387.807057 269.250847 
L 388.096093 269.567841 
L 388.385128 268.127812 
L 388.674163 264.85293 
L 389.252234 252.726699 
L 389.830305 233.544088 
L 390.697411 194.199207 
L 393.009695 78.288212 
L 393.587766 59.105969 
L 394.165837 46.980219 
L 394.454872 43.70562 
L 394.743907 42.265902 
L 395.032943 42.583236 
L 395.321978 44.536106 
L 395.900049 52.675967 
L 396.47812 65.062626 
L 398.790403 120.699911 
L 399.368474 129.411527 
L 399.946545 135.211299 
L 400.524616 138.715043 
L 401.969793 144.800697 
L 402.547864 149.404496 
L 403.125935 156.63661 
L 403.704006 166.769099 
L 404.571112 186.488109 
L 406.016289 221.020622 
L 406.59436 230.342281 
L 406.883395 233.151798 
L 407.172431 234.483748 
L 407.461466 234.196434 
L 407.750502 232.188022 
L 408.039537 228.401122 
L 408.617608 215.501834 
L 409.195679 196.008617 
L 410.062785 157.331286 
L 412.086033 60.672014 
L 412.664104 41.555655 
L 413.242175 29.194602 
L 413.53121 25.741629 
L 413.820246 24.110909 
L 414.109281 24.243923 
L 414.398316 26.036199 
L 414.687352 29.341714 
L 415.265423 39.735997 
L 416.132529 61.352289 
L 417.577706 97.647483 
L 418.155777 107.937598 
L 418.733848 114.790479 
L 419.311919 118.405681 
L 419.600954 119.222536 
L 419.88999 119.557531 
L 420.179025 119.571129 
L 420.757096 119.330907 
L 421.046131 119.429491 
L 421.335167 119.895797 
L 421.624202 120.8753 
L 421.913238 122.488604 
L 422.491308 127.941896 
L 423.069379 136.538529 
L 423.936486 154.409164 
L 425.381663 187.167727 
L 425.959734 196.356319 
L 426.248769 199.259711 
L 426.537804 200.80845 
L 426.82684 200.873594 
L 427.115875 199.366153 
L 427.404911 196.241156 
L 427.982981 185.192826 
L 428.561052 168.308979 
L 429.428159 135.017548 
L 431.162371 65.246937 
L 431.740442 48.912305 
L 432.318513 38.691855 
L 432.607548 36.098575 
L 432.896584 35.205769 
L 433.185619 35.969099 
L 433.474655 38.297452 
L 434.052725 47.07417 
L 434.919832 67.522146 
L 436.365009 104.969749 
L 436.94308 115.996994 
L 437.521151 123.106335 
L 437.810186 125.093619 
L 438.099221 126.069697 
L 438.388257 126.11095 
L 438.677292 125.330402 
L 439.255363 121.907535 
L 440.70054 111.25745 
L 440.989576 110.28731 
L 441.278611 110.070305 
L 441.567647 110.707346 
L 441.856682 112.26224 
L 442.434753 118.17971 
L 443.012824 127.520824 
L 444.168965 152.302961 
L 445.036072 169.996805 
L 445.614143 178.151644 
L 445.903178 180.590551 
L 446.192213 181.762159 
L 446.481249 181.58298 
L 446.770284 180.012332 
L 447.05932 177.054479 
L 447.637391 167.220824 
L 448.215461 152.997379 
L 450.527745 86.989705 
L 451.105816 77.770058 
L 451.394851 75.250727 
L 451.683886 74.221088 
L 451.972922 74.694456 
L 452.261957 76.636452 
L 452.840028 84.559659 
L 453.418099 96.849412 
L 455.730382 153.422835 
L 456.308453 160.517246 
L 456.597489 162.211066 
L 456.886524 162.634079 
L 457.17556 161.816748 
L 457.464595 159.833506 
L 458.042666 152.867025 
L 458.909772 137.611246 
L 460.065914 117.498356 
L 460.643985 111.310932 
L 460.93302 109.727207 
L 461.222056 109.26325 
L 461.511091 109.951667 
L 461.800126 111.781769 
L 462.378197 118.612783 
L 462.956268 128.864737 
L 464.979516 169.531808 
L 465.557587 175.871309 
L 465.846622 177.426275 
L 466.135658 177.8338 
L 466.424693 177.094027 
L 466.713729 175.250289 
L 467.2918 168.630314 
L 468.158906 153.712472 
L 469.315048 133.331382 
L 469.893118 126.863336 
L 470.182154 125.183726 
L 470.471189 124.693578 
L 470.760225 125.456561 
L 471.04926 127.49184 
L 471.627331 135.228181 
L 472.205402 147.162494 
L 474.806721 208.781123 
L 475.095756 211.811676 
L 475.384791 213.43091 
L 475.673827 213.569435 
L 475.962862 212.204735 
L 476.251898 209.362058 
L 476.829969 199.576513 
L 477.408039 185.302447 
L 479.720323 119.842998 
L 480.298394 110.743977 
L 480.587429 108.18531 
L 480.876465 107.020096 
L 481.1655 107.241243 
L 481.454535 108.797105 
L 481.743571 111.594002 
L 482.321642 120.351187 
L 483.188748 138.576386 
L 484.34489 163.329844 
L 484.922961 172.417905 
L 485.501031 178.012743 
L 485.790067 179.405618 
L 486.079102 179.893798 
L 486.368138 179.550686 
L 486.657173 178.485853 
L 487.235244 174.78154 
L 488.391386 166.257903 
L 488.680421 165.034171 
L 488.969457 164.527282 
L 489.258492 164.874461 
L 489.547527 166.179995 
L 489.836563 168.51046 
L 490.414634 176.30488 
L 490.992705 187.943706 
L 492.148846 218.291288 
L 493.015953 240.383271 
L 493.594023 251.119543 
L 493.883059 254.630079 
L 494.172094 256.673261 
L 494.46113 257.125204 
L 494.750165 255.906199 
L 495.039201 252.983989 
L 495.617271 242.146781 
L 496.195342 225.328561 
L 497.062448 192.13518 
L 498.796661 123.223783 
L 499.374732 107.228629 
L 499.952803 97.184844 
L 500.241838 94.576433 
L 500.530874 93.57932 
L 500.819909 94.137221 
L 501.108944 96.150717 
L 501.687015 103.958885 
L 502.554122 122.207223 
L 503.999299 155.44492 
L 504.57737 165.406038 
L 505.15544 172.280449 
L 505.733511 176.120252 
L 506.022547 177.082507 
L 506.311582 177.566446 
L 506.600618 177.722751 
L 507.178688 177.730058 
L 507.467724 177.934526 
L 507.756759 178.502553 
L 508.045795 179.590295 
L 508.33483 181.33231 
L 508.912901 187.172078 
L 509.490972 196.450574 
L 510.358078 216.192073 
L 512.381326 266.971708 
L 512.959397 274.509904 
L 513.248432 276.036453 
L 513.537468 275.874004 
L 513.826503 273.929211 
L 514.115539 270.155556 
L 514.69361 257.183342 
L 515.27168 237.577803 
L 516.138787 198.884763 
L 518.162035 103.713234 
L 518.740106 85.279674 
L 519.318176 73.547697 
L 519.607212 70.354363 
L 519.896247 68.929889 
L 520.185283 69.205416 
L 520.474318 71.068655 
L 521.052389 78.922662 
L 521.63046 90.93998 
L 523.942743 145.34013 
L 524.520814 153.962582 
L 525.098885 159.787301 
L 525.676956 163.431563 
L 527.122133 170.371735 
L 527.700204 175.518861 
L 528.278275 183.409111 
L 528.856345 194.310397 
L 529.723452 215.363571 
L 531.168629 252.363827 
L 531.7467 262.618616 
L 532.035735 265.851214 
L 532.324771 267.565144 
L 532.613806 267.609423 
L 532.902841 265.873022 
L 533.191877 262.289668 
L 533.769948 249.559562 
L 534.348019 229.87339 
L 535.215125 190.155724 
L 537.238373 87.839624 
L 537.816444 66.577551 
L 538.394515 52.035178 
L 538.68355 47.518712 
L 538.972585 44.864462 
L 539.261621 44.029897 
L 539.550656 44.925853 
L 539.839692 47.420639 
L 540.417763 56.501164 
L 541.284869 77.064543 
L 542.730046 114.361082 
L 543.597152 130.687512 
L 544.175223 137.845468 
L 544.753294 142.415777 
L 545.331365 145.305761 
L 546.198471 149.176735 
L 546.776542 153.283685 
L 547.354613 159.772659 
L 547.932684 169.128353 
L 548.79979 188.13009 
L 550.534002 230.262971 
L 551.112073 239.321362 
L 551.401109 241.925596 
L 551.690144 243.013087 
L 551.97918 242.451597 
L 552.268215 240.150024 
L 552.55725 236.06263 
L 553.135321 222.589326 
L 553.713392 202.638681 
L 554.580498 163.677215 
L 556.314711 80.117522 
L 556.892782 59.044282 
L 557.470853 44.329085 
L 557.759888 39.641053 
L 558.048924 36.786755 
L 558.337959 35.744138 
L 558.626994 36.442853 
L 558.91603 38.76757 
L 559.494101 47.638494 
L 560.361207 68.291787 
L 562.09542 112.650176 
L 562.67349 122.787511 
L 563.251561 129.475593 
L 563.829632 132.991759 
L 564.118668 133.804061 
L 564.407703 134.172487 
L 564.985774 134.245546 
L 565.274809 134.302831 
L 565.563845 134.605807 
L 565.85288 135.314289 
L 566.141916 136.568116 
L 566.719986 141.133863 
L 567.298057 148.80579 
L 567.876128 159.478639 
L 569.03227 186.361056 
L 569.899376 205.461349 
L 570.477447 214.372988 
L 570.766482 217.068083 
L 571.055518 218.372168 
L 571.344553 218.165828 
L 571.633589 216.370747 
L 571.922624 212.953424 
L 572.500695 201.353907 
L 573.078766 184.040388 
L 573.945872 150.50183 
L 575.391049 91.753965 
L 575.96912 73.645079 
L 576.547191 61.224064 
L 576.836226 57.457474 
L 577.125262 55.391854 
L 577.414297 55.019413 
L 577.703333 56.283856 
L 577.992368 59.082884 
L 578.570439 68.670913 
L 579.437545 89.909277 
L 580.882722 127.457778 
L 581.460793 138.211209 
L 582.038864 144.977414 
L 582.327899 146.794106 
L 582.616935 147.614221 
L 582.90597 147.523707 
L 583.195006 146.643996 
L 583.773077 143.146731 
L 584.929218 134.512431 
L 585.218254 133.142699 
L 585.507289 132.427744 
L 585.796325 132.493589 
L 586.08536 133.43221 
L 586.374395 135.297634 
L 586.952466 141.821876 
L 587.530537 151.683539 
L 589.842821 198.905313 
L 590.420891 204.476623 
L 590.709927 205.379596 
L 590.998962 204.91661 
L 591.287998 203.058077 
L 591.577033 199.81965 
L 592.155104 189.491401 
L 593.02221 166.534306 
L 594.756423 116.043889 
L 595.334494 105.020559 
L 595.623529 101.468904 
L 595.912564 99.364886 
L 596.2016 98.757458 
L 596.490635 99.647978 
L 596.779671 101.990281 
L 597.357742 110.619658 
L 597.935812 123.428064 
L 599.95906 174.661668 
L 600.537131 183.555861 
L 600.826167 186.226476 
L 601.115202 187.632349 
L 601.404238 187.769864 
L 601.693273 186.68068 
L 601.982308 184.449801 
L 602.560379 177.097659 
L 603.716521 156.17446 
L 604.583627 142.014437 
L 605.161698 136.333677 
L 605.450734 135.040542 
L 605.739769 134.878413 
L 606.028804 135.869105 
L 606.31784 137.991133 
L 606.895911 145.334089 
L 607.763017 162.035229 
L 609.208194 191.833381 
L 609.786265 199.64001 
L 610.0753 202.030659 
L 610.364336 203.301114 
L 610.653371 203.419154 
L 610.942407 202.395763 
L 611.231442 200.284916 
L 611.809513 193.2195 
L 612.676619 177.970793 
L 613.832761 157.917201 
L 614.410832 151.902625 
L 614.699867 150.497947 
L 614.988903 150.301763 
L 615.277938 151.366811 
L 615.566973 153.700889 
L 616.145044 161.979798 
L 616.723115 174.313906 
L 619.035399 230.876931 
L 619.613469 237.521459 
L 619.902505 238.744424 
L 620.19154 238.47568 
L 620.480576 236.704633 
L 620.769611 233.468422 
L 621.347682 222.979218 
L 622.214788 199.676694 
L 623.949001 149.104155 
L 624.527072 138.078387 
L 625.105143 132.19214 
L 625.394178 131.328072 
L 625.683213 131.840679 
L 625.972249 133.667512 
L 626.55032 140.812533 
L 627.417426 157.723022 
L 628.862603 188.372392 
L 629.440674 196.938881 
L 630.018745 201.945603 
L 630.30778 203.045022 
L 630.596816 203.253668 
L 630.885851 202.654346 
L 631.174887 201.365007 
L 631.752957 197.333364 
L 632.909099 188.728124 
L 633.198135 187.598387 
L 633.48717 187.221772 
L 633.776205 187.727786 
L 634.065241 189.211689 
L 634.354276 191.730044 
L 634.932347 199.885983 
L 635.510418 211.795908 
L 636.66656 242.126224 
L 637.533666 263.562954 
L 638.111737 273.566317 
L 638.400772 276.639053 
L 638.689808 278.20881 
L 638.978843 278.162358 
L 639.267878 276.431612 
L 639.556914 272.996508 
L 640.134985 261.17929 
L 640.713056 243.519375 
L 641.869197 197.150899 
L 643.025339 150.42969 
L 643.60341 132.283125 
L 644.181481 119.712779 
L 644.470516 115.786889 
L 644.759552 113.48368 
L 645.048587 112.781268 
L 645.337622 113.612253 
L 645.626658 115.867073 
L 646.204729 124.028861 
L 647.071835 142.404595 
L 648.517012 174.787138 
L 649.095083 184.162054 
L 649.673154 190.419866 
L 650.251225 193.690511 
L 650.54026 194.407402 
L 650.829296 194.681143 
L 651.118331 194.667209 
L 651.696402 194.463875 
L 651.985437 194.628036 
L 652.274473 195.19589 
L 652.563508 196.318844 
L 652.852544 198.125028 
L 653.430614 204.147335 
L 654.008685 213.616649 
L 654.875792 233.481466 
L 656.610004 277.514828 
L 657.188075 286.758404 
L 657.47711 289.339293 
L 657.766146 290.329091 
L 658.055181 289.601913 
L 658.344217 287.075803 
L 658.633252 282.716412 
L 659.211323 268.609671 
L 659.789394 247.999846 
L 660.6565 208.223244 
L 662.390713 124.239521 
L 662.968783 103.290757 
L 663.546854 88.688427 
L 664.124925 81.135948 
L 664.413961 80.010062 
L 664.702996 80.559682 
L 664.992031 82.662387 
L 665.570102 90.85829 
L 666.437209 109.972084 
L 667.882386 144.975931 
L 668.749492 160.184658 
L 669.327563 166.736069 
L 669.905634 170.814982 
L 670.483705 173.32881 
L 671.350811 176.850845 
L 671.928882 180.869163 
L 672.506953 187.384968 
L 673.085023 196.880602 
L 673.95213 216.284724 
L 675.686342 259.598103 
L 676.264413 268.992489 
L 676.553449 271.718204 
L 676.842484 272.883989 
L 677.131519 272.348333 
L 677.420555 270.011004 
L 677.70959 265.817515 
L 678.287661 251.889277 
L 678.865732 231.117043 
L 679.732838 190.170571 
L 680.310909 159.336804 
L 680.310909 159.336804 
" style="fill:none;stroke:#00ffff;stroke-linecap:square;stroke-width:1.5;"/>
   </g>
   <g id="patch_3">
    <path d="M 73.64 303.64 
L 73.64 10.8 
" style="fill:none;stroke:#ffffff;stroke-linecap:square;stroke-linejoin:miter;stroke-width:0.8;"/>
   </g>
   <g id="patch_4">
    <path d="M 709.2 303.64 
L 709.2 10.8 
" style="fill:none;stroke:#ffffff;stroke-linecap:square;stroke-linejoin:miter;stroke-width:0.8;"/>
   </g>
   <g id="patch_5">
    <path d="M 73.64 303.64 
L 709.2 303.64 
" style="fill:none;stroke:#ffffff;stroke-linecap:square;stroke-linejoin:miter;stroke-width:0.8;"/>
   </g>
   <g id="patch_6">
    <path d="M 73.64 10.8 
L 709.2 10.8 
" style="fill:none;stroke:#ffffff;stroke-linecap:square;stroke-linejoin:miter;stroke-width:0.8;"/>
   </g>
  </g>
 </g>
 <defs>
  <clipPath id="p994fbff727">
   <rect height="292.84" width="635.56" x="73.64" y="10.8"/>
  </clipPath>
 </defs>
</svg>
