<svg width="4408" height="2483" xmlns="http://www.w3.org/2000/svg" xmlns:xlink="http://www.w3.org/1999/xlink" xml:space="preserve" overflow="hidden"><defs><clipPath id="clip0"><rect x="-4" y="-4" width="4408" height="2483"/></clipPath></defs><g clip-path="url(#clip0)" transform="translate(4 4)"><rect x="0.499836" y="0.499836" width="4400" height="2475" stroke="#2F528F" stroke-width="4.58333" stroke-linecap="butt" stroke-linejoin="miter" stroke-miterlimit="8" stroke-opacity="1" fill="#000000" fill-opacity="1"/><text fill="#02FEFA" fill-opacity="1" font-family="Cambria Math,Cambria Math_MSFontService,sans-serif" font-style="normal" font-variant="normal" font-weight="400" font-stretch="normal" font-size="202" text-anchor="start" direction="ltr" writing-mode="lr-tb" unicode-bidi="normal" text-decoration="none" transform="translate(679.246 1182)">ğ‘¦</text><path d="M970.214 1030.9C989.414 1035.96 1004.16 1046.89 1014.45 1063.69 1024.74 1080.49 1029.89 1100.76 1029.89 1124.5 1029.89 1148.3 1024.76 1168.57 1014.5 1185.31 1004.24 1202.04 989.48 1212.94 970.214 1218L967.846 1210.41C983.036 1205.35 994.329 1195.35 1001.73 1180.43 1009.12 1165.5 1012.82 1146.53 1012.82 1123.51 1012.82 1101.29 1009.14 1082.83 1001.78 1068.13 994.412 1053.44 983.003 1043.56 967.551 1038.49ZM872.975 1030.9 875.638 1038.49C860.252 1043.56 848.859 1053.44 841.462 1068.13 834.065 1082.83 830.366 1101.29 830.366 1123.51 830.366 1146.53 834.065 1165.5 841.462 1180.43 848.859 1195.35 860.153 1205.35 875.342 1210.41L872.975 1218C853.709 1212.94 838.947 1202.04 828.689 1185.31 818.431 1168.57 813.302 1148.3 813.302 1124.5 813.302 1100.76 818.448 1080.49 828.738 1063.69 839.029 1046.89 853.775 1035.96 872.975 1030.9Z" fill="#02FEFA" fill-rule="evenodd" fill-opacity="1"/><text fill="#02FEFA" fill-opacity="1" font-family="Cambria Math,Cambria Math_MSFontService,sans-serif" font-style="normal" font-variant="normal" font-weight="400" font-stretch="normal" font-size="202" text-anchor="start" direction="ltr" writing-mode="lr-tb" unicode-bidi="normal" text-decoration="none" transform="translate(879.24 1182)">ğ‘¡</text><text fill="#02FEFA" fill-opacity="1" font-family="Cambria Math,Cambria Math_MSFontService,sans-serif" font-style="normal" font-variant="normal" font-weight="400" font-stretch="normal" font-size="202" text-anchor="start" direction="ltr" writing-mode="lr-tb" unicode-bidi="normal" text-decoration="none" transform="translate(1103.5 1182)">=</text><text fill="#02FEFA" fill-opacity="1" font-family="Cambria Math,Cambria Math_MSFontService,sans-serif" font-style="normal" font-variant="normal" font-weight="400" font-stretch="normal" font-size="202" text-anchor="start" direction="ltr" writing-mode="lr-tb" unicode-bidi="normal" text-decoration="none" transform="translate(1310.19 1182)">1</text><text fill="#02FEFA" fill-opacity="1" font-family="Cambria Math,Cambria Math_MSFontService,sans-serif" font-style="normal" font-variant="normal" font-weight="400" font-stretch="normal" font-size="202" text-anchor="start" direction="ltr" writing-mode="lr-tb" unicode-bidi="normal" text-decoration="none" transform="translate(1421.91 1182)"> </text><text fill="#02FEFA" fill-opacity="1" font-family="Cambria Math,Cambria Math_MSFontService,sans-serif" font-style="normal" font-variant="normal" font-weight="400" font-stretch="normal" font-size="202" text-anchor="start" direction="ltr" writing-mode="lr-tb" unicode-bidi="normal" text-decoration="none" transform="translate(1466.59 1182)">Ã—</text><text fill="#02FEFA" fill-opacity="1" font-family="Cambria Math,Cambria Math_MSFontService,sans-serif" font-style="normal" font-variant="normal" font-weight="400" font-stretch="normal" font-size="202" text-anchor="start" direction="ltr" writing-mode="lr-tb" unicode-bidi="normal" text-decoration="none" transform="translate(1610.4 1182)"> </text><text fill="#02FEFA" fill-opacity="1" font-family="Cambria Math,Cambria Math_MSFontService,sans-serif" font-style="normal" font-variant="normal" font-weight="400" font-stretch="normal" font-size="202" text-anchor="start" direction="ltr" writing-mode="lr-tb" unicode-bidi="normal" text-decoration="none" transform="translate(1655.08 1182)">sin</text><path d="M2340.22 1030.9C2359.42 1035.96 2374.16 1046.89 2384.45 1063.69 2394.75 1080.49 2399.89 1100.76 2399.89 1124.5 2399.89 1148.3 2394.76 1168.57 2384.5 1185.31 2374.25 1202.04 2359.48 1212.94 2340.22 1218L2337.85 1210.41C2353.04 1205.35 2364.33 1195.35 2371.73 1180.43 2379.13 1165.5 2382.83 1146.53 2382.83 1123.51 2382.83 1101.29 2379.15 1082.83 2371.78 1068.13 2364.42 1053.44 2353.01 1043.56 2337.55 1038.49ZM1987.46 1030.9 1990.12 1038.49C1974.73 1043.56 1963.34 1053.44 1955.95 1068.13 1948.55 1082.83 1944.85 1101.29 1944.85 1123.51 1944.85 1146.53 1948.55 1165.5 1955.95 1180.43 1963.34 1195.35 1974.64 1205.35 1989.83 1210.41L1987.46 1218C1968.19 1212.94 1953.43 1202.04 1943.17 1185.31 1932.91 1168.57 1927.79 1148.3 1927.79 1124.5 1927.79 1100.76 1932.93 1080.49 1943.22 1063.69 1953.51 1046.89 1968.26 1035.96 1987.46 1030.9Z" fill="#02FEFA" fill-rule="evenodd" fill-opacity="1"/><text fill="#02FEFA" fill-opacity="1" font-family="Cambria Math,Cambria Math_MSFontService,sans-serif" font-style="normal" font-variant="normal" font-weight="400" font-stretch="normal" font-size="202" text-anchor="start" direction="ltr" writing-mode="lr-tb" unicode-bidi="normal" text-decoration="none" transform="translate(1993.72 1182)">1</text><text fill="#02FEFA" fill-opacity="1" font-family="Cambria Math,Cambria Math_MSFontService,sans-serif" font-style="normal" font-variant="normal" font-weight="400" font-stretch="normal" font-size="202" text-anchor="start" direction="ltr" writing-mode="lr-tb" unicode-bidi="normal" text-decoration="none" transform="translate(2105.44 1182)">Ã—</text><text fill="#02FEFA" fill-opacity="1" font-family="Cambria Math,Cambria Math_MSFontService,sans-serif" font-style="normal" font-variant="normal" font-weight="400" font-stretch="normal" font-size="202" text-anchor="start" direction="ltr" writing-mode="lr-tb" unicode-bidi="normal" text-decoration="none" transform="translate(2249.24 1182)">ğ‘¡</text><text fill="#02FEFA" fill-opacity="1" font-family="Cambria Math,Cambria Math_MSFontService,sans-serif" font-style="normal" font-variant="normal" font-weight="400" font-stretch="normal" font-size="202" text-anchor="start" direction="ltr" writing-mode="lr-tb" unicode-bidi="normal" text-decoration="none" transform="translate(2462.32 1182)">+</text><text fill="#02FEFA" fill-opacity="1" font-family="Cambria Math,Cambria Math_MSFontService,sans-serif" font-style="normal" font-variant="normal" font-weight="400" font-stretch="normal" font-size="202" text-anchor="start" direction="ltr" writing-mode="lr-tb" unicode-bidi="normal" text-decoration="none" transform="translate(2657.83 1182)">2</text><text fill="#02FEFA" fill-opacity="1" font-family="Cambria Math,Cambria Math_MSFontService,sans-serif" font-style="normal" font-variant="normal" font-weight="400" font-stretch="normal" font-size="202" text-anchor="start" direction="ltr" writing-mode="lr-tb" unicode-bidi="normal" text-decoration="none" transform="translate(2769.54 1182)">Ã—</text><text fill="#02FEFA" fill-opacity="1" font-family="Cambria Math,Cambria Math_MSFontService,sans-serif" font-style="normal" font-variant="normal" font-weight="400" font-stretch="normal" font-size="202" text-anchor="start" direction="ltr" writing-mode="lr-tb" unicode-bidi="normal" text-decoration="none" transform="translate(2913.35 1182)">s</text><text fill="#02FEFA" fill-opacity="1" font-family="Cambria Math,Cambria Math_MSFontService,sans-serif" font-style="normal" font-variant="normal" font-weight="400" font-stretch="normal" font-size="202" text-anchor="start" direction="ltr" writing-mode="lr-tb" unicode-bidi="normal" text-decoration="none" transform="translate(2999.86 1182)">in</text><text fill="#02FEFA" fill-opacity="1" font-family="Cambria Math,Cambria Math_MSFontService,sans-serif" font-style="normal" font-variant="normal" font-weight="400" font-stretch="normal" font-size="202" text-anchor="start" direction="ltr" writing-mode="lr-tb" unicode-bidi="normal" text-decoration="none" transform="translate(3168.29 1182)">(</text><text fill="#02FEFA" fill-opacity="1" font-family="Cambria Math,Cambria Math_MSFontService,sans-serif" font-style="normal" font-variant="normal" font-weight="400" font-stretch="normal" font-size="202" text-anchor="start" direction="ltr" writing-mode="lr-tb" unicode-bidi="normal" text-decoration="none" transform="translate(3251.94 1182)">2</text><text fill="#02FEFA" fill-opacity="1" font-family="Cambria Math,Cambria Math_MSFontService,sans-serif" font-style="normal" font-variant="normal" font-weight="400" font-stretch="normal" font-size="202" text-anchor="start" direction="ltr" writing-mode="lr-tb" unicode-bidi="normal" text-decoration="none" transform="translate(3363.66 1182)">Ã—</text><text fill="#02FEFA" fill-opacity="1" font-family="Cambria Math,Cambria Math_MSFontService,sans-serif" font-style="normal" font-variant="normal" font-weight="400" font-stretch="normal" font-size="202" text-anchor="start" direction="ltr" writing-mode="lr-tb" unicode-bidi="normal" text-decoration="none" transform="translate(3507.46 1182)">ğ‘¡</text><text fill="#02FEFA" fill-opacity="1" font-family="Cambria Math,Cambria Math_MSFontService,sans-serif" font-style="normal" font-variant="normal" font-weight="400" font-stretch="normal" font-size="202" text-anchor="start" direction="ltr" writing-mode="lr-tb" unicode-bidi="normal" text-decoration="none" transform="translate(3592.02 1182)">)</text><text fill="#02FEFA" fill-opacity="1" font-family="Cambria Math,Cambria Math_MSFontService,sans-serif" font-style="normal" font-variant="normal" font-weight="400" font-stretch="normal" font-size="202" text-anchor="start" direction="ltr" writing-mode="lr-tb" unicode-bidi="normal" text-decoration="none" transform="translate(3675.67 1182)"> </text></g></svg>