<?xml version="1.0" encoding="utf-8" standalone="no"?>
<!DOCTYPE svg PUBLIC "-//W3C//DTD SVG 1.1//EN"
  "http://www.w3.org/Graphics/SVG/1.1/DTD/svg11.dtd">
<!-- Created with matplotlib (https://matplotlib.org/) -->
<svg height="360pt" version="1.1" viewBox="0 0 720 360" width="720pt" xmlns="http://www.w3.org/2000/svg" xmlns:xlink="http://www.w3.org/1999/xlink">
 <defs>
  <style type="text/css">
*{stroke-linecap:butt;stroke-linejoin:round;}
  </style>
 </defs>
 <g id="figure_1">
  <g id="patch_1">
   <path d="M 0 360 
L 720 360 
L 720 0 
L 0 0 
z
" style="fill:#121212;"/>
  </g>
  <g id="axes_1">
   <g id="patch_2">
    <path d="M 71.39 297.88 
L 709.2 297.88 
L 709.2 10.8 
L 71.39 10.8 
z
" style="fill:#121212;"/>
   </g>
   <g id="matplotlib.axis_1">
    <g id="xtick_1">
     <g id="line2d_1">
      <path clip-path="url(#p4d454d57c0)" d="M 100.381364 297.88 
L 100.381364 10.8 
" style="fill:none;stroke:#ffffff;stroke-linecap:square;stroke-opacity:0.2;stroke-width:0.8;"/>
     </g>
     <g id="line2d_2">
      <defs>
       <path d="M 0 0 
L 0 3.5 
" id="m444efd838b" style="stroke:#ffffff;stroke-width:0.8;"/>
      </defs>
      <g>
       <use style="fill:#ffffff;stroke:#ffffff;stroke-width:0.8;" x="100.381364" xlink:href="#m444efd838b" y="297.88"/>
      </g>
     </g>
     <g id="text_1">
      <!-- 0 -->
      <defs>
       <path d="M 31.78125 66.40625 
Q 24.171875 66.40625 20.328125 58.90625 
Q 16.5 51.421875 16.5 36.375 
Q 16.5 21.390625 20.328125 13.890625 
Q 24.171875 6.390625 31.78125 6.390625 
Q 39.453125 6.390625 43.28125 13.890625 
Q 47.125 21.390625 47.125 36.375 
Q 47.125 51.421875 43.28125 58.90625 
Q 39.453125 66.40625 31.78125 66.40625 
z
M 31.78125 74.21875 
Q 44.046875 74.21875 50.515625 64.515625 
Q 56.984375 54.828125 56.984375 36.375 
Q 56.984375 17.96875 50.515625 8.265625 
Q 44.046875 -1.421875 31.78125 -1.421875 
Q 19.53125 -1.421875 13.0625 8.265625 
Q 6.59375 17.96875 6.59375 36.375 
Q 6.59375 54.828125 13.0625 64.515625 
Q 19.53125 74.21875 31.78125 74.21875 
z
" id="DejaVuSans-48"/>
      </defs>
      <g style="fill:#ffffff;" transform="translate(94.018864 320.076875)scale(0.2 -0.2)">
       <use xlink:href="#DejaVuSans-48"/>
      </g>
     </g>
    </g>
    <g id="xtick_2">
     <g id="line2d_3">
      <path clip-path="url(#p4d454d57c0)" d="M 215.734334 297.88 
L 215.734334 10.8 
" style="fill:none;stroke:#ffffff;stroke-linecap:square;stroke-opacity:0.2;stroke-width:0.8;"/>
     </g>
     <g id="line2d_4">
      <g>
       <use style="fill:#ffffff;stroke:#ffffff;stroke-width:0.8;" x="215.734334" xlink:href="#m444efd838b" y="297.88"/>
      </g>
     </g>
     <g id="text_2">
      <!-- 5 -->
      <defs>
       <path d="M 10.796875 72.90625 
L 49.515625 72.90625 
L 49.515625 64.59375 
L 19.828125 64.59375 
L 19.828125 46.734375 
Q 21.96875 47.46875 24.109375 47.828125 
Q 26.265625 48.1875 28.421875 48.1875 
Q 40.625 48.1875 47.75 41.5 
Q 54.890625 34.8125 54.890625 23.390625 
Q 54.890625 11.625 47.5625 5.09375 
Q 40.234375 -1.421875 26.90625 -1.421875 
Q 22.3125 -1.421875 17.546875 -0.640625 
Q 12.796875 0.140625 7.71875 1.703125 
L 7.71875 11.625 
Q 12.109375 9.234375 16.796875 8.0625 
Q 21.484375 6.890625 26.703125 6.890625 
Q 35.15625 6.890625 40.078125 11.328125 
Q 45.015625 15.765625 45.015625 23.390625 
Q 45.015625 31 40.078125 35.4375 
Q 35.15625 39.890625 26.703125 39.890625 
Q 22.75 39.890625 18.8125 39.015625 
Q 14.890625 38.140625 10.796875 36.28125 
z
" id="DejaVuSans-53"/>
      </defs>
      <g style="fill:#ffffff;" transform="translate(209.371834 320.076875)scale(0.2 -0.2)">
       <use xlink:href="#DejaVuSans-53"/>
      </g>
     </g>
    </g>
    <g id="xtick_3">
     <g id="line2d_5">
      <path clip-path="url(#p4d454d57c0)" d="M 331.087305 297.88 
L 331.087305 10.8 
" style="fill:none;stroke:#ffffff;stroke-linecap:square;stroke-opacity:0.2;stroke-width:0.8;"/>
     </g>
     <g id="line2d_6">
      <g>
       <use style="fill:#ffffff;stroke:#ffffff;stroke-width:0.8;" x="331.087305" xlink:href="#m444efd838b" y="297.88"/>
      </g>
     </g>
     <g id="text_3">
      <!-- 10 -->
      <defs>
       <path d="M 12.40625 8.296875 
L 28.515625 8.296875 
L 28.515625 63.921875 
L 10.984375 60.40625 
L 10.984375 69.390625 
L 28.421875 72.90625 
L 38.28125 72.90625 
L 38.28125 8.296875 
L 54.390625 8.296875 
L 54.390625 0 
L 12.40625 0 
z
" id="DejaVuSans-49"/>
      </defs>
      <g style="fill:#ffffff;" transform="translate(318.362305 320.076875)scale(0.2 -0.2)">
       <use xlink:href="#DejaVuSans-49"/>
       <use x="63.623047" xlink:href="#DejaVuSans-48"/>
      </g>
     </g>
    </g>
    <g id="xtick_4">
     <g id="line2d_7">
      <path clip-path="url(#p4d454d57c0)" d="M 446.440276 297.88 
L 446.440276 10.8 
" style="fill:none;stroke:#ffffff;stroke-linecap:square;stroke-opacity:0.2;stroke-width:0.8;"/>
     </g>
     <g id="line2d_8">
      <g>
       <use style="fill:#ffffff;stroke:#ffffff;stroke-width:0.8;" x="446.440276" xlink:href="#m444efd838b" y="297.88"/>
      </g>
     </g>
     <g id="text_4">
      <!-- 15 -->
      <g style="fill:#ffffff;" transform="translate(433.715276 320.076875)scale(0.2 -0.2)">
       <use xlink:href="#DejaVuSans-49"/>
       <use x="63.623047" xlink:href="#DejaVuSans-53"/>
      </g>
     </g>
    </g>
    <g id="xtick_5">
     <g id="line2d_9">
      <path clip-path="url(#p4d454d57c0)" d="M 561.793247 297.88 
L 561.793247 10.8 
" style="fill:none;stroke:#ffffff;stroke-linecap:square;stroke-opacity:0.2;stroke-width:0.8;"/>
     </g>
     <g id="line2d_10">
      <g>
       <use style="fill:#ffffff;stroke:#ffffff;stroke-width:0.8;" x="561.793247" xlink:href="#m444efd838b" y="297.88"/>
      </g>
     </g>
     <g id="text_5">
      <!-- 20 -->
      <defs>
       <path d="M 19.1875 8.296875 
L 53.609375 8.296875 
L 53.609375 0 
L 7.328125 0 
L 7.328125 8.296875 
Q 12.9375 14.109375 22.625 23.890625 
Q 32.328125 33.6875 34.8125 36.53125 
Q 39.546875 41.84375 41.421875 45.53125 
Q 43.3125 49.21875 43.3125 52.78125 
Q 43.3125 58.59375 39.234375 62.25 
Q 35.15625 65.921875 28.609375 65.921875 
Q 23.96875 65.921875 18.8125 64.3125 
Q 13.671875 62.703125 7.8125 59.421875 
L 7.8125 69.390625 
Q 13.765625 71.78125 18.9375 73 
Q 24.125 74.21875 28.421875 74.21875 
Q 39.75 74.21875 46.484375 68.546875 
Q 53.21875 62.890625 53.21875 53.421875 
Q 53.21875 48.921875 51.53125 44.890625 
Q 49.859375 40.875 45.40625 35.40625 
Q 44.1875 33.984375 37.640625 27.21875 
Q 31.109375 20.453125 19.1875 8.296875 
z
" id="DejaVuSans-50"/>
      </defs>
      <g style="fill:#ffffff;" transform="translate(549.068247 320.076875)scale(0.2 -0.2)">
       <use xlink:href="#DejaVuSans-50"/>
       <use x="63.623047" xlink:href="#DejaVuSans-48"/>
      </g>
     </g>
    </g>
    <g id="xtick_6">
     <g id="line2d_11">
      <path clip-path="url(#p4d454d57c0)" d="M 677.146217 297.88 
L 677.146217 10.8 
" style="fill:none;stroke:#ffffff;stroke-linecap:square;stroke-opacity:0.2;stroke-width:0.8;"/>
     </g>
     <g id="line2d_12">
      <g>
       <use style="fill:#ffffff;stroke:#ffffff;stroke-width:0.8;" x="677.146217" xlink:href="#m444efd838b" y="297.88"/>
      </g>
     </g>
     <g id="text_6">
      <!-- 25 -->
      <g style="fill:#ffffff;" transform="translate(664.421217 320.076875)scale(0.2 -0.2)">
       <use xlink:href="#DejaVuSans-50"/>
       <use x="63.623047" xlink:href="#DejaVuSans-53"/>
      </g>
     </g>
    </g>
    <g id="text_7">
     <!-- Time (t) -->
     <defs>
      <path d="M -0.296875 72.90625 
L 61.375 72.90625 
L 61.375 64.59375 
L 35.5 64.59375 
L 35.5 0 
L 25.59375 0 
L 25.59375 64.59375 
L -0.296875 64.59375 
z
" id="DejaVuSans-84"/>
      <path d="M 9.421875 54.6875 
L 18.40625 54.6875 
L 18.40625 0 
L 9.421875 0 
z
M 9.421875 75.984375 
L 18.40625 75.984375 
L 18.40625 64.59375 
L 9.421875 64.59375 
z
" id="DejaVuSans-105"/>
      <path d="M 52 44.1875 
Q 55.375 50.25 60.0625 53.125 
Q 64.75 56 71.09375 56 
Q 79.640625 56 84.28125 50.015625 
Q 88.921875 44.046875 88.921875 33.015625 
L 88.921875 0 
L 79.890625 0 
L 79.890625 32.71875 
Q 79.890625 40.578125 77.09375 44.375 
Q 74.3125 48.1875 68.609375 48.1875 
Q 61.625 48.1875 57.5625 43.546875 
Q 53.515625 38.921875 53.515625 30.90625 
L 53.515625 0 
L 44.484375 0 
L 44.484375 32.71875 
Q 44.484375 40.625 41.703125 44.40625 
Q 38.921875 48.1875 33.109375 48.1875 
Q 26.21875 48.1875 22.15625 43.53125 
Q 18.109375 38.875 18.109375 30.90625 
L 18.109375 0 
L 9.078125 0 
L 9.078125 54.6875 
L 18.109375 54.6875 
L 18.109375 46.1875 
Q 21.1875 51.21875 25.484375 53.609375 
Q 29.78125 56 35.6875 56 
Q 41.65625 56 45.828125 52.96875 
Q 50 49.953125 52 44.1875 
z
" id="DejaVuSans-109"/>
      <path d="M 56.203125 29.59375 
L 56.203125 25.203125 
L 14.890625 25.203125 
Q 15.484375 15.921875 20.484375 11.0625 
Q 25.484375 6.203125 34.421875 6.203125 
Q 39.59375 6.203125 44.453125 7.46875 
Q 49.3125 8.734375 54.109375 11.28125 
L 54.109375 2.78125 
Q 49.265625 0.734375 44.1875 -0.34375 
Q 39.109375 -1.421875 33.890625 -1.421875 
Q 20.796875 -1.421875 13.15625 6.1875 
Q 5.515625 13.8125 5.515625 26.8125 
Q 5.515625 40.234375 12.765625 48.109375 
Q 20.015625 56 32.328125 56 
Q 43.359375 56 49.78125 48.890625 
Q 56.203125 41.796875 56.203125 29.59375 
z
M 47.21875 32.234375 
Q 47.125 39.59375 43.09375 43.984375 
Q 39.0625 48.390625 32.421875 48.390625 
Q 24.90625 48.390625 20.390625 44.140625 
Q 15.875 39.890625 15.1875 32.171875 
z
" id="DejaVuSans-101"/>
      <path id="DejaVuSans-32"/>
      <path d="M 31 75.875 
Q 24.46875 64.65625 21.28125 53.65625 
Q 18.109375 42.671875 18.109375 31.390625 
Q 18.109375 20.125 21.3125 9.0625 
Q 24.515625 -2 31 -13.1875 
L 23.1875 -13.1875 
Q 15.875 -1.703125 12.234375 9.375 
Q 8.59375 20.453125 8.59375 31.390625 
Q 8.59375 42.28125 12.203125 53.3125 
Q 15.828125 64.359375 23.1875 75.875 
z
" id="DejaVuSans-40"/>
      <path d="M 18.3125 70.21875 
L 18.3125 54.6875 
L 36.8125 54.6875 
L 36.8125 47.703125 
L 18.3125 47.703125 
L 18.3125 18.015625 
Q 18.3125 11.328125 20.140625 9.421875 
Q 21.96875 7.515625 27.59375 7.515625 
L 36.8125 7.515625 
L 36.8125 0 
L 27.59375 0 
Q 17.1875 0 13.234375 3.875 
Q 9.28125 7.765625 9.28125 18.015625 
L 9.28125 47.703125 
L 2.6875 47.703125 
L 2.6875 54.6875 
L 9.28125 54.6875 
L 9.28125 70.21875 
z
" id="DejaVuSans-116"/>
      <path d="M 8.015625 75.875 
L 15.828125 75.875 
Q 23.140625 64.359375 26.78125 53.3125 
Q 30.421875 42.28125 30.421875 31.390625 
Q 30.421875 20.453125 26.78125 9.375 
Q 23.140625 -1.703125 15.828125 -13.1875 
L 8.015625 -13.1875 
Q 14.5 -2 17.703125 9.0625 
Q 20.90625 20.125 20.90625 31.390625 
Q 20.90625 42.671875 17.703125 53.65625 
Q 14.5 64.65625 8.015625 75.875 
z
" id="DejaVuSans-41"/>
     </defs>
     <g style="fill:#ffffff;" transform="translate(350.618438 343.433125)scale(0.2 -0.2)">
      <use xlink:href="#DejaVuSans-84"/>
      <use x="61.037109" xlink:href="#DejaVuSans-105"/>
      <use x="88.820312" xlink:href="#DejaVuSans-109"/>
      <use x="186.232422" xlink:href="#DejaVuSans-101"/>
      <use x="247.755859" xlink:href="#DejaVuSans-32"/>
      <use x="279.542969" xlink:href="#DejaVuSans-40"/>
      <use x="318.556641" xlink:href="#DejaVuSans-116"/>
      <use x="357.765625" xlink:href="#DejaVuSans-41"/>
     </g>
    </g>
   </g>
   <g id="matplotlib.axis_2">
    <g id="ytick_1">
     <g id="line2d_13">
      <path clip-path="url(#p4d454d57c0)" d="M 71.39 284.831594 
L 709.2 284.831594 
" style="fill:none;stroke:#ffffff;stroke-linecap:square;stroke-opacity:0.2;stroke-width:0.8;"/>
     </g>
     <g id="line2d_14">
      <defs>
       <path d="M 0 0 
L -3.5 0 
" id="m236db87ff2" style="stroke:#ffffff;stroke-width:0.8;"/>
      </defs>
      <g>
       <use style="fill:#ffffff;stroke:#ffffff;stroke-width:0.8;" x="71.39" xlink:href="#m236db87ff2" y="284.831594"/>
      </g>
     </g>
     <g id="text_8">
      <!-- −3 -->
      <defs>
       <path d="M 10.59375 35.5 
L 73.1875 35.5 
L 73.1875 27.203125 
L 10.59375 27.203125 
z
" id="DejaVuSans-8722"/>
       <path d="M 40.578125 39.3125 
Q 47.65625 37.796875 51.625 33 
Q 55.609375 28.21875 55.609375 21.1875 
Q 55.609375 10.40625 48.1875 4.484375 
Q 40.765625 -1.421875 27.09375 -1.421875 
Q 22.515625 -1.421875 17.65625 -0.515625 
Q 12.796875 0.390625 7.625 2.203125 
L 7.625 11.71875 
Q 11.71875 9.328125 16.59375 8.109375 
Q 21.484375 6.890625 26.8125 6.890625 
Q 36.078125 6.890625 40.9375 10.546875 
Q 45.796875 14.203125 45.796875 21.1875 
Q 45.796875 27.640625 41.28125 31.265625 
Q 36.765625 34.90625 28.71875 34.90625 
L 20.21875 34.90625 
L 20.21875 43.015625 
L 29.109375 43.015625 
Q 36.375 43.015625 40.234375 45.921875 
Q 44.09375 48.828125 44.09375 54.296875 
Q 44.09375 59.90625 40.109375 62.90625 
Q 36.140625 65.921875 28.71875 65.921875 
Q 24.65625 65.921875 20.015625 65.03125 
Q 15.375 64.15625 9.8125 62.3125 
L 9.8125 71.09375 
Q 15.4375 72.65625 20.34375 73.4375 
Q 25.25 74.21875 29.59375 74.21875 
Q 40.828125 74.21875 47.359375 69.109375 
Q 53.90625 64.015625 53.90625 55.328125 
Q 53.90625 49.265625 50.4375 45.09375 
Q 46.96875 40.921875 40.578125 39.3125 
z
" id="DejaVuSans-51"/>
      </defs>
      <g style="fill:#ffffff;" transform="translate(34.905625 292.430031)scale(0.2 -0.2)">
       <use xlink:href="#DejaVuSans-8722"/>
       <use x="83.789062" xlink:href="#DejaVuSans-51"/>
      </g>
     </g>
    </g>
    <g id="ytick_2">
     <g id="line2d_15">
      <path clip-path="url(#p4d454d57c0)" d="M 71.39 241.334396 
L 709.2 241.334396 
" style="fill:none;stroke:#ffffff;stroke-linecap:square;stroke-opacity:0.2;stroke-width:0.8;"/>
     </g>
     <g id="line2d_16">
      <g>
       <use style="fill:#ffffff;stroke:#ffffff;stroke-width:0.8;" x="71.39" xlink:href="#m236db87ff2" y="241.334396"/>
      </g>
     </g>
     <g id="text_9">
      <!-- −2 -->
      <g style="fill:#ffffff;" transform="translate(34.905625 248.932833)scale(0.2 -0.2)">
       <use xlink:href="#DejaVuSans-8722"/>
       <use x="83.789062" xlink:href="#DejaVuSans-50"/>
      </g>
     </g>
    </g>
    <g id="ytick_3">
     <g id="line2d_17">
      <path clip-path="url(#p4d454d57c0)" d="M 71.39 197.837198 
L 709.2 197.837198 
" style="fill:none;stroke:#ffffff;stroke-linecap:square;stroke-opacity:0.2;stroke-width:0.8;"/>
     </g>
     <g id="line2d_18">
      <g>
       <use style="fill:#ffffff;stroke:#ffffff;stroke-width:0.8;" x="71.39" xlink:href="#m236db87ff2" y="197.837198"/>
      </g>
     </g>
     <g id="text_10">
      <!-- −1 -->
      <g style="fill:#ffffff;" transform="translate(34.905625 205.435635)scale(0.2 -0.2)">
       <use xlink:href="#DejaVuSans-8722"/>
       <use x="83.789062" xlink:href="#DejaVuSans-49"/>
      </g>
     </g>
    </g>
    <g id="ytick_4">
     <g id="line2d_19">
      <path clip-path="url(#p4d454d57c0)" d="M 71.39 154.34 
L 709.2 154.34 
" style="fill:none;stroke:#ffffff;stroke-linecap:square;stroke-opacity:0.2;stroke-width:0.8;"/>
     </g>
     <g id="line2d_20">
      <g>
       <use style="fill:#ffffff;stroke:#ffffff;stroke-width:0.8;" x="71.39" xlink:href="#m236db87ff2" y="154.34"/>
      </g>
     </g>
     <g id="text_11">
      <!-- 0 -->
      <g style="fill:#ffffff;" transform="translate(51.665 161.938437)scale(0.2 -0.2)">
       <use xlink:href="#DejaVuSans-48"/>
      </g>
     </g>
    </g>
    <g id="ytick_5">
     <g id="line2d_21">
      <path clip-path="url(#p4d454d57c0)" d="M 71.39 110.842802 
L 709.2 110.842802 
" style="fill:none;stroke:#ffffff;stroke-linecap:square;stroke-opacity:0.2;stroke-width:0.8;"/>
     </g>
     <g id="line2d_22">
      <g>
       <use style="fill:#ffffff;stroke:#ffffff;stroke-width:0.8;" x="71.39" xlink:href="#m236db87ff2" y="110.842802"/>
      </g>
     </g>
     <g id="text_12">
      <!-- 1 -->
      <g style="fill:#ffffff;" transform="translate(51.665 118.44124)scale(0.2 -0.2)">
       <use xlink:href="#DejaVuSans-49"/>
      </g>
     </g>
    </g>
    <g id="ytick_6">
     <g id="line2d_23">
      <path clip-path="url(#p4d454d57c0)" d="M 71.39 67.345604 
L 709.2 67.345604 
" style="fill:none;stroke:#ffffff;stroke-linecap:square;stroke-opacity:0.2;stroke-width:0.8;"/>
     </g>
     <g id="line2d_24">
      <g>
       <use style="fill:#ffffff;stroke:#ffffff;stroke-width:0.8;" x="71.39" xlink:href="#m236db87ff2" y="67.345604"/>
      </g>
     </g>
     <g id="text_13">
      <!-- 2 -->
      <g style="fill:#ffffff;" transform="translate(51.665 74.944042)scale(0.2 -0.2)">
       <use xlink:href="#DejaVuSans-50"/>
      </g>
     </g>
    </g>
    <g id="ytick_7">
     <g id="line2d_25">
      <path clip-path="url(#p4d454d57c0)" d="M 71.39 23.848406 
L 709.2 23.848406 
" style="fill:none;stroke:#ffffff;stroke-linecap:square;stroke-opacity:0.2;stroke-width:0.8;"/>
     </g>
     <g id="line2d_26">
      <g>
       <use style="fill:#ffffff;stroke:#ffffff;stroke-width:0.8;" x="71.39" xlink:href="#m236db87ff2" y="23.848406"/>
      </g>
     </g>
     <g id="text_14">
      <!-- 3 -->
      <g style="fill:#ffffff;" transform="translate(51.665 31.446844)scale(0.2 -0.2)">
       <use xlink:href="#DejaVuSans-51"/>
      </g>
     </g>
    </g>
    <g id="text_15">
     <!-- Amplitude (y) -->
     <defs>
      <path d="M 34.1875 63.1875 
L 20.796875 26.90625 
L 47.609375 26.90625 
z
M 28.609375 72.90625 
L 39.796875 72.90625 
L 67.578125 0 
L 57.328125 0 
L 50.6875 18.703125 
L 17.828125 18.703125 
L 11.1875 0 
L 0.78125 0 
z
" id="DejaVuSans-65"/>
      <path d="M 18.109375 8.203125 
L 18.109375 -20.796875 
L 9.078125 -20.796875 
L 9.078125 54.6875 
L 18.109375 54.6875 
L 18.109375 46.390625 
Q 20.953125 51.265625 25.265625 53.625 
Q 29.59375 56 35.59375 56 
Q 45.5625 56 51.78125 48.09375 
Q 58.015625 40.1875 58.015625 27.296875 
Q 58.015625 14.40625 51.78125 6.484375 
Q 45.5625 -1.421875 35.59375 -1.421875 
Q 29.59375 -1.421875 25.265625 0.953125 
Q 20.953125 3.328125 18.109375 8.203125 
z
M 48.6875 27.296875 
Q 48.6875 37.203125 44.609375 42.84375 
Q 40.53125 48.484375 33.40625 48.484375 
Q 26.265625 48.484375 22.1875 42.84375 
Q 18.109375 37.203125 18.109375 27.296875 
Q 18.109375 17.390625 22.1875 11.75 
Q 26.265625 6.109375 33.40625 6.109375 
Q 40.53125 6.109375 44.609375 11.75 
Q 48.6875 17.390625 48.6875 27.296875 
z
" id="DejaVuSans-112"/>
      <path d="M 9.421875 75.984375 
L 18.40625 75.984375 
L 18.40625 0 
L 9.421875 0 
z
" id="DejaVuSans-108"/>
      <path d="M 8.5 21.578125 
L 8.5 54.6875 
L 17.484375 54.6875 
L 17.484375 21.921875 
Q 17.484375 14.15625 20.5 10.265625 
Q 23.53125 6.390625 29.59375 6.390625 
Q 36.859375 6.390625 41.078125 11.03125 
Q 45.3125 15.671875 45.3125 23.6875 
L 45.3125 54.6875 
L 54.296875 54.6875 
L 54.296875 0 
L 45.3125 0 
L 45.3125 8.40625 
Q 42.046875 3.421875 37.71875 1 
Q 33.40625 -1.421875 27.6875 -1.421875 
Q 18.265625 -1.421875 13.375 4.4375 
Q 8.5 10.296875 8.5 21.578125 
z
M 31.109375 56 
z
" id="DejaVuSans-117"/>
      <path d="M 45.40625 46.390625 
L 45.40625 75.984375 
L 54.390625 75.984375 
L 54.390625 0 
L 45.40625 0 
L 45.40625 8.203125 
Q 42.578125 3.328125 38.25 0.953125 
Q 33.9375 -1.421875 27.875 -1.421875 
Q 17.96875 -1.421875 11.734375 6.484375 
Q 5.515625 14.40625 5.515625 27.296875 
Q 5.515625 40.1875 11.734375 48.09375 
Q 17.96875 56 27.875 56 
Q 33.9375 56 38.25 53.625 
Q 42.578125 51.265625 45.40625 46.390625 
z
M 14.796875 27.296875 
Q 14.796875 17.390625 18.875 11.75 
Q 22.953125 6.109375 30.078125 6.109375 
Q 37.203125 6.109375 41.296875 11.75 
Q 45.40625 17.390625 45.40625 27.296875 
Q 45.40625 37.203125 41.296875 42.84375 
Q 37.203125 48.484375 30.078125 48.484375 
Q 22.953125 48.484375 18.875 42.84375 
Q 14.796875 37.203125 14.796875 27.296875 
z
" id="DejaVuSans-100"/>
      <path d="M 32.171875 -5.078125 
Q 28.375 -14.84375 24.75 -17.8125 
Q 21.140625 -20.796875 15.09375 -20.796875 
L 7.90625 -20.796875 
L 7.90625 -13.28125 
L 13.1875 -13.28125 
Q 16.890625 -13.28125 18.9375 -11.515625 
Q 21 -9.765625 23.484375 -3.21875 
L 25.09375 0.875 
L 2.984375 54.6875 
L 12.5 54.6875 
L 29.59375 11.921875 
L 46.6875 54.6875 
L 56.203125 54.6875 
z
" id="DejaVuSans-121"/>
     </defs>
     <g style="fill:#ffffff;" transform="translate(26.74625 222.485313)rotate(-90)scale(0.2 -0.2)">
      <use xlink:href="#DejaVuSans-65"/>
      <use x="68.408203" xlink:href="#DejaVuSans-109"/>
      <use x="165.820312" xlink:href="#DejaVuSans-112"/>
      <use x="229.296875" xlink:href="#DejaVuSans-108"/>
      <use x="257.080078" xlink:href="#DejaVuSans-105"/>
      <use x="284.863281" xlink:href="#DejaVuSans-116"/>
      <use x="324.072266" xlink:href="#DejaVuSans-117"/>
      <use x="387.451172" xlink:href="#DejaVuSans-100"/>
      <use x="450.927734" xlink:href="#DejaVuSans-101"/>
      <use x="512.451172" xlink:href="#DejaVuSans-32"/>
      <use x="544.238281" xlink:href="#DejaVuSans-40"/>
      <use x="583.251953" xlink:href="#DejaVuSans-121"/>
      <use x="642.431641" xlink:href="#DejaVuSans-41"/>
     </g>
    </g>
   </g>
   <g id="line2d_27">
    <path clip-path="url(#p4d454d57c0)" d="M 100.381364 154.34 
L 102.701833 108.043332 
L 103.862068 88.226687 
L 105.022302 72.173658 
L 105.892478 63.143454 
L 106.472596 58.713013 
L 107.052713 55.620154 
L 107.63283 53.897756 
L 107.922889 53.55488 
L 108.212948 53.557186 
L 108.503006 53.902705 
L 108.793065 54.588122 
L 109.373182 56.958731 
L 109.9533 60.616182 
L 110.823476 68.350291 
L 111.693652 78.486184 
L 112.853886 95.019249 
L 114.594238 123.877572 
L 117.204766 167.407299 
L 118.365001 183.439867 
L 119.235177 193.104011 
L 120.105353 200.313844 
L 120.68547 203.60817 
L 121.265588 205.616654 
L 121.555646 206.124721 
L 121.845705 206.297191 
L 122.135764 206.132132 
L 122.425822 205.628967 
L 123.00594 203.612797 
L 123.586057 200.271113 
L 124.166174 195.647617 
L 125.03635 186.455003 
L 125.906526 174.825746 
L 127.066761 156.208693 
L 128.807113 123.951025 
L 131.7077 69.656911 
L 132.867934 51.642317 
L 133.73811 40.617545 
L 134.608286 32.156435 
L 135.188404 28.089191 
L 135.768521 25.357097 
L 136.05858 24.50578 
L 136.348638 24.002461 
L 136.638697 23.849091 
L 136.928756 24.046265 
L 137.218814 24.593218 
L 137.798932 26.726634 
L 138.379049 30.2163 
L 138.959166 35.008179 
L 139.829342 44.470163 
L 140.699518 56.361948 
L 141.859753 75.273361 
L 143.600105 107.762441 
L 146.210633 156.834944 
L 147.370867 175.354184 
L 148.531102 190.205843 
L 149.401278 198.40273 
L 149.981395 202.311818 
L 150.561513 204.911927 
L 150.851571 205.710339 
L 151.14163 206.171255 
L 151.431689 206.294064 
L 151.721747 206.079511 
L 152.011806 205.529697 
L 152.591923 203.439397 
L 153.172041 200.066579 
L 153.752158 195.475228 
L 154.622334 186.491205 
L 155.782569 171.175581 
L 157.232862 148.194045 
L 161.003625 85.86205 
L 162.163859 71.075207 
L 163.034035 62.603018 
L 163.614153 58.404375 
L 164.19427 55.46306 
L 164.774387 53.840846 
L 165.064446 53.538075 
L 165.354505 53.578837 
L 165.644563 53.964932 
L 165.934622 54.696805 
L 166.514739 57.192872 
L 167.094857 61.043529 
L 167.674974 66.203994 
L 168.54515 76.252236 
L 169.415326 88.794254 
L 170.575561 108.711595 
L 172.315913 143.084517 
L 175.216499 201.302331 
L 176.376734 221.017186 
L 177.536969 236.937038 
L 178.407145 245.851719 
L 178.987262 250.199926 
L 179.567379 253.207873 
L 180.147497 254.844014 
L 180.437555 255.143682 
L 180.727614 255.098339 
L 181.017673 254.710123 
L 181.307731 253.98252 
L 181.887849 251.52972 
L 182.467966 247.794062 
L 183.338142 239.952763 
L 184.208318 229.725139 
L 185.368553 213.099272 
L 187.108905 184.175721 
L 189.719433 140.726509 
L 190.879667 124.793159 
L 191.749843 115.224229 
L 192.620019 108.123675 
L 193.200137 104.908086 
L 193.780254 102.981584 
L 194.070313 102.515315 
L 194.360371 102.384958 
L 194.65043 102.592277 
L 194.940489 103.137677 
L 195.520606 105.237572 
L 196.100723 108.660868 
L 196.680841 113.362551 
L 197.551017 122.663298 
L 198.421193 134.386263 
L 199.581427 153.100032 
L 201.321779 185.430422 
L 204.222366 239.634092 
L 205.382601 257.543518 
L 206.252777 268.468543 
L 207.122953 276.815793 
L 207.70307 280.801225 
L 208.283187 283.448249 
L 208.573246 284.25622 
L 208.863305 284.715874 
L 209.153363 284.82543 
L 209.443422 284.584464 
L 209.733481 283.99391 
L 210.313598 281.774539 
L 210.893715 278.201688 
L 211.473833 273.33068 
L 212.344009 263.760262 
L 213.214185 251.775662 
L 214.374419 232.770233 
L 216.114771 200.214553 
L 218.725299 151.221319 
L 219.885534 132.800979 
L 221.045769 118.079373 
L 221.915945 109.995499 
L 222.496062 106.16689 
L 223.076179 103.649869 
L 223.366238 102.893564 
L 223.656297 102.474906 
L 223.946355 102.394336 
L 224.236414 102.650939 
L 224.526473 103.242446 
L 225.10659 105.414393 
L 225.686707 108.865452 
L 226.266825 113.530384 
L 227.137001 122.613482 
L 228.297235 138.034697 
L 229.747529 161.096451 
L 233.518291 223.331693 
L 234.678526 238.006257 
L 235.548702 246.374788 
L 236.128819 250.497035 
L 236.708937 253.357506 
L 237.289054 254.895693 
L 237.579113 255.155667 
L 237.869171 255.071809 
L 238.15923 254.642488 
L 238.449289 253.86743 
L 239.029406 251.285788 
L 239.609523 247.351739 
L 240.479699 239.021361 
L 241.349875 227.997607 
L 242.51011 209.702735 
L 243.960403 182.528388 
L 248.311283 96.494425 
L 249.471518 78.671222 
L 250.341694 68.075463 
L 251.21187 60.220124 
L 251.791987 56.620675 
L 252.372104 54.38186 
L 252.662163 53.77962 
L 252.952222 53.523149 
L 253.24228 53.611496 
L 253.532339 54.042353 
L 253.822398 54.812069 
L 254.402515 57.346846 
L 254.982632 61.160422 
L 255.852808 69.108337 
L 256.722984 79.426974 
L 257.883219 96.144504 
L 259.623571 125.131335 
L 262.234099 168.497123 
L 263.394334 184.330176 
L 264.26451 193.803232 
L 265.134686 200.794004 
L 265.714803 203.930615 
L 266.29492 205.774976 
L 266.584979 206.199399 
L 266.875038 206.287615 
L 267.165096 206.038031 
L 267.455155 205.450409 
L 268.035272 203.266882 
L 268.61539 199.762151 
L 269.195507 194.982537 
L 270.065683 185.574184 
L 270.935859 173.758189 
L 272.096094 154.948803 
L 273.836446 122.547618 
L 276.446974 73.378515 
L 277.607208 54.755975 
L 278.767443 39.809858 
L 279.637619 31.576972 
L 280.217736 27.673594 
L 280.797854 25.1118 
L 281.087912 24.347226 
L 281.377971 23.931264 
L 281.66803 23.865528 
L 281.958088 24.150271 
L 282.248147 24.78439 
L 282.828264 27.089582 
L 283.408382 30.745402 
L 283.988499 35.695244 
L 284.858675 45.373516 
L 285.728851 57.450208 
L 286.889086 76.548504 
L 288.919496 114.804196 
L 291.239966 158.079868 
L 292.4002 176.400227 
L 293.270376 187.744346 
L 294.140552 196.609476 
L 294.72067 200.99692 
L 295.300787 204.092766 
L 295.880904 205.857256 
L 296.170963 206.233649 
L 296.461022 206.271994 
L 296.75108 205.973377 
L 297.041139 205.340234 
L 297.621256 203.086815 
L 298.201374 199.557769 
L 298.781491 194.819587 
L 299.651667 185.638042 
L 300.811902 170.112282 
L 302.262195 146.971857 
L 305.742899 89.00544 
L 306.903134 73.56673 
L 307.77331 64.485639 
L 308.643486 57.96649 
L 309.223603 55.1871 
L 309.80372 53.733096 
L 310.093779 53.515965 
L 310.383838 53.642945 
L 310.673896 54.115496 
L 310.963955 54.933723 
L 311.544072 57.600841 
L 312.12419 61.618103 
L 312.994366 70.06621 
L 313.864542 81.195515 
L 315.024776 99.605819 
L 316.47507 126.87398 
L 320.82595 212.798269 
L 321.986184 230.501105 
L 322.85636 240.988453 
L 323.726536 248.724037 
L 324.306654 252.239423 
L 324.886771 254.392329 
L 325.17683 254.951342 
L 325.466888 255.16463 
L 325.756947 255.033316 
L 326.047006 254.559875 
L 326.337064 253.748124 
L 326.917182 251.131586 
L 327.497299 247.240388 
L 328.367475 239.186434 
L 329.237651 228.777508 
L 330.397886 211.969461 
L 332.138238 182.921302 
L 334.458707 144.040796 
L 335.618942 127.528528 
L 336.489118 117.398397 
L 337.359294 109.649959 
L 337.939411 105.965726 
L 338.519528 103.549908 
L 338.809587 102.833672 
L 339.099646 102.451142 
L 339.389704 102.405092 
L 339.679763 102.696946 
L 339.969822 103.326771 
L 340.549939 105.593832 
L 341.130056 109.179817 
L 341.710173 114.037101 
L 342.580349 123.552527 
L 343.450525 135.460866 
L 344.61076 154.364763 
L 346.351112 186.834814 
L 348.96164 235.928182 
L 350.121875 254.452175 
L 351.282109 269.267229 
L 352.152285 277.385252 
L 352.732403 281.20634 
L 353.31252 283.682748 
L 353.602579 284.40388 
L 353.892637 284.776124 
L 354.182696 284.798037 
L 354.472755 284.469533 
L 354.762813 283.791887 
L 355.342931 281.401015 
L 355.923048 277.662447 
L 356.503165 272.634071 
L 357.373341 262.84853 
L 358.533576 246.165927 
L 359.983869 220.954054 
L 364.624808 136.003398 
L 365.785043 120.514473 
L 366.655219 111.759512 
L 367.235336 107.451231 
L 367.815453 104.43765 
L 368.395571 102.757204 
L 368.685629 102.42308 
L 368.975688 102.426942 
L 369.265747 102.767536 
L 369.555805 103.442257 
L 370.135923 105.776968 
L 370.71604 109.38374 
L 371.586216 117.025518 
L 372.456392 127.063816 
L 373.616627 143.48235 
L 375.356979 172.249898 
L 377.967507 215.882927 
L 379.127741 232.033504 
L 379.997917 241.795406 
L 380.868093 249.095165 
L 381.448211 252.436978 
L 382.028328 254.476814 
L 382.318387 254.992781 
L 382.608445 255.167024 
L 382.898504 254.9969 
L 383.188563 254.481117 
L 383.76868 252.414193 
L 384.348797 248.983024 
L 384.928915 244.225803 
L 385.799091 234.738207 
L 386.669267 222.686328 
L 387.829501 203.283352 
L 389.569853 169.322637 
L 392.760499 105.396648 
L 393.920733 85.993672 
L 395.080968 70.478449 
L 395.951144 61.91304 
L 396.531261 57.812751 
L 397.111379 55.060259 
L 397.691496 53.6831 
L 397.981555 53.512976 
L 398.271613 53.687219 
L 398.561672 54.203186 
L 399.141789 56.243022 
L 399.721907 59.584835 
L 400.302024 64.160579 
L 401.1722 73.141771 
L 402.332435 88.474467 
L 403.782728 111.481213 
L 407.553491 173.784586 
L 408.713725 188.556804 
L 409.583901 197.03625 
L 410.164019 201.254887 
L 410.744136 204.232842 
L 411.324253 205.912464 
L 411.614312 206.253058 
L 411.904371 206.25692 
L 412.194429 205.922796 
L 412.484488 205.250787 
L 413.064605 202.900295 
L 413.644723 199.233242 
L 414.22484 194.298555 
L 415.095016 184.676595 
L 415.965192 172.676602 
L 417.125427 153.679308 
L 418.865779 121.142324 
L 421.476307 72.127642 
L 422.636541 53.703316 
L 423.506717 42.286283 
L 424.376893 33.374925 
L 424.957011 28.982945 
L 425.537128 25.912276 
L 426.117245 24.210467 
L 426.407304 23.881963 
L 426.697363 23.903876 
L 426.987421 24.27612 
L 427.27748 24.997252 
L 427.857597 27.47366 
L 428.437715 31.294748 
L 429.017832 36.401355 
L 429.888008 46.293573 
L 431.048243 63.092884 
L 432.498536 88.399943 
L 436.849416 168.784228 
L 438.009651 185.127473 
L 438.879827 194.642899 
L 439.750003 201.455553 
L 440.33012 204.38672 
L 440.910237 205.983054 
L 441.200296 206.274908 
L 441.490354 206.228858 
L 441.780413 205.846328 
L 442.070472 205.130092 
L 442.650589 202.714274 
L 443.230706 199.030041 
L 444.100882 191.281603 
L 444.971058 181.151472 
L 446.131293 164.639204 
L 447.871645 135.803952 
L 450.482173 92.247653 
L 451.642408 76.195487 
L 452.512584 66.528823 
L 453.38276 59.339016 
L 453.962877 56.076789 
L 454.542994 54.120125 
L 454.833053 53.646684 
L 455.123112 53.51537 
L 455.41317 53.728658 
L 455.703229 54.287671 
L 456.283346 56.440577 
L 456.863464 59.955963 
L 457.443581 64.794314 
L 458.313757 74.395049 
L 459.183933 86.546276 
L 460.344168 106.05429 
L 462.08452 140.101274 
L 465.275165 203.938247 
L 466.4354 223.235116 
L 467.595634 238.61379 
L 468.46581 247.061897 
L 469.045928 251.079159 
L 469.626045 253.746277 
L 469.916104 254.564504 
L 470.206162 255.037055 
L 470.496221 255.164035 
L 470.78628 254.946904 
L 471.076338 254.388475 
L 471.656456 252.265653 
L 472.236573 248.844519 
L 472.81669 244.194361 
L 473.686866 235.11327 
L 474.847101 219.67456 
L 476.297394 196.58784 
L 480.068157 134.382336 
L 481.228392 119.721842 
L 482.098568 111.345108 
L 482.678685 107.201942 
L 483.258802 104.303656 
L 483.83892 102.706623 
L 484.128978 102.408006 
L 484.419037 102.446351 
L 484.709096 102.822744 
L 484.999154 103.536914 
L 485.579272 105.970727 
L 486.159389 109.718656 
L 486.739506 114.730476 
L 487.609682 124.458424 
L 488.769917 141.037323 
L 490.22021 166.13611 
L 494.861149 251.229792 
L 496.021384 266.81751 
L 496.89156 275.617098 
L 497.471677 279.92828 
L 498.051794 282.914572 
L 498.631912 284.529729 
L 498.92197 284.814472 
L 499.212029 284.748736 
L 499.502088 284.332774 
L 499.792146 283.5682 
L 500.372264 281.006406 
L 500.952381 277.103028 
L 501.822557 268.870142 
L 502.692733 258.045526 
L 503.852968 240.24235 
L 505.303261 214.147936 
L 509.074024 143.945728 
L 510.234258 126.79471 
L 511.104434 116.545249 
L 511.97461 108.917849 
L 512.554728 105.413118 
L 513.134845 103.229591 
L 513.424904 102.641969 
L 513.714962 102.392385 
L 514.005021 102.480601 
L 514.29508 102.905024 
L 514.585138 103.662711 
L 515.165256 106.159445 
L 515.745373 109.92087 
L 516.615549 117.775423 
L 517.485725 127.996693 
L 518.64596 144.601581 
L 520.386312 173.502605 
L 522.99684 216.979243 
L 524.157074 232.931892 
L 525.02725 242.502636 
L 525.897426 249.581958 
L 526.477544 252.764337 
L 527.057661 254.637647 
L 527.34772 255.068504 
L 527.637778 255.156851 
L 527.927837 254.90038 
L 528.217896 254.29814 
L 528.798013 252.059325 
L 529.37813 248.459876 
L 529.958248 243.54063 
L 530.828424 233.827255 
L 531.6986 221.577333 
L 532.858834 201.965357 
L 534.599186 167.834014 
L 537.789832 104.089641 
L 538.950066 84.899943 
L 539.820242 73.048701 
L 540.690418 63.788848 
L 541.270535 59.194575 
L 541.850653 55.932283 
L 542.43077 54.037512 
L 542.720829 53.608191 
L 543.010887 53.524333 
L 543.300946 53.784307 
L 543.591005 54.385134 
L 544.171122 56.59075 
L 544.751239 60.090933 
L 545.331357 64.815159 
L 546.201533 73.995501 
L 547.361767 89.539158 
L 548.812061 112.70429 
L 552.292765 170.645303 
L 553.452999 186.066518 
L 554.323175 195.149616 
L 555.193351 201.69636 
L 555.773469 204.514756 
L 556.353586 206.029061 
L 556.643645 206.285664 
L 556.933703 206.205094 
L 557.223762 205.786436 
L 557.513821 205.030131 
L 558.093938 202.51311 
L 558.674055 198.684501 
L 559.544231 190.600627 
L 560.414407 179.944461 
L 561.574642 162.353727 
L 563.024935 136.441648 
L 567.085757 61.365906 
L 568.245991 44.919738 
L 569.116167 35.34932 
L 569.986343 28.525677 
L 570.566461 25.623943 
L 571.146578 24.095536 
L 571.436637 23.85457 
L 571.726695 23.964126 
L 572.016754 24.42378 
L 572.306813 25.231751 
L 572.88693 27.878775 
L 573.467047 31.864207 
L 574.337223 40.211457 
L 575.207399 51.136482 
L 576.367634 69.045908 
L 577.817927 95.220009 
L 581.58869 165.322048 
L 582.748925 182.360617 
L 583.619101 192.50692 
L 584.489277 200.019132 
L 585.069394 203.442428 
L 585.649511 205.542323 
L 585.93957 206.087723 
L 586.229629 206.295042 
L 586.519687 206.164685 
L 586.809746 205.698416 
L 587.099805 204.899344 
L 587.679922 202.321889 
L 588.260039 198.483547 
L 589.130215 190.523429 
L 590.000391 180.211721 
L 591.160626 163.515333 
L 592.900978 134.550472 
L 595.511506 91.156422 
L 596.671741 75.304389 
L 597.541917 65.830243 
L 598.412093 58.861931 
L 598.99221 55.759657 
L 599.572327 53.969877 
L 599.862386 53.581661 
L 600.152445 53.536318 
L 600.442503 53.835986 
L 600.732562 54.481447 
L 601.312679 56.806096 
L 601.892797 60.489447 
L 602.472914 65.489347 
L 603.34309 75.314858 
L 604.213266 87.662814 
L 605.373501 107.377669 
L 607.113853 141.591459 
L 610.304498 205.23965 
L 611.464733 224.321122 
L 612.334909 236.071088 
L 613.205085 245.216352 
L 613.785202 249.728816 
L 614.365319 252.906459 
L 614.945437 254.715068 
L 615.235495 255.101163 
L 615.525554 255.141925 
L 615.815613 254.839154 
L 616.105671 254.195997 
L 616.685789 251.907784 
L 617.265906 248.328826 
L 617.846023 243.530884 
L 618.716199 234.251945 
L 619.876434 218.604414 
L 621.326727 195.36244 
L 624.807431 137.504419 
L 625.967666 122.188795 
L 626.837842 113.204772 
L 627.708018 106.770224 
L 628.288135 104.031933 
L 628.868253 102.600489 
L 629.158311 102.385936 
L 629.44837 102.508745 
L 629.738429 102.969661 
L 630.028487 103.768073 
L 630.608605 106.368182 
L 631.188722 110.27727 
L 632.058898 118.474157 
L 632.929074 129.230486 
L 634.089309 146.928594 
L 635.539602 172.923428 
L 639.310365 243.241176 
L 640.470599 260.497097 
L 641.340775 270.809974 
L 642.210951 278.4637 
L 642.791068 281.953366 
L 643.371186 284.086782 
L 643.661244 284.633735 
L 643.951303 284.830909 
L 644.241362 284.677539 
L 644.53142 284.17422 
L 644.821479 283.322903 
L 645.401596 280.590809 
L 645.981714 276.523565 
L 646.85189 268.062455 
L 647.722066 257.037683 
L 648.8823 239.023089 
L 650.622652 207.220892 
L 653.813298 147.533719 
L 654.973532 129.729273 
L 655.843708 118.873398 
L 656.713884 110.563955 
L 657.294002 106.574595 
L 657.874119 103.891522 
L 658.454236 102.547868 
L 658.744295 102.382809 
L 659.034354 102.555279 
L 659.324412 103.063346 
L 659.90453 105.07183 
L 660.484647 108.366156 
L 661.064764 112.883599 
L 661.93494 121.767925 
L 663.095175 136.976919 
L 664.545468 159.876696 
L 668.316231 222.301246 
L 669.476466 237.199342 
L 670.346642 245.774578 
L 670.926759 250.049297 
L 671.506876 253.071215 
L 672.086994 254.777295 
L 672.377052 255.122814 
L 672.667111 255.12512 
L 672.95717 254.782244 
L 673.247228 254.093571 
L 673.827346 251.683169 
L 674.407463 247.91608 
L 674.98758 242.835773 
L 675.857756 232.898636 
L 676.727932 220.453313 
L 677.888167 200.636668 
L 679.628519 166.34235 
L 680.208636 154.34 
L 680.208636 154.34 
" style="fill:none;stroke:#00ffff;stroke-linecap:square;stroke-width:1.5;"/>
   </g>
   <g id="patch_3">
    <path d="M 71.39 297.88 
L 71.39 10.8 
" style="fill:none;stroke:#ffffff;stroke-linecap:square;stroke-linejoin:miter;stroke-width:0.8;"/>
   </g>
   <g id="patch_4">
    <path d="M 709.2 297.88 
L 709.2 10.8 
" style="fill:none;stroke:#ffffff;stroke-linecap:square;stroke-linejoin:miter;stroke-width:0.8;"/>
   </g>
   <g id="patch_5">
    <path d="M 71.39 297.88 
L 709.2 297.88 
" style="fill:none;stroke:#ffffff;stroke-linecap:square;stroke-linejoin:miter;stroke-width:0.8;"/>
   </g>
   <g id="patch_6">
    <path d="M 71.39 10.8 
L 709.2 10.8 
" style="fill:none;stroke:#ffffff;stroke-linecap:square;stroke-linejoin:miter;stroke-width:0.8;"/>
   </g>
  </g>
 </g>
 <defs>
  <clipPath id="p4d454d57c0">
   <rect height="287.08" width="637.81" x="71.39" y="10.8"/>
  </clipPath>
 </defs>
</svg>
