<?xml version="1.0" encoding="utf-8" standalone="no"?>
<!DOCTYPE svg PUBLIC "-//W3C//DTD SVG 1.1//EN"
  "http://www.w3.org/Graphics/SVG/1.1/DTD/svg11.dtd">
<!-- Created with matplotlib (https://matplotlib.org/) -->
<svg height="432pt" version="1.1" viewBox="0 0 720 432" width="720pt" xmlns="http://www.w3.org/2000/svg" xmlns:xlink="http://www.w3.org/1999/xlink">
 <defs>
  <style type="text/css">
*{stroke-linecap:butt;stroke-linejoin:round;}
  </style>
 </defs>
 <g id="figure_1">
  <g id="patch_1">
   <path d="M 0 432 
L 720 432 
L 720 0 
L 0 0 
z
" style="fill:#121212;"/>
  </g>
  <g id="axes_1">
   <g id="patch_2">
    <path d="M 77.06 165.04 
L 709.2 165.04 
L 709.2 10.8 
L 77.06 10.8 
z
" style="fill:#121212;"/>
   </g>
   <g id="matplotlib.axis_1">
    <g id="xtick_1">
     <g id="line2d_1">
      <defs>
       <path d="M 0 0 
L 0 3.5 
" id="m558365d76f" style="stroke:#ffffff;stroke-width:0.8;"/>
      </defs>
      <g>
       <use style="fill:#ffffff;stroke:#ffffff;stroke-width:0.8;" x="105.793636" xlink:href="#m558365d76f" y="165.04"/>
      </g>
     </g>
     <g id="text_1">
      <!-- 0 -->
      <defs>
       <path d="M 31.78125 66.40625 
Q 24.171875 66.40625 20.328125 58.90625 
Q 16.5 51.421875 16.5 36.375 
Q 16.5 21.390625 20.328125 13.890625 
Q 24.171875 6.390625 31.78125 6.390625 
Q 39.453125 6.390625 43.28125 13.890625 
Q 47.125 21.390625 47.125 36.375 
Q 47.125 51.421875 43.28125 58.90625 
Q 39.453125 66.40625 31.78125 66.40625 
z
M 31.78125 74.21875 
Q 44.046875 74.21875 50.515625 64.515625 
Q 56.984375 54.828125 56.984375 36.375 
Q 56.984375 17.96875 50.515625 8.265625 
Q 44.046875 -1.421875 31.78125 -1.421875 
Q 19.53125 -1.421875 13.0625 8.265625 
Q 6.59375 17.96875 6.59375 36.375 
Q 6.59375 54.828125 13.0625 64.515625 
Q 19.53125 74.21875 31.78125 74.21875 
z
" id="DejaVuSans-48"/>
      </defs>
      <g style="fill:#ffffff;" transform="translate(100.067386 185.717188)scale(0.18 -0.18)">
       <use xlink:href="#DejaVuSans-48"/>
      </g>
     </g>
    </g>
    <g id="xtick_2">
     <g id="line2d_2">
      <g>
       <use style="fill:#ffffff;stroke:#ffffff;stroke-width:0.8;" x="220.121143" xlink:href="#m558365d76f" y="165.04"/>
      </g>
     </g>
     <g id="text_2">
      <!-- 5 -->
      <defs>
       <path d="M 10.796875 72.90625 
L 49.515625 72.90625 
L 49.515625 64.59375 
L 19.828125 64.59375 
L 19.828125 46.734375 
Q 21.96875 47.46875 24.109375 47.828125 
Q 26.265625 48.1875 28.421875 48.1875 
Q 40.625 48.1875 47.75 41.5 
Q 54.890625 34.8125 54.890625 23.390625 
Q 54.890625 11.625 47.5625 5.09375 
Q 40.234375 -1.421875 26.90625 -1.421875 
Q 22.3125 -1.421875 17.546875 -0.640625 
Q 12.796875 0.140625 7.71875 1.703125 
L 7.71875 11.625 
Q 12.109375 9.234375 16.796875 8.0625 
Q 21.484375 6.890625 26.703125 6.890625 
Q 35.15625 6.890625 40.078125 11.328125 
Q 45.015625 15.765625 45.015625 23.390625 
Q 45.015625 31 40.078125 35.4375 
Q 35.15625 39.890625 26.703125 39.890625 
Q 22.75 39.890625 18.8125 39.015625 
Q 14.890625 38.140625 10.796875 36.28125 
z
" id="DejaVuSans-53"/>
      </defs>
      <g style="fill:#ffffff;" transform="translate(214.394893 185.717188)scale(0.18 -0.18)">
       <use xlink:href="#DejaVuSans-53"/>
      </g>
     </g>
    </g>
    <g id="xtick_3">
     <g id="line2d_3">
      <g>
       <use style="fill:#ffffff;stroke:#ffffff;stroke-width:0.8;" x="334.448649" xlink:href="#m558365d76f" y="165.04"/>
      </g>
     </g>
     <g id="text_3">
      <!-- 10 -->
      <defs>
       <path d="M 12.40625 8.296875 
L 28.515625 8.296875 
L 28.515625 63.921875 
L 10.984375 60.40625 
L 10.984375 69.390625 
L 28.421875 72.90625 
L 38.28125 72.90625 
L 38.28125 8.296875 
L 54.390625 8.296875 
L 54.390625 0 
L 12.40625 0 
z
" id="DejaVuSans-49"/>
      </defs>
      <g style="fill:#ffffff;" transform="translate(322.996149 185.717188)scale(0.18 -0.18)">
       <use xlink:href="#DejaVuSans-49"/>
       <use x="63.623047" xlink:href="#DejaVuSans-48"/>
      </g>
     </g>
    </g>
    <g id="xtick_4">
     <g id="line2d_4">
      <g>
       <use style="fill:#ffffff;stroke:#ffffff;stroke-width:0.8;" x="448.776156" xlink:href="#m558365d76f" y="165.04"/>
      </g>
     </g>
     <g id="text_4">
      <!-- 15 -->
      <g style="fill:#ffffff;" transform="translate(437.323656 185.717188)scale(0.18 -0.18)">
       <use xlink:href="#DejaVuSans-49"/>
       <use x="63.623047" xlink:href="#DejaVuSans-53"/>
      </g>
     </g>
    </g>
    <g id="xtick_5">
     <g id="line2d_5">
      <g>
       <use style="fill:#ffffff;stroke:#ffffff;stroke-width:0.8;" x="563.103662" xlink:href="#m558365d76f" y="165.04"/>
      </g>
     </g>
     <g id="text_5">
      <!-- 20 -->
      <defs>
       <path d="M 19.1875 8.296875 
L 53.609375 8.296875 
L 53.609375 0 
L 7.328125 0 
L 7.328125 8.296875 
Q 12.9375 14.109375 22.625 23.890625 
Q 32.328125 33.6875 34.8125 36.53125 
Q 39.546875 41.84375 41.421875 45.53125 
Q 43.3125 49.21875 43.3125 52.78125 
Q 43.3125 58.59375 39.234375 62.25 
Q 35.15625 65.921875 28.609375 65.921875 
Q 23.96875 65.921875 18.8125 64.3125 
Q 13.671875 62.703125 7.8125 59.421875 
L 7.8125 69.390625 
Q 13.765625 71.78125 18.9375 73 
Q 24.125 74.21875 28.421875 74.21875 
Q 39.75 74.21875 46.484375 68.546875 
Q 53.21875 62.890625 53.21875 53.421875 
Q 53.21875 48.921875 51.53125 44.890625 
Q 49.859375 40.875 45.40625 35.40625 
Q 44.1875 33.984375 37.640625 27.21875 
Q 31.109375 20.453125 19.1875 8.296875 
z
" id="DejaVuSans-50"/>
      </defs>
      <g style="fill:#ffffff;" transform="translate(551.651162 185.717188)scale(0.18 -0.18)">
       <use xlink:href="#DejaVuSans-50"/>
       <use x="63.623047" xlink:href="#DejaVuSans-48"/>
      </g>
     </g>
    </g>
    <g id="xtick_6">
     <g id="line2d_6">
      <g>
       <use style="fill:#ffffff;stroke:#ffffff;stroke-width:0.8;" x="677.431169" xlink:href="#m558365d76f" y="165.04"/>
      </g>
     </g>
     <g id="text_6">
      <!-- 25 -->
      <g style="fill:#ffffff;" transform="translate(665.978669 185.717188)scale(0.18 -0.18)">
       <use xlink:href="#DejaVuSans-50"/>
       <use x="63.623047" xlink:href="#DejaVuSans-53"/>
      </g>
     </g>
    </g>
    <g id="text_7">
     <!-- Time (t) -->
     <defs>
      <path d="M -0.296875 72.90625 
L 61.375 72.90625 
L 61.375 64.59375 
L 35.5 64.59375 
L 35.5 0 
L 25.59375 0 
L 25.59375 64.59375 
L -0.296875 64.59375 
z
" id="DejaVuSans-84"/>
      <path d="M 9.421875 54.6875 
L 18.40625 54.6875 
L 18.40625 0 
L 9.421875 0 
z
M 9.421875 75.984375 
L 18.40625 75.984375 
L 18.40625 64.59375 
L 9.421875 64.59375 
z
" id="DejaVuSans-105"/>
      <path d="M 52 44.1875 
Q 55.375 50.25 60.0625 53.125 
Q 64.75 56 71.09375 56 
Q 79.640625 56 84.28125 50.015625 
Q 88.921875 44.046875 88.921875 33.015625 
L 88.921875 0 
L 79.890625 0 
L 79.890625 32.71875 
Q 79.890625 40.578125 77.09375 44.375 
Q 74.3125 48.1875 68.609375 48.1875 
Q 61.625 48.1875 57.5625 43.546875 
Q 53.515625 38.921875 53.515625 30.90625 
L 53.515625 0 
L 44.484375 0 
L 44.484375 32.71875 
Q 44.484375 40.625 41.703125 44.40625 
Q 38.921875 48.1875 33.109375 48.1875 
Q 26.21875 48.1875 22.15625 43.53125 
Q 18.109375 38.875 18.109375 30.90625 
L 18.109375 0 
L 9.078125 0 
L 9.078125 54.6875 
L 18.109375 54.6875 
L 18.109375 46.1875 
Q 21.1875 51.21875 25.484375 53.609375 
Q 29.78125 56 35.6875 56 
Q 41.65625 56 45.828125 52.96875 
Q 50 49.953125 52 44.1875 
z
" id="DejaVuSans-109"/>
      <path d="M 56.203125 29.59375 
L 56.203125 25.203125 
L 14.890625 25.203125 
Q 15.484375 15.921875 20.484375 11.0625 
Q 25.484375 6.203125 34.421875 6.203125 
Q 39.59375 6.203125 44.453125 7.46875 
Q 49.3125 8.734375 54.109375 11.28125 
L 54.109375 2.78125 
Q 49.265625 0.734375 44.1875 -0.34375 
Q 39.109375 -1.421875 33.890625 -1.421875 
Q 20.796875 -1.421875 13.15625 6.1875 
Q 5.515625 13.8125 5.515625 26.8125 
Q 5.515625 40.234375 12.765625 48.109375 
Q 20.015625 56 32.328125 56 
Q 43.359375 56 49.78125 48.890625 
Q 56.203125 41.796875 56.203125 29.59375 
z
M 47.21875 32.234375 
Q 47.125 39.59375 43.09375 43.984375 
Q 39.0625 48.390625 32.421875 48.390625 
Q 24.90625 48.390625 20.390625 44.140625 
Q 15.875 39.890625 15.1875 32.171875 
z
" id="DejaVuSans-101"/>
      <path id="DejaVuSans-32"/>
      <path d="M 31 75.875 
Q 24.46875 64.65625 21.28125 53.65625 
Q 18.109375 42.671875 18.109375 31.390625 
Q 18.109375 20.125 21.3125 9.0625 
Q 24.515625 -2 31 -13.1875 
L 23.1875 -13.1875 
Q 15.875 -1.703125 12.234375 9.375 
Q 8.59375 20.453125 8.59375 31.390625 
Q 8.59375 42.28125 12.203125 53.3125 
Q 15.828125 64.359375 23.1875 75.875 
z
" id="DejaVuSans-40"/>
      <path d="M 18.3125 70.21875 
L 18.3125 54.6875 
L 36.8125 54.6875 
L 36.8125 47.703125 
L 18.3125 47.703125 
L 18.3125 18.015625 
Q 18.3125 11.328125 20.140625 9.421875 
Q 21.96875 7.515625 27.59375 7.515625 
L 36.8125 7.515625 
L 36.8125 0 
L 27.59375 0 
Q 17.1875 0 13.234375 3.875 
Q 9.28125 7.765625 9.28125 18.015625 
L 9.28125 47.703125 
L 2.6875 47.703125 
L 2.6875 54.6875 
L 9.28125 54.6875 
L 9.28125 70.21875 
z
" id="DejaVuSans-116"/>
      <path d="M 8.015625 75.875 
L 15.828125 75.875 
Q 23.140625 64.359375 26.78125 53.3125 
Q 30.421875 42.28125 30.421875 31.390625 
Q 30.421875 20.453125 26.78125 9.375 
Q 23.140625 -1.703125 15.828125 -13.1875 
L 8.015625 -13.1875 
Q 14.5 -2 17.703125 9.0625 
Q 20.90625 20.125 20.90625 31.390625 
Q 20.90625 42.671875 17.703125 53.65625 
Q 14.5 64.65625 8.015625 75.875 
z
" id="DejaVuSans-41"/>
     </defs>
     <g style="fill:#ffffff;" transform="translate(357.421094 207.137813)scale(0.18 -0.18)">
      <use xlink:href="#DejaVuSans-84"/>
      <use x="61.037109" xlink:href="#DejaVuSans-105"/>
      <use x="88.820312" xlink:href="#DejaVuSans-109"/>
      <use x="186.232422" xlink:href="#DejaVuSans-101"/>
      <use x="247.755859" xlink:href="#DejaVuSans-32"/>
      <use x="279.542969" xlink:href="#DejaVuSans-40"/>
      <use x="318.556641" xlink:href="#DejaVuSans-116"/>
      <use x="357.765625" xlink:href="#DejaVuSans-41"/>
     </g>
    </g>
   </g>
   <g id="matplotlib.axis_2">
    <g id="ytick_1">
     <g id="line2d_7">
      <defs>
       <path d="M 0 0 
L -3.5 0 
" id="m20b3f28272" style="stroke:#ffffff;stroke-width:0.8;"/>
      </defs>
      <g>
       <use style="fill:#ffffff;stroke:#ffffff;stroke-width:0.8;" x="77.06" xlink:href="#m20b3f28272" y="162.745919"/>
      </g>
     </g>
     <g id="text_8">
      <!-- −4 -->
      <defs>
       <path d="M 10.59375 35.5 
L 73.1875 35.5 
L 73.1875 27.203125 
L 10.59375 27.203125 
z
" id="DejaVuSans-8722"/>
       <path d="M 37.796875 64.3125 
L 12.890625 25.390625 
L 37.796875 25.390625 
z
M 35.203125 72.90625 
L 47.609375 72.90625 
L 47.609375 25.390625 
L 58.015625 25.390625 
L 58.015625 17.1875 
L 47.609375 17.1875 
L 47.609375 0 
L 37.796875 0 
L 37.796875 17.1875 
L 4.890625 17.1875 
L 4.890625 26.703125 
z
" id="DejaVuSans-52"/>
      </defs>
      <g style="fill:#ffffff;" transform="translate(43.524063 169.584513)scale(0.18 -0.18)">
       <use xlink:href="#DejaVuSans-8722"/>
       <use x="83.789062" xlink:href="#DejaVuSans-52"/>
      </g>
     </g>
    </g>
    <g id="ytick_2">
     <g id="line2d_8">
      <g>
       <use style="fill:#ffffff;stroke:#ffffff;stroke-width:0.8;" x="77.06" xlink:href="#m20b3f28272" y="132.095334"/>
      </g>
     </g>
     <g id="text_9">
      <!-- −2 -->
      <g style="fill:#ffffff;" transform="translate(43.524063 138.933928)scale(0.18 -0.18)">
       <use xlink:href="#DejaVuSans-8722"/>
       <use x="83.789062" xlink:href="#DejaVuSans-50"/>
      </g>
     </g>
    </g>
    <g id="ytick_3">
     <g id="line2d_9">
      <g>
       <use style="fill:#ffffff;stroke:#ffffff;stroke-width:0.8;" x="77.06" xlink:href="#m20b3f28272" y="101.444749"/>
      </g>
     </g>
     <g id="text_10">
      <!-- 0 -->
      <g style="fill:#ffffff;" transform="translate(58.6075 108.283343)scale(0.18 -0.18)">
       <use xlink:href="#DejaVuSans-48"/>
      </g>
     </g>
    </g>
    <g id="ytick_4">
     <g id="line2d_10">
      <g>
       <use style="fill:#ffffff;stroke:#ffffff;stroke-width:0.8;" x="77.06" xlink:href="#m20b3f28272" y="70.794164"/>
      </g>
     </g>
     <g id="text_11">
      <!-- 2 -->
      <g style="fill:#ffffff;" transform="translate(58.6075 77.632758)scale(0.18 -0.18)">
       <use xlink:href="#DejaVuSans-50"/>
      </g>
     </g>
    </g>
    <g id="ytick_5">
     <g id="line2d_11">
      <g>
       <use style="fill:#ffffff;stroke:#ffffff;stroke-width:0.8;" x="77.06" xlink:href="#m20b3f28272" y="40.143579"/>
      </g>
     </g>
     <g id="text_12">
      <!-- 4 -->
      <g style="fill:#ffffff;" transform="translate(58.6075 46.982173)scale(0.18 -0.18)">
       <use xlink:href="#DejaVuSans-52"/>
      </g>
     </g>
    </g>
    <g id="text_13">
     <!-- Amplitude (y) -->
     <defs>
      <path d="M 34.1875 63.1875 
L 20.796875 26.90625 
L 47.609375 26.90625 
z
M 28.609375 72.90625 
L 39.796875 72.90625 
L 67.578125 0 
L 57.328125 0 
L 50.6875 18.703125 
L 17.828125 18.703125 
L 11.1875 0 
L 0.78125 0 
z
" id="DejaVuSans-65"/>
      <path d="M 18.109375 8.203125 
L 18.109375 -20.796875 
L 9.078125 -20.796875 
L 9.078125 54.6875 
L 18.109375 54.6875 
L 18.109375 46.390625 
Q 20.953125 51.265625 25.265625 53.625 
Q 29.59375 56 35.59375 56 
Q 45.5625 56 51.78125 48.09375 
Q 58.015625 40.1875 58.015625 27.296875 
Q 58.015625 14.40625 51.78125 6.484375 
Q 45.5625 -1.421875 35.59375 -1.421875 
Q 29.59375 -1.421875 25.265625 0.953125 
Q 20.953125 3.328125 18.109375 8.203125 
z
M 48.6875 27.296875 
Q 48.6875 37.203125 44.609375 42.84375 
Q 40.53125 48.484375 33.40625 48.484375 
Q 26.265625 48.484375 22.1875 42.84375 
Q 18.109375 37.203125 18.109375 27.296875 
Q 18.109375 17.390625 22.1875 11.75 
Q 26.265625 6.109375 33.40625 6.109375 
Q 40.53125 6.109375 44.609375 11.75 
Q 48.6875 17.390625 48.6875 27.296875 
z
" id="DejaVuSans-112"/>
      <path d="M 9.421875 75.984375 
L 18.40625 75.984375 
L 18.40625 0 
L 9.421875 0 
z
" id="DejaVuSans-108"/>
      <path d="M 8.5 21.578125 
L 8.5 54.6875 
L 17.484375 54.6875 
L 17.484375 21.921875 
Q 17.484375 14.15625 20.5 10.265625 
Q 23.53125 6.390625 29.59375 6.390625 
Q 36.859375 6.390625 41.078125 11.03125 
Q 45.3125 15.671875 45.3125 23.6875 
L 45.3125 54.6875 
L 54.296875 54.6875 
L 54.296875 0 
L 45.3125 0 
L 45.3125 8.40625 
Q 42.046875 3.421875 37.71875 1 
Q 33.40625 -1.421875 27.6875 -1.421875 
Q 18.265625 -1.421875 13.375 4.4375 
Q 8.5 10.296875 8.5 21.578125 
z
M 31.109375 56 
z
" id="DejaVuSans-117"/>
      <path d="M 45.40625 46.390625 
L 45.40625 75.984375 
L 54.390625 75.984375 
L 54.390625 0 
L 45.40625 0 
L 45.40625 8.203125 
Q 42.578125 3.328125 38.25 0.953125 
Q 33.9375 -1.421875 27.875 -1.421875 
Q 17.96875 -1.421875 11.734375 6.484375 
Q 5.515625 14.40625 5.515625 27.296875 
Q 5.515625 40.1875 11.734375 48.09375 
Q 17.96875 56 27.875 56 
Q 33.9375 56 38.25 53.625 
Q 42.578125 51.265625 45.40625 46.390625 
z
M 14.796875 27.296875 
Q 14.796875 17.390625 18.875 11.75 
Q 22.953125 6.109375 30.078125 6.109375 
Q 37.203125 6.109375 41.296875 11.75 
Q 45.40625 17.390625 45.40625 27.296875 
Q 45.40625 37.203125 41.296875 42.84375 
Q 37.203125 48.484375 30.078125 48.484375 
Q 22.953125 48.484375 18.875 42.84375 
Q 14.796875 37.203125 14.796875 27.296875 
z
" id="DejaVuSans-100"/>
      <path d="M 32.171875 -5.078125 
Q 28.375 -14.84375 24.75 -17.8125 
Q 21.140625 -20.796875 15.09375 -20.796875 
L 7.90625 -20.796875 
L 7.90625 -13.28125 
L 13.1875 -13.28125 
Q 16.890625 -13.28125 18.9375 -11.515625 
Q 21 -9.765625 23.484375 -3.21875 
L 25.09375 0.875 
L 2.984375 54.6875 
L 12.5 54.6875 
L 29.59375 11.921875 
L 46.6875 54.6875 
L 56.203125 54.6875 
z
" id="DejaVuSans-121"/>
     </defs>
     <g style="fill:#ffffff;" transform="translate(35.780625 149.250781)rotate(-90)scale(0.18 -0.18)">
      <use xlink:href="#DejaVuSans-65"/>
      <use x="68.408203" xlink:href="#DejaVuSans-109"/>
      <use x="165.820312" xlink:href="#DejaVuSans-112"/>
      <use x="229.296875" xlink:href="#DejaVuSans-108"/>
      <use x="257.080078" xlink:href="#DejaVuSans-105"/>
      <use x="284.863281" xlink:href="#DejaVuSans-116"/>
      <use x="324.072266" xlink:href="#DejaVuSans-117"/>
      <use x="387.451172" xlink:href="#DejaVuSans-100"/>
      <use x="450.927734" xlink:href="#DejaVuSans-101"/>
      <use x="512.451172" xlink:href="#DejaVuSans-32"/>
      <use x="544.238281" xlink:href="#DejaVuSans-40"/>
      <use x="583.251953" xlink:href="#DejaVuSans-121"/>
      <use x="642.431641" xlink:href="#DejaVuSans-41"/>
     </g>
    </g>
   </g>
   <g id="line2d_12">
    <path clip-path="url(#p6b2507c65d)" d="M 105.793636 96.32104 
L 110.968278 83.231017 
L 113.843079 76.594247 
L 117.00536 69.887952 
L 129.941965 43.662299 
L 131.954326 40.065529 
L 133.679206 37.3894 
L 135.116607 35.509003 
L 136.554007 33.976868 
L 137.991408 32.800757 
L 139.141328 32.108869 
L 140.578729 31.532359 
L 142.016129 31.239494 
L 143.45353 31.18433 
L 145.178411 31.366851 
L 147.190771 31.838818 
L 149.203132 32.529926 
L 151.215493 33.433831 
L 153.227853 34.598533 
L 154.952734 35.866957 
L 156.677615 37.444958 
L 158.402495 39.378755 
L 160.127376 41.691956 
L 161.852257 44.378674 
L 163.864617 47.93556 
L 166.451938 53.019474 
L 170.76414 62.117083 
L 183.700744 90.003187 
L 191.462707 107.328447 
L 194.050028 112.441483 
L 196.349869 116.485682 
L 198.64971 120.037819 
L 200.949551 123.13806 
L 203.249392 125.854127 
L 205.549232 128.243066 
L 207.849073 130.320026 
L 209.861434 131.851767 
L 211.586315 132.909886 
L 213.311195 133.688413 
L 214.748596 134.094482 
L 216.185996 134.260593 
L 217.623397 134.176708 
L 219.060797 133.842084 
L 220.498198 133.265449 
L 221.935598 132.463852 
L 223.660479 131.237719 
L 225.67284 129.499824 
L 227.97268 127.188721 
L 230.560001 124.252739 
L 233.147322 120.984873 
L 235.734643 117.349775 
L 238.321964 113.293173 
L 240.909285 108.795726 
L 243.784086 103.349251 
L 249.533688 91.813219 
L 253.55841 83.998201 
L 257.295651 77.244276 
L 261.320372 70.469545 
L 265.057614 64.613054 
L 267.932415 60.516433 
L 270.232256 57.627276 
L 272.244616 55.468454 
L 273.969497 53.935185 
L 275.694378 52.715283 
L 277.131778 51.941289 
L 278.569179 51.382597 
L 280.006579 51.02882 
L 281.73146 50.85598 
L 283.45634 50.935787 
L 285.181221 51.250139 
L 286.906102 51.790456 
L 288.630982 52.55952 
L 290.355863 53.570407 
L 292.080744 54.842777 
L 293.805624 56.39737 
L 295.530505 58.249966 
L 297.255385 60.406157 
L 299.267746 63.294159 
L 301.567587 67.039396 
L 304.154908 71.71564 
L 307.604669 78.480807 
L 312.204351 88.060422 
L 317.091513 98.772984 
L 322.553635 111.338626 
L 328.015757 123.762494 
L 330.890558 129.783134 
L 333.477878 134.726507 
L 336.065199 139.177656 
L 338.36504 142.72675 
L 340.664881 145.907833 
L 342.964722 148.722211 
L 344.977083 150.863644 
L 346.989443 152.667087 
L 348.714324 153.90666 
L 350.151724 154.698668 
L 351.589125 155.253557 
L 353.026526 155.558661 
L 354.463926 155.606921 
L 355.901327 155.397608 
L 357.338727 154.936177 
L 358.776128 154.233284 
L 360.213528 153.303121 
L 361.938409 151.908929 
L 363.663289 150.235235 
L 365.67565 147.95444 
L 367.688011 145.333862 
L 369.700372 142.371455 
L 371.712732 139.053632 
L 374.012573 134.807253 
L 376.312414 130.069913 
L 378.899735 124.186707 
L 381.774536 117.074816 
L 385.799257 106.455984 
L 397.873422 73.562987 
L 403.910504 57.438811 
L 407.072785 49.554786 
L 409.660106 43.629935 
L 411.959947 38.852016 
L 414.259788 34.56804 
L 416.559628 30.775261 
L 418.859469 27.451935 
L 420.87183 24.913221 
L 422.884191 22.717837 
L 424.609071 21.121377 
L 426.333952 19.808982 
L 427.771352 18.950742 
L 429.208753 18.32309 
L 430.646154 17.939815 
L 432.083554 17.810909 
L 433.520955 17.94098 
L 434.958355 18.328374 
L 436.395756 18.965149 
L 437.833156 19.837906 
L 439.558037 21.172212 
L 441.282917 22.788401 
L 443.295278 24.988865 
L 445.595119 27.873755 
L 447.89496 31.127224 
L 450.194801 34.749555 
L 452.494641 38.755552 
L 455.081962 43.729894 
L 457.956763 49.798147 
L 461.406525 57.648319 
L 472.905729 84.27185 
L 477.792891 94.783601 
L 481.817612 102.950519 
L 484.692413 108.315056 
L 486.992254 112.181522 
L 489.004615 115.179008 
L 491.016975 117.776624 
L 492.741856 119.675321 
L 494.466737 121.278317 
L 496.191617 122.602416 
L 497.916498 123.668731 
L 499.641378 124.49661 
L 501.366259 125.09826 
L 503.09114 125.475278 
L 504.81602 125.617908 
L 506.540901 125.507204 
L 507.978301 125.204472 
L 509.415702 124.696377 
L 510.853102 123.973094 
L 512.290503 123.030221 
L 514.015384 121.612936 
L 515.740264 119.901668 
L 517.752625 117.576682 
L 520.052466 114.567602 
L 522.927267 110.426317 
L 526.664508 104.626894 
L 530.40175 98.432537 
L 533.851511 92.302503 
L 537.876232 84.672395 
L 544.200794 72.621912 
L 547.075596 67.672281 
L 549.662916 63.676375 
L 552.250237 60.121656 
L 554.837558 56.959821 
L 557.424879 54.141329 
L 559.72472 51.922519 
L 561.737081 50.240438 
L 563.461961 49.037484 
L 565.186842 48.102162 
L 566.624243 47.558691 
L 568.061643 47.251647 
L 569.499044 47.193884 
L 570.936444 47.389095 
L 572.373845 47.831349 
L 573.811245 48.505993 
L 575.536126 49.592166 
L 577.261006 50.939675 
L 579.273367 52.788016 
L 581.573208 55.209523 
L 583.873049 57.941847 
L 586.17289 61.01693 
L 588.47273 64.500248 
L 590.485091 67.933774 
L 592.784932 72.323378 
L 595.372253 77.811854 
L 598.534534 85.093954 
L 607.733897 106.629565 
L 620.095542 134.10424 
L 622.970343 139.986419 
L 624.982704 143.653641 
L 626.995064 146.842155 
L 628.719945 149.161799 
L 630.444826 151.107043 
L 632.169706 152.713676 
L 633.894587 154.035775 
L 635.906948 155.296853 
L 638.206788 156.455751 
L 640.506629 157.34756 
L 642.23151 157.807191 
L 643.66891 158.006736 
L 645.106311 157.991367 
L 646.256231 157.791825 
L 647.406152 157.400638 
L 648.556072 156.798555 
L 649.705993 155.972167 
L 651.143393 154.615301 
L 652.580794 152.905518 
L 654.305674 150.427166 
L 656.318035 147.052561 
L 658.905356 142.213875 
L 668.679679 123.502696 
L 672.129441 116.747353 
L 674.716762 111.174686 
L 677.304082 105.070643 
L 680.466364 97.064127 
L 680.466364 97.064127 
" style="fill:none;stroke:#00ffff;stroke-linecap:square;stroke-width:5;"/>
   </g>
   <g id="patch_3">
    <path d="M 77.06 165.04 
L 77.06 10.8 
" style="fill:none;stroke:#ffffff;stroke-linecap:square;stroke-linejoin:miter;stroke-width:0.8;"/>
   </g>
   <g id="patch_4">
    <path d="M 709.2 165.04 
L 709.2 10.8 
" style="fill:none;stroke:#ffffff;stroke-linecap:square;stroke-linejoin:miter;stroke-width:0.8;"/>
   </g>
   <g id="patch_5">
    <path d="M 77.06 165.04 
L 709.2 165.04 
" style="fill:none;stroke:#ffffff;stroke-linecap:square;stroke-linejoin:miter;stroke-width:0.8;"/>
   </g>
   <g id="patch_6">
    <path d="M 77.06 10.8 
L 709.2 10.8 
" style="fill:none;stroke:#ffffff;stroke-linecap:square;stroke-linejoin:miter;stroke-width:0.8;"/>
   </g>
   <g id="legend_1">
    <g id="patch_7">
     <path d="M 616.97625 38.01375 
L 700.8 38.01375 
Q 703.2 38.01375 703.2 35.61375 
L 703.2 19.2 
Q 703.2 16.8 700.8 16.8 
L 616.97625 16.8 
Q 614.57625 16.8 614.57625 19.2 
L 614.57625 35.61375 
Q 614.57625 38.01375 616.97625 38.01375 
z
" style="fill:#121212;opacity:0.8;stroke:#ffffff;stroke-linejoin:miter;"/>
    </g>
    <g id="line2d_13">
     <path d="M 619.37625 26.518125 
L 643.37625 26.518125 
" style="fill:none;stroke:#00ffff;stroke-linecap:square;stroke-width:5;"/>
    </g>
    <g id="line2d_14"/>
    <g id="text_14">
     <!-- Low IFT -->
     <defs>
      <path d="M 9.8125 72.90625 
L 19.671875 72.90625 
L 19.671875 8.296875 
L 55.171875 8.296875 
L 55.171875 0 
L 9.8125 0 
z
" id="DejaVuSans-76"/>
      <path d="M 30.609375 48.390625 
Q 23.390625 48.390625 19.1875 42.75 
Q 14.984375 37.109375 14.984375 27.296875 
Q 14.984375 17.484375 19.15625 11.84375 
Q 23.34375 6.203125 30.609375 6.203125 
Q 37.796875 6.203125 41.984375 11.859375 
Q 46.1875 17.53125 46.1875 27.296875 
Q 46.1875 37.015625 41.984375 42.703125 
Q 37.796875 48.390625 30.609375 48.390625 
z
M 30.609375 56 
Q 42.328125 56 49.015625 48.375 
Q 55.71875 40.765625 55.71875 27.296875 
Q 55.71875 13.875 49.015625 6.21875 
Q 42.328125 -1.421875 30.609375 -1.421875 
Q 18.84375 -1.421875 12.171875 6.21875 
Q 5.515625 13.875 5.515625 27.296875 
Q 5.515625 40.765625 12.171875 48.375 
Q 18.84375 56 30.609375 56 
z
" id="DejaVuSans-111"/>
      <path d="M 4.203125 54.6875 
L 13.1875 54.6875 
L 24.421875 12.015625 
L 35.59375 54.6875 
L 46.1875 54.6875 
L 57.421875 12.015625 
L 68.609375 54.6875 
L 77.59375 54.6875 
L 63.28125 0 
L 52.6875 0 
L 40.921875 44.828125 
L 29.109375 0 
L 18.5 0 
z
" id="DejaVuSans-119"/>
      <path d="M 9.8125 72.90625 
L 19.671875 72.90625 
L 19.671875 0 
L 9.8125 0 
z
" id="DejaVuSans-73"/>
      <path d="M 9.8125 72.90625 
L 51.703125 72.90625 
L 51.703125 64.59375 
L 19.671875 64.59375 
L 19.671875 43.109375 
L 48.578125 43.109375 
L 48.578125 34.8125 
L 19.671875 34.8125 
L 19.671875 0 
L 9.8125 0 
z
" id="DejaVuSans-70"/>
     </defs>
     <g style="fill:#ffffff;" transform="translate(652.97625 30.718125)scale(0.12 -0.12)">
      <use xlink:href="#DejaVuSans-76"/>
      <use x="55.697266" xlink:href="#DejaVuSans-111"/>
      <use x="116.878906" xlink:href="#DejaVuSans-119"/>
      <use x="198.666016" xlink:href="#DejaVuSans-32"/>
      <use x="230.453125" xlink:href="#DejaVuSans-73"/>
      <use x="259.945312" xlink:href="#DejaVuSans-70"/>
      <use x="317.449219" xlink:href="#DejaVuSans-84"/>
     </g>
    </g>
   </g>
  </g>
  <g id="axes_2">
   <g id="patch_8">
    <path d="M 77.06 375.64 
L 709.2 375.64 
L 709.2 221.4 
L 77.06 221.4 
z
" style="fill:#121212;"/>
   </g>
   <g id="matplotlib.axis_3">
    <g id="xtick_7">
     <g id="line2d_15">
      <g>
       <use style="fill:#ffffff;stroke:#ffffff;stroke-width:0.8;" x="105.793636" xlink:href="#m558365d76f" y="375.64"/>
      </g>
     </g>
     <g id="text_15">
      <!-- 0 -->
      <g style="fill:#ffffff;" transform="translate(100.067386 396.317187)scale(0.18 -0.18)">
       <use xlink:href="#DejaVuSans-48"/>
      </g>
     </g>
    </g>
    <g id="xtick_8">
     <g id="line2d_16">
      <g>
       <use style="fill:#ffffff;stroke:#ffffff;stroke-width:0.8;" x="220.121143" xlink:href="#m558365d76f" y="375.64"/>
      </g>
     </g>
     <g id="text_16">
      <!-- 5 -->
      <g style="fill:#ffffff;" transform="translate(214.394893 396.317187)scale(0.18 -0.18)">
       <use xlink:href="#DejaVuSans-53"/>
      </g>
     </g>
    </g>
    <g id="xtick_9">
     <g id="line2d_17">
      <g>
       <use style="fill:#ffffff;stroke:#ffffff;stroke-width:0.8;" x="334.448649" xlink:href="#m558365d76f" y="375.64"/>
      </g>
     </g>
     <g id="text_17">
      <!-- 10 -->
      <g style="fill:#ffffff;" transform="translate(322.996149 396.317187)scale(0.18 -0.18)">
       <use xlink:href="#DejaVuSans-49"/>
       <use x="63.623047" xlink:href="#DejaVuSans-48"/>
      </g>
     </g>
    </g>
    <g id="xtick_10">
     <g id="line2d_18">
      <g>
       <use style="fill:#ffffff;stroke:#ffffff;stroke-width:0.8;" x="448.776156" xlink:href="#m558365d76f" y="375.64"/>
      </g>
     </g>
     <g id="text_18">
      <!-- 15 -->
      <g style="fill:#ffffff;" transform="translate(437.323656 396.317187)scale(0.18 -0.18)">
       <use xlink:href="#DejaVuSans-49"/>
       <use x="63.623047" xlink:href="#DejaVuSans-53"/>
      </g>
     </g>
    </g>
    <g id="xtick_11">
     <g id="line2d_19">
      <g>
       <use style="fill:#ffffff;stroke:#ffffff;stroke-width:0.8;" x="563.103662" xlink:href="#m558365d76f" y="375.64"/>
      </g>
     </g>
     <g id="text_19">
      <!-- 20 -->
      <g style="fill:#ffffff;" transform="translate(551.651162 396.317187)scale(0.18 -0.18)">
       <use xlink:href="#DejaVuSans-50"/>
       <use x="63.623047" xlink:href="#DejaVuSans-48"/>
      </g>
     </g>
    </g>
    <g id="xtick_12">
     <g id="line2d_20">
      <g>
       <use style="fill:#ffffff;stroke:#ffffff;stroke-width:0.8;" x="677.431169" xlink:href="#m558365d76f" y="375.64"/>
      </g>
     </g>
     <g id="text_20">
      <!-- 25 -->
      <g style="fill:#ffffff;" transform="translate(665.978669 396.317187)scale(0.18 -0.18)">
       <use xlink:href="#DejaVuSans-50"/>
       <use x="63.623047" xlink:href="#DejaVuSans-53"/>
      </g>
     </g>
    </g>
    <g id="text_21">
     <!-- Time (t) -->
     <g style="fill:#ffffff;" transform="translate(357.421094 417.737812)scale(0.18 -0.18)">
      <use xlink:href="#DejaVuSans-84"/>
      <use x="61.037109" xlink:href="#DejaVuSans-105"/>
      <use x="88.820312" xlink:href="#DejaVuSans-109"/>
      <use x="186.232422" xlink:href="#DejaVuSans-101"/>
      <use x="247.755859" xlink:href="#DejaVuSans-32"/>
      <use x="279.542969" xlink:href="#DejaVuSans-40"/>
      <use x="318.556641" xlink:href="#DejaVuSans-116"/>
      <use x="357.765625" xlink:href="#DejaVuSans-41"/>
     </g>
    </g>
   </g>
   <g id="matplotlib.axis_4">
    <g id="ytick_6">
     <g id="line2d_21">
      <g>
       <use style="fill:#ffffff;stroke:#ffffff;stroke-width:0.8;" x="77.06" xlink:href="#m20b3f28272" y="357.990496"/>
      </g>
     </g>
     <g id="text_22">
      <!-- −10 -->
      <g style="fill:#ffffff;" transform="translate(32.071563 364.82909)scale(0.18 -0.18)">
       <use xlink:href="#DejaVuSans-8722"/>
       <use x="83.789062" xlink:href="#DejaVuSans-49"/>
       <use x="147.412109" xlink:href="#DejaVuSans-48"/>
      </g>
     </g>
    </g>
    <g id="ytick_7">
     <g id="line2d_22">
      <g>
       <use style="fill:#ffffff;stroke:#ffffff;stroke-width:0.8;" x="77.06" xlink:href="#m20b3f28272" y="328.254921"/>
      </g>
     </g>
     <g id="text_23">
      <!-- −5 -->
      <g style="fill:#ffffff;" transform="translate(43.524063 335.093515)scale(0.18 -0.18)">
       <use xlink:href="#DejaVuSans-8722"/>
       <use x="83.789062" xlink:href="#DejaVuSans-53"/>
      </g>
     </g>
    </g>
    <g id="ytick_8">
     <g id="line2d_23">
      <g>
       <use style="fill:#ffffff;stroke:#ffffff;stroke-width:0.8;" x="77.06" xlink:href="#m20b3f28272" y="298.519346"/>
      </g>
     </g>
     <g id="text_24">
      <!-- 0 -->
      <g style="fill:#ffffff;" transform="translate(58.6075 305.357939)scale(0.18 -0.18)">
       <use xlink:href="#DejaVuSans-48"/>
      </g>
     </g>
    </g>
    <g id="ytick_9">
     <g id="line2d_24">
      <g>
       <use style="fill:#ffffff;stroke:#ffffff;stroke-width:0.8;" x="77.06" xlink:href="#m20b3f28272" y="268.78377"/>
      </g>
     </g>
     <g id="text_25">
      <!-- 5 -->
      <g style="fill:#ffffff;" transform="translate(58.6075 275.622364)scale(0.18 -0.18)">
       <use xlink:href="#DejaVuSans-53"/>
      </g>
     </g>
    </g>
    <g id="ytick_10">
     <g id="line2d_25">
      <g>
       <use style="fill:#ffffff;stroke:#ffffff;stroke-width:0.8;" x="77.06" xlink:href="#m20b3f28272" y="239.048195"/>
      </g>
     </g>
     <g id="text_26">
      <!-- 10 -->
      <g style="fill:#ffffff;" transform="translate(47.155 245.886789)scale(0.18 -0.18)">
       <use xlink:href="#DejaVuSans-49"/>
       <use x="63.623047" xlink:href="#DejaVuSans-48"/>
      </g>
     </g>
    </g>
    <g id="text_27">
     <!-- Amplitude (y) -->
     <g style="fill:#ffffff;" transform="translate(24.328125 359.850781)rotate(-90)scale(0.18 -0.18)">
      <use xlink:href="#DejaVuSans-65"/>
      <use x="68.408203" xlink:href="#DejaVuSans-109"/>
      <use x="165.820312" xlink:href="#DejaVuSans-112"/>
      <use x="229.296875" xlink:href="#DejaVuSans-108"/>
      <use x="257.080078" xlink:href="#DejaVuSans-105"/>
      <use x="284.863281" xlink:href="#DejaVuSans-116"/>
      <use x="324.072266" xlink:href="#DejaVuSans-117"/>
      <use x="387.451172" xlink:href="#DejaVuSans-100"/>
      <use x="450.927734" xlink:href="#DejaVuSans-101"/>
      <use x="512.451172" xlink:href="#DejaVuSans-32"/>
      <use x="544.238281" xlink:href="#DejaVuSans-40"/>
      <use x="583.251953" xlink:href="#DejaVuSans-121"/>
      <use x="642.431641" xlink:href="#DejaVuSans-41"/>
     </g>
    </g>
   </g>
   <g id="line2d_26">
    <path clip-path="url(#pcabb3a86b3)" d="M 105.793636 297.088523 
L 106.081116 291.650479 
L 107.231037 255.764919 
L 108.093477 237.405697 
L 108.668437 231.760268 
L 108.955918 230.117511 
L 109.243398 230.071789 
L 109.530878 231.427736 
L 110.105838 236.054508 
L 110.680798 244.324615 
L 113.268119 286.377897 
L 114.130559 294.151169 
L 114.70552 297.039701 
L 115.56796 300.121831 
L 116.14292 302.103419 
L 116.71788 305.259328 
L 117.292841 309.85891 
L 118.155281 320.318462 
L 119.305201 339.132391 
L 120.455122 357.061796 
L 121.030082 362.901416 
L 121.317562 364.441403 
L 121.605042 364.936971 
L 121.892522 364.453817 
L 122.180002 362.870204 
L 122.467482 360.025371 
L 123.042443 350.963869 
L 123.617403 337.858302 
L 124.767323 303.331729 
L 126.204724 259.603954 
L 126.779684 246.772861 
L 127.354644 237.986057 
L 127.642124 235.409181 
L 127.929604 234.032852 
L 128.217084 233.740807 
L 128.504565 234.546337 
L 128.792045 236.458168 
L 129.367005 242.86605 
L 130.229445 256.951322 
L 131.666846 281.912601 
L 132.529286 292.451298 
L 133.104246 296.606174 
L 133.679206 298.8686 
L 133.966687 299.348215 
L 134.541647 299.678324 
L 135.116607 299.833416 
L 135.404087 300.09795 
L 135.691567 300.704425 
L 136.266527 303.026396 
L 136.841488 307.266292 
L 137.416448 313.495733 
L 138.278888 325.805588 
L 139.716289 346.801642 
L 140.291249 352.153868 
L 140.578729 353.657768 
L 140.866209 354.184316 
L 141.153689 353.722707 
L 141.441169 352.270057 
L 141.728649 349.752654 
L 142.30361 341.563149 
L 142.87857 329.843446 
L 144.02849 299.517181 
L 145.178411 269.376379 
L 145.753371 257.827562 
L 146.328331 250.139842 
L 146.615811 247.846076 
L 146.903291 246.668952 
L 147.190771 246.622115 
L 147.478251 247.605289 
L 147.765732 249.519829 
L 148.340692 255.913176 
L 149.203132 269.607017 
L 150.640533 293.100143 
L 151.215493 299.505978 
L 151.790453 303.322141 
L 152.077933 304.216738 
L 152.365413 304.441244 
L 152.652893 304.110096 
L 152.940373 303.322446 
L 153.515334 300.629209 
L 154.665254 294.569271 
L 154.952734 293.625977 
L 155.240214 293.157282 
L 155.527694 293.188631 
L 155.815174 293.762975 
L 156.102655 294.959229 
L 156.677615 299.177846 
L 157.252575 305.426871 
L 159.552416 334.195784 
L 159.839896 336.018327 
L 160.127376 337.031189 
L 160.414856 337.163462 
L 160.702336 336.421854 
L 160.989816 334.797573 
L 161.564776 328.85828 
L 162.139737 319.916443 
L 163.289657 296.717093 
L 164.439578 274.973585 
L 165.014538 267.700873 
L 165.302018 265.374194 
L 165.589498 264.014513 
L 165.876978 263.60285 
L 166.164458 264.135751 
L 166.451938 265.618624 
L 167.026898 271.087142 
L 167.601859 279.098001 
L 169.614219 310.109549 
L 170.18918 314.994229 
L 170.47666 316.251604 
L 170.76414 316.671542 
L 171.05162 316.298241 
L 171.3391 315.157357 
L 171.91406 310.738397 
L 172.776501 300.580759 
L 173.926421 286.148724 
L 174.501381 281.064067 
L 174.788861 279.466812 
L 175.076341 278.550247 
L 175.363821 278.361338 
L 175.651302 278.942515 
L 175.938782 280.260356 
L 176.513742 284.796981 
L 177.376182 295.137573 
L 178.526103 309.9603 
L 179.101063 315.362646 
L 179.676023 318.305706 
L 179.963503 318.677904 
L 180.250983 318.326198 
L 180.538463 317.248873 
L 181.113424 313.033546 
L 181.975864 303.101966 
L 183.125784 288.505385 
L 183.700744 283.211491 
L 183.988225 281.516388 
L 184.275705 280.537164 
L 184.563185 280.347168 
L 184.850665 281.001208 
L 185.138145 282.478485 
L 185.713105 287.683874 
L 186.288065 295.466859 
L 188.300426 326.787853 
L 188.875386 331.857388 
L 189.162866 333.103681 
L 189.450347 333.433271 
L 189.737827 332.795671 
L 190.025307 331.168425 
L 190.600267 325.187913 
L 191.175227 316.094896 
L 192.325148 292.784781 
L 193.187588 275.942778 
L 193.762548 267.3051 
L 194.337508 261.838578 
L 194.624988 260.408909 
L 194.912469 259.887661 
L 195.199949 260.274891 
L 195.487429 261.500572 
L 196.062389 266.117475 
L 196.924829 276.886227 
L 198.36223 295.789467 
L 198.93719 300.828566 
L 199.51215 303.501694 
L 199.79963 303.958939 
L 200.08711 303.849188 
L 200.37459 303.216928 
L 200.949551 300.816088 
L 202.386951 293.448045 
L 202.674431 292.726989 
L 202.961911 292.524754 
L 203.249392 292.932706 
L 203.536872 293.98216 
L 203.824352 295.690792 
L 204.399312 301.152848 
L 204.974272 308.979844 
L 207.274113 345.326348 
L 207.849073 349.649155 
L 208.136553 350.370212 
L 208.424033 350.016688 
L 208.711513 348.576848 
L 208.998994 346.05407 
L 209.573954 337.8173 
L 210.148914 325.923478 
L 211.298834 295.472323 
L 212.448755 265.570012 
L 213.023715 254.232362 
L 213.598675 246.628113 
L 213.886155 244.371733 
L 214.173635 243.155135 
L 214.461116 242.981172 
L 214.748596 243.803373 
L 215.036076 245.520003 
L 215.611036 251.227713 
L 216.473476 263.553419 
L 217.910877 284.64289 
L 218.485837 290.658306 
L 219.060797 294.634999 
L 219.635757 296.756418 
L 219.923238 297.238251 
L 220.210718 297.472707 
L 221.073158 297.693607 
L 221.360638 297.984733 
L 221.648118 298.578094 
L 221.935598 299.544841 
L 222.510558 302.91822 
L 223.085519 308.519642 
L 223.660479 316.279149 
L 224.810399 336.175609 
L 225.96032 355.023438 
L 226.53528 360.975433 
L 226.82276 362.571577 
L 227.11024 363.129512 
L 227.39772 362.570557 
L 227.6852 360.826958 
L 227.97268 357.888654 
L 228.547641 348.594139 
L 229.122601 335.162123 
L 230.272521 300.310255 
L 231.709922 256.924461 
L 232.284882 244.274757 
L 232.859842 235.813119 
L 233.147322 233.314197 
L 233.434802 231.959853 
L 233.722283 231.727871 
L 234.009763 232.579512 
L 234.297243 234.421502 
L 234.872203 240.570947 
L 235.734643 253.984936 
L 237.172044 277.711647 
L 238.034484 288.009992 
L 238.609444 292.558961 
L 239.184404 295.582291 
L 240.909285 302.386167 
L 241.484245 306.523139 
L 242.059206 312.516504 
L 242.921646 325.051485 
L 245.221487 363.147214 
L 245.796447 367.748946 
L 246.083927 368.538733 
L 246.371407 368.2069 
L 246.658887 366.710876 
L 246.946367 364.010027 
L 247.521327 355.01159 
L 248.096288 341.688547 
L 248.958728 315.605667 
L 250.971089 251.826907 
L 251.546049 239.509558 
L 252.121009 231.666207 
L 252.408489 229.55857 
L 252.695969 228.64488 
L 252.983449 228.869798 
L 253.27093 230.176282 
L 253.84589 235.642147 
L 254.42085 243.971226 
L 257.008171 286.106226 
L 257.583131 291.586118 
L 258.158091 295.291283 
L 258.733052 297.727066 
L 259.882972 301.906967 
L 260.457932 305.260937 
L 261.032892 310.257454 
L 261.607853 317.135416 
L 262.470293 330.466085 
L 263.907693 354.377605 
L 264.482654 361.2747 
L 264.770134 363.570196 
L 265.057614 364.945432 
L 265.345094 365.285674 
L 265.632574 364.511884 
L 265.920054 362.596458 
L 266.495014 355.316122 
L 267.069975 343.666042 
L 267.932415 319.830978 
L 269.944776 258.351387 
L 270.519736 245.88819 
L 271.094696 237.73057 
L 271.382176 235.390332 
L 271.669656 234.238592 
L 271.957136 234.248305 
L 272.244616 235.341598 
L 272.532097 237.427398 
L 273.107057 244.161575 
L 273.969497 258.408323 
L 275.406898 282.998734 
L 275.981858 290.2137 
L 276.556818 295.216661 
L 277.131778 298.053391 
L 277.419258 298.800534 
L 277.706738 299.216511 
L 277.994218 299.385281 
L 278.856659 299.580836 
L 279.144139 299.917594 
L 279.431619 300.552776 
L 279.719099 301.586012 
L 280.294059 305.059986 
L 280.86902 310.539521 
L 281.73146 322.076986 
L 283.45634 347.283331 
L 284.031301 352.286611 
L 284.318781 353.566214 
L 284.606261 353.907474 
L 284.893741 353.229513 
L 285.181221 351.498924 
L 285.756181 344.930346 
L 286.331141 334.478191 
L 287.193582 313.391498 
L 288.918462 267.856794 
L 289.493423 256.831677 
L 290.068383 249.658906 
L 290.355863 247.695484 
L 290.643343 246.821943 
L 290.930823 247.022808 
L 291.218303 248.261826 
L 291.793263 253.475311 
L 292.368224 261.518878 
L 294.668064 297.707503 
L 295.243025 302.500893 
L 295.530505 303.869046 
L 295.817985 304.580951 
L 296.105465 304.672281 
L 296.392945 304.19636 
L 296.967905 301.952854 
L 298.405306 294.391656 
L 298.692786 293.528711 
L 298.980266 293.127708 
L 299.267746 293.273125 
L 299.555226 294.003887 
L 299.842706 295.328784 
L 300.417667 299.755879 
L 301.280107 309.977034 
L 302.717507 329.212371 
L 303.292468 334.468179 
L 303.579948 336.062205 
L 303.867428 336.861684 
L 304.154908 336.795885 
L 304.442388 335.819497 
L 304.729868 333.938307 
L 305.304828 327.61527 
L 305.879789 318.322237 
L 307.317189 289.020135 
L 308.179629 273.685978 
L 308.75459 266.891544 
L 309.04207 264.8097 
L 309.32955 263.684941 
L 309.61703 263.54387 
L 309.90451 264.360222 
L 310.19199 266.079042 
L 310.76695 271.948537 
L 311.629391 284.980645 
L 313.066791 307.726823 
L 313.641751 313.689812 
L 313.929231 315.563401 
L 314.216712 316.639976 
L 314.504192 316.889653 
L 314.791672 316.316461 
L 315.079152 314.974469 
L 315.654112 310.293236 
L 316.516552 299.889752 
L 317.666473 285.64524 
L 318.241433 280.838632 
L 318.528913 279.382101 
L 318.816393 278.650029 
L 319.103873 278.656975 
L 319.391353 279.396431 
L 319.678834 280.854292 
L 320.253794 285.688315 
L 321.116234 296.189232 
L 322.266154 310.76031 
L 322.841115 315.85525 
L 323.128595 317.479132 
L 323.416075 318.407969 
L 323.703555 318.593124 
L 323.991035 318.022928 
L 324.278515 316.732767 
L 324.853475 312.212217 
L 325.715916 301.971328 
L 326.865836 287.503586 
L 327.440796 282.482917 
L 327.728276 280.947421 
L 328.015757 280.177412 
L 328.303237 280.206677 
L 328.590717 281.052027 
L 328.878197 282.718304 
L 329.453157 288.322538 
L 330.315597 300.978898 
L 331.752998 324.008007 
L 332.327958 330.225865 
L 332.615438 332.175002 
L 332.902918 333.220973 
L 333.190398 333.310334 
L 333.477878 332.435466 
L 333.765359 330.605903 
L 334.340319 324.224709 
L 334.915279 314.847162 
L 337.5026 266.635038 
L 338.07756 261.588581 
L 338.36504 260.410824 
L 338.65252 260.128735 
L 338.94 260.71711 
L 339.227481 262.136339 
L 339.802441 267.108833 
L 340.664881 278.112735 
L 341.814801 293.585691 
L 342.389762 299.352163 
L 342.964722 302.927272 
L 343.252202 303.803554 
L 343.539682 304.082272 
L 343.827162 303.81888 
L 344.114642 303.075616 
L 344.689603 300.475204 
L 345.839523 294.220296 
L 346.127003 293.175076 
L 346.414483 292.576202 
L 346.701963 292.503616 
L 346.989443 293.034807 
L 347.276923 294.232978 
L 347.851884 298.669092 
L 348.426844 305.64697 
L 349.289284 319.523598 
L 350.439205 338.75886 
L 351.014165 345.854945 
L 351.589125 349.708144 
L 351.876605 350.171349 
L 352.164085 349.569241 
L 352.451565 347.860292 
L 353.026526 341.197258 
L 353.601486 330.59647 
L 354.463926 309.294247 
L 356.188807 263.93006 
L 356.763767 253.068041 
L 357.338727 245.981416 
L 357.626207 244.006407 
L 357.913687 243.084565 
L 358.201167 243.175086 
L 358.488648 244.228435 
L 358.776128 246.172556 
L 359.351088 252.254806 
L 360.213528 264.850013 
L 361.363449 282.115823 
L 361.938409 288.822688 
L 362.513369 293.58518 
L 363.088329 296.346624 
L 363.375809 297.096481 
L 363.663289 297.517077 
L 364.23825 297.738325 
L 364.81321 297.916233 
L 365.10069 298.255578 
L 365.38817 298.909918 
L 365.67565 299.979992 
L 366.25061 303.601874 
L 366.825571 309.448004 
L 367.688011 322.091301 
L 369.700372 355.870205 
L 370.275332 361.366176 
L 370.562812 362.710556 
L 370.850292 362.973486 
L 371.137772 362.098776 
L 371.425252 360.056492 
L 372.000212 352.43433 
L 372.575173 340.453021 
L 373.437613 316.214113 
L 375.449974 254.966419 
L 376.024934 242.813739 
L 376.599894 234.937097 
L 376.887374 232.726135 
L 377.174854 231.679054 
L 377.462334 231.74602 
L 377.749814 232.855206 
L 378.037295 234.927498 
L 378.612255 241.492434 
L 379.474695 255.208752 
L 380.912096 278.79673 
L 381.774536 288.77809 
L 382.349496 293.13372 
L 382.924456 296.024116 
L 384.361857 301.418357 
L 384.936817 304.947312 
L 385.511777 310.224314 
L 386.086737 317.437022 
L 386.949178 331.428558 
L 388.674058 360.670782 
L 389.249019 366.54437 
L 389.536499 368.112538 
L 389.823979 368.629091 
L 390.111459 368.001482 
L 390.398939 366.178097 
L 390.686419 363.153087 
L 391.261379 353.569712 
L 391.83634 339.707945 
L 392.69878 313.139225 
L 394.42366 257.33277 
L 394.998621 243.470849 
L 395.573581 233.887285 
L 395.861061 230.862153 
L 396.148541 229.038645 
L 396.436021 228.410909 
L 396.723501 228.92732 
L 397.010981 230.495331 
L 397.585942 236.36861 
L 398.448382 249.961851 
L 400.173263 279.600844 
L 401.035703 289.688026 
L 401.610663 294.04543 
L 402.185623 296.902152 
L 403.623024 302.312736 
L 404.197984 305.861574 
L 404.772944 311.123635 
L 405.347904 318.239871 
L 406.210345 331.846949 
L 407.647745 355.544921 
L 408.222705 362.11015 
L 408.510186 364.182591 
L 408.797666 365.291941 
L 409.085146 365.359079 
L 409.372626 364.312164 
L 409.660106 362.101368 
L 410.235066 354.225083 
L 410.810026 342.072737 
L 411.672467 317.708622 
L 413.684827 256.587527 
L 414.259788 244.606366 
L 414.834748 236.984321 
L 415.122228 234.942067 
L 415.409708 234.067371 
L 415.697188 234.33031 
L 415.984668 235.674688 
L 416.559628 241.170591 
L 417.134589 249.541249 
L 419.434429 287.591773 
L 420.00939 293.437577 
L 420.58435 297.059133 
L 421.15931 298.783189 
L 421.44679 299.122364 
L 422.02175 299.299925 
L 422.309231 299.345651 
L 422.596711 299.520836 
L 422.884191 299.941275 
L 423.171671 300.690972 
L 423.459151 301.838374 
L 424.034111 305.577326 
L 424.609071 311.338996 
L 425.471512 323.187249 
L 426.908912 344.781684 
L 427.483872 350.863969 
L 427.771352 352.808118 
L 428.058833 353.86151 
L 428.346313 353.952098 
L 428.633793 353.030334 
L 428.921273 351.055406 
L 429.496233 343.968991 
L 430.071193 333.107221 
L 430.933634 311.608142 
L 432.658514 266.442279 
L 433.233474 255.841853 
L 433.808435 249.179151 
L 434.095915 247.470374 
L 434.383395 246.868427 
L 434.670875 247.331777 
L 434.958355 248.795376 
L 435.533315 254.395729 
L 436.395756 267.472863 
L 437.833156 291.39394 
L 438.408116 298.371818 
L 438.983077 302.807892 
L 439.270557 304.006011 
L 439.558037 304.537141 
L 439.845517 304.464489 
L 440.132997 303.865533 
L 440.707957 301.434616 
L 442.145358 293.964088 
L 442.432838 293.220662 
L 442.720318 292.957094 
L 443.007798 293.235638 
L 443.295278 294.11175 
L 443.582758 295.603841 
L 444.157718 300.319133 
L 445.020159 310.848029 
L 446.457559 329.928343 
L 447.032519 334.900595 
L 447.32 336.319709 
L 447.60748 336.907987 
L 447.89496 336.625821 
L 448.18244 335.447994 
L 448.46992 333.362756 
L 449.04488 326.639603 
L 449.90732 311.512192 
L 451.632201 277.18525 
L 452.207161 269.190741 
L 452.782122 264.601863 
L 453.069602 263.727137 
L 453.357082 263.816657 
L 453.644562 264.8628 
L 453.932042 266.812107 
L 454.507002 273.030313 
L 455.369442 286.34518 
L 456.519363 304.957382 
L 457.094323 311.870768 
L 457.669283 315.988178 
L 457.956763 316.833664 
L 458.244243 316.86306 
L 458.531724 316.093162 
L 458.819204 314.55776 
L 459.394164 309.537262 
L 460.256604 298.890135 
L 461.406525 284.828748 
L 461.981485 280.308106 
L 462.268965 279.017867 
L 462.556445 278.44759 
L 462.843925 278.632656 
L 463.131405 279.561381 
L 463.418885 281.185135 
L 463.993846 286.279811 
L 464.856286 296.982932 
L 466.006206 311.350599 
L 466.581166 316.18425 
L 466.868647 317.641917 
L 467.156127 318.381191 
L 467.443607 318.387962 
L 467.731087 317.655708 
L 468.018567 316.198998 
L 468.593527 311.392076 
L 469.455968 300.957869 
L 470.605888 286.743258 
L 471.180848 282.061911 
L 471.468328 280.719877 
L 471.755808 280.146667 
L 472.043288 280.396345 
L 472.330769 281.472925 
L 472.618249 283.346532 
L 473.193209 289.309625 
L 474.055649 302.296703 
L 475.49305 325.088824 
L 476.06801 330.958641 
L 476.35549 332.677643 
L 476.64297 333.494184 
L 476.93045 333.353295 
L 477.21793 332.228721 
L 477.50541 330.147074 
L 478.080371 323.353027 
L 478.942811 308.019439 
L 480.667692 273.75338 
L 481.242652 265.851723 
L 481.817612 261.221438 
L 482.105092 260.245125 
L 482.392572 260.179387 
L 482.680052 260.978901 
L 482.967532 262.572946 
L 483.542493 267.828769 
L 484.404933 279.016313 
L 485.554853 294.266859 
L 486.129814 299.788249 
L 486.704774 303.036214 
L 486.992254 303.766814 
L 487.279734 303.91205 
L 487.567214 303.510861 
L 487.854694 302.647735 
L 488.429654 299.930048 
L 489.579575 293.788467 
L 489.867055 292.841643 
L 490.154535 292.365539 
L 490.442015 292.456686 
L 490.729495 293.168405 
L 491.016975 294.536382 
L 491.591936 299.329466 
L 492.166896 306.618016 
L 493.316816 325.820072 
L 494.179256 339.829094 
L 494.754217 346.583127 
L 495.041697 348.774357 
L 495.329177 350.013403 
L 495.616657 350.214317 
L 495.904137 349.340851 
L 496.191617 347.377516 
L 496.766577 340.204943 
L 497.341538 329.180101 
L 498.203978 307.487452 
L 499.928859 262.560346 
L 500.503819 252.108613 
L 501.078779 245.540438 
L 501.366259 243.810047 
L 501.653739 243.132289 
L 501.941219 243.473738 
L 502.228699 244.753514 
L 502.80366 249.757133 
L 503.6661 261.52971 
L 505.1035 283.028917 
L 505.678461 289.497789 
L 506.253421 293.961091 
L 506.828381 296.488449 
L 507.115861 297.123564 
L 507.403341 297.460247 
L 507.978301 297.623618 
L 508.265782 297.655453 
L 508.553262 297.824089 
L 508.840742 298.239912 
L 509.128222 298.986881 
L 509.415702 300.152569 
L 509.990662 304.045716 
L 510.565622 310.161547 
L 511.428063 323.154688 
L 513.440423 356.626571 
L 514.015384 361.695268 
L 514.302864 362.78841 
L 514.590344 362.797974 
L 514.877824 361.646092 
L 515.165304 359.305735 
L 515.740264 351.147928 
L 516.315224 338.684597 
L 517.177665 314.020441 
L 518.902545 260.592502 
L 519.477506 247.041297 
L 520.052466 237.505735 
L 520.627426 232.525292 
L 520.914906 231.751699 
L 521.202386 232.092151 
L 521.489866 233.467594 
L 522.064827 238.867101 
L 522.927267 251.689184 
L 524.652147 279.904795 
L 525.227108 286.783119 
L 525.802068 291.779977 
L 526.377028 295.134207 
L 527.239468 298.34393 
L 527.814429 300.411141 
L 528.389389 303.412135 
L 528.964349 307.946458 
L 529.539309 314.421834 
L 530.40175 327.534407 
L 532.41411 361.397755 
L 532.98907 366.863174 
L 533.276551 368.169417 
L 533.564031 368.394105 
L 533.851511 367.480182 
L 534.138991 365.372298 
L 534.713951 357.528468 
L 535.288911 345.210655 
L 536.151352 320.114958 
L 538.163712 255.347299 
L 538.738673 242.024098 
L 539.313633 233.025581 
L 539.601113 230.324727 
L 539.888593 228.828704 
L 540.176073 228.496894 
L 540.463553 229.286737 
L 540.751033 231.125626 
L 541.325993 237.434007 
L 542.188434 251.397127 
L 543.913314 280.776574 
L 544.488275 287.772217 
L 545.063235 292.789836 
L 545.638195 296.152213 
L 546.500635 299.356618 
L 547.075596 301.458032 
L 547.650556 304.481807 
L 548.225516 309.031143 
L 548.800476 315.437412 
L 549.662916 328.231988 
L 551.387797 356.471017 
L 551.962757 362.620351 
L 552.250237 364.462256 
L 552.537717 365.313777 
L 552.825198 365.081661 
L 553.112678 363.727179 
L 553.400158 361.228094 
L 553.975118 352.766062 
L 554.550078 340.115932 
L 555.412519 315.25583 
L 557.137399 261.875883 
L 557.712359 248.443339 
L 558.28732 239.148306 
L 558.5748 236.20976 
L 558.86228 234.465943 
L 559.14976 233.906775 
L 559.43724 234.464499 
L 559.72472 236.060456 
L 560.29968 242.012148 
L 561.162121 255.657359 
L 562.887001 284.896098 
L 563.461961 291.594326 
L 564.036922 296.071352 
L 564.611882 298.457857 
L 564.899362 299.051414 
L 565.186842 299.34274 
L 566.336762 299.799089 
L 566.624243 300.281199 
L 566.911723 301.124998 
L 567.486683 304.14481 
L 568.061643 309.138681 
L 568.924083 320.127262 
L 570.936444 349.015066 
L 571.511404 353.238691 
L 571.798884 354.061034 
L 572.086365 353.887181 
L 572.373845 352.670686 
L 572.661325 350.414393 
L 573.236285 342.810208 
L 573.811245 331.472552 
L 574.673685 309.551253 
L 576.111086 271.118036 
L 576.686046 259.223722 
L 577.261006 250.986429 
L 577.548487 248.463356 
L 577.835967 247.023202 
L 578.123447 246.669372 
L 578.410927 247.390122 
L 578.698407 249.110433 
L 579.273367 255.087744 
L 580.135807 268.516598 
L 581.573208 292.221131 
L 582.148168 298.949822 
L 582.723128 303.052844 
L 583.010608 304.102147 
L 583.298089 304.509954 
L 583.585569 304.307593 
L 583.873049 303.586455 
L 584.448009 301.055009 
L 585.597929 294.866926 
L 586.17289 293.18559 
L 586.46037 293.076007 
L 586.74785 293.533425 
L 587.03533 294.568997 
L 587.61029 298.452999 
L 588.18525 304.494752 
L 589.335171 320.151425 
L 590.197611 330.921263 
L 590.772571 335.538892 
L 591.060051 336.764946 
L 591.347531 337.152523 
L 591.635012 336.631612 
L 591.922492 335.202291 
L 592.497452 329.736409 
L 593.072412 321.099305 
L 593.934852 304.257995 
L 595.372253 276.055917 
L 595.947213 268.439195 
L 596.522173 264.247757 
L 596.809653 263.610086 
L 597.097134 263.939552 
L 597.384614 265.185693 
L 597.959574 270.25488 
L 598.534534 278.02192 
L 600.546895 309.356004 
L 601.121855 314.560596 
L 601.409335 316.037473 
L 601.696815 316.691086 
L 601.984295 316.500669 
L 602.271775 315.521049 
L 602.846736 311.46689 
L 603.709176 301.534456 
L 605.146576 284.000503 
L 605.721537 279.784782 
L 606.009017 278.70731 
L 606.296497 278.355466 
L 606.583977 278.727569 
L 606.871457 279.841261 
L 607.446417 284.116294 
L 608.021378 290.462883 
L 609.746258 312.237626 
L 610.321218 316.77492 
L 610.608698 318.093135 
L 610.896179 318.674684 
L 611.183659 318.486179 
L 611.471139 317.57006 
L 611.758619 315.973255 
L 612.333579 310.889496 
L 613.196019 300.287023 
L 614.34594 286.303104 
L 614.9209 281.885008 
L 615.20838 280.744523 
L 615.49586 280.371576 
L 615.78334 280.791856 
L 616.07082 282.049569 
L 616.645781 286.934776 
L 617.220741 294.400834 
L 619.520582 329.063776 
L 620.095542 332.908609 
L 620.383022 333.441248 
L 620.670502 333.029308 
L 620.957982 331.669294 
L 621.245462 329.342224 
L 621.820422 322.068701 
L 622.682863 306.310011 
L 624.407743 272.32845 
L 624.982704 264.774864 
L 625.557664 260.613471 
L 625.845144 259.87132 
L 626.132624 260.003096 
L 626.420104 261.015507 
L 626.995064 265.330897 
L 627.570025 271.932273 
L 629.582385 297.853134 
L 630.157345 302.071852 
L 630.444826 303.268199 
L 630.732306 303.842715 
L 631.019786 303.874307 
L 631.307266 303.405874 
L 631.882226 301.152737 
L 633.319627 293.71252 
L 633.607107 292.925453 
L 633.894587 292.594898 
L 634.182067 292.820057 
L 634.469547 293.715343 
L 634.757027 295.300845 
L 635.331987 300.410264 
L 635.906948 308.030251 
L 637.056868 327.436619 
L 637.919308 341.132249 
L 638.494268 347.526561 
L 638.781749 349.441552 
L 639.069229 350.425142 
L 639.356709 350.37863 
L 639.644189 349.20176 
L 639.931669 346.908235 
L 640.506629 339.2208 
L 641.081589 327.671992 
L 641.94403 305.571511 
L 643.38143 267.20245 
L 643.95639 255.481541 
L 644.531351 247.290614 
L 644.818831 244.772469 
L 645.106311 243.318991 
L 645.393791 242.856512 
L 645.681271 243.382213 
L 645.968751 244.885253 
L 646.543711 250.235602 
L 647.406152 262.280882 
L 648.843552 283.534495 
L 649.418512 289.762553 
L 649.993473 294.001171 
L 650.568433 296.322239 
L 650.855913 296.928313 
L 651.143393 297.192521 
L 652.005833 297.464708 
L 652.293313 297.67738 
L 652.580794 298.157163 
L 652.868274 299.06566 
L 653.443234 302.220415 
L 654.018194 307.567441 
L 654.880634 319.5827 
L 657.180475 357.735952 
L 657.755435 362.495403 
L 658.042916 363.30225 
L 658.330396 363.011602 
L 658.617876 361.636647 
L 658.905356 359.061047 
L 659.480316 350.276818 
L 660.055276 337.448076 
L 660.917717 312.31191 
L 662.642597 259.200126 
L 663.217557 246.094771 
L 663.792518 237.03271 
L 664.079998 234.187489 
L 664.367478 232.603298 
L 664.654958 232.11931 
L 664.942438 232.613929 
L 665.229918 234.152922 
L 665.804878 239.98991 
L 666.379839 248.157108 
L 668.392199 280.567572 
L 669.25464 289.763027 
L 669.8296 293.435493 
L 670.40456 296.061226 
L 671.267 298.830817 
L 671.841961 301.188912 
L 672.416921 305.111356 
L 672.991881 310.623285 
L 673.566841 318.351601 
L 674.716762 337.895363 
L 675.866682 357.239883 
L 676.441642 363.597072 
L 677.016602 366.957683 
L 677.304082 366.917406 
L 677.591563 365.281071 
L 678.166523 359.650796 
L 678.741483 348.307276 
L 679.603923 325.760689 
L 680.178884 305.480031 
L 680.466364 300.052668 
L 680.466364 300.052668 
" style="fill:none;stroke:#00ff00;stroke-linecap:square;stroke-width:5;"/>
   </g>
   <g id="patch_9">
    <path d="M 77.06 375.64 
L 77.06 221.4 
" style="fill:none;stroke:#ffffff;stroke-linecap:square;stroke-linejoin:miter;stroke-width:0.8;"/>
   </g>
   <g id="patch_10">
    <path d="M 709.2 375.64 
L 709.2 221.4 
" style="fill:none;stroke:#ffffff;stroke-linecap:square;stroke-linejoin:miter;stroke-width:0.8;"/>
   </g>
   <g id="patch_11">
    <path d="M 77.06 375.64 
L 709.2 375.64 
" style="fill:none;stroke:#ffffff;stroke-linecap:square;stroke-linejoin:miter;stroke-width:0.8;"/>
   </g>
   <g id="patch_12">
    <path d="M 77.06 221.4 
L 709.2 221.4 
" style="fill:none;stroke:#ffffff;stroke-linecap:square;stroke-linejoin:miter;stroke-width:0.8;"/>
   </g>
   <g id="legend_2">
    <g id="patch_13">
     <path d="M 609.421875 248.61375 
L 700.8 248.61375 
Q 703.2 248.61375 703.2 246.21375 
L 703.2 229.8 
Q 703.2 227.4 700.8 227.4 
L 609.421875 227.4 
Q 607.021875 227.4 607.021875 229.8 
L 607.021875 246.21375 
Q 607.021875 248.61375 609.421875 248.61375 
z
" style="fill:#121212;opacity:0.8;stroke:#ffffff;stroke-linejoin:miter;"/>
    </g>
    <g id="line2d_27">
     <path d="M 611.821875 237.118125 
L 635.821875 237.118125 
" style="fill:none;stroke:#00ff00;stroke-linecap:square;stroke-width:5;"/>
    </g>
    <g id="line2d_28"/>
    <g id="text_28">
     <!-- High IFT  -->
     <defs>
      <path d="M 9.8125 72.90625 
L 19.671875 72.90625 
L 19.671875 43.015625 
L 55.515625 43.015625 
L 55.515625 72.90625 
L 65.375 72.90625 
L 65.375 0 
L 55.515625 0 
L 55.515625 34.71875 
L 19.671875 34.71875 
L 19.671875 0 
L 9.8125 0 
z
" id="DejaVuSans-72"/>
      <path d="M 45.40625 27.984375 
Q 45.40625 37.75 41.375 43.109375 
Q 37.359375 48.484375 30.078125 48.484375 
Q 22.859375 48.484375 18.828125 43.109375 
Q 14.796875 37.75 14.796875 27.984375 
Q 14.796875 18.265625 18.828125 12.890625 
Q 22.859375 7.515625 30.078125 7.515625 
Q 37.359375 7.515625 41.375 12.890625 
Q 45.40625 18.265625 45.40625 27.984375 
z
M 54.390625 6.78125 
Q 54.390625 -7.171875 48.1875 -13.984375 
Q 42 -20.796875 29.203125 -20.796875 
Q 24.46875 -20.796875 20.265625 -20.09375 
Q 16.0625 -19.390625 12.109375 -17.921875 
L 12.109375 -9.1875 
Q 16.0625 -11.328125 19.921875 -12.34375 
Q 23.78125 -13.375 27.78125 -13.375 
Q 36.625 -13.375 41.015625 -8.765625 
Q 45.40625 -4.15625 45.40625 5.171875 
L 45.40625 9.625 
Q 42.625 4.78125 38.28125 2.390625 
Q 33.9375 0 27.875 0 
Q 17.828125 0 11.671875 7.65625 
Q 5.515625 15.328125 5.515625 27.984375 
Q 5.515625 40.671875 11.671875 48.328125 
Q 17.828125 56 27.875 56 
Q 33.9375 56 38.28125 53.609375 
Q 42.625 51.21875 45.40625 46.390625 
L 45.40625 54.6875 
L 54.390625 54.6875 
z
" id="DejaVuSans-103"/>
      <path d="M 54.890625 33.015625 
L 54.890625 0 
L 45.90625 0 
L 45.90625 32.71875 
Q 45.90625 40.484375 42.875 44.328125 
Q 39.84375 48.1875 33.796875 48.1875 
Q 26.515625 48.1875 22.3125 43.546875 
Q 18.109375 38.921875 18.109375 30.90625 
L 18.109375 0 
L 9.078125 0 
L 9.078125 75.984375 
L 18.109375 75.984375 
L 18.109375 46.1875 
Q 21.34375 51.125 25.703125 53.5625 
Q 30.078125 56 35.796875 56 
Q 45.21875 56 50.046875 50.171875 
Q 54.890625 44.34375 54.890625 33.015625 
z
" id="DejaVuSans-104"/>
     </defs>
     <g style="fill:#ffffff;" transform="translate(645.421875 241.318125)scale(0.12 -0.12)">
      <use xlink:href="#DejaVuSans-72"/>
      <use x="75.195312" xlink:href="#DejaVuSans-105"/>
      <use x="102.978516" xlink:href="#DejaVuSans-103"/>
      <use x="166.455078" xlink:href="#DejaVuSans-104"/>
      <use x="229.833984" xlink:href="#DejaVuSans-32"/>
      <use x="261.621094" xlink:href="#DejaVuSans-73"/>
      <use x="291.113281" xlink:href="#DejaVuSans-70"/>
      <use x="348.617188" xlink:href="#DejaVuSans-84"/>
      <use x="409.701172" xlink:href="#DejaVuSans-32"/>
     </g>
    </g>
   </g>
  </g>
 </g>
 <defs>
  <clipPath id="p6b2507c65d">
   <rect height="154.24" width="632.14" x="77.06" y="10.8"/>
  </clipPath>
  <clipPath id="pcabb3a86b3">
   <rect height="154.24" width="632.14" x="77.06" y="221.4"/>
  </clipPath>
 </defs>
</svg>
