<?xml version="1.0" encoding="utf-8" standalone="no"?>
<!DOCTYPE svg PUBLIC "-//W3C//DTD SVG 1.1//EN"
  "http://www.w3.org/Graphics/SVG/1.1/DTD/svg11.dtd">
<!-- Created with matplotlib (https://matplotlib.org/) -->
<svg height="576pt" version="1.1" viewBox="0 0 720 576" width="720pt" xmlns="http://www.w3.org/2000/svg" xmlns:xlink="http://www.w3.org/1999/xlink">
 <defs>
  <style type="text/css">
*{stroke-linecap:butt;stroke-linejoin:round;}
  </style>
 </defs>
 <g id="figure_1">
  <g id="patch_1">
   <path d="M 0 576 
L 720 576 
L 720 0 
L 0 0 
z
" style="fill:#121212;"/>
  </g>
  <g id="axes_1">
   <g id="patch_2">
    <path d="M 49.48 218.21452 
L 709.2 218.21452 
L 709.2 39.6 
L 49.48 39.6 
z
" style="fill:#121212;"/>
   </g>
   <g id="PolyCollection_1">
    <defs>
     <path d="M 677.94944 -410.706086 
L 677.94944 -407.204097 
L 678.265262 -413.154296 
L 678.581084 -417.079337 
L 678.896906 -418.666744 
L 679.212727 -418.720128 
L 679.212727 -445.374732 
L 679.212727 -445.374732 
L 678.896906 -437.006497 
L 678.581084 -427.773859 
L 678.265262 -419.576093 
L 677.94944 -410.706086 
z
" id="mcb20dc5119" style="stroke:#00ffff;stroke-opacity:0.2;"/>
    </defs>
    <g clip-path="url(#p898c525c91)">
     <use style="fill:#00ffff;fill-opacity:0.2;stroke:#00ffff;stroke-opacity:0.2;" x="0" xlink:href="#mcb20dc5119" y="576"/>
    </g>
   </g>
   <g id="matplotlib.axis_1">
    <g id="xtick_1">
     <g id="line2d_1">
      <defs>
       <path d="M 0 0 
L 0 3.5 
" id="m1ea3cfdd14" style="stroke:#ffffff;stroke-width:0.8;"/>
      </defs>
      <g>
       <use style="fill:#ffffff;stroke:#ffffff;stroke-width:0.8;" x="154.0012" xlink:href="#m1ea3cfdd14" y="218.21452"/>
      </g>
     </g>
     <g id="text_1">
      <!-- 2020-01-15 -->
      <defs>
       <path d="M 19.1875 8.296875 
L 53.609375 8.296875 
L 53.609375 0 
L 7.328125 0 
L 7.328125 8.296875 
Q 12.9375 14.109375 22.625 23.890625 
Q 32.328125 33.6875 34.8125 36.53125 
Q 39.546875 41.84375 41.421875 45.53125 
Q 43.3125 49.21875 43.3125 52.78125 
Q 43.3125 58.59375 39.234375 62.25 
Q 35.15625 65.921875 28.609375 65.921875 
Q 23.96875 65.921875 18.8125 64.3125 
Q 13.671875 62.703125 7.8125 59.421875 
L 7.8125 69.390625 
Q 13.765625 71.78125 18.9375 73 
Q 24.125 74.21875 28.421875 74.21875 
Q 39.75 74.21875 46.484375 68.546875 
Q 53.21875 62.890625 53.21875 53.421875 
Q 53.21875 48.921875 51.53125 44.890625 
Q 49.859375 40.875 45.40625 35.40625 
Q 44.1875 33.984375 37.640625 27.21875 
Q 31.109375 20.453125 19.1875 8.296875 
z
" id="DejaVuSans-50"/>
       <path d="M 31.78125 66.40625 
Q 24.171875 66.40625 20.328125 58.90625 
Q 16.5 51.421875 16.5 36.375 
Q 16.5 21.390625 20.328125 13.890625 
Q 24.171875 6.390625 31.78125 6.390625 
Q 39.453125 6.390625 43.28125 13.890625 
Q 47.125 21.390625 47.125 36.375 
Q 47.125 51.421875 43.28125 58.90625 
Q 39.453125 66.40625 31.78125 66.40625 
z
M 31.78125 74.21875 
Q 44.046875 74.21875 50.515625 64.515625 
Q 56.984375 54.828125 56.984375 36.375 
Q 56.984375 17.96875 50.515625 8.265625 
Q 44.046875 -1.421875 31.78125 -1.421875 
Q 19.53125 -1.421875 13.0625 8.265625 
Q 6.59375 17.96875 6.59375 36.375 
Q 6.59375 54.828125 13.0625 64.515625 
Q 19.53125 74.21875 31.78125 74.21875 
z
" id="DejaVuSans-48"/>
       <path d="M 4.890625 31.390625 
L 31.203125 31.390625 
L 31.203125 23.390625 
L 4.890625 23.390625 
z
" id="DejaVuSans-45"/>
       <path d="M 12.40625 8.296875 
L 28.515625 8.296875 
L 28.515625 63.921875 
L 10.984375 60.40625 
L 10.984375 69.390625 
L 28.421875 72.90625 
L 38.28125 72.90625 
L 38.28125 8.296875 
L 54.390625 8.296875 
L 54.390625 0 
L 12.40625 0 
z
" id="DejaVuSans-49"/>
       <path d="M 10.796875 72.90625 
L 49.515625 72.90625 
L 49.515625 64.59375 
L 19.828125 64.59375 
L 19.828125 46.734375 
Q 21.96875 47.46875 24.109375 47.828125 
Q 26.265625 48.1875 28.421875 48.1875 
Q 40.625 48.1875 47.75 41.5 
Q 54.890625 34.8125 54.890625 23.390625 
Q 54.890625 11.625 47.5625 5.09375 
Q 40.234375 -1.421875 26.90625 -1.421875 
Q 22.3125 -1.421875 17.546875 -0.640625 
Q 12.796875 0.140625 7.71875 1.703125 
L 7.71875 11.625 
Q 12.109375 9.234375 16.796875 8.0625 
Q 21.484375 6.890625 26.703125 6.890625 
Q 35.15625 6.890625 40.078125 11.328125 
Q 45.015625 15.765625 45.015625 23.390625 
Q 45.015625 31 40.078125 35.4375 
Q 35.15625 39.890625 26.703125 39.890625 
Q 22.75 39.890625 18.8125 39.015625 
Q 14.890625 38.140625 10.796875 36.28125 
z
" id="DejaVuSans-53"/>
      </defs>
      <g style="fill:#ffffff;" transform="translate(126.107494 294.914808)rotate(-45)scale(0.15 -0.15)">
       <use xlink:href="#DejaVuSans-50"/>
       <use x="63.623047" xlink:href="#DejaVuSans-48"/>
       <use x="127.246094" xlink:href="#DejaVuSans-50"/>
       <use x="190.869141" xlink:href="#DejaVuSans-48"/>
       <use x="254.492188" xlink:href="#DejaVuSans-45"/>
       <use x="290.576172" xlink:href="#DejaVuSans-48"/>
       <use x="354.199219" xlink:href="#DejaVuSans-49"/>
       <use x="417.822266" xlink:href="#DejaVuSans-45"/>
       <use x="453.90625" xlink:href="#DejaVuSans-49"/>
       <use x="517.529297" xlink:href="#DejaVuSans-53"/>
      </g>
     </g>
    </g>
    <g id="xtick_2">
     <g id="line2d_2">
      <g>
       <use style="fill:#ffffff;stroke:#ffffff;stroke-width:0.8;" x="282.856463" xlink:href="#m1ea3cfdd14" y="218.21452"/>
      </g>
     </g>
     <g id="text_2">
      <!-- 2020-02-01 -->
      <g style="fill:#ffffff;" transform="translate(254.962758 294.914808)rotate(-45)scale(0.15 -0.15)">
       <use xlink:href="#DejaVuSans-50"/>
       <use x="63.623047" xlink:href="#DejaVuSans-48"/>
       <use x="127.246094" xlink:href="#DejaVuSans-50"/>
       <use x="190.869141" xlink:href="#DejaVuSans-48"/>
       <use x="254.492188" xlink:href="#DejaVuSans-45"/>
       <use x="290.576172" xlink:href="#DejaVuSans-48"/>
       <use x="354.199219" xlink:href="#DejaVuSans-50"/>
       <use x="417.822266" xlink:href="#DejaVuSans-45"/>
       <use x="453.90625" xlink:href="#DejaVuSans-48"/>
       <use x="517.529297" xlink:href="#DejaVuSans-49"/>
      </g>
     </g>
    </g>
    <g id="xtick_3">
     <g id="line2d_3">
      <g>
       <use style="fill:#ffffff;stroke:#ffffff;stroke-width:0.8;" x="388.972563" xlink:href="#m1ea3cfdd14" y="218.21452"/>
      </g>
     </g>
     <g id="text_3">
      <!-- 2020-02-15 -->
      <g style="fill:#ffffff;" transform="translate(361.078857 294.914808)rotate(-45)scale(0.15 -0.15)">
       <use xlink:href="#DejaVuSans-50"/>
       <use x="63.623047" xlink:href="#DejaVuSans-48"/>
       <use x="127.246094" xlink:href="#DejaVuSans-50"/>
       <use x="190.869141" xlink:href="#DejaVuSans-48"/>
       <use x="254.492188" xlink:href="#DejaVuSans-45"/>
       <use x="290.576172" xlink:href="#DejaVuSans-48"/>
       <use x="354.199219" xlink:href="#DejaVuSans-50"/>
       <use x="417.822266" xlink:href="#DejaVuSans-45"/>
       <use x="453.90625" xlink:href="#DejaVuSans-49"/>
       <use x="517.529297" xlink:href="#DejaVuSans-53"/>
      </g>
     </g>
    </g>
    <g id="xtick_4">
     <g id="line2d_4">
      <g>
       <use style="fill:#ffffff;stroke:#ffffff;stroke-width:0.8;" x="502.668383" xlink:href="#m1ea3cfdd14" y="218.21452"/>
      </g>
     </g>
     <g id="text_4">
      <!-- 2020-03-01 -->
      <defs>
       <path d="M 40.578125 39.3125 
Q 47.65625 37.796875 51.625 33 
Q 55.609375 28.21875 55.609375 21.1875 
Q 55.609375 10.40625 48.1875 4.484375 
Q 40.765625 -1.421875 27.09375 -1.421875 
Q 22.515625 -1.421875 17.65625 -0.515625 
Q 12.796875 0.390625 7.625 2.203125 
L 7.625 11.71875 
Q 11.71875 9.328125 16.59375 8.109375 
Q 21.484375 6.890625 26.8125 6.890625 
Q 36.078125 6.890625 40.9375 10.546875 
Q 45.796875 14.203125 45.796875 21.1875 
Q 45.796875 27.640625 41.28125 31.265625 
Q 36.765625 34.90625 28.71875 34.90625 
L 20.21875 34.90625 
L 20.21875 43.015625 
L 29.109375 43.015625 
Q 36.375 43.015625 40.234375 45.921875 
Q 44.09375 48.828125 44.09375 54.296875 
Q 44.09375 59.90625 40.109375 62.90625 
Q 36.140625 65.921875 28.71875 65.921875 
Q 24.65625 65.921875 20.015625 65.03125 
Q 15.375 64.15625 9.8125 62.3125 
L 9.8125 71.09375 
Q 15.4375 72.65625 20.34375 73.4375 
Q 25.25 74.21875 29.59375 74.21875 
Q 40.828125 74.21875 47.359375 69.109375 
Q 53.90625 64.015625 53.90625 55.328125 
Q 53.90625 49.265625 50.4375 45.09375 
Q 46.96875 40.921875 40.578125 39.3125 
z
" id="DejaVuSans-51"/>
      </defs>
      <g style="fill:#ffffff;" transform="translate(474.774678 294.914808)rotate(-45)scale(0.15 -0.15)">
       <use xlink:href="#DejaVuSans-50"/>
       <use x="63.623047" xlink:href="#DejaVuSans-48"/>
       <use x="127.246094" xlink:href="#DejaVuSans-50"/>
       <use x="190.869141" xlink:href="#DejaVuSans-48"/>
       <use x="254.492188" xlink:href="#DejaVuSans-45"/>
       <use x="290.576172" xlink:href="#DejaVuSans-48"/>
       <use x="354.199219" xlink:href="#DejaVuSans-51"/>
       <use x="417.822266" xlink:href="#DejaVuSans-45"/>
       <use x="453.90625" xlink:href="#DejaVuSans-48"/>
       <use x="517.529297" xlink:href="#DejaVuSans-49"/>
      </g>
     </g>
    </g>
    <g id="xtick_5">
     <g id="line2d_5">
      <g>
       <use style="fill:#ffffff;stroke:#ffffff;stroke-width:0.8;" x="608.784483" xlink:href="#m1ea3cfdd14" y="218.21452"/>
      </g>
     </g>
     <g id="text_5">
      <!-- 2020-03-15 -->
      <g style="fill:#ffffff;" transform="translate(580.890777 294.914808)rotate(-45)scale(0.15 -0.15)">
       <use xlink:href="#DejaVuSans-50"/>
       <use x="63.623047" xlink:href="#DejaVuSans-48"/>
       <use x="127.246094" xlink:href="#DejaVuSans-50"/>
       <use x="190.869141" xlink:href="#DejaVuSans-48"/>
       <use x="254.492188" xlink:href="#DejaVuSans-45"/>
       <use x="290.576172" xlink:href="#DejaVuSans-48"/>
       <use x="354.199219" xlink:href="#DejaVuSans-51"/>
       <use x="417.822266" xlink:href="#DejaVuSans-45"/>
       <use x="453.90625" xlink:href="#DejaVuSans-49"/>
       <use x="517.529297" xlink:href="#DejaVuSans-53"/>
      </g>
     </g>
    </g>
   </g>
   <g id="matplotlib.axis_2">
    <g id="ytick_1">
     <g id="line2d_6">
      <defs>
       <path d="M 0 0 
L -3.5 0 
" id="mdea3bb4bdb" style="stroke:#ffffff;stroke-width:0.8;"/>
      </defs>
      <g>
       <use style="fill:#ffffff;stroke:#ffffff;stroke-width:0.8;" x="49.48" xlink:href="#mdea3bb4bdb" y="197.775868"/>
      </g>
     </g>
     <g id="text_6">
      <!-- −10 -->
      <defs>
       <path d="M 10.59375 35.5 
L 73.1875 35.5 
L 73.1875 27.203125 
L 10.59375 27.203125 
z
" id="DejaVuSans-8722"/>
      </defs>
      <g style="fill:#ffffff;" transform="translate(10.822969 203.474696)scale(0.15 -0.15)">
       <use xlink:href="#DejaVuSans-8722"/>
       <use x="83.789062" xlink:href="#DejaVuSans-49"/>
       <use x="147.412109" xlink:href="#DejaVuSans-48"/>
      </g>
     </g>
    </g>
    <g id="ytick_2">
     <g id="line2d_7">
      <g>
       <use style="fill:#ffffff;stroke:#ffffff;stroke-width:0.8;" x="49.48" xlink:href="#mdea3bb4bdb" y="163.341185"/>
      </g>
     </g>
     <g id="text_7">
      <!-- −5 -->
      <g style="fill:#ffffff;" transform="translate(20.366719 169.040013)scale(0.15 -0.15)">
       <use xlink:href="#DejaVuSans-8722"/>
       <use x="83.789062" xlink:href="#DejaVuSans-53"/>
      </g>
     </g>
    </g>
    <g id="ytick_3">
     <g id="line2d_8">
      <g>
       <use style="fill:#ffffff;stroke:#ffffff;stroke-width:0.8;" x="49.48" xlink:href="#mdea3bb4bdb" y="128.906502"/>
      </g>
     </g>
     <g id="text_8">
      <!-- 0 -->
      <g style="fill:#ffffff;" transform="translate(32.93625 134.60533)scale(0.15 -0.15)">
       <use xlink:href="#DejaVuSans-48"/>
      </g>
     </g>
    </g>
    <g id="ytick_4">
     <g id="line2d_9">
      <g>
       <use style="fill:#ffffff;stroke:#ffffff;stroke-width:0.8;" x="49.48" xlink:href="#mdea3bb4bdb" y="94.471819"/>
      </g>
     </g>
     <g id="text_9">
      <!-- 5 -->
      <g style="fill:#ffffff;" transform="translate(32.93625 100.170647)scale(0.15 -0.15)">
       <use xlink:href="#DejaVuSans-53"/>
      </g>
     </g>
    </g>
    <g id="ytick_5">
     <g id="line2d_10">
      <g>
       <use style="fill:#ffffff;stroke:#ffffff;stroke-width:0.8;" x="49.48" xlink:href="#mdea3bb4bdb" y="60.037136"/>
      </g>
     </g>
     <g id="text_10">
      <!-- 10 -->
      <g style="fill:#ffffff;" transform="translate(23.3925 65.735964)scale(0.15 -0.15)">
       <use xlink:href="#DejaVuSans-49"/>
       <use x="63.623047" xlink:href="#DejaVuSans-48"/>
      </g>
     </g>
    </g>
   </g>
   <g id="line2d_11">
    <path clip-path="url(#p898c525c91)" d="M 677.94944 170.386498 
L 678.265262 160.45279 
L 678.581084 148.11281 
L 678.896906 136.967183 
L 679.212727 130.682135 
" style="fill:none;stroke:#0000ff;stroke-linecap:square;stroke-width:1.5;"/>
   </g>
   <g id="line2d_12">
    <path clip-path="url(#p898c525c91)" d="M 79.467273 130.248634 
L 80.098916 130.428235 
L 80.414738 130.734573 
L 80.73056 131.436889 
L 81.046381 132.562743 
L 81.362203 134.1258 
L 81.993847 139.035727 
L 82.62549 146.249605 
L 83.572955 160.504784 
L 85.152064 184.818841 
L 85.783707 191.016878 
L 86.099529 192.75844 
L 86.415351 193.368198 
L 86.731172 192.833641 
L 87.046994 191.151429 
L 87.362816 188.236201 
L 87.994459 178.75251 
L 88.626103 165.180744 
L 89.88939 130.062025 
L 91.152677 95.158077 
L 91.78432 81.784203 
L 92.415963 72.881594 
L 92.731785 70.225345 
L 93.047607 68.8622 
L 93.363429 68.807961 
L 93.67925 69.946506 
L 93.995072 72.163601 
L 94.626715 79.567287 
L 95.574181 95.425163 
L 96.837468 117.8952 
L 97.469111 126.717731 
L 98.100754 132.633001 
L 98.416576 134.468282 
L 98.732398 135.504252 
L 99.04822 135.764237 
L 99.364041 135.380758 
L 99.679863 134.468635 
L 100.311507 131.349787 
L 101.574793 124.332198 
L 101.890615 123.239835 
L 102.206437 122.697073 
L 102.522259 122.733376 
L 102.83808 123.398483 
L 103.153902 124.783781 
L 103.785546 129.669065 
L 104.417189 136.905622 
L 106.943763 170.220881 
L 107.259584 172.331441 
L 107.575406 173.504365 
L 107.891228 173.657542 
L 108.20705 172.798737 
L 108.522871 170.917771 
L 109.154515 164.039893 
L 109.786158 153.684978 
L 111.049445 126.81944 
L 111.99691 107.093304 
L 112.628554 96.972036 
L 113.260197 90.523428 
L 113.576019 88.948876 
L 113.891841 88.472159 
L 114.207662 89.089274 
L 114.523484 90.806486 
L 115.155128 97.139193 
L 115.786771 106.416006 
L 117.997523 142.328303 
L 118.629167 147.984908 
L 118.944988 149.440987 
L 119.26081 149.927286 
L 119.576632 149.494993 
L 119.892453 148.173815 
L 120.524097 143.056527 
L 121.471562 131.29368 
L 122.734849 114.580953 
L 123.366492 108.692769 
L 123.682314 106.8431 
L 123.998136 105.781691 
L 124.313958 105.562928 
L 124.629779 106.235948 
L 124.945601 107.762047 
L 125.577244 113.015595 
L 126.52471 124.990308 
L 127.787997 142.155468 
L 128.41964 148.411546 
L 128.735462 150.529965 
L 129.051283 151.819697 
L 129.367105 152.250714 
L 129.682927 151.843427 
L 129.998749 150.595853 
L 130.630392 145.714379 
L 131.262036 138.447931 
L 133.156966 113.910474 
L 133.788609 109.216571 
L 134.104431 108.0826 
L 134.420253 107.862578 
L 134.736074 108.619976 
L 135.051896 110.330707 
L 135.68354 116.358703 
L 136.315183 125.371632 
L 138.525935 161.642276 
L 139.157579 167.51295 
L 139.4734 168.956194 
L 139.789222 169.337869 
L 140.105044 168.599509 
L 140.420866 166.715109 
L 141.052509 159.789498 
L 141.684152 149.259513 
L 142.947439 122.265705 
L 143.894904 102.762163 
L 144.526548 92.759475 
L 145.158191 86.429079 
L 145.474013 84.77348 
L 145.789835 84.169859 
L 146.105657 84.618283 
L 146.421478 86.037658 
L 147.053122 91.384169 
L 148.000587 103.854705 
L 149.579696 125.745222 
L 150.211339 131.580648 
L 150.527161 133.477211 
L 150.842982 134.67621 
L 151.158804 135.205713 
L 151.474626 135.078618 
L 151.790448 134.346443 
L 152.422091 131.566198 
L 154.0012 123.033785 
L 154.317021 122.19878 
L 154.632843 121.964586 
L 154.948665 122.437007 
L 155.264487 123.652306 
L 155.580308 125.630953 
L 156.211952 131.956176 
L 156.843595 141.020071 
L 159.370169 183.110407 
L 160.001812 188.116346 
L 160.317634 188.951351 
L 160.633456 188.541961 
L 160.949278 186.874583 
L 161.265099 183.95313 
L 161.896743 174.414706 
L 162.528386 160.641304 
L 163.791673 125.377959 
L 165.05496 90.750192 
L 165.686603 77.620855 
L 166.318247 68.814908 
L 166.634069 66.201951 
L 166.94989 64.793096 
L 167.265712 64.591641 
L 167.581534 65.543774 
L 167.897356 67.531682 
L 168.528999 74.141382 
L 169.476464 88.414916 
L 171.055573 112.837152 
L 171.687216 119.803184 
L 172.31886 124.408313 
L 172.950503 126.864979 
L 173.266325 127.422956 
L 173.582147 127.694464 
L 174.529612 127.950272 
L 174.845433 128.287404 
L 175.161255 128.974535 
L 175.477077 130.094056 
L 175.792899 131.737781 
L 176.424542 136.922032 
L 177.056186 144.678578 
L 178.003651 160.486272 
L 179.898581 194.339926 
L 180.530225 201.232514 
L 180.846046 203.080896 
L 181.161868 203.727002 
L 181.47769 203.079715 
L 181.793511 201.060575 
L 182.109333 197.657932 
L 182.740977 186.894606 
L 183.37262 171.339931 
L 184.320085 141.743954 
L 186.215016 80.738385 
L 186.846659 66.08965 
L 187.478302 56.290822 
L 187.794124 53.396996 
L 188.109946 51.828625 
L 188.425768 51.559982 
L 188.741589 52.546208 
L 189.057411 54.679288 
L 189.689055 61.800529 
L 190.63652 77.334328 
L 192.215628 104.810566 
L 192.847272 113.308853 
L 193.478915 119.616573 
L 194.110559 123.946968 
L 194.742202 126.790924 
L 196.005489 131.648192 
L 196.637132 135.541335 
L 197.268776 141.351296 
L 197.900419 149.451898 
L 198.847885 165.352262 
L 200.742815 199.641957 
L 201.374458 206.947042 
L 201.69028 209.076444 
L 202.006102 209.991041 
L 202.321923 209.606768 
L 202.637745 207.874328 
L 202.953567 204.746664 
L 203.58521 194.326205 
L 204.216854 178.897725 
L 205.164319 148.692972 
L 207.059249 83.671625 
L 207.690893 67.096653 
L 208.322536 55.342593 
L 208.638358 51.488573 
L 208.95418 49.047867 
L 209.270001 47.989787 
L 209.585823 48.250249 
L 209.901645 49.763196 
L 210.217467 52.429417 
L 210.84911 60.580908 
L 211.796575 77.356746 
L 213.375684 105.9165 
L 214.007327 114.53174 
L 214.638971 120.877618 
L 215.270614 125.168309 
L 215.902258 127.989018 
L 217.165545 132.829468 
L 217.797188 136.713465 
L 218.428831 142.499582 
L 219.060475 150.464466 
L 220.00794 165.901779 
L 221.587049 193.592032 
L 222.218692 201.579074 
L 222.534514 204.237327 
L 222.850336 205.829891 
L 223.166157 206.223901 
L 223.481979 205.327829 
L 223.797801 203.109709 
L 224.113622 199.55993 
L 224.745266 188.517098 
L 225.376909 172.824124 
L 226.324375 143.11483 
L 228.219305 82.390808 
L 228.850948 67.958055 
L 229.482592 58.511287 
L 229.798414 55.801221 
L 230.114235 54.467472 
L 230.430057 54.47872 
L 230.745879 55.744786 
L 231.0617 58.160205 
L 231.693344 65.958582 
L 232.640809 82.456742 
L 234.219918 110.933171 
L 234.851561 119.288317 
L 235.483205 125.081894 
L 236.114848 128.366912 
L 236.43067 129.232127 
L 236.746491 129.713841 
L 237.062313 129.90928 
L 237.693957 129.977792 
L 238.009778 130.13574 
L 238.3256 130.525715 
L 238.641422 131.261275 
L 238.957244 132.457793 
L 239.588887 136.480758 
L 240.22053 142.826224 
L 241.167996 156.186952 
L 243.062926 185.376652 
L 243.694569 191.170598 
L 244.010391 192.652417 
L 244.326213 193.047606 
L 244.642035 192.262508 
L 244.957856 190.258433 
L 245.273678 187.046787 
L 245.905321 177.118232 
L 246.536965 163.089217 
L 247.800252 127.719939 
L 249.063539 93.398352 
L 249.695182 80.630939 
L 250.326826 72.324655 
L 250.642647 70.050955 
L 250.958469 69.039368 
L 251.274291 69.271976 
L 251.590112 70.706795 
L 251.905934 73.244279 
L 252.537578 81.065656 
L 253.485043 97.288674 
L 254.74833 119.525678 
L 255.379973 127.966364 
L 256.011617 133.517253 
L 256.327438 135.101614 
L 256.64326 135.926022 
L 256.959082 136.031784 
L 257.274904 135.480654 
L 257.590725 134.384435 
L 258.222369 131.104314 
L 259.169834 125.545031 
L 259.801477 123.127198 
L 260.117299 122.662825 
L 260.433121 122.831222 
L 260.748943 123.677467 
L 261.064764 125.211737 
L 261.696408 130.338445 
L 262.328051 137.814677 
L 264.538803 167.854969 
L 265.170447 172.382252 
L 265.486268 173.308074 
L 265.80209 173.231877 
L 266.117912 172.101189 
L 266.433734 169.922716 
L 267.065377 162.60045 
L 267.69702 151.83884 
L 268.960307 124.759958 
L 269.907773 105.425243 
L 270.539416 95.732118 
L 271.171059 89.869727 
L 271.486881 88.567222 
L 271.802703 88.403858 
L 272.118525 89.349218 
L 272.434346 91.339663 
L 273.06599 98.136713 
L 274.013455 113.228283 
L 275.592564 139.569036 
L 276.224207 146.474354 
L 276.540029 148.644026 
L 276.85585 149.890732 
L 277.171672 150.179866 
L 277.487494 149.516092 
L 277.803316 147.962026 
L 278.434959 142.541019 
L 279.382424 130.493473 
L 280.645711 113.997904 
L 281.277355 108.431708 
L 281.593176 106.745002 
L 281.908998 105.897241 
L 282.22482 105.905284 
L 282.540641 106.761596 
L 282.856463 108.449843 
L 283.488107 114.047785 
L 284.435572 126.208161 
L 285.698859 143.081903 
L 286.330502 148.981997 
L 286.646324 150.8625 
L 286.962146 151.938121 
L 287.277967 152.152536 
L 287.593789 151.492232 
L 287.909611 149.998187 
L 288.541254 144.763255 
L 289.488719 132.904 
L 290.752006 116.149924 
L 291.38365 110.33584 
L 291.699471 108.557689 
L 292.015293 107.665996 
L 292.331115 107.699886 
L 292.646937 108.678826 
L 292.962758 110.608425 
L 293.594402 117.098295 
L 294.226045 126.389348 
L 296.436797 162.430714 
L 297.068441 167.880756 
L 297.384263 169.092022 
L 297.700084 169.195504 
L 298.015906 168.18238 
L 298.331728 166.063693 
L 298.963371 158.674079 
L 299.595015 147.8146 
L 302.43741 91.983523 
L 303.069054 86.139576 
L 303.384875 84.775698 
L 303.700697 84.44903 
L 304.016519 85.130386 
L 304.33234 86.773896 
L 304.963984 92.532191 
L 305.911449 105.275038 
L 307.174736 123.193183 
L 307.806379 129.870929 
L 308.438023 134.011012 
L 308.753845 135.025773 
L 309.069666 135.348537 
L 309.385488 135.043521 
L 309.70131 134.182798 
L 310.332953 131.171444 
L 311.59624 123.928074 
L 311.912062 122.717678 
L 312.227884 122.024165 
L 312.543705 121.940108 
L 312.859527 122.555243 
L 313.175349 123.942761 
L 313.806992 129.079912 
L 314.438636 137.160504 
L 315.386101 153.230053 
L 316.649388 175.50506 
L 317.281031 183.722538 
L 317.596853 186.48993 
L 317.912675 188.184657 
L 318.228496 188.721062 
L 318.544318 188.023803 
L 318.86014 186.04479 
L 319.175962 182.794724 
L 319.807605 172.716121 
L 320.439248 158.488019 
L 321.702535 122.928669 
L 322.965822 88.851078 
L 323.597466 76.272536 
L 324.229109 68.066012 
L 324.544931 65.778894 
L 324.860753 64.711373 
L 325.176574 64.816199 
L 325.492396 66.036009 
L 325.808218 68.287359 
L 326.439861 75.330785 
L 327.387326 89.916411 
L 328.650613 109.910734 
L 329.282257 117.677484 
L 329.9139 123.192591 
L 330.545544 126.390425 
L 330.861365 127.258783 
L 331.177187 127.745845 
L 331.493009 127.948901 
L 332.440474 128.20808 
L 332.756296 128.601051 
L 333.072117 129.358796 
L 333.387939 130.597974 
L 334.019583 134.792222 
L 334.651226 141.562214 
L 335.282869 150.814017 
L 336.546156 174.017663 
L 337.493622 190.810848 
L 338.125265 198.99473 
L 338.441087 201.685006 
L 338.756908 203.241838 
L 339.07273 203.546318 
L 339.388552 202.533378 
L 339.704374 200.168353 
L 340.020195 196.430626 
L 340.651839 184.982888 
L 341.283482 168.917378 
L 342.546769 128.066366 
L 343.810056 87.101019 
L 344.441699 70.855607 
L 345.073343 59.184945 
L 345.704986 52.716002 
L 346.020808 51.503451 
L 346.33663 51.580999 
L 346.652452 52.86547 
L 346.968273 55.265246 
L 347.599917 62.867638 
L 348.547382 78.751543 
L 350.12649 106.067125 
L 350.758134 114.30787 
L 351.389777 120.401479 
L 352.021421 124.511199 
L 352.653064 127.275379 
L 353.600529 130.777223 
L 354.232173 134.08564 
L 354.863816 139.131956 
L 355.49546 146.353415 
L 356.442925 161.239294 
L 358.653677 200.879718 
L 359.28532 207.681509 
L 359.601142 209.497494 
L 359.916964 210.095678 
L 360.232786 209.368888 
L 360.548607 207.257354 
L 360.864429 203.754302 
L 361.496073 192.656468 
L 362.127716 176.604128 
L 363.075181 145.836758 
L 364.970112 81.211219 
L 365.601755 65.158702 
L 366.233398 54.060648 
L 366.54922 50.557456 
L 366.865042 48.445778 
L 367.180864 47.718842 
L 367.496685 48.316861 
L 367.812507 50.132665 
L 368.444151 56.934096 
L 369.075794 66.933724 
L 371.602368 111.458443 
L 372.234011 118.67957 
L 372.865655 123.725574 
L 373.497298 127.033743 
L 375.076407 133.299361 
L 375.70805 137.409021 
L 376.339694 143.502645 
L 376.971337 151.743459 
L 377.918802 167.50086 
L 379.497911 194.943819 
L 380.129554 202.54655 
L 380.445376 204.946498 
L 380.761198 206.231159 
L 381.077019 206.308907 
L 381.392841 205.096548 
L 381.708663 202.53638 
L 382.340306 193.415407 
L 382.97195 179.342629 
L 383.919415 151.128256 
L 386.130167 80.348205 
L 386.761811 66.473664 
L 387.393454 57.647109 
L 387.709276 55.282117 
L 388.025097 54.269193 
L 388.340919 54.573684 
L 388.656741 56.130514 
L 388.972563 58.820759 
L 389.604206 67.00454 
L 390.551671 83.797458 
L 391.814958 107.000566 
L 392.446602 116.252047 
L 393.078245 123.021662 
L 393.709888 127.215532 
L 394.02571 128.454504 
L 394.341532 129.212041 
L 394.657354 129.604815 
L 395.288997 129.810436 
L 395.604819 129.863388 
L 395.920641 130.066258 
L 396.236462 130.553139 
L 396.552284 131.42131 
L 396.868106 132.750036 
L 397.499749 137.079854 
L 398.131393 143.75204 
L 399.078858 157.47267 
L 400.657966 182.47967 
L 401.28961 189.523136 
L 401.605432 191.774519 
L 401.921253 192.994379 
L 402.237075 193.099282 
L 402.552897 192.031852 
L 402.868718 189.744827 
L 403.500362 181.538547 
L 404.132005 168.960294 
L 405.079471 144.063718 
L 406.974401 91.760302 
L 407.606044 79.484693 
L 408.237688 71.769085 
L 408.553509 69.79027 
L 408.869331 69.093198 
L 409.185153 69.629771 
L 409.500975 71.324662 
L 410.132618 77.810038 
L 410.764262 87.414049 
L 412.975014 125.039019 
L 413.606657 131.690996 
L 413.922479 133.872766 
L 414.238301 135.260224 
L 414.554122 135.875288 
L 414.869944 135.791156 
L 415.185766 135.097546 
L 415.817409 132.282472 
L 417.396518 123.631377 
L 417.71234 122.770468 
L 418.028161 122.465249 
L 418.343983 122.787811 
L 418.659805 123.802375 
L 418.975626 125.530261 
L 419.60727 130.990709 
L 420.238913 138.73048 
L 422.449665 168.525152 
L 423.081309 172.68045 
L 423.397131 173.361694 
L 423.712952 173.034937 
L 424.028774 171.670978 
L 424.344596 169.25621 
L 424.976239 161.470598 
L 425.607883 150.399456 
L 428.134456 99.136885 
L 428.7661 91.747571 
L 429.081922 89.629046 
L 429.397743 88.616087 
L 429.713565 88.719753 
L 430.029387 89.931218 
L 430.345208 92.188574 
L 430.976852 99.389443 
L 431.924317 114.808455 
L 433.187604 136.36194 
L 433.819247 144.367847 
L 434.450891 149.135931 
L 434.766713 150.115028 
L 435.082534 150.149071 
L 435.398356 149.257505 
L 435.714178 147.479464 
L 436.345821 141.665578 
L 437.293286 129.335887 
L 438.556573 113.052381 
L 439.188217 107.817343 
L 439.504038 106.323208 
L 439.81986 105.66281 
L 440.135682 105.877122 
L 440.451504 106.952613 
L 440.767325 108.832969 
L 441.398969 114.732755 
L 442.346434 127.127289 
L 443.609721 143.765476 
L 444.241364 149.362988 
L 444.557186 151.05101 
L 444.873008 151.907112 
L 445.18883 151.914952 
L 445.504651 151.066981 
L 445.820473 149.380067 
L 446.452116 143.813508 
L 447.399582 131.730384 
L 448.662868 115.269442 
L 449.294512 109.848302 
L 449.610334 108.294186 
L 449.926155 107.630393 
L 450.241977 107.919527 
L 450.557799 109.166239 
L 450.873621 111.335932 
L 451.505264 118.241371 
L 452.452729 133.280794 
L 454.031838 159.67475 
L 454.663481 166.472173 
L 454.979303 168.462829 
L 455.295125 169.408408 
L 455.610946 169.245255 
L 455.926768 167.942964 
L 456.24259 165.532355 
L 456.874233 157.664646 
L 457.505877 146.409454 
L 460.032451 95.214817 
L 460.664094 87.892794 
L 460.979916 85.714412 
L 461.295737 84.583813 
L 461.611559 84.507687 
L 461.927381 85.433548 
L 462.243203 87.2795 
L 462.874846 93.365899 
L 463.822311 106.321409 
L 465.085598 123.981995 
L 465.717242 130.37593 
L 466.348885 134.13717 
L 466.664707 134.983227 
L 466.980529 135.151414 
L 467.29635 134.686825 
L 467.612172 133.687299 
L 468.243815 130.540137 
L 469.507102 123.428004 
L 469.822924 122.331554 
L 470.138746 121.78021 
L 470.454567 121.885761 
L 470.770389 122.709953 
L 471.086211 124.294111 
L 471.717854 129.844646 
L 472.349498 138.285004 
L 473.296963 154.674003 
L 474.56025 176.744422 
L 475.191893 184.565794 
L 475.507715 187.103304 
L 475.823537 188.538156 
L 476.139359 188.770821 
L 476.45518 187.759321 
L 476.771002 185.48572 
L 477.402645 177.179667 
L 478.034289 164.412571 
L 478.981754 139.291837 
L 480.876684 87.264908 
L 481.508328 75.16149 
L 482.139971 67.555348 
L 482.455793 65.551503 
L 482.771615 64.766638 
L 483.087436 65.162047 
L 483.403258 66.644065 
L 484.034902 72.438405 
L 484.666545 81.098307 
L 486.877297 114.989824 
L 487.508941 121.335299 
L 488.140584 125.358215 
L 488.456406 126.554663 
L 488.772227 127.290145 
L 489.088049 127.680034 
L 489.403871 127.837868 
L 490.035514 127.906089 
L 490.351336 128.101374 
L 490.667158 128.582909 
L 490.98298 129.447922 
L 491.298801 130.797823 
L 491.930445 135.306204 
L 492.562088 142.388518 
L 493.509553 157.434963 
L 495.720305 196.196402 
L 496.351949 202.066104 
L 496.667771 203.331995 
L 496.983592 203.343071 
L 497.299414 202.009156 
L 497.615236 199.298954 
L 498.246879 189.85197 
L 498.878523 175.419061 
L 499.825988 146.857233 
L 501.720918 84.986087 
L 502.352562 69.293387 
L 502.984205 58.250921 
L 503.300027 54.701338 
L 503.615849 52.48342 
L 503.93167 51.587576 
L 504.247492 51.981829 
L 504.563314 53.574634 
L 505.194957 59.827424 
L 505.826601 69.235486 
L 508.353174 111.609984 
L 508.984818 118.466856 
L 509.616461 123.258002 
L 510.248105 126.389004 
L 511.827213 132.648072 
L 512.458857 136.938743 
L 513.0905 143.284543 
L 513.722144 151.899591 
L 514.669609 168.358889 
L 516.248717 197.233738 
L 516.880361 205.384743 
L 517.196183 208.050694 
L 517.512004 209.563362 
L 517.827826 209.823557 
L 518.143648 208.765207 
L 518.45947 206.324215 
L 518.775291 202.469909 
L 519.406935 190.715316 
L 520.038578 174.139804 
L 520.986043 142.927719 
L 522.880974 78.911984 
L 523.512617 63.483321 
L 524.144261 53.06277 
L 524.460082 49.9351 
L 524.775904 48.202661 
L 525.091726 47.818415 
L 525.407548 48.733077 
L 525.723369 50.862565 
L 526.355013 58.167858 
L 527.302478 74.337568 
L 528.881586 103.504291 
L 529.829052 116.461007 
L 530.460695 122.271558 
L 531.092339 126.165292 
L 532.039804 129.876089 
L 532.671447 132.309588 
L 533.303091 135.81121 
L 533.934734 141.079477 
L 534.566378 148.498128 
L 535.513843 163.314628 
L 537.408773 196.016266 
L 538.040416 203.137378 
L 538.356238 205.270358 
L 538.67206 206.256445 
L 538.987882 205.987648 
L 539.303703 204.419117 
L 539.619525 201.525103 
L 540.251169 191.725817 
L 540.882812 177.07659 
L 541.830277 148.28785 
L 543.725208 86.47228 
L 544.356851 70.916993 
L 544.988494 60.153068 
L 545.304316 56.750144 
L 545.620138 54.730752 
L 545.93596 54.083218 
L 546.251781 54.729079 
L 546.567603 56.577245 
L 547.199246 63.469482 
L 548.146712 79.271043 
L 549.72582 108.336026 
L 550.357464 117.32189 
L 550.989107 123.808759 
L 551.620751 127.715558 
L 551.936572 128.835297 
L 552.252394 129.522653 
L 552.568216 129.860017 
L 553.831503 130.388483 
L 554.147324 130.946781 
L 554.463146 131.923925 
L 554.778968 133.404128 
L 555.410611 138.009932 
L 556.042255 144.976668 
L 556.98972 158.946487 
L 558.568829 183.674883 
L 559.200472 190.285021 
L 559.516294 192.273135 
L 559.832115 193.225433 
L 560.147937 193.024106 
L 560.463759 191.615369 
L 560.779581 189.002514 
L 561.411224 180.196642 
L 562.042868 167.067298 
L 562.990333 141.68178 
L 564.569441 97.174969 
L 565.201085 83.400999 
L 565.832728 73.861967 
L 566.14855 70.940173 
L 566.464372 69.272432 
L 566.780193 68.862686 
L 567.096015 69.697337 
L 567.411837 71.689508 
L 568.04348 78.611413 
L 568.990945 94.162425 
L 570.570054 121.612981 
L 571.201698 129.405007 
L 571.833341 134.156428 
L 572.149163 135.371552 
L 572.464984 135.843805 
L 572.780806 135.609465 
L 573.096628 134.774366 
L 573.728271 131.842875 
L 574.991558 124.676891 
L 575.30738 123.46187 
L 575.623202 122.729854 
L 575.939023 122.602953 
L 576.254845 123.132657 
L 576.570667 124.331881 
L 576.886489 126.228717 
L 577.518132 132.06475 
L 578.465597 144.562758 
L 579.728884 162.69926 
L 580.360528 169.492131 
L 580.676349 171.776241 
L 580.992171 173.196047 
L 581.307993 173.644873 
L 581.623814 173.041643 
L 581.939636 171.386447 
L 582.255458 168.71715 
L 582.887101 160.458337 
L 583.834567 142.457005 
L 585.729497 102.893182 
L 586.36114 94.072791 
L 586.676962 91.103424 
L 586.992784 89.21898 
L 587.308605 88.480538 
L 587.624427 88.86207 
L 587.940249 90.305139 
L 588.256071 92.768624 
L 588.887714 100.367997 
L 589.835179 116.011255 
L 591.098466 137.257302 
L 591.73011 144.887539 
L 592.361753 149.193016 
L 592.677575 149.94992 
L 592.993397 149.729411 
L 593.309218 148.594982 
L 593.62504 146.631545 
L 594.256683 140.500126 
L 595.51997 123.595245 
L 596.467435 112.093249 
L 597.099079 107.211318 
L 597.414901 105.963574 
L 597.730722 105.556128 
L 598.046544 105.987034 
L 598.362366 107.276723 
L 598.994009 112.227339 
L 599.625653 119.576878 
L 601.520583 144.792679 
L 602.152227 150.047002 
L 602.468048 151.573534 
L 602.78387 152.246985 
L 603.099692 152.028691 
L 603.415513 150.967798 
L 603.731335 149.118649 
L 604.362979 143.231505 
L 605.310444 130.953525 
L 606.573731 114.759729 
L 607.205374 109.643443 
L 607.521196 108.322727 
L 607.837018 107.890843 
L 608.152839 108.37754 
L 608.468661 109.83401 
L 609.100304 115.491224 
L 609.731948 124.137143 
L 612.258522 164.277863 
L 612.574343 167.013364 
L 612.890165 168.730295 
L 613.205987 169.347106 
L 613.521809 168.870068 
L 613.83763 167.29513 
L 614.153452 164.600315 
L 614.785095 156.177358 
L 615.732561 137.928325 
L 617.627491 98.576664 
L 618.259134 89.829387 
L 618.574956 86.891957 
L 618.890778 85.010369 
L 619.2066 84.150936 
L 619.522421 84.303536 
L 619.838243 85.475938 
L 620.154065 87.585976 
L 620.785708 94.014502 
L 621.733173 107.288507 
L 622.99646 124.790821 
L 623.628104 130.901273 
L 624.259747 134.405816 
L 624.575569 135.071123 
L 624.891391 135.107707 
L 625.207212 134.565248 
L 625.523034 133.47322 
L 626.154678 130.202282 
L 627.417964 123.340054 
L 627.733786 122.428607 
L 628.049608 122.045815 
L 628.36543 122.306555 
L 628.681251 123.343324 
L 628.997073 125.179382 
L 629.628717 131.096242 
L 630.26036 139.920415 
L 631.523647 162.393567 
L 632.471112 178.253515 
L 633.102756 185.658319 
L 633.418577 187.875935 
L 633.734399 189.014963 
L 634.050221 188.961099 
L 634.366042 187.59825 
L 634.681864 184.942278 
L 635.313508 176.04 
L 635.945151 162.666136 
L 636.892616 137.07312 
L 638.471725 92.640603 
L 639.103368 79.067441 
L 639.735012 69.582103 
L 640.050833 66.666016 
L 640.366655 64.982845 
L 640.682477 64.447281 
L 640.998299 65.056058 
L 641.31412 66.796623 
L 641.945764 72.992487 
L 642.577407 81.867397 
L 644.472338 111.553598 
L 645.103981 118.765875 
L 645.735624 123.674321 
L 646.367268 126.362187 
L 646.68309 127.064038 
L 646.998911 127.37 
L 647.946377 127.685201 
L 648.262198 127.93148 
L 648.57802 128.487084 
L 648.893842 129.539151 
L 649.525485 133.192451 
L 650.157129 139.384466 
L 650.788772 148.12661 
L 651.736237 164.95757 
L 653.315346 193.353589 
L 653.946989 200.777225 
L 654.262811 202.992684 
L 654.578633 203.927037 
L 654.894454 203.590459 
L 655.210276 201.998219 
L 655.526098 199.015598 
L 656.157741 188.843199 
L 656.789385 173.987132 
L 657.73685 144.878703 
L 659.63178 83.373674 
L 660.263424 68.197281 
L 660.895067 57.703144 
L 661.210889 54.408294 
L 661.526711 52.573753 
L 661.842532 52.01328 
L 662.158354 52.586065 
L 662.474176 54.368264 
L 663.105819 61.127671 
L 663.737463 70.585529 
L 665.948215 108.117812 
L 666.89568 118.766424 
L 667.527323 123.019249 
L 668.158967 126.059926 
L 669.106432 129.267195 
L 669.738076 131.99794 
L 670.369719 136.540247 
L 671.001362 142.923225 
L 671.633006 151.872845 
L 672.896293 174.505105 
L 674.15958 196.906635 
L 674.791223 204.26845 
L 675.422867 208.160138 
L 675.738688 208.113496 
L 676.05451 206.218571 
L 676.686153 199.698544 
L 677.001975 194.157406 
L 677.633619 178.469588 
L 677.633619 178.469588 
" style="fill:none;stroke:#00ff00;stroke-linecap:square;stroke-width:1.5;"/>
   </g>
   <g id="line2d_13">
    <path clip-path="url(#p898c525c91)" d="M 677.94944 167.04491 
L 678.265262 159.634804 
L 678.581084 153.573402 
L 678.896906 148.163378 
L 679.212727 143.95257 
" style="fill:none;stroke:#00ffff;stroke-linecap:square;stroke-width:1.5;"/>
   </g>
   <g id="patch_3">
    <path d="M 49.48 218.21452 
L 49.48 39.6 
" style="fill:none;stroke:#ffffff;stroke-linecap:square;stroke-linejoin:miter;stroke-width:0.8;"/>
   </g>
   <g id="patch_4">
    <path d="M 709.2 218.21452 
L 709.2 39.6 
" style="fill:none;stroke:#ffffff;stroke-linecap:square;stroke-linejoin:miter;stroke-width:0.8;"/>
   </g>
   <g id="patch_5">
    <path d="M 49.48 218.21452 
L 709.2 218.21452 
" style="fill:none;stroke:#ffffff;stroke-linecap:square;stroke-linejoin:miter;stroke-width:0.8;"/>
   </g>
   <g id="patch_6">
    <path d="M 49.48 39.6 
L 709.2 39.6 
" style="fill:none;stroke:#ffffff;stroke-linecap:square;stroke-linejoin:miter;stroke-width:0.8;"/>
   </g>
  </g>
  <g id="axes_2">
   <g id="patch_7">
    <path d="M 49.48 486.41452 
L 709.2 486.41452 
L 709.2 307.8 
L 49.48 307.8 
z
" style="fill:#121212;"/>
   </g>
   <g id="PolyCollection_2">
    <defs>
     <path d="M 667.157542 -142.280831 
L 667.157542 -138.639119 
L 670.171338 -144.82672 
L 673.185135 -148.908363 
L 676.198931 -150.559105 
L 679.212727 -150.614619 
L 679.212727 -178.332693 
L 679.212727 -178.332693 
L 676.198931 -169.630582 
L 673.185135 -160.029577 
L 670.171338 -151.504736 
L 667.157542 -142.280831 
z
" id="m3e97611378" style="stroke:#00ffff;stroke-opacity:0.2;"/>
    </defs>
    <g clip-path="url(#pd701c6d93e)">
     <use style="fill:#00ffff;fill-opacity:0.2;stroke:#00ffff;stroke-opacity:0.2;" x="0" xlink:href="#m3e97611378" y="576"/>
    </g>
   </g>
   <g id="matplotlib.axis_3">
    <g id="xtick_6">
     <g id="line2d_14">
      <g>
       <use style="fill:#ffffff;stroke:#ffffff;stroke-width:0.8;" x="79.467273" xlink:href="#m1ea3cfdd14" y="486.41452"/>
      </g>
     </g>
     <g id="text_11">
      <!-- 2020-03-16 -->
      <defs>
       <path d="M 33.015625 40.375 
Q 26.375 40.375 22.484375 35.828125 
Q 18.609375 31.296875 18.609375 23.390625 
Q 18.609375 15.53125 22.484375 10.953125 
Q 26.375 6.390625 33.015625 6.390625 
Q 39.65625 6.390625 43.53125 10.953125 
Q 47.40625 15.53125 47.40625 23.390625 
Q 47.40625 31.296875 43.53125 35.828125 
Q 39.65625 40.375 33.015625 40.375 
z
M 52.59375 71.296875 
L 52.59375 62.3125 
Q 48.875 64.0625 45.09375 64.984375 
Q 41.3125 65.921875 37.59375 65.921875 
Q 27.828125 65.921875 22.671875 59.328125 
Q 17.53125 52.734375 16.796875 39.40625 
Q 19.671875 43.65625 24.015625 45.921875 
Q 28.375 48.1875 33.59375 48.1875 
Q 44.578125 48.1875 50.953125 41.515625 
Q 57.328125 34.859375 57.328125 23.390625 
Q 57.328125 12.15625 50.6875 5.359375 
Q 44.046875 -1.421875 33.015625 -1.421875 
Q 20.359375 -1.421875 13.671875 8.265625 
Q 6.984375 17.96875 6.984375 36.375 
Q 6.984375 53.65625 15.1875 63.9375 
Q 23.390625 74.21875 37.203125 74.21875 
Q 40.921875 74.21875 44.703125 73.484375 
Q 48.484375 72.75 52.59375 71.296875 
z
" id="DejaVuSans-54"/>
      </defs>
      <g style="fill:#ffffff;" transform="translate(51.573567 563.114808)rotate(-45)scale(0.15 -0.15)">
       <use xlink:href="#DejaVuSans-50"/>
       <use x="63.623047" xlink:href="#DejaVuSans-48"/>
       <use x="127.246094" xlink:href="#DejaVuSans-50"/>
       <use x="190.869141" xlink:href="#DejaVuSans-48"/>
       <use x="254.492188" xlink:href="#DejaVuSans-45"/>
       <use x="290.576172" xlink:href="#DejaVuSans-48"/>
       <use x="354.199219" xlink:href="#DejaVuSans-51"/>
       <use x="417.822266" xlink:href="#DejaVuSans-45"/>
       <use x="453.90625" xlink:href="#DejaVuSans-49"/>
       <use x="517.529297" xlink:href="#DejaVuSans-54"/>
      </g>
     </g>
    </g>
    <g id="xtick_7">
     <g id="line2d_15">
      <g>
       <use style="fill:#ffffff;stroke:#ffffff;stroke-width:0.8;" x="151.798383" xlink:href="#m1ea3cfdd14" y="486.41452"/>
      </g>
     </g>
     <g id="text_12">
      <!-- 2020-03-17 -->
      <defs>
       <path d="M 8.203125 72.90625 
L 55.078125 72.90625 
L 55.078125 68.703125 
L 28.609375 0 
L 18.3125 0 
L 43.21875 64.59375 
L 8.203125 64.59375 
z
" id="DejaVuSans-55"/>
      </defs>
      <g style="fill:#ffffff;" transform="translate(123.904678 563.114808)rotate(-45)scale(0.15 -0.15)">
       <use xlink:href="#DejaVuSans-50"/>
       <use x="63.623047" xlink:href="#DejaVuSans-48"/>
       <use x="127.246094" xlink:href="#DejaVuSans-50"/>
       <use x="190.869141" xlink:href="#DejaVuSans-48"/>
       <use x="254.492188" xlink:href="#DejaVuSans-45"/>
       <use x="290.576172" xlink:href="#DejaVuSans-48"/>
       <use x="354.199219" xlink:href="#DejaVuSans-51"/>
       <use x="417.822266" xlink:href="#DejaVuSans-45"/>
       <use x="453.90625" xlink:href="#DejaVuSans-49"/>
       <use x="517.529297" xlink:href="#DejaVuSans-55"/>
      </g>
     </g>
    </g>
    <g id="xtick_8">
     <g id="line2d_16">
      <g>
       <use style="fill:#ffffff;stroke:#ffffff;stroke-width:0.8;" x="224.129493" xlink:href="#m1ea3cfdd14" y="486.41452"/>
      </g>
     </g>
     <g id="text_13">
      <!-- 2020-03-18 -->
      <defs>
       <path d="M 31.78125 34.625 
Q 24.75 34.625 20.71875 30.859375 
Q 16.703125 27.09375 16.703125 20.515625 
Q 16.703125 13.921875 20.71875 10.15625 
Q 24.75 6.390625 31.78125 6.390625 
Q 38.8125 6.390625 42.859375 10.171875 
Q 46.921875 13.96875 46.921875 20.515625 
Q 46.921875 27.09375 42.890625 30.859375 
Q 38.875 34.625 31.78125 34.625 
z
M 21.921875 38.8125 
Q 15.578125 40.375 12.03125 44.71875 
Q 8.5 49.078125 8.5 55.328125 
Q 8.5 64.0625 14.71875 69.140625 
Q 20.953125 74.21875 31.78125 74.21875 
Q 42.671875 74.21875 48.875 69.140625 
Q 55.078125 64.0625 55.078125 55.328125 
Q 55.078125 49.078125 51.53125 44.71875 
Q 48 40.375 41.703125 38.8125 
Q 48.828125 37.15625 52.796875 32.3125 
Q 56.78125 27.484375 56.78125 20.515625 
Q 56.78125 9.90625 50.3125 4.234375 
Q 43.84375 -1.421875 31.78125 -1.421875 
Q 19.734375 -1.421875 13.25 4.234375 
Q 6.78125 9.90625 6.78125 20.515625 
Q 6.78125 27.484375 10.78125 32.3125 
Q 14.796875 37.15625 21.921875 38.8125 
z
M 18.3125 54.390625 
Q 18.3125 48.734375 21.84375 45.5625 
Q 25.390625 42.390625 31.78125 42.390625 
Q 38.140625 42.390625 41.71875 45.5625 
Q 45.3125 48.734375 45.3125 54.390625 
Q 45.3125 60.0625 41.71875 63.234375 
Q 38.140625 66.40625 31.78125 66.40625 
Q 25.390625 66.40625 21.84375 63.234375 
Q 18.3125 60.0625 18.3125 54.390625 
z
" id="DejaVuSans-56"/>
      </defs>
      <g style="fill:#ffffff;" transform="translate(196.235788 563.114808)rotate(-45)scale(0.15 -0.15)">
       <use xlink:href="#DejaVuSans-50"/>
       <use x="63.623047" xlink:href="#DejaVuSans-48"/>
       <use x="127.246094" xlink:href="#DejaVuSans-50"/>
       <use x="190.869141" xlink:href="#DejaVuSans-48"/>
       <use x="254.492188" xlink:href="#DejaVuSans-45"/>
       <use x="290.576172" xlink:href="#DejaVuSans-48"/>
       <use x="354.199219" xlink:href="#DejaVuSans-51"/>
       <use x="417.822266" xlink:href="#DejaVuSans-45"/>
       <use x="453.90625" xlink:href="#DejaVuSans-49"/>
       <use x="517.529297" xlink:href="#DejaVuSans-56"/>
      </g>
     </g>
    </g>
    <g id="xtick_9">
     <g id="line2d_17">
      <g>
       <use style="fill:#ffffff;stroke:#ffffff;stroke-width:0.8;" x="296.460603" xlink:href="#m1ea3cfdd14" y="486.41452"/>
      </g>
     </g>
     <g id="text_14">
      <!-- 2020-03-19 -->
      <defs>
       <path d="M 10.984375 1.515625 
L 10.984375 10.5 
Q 14.703125 8.734375 18.5 7.8125 
Q 22.3125 6.890625 25.984375 6.890625 
Q 35.75 6.890625 40.890625 13.453125 
Q 46.046875 20.015625 46.78125 33.40625 
Q 43.953125 29.203125 39.59375 26.953125 
Q 35.25 24.703125 29.984375 24.703125 
Q 19.046875 24.703125 12.671875 31.3125 
Q 6.296875 37.9375 6.296875 49.421875 
Q 6.296875 60.640625 12.9375 67.421875 
Q 19.578125 74.21875 30.609375 74.21875 
Q 43.265625 74.21875 49.921875 64.515625 
Q 56.59375 54.828125 56.59375 36.375 
Q 56.59375 19.140625 48.40625 8.859375 
Q 40.234375 -1.421875 26.421875 -1.421875 
Q 22.703125 -1.421875 18.890625 -0.6875 
Q 15.09375 0.046875 10.984375 1.515625 
z
M 30.609375 32.421875 
Q 37.25 32.421875 41.125 36.953125 
Q 45.015625 41.5 45.015625 49.421875 
Q 45.015625 57.28125 41.125 61.84375 
Q 37.25 66.40625 30.609375 66.40625 
Q 23.96875 66.40625 20.09375 61.84375 
Q 16.21875 57.28125 16.21875 49.421875 
Q 16.21875 41.5 20.09375 36.953125 
Q 23.96875 32.421875 30.609375 32.421875 
z
" id="DejaVuSans-57"/>
      </defs>
      <g style="fill:#ffffff;" transform="translate(268.566898 563.114808)rotate(-45)scale(0.15 -0.15)">
       <use xlink:href="#DejaVuSans-50"/>
       <use x="63.623047" xlink:href="#DejaVuSans-48"/>
       <use x="127.246094" xlink:href="#DejaVuSans-50"/>
       <use x="190.869141" xlink:href="#DejaVuSans-48"/>
       <use x="254.492188" xlink:href="#DejaVuSans-45"/>
       <use x="290.576172" xlink:href="#DejaVuSans-48"/>
       <use x="354.199219" xlink:href="#DejaVuSans-51"/>
       <use x="417.822266" xlink:href="#DejaVuSans-45"/>
       <use x="453.90625" xlink:href="#DejaVuSans-49"/>
       <use x="517.529297" xlink:href="#DejaVuSans-57"/>
      </g>
     </g>
    </g>
    <g id="xtick_10">
     <g id="line2d_18">
      <g>
       <use style="fill:#ffffff;stroke:#ffffff;stroke-width:0.8;" x="368.791713" xlink:href="#m1ea3cfdd14" y="486.41452"/>
      </g>
     </g>
     <g id="text_15">
      <!-- 2020-03-20 -->
      <g style="fill:#ffffff;" transform="translate(340.898008 563.114808)rotate(-45)scale(0.15 -0.15)">
       <use xlink:href="#DejaVuSans-50"/>
       <use x="63.623047" xlink:href="#DejaVuSans-48"/>
       <use x="127.246094" xlink:href="#DejaVuSans-50"/>
       <use x="190.869141" xlink:href="#DejaVuSans-48"/>
       <use x="254.492188" xlink:href="#DejaVuSans-45"/>
       <use x="290.576172" xlink:href="#DejaVuSans-48"/>
       <use x="354.199219" xlink:href="#DejaVuSans-51"/>
       <use x="417.822266" xlink:href="#DejaVuSans-45"/>
       <use x="453.90625" xlink:href="#DejaVuSans-50"/>
       <use x="517.529297" xlink:href="#DejaVuSans-48"/>
      </g>
     </g>
    </g>
    <g id="xtick_11">
     <g id="line2d_19">
      <g>
       <use style="fill:#ffffff;stroke:#ffffff;stroke-width:0.8;" x="441.122823" xlink:href="#m1ea3cfdd14" y="486.41452"/>
      </g>
     </g>
     <g id="text_16">
      <!-- 2020-03-21 -->
      <g style="fill:#ffffff;" transform="translate(413.229118 563.114808)rotate(-45)scale(0.15 -0.15)">
       <use xlink:href="#DejaVuSans-50"/>
       <use x="63.623047" xlink:href="#DejaVuSans-48"/>
       <use x="127.246094" xlink:href="#DejaVuSans-50"/>
       <use x="190.869141" xlink:href="#DejaVuSans-48"/>
       <use x="254.492188" xlink:href="#DejaVuSans-45"/>
       <use x="290.576172" xlink:href="#DejaVuSans-48"/>
       <use x="354.199219" xlink:href="#DejaVuSans-51"/>
       <use x="417.822266" xlink:href="#DejaVuSans-45"/>
       <use x="453.90625" xlink:href="#DejaVuSans-50"/>
       <use x="517.529297" xlink:href="#DejaVuSans-49"/>
      </g>
     </g>
    </g>
    <g id="xtick_12">
     <g id="line2d_20">
      <g>
       <use style="fill:#ffffff;stroke:#ffffff;stroke-width:0.8;" x="513.453933" xlink:href="#m1ea3cfdd14" y="486.41452"/>
      </g>
     </g>
     <g id="text_17">
      <!-- 2020-03-22 -->
      <g style="fill:#ffffff;" transform="translate(485.560228 563.114808)rotate(-45)scale(0.15 -0.15)">
       <use xlink:href="#DejaVuSans-50"/>
       <use x="63.623047" xlink:href="#DejaVuSans-48"/>
       <use x="127.246094" xlink:href="#DejaVuSans-50"/>
       <use x="190.869141" xlink:href="#DejaVuSans-48"/>
       <use x="254.492188" xlink:href="#DejaVuSans-45"/>
       <use x="290.576172" xlink:href="#DejaVuSans-48"/>
       <use x="354.199219" xlink:href="#DejaVuSans-51"/>
       <use x="417.822266" xlink:href="#DejaVuSans-45"/>
       <use x="453.90625" xlink:href="#DejaVuSans-50"/>
       <use x="517.529297" xlink:href="#DejaVuSans-50"/>
      </g>
     </g>
    </g>
    <g id="xtick_13">
     <g id="line2d_21">
      <g>
       <use style="fill:#ffffff;stroke:#ffffff;stroke-width:0.8;" x="585.785043" xlink:href="#m1ea3cfdd14" y="486.41452"/>
      </g>
     </g>
     <g id="text_18">
      <!-- 2020-03-23 -->
      <g style="fill:#ffffff;" transform="translate(557.891338 563.114808)rotate(-45)scale(0.15 -0.15)">
       <use xlink:href="#DejaVuSans-50"/>
       <use x="63.623047" xlink:href="#DejaVuSans-48"/>
       <use x="127.246094" xlink:href="#DejaVuSans-50"/>
       <use x="190.869141" xlink:href="#DejaVuSans-48"/>
       <use x="254.492188" xlink:href="#DejaVuSans-45"/>
       <use x="290.576172" xlink:href="#DejaVuSans-48"/>
       <use x="354.199219" xlink:href="#DejaVuSans-51"/>
       <use x="417.822266" xlink:href="#DejaVuSans-45"/>
       <use x="453.90625" xlink:href="#DejaVuSans-50"/>
       <use x="517.529297" xlink:href="#DejaVuSans-51"/>
      </g>
     </g>
    </g>
    <g id="xtick_14">
     <g id="line2d_22">
      <g>
       <use style="fill:#ffffff;stroke:#ffffff;stroke-width:0.8;" x="658.116153" xlink:href="#m1ea3cfdd14" y="486.41452"/>
      </g>
     </g>
     <g id="text_19">
      <!-- 2020-03-24 -->
      <defs>
       <path d="M 37.796875 64.3125 
L 12.890625 25.390625 
L 37.796875 25.390625 
z
M 35.203125 72.90625 
L 47.609375 72.90625 
L 47.609375 25.390625 
L 58.015625 25.390625 
L 58.015625 17.1875 
L 47.609375 17.1875 
L 47.609375 0 
L 37.796875 0 
L 37.796875 17.1875 
L 4.890625 17.1875 
L 4.890625 26.703125 
z
" id="DejaVuSans-52"/>
      </defs>
      <g style="fill:#ffffff;" transform="translate(630.222448 563.114808)rotate(-45)scale(0.15 -0.15)">
       <use xlink:href="#DejaVuSans-50"/>
       <use x="63.623047" xlink:href="#DejaVuSans-48"/>
       <use x="127.246094" xlink:href="#DejaVuSans-50"/>
       <use x="190.869141" xlink:href="#DejaVuSans-48"/>
       <use x="254.492188" xlink:href="#DejaVuSans-45"/>
       <use x="290.576172" xlink:href="#DejaVuSans-48"/>
       <use x="354.199219" xlink:href="#DejaVuSans-51"/>
       <use x="417.822266" xlink:href="#DejaVuSans-45"/>
       <use x="453.90625" xlink:href="#DejaVuSans-50"/>
       <use x="517.529297" xlink:href="#DejaVuSans-52"/>
      </g>
     </g>
    </g>
   </g>
   <g id="matplotlib.axis_4">
    <g id="ytick_6">
     <g id="line2d_23">
      <g>
       <use style="fill:#ffffff;stroke:#ffffff;stroke-width:0.8;" x="49.48" xlink:href="#mdea3bb4bdb" y="467.497094"/>
      </g>
     </g>
     <g id="text_20">
      <!-- −10 -->
      <g style="fill:#ffffff;" transform="translate(10.822969 473.195922)scale(0.15 -0.15)">
       <use xlink:href="#DejaVuSans-8722"/>
       <use x="83.789062" xlink:href="#DejaVuSans-49"/>
       <use x="147.412109" xlink:href="#DejaVuSans-48"/>
      </g>
     </g>
    </g>
    <g id="ytick_7">
     <g id="line2d_24">
      <g>
       <use style="fill:#ffffff;stroke:#ffffff;stroke-width:0.8;" x="49.48" xlink:href="#mdea3bb4bdb" y="431.688529"/>
      </g>
     </g>
     <g id="text_21">
      <!-- −5 -->
      <g style="fill:#ffffff;" transform="translate(20.366719 437.387358)scale(0.15 -0.15)">
       <use xlink:href="#DejaVuSans-8722"/>
       <use x="83.789062" xlink:href="#DejaVuSans-53"/>
      </g>
     </g>
    </g>
    <g id="ytick_8">
     <g id="line2d_25">
      <g>
       <use style="fill:#ffffff;stroke:#ffffff;stroke-width:0.8;" x="49.48" xlink:href="#mdea3bb4bdb" y="395.879965"/>
      </g>
     </g>
     <g id="text_22">
      <!-- 0 -->
      <g style="fill:#ffffff;" transform="translate(32.93625 401.578793)scale(0.15 -0.15)">
       <use xlink:href="#DejaVuSans-48"/>
      </g>
     </g>
    </g>
    <g id="ytick_9">
     <g id="line2d_26">
      <g>
       <use style="fill:#ffffff;stroke:#ffffff;stroke-width:0.8;" x="49.48" xlink:href="#mdea3bb4bdb" y="360.0714"/>
      </g>
     </g>
     <g id="text_23">
      <!-- 5 -->
      <g style="fill:#ffffff;" transform="translate(32.93625 365.770228)scale(0.15 -0.15)">
       <use xlink:href="#DejaVuSans-53"/>
      </g>
     </g>
    </g>
    <g id="ytick_10">
     <g id="line2d_27">
      <g>
       <use style="fill:#ffffff;stroke:#ffffff;stroke-width:0.8;" x="49.48" xlink:href="#mdea3bb4bdb" y="324.262835"/>
      </g>
     </g>
     <g id="text_24">
      <!-- 10 -->
      <g style="fill:#ffffff;" transform="translate(23.3925 329.961663)scale(0.15 -0.15)">
       <use xlink:href="#DejaVuSans-49"/>
       <use x="63.623047" xlink:href="#DejaVuSans-48"/>
      </g>
     </g>
    </g>
   </g>
   <g id="line2d_28">
    <path clip-path="url(#pd701c6d93e)" d="M 667.157542 439.014938 
L 670.171338 428.684893 
L 673.185135 415.85257 
L 676.198931 404.262252 
L 679.212727 397.726442 
" style="fill:none;stroke:#0000ff;stroke-linecap:square;stroke-width:1.5;"/>
   </g>
   <g id="line2d_29">
    <path clip-path="url(#pd701c6d93e)" d="M 79.467273 390.75749 
L 85.494865 376.565207 
L 88.508661 370.112162 
L 91.522458 364.340021 
L 94.536254 359.342714 
L 97.55005 355.243743 
L 100.563846 352.189115 
L 103.577643 350.232455 
L 106.591439 349.338732 
L 109.605235 349.497421 
L 112.619032 350.716599 
L 115.632828 352.910824 
L 118.646624 355.913335 
L 121.66042 359.595837 
L 124.674217 363.862931 
L 130.701809 373.399451 
L 136.729402 383.042891 
L 139.743198 387.552575 
L 142.756994 391.600075 
L 145.77079 395.07769 
L 148.784587 397.954324 
L 151.798383 400.158011 
L 154.812179 401.598691 
L 157.825975 402.290543 
L 160.839772 402.328587 
L 163.853568 401.764484 
L 166.867364 400.628886 
L 169.88116 399.051182 
L 175.908753 395.290454 
L 178.922549 393.333362 
L 181.936345 391.528961 
L 184.950142 390.091426 
L 187.963938 389.143614 
L 190.977734 388.745549 
L 193.99153 389.016692 
L 197.005327 390.094826 
L 200.019123 392.004139 
L 203.032919 394.691984 
L 206.046715 398.157071 
L 209.060512 402.407832 
L 212.074308 407.333312 
L 215.088104 412.749839 
L 218.1019 418.535887 
L 227.143289 436.615786 
L 230.157085 442.156277 
L 233.170882 447.195834 
L 236.184678 451.521198 
L 239.198474 454.896078 
L 242.21227 457.202172 
L 245.226067 458.386645 
L 248.239863 458.330632 
L 251.253659 456.913408 
L 254.267455 454.151468 
L 257.281252 450.135824 
L 260.295048 444.894004 
L 263.308844 438.455281 
L 266.32264 430.986547 
L 269.336437 422.718554 
L 272.350233 413.801509 
L 278.377825 394.689112 
L 284.405418 375.631694 
L 287.419214 366.589991 
L 290.43301 358.167121 
L 293.446807 350.616683 
L 296.460603 344.052415 
L 299.474399 338.530235 
L 302.488196 334.188629 
L 305.501992 331.156195 
L 308.515788 329.405869 
L 311.529584 328.848937 
L 314.543381 329.482003 
L 317.557177 331.292013 
L 320.570973 334.113576 
L 323.584769 337.735081 
L 326.598566 342.051328 
L 329.612362 346.964083 
L 338.653751 363.013781 
L 341.667547 368.309555 
L 344.681343 373.314513 
L 347.695139 377.834711 
L 350.708936 381.838077 
L 353.722732 385.334744 
L 356.736528 388.227442 
L 359.750324 390.439029 
L 362.764121 392.063863 
L 365.777917 393.234136 
L 368.791713 393.96399 
L 371.805509 394.282159 
L 380.846898 394.609936 
L 383.860694 394.866042 
L 386.874491 395.443812 
L 389.888287 396.537855 
L 392.902083 398.168951 
L 395.915879 400.336916 
L 398.929676 403.173488 
L 401.943472 406.775981 
L 404.957268 411.047772 
L 407.971064 415.86692 
L 410.984861 421.245154 
L 413.998657 427.154188 
L 426.053842 452.089593 
L 429.067638 457.836086 
L 432.081434 462.898374 
L 435.095231 467.190564 
L 438.109027 470.618201 
L 441.122823 472.922052 
L 444.136619 473.893684 
L 447.150416 473.543677 
L 450.164212 471.88791 
L 453.178008 468.786287 
L 456.191804 464.170218 
L 459.205601 458.208028 
L 462.219397 451.069775 
L 465.233193 442.759231 
L 468.246989 433.353768 
L 471.260786 423.166714 
L 477.288378 401.417472 
L 483.315971 378.933038 
L 486.329767 368.216358 
L 489.343563 358.040155 
L 492.35736 348.530458 
L 495.371156 340.020142 
L 498.384952 332.748555 
L 501.398748 326.685546 
L 504.412545 321.835721 
L 507.426341 318.409412 
L 510.440137 316.501677 
L 513.453933 315.918842 
L 516.46773 316.514479 
L 519.481526 318.367785 
L 522.495322 321.438841 
L 525.509118 325.39688 
L 528.522915 329.990505 
L 531.536711 335.23209 
L 540.5781 352.841333 
L 546.605692 364.363288 
L 549.619488 369.625767 
L 552.633285 374.261844 
L 555.647081 378.439431 
L 558.660877 382.21291 
L 561.674673 385.335316 
L 564.68847 387.745739 
L 567.702266 389.757821 
L 570.716062 391.540451 
L 573.729858 392.919815 
L 579.757451 394.959317 
L 585.785043 397.624976 
L 588.79884 399.094746 
L 591.812636 401.099471 
L 594.826432 403.818282 
L 597.840228 406.957624 
L 600.854025 410.45593 
L 603.867821 414.700427 
L 606.881617 419.762624 
L 612.90921 430.733412 
L 615.923006 436.788374 
L 621.950598 449.603541 
L 627.978191 461.107218 
L 630.991987 466.593181 
L 634.005783 471.073946 
L 637.01958 474.248719 
L 640.033376 476.656512 
L 643.047172 478.295678 
L 646.060968 478.247175 
L 649.074765 476.276646 
L 652.088561 473.298426 
L 655.102357 469.496482 
L 658.116153 463.734262 
L 661.12995 455.836239 
L 664.143746 447.420529 
L 664.143746 447.420529 
" style="fill:none;stroke:#00ff00;stroke-linecap:square;stroke-width:1.5;"/>
   </g>
   <g id="line2d_30">
    <path clip-path="url(#pd701c6d93e)" d="M 667.157542 435.540027 
L 670.171338 427.83427 
L 673.185135 421.53103 
L 676.198931 415.905155 
L 679.212727 411.526344 
" style="fill:none;stroke:#00ffff;stroke-linecap:square;stroke-width:1.5;"/>
   </g>
   <g id="patch_8">
    <path d="M 49.48 486.41452 
L 49.48 307.8 
" style="fill:none;stroke:#ffffff;stroke-linecap:square;stroke-linejoin:miter;stroke-width:0.8;"/>
   </g>
   <g id="patch_9">
    <path d="M 709.2 486.41452 
L 709.2 307.8 
" style="fill:none;stroke:#ffffff;stroke-linecap:square;stroke-linejoin:miter;stroke-width:0.8;"/>
   </g>
   <g id="patch_10">
    <path d="M 49.48 486.41452 
L 709.2 486.41452 
" style="fill:none;stroke:#ffffff;stroke-linecap:square;stroke-linejoin:miter;stroke-width:0.8;"/>
   </g>
   <g id="patch_11">
    <path d="M 49.48 307.8 
L 709.2 307.8 
" style="fill:none;stroke:#ffffff;stroke-linecap:square;stroke-linejoin:miter;stroke-width:0.8;"/>
   </g>
  </g>
  <g id="text_25">
   <!-- High Frequency Time Series Forecasting -->
   <defs>
    <path d="M 9.8125 72.90625 
L 19.671875 72.90625 
L 19.671875 43.015625 
L 55.515625 43.015625 
L 55.515625 72.90625 
L 65.375 72.90625 
L 65.375 0 
L 55.515625 0 
L 55.515625 34.71875 
L 19.671875 34.71875 
L 19.671875 0 
L 9.8125 0 
z
" id="DejaVuSans-72"/>
    <path d="M 9.421875 54.6875 
L 18.40625 54.6875 
L 18.40625 0 
L 9.421875 0 
z
M 9.421875 75.984375 
L 18.40625 75.984375 
L 18.40625 64.59375 
L 9.421875 64.59375 
z
" id="DejaVuSans-105"/>
    <path d="M 45.40625 27.984375 
Q 45.40625 37.75 41.375 43.109375 
Q 37.359375 48.484375 30.078125 48.484375 
Q 22.859375 48.484375 18.828125 43.109375 
Q 14.796875 37.75 14.796875 27.984375 
Q 14.796875 18.265625 18.828125 12.890625 
Q 22.859375 7.515625 30.078125 7.515625 
Q 37.359375 7.515625 41.375 12.890625 
Q 45.40625 18.265625 45.40625 27.984375 
z
M 54.390625 6.78125 
Q 54.390625 -7.171875 48.1875 -13.984375 
Q 42 -20.796875 29.203125 -20.796875 
Q 24.46875 -20.796875 20.265625 -20.09375 
Q 16.0625 -19.390625 12.109375 -17.921875 
L 12.109375 -9.1875 
Q 16.0625 -11.328125 19.921875 -12.34375 
Q 23.78125 -13.375 27.78125 -13.375 
Q 36.625 -13.375 41.015625 -8.765625 
Q 45.40625 -4.15625 45.40625 5.171875 
L 45.40625 9.625 
Q 42.625 4.78125 38.28125 2.390625 
Q 33.9375 0 27.875 0 
Q 17.828125 0 11.671875 7.65625 
Q 5.515625 15.328125 5.515625 27.984375 
Q 5.515625 40.671875 11.671875 48.328125 
Q 17.828125 56 27.875 56 
Q 33.9375 56 38.28125 53.609375 
Q 42.625 51.21875 45.40625 46.390625 
L 45.40625 54.6875 
L 54.390625 54.6875 
z
" id="DejaVuSans-103"/>
    <path d="M 54.890625 33.015625 
L 54.890625 0 
L 45.90625 0 
L 45.90625 32.71875 
Q 45.90625 40.484375 42.875 44.328125 
Q 39.84375 48.1875 33.796875 48.1875 
Q 26.515625 48.1875 22.3125 43.546875 
Q 18.109375 38.921875 18.109375 30.90625 
L 18.109375 0 
L 9.078125 0 
L 9.078125 75.984375 
L 18.109375 75.984375 
L 18.109375 46.1875 
Q 21.34375 51.125 25.703125 53.5625 
Q 30.078125 56 35.796875 56 
Q 45.21875 56 50.046875 50.171875 
Q 54.890625 44.34375 54.890625 33.015625 
z
" id="DejaVuSans-104"/>
    <path id="DejaVuSans-32"/>
    <path d="M 9.8125 72.90625 
L 51.703125 72.90625 
L 51.703125 64.59375 
L 19.671875 64.59375 
L 19.671875 43.109375 
L 48.578125 43.109375 
L 48.578125 34.8125 
L 19.671875 34.8125 
L 19.671875 0 
L 9.8125 0 
z
" id="DejaVuSans-70"/>
    <path d="M 41.109375 46.296875 
Q 39.59375 47.171875 37.8125 47.578125 
Q 36.03125 48 33.890625 48 
Q 26.265625 48 22.1875 43.046875 
Q 18.109375 38.09375 18.109375 28.8125 
L 18.109375 0 
L 9.078125 0 
L 9.078125 54.6875 
L 18.109375 54.6875 
L 18.109375 46.1875 
Q 20.953125 51.171875 25.484375 53.578125 
Q 30.03125 56 36.53125 56 
Q 37.453125 56 38.578125 55.875 
Q 39.703125 55.765625 41.0625 55.515625 
z
" id="DejaVuSans-114"/>
    <path d="M 56.203125 29.59375 
L 56.203125 25.203125 
L 14.890625 25.203125 
Q 15.484375 15.921875 20.484375 11.0625 
Q 25.484375 6.203125 34.421875 6.203125 
Q 39.59375 6.203125 44.453125 7.46875 
Q 49.3125 8.734375 54.109375 11.28125 
L 54.109375 2.78125 
Q 49.265625 0.734375 44.1875 -0.34375 
Q 39.109375 -1.421875 33.890625 -1.421875 
Q 20.796875 -1.421875 13.15625 6.1875 
Q 5.515625 13.8125 5.515625 26.8125 
Q 5.515625 40.234375 12.765625 48.109375 
Q 20.015625 56 32.328125 56 
Q 43.359375 56 49.78125 48.890625 
Q 56.203125 41.796875 56.203125 29.59375 
z
M 47.21875 32.234375 
Q 47.125 39.59375 43.09375 43.984375 
Q 39.0625 48.390625 32.421875 48.390625 
Q 24.90625 48.390625 20.390625 44.140625 
Q 15.875 39.890625 15.1875 32.171875 
z
" id="DejaVuSans-101"/>
    <path d="M 14.796875 27.296875 
Q 14.796875 17.390625 18.875 11.75 
Q 22.953125 6.109375 30.078125 6.109375 
Q 37.203125 6.109375 41.296875 11.75 
Q 45.40625 17.390625 45.40625 27.296875 
Q 45.40625 37.203125 41.296875 42.84375 
Q 37.203125 48.484375 30.078125 48.484375 
Q 22.953125 48.484375 18.875 42.84375 
Q 14.796875 37.203125 14.796875 27.296875 
z
M 45.40625 8.203125 
Q 42.578125 3.328125 38.25 0.953125 
Q 33.9375 -1.421875 27.875 -1.421875 
Q 17.96875 -1.421875 11.734375 6.484375 
Q 5.515625 14.40625 5.515625 27.296875 
Q 5.515625 40.1875 11.734375 48.09375 
Q 17.96875 56 27.875 56 
Q 33.9375 56 38.25 53.625 
Q 42.578125 51.265625 45.40625 46.390625 
L 45.40625 54.6875 
L 54.390625 54.6875 
L 54.390625 -20.796875 
L 45.40625 -20.796875 
z
" id="DejaVuSans-113"/>
    <path d="M 8.5 21.578125 
L 8.5 54.6875 
L 17.484375 54.6875 
L 17.484375 21.921875 
Q 17.484375 14.15625 20.5 10.265625 
Q 23.53125 6.390625 29.59375 6.390625 
Q 36.859375 6.390625 41.078125 11.03125 
Q 45.3125 15.671875 45.3125 23.6875 
L 45.3125 54.6875 
L 54.296875 54.6875 
L 54.296875 0 
L 45.3125 0 
L 45.3125 8.40625 
Q 42.046875 3.421875 37.71875 1 
Q 33.40625 -1.421875 27.6875 -1.421875 
Q 18.265625 -1.421875 13.375 4.4375 
Q 8.5 10.296875 8.5 21.578125 
z
M 31.109375 56 
z
" id="DejaVuSans-117"/>
    <path d="M 54.890625 33.015625 
L 54.890625 0 
L 45.90625 0 
L 45.90625 32.71875 
Q 45.90625 40.484375 42.875 44.328125 
Q 39.84375 48.1875 33.796875 48.1875 
Q 26.515625 48.1875 22.3125 43.546875 
Q 18.109375 38.921875 18.109375 30.90625 
L 18.109375 0 
L 9.078125 0 
L 9.078125 54.6875 
L 18.109375 54.6875 
L 18.109375 46.1875 
Q 21.34375 51.125 25.703125 53.5625 
Q 30.078125 56 35.796875 56 
Q 45.21875 56 50.046875 50.171875 
Q 54.890625 44.34375 54.890625 33.015625 
z
" id="DejaVuSans-110"/>
    <path d="M 48.78125 52.59375 
L 48.78125 44.1875 
Q 44.96875 46.296875 41.140625 47.34375 
Q 37.3125 48.390625 33.40625 48.390625 
Q 24.65625 48.390625 19.8125 42.84375 
Q 14.984375 37.3125 14.984375 27.296875 
Q 14.984375 17.28125 19.8125 11.734375 
Q 24.65625 6.203125 33.40625 6.203125 
Q 37.3125 6.203125 41.140625 7.25 
Q 44.96875 8.296875 48.78125 10.40625 
L 48.78125 2.09375 
Q 45.015625 0.34375 40.984375 -0.53125 
Q 36.96875 -1.421875 32.421875 -1.421875 
Q 20.0625 -1.421875 12.78125 6.34375 
Q 5.515625 14.109375 5.515625 27.296875 
Q 5.515625 40.671875 12.859375 48.328125 
Q 20.21875 56 33.015625 56 
Q 37.15625 56 41.109375 55.140625 
Q 45.0625 54.296875 48.78125 52.59375 
z
" id="DejaVuSans-99"/>
    <path d="M 32.171875 -5.078125 
Q 28.375 -14.84375 24.75 -17.8125 
Q 21.140625 -20.796875 15.09375 -20.796875 
L 7.90625 -20.796875 
L 7.90625 -13.28125 
L 13.1875 -13.28125 
Q 16.890625 -13.28125 18.9375 -11.515625 
Q 21 -9.765625 23.484375 -3.21875 
L 25.09375 0.875 
L 2.984375 54.6875 
L 12.5 54.6875 
L 29.59375 11.921875 
L 46.6875 54.6875 
L 56.203125 54.6875 
z
" id="DejaVuSans-121"/>
    <path d="M -0.296875 72.90625 
L 61.375 72.90625 
L 61.375 64.59375 
L 35.5 64.59375 
L 35.5 0 
L 25.59375 0 
L 25.59375 64.59375 
L -0.296875 64.59375 
z
" id="DejaVuSans-84"/>
    <path d="M 52 44.1875 
Q 55.375 50.25 60.0625 53.125 
Q 64.75 56 71.09375 56 
Q 79.640625 56 84.28125 50.015625 
Q 88.921875 44.046875 88.921875 33.015625 
L 88.921875 0 
L 79.890625 0 
L 79.890625 32.71875 
Q 79.890625 40.578125 77.09375 44.375 
Q 74.3125 48.1875 68.609375 48.1875 
Q 61.625 48.1875 57.5625 43.546875 
Q 53.515625 38.921875 53.515625 30.90625 
L 53.515625 0 
L 44.484375 0 
L 44.484375 32.71875 
Q 44.484375 40.625 41.703125 44.40625 
Q 38.921875 48.1875 33.109375 48.1875 
Q 26.21875 48.1875 22.15625 43.53125 
Q 18.109375 38.875 18.109375 30.90625 
L 18.109375 0 
L 9.078125 0 
L 9.078125 54.6875 
L 18.109375 54.6875 
L 18.109375 46.1875 
Q 21.1875 51.21875 25.484375 53.609375 
Q 29.78125 56 35.6875 56 
Q 41.65625 56 45.828125 52.96875 
Q 50 49.953125 52 44.1875 
z
" id="DejaVuSans-109"/>
    <path d="M 53.515625 70.515625 
L 53.515625 60.890625 
Q 47.90625 63.578125 42.921875 64.890625 
Q 37.9375 66.21875 33.296875 66.21875 
Q 25.25 66.21875 20.875 63.09375 
Q 16.5 59.96875 16.5 54.203125 
Q 16.5 49.359375 19.40625 46.890625 
Q 22.3125 44.4375 30.421875 42.921875 
L 36.375 41.703125 
Q 47.40625 39.59375 52.65625 34.296875 
Q 57.90625 29 57.90625 20.125 
Q 57.90625 9.515625 50.796875 4.046875 
Q 43.703125 -1.421875 29.984375 -1.421875 
Q 24.8125 -1.421875 18.96875 -0.25 
Q 13.140625 0.921875 6.890625 3.21875 
L 6.890625 13.375 
Q 12.890625 10.015625 18.65625 8.296875 
Q 24.421875 6.59375 29.984375 6.59375 
Q 38.421875 6.59375 43.015625 9.90625 
Q 47.609375 13.234375 47.609375 19.390625 
Q 47.609375 24.75 44.3125 27.78125 
Q 41.015625 30.8125 33.5 32.328125 
L 27.484375 33.5 
Q 16.453125 35.6875 11.515625 40.375 
Q 6.59375 45.0625 6.59375 53.421875 
Q 6.59375 63.09375 13.40625 68.65625 
Q 20.21875 74.21875 32.171875 74.21875 
Q 37.3125 74.21875 42.625 73.28125 
Q 47.953125 72.359375 53.515625 70.515625 
z
" id="DejaVuSans-83"/>
    <path d="M 44.28125 53.078125 
L 44.28125 44.578125 
Q 40.484375 46.53125 36.375 47.5 
Q 32.28125 48.484375 27.875 48.484375 
Q 21.1875 48.484375 17.84375 46.4375 
Q 14.5 44.390625 14.5 40.28125 
Q 14.5 37.15625 16.890625 35.375 
Q 19.28125 33.59375 26.515625 31.984375 
L 29.59375 31.296875 
Q 39.15625 29.25 43.1875 25.515625 
Q 47.21875 21.78125 47.21875 15.09375 
Q 47.21875 7.46875 41.1875 3.015625 
Q 35.15625 -1.421875 24.609375 -1.421875 
Q 20.21875 -1.421875 15.453125 -0.5625 
Q 10.6875 0.296875 5.421875 2 
L 5.421875 11.28125 
Q 10.40625 8.6875 15.234375 7.390625 
Q 20.0625 6.109375 24.8125 6.109375 
Q 31.15625 6.109375 34.5625 8.28125 
Q 37.984375 10.453125 37.984375 14.40625 
Q 37.984375 18.0625 35.515625 20.015625 
Q 33.0625 21.96875 24.703125 23.78125 
L 21.578125 24.515625 
Q 13.234375 26.265625 9.515625 29.90625 
Q 5.8125 33.546875 5.8125 39.890625 
Q 5.8125 47.609375 11.28125 51.796875 
Q 16.75 56 26.8125 56 
Q 31.78125 56 36.171875 55.265625 
Q 40.578125 54.546875 44.28125 53.078125 
z
" id="DejaVuSans-115"/>
    <path d="M 30.609375 48.390625 
Q 23.390625 48.390625 19.1875 42.75 
Q 14.984375 37.109375 14.984375 27.296875 
Q 14.984375 17.484375 19.15625 11.84375 
Q 23.34375 6.203125 30.609375 6.203125 
Q 37.796875 6.203125 41.984375 11.859375 
Q 46.1875 17.53125 46.1875 27.296875 
Q 46.1875 37.015625 41.984375 42.703125 
Q 37.796875 48.390625 30.609375 48.390625 
z
M 30.609375 56 
Q 42.328125 56 49.015625 48.375 
Q 55.71875 40.765625 55.71875 27.296875 
Q 55.71875 13.875 49.015625 6.21875 
Q 42.328125 -1.421875 30.609375 -1.421875 
Q 18.84375 -1.421875 12.171875 6.21875 
Q 5.515625 13.875 5.515625 27.296875 
Q 5.515625 40.765625 12.171875 48.375 
Q 18.84375 56 30.609375 56 
z
" id="DejaVuSans-111"/>
    <path d="M 34.28125 27.484375 
Q 23.390625 27.484375 19.1875 25 
Q 14.984375 22.515625 14.984375 16.5 
Q 14.984375 11.71875 18.140625 8.90625 
Q 21.296875 6.109375 26.703125 6.109375 
Q 34.1875 6.109375 38.703125 11.40625 
Q 43.21875 16.703125 43.21875 25.484375 
L 43.21875 27.484375 
z
M 52.203125 31.203125 
L 52.203125 0 
L 43.21875 0 
L 43.21875 8.296875 
Q 40.140625 3.328125 35.546875 0.953125 
Q 30.953125 -1.421875 24.3125 -1.421875 
Q 15.921875 -1.421875 10.953125 3.296875 
Q 6 8.015625 6 15.921875 
Q 6 25.140625 12.171875 29.828125 
Q 18.359375 34.515625 30.609375 34.515625 
L 43.21875 34.515625 
L 43.21875 35.40625 
Q 43.21875 41.609375 39.140625 45 
Q 35.0625 48.390625 27.6875 48.390625 
Q 23 48.390625 18.546875 47.265625 
Q 14.109375 46.140625 10.015625 43.890625 
L 10.015625 52.203125 
Q 14.9375 54.109375 19.578125 55.046875 
Q 24.21875 56 28.609375 56 
Q 40.484375 56 46.34375 49.84375 
Q 52.203125 43.703125 52.203125 31.203125 
z
" id="DejaVuSans-97"/>
    <path d="M 18.3125 70.21875 
L 18.3125 54.6875 
L 36.8125 54.6875 
L 36.8125 47.703125 
L 18.3125 47.703125 
L 18.3125 18.015625 
Q 18.3125 11.328125 20.140625 9.421875 
Q 21.96875 7.515625 27.59375 7.515625 
L 36.8125 7.515625 
L 36.8125 0 
L 27.59375 0 
Q 17.1875 0 13.234375 3.875 
Q 9.28125 7.765625 9.28125 18.015625 
L 9.28125 47.703125 
L 2.6875 47.703125 
L 2.6875 54.6875 
L 9.28125 54.6875 
L 9.28125 70.21875 
z
" id="DejaVuSans-116"/>
   </defs>
   <g style="fill:#ffffff;" transform="translate(157.832812 26.716875)scale(0.2 -0.2)">
    <use xlink:href="#DejaVuSans-72"/>
    <use x="75.195312" xlink:href="#DejaVuSans-105"/>
    <use x="102.978516" xlink:href="#DejaVuSans-103"/>
    <use x="166.455078" xlink:href="#DejaVuSans-104"/>
    <use x="229.833984" xlink:href="#DejaVuSans-32"/>
    <use x="261.621094" xlink:href="#DejaVuSans-70"/>
    <use x="319.03125" xlink:href="#DejaVuSans-114"/>
    <use x="360.113281" xlink:href="#DejaVuSans-101"/>
    <use x="421.636719" xlink:href="#DejaVuSans-113"/>
    <use x="485.113281" xlink:href="#DejaVuSans-117"/>
    <use x="548.492188" xlink:href="#DejaVuSans-101"/>
    <use x="610.015625" xlink:href="#DejaVuSans-110"/>
    <use x="673.394531" xlink:href="#DejaVuSans-99"/>
    <use x="728.375" xlink:href="#DejaVuSans-121"/>
    <use x="787.554688" xlink:href="#DejaVuSans-32"/>
    <use x="819.341797" xlink:href="#DejaVuSans-84"/>
    <use x="880.378906" xlink:href="#DejaVuSans-105"/>
    <use x="908.162109" xlink:href="#DejaVuSans-109"/>
    <use x="1005.574219" xlink:href="#DejaVuSans-101"/>
    <use x="1067.097656" xlink:href="#DejaVuSans-32"/>
    <use x="1098.884766" xlink:href="#DejaVuSans-83"/>
    <use x="1162.361328" xlink:href="#DejaVuSans-101"/>
    <use x="1223.884766" xlink:href="#DejaVuSans-114"/>
    <use x="1264.998047" xlink:href="#DejaVuSans-105"/>
    <use x="1292.78125" xlink:href="#DejaVuSans-101"/>
    <use x="1354.304688" xlink:href="#DejaVuSans-115"/>
    <use x="1406.404297" xlink:href="#DejaVuSans-32"/>
    <use x="1438.191406" xlink:href="#DejaVuSans-70"/>
    <use x="1495.664062" xlink:href="#DejaVuSans-111"/>
    <use x="1556.845703" xlink:href="#DejaVuSans-114"/>
    <use x="1597.927734" xlink:href="#DejaVuSans-101"/>
    <use x="1659.451172" xlink:href="#DejaVuSans-99"/>
    <use x="1714.431641" xlink:href="#DejaVuSans-97"/>
    <use x="1775.710938" xlink:href="#DejaVuSans-115"/>
    <use x="1827.810547" xlink:href="#DejaVuSans-116"/>
    <use x="1867.019531" xlink:href="#DejaVuSans-105"/>
    <use x="1894.802734" xlink:href="#DejaVuSans-110"/>
    <use x="1958.181641" xlink:href="#DejaVuSans-103"/>
   </g>
  </g>
 </g>
 <defs>
  <clipPath id="p898c525c91">
   <rect height="178.61452" width="659.72" x="49.48" y="39.6"/>
  </clipPath>
  <clipPath id="pd701c6d93e">
   <rect height="178.61452" width="659.72" x="49.48" y="307.8"/>
  </clipPath>
 </defs>
</svg>
