<?xml version="1.0" encoding="utf-8" standalone="no"?>
<!DOCTYPE svg PUBLIC "-//W3C//DTD SVG 1.1//EN"
  "http://www.w3.org/Graphics/SVG/1.1/DTD/svg11.dtd">
<!-- Created with matplotlib (https://matplotlib.org/) -->
<svg height="360pt" version="1.1" viewBox="0 0 936 360" width="936pt" xmlns="http://www.w3.org/2000/svg" xmlns:xlink="http://www.w3.org/1999/xlink">
 <defs>
  <style type="text/css">
*{stroke-linecap:butt;stroke-linejoin:round;}
  </style>
 </defs>
 <g id="figure_1">
  <g id="patch_1">
   <path d="M 0 360 
L 936 360 
L 936 0 
L 0 0 
z
" style="fill:#121212;"/>
  </g>
  <g id="axes_1">
   <g id="patch_2">
    <path d="M 58.34 139.12 
L 925.2 139.12 
L 925.2 10.8 
L 58.34 10.8 
z
" style="fill:#121212;"/>
   </g>
   <g id="matplotlib.axis_1">
    <g id="xtick_1">
     <g id="line2d_1">
      <path clip-path="url(#pd790709691)" d="M 97.742727 139.12 
L 97.742727 10.8 
" style="fill:none;stroke:#ffffff;stroke-linecap:square;stroke-opacity:0.2;stroke-width:0.8;"/>
     </g>
     <g id="line2d_2">
      <defs>
       <path d="M 0 0 
L 0 3.5 
" id="m708bacbcfd" style="stroke:#ffffff;stroke-width:0.8;"/>
      </defs>
      <g>
       <use style="fill:#ffffff;stroke:#ffffff;stroke-width:0.8;" x="97.742727" xlink:href="#m708bacbcfd" y="139.12"/>
      </g>
     </g>
     <g id="text_1">
      <!-- 0 -->
      <defs>
       <path d="M 31.78125 66.40625 
Q 24.171875 66.40625 20.328125 58.90625 
Q 16.5 51.421875 16.5 36.375 
Q 16.5 21.390625 20.328125 13.890625 
Q 24.171875 6.390625 31.78125 6.390625 
Q 39.453125 6.390625 43.28125 13.890625 
Q 47.125 21.390625 47.125 36.375 
Q 47.125 51.421875 43.28125 58.90625 
Q 39.453125 66.40625 31.78125 66.40625 
z
M 31.78125 74.21875 
Q 44.046875 74.21875 50.515625 64.515625 
Q 56.984375 54.828125 56.984375 36.375 
Q 56.984375 17.96875 50.515625 8.265625 
Q 44.046875 -1.421875 31.78125 -1.421875 
Q 19.53125 -1.421875 13.0625 8.265625 
Q 6.59375 17.96875 6.59375 36.375 
Q 6.59375 54.828125 13.0625 64.515625 
Q 19.53125 74.21875 31.78125 74.21875 
z
" id="DejaVuSans-48"/>
      </defs>
      <g style="fill:#ffffff;" transform="translate(94.561477 153.718437)scale(0.1 -0.1)">
       <use xlink:href="#DejaVuSans-48"/>
      </g>
     </g>
    </g>
    <g id="xtick_2">
     <g id="line2d_3">
      <path clip-path="url(#pd790709691)" d="M 254.521198 139.12 
L 254.521198 10.8 
" style="fill:none;stroke:#ffffff;stroke-linecap:square;stroke-opacity:0.2;stroke-width:0.8;"/>
     </g>
     <g id="line2d_4">
      <g>
       <use style="fill:#ffffff;stroke:#ffffff;stroke-width:0.8;" x="254.521198" xlink:href="#m708bacbcfd" y="139.12"/>
      </g>
     </g>
     <g id="text_2">
      <!-- 5 -->
      <defs>
       <path d="M 10.796875 72.90625 
L 49.515625 72.90625 
L 49.515625 64.59375 
L 19.828125 64.59375 
L 19.828125 46.734375 
Q 21.96875 47.46875 24.109375 47.828125 
Q 26.265625 48.1875 28.421875 48.1875 
Q 40.625 48.1875 47.75 41.5 
Q 54.890625 34.8125 54.890625 23.390625 
Q 54.890625 11.625 47.5625 5.09375 
Q 40.234375 -1.421875 26.90625 -1.421875 
Q 22.3125 -1.421875 17.546875 -0.640625 
Q 12.796875 0.140625 7.71875 1.703125 
L 7.71875 11.625 
Q 12.109375 9.234375 16.796875 8.0625 
Q 21.484375 6.890625 26.703125 6.890625 
Q 35.15625 6.890625 40.078125 11.328125 
Q 45.015625 15.765625 45.015625 23.390625 
Q 45.015625 31 40.078125 35.4375 
Q 35.15625 39.890625 26.703125 39.890625 
Q 22.75 39.890625 18.8125 39.015625 
Q 14.890625 38.140625 10.796875 36.28125 
z
" id="DejaVuSans-53"/>
      </defs>
      <g style="fill:#ffffff;" transform="translate(251.339948 153.718437)scale(0.1 -0.1)">
       <use xlink:href="#DejaVuSans-53"/>
      </g>
     </g>
    </g>
    <g id="xtick_3">
     <g id="line2d_5">
      <path clip-path="url(#pd790709691)" d="M 411.299668 139.12 
L 411.299668 10.8 
" style="fill:none;stroke:#ffffff;stroke-linecap:square;stroke-opacity:0.2;stroke-width:0.8;"/>
     </g>
     <g id="line2d_6">
      <g>
       <use style="fill:#ffffff;stroke:#ffffff;stroke-width:0.8;" x="411.299668" xlink:href="#m708bacbcfd" y="139.12"/>
      </g>
     </g>
     <g id="text_3">
      <!-- 10 -->
      <defs>
       <path d="M 12.40625 8.296875 
L 28.515625 8.296875 
L 28.515625 63.921875 
L 10.984375 60.40625 
L 10.984375 69.390625 
L 28.421875 72.90625 
L 38.28125 72.90625 
L 38.28125 8.296875 
L 54.390625 8.296875 
L 54.390625 0 
L 12.40625 0 
z
" id="DejaVuSans-49"/>
      </defs>
      <g style="fill:#ffffff;" transform="translate(404.937168 153.718437)scale(0.1 -0.1)">
       <use xlink:href="#DejaVuSans-49"/>
       <use x="63.623047" xlink:href="#DejaVuSans-48"/>
      </g>
     </g>
    </g>
    <g id="xtick_4">
     <g id="line2d_7">
      <path clip-path="url(#pd790709691)" d="M 568.078139 139.12 
L 568.078139 10.8 
" style="fill:none;stroke:#ffffff;stroke-linecap:square;stroke-opacity:0.2;stroke-width:0.8;"/>
     </g>
     <g id="line2d_8">
      <g>
       <use style="fill:#ffffff;stroke:#ffffff;stroke-width:0.8;" x="568.078139" xlink:href="#m708bacbcfd" y="139.12"/>
      </g>
     </g>
     <g id="text_4">
      <!-- 15 -->
      <g style="fill:#ffffff;" transform="translate(561.715639 153.718437)scale(0.1 -0.1)">
       <use xlink:href="#DejaVuSans-49"/>
       <use x="63.623047" xlink:href="#DejaVuSans-53"/>
      </g>
     </g>
    </g>
    <g id="xtick_5">
     <g id="line2d_9">
      <path clip-path="url(#pd790709691)" d="M 724.856609 139.12 
L 724.856609 10.8 
" style="fill:none;stroke:#ffffff;stroke-linecap:square;stroke-opacity:0.2;stroke-width:0.8;"/>
     </g>
     <g id="line2d_10">
      <g>
       <use style="fill:#ffffff;stroke:#ffffff;stroke-width:0.8;" x="724.856609" xlink:href="#m708bacbcfd" y="139.12"/>
      </g>
     </g>
     <g id="text_5">
      <!-- 20 -->
      <defs>
       <path d="M 19.1875 8.296875 
L 53.609375 8.296875 
L 53.609375 0 
L 7.328125 0 
L 7.328125 8.296875 
Q 12.9375 14.109375 22.625 23.890625 
Q 32.328125 33.6875 34.8125 36.53125 
Q 39.546875 41.84375 41.421875 45.53125 
Q 43.3125 49.21875 43.3125 52.78125 
Q 43.3125 58.59375 39.234375 62.25 
Q 35.15625 65.921875 28.609375 65.921875 
Q 23.96875 65.921875 18.8125 64.3125 
Q 13.671875 62.703125 7.8125 59.421875 
L 7.8125 69.390625 
Q 13.765625 71.78125 18.9375 73 
Q 24.125 74.21875 28.421875 74.21875 
Q 39.75 74.21875 46.484375 68.546875 
Q 53.21875 62.890625 53.21875 53.421875 
Q 53.21875 48.921875 51.53125 44.890625 
Q 49.859375 40.875 45.40625 35.40625 
Q 44.1875 33.984375 37.640625 27.21875 
Q 31.109375 20.453125 19.1875 8.296875 
z
" id="DejaVuSans-50"/>
      </defs>
      <g style="fill:#ffffff;" transform="translate(718.494109 153.718437)scale(0.1 -0.1)">
       <use xlink:href="#DejaVuSans-50"/>
       <use x="63.623047" xlink:href="#DejaVuSans-48"/>
      </g>
     </g>
    </g>
    <g id="xtick_6">
     <g id="line2d_11">
      <path clip-path="url(#pd790709691)" d="M 881.635079 139.12 
L 881.635079 10.8 
" style="fill:none;stroke:#ffffff;stroke-linecap:square;stroke-opacity:0.2;stroke-width:0.8;"/>
     </g>
     <g id="line2d_12">
      <g>
       <use style="fill:#ffffff;stroke:#ffffff;stroke-width:0.8;" x="881.635079" xlink:href="#m708bacbcfd" y="139.12"/>
      </g>
     </g>
     <g id="text_6">
      <!-- 25 -->
      <g style="fill:#ffffff;" transform="translate(875.272579 153.718437)scale(0.1 -0.1)">
       <use xlink:href="#DejaVuSans-50"/>
       <use x="63.623047" xlink:href="#DejaVuSans-53"/>
      </g>
     </g>
    </g>
    <g id="text_7">
     <!-- Time (t) -->
     <defs>
      <path d="M -0.296875 72.90625 
L 61.375 72.90625 
L 61.375 64.59375 
L 35.5 64.59375 
L 35.5 0 
L 25.59375 0 
L 25.59375 64.59375 
L -0.296875 64.59375 
z
" id="DejaVuSans-84"/>
      <path d="M 9.421875 54.6875 
L 18.40625 54.6875 
L 18.40625 0 
L 9.421875 0 
z
M 9.421875 75.984375 
L 18.40625 75.984375 
L 18.40625 64.59375 
L 9.421875 64.59375 
z
" id="DejaVuSans-105"/>
      <path d="M 52 44.1875 
Q 55.375 50.25 60.0625 53.125 
Q 64.75 56 71.09375 56 
Q 79.640625 56 84.28125 50.015625 
Q 88.921875 44.046875 88.921875 33.015625 
L 88.921875 0 
L 79.890625 0 
L 79.890625 32.71875 
Q 79.890625 40.578125 77.09375 44.375 
Q 74.3125 48.1875 68.609375 48.1875 
Q 61.625 48.1875 57.5625 43.546875 
Q 53.515625 38.921875 53.515625 30.90625 
L 53.515625 0 
L 44.484375 0 
L 44.484375 32.71875 
Q 44.484375 40.625 41.703125 44.40625 
Q 38.921875 48.1875 33.109375 48.1875 
Q 26.21875 48.1875 22.15625 43.53125 
Q 18.109375 38.875 18.109375 30.90625 
L 18.109375 0 
L 9.078125 0 
L 9.078125 54.6875 
L 18.109375 54.6875 
L 18.109375 46.1875 
Q 21.1875 51.21875 25.484375 53.609375 
Q 29.78125 56 35.6875 56 
Q 41.65625 56 45.828125 52.96875 
Q 50 49.953125 52 44.1875 
z
" id="DejaVuSans-109"/>
      <path d="M 56.203125 29.59375 
L 56.203125 25.203125 
L 14.890625 25.203125 
Q 15.484375 15.921875 20.484375 11.0625 
Q 25.484375 6.203125 34.421875 6.203125 
Q 39.59375 6.203125 44.453125 7.46875 
Q 49.3125 8.734375 54.109375 11.28125 
L 54.109375 2.78125 
Q 49.265625 0.734375 44.1875 -0.34375 
Q 39.109375 -1.421875 33.890625 -1.421875 
Q 20.796875 -1.421875 13.15625 6.1875 
Q 5.515625 13.8125 5.515625 26.8125 
Q 5.515625 40.234375 12.765625 48.109375 
Q 20.015625 56 32.328125 56 
Q 43.359375 56 49.78125 48.890625 
Q 56.203125 41.796875 56.203125 29.59375 
z
M 47.21875 32.234375 
Q 47.125 39.59375 43.09375 43.984375 
Q 39.0625 48.390625 32.421875 48.390625 
Q 24.90625 48.390625 20.390625 44.140625 
Q 15.875 39.890625 15.1875 32.171875 
z
" id="DejaVuSans-101"/>
      <path id="DejaVuSans-32"/>
      <path d="M 31 75.875 
Q 24.46875 64.65625 21.28125 53.65625 
Q 18.109375 42.671875 18.109375 31.390625 
Q 18.109375 20.125 21.3125 9.0625 
Q 24.515625 -2 31 -13.1875 
L 23.1875 -13.1875 
Q 15.875 -1.703125 12.234375 9.375 
Q 8.59375 20.453125 8.59375 31.390625 
Q 8.59375 42.28125 12.203125 53.3125 
Q 15.828125 64.359375 23.1875 75.875 
z
" id="DejaVuSans-40"/>
      <path d="M 18.3125 70.21875 
L 18.3125 54.6875 
L 36.8125 54.6875 
L 36.8125 47.703125 
L 18.3125 47.703125 
L 18.3125 18.015625 
Q 18.3125 11.328125 20.140625 9.421875 
Q 21.96875 7.515625 27.59375 7.515625 
L 36.8125 7.515625 
L 36.8125 0 
L 27.59375 0 
Q 17.1875 0 13.234375 3.875 
Q 9.28125 7.765625 9.28125 18.015625 
L 9.28125 47.703125 
L 2.6875 47.703125 
L 2.6875 54.6875 
L 9.28125 54.6875 
L 9.28125 70.21875 
z
" id="DejaVuSans-116"/>
      <path d="M 8.015625 75.875 
L 15.828125 75.875 
Q 23.140625 64.359375 26.78125 53.3125 
Q 30.421875 42.28125 30.421875 31.390625 
Q 30.421875 20.453125 26.78125 9.375 
Q 23.140625 -1.703125 15.828125 -13.1875 
L 8.015625 -13.1875 
Q 14.5 -2 17.703125 9.0625 
Q 20.90625 20.125 20.90625 31.390625 
Q 20.90625 42.671875 17.703125 53.65625 
Q 14.5 64.65625 8.015625 75.875 
z
" id="DejaVuSans-41"/>
     </defs>
     <g style="fill:#ffffff;" transform="translate(462.012578 171.195781)scale(0.15 -0.15)">
      <use xlink:href="#DejaVuSans-84"/>
      <use x="61.037109" xlink:href="#DejaVuSans-105"/>
      <use x="88.820312" xlink:href="#DejaVuSans-109"/>
      <use x="186.232422" xlink:href="#DejaVuSans-101"/>
      <use x="247.755859" xlink:href="#DejaVuSans-32"/>
      <use x="279.542969" xlink:href="#DejaVuSans-40"/>
      <use x="318.556641" xlink:href="#DejaVuSans-116"/>
      <use x="357.765625" xlink:href="#DejaVuSans-41"/>
     </g>
    </g>
   </g>
   <g id="matplotlib.axis_2">
    <g id="ytick_1">
     <g id="line2d_13">
      <path clip-path="url(#pd790709691)" d="M 58.34 113.845053 
L 925.2 113.845053 
" style="fill:none;stroke:#ffffff;stroke-linecap:square;stroke-opacity:0.2;stroke-width:0.8;"/>
     </g>
     <g id="line2d_14">
      <defs>
       <path d="M 0 0 
L -3.5 0 
" id="m1baf4e0902" style="stroke:#ffffff;stroke-width:0.8;"/>
      </defs>
      <g>
       <use style="fill:#ffffff;stroke:#ffffff;stroke-width:0.8;" x="58.34" xlink:href="#m1baf4e0902" y="113.845053"/>
      </g>
     </g>
     <g id="text_8">
      <!-- −2 -->
      <defs>
       <path d="M 10.59375 35.5 
L 73.1875 35.5 
L 73.1875 27.203125 
L 10.59375 27.203125 
z
" id="DejaVuSans-8722"/>
      </defs>
      <g style="fill:#ffffff;" transform="translate(29.226719 119.543881)scale(0.15 -0.15)">
       <use xlink:href="#DejaVuSans-8722"/>
       <use x="83.789062" xlink:href="#DejaVuSans-50"/>
      </g>
     </g>
    </g>
    <g id="ytick_2">
     <g id="line2d_15">
      <path clip-path="url(#pd790709691)" d="M 58.34 74.96 
L 925.2 74.96 
" style="fill:none;stroke:#ffffff;stroke-linecap:square;stroke-opacity:0.2;stroke-width:0.8;"/>
     </g>
     <g id="line2d_16">
      <g>
       <use style="fill:#ffffff;stroke:#ffffff;stroke-width:0.8;" x="58.34" xlink:href="#m1baf4e0902" y="74.96"/>
      </g>
     </g>
     <g id="text_9">
      <!-- 0 -->
      <g style="fill:#ffffff;" transform="translate(41.79625 80.658828)scale(0.15 -0.15)">
       <use xlink:href="#DejaVuSans-48"/>
      </g>
     </g>
    </g>
    <g id="ytick_3">
     <g id="line2d_17">
      <path clip-path="url(#pd790709691)" d="M 58.34 36.074947 
L 925.2 36.074947 
" style="fill:none;stroke:#ffffff;stroke-linecap:square;stroke-opacity:0.2;stroke-width:0.8;"/>
     </g>
     <g id="line2d_18">
      <g>
       <use style="fill:#ffffff;stroke:#ffffff;stroke-width:0.8;" x="58.34" xlink:href="#m1baf4e0902" y="36.074947"/>
      </g>
     </g>
     <g id="text_10">
      <!-- 2 -->
      <g style="fill:#ffffff;" transform="translate(41.79625 41.773776)scale(0.15 -0.15)">
       <use xlink:href="#DejaVuSans-50"/>
      </g>
     </g>
    </g>
    <g id="text_11">
     <!-- Ampltidue (y) -->
     <defs>
      <path d="M 34.1875 63.1875 
L 20.796875 26.90625 
L 47.609375 26.90625 
z
M 28.609375 72.90625 
L 39.796875 72.90625 
L 67.578125 0 
L 57.328125 0 
L 50.6875 18.703125 
L 17.828125 18.703125 
L 11.1875 0 
L 0.78125 0 
z
" id="DejaVuSans-65"/>
      <path d="M 18.109375 8.203125 
L 18.109375 -20.796875 
L 9.078125 -20.796875 
L 9.078125 54.6875 
L 18.109375 54.6875 
L 18.109375 46.390625 
Q 20.953125 51.265625 25.265625 53.625 
Q 29.59375 56 35.59375 56 
Q 45.5625 56 51.78125 48.09375 
Q 58.015625 40.1875 58.015625 27.296875 
Q 58.015625 14.40625 51.78125 6.484375 
Q 45.5625 -1.421875 35.59375 -1.421875 
Q 29.59375 -1.421875 25.265625 0.953125 
Q 20.953125 3.328125 18.109375 8.203125 
z
M 48.6875 27.296875 
Q 48.6875 37.203125 44.609375 42.84375 
Q 40.53125 48.484375 33.40625 48.484375 
Q 26.265625 48.484375 22.1875 42.84375 
Q 18.109375 37.203125 18.109375 27.296875 
Q 18.109375 17.390625 22.1875 11.75 
Q 26.265625 6.109375 33.40625 6.109375 
Q 40.53125 6.109375 44.609375 11.75 
Q 48.6875 17.390625 48.6875 27.296875 
z
" id="DejaVuSans-112"/>
      <path d="M 9.421875 75.984375 
L 18.40625 75.984375 
L 18.40625 0 
L 9.421875 0 
z
" id="DejaVuSans-108"/>
      <path d="M 45.40625 46.390625 
L 45.40625 75.984375 
L 54.390625 75.984375 
L 54.390625 0 
L 45.40625 0 
L 45.40625 8.203125 
Q 42.578125 3.328125 38.25 0.953125 
Q 33.9375 -1.421875 27.875 -1.421875 
Q 17.96875 -1.421875 11.734375 6.484375 
Q 5.515625 14.40625 5.515625 27.296875 
Q 5.515625 40.1875 11.734375 48.09375 
Q 17.96875 56 27.875 56 
Q 33.9375 56 38.25 53.625 
Q 42.578125 51.265625 45.40625 46.390625 
z
M 14.796875 27.296875 
Q 14.796875 17.390625 18.875 11.75 
Q 22.953125 6.109375 30.078125 6.109375 
Q 37.203125 6.109375 41.296875 11.75 
Q 45.40625 17.390625 45.40625 27.296875 
Q 45.40625 37.203125 41.296875 42.84375 
Q 37.203125 48.484375 30.078125 48.484375 
Q 22.953125 48.484375 18.875 42.84375 
Q 14.796875 37.203125 14.796875 27.296875 
z
" id="DejaVuSans-100"/>
      <path d="M 8.5 21.578125 
L 8.5 54.6875 
L 17.484375 54.6875 
L 17.484375 21.921875 
Q 17.484375 14.15625 20.5 10.265625 
Q 23.53125 6.390625 29.59375 6.390625 
Q 36.859375 6.390625 41.078125 11.03125 
Q 45.3125 15.671875 45.3125 23.6875 
L 45.3125 54.6875 
L 54.296875 54.6875 
L 54.296875 0 
L 45.3125 0 
L 45.3125 8.40625 
Q 42.046875 3.421875 37.71875 1 
Q 33.40625 -1.421875 27.6875 -1.421875 
Q 18.265625 -1.421875 13.375 4.4375 
Q 8.5 10.296875 8.5 21.578125 
z
M 31.109375 56 
z
" id="DejaVuSans-117"/>
      <path d="M 32.171875 -5.078125 
Q 28.375 -14.84375 24.75 -17.8125 
Q 21.140625 -20.796875 15.09375 -20.796875 
L 7.90625 -20.796875 
L 7.90625 -13.28125 
L 13.1875 -13.28125 
Q 16.890625 -13.28125 18.9375 -11.515625 
Q 21 -9.765625 23.484375 -3.21875 
L 25.09375 0.875 
L 2.984375 54.6875 
L 12.5 54.6875 
L 29.59375 11.921875 
L 46.6875 54.6875 
L 56.203125 54.6875 
z
" id="DejaVuSans-121"/>
     </defs>
     <g style="fill:#ffffff;" transform="translate(22.107188 126.068984)rotate(-90)scale(0.15 -0.15)">
      <use xlink:href="#DejaVuSans-65"/>
      <use x="68.408203" xlink:href="#DejaVuSans-109"/>
      <use x="165.820312" xlink:href="#DejaVuSans-112"/>
      <use x="229.296875" xlink:href="#DejaVuSans-108"/>
      <use x="257.080078" xlink:href="#DejaVuSans-116"/>
      <use x="296.289062" xlink:href="#DejaVuSans-105"/>
      <use x="324.072266" xlink:href="#DejaVuSans-100"/>
      <use x="387.548828" xlink:href="#DejaVuSans-117"/>
      <use x="450.927734" xlink:href="#DejaVuSans-101"/>
      <use x="512.451172" xlink:href="#DejaVuSans-32"/>
      <use x="544.238281" xlink:href="#DejaVuSans-40"/>
      <use x="583.251953" xlink:href="#DejaVuSans-121"/>
      <use x="642.431641" xlink:href="#DejaVuSans-41"/>
     </g>
    </g>
   </g>
   <g id="line2d_19">
    <path clip-path="url(#pd790709691)" d="M 97.742727 74.96 
L 100.502298 56.686908 
L 102.079196 47.483054 
L 103.261869 41.583073 
L 104.444542 36.750779 
L 105.232991 34.196656 
L 106.021439 32.216322 
L 106.809888 30.833866 
L 107.598337 30.063982 
L 107.992561 29.910722 
L 108.386786 29.911753 
L 108.78101 30.066194 
L 109.175234 30.372564 
L 109.963683 31.432188 
L 110.752132 33.067007 
L 111.540581 35.244399 
L 112.723254 39.435707 
L 113.905927 44.58245 
L 115.482825 52.573708 
L 118.63662 70.292108 
L 120.607742 80.800866 
L 122.184639 87.967158 
L 123.367312 92.28687 
L 124.155761 94.566173 
L 124.94421 96.316104 
L 125.732659 97.504175 
L 126.521107 98.106912 
L 126.915332 98.184003 
L 127.309556 98.110224 
L 127.703781 97.885318 
L 128.492229 96.984123 
L 129.280678 95.490446 
L 130.069127 93.42382 
L 130.857576 90.812983 
L 132.040249 85.960587 
L 133.222922 80.130173 
L 134.799819 71.177461 
L 137.55939 53.826557 
L 139.924736 39.33512 
L 141.501634 30.924565 
L 142.684307 25.650943 
L 143.86698 21.470317 
L 144.655429 19.363926 
L 145.443878 17.84138 
L 146.232327 16.926256 
L 146.626551 16.701281 
L 147.020775 16.632727 
L 147.415 16.720861 
L 147.809224 16.96534 
L 148.597673 17.918941 
L 149.386122 19.478764 
L 150.17457 21.620655 
L 150.963019 24.311458 
L 152.145692 29.283635 
L 153.328366 35.222648 
L 154.905263 44.285242 
L 161.212853 82.419467 
L 162.395526 87.904291 
L 163.5782 92.346528 
L 164.366648 94.65531 
L 165.155097 96.402607 
L 165.943546 97.564813 
L 166.33777 97.92169 
L 166.731995 98.127712 
L 167.126219 98.182605 
L 167.520443 98.086704 
L 167.914668 97.840946 
L 168.703117 96.906616 
L 169.491565 95.399023 
L 170.280014 93.346765 
L 171.462687 89.331056 
L 172.64536 84.335395 
L 174.222258 76.491503 
L 176.587604 63.307312 
L 179.347175 48.194681 
L 180.924072 40.846662 
L 182.106746 36.357407 
L 182.895194 33.95509 
L 183.683643 32.078366 
L 184.472092 30.763647 
L 185.260541 30.038545 
L 185.654765 29.903211 
L 186.048989 29.921431 
L 186.443214 30.094009 
L 186.837438 30.421144 
L 187.625887 31.536845 
L 188.414336 33.258024 
L 189.202785 35.564667 
L 190.385458 40.056064 
L 191.568131 45.662138 
L 193.145028 54.56486 
L 195.11615 67.267802 
L 199.452619 95.951383 
L 201.029516 104.763596 
L 202.212189 110.282928 
L 203.394862 114.674769 
L 204.183311 116.909641 
L 204.97176 118.556038 
L 205.760209 119.595118 
L 206.154433 119.883628 
L 206.548658 120.017574 
L 206.942882 119.997307 
L 207.337106 119.823781 
L 207.731331 119.498554 
L 208.519779 118.402194 
L 209.308228 116.732416 
L 210.096677 114.522394 
L 211.27935 110.287608 
L 212.462023 105.105284 
L 214.038921 97.080973 
L 219.952287 65.135422 
L 221.13496 60.21442 
L 222.317633 56.288112 
L 223.106082 54.302069 
L 223.89453 52.864754 
L 224.682979 52.00364 
L 225.077204 51.795225 
L 225.471428 51.736958 
L 225.865652 51.829626 
L 226.259877 52.073411 
L 227.048326 53.012029 
L 227.836774 54.542185 
L 228.625223 56.64376 
L 229.413672 59.287453 
L 230.596345 64.184066 
L 231.779018 70.051207 
L 233.355916 79.038969 
L 236.509711 98.908413 
L 238.875057 113.085045 
L 240.451955 121.090261 
L 241.634628 125.973566 
L 242.423077 128.597864 
L 243.211525 130.668629 
L 243.999974 132.153806 
L 244.788423 133.030396 
L 245.182647 133.235854 
L 245.576872 133.284824 
L 245.971096 133.177116 
L 246.36532 132.913148 
L 247.153769 131.921126 
L 247.942218 130.324121 
L 248.730667 128.146861 
L 249.519115 125.423048 
L 250.701789 120.406884 
L 251.884462 114.431851 
L 253.461359 105.335719 
L 259.768949 67.253454 
L 260.951623 61.808656 
L 262.134296 57.413297 
L 262.922745 55.138743 
L 263.711193 53.427418 
L 264.499642 52.302352 
L 264.893866 51.964296 
L 265.288091 51.777163 
L 265.682315 51.741149 
L 266.07654 51.855847 
L 266.470764 52.12024 
L 267.259213 53.091065 
L 268.047662 54.633631 
L 268.83611 56.718778 
L 270.018783 60.778773 
L 271.201457 65.811254 
L 272.778354 73.690372 
L 275.537925 89.135912 
L 277.903271 101.974186 
L 279.480169 109.279712 
L 280.662842 113.727331 
L 281.451291 116.098024 
L 282.239739 117.9406 
L 283.028188 119.219183 
L 283.816637 119.906727 
L 284.210861 120.022932 
L 284.605086 119.985448 
L 284.99931 119.793549 
L 285.393534 119.447111 
L 286.181983 118.29316 
L 286.970432 116.534705 
L 287.758881 114.192348 
L 288.941554 109.651522 
L 290.124227 104.002531 
L 291.701125 95.055292 
L 293.672247 82.320871 
L 298.008715 53.672255 
L 299.585612 44.906027 
L 300.768286 39.430515 
L 301.950959 35.088797 
L 302.739407 32.889976 
L 303.527856 31.281082 
L 304.316305 30.280369 
L 304.710529 30.011177 
L 305.104754 29.896539 
L 305.498978 29.936029 
L 305.893203 30.128615 
L 306.287427 30.472665 
L 307.075876 31.605668 
L 307.864324 33.310274 
L 308.652773 35.552763 
L 309.835446 39.830727 
L 311.01812 45.048273 
L 312.595017 53.105092 
L 318.508383 85.007082 
L 319.691056 89.89025 
L 320.873729 93.771448 
L 321.662178 95.72417 
L 322.450627 97.126183 
L 323.239075 97.950582 
L 323.6333 98.140292 
L 324.027524 98.179722 
L 324.421749 98.068162 
L 324.815973 97.805505 
L 325.604422 96.829505 
L 326.392871 95.262948 
L 327.181319 93.12654 
L 327.969768 90.450139 
L 329.152441 85.509592 
L 330.335114 79.606067 
L 331.912012 70.583785 
L 335.065807 50.700429 
L 337.431153 36.563074 
L 339.008051 28.605349 
L 340.190724 23.766925 
L 340.979173 21.17612 
L 341.767622 19.141106 
L 342.55607 17.693389 
L 343.344519 16.855385 
L 343.738743 16.669457 
L 344.132968 16.640074 
L 344.527192 16.76735 
L 344.921417 17.050791 
L 345.709865 18.081173 
L 346.498314 19.715264 
L 347.286763 21.927761 
L 348.075212 24.684418 
L 349.257885 29.744266 
L 350.440558 35.754957 
L 352.017456 44.884081 
L 357.930821 80.906076 
L 359.113494 86.624274 
L 360.296168 91.342359 
L 361.084616 93.853755 
L 361.873065 95.81487 
L 362.661514 97.198662 
L 363.449963 97.987359 
L 363.844187 98.155601 
L 364.238411 98.17274 
L 364.632636 98.039263 
L 365.02686 97.756259 
L 365.815309 96.749018 
L 366.603758 95.171593 
L 367.392207 93.053704 
L 368.57488 88.949706 
L 369.757553 83.880745 
L 371.33445 75.966932 
L 374.094021 60.504541 
L 376.459367 47.698026 
L 378.036265 40.435493 
L 379.218938 36.029824 
L 380.007387 33.690928 
L 380.795836 31.882639 
L 381.584284 30.640298 
L 382.372733 29.990382 
L 382.766958 29.893328 
L 383.161182 29.950086 
L 383.555406 30.161308 
L 383.949631 30.527043 
L 384.738079 31.7192 
L 385.526528 33.514849 
L 386.314977 35.892805 
L 387.49765 40.48282 
L 388.680323 46.174424 
L 390.257221 55.165684 
L 392.228343 67.930871 
L 396.564811 96.542912 
L 398.141709 105.26267 
L 399.324382 110.694068 
L 400.507055 114.985437 
L 401.295504 117.1481 
L 402.083952 118.719419 
L 402.872401 119.681732 
L 403.266626 119.931602 
L 403.66085 120.026938 
L 404.055074 119.968243 
L 404.449299 119.756622 
L 405.237748 118.882026 
L 406.026196 117.423865 
L 406.814645 115.411997 
L 407.603094 112.884949 
L 408.785767 108.232332 
L 410.362665 100.719413 
L 412.333786 89.97384 
L 415.881806 70.356427 
L 417.458703 62.975716 
L 418.641377 58.447716 
L 419.429825 56.011006 
L 420.218274 54.091746 
L 421.006723 52.72514 
L 421.795172 51.937525 
L 422.189396 51.766541 
L 422.58362 51.745957 
L 422.977845 51.876411 
L 423.372069 52.157932 
L 424.160518 53.171271 
L 424.948967 54.774147 
L 425.737416 56.945272 
L 426.525864 59.65423 
L 427.708537 64.638428 
L 428.891211 70.577991 
L 430.468108 79.634258 
L 434.016128 102.000115 
L 435.98725 113.627564 
L 437.564147 121.537315 
L 438.74682 126.330566 
L 439.535269 128.887723 
L 440.323718 130.886861 
L 441.112167 132.297032 
L 441.900615 133.096398 
L 442.29484 133.262785 
L 442.689064 133.272579 
L 443.083288 133.125744 
L 443.477513 132.822847 
L 444.265962 131.754167 
L 445.05441 130.083089 
L 445.842859 127.835488 
L 447.025532 123.461514 
L 448.208205 118.022596 
L 449.785103 109.444979 
L 452.150449 94.83622 
L 455.304244 75.255319 
L 456.881142 66.763843 
L 458.063815 61.400045 
L 459.246488 57.099188 
L 460.034937 54.893465 
L 460.823386 53.254353 
L 461.611835 52.203723 
L 462.006059 51.903346 
L 462.400283 51.753998 
L 462.794508 51.755724 
L 463.188732 51.907964 
L 463.582956 52.209553 
L 464.371405 53.25313 
L 465.159854 54.865297 
L 465.948303 57.015777 
L 467.130976 61.163496 
L 468.313649 66.268592 
L 469.890547 74.216568 
L 472.650117 89.694774 
L 475.015464 102.468668 
L 476.592361 109.687708 
L 477.775034 114.051116 
L 478.563483 116.358045 
L 479.351932 118.131908 
L 480.140381 119.337904 
L 480.928829 119.950124 
L 481.323054 120.028008 
L 481.717278 119.951965 
L 482.111503 119.721419 
L 482.899951 118.797538 
L 483.6884 117.263862 
L 484.476849 115.137464 
L 485.265298 112.444723 
L 486.447971 107.423192 
L 487.630644 101.362278 
L 489.207541 91.997527 
L 491.572888 76.304241 
L 494.726683 55.467773 
L 496.30358 46.432987 
L 497.486254 40.699081 
L 498.668927 36.060116 
L 499.457376 33.646681 
L 500.245824 31.81392 
L 501.034273 30.583602 
L 501.822722 29.968035 
L 502.216946 29.891992 
L 502.611171 29.969876 
L 503.005395 30.200504 
L 503.793844 31.112277 
L 504.582293 32.606012 
L 505.370741 34.651294 
L 506.15919 37.209074 
L 507.341863 41.901724 
L 508.918761 49.454588 
L 510.889883 60.225226 
L 514.437902 79.813189 
L 516.0148 87.152002 
L 517.197473 91.638955 
L 517.985922 94.044516 
L 518.77437 95.930177 
L 519.562819 97.261273 
L 520.351268 98.012036 
L 520.745492 98.164276 
L 521.139717 98.166002 
L 521.533941 98.016654 
L 521.928165 97.716277 
L 522.716614 96.665647 
L 523.505063 95.026535 
L 524.293512 92.820812 
L 525.476185 88.519955 
L 526.658858 83.156157 
L 528.235756 74.664681 
L 530.206878 62.628102 
L 534.149121 38.212439 
L 535.726019 29.977071 
L 536.908692 24.873846 
L 538.091365 20.890617 
L 538.879814 18.927475 
L 539.668263 17.554937 
L 540.456712 16.794256 
L 540.850936 16.647421 
L 541.24516 16.657215 
L 541.639385 16.823602 
L 542.033609 17.145936 
L 542.822058 18.252849 
L 543.610507 19.960813 
L 544.398955 22.243381 
L 545.581629 26.665038 
L 546.764302 32.144465 
L 548.341199 40.762559 
L 550.706546 55.398455 
L 553.860341 74.948931 
L 555.437238 83.39866 
L 556.619911 88.72149 
L 557.802584 92.974728 
L 558.591033 95.145853 
L 559.379482 96.748729 
L 560.167931 97.762068 
L 560.562155 98.043589 
L 560.95638 98.174043 
L 561.350604 98.153459 
L 561.744828 97.982475 
L 562.139053 97.662329 
L 562.927501 96.582498 
L 563.71595 94.935707 
L 564.504399 92.752788 
L 565.687072 88.561635 
L 566.869745 83.42075 
L 568.446643 75.439145 
L 571.600438 57.724868 
L 573.57156 47.20575 
L 575.148457 40.030699 
L 576.331131 35.70986 
L 577.119579 33.435067 
L 577.908028 31.695766 
L 578.696477 30.526217 
L 579.090701 30.163378 
L 579.484926 29.951757 
L 579.87915 29.893062 
L 580.273374 29.988398 
L 580.667599 30.238268 
L 581.456048 31.200581 
L 582.244496 32.7719 
L 583.032945 34.934563 
L 583.821394 37.661618 
L 585.004067 42.729797 
L 586.18674 48.830123 
L 587.763638 58.233803 
L 590.128984 73.951753 
L 593.282779 94.754316 
L 594.859677 103.745576 
L 596.04235 109.43718 
L 597.225023 114.027195 
L 598.013472 116.405151 
L 598.801921 118.2008 
L 599.590369 119.392957 
L 599.984594 119.758692 
L 600.378818 119.969914 
L 600.773042 120.026672 
L 601.167267 119.929618 
L 601.561491 119.680009 
L 602.34994 118.731143 
L 603.138389 117.201953 
L 603.926838 115.12341 
L 605.109511 111.064313 
L 606.292184 106.026439 
L 607.869081 98.137589 
L 610.628652 82.68575 
L 612.993998 69.858257 
L 614.570896 62.561838 
L 615.753569 58.11624 
L 616.542018 55.741996 
L 617.330467 53.89007 
L 618.118915 52.594584 
L 618.907364 51.880737 
L 619.301589 51.74726 
L 619.695813 51.764399 
L 620.090037 51.932641 
L 620.484262 52.251863 
L 621.27271 53.339737 
L 622.061159 55.014999 
L 622.849608 57.2552 
L 624.032281 61.603431 
L 625.214954 67.007886 
L 626.791852 75.540608 
L 628.762974 87.604327 
L 632.705218 111.985413 
L 634.282115 120.175734 
L 635.464788 125.235582 
L 636.647461 129.168852 
L 637.43591 131.095879 
L 638.224359 132.430702 
L 639.012808 133.15265 
L 639.407032 133.279926 
L 639.801257 133.250543 
L 640.195481 133.064615 
L 640.589705 132.722863 
L 641.378154 131.577783 
L 642.166603 129.833038 
L 642.955052 127.51564 
L 644.137725 123.046568 
L 645.320398 117.526965 
L 646.897295 108.868913 
L 649.262642 94.20676 
L 652.416437 74.687875 
L 653.993334 66.280391 
L 655.176008 60.998838 
L 656.358681 56.79346 
L 657.147129 54.657052 
L 657.935578 53.090495 
L 658.724027 52.114495 
L 659.118251 51.851838 
L 659.512476 51.740278 
L 659.9067 51.779708 
L 660.300925 51.969418 
L 660.695149 52.308092 
L 661.483598 53.424091 
L 662.272046 55.105385 
L 663.060495 57.320589 
L 664.243168 61.554888 
L 665.425842 66.731213 
L 667.002739 74.74591 
L 672.916105 106.703134 
L 674.098778 111.628995 
L 675.281451 115.553274 
L 676.0699 117.531576 
L 676.858349 118.954047 
L 677.646797 119.791385 
L 678.041022 119.983971 
L 678.435246 120.023461 
L 678.829471 119.908823 
L 679.223695 119.639631 
L 680.012144 118.638918 
L 680.800593 117.030024 
L 681.589041 114.831203 
L 682.37749 112.069973 
L 683.560163 106.955417 
L 684.742836 100.816013 
L 686.319734 91.373927 
L 689.079305 72.944017 
L 691.838875 54.864708 
L 693.415773 45.917469 
L 694.598446 40.268478 
L 695.781119 35.727652 
L 696.569568 33.385295 
L 697.358017 31.62684 
L 698.146466 30.472889 
L 698.54069 30.126451 
L 698.934914 29.934552 
L 699.329139 29.897068 
L 699.723363 30.013273 
L 700.117587 30.281832 
L 700.906036 31.267706 
L 701.694485 32.83223 
L 702.482934 34.94388 
L 703.665607 39.047341 
L 704.84828 44.121857 
L 706.425178 52.045382 
L 709.184748 67.513708 
L 711.550095 80.309219 
L 713.126992 87.562751 
L 714.309665 91.966688 
L 715.098114 94.309449 
L 715.886563 96.127508 
L 716.675012 97.387284 
L 717.46346 98.064153 
L 717.857685 98.178851 
L 718.251909 98.142837 
L 718.646134 97.955704 
L 719.040358 97.617648 
L 719.828807 96.492582 
L 720.617255 94.781257 
L 721.405704 92.506703 
L 722.588377 88.111344 
L 723.771051 82.666546 
L 725.347948 74.093079 
L 727.713294 59.492354 
L 730.867089 39.902986 
L 732.443987 31.407875 
L 733.62666 26.050957 
L 734.809333 21.773139 
L 735.597782 19.595879 
L 736.386231 17.998874 
L 737.17468 17.006852 
L 737.568904 16.742884 
L 737.963128 16.635176 
L 738.357353 16.684146 
L 738.751577 16.889604 
L 739.145802 17.250753 
L 739.93425 18.433929 
L 740.722699 20.215351 
L 741.511148 22.567438 
L 742.693821 27.083655 
L 743.876494 32.643102 
L 745.453392 41.340588 
L 747.818738 56.028116 
L 750.972533 75.514245 
L 752.549431 83.87899 
L 753.732104 89.118961 
L 754.914777 93.27624 
L 755.703226 95.377815 
L 756.491674 96.907971 
L 757.280123 97.846589 
L 757.674348 98.090374 
L 758.068572 98.183042 
L 758.462796 98.124775 
L 758.857021 97.91636 
L 759.64547 97.055246 
L 760.433918 95.617931 
L 761.222367 93.631888 
L 762.010816 91.133393 
L 763.193489 86.52423 
L 764.376162 81.045005 
L 766.347284 70.567921 
L 770.683752 46.717988 
L 772.26065 39.632392 
L 773.443323 35.397606 
L 774.231772 33.187584 
L 775.020221 31.517806 
L 775.808669 30.421446 
L 776.202894 30.096219 
L 776.597118 29.922693 
L 776.991342 29.902426 
L 777.385567 30.036372 
L 777.779791 30.324882 
L 778.56824 31.363962 
L 779.356689 33.010359 
L 780.145138 35.245231 
L 780.933586 38.040493 
L 782.116259 43.201154 
L 783.298933 49.3793 
L 784.87583 58.859266 
L 787.635401 77.311693 
L 790.394972 95.35514 
L 791.971869 104.257862 
L 793.154542 109.863936 
L 794.337215 114.355333 
L 795.125664 116.661976 
L 795.914113 118.383155 
L 796.702562 119.498856 
L 797.096786 119.825991 
L 797.491011 119.998569 
L 797.885235 120.016789 
L 798.279459 119.881455 
L 798.673684 119.593975 
L 799.462132 118.571182 
L 800.250581 116.971447 
L 801.03903 114.826846 
L 802.221703 110.679315 
L 803.404376 105.568508 
L 804.981274 97.610846 
L 808.135069 79.904129 
L 810.106191 69.364402 
L 811.683088 62.154246 
L 812.865762 57.792271 
L 813.65421 55.481158 
L 814.442659 53.697099 
L 815.231108 52.473128 
L 816.019557 51.833296 
L 816.413781 51.737395 
L 816.808005 51.792288 
L 817.20223 51.99831 
L 817.596454 52.355187 
L 818.384903 53.517393 
L 819.173352 55.26469 
L 819.9618 57.573472 
L 821.144474 62.015709 
L 822.327147 67.500533 
L 823.904044 76.114239 
L 826.269391 90.742277 
L 829.423186 110.301477 
L 831.000083 118.754565 
L 832.182756 124.069995 
L 833.36543 128.299345 
L 834.153878 130.441236 
L 834.942327 132.001059 
L 835.730776 132.95466 
L 836.125 133.199139 
L 836.519225 133.287273 
L 836.913449 133.218719 
L 837.307673 132.993744 
L 838.096122 132.07862 
L 838.884571 130.556074 
L 839.67302 128.449683 
L 840.461468 125.792052 
L 841.644142 120.864162 
L 842.826815 114.961527 
L 844.403712 105.93302 
L 847.557507 86.045597 
L 849.528629 74.124725 
L 851.105527 65.803211 
L 852.2882 60.605126 
L 853.470873 56.49618 
L 854.259322 54.429554 
L 855.047771 52.935877 
L 855.836219 52.034682 
L 856.230444 51.809776 
L 856.624668 51.735997 
L 857.018893 51.813088 
L 857.413117 52.040186 
L 858.201566 52.937945 
L 858.990015 54.410454 
L 859.778463 56.429676 
L 860.566912 58.958804 
L 861.749585 63.608076 
L 863.326483 71.11148 
L 865.297605 81.848109 
L 868.845624 101.475392 
L 870.422522 108.865398 
L 871.605195 113.395974 
L 872.393644 115.82974 
L 873.182092 117.740469 
L 873.970541 119.091216 
L 874.75899 119.853806 
L 875.153214 120.008247 
L 875.547439 120.009278 
L 875.941663 119.856018 
L 876.335887 119.548192 
L 877.124336 118.470783 
L 877.912785 116.786956 
L 878.701234 114.516143 
L 879.489683 111.686993 
L 880.672356 106.480503 
L 881.855029 100.263955 
L 883.431926 90.746635 
L 885.797273 74.96 
L 885.797273 74.96 
" style="fill:none;stroke:#00ff00;stroke-linecap:square;stroke-width:1.5;"/>
   </g>
   <g id="patch_3">
    <path d="M 58.34 139.12 
L 58.34 10.8 
" style="fill:none;stroke:#ffffff;stroke-linecap:square;stroke-linejoin:miter;stroke-width:0.8;"/>
   </g>
   <g id="patch_4">
    <path d="M 925.2 139.12 
L 925.2 10.8 
" style="fill:none;stroke:#ffffff;stroke-linecap:square;stroke-linejoin:miter;stroke-width:0.8;"/>
   </g>
   <g id="patch_5">
    <path d="M 58.34 139.12 
L 925.2 139.12 
" style="fill:none;stroke:#ffffff;stroke-linecap:square;stroke-linejoin:miter;stroke-width:0.8;"/>
   </g>
   <g id="patch_6">
    <path d="M 58.34 10.8 
L 925.2 10.8 
" style="fill:none;stroke:#ffffff;stroke-linecap:square;stroke-linejoin:miter;stroke-width:0.8;"/>
   </g>
   <g id="legend_1">
    <g id="patch_7">
     <path d="M 834.33125 33.478125 
L 918.2 33.478125 
Q 920.2 33.478125 920.2 31.478125 
L 920.2 17.8 
Q 920.2 15.8 918.2 15.8 
L 834.33125 15.8 
Q 832.33125 15.8 832.33125 17.8 
L 832.33125 31.478125 
Q 832.33125 33.478125 834.33125 33.478125 
z
" style="fill:#121212;opacity:0.8;stroke:#ffffff;stroke-linejoin:miter;"/>
    </g>
    <g id="line2d_20">
     <path d="M 836.33125 23.898438 
L 856.33125 23.898438 
" style="fill:none;stroke:#00ff00;stroke-linecap:square;stroke-width:1.5;"/>
    </g>
    <g id="line2d_21"/>
    <g id="text_12">
     <!-- Inverse FT -->
     <defs>
      <path d="M 9.8125 72.90625 
L 19.671875 72.90625 
L 19.671875 0 
L 9.8125 0 
z
" id="DejaVuSans-73"/>
      <path d="M 54.890625 33.015625 
L 54.890625 0 
L 45.90625 0 
L 45.90625 32.71875 
Q 45.90625 40.484375 42.875 44.328125 
Q 39.84375 48.1875 33.796875 48.1875 
Q 26.515625 48.1875 22.3125 43.546875 
Q 18.109375 38.921875 18.109375 30.90625 
L 18.109375 0 
L 9.078125 0 
L 9.078125 54.6875 
L 18.109375 54.6875 
L 18.109375 46.1875 
Q 21.34375 51.125 25.703125 53.5625 
Q 30.078125 56 35.796875 56 
Q 45.21875 56 50.046875 50.171875 
Q 54.890625 44.34375 54.890625 33.015625 
z
" id="DejaVuSans-110"/>
      <path d="M 2.984375 54.6875 
L 12.5 54.6875 
L 29.59375 8.796875 
L 46.6875 54.6875 
L 56.203125 54.6875 
L 35.6875 0 
L 23.484375 0 
z
" id="DejaVuSans-118"/>
      <path d="M 41.109375 46.296875 
Q 39.59375 47.171875 37.8125 47.578125 
Q 36.03125 48 33.890625 48 
Q 26.265625 48 22.1875 43.046875 
Q 18.109375 38.09375 18.109375 28.8125 
L 18.109375 0 
L 9.078125 0 
L 9.078125 54.6875 
L 18.109375 54.6875 
L 18.109375 46.1875 
Q 20.953125 51.171875 25.484375 53.578125 
Q 30.03125 56 36.53125 56 
Q 37.453125 56 38.578125 55.875 
Q 39.703125 55.765625 41.0625 55.515625 
z
" id="DejaVuSans-114"/>
      <path d="M 44.28125 53.078125 
L 44.28125 44.578125 
Q 40.484375 46.53125 36.375 47.5 
Q 32.28125 48.484375 27.875 48.484375 
Q 21.1875 48.484375 17.84375 46.4375 
Q 14.5 44.390625 14.5 40.28125 
Q 14.5 37.15625 16.890625 35.375 
Q 19.28125 33.59375 26.515625 31.984375 
L 29.59375 31.296875 
Q 39.15625 29.25 43.1875 25.515625 
Q 47.21875 21.78125 47.21875 15.09375 
Q 47.21875 7.46875 41.1875 3.015625 
Q 35.15625 -1.421875 24.609375 -1.421875 
Q 20.21875 -1.421875 15.453125 -0.5625 
Q 10.6875 0.296875 5.421875 2 
L 5.421875 11.28125 
Q 10.40625 8.6875 15.234375 7.390625 
Q 20.0625 6.109375 24.8125 6.109375 
Q 31.15625 6.109375 34.5625 8.28125 
Q 37.984375 10.453125 37.984375 14.40625 
Q 37.984375 18.0625 35.515625 20.015625 
Q 33.0625 21.96875 24.703125 23.78125 
L 21.578125 24.515625 
Q 13.234375 26.265625 9.515625 29.90625 
Q 5.8125 33.546875 5.8125 39.890625 
Q 5.8125 47.609375 11.28125 51.796875 
Q 16.75 56 26.8125 56 
Q 31.78125 56 36.171875 55.265625 
Q 40.578125 54.546875 44.28125 53.078125 
z
" id="DejaVuSans-115"/>
      <path d="M 9.8125 72.90625 
L 51.703125 72.90625 
L 51.703125 64.59375 
L 19.671875 64.59375 
L 19.671875 43.109375 
L 48.578125 43.109375 
L 48.578125 34.8125 
L 19.671875 34.8125 
L 19.671875 0 
L 9.8125 0 
z
" id="DejaVuSans-70"/>
     </defs>
     <g style="fill:#ffffff;" transform="translate(864.33125 27.398438)scale(0.1 -0.1)">
      <use xlink:href="#DejaVuSans-73"/>
      <use x="29.492188" xlink:href="#DejaVuSans-110"/>
      <use x="92.871094" xlink:href="#DejaVuSans-118"/>
      <use x="152.050781" xlink:href="#DejaVuSans-101"/>
      <use x="213.574219" xlink:href="#DejaVuSans-114"/>
      <use x="254.6875" xlink:href="#DejaVuSans-115"/>
      <use x="306.787109" xlink:href="#DejaVuSans-101"/>
      <use x="368.310547" xlink:href="#DejaVuSans-32"/>
      <use x="400.097656" xlink:href="#DejaVuSans-70"/>
      <use x="457.601562" xlink:href="#DejaVuSans-84"/>
     </g>
    </g>
   </g>
  </g>
  <g id="axes_2">
   <g id="patch_8">
    <path d="M 58.34 313.72 
L 925.2 313.72 
L 925.2 185.4 
L 58.34 185.4 
z
" style="fill:#121212;"/>
   </g>
   <g id="matplotlib.axis_3">
    <g id="xtick_7">
     <g id="line2d_22">
      <path clip-path="url(#p1c438d94d4)" d="M 97.742727 313.72 
L 97.742727 185.4 
" style="fill:none;stroke:#ffffff;stroke-linecap:square;stroke-opacity:0.2;stroke-width:0.8;"/>
     </g>
     <g id="line2d_23">
      <g>
       <use style="fill:#ffffff;stroke:#ffffff;stroke-width:0.8;" x="97.742727" xlink:href="#m708bacbcfd" y="313.72"/>
      </g>
     </g>
     <g id="text_13">
      <!-- 0 -->
      <g style="fill:#ffffff;" transform="translate(94.561477 328.318438)scale(0.1 -0.1)">
       <use xlink:href="#DejaVuSans-48"/>
      </g>
     </g>
    </g>
    <g id="xtick_8">
     <g id="line2d_24">
      <path clip-path="url(#p1c438d94d4)" d="M 254.521198 313.72 
L 254.521198 185.4 
" style="fill:none;stroke:#ffffff;stroke-linecap:square;stroke-opacity:0.2;stroke-width:0.8;"/>
     </g>
     <g id="line2d_25">
      <g>
       <use style="fill:#ffffff;stroke:#ffffff;stroke-width:0.8;" x="254.521198" xlink:href="#m708bacbcfd" y="313.72"/>
      </g>
     </g>
     <g id="text_14">
      <!-- 5 -->
      <g style="fill:#ffffff;" transform="translate(251.339948 328.318438)scale(0.1 -0.1)">
       <use xlink:href="#DejaVuSans-53"/>
      </g>
     </g>
    </g>
    <g id="xtick_9">
     <g id="line2d_26">
      <path clip-path="url(#p1c438d94d4)" d="M 411.299668 313.72 
L 411.299668 185.4 
" style="fill:none;stroke:#ffffff;stroke-linecap:square;stroke-opacity:0.2;stroke-width:0.8;"/>
     </g>
     <g id="line2d_27">
      <g>
       <use style="fill:#ffffff;stroke:#ffffff;stroke-width:0.8;" x="411.299668" xlink:href="#m708bacbcfd" y="313.72"/>
      </g>
     </g>
     <g id="text_15">
      <!-- 10 -->
      <g style="fill:#ffffff;" transform="translate(404.937168 328.318438)scale(0.1 -0.1)">
       <use xlink:href="#DejaVuSans-49"/>
       <use x="63.623047" xlink:href="#DejaVuSans-48"/>
      </g>
     </g>
    </g>
    <g id="xtick_10">
     <g id="line2d_28">
      <path clip-path="url(#p1c438d94d4)" d="M 568.078139 313.72 
L 568.078139 185.4 
" style="fill:none;stroke:#ffffff;stroke-linecap:square;stroke-opacity:0.2;stroke-width:0.8;"/>
     </g>
     <g id="line2d_29">
      <g>
       <use style="fill:#ffffff;stroke:#ffffff;stroke-width:0.8;" x="568.078139" xlink:href="#m708bacbcfd" y="313.72"/>
      </g>
     </g>
     <g id="text_16">
      <!-- 15 -->
      <g style="fill:#ffffff;" transform="translate(561.715639 328.318438)scale(0.1 -0.1)">
       <use xlink:href="#DejaVuSans-49"/>
       <use x="63.623047" xlink:href="#DejaVuSans-53"/>
      </g>
     </g>
    </g>
    <g id="xtick_11">
     <g id="line2d_30">
      <path clip-path="url(#p1c438d94d4)" d="M 724.856609 313.72 
L 724.856609 185.4 
" style="fill:none;stroke:#ffffff;stroke-linecap:square;stroke-opacity:0.2;stroke-width:0.8;"/>
     </g>
     <g id="line2d_31">
      <g>
       <use style="fill:#ffffff;stroke:#ffffff;stroke-width:0.8;" x="724.856609" xlink:href="#m708bacbcfd" y="313.72"/>
      </g>
     </g>
     <g id="text_17">
      <!-- 20 -->
      <g style="fill:#ffffff;" transform="translate(718.494109 328.318438)scale(0.1 -0.1)">
       <use xlink:href="#DejaVuSans-50"/>
       <use x="63.623047" xlink:href="#DejaVuSans-48"/>
      </g>
     </g>
    </g>
    <g id="xtick_12">
     <g id="line2d_32">
      <path clip-path="url(#p1c438d94d4)" d="M 881.635079 313.72 
L 881.635079 185.4 
" style="fill:none;stroke:#ffffff;stroke-linecap:square;stroke-opacity:0.2;stroke-width:0.8;"/>
     </g>
     <g id="line2d_33">
      <g>
       <use style="fill:#ffffff;stroke:#ffffff;stroke-width:0.8;" x="881.635079" xlink:href="#m708bacbcfd" y="313.72"/>
      </g>
     </g>
     <g id="text_18">
      <!-- 25 -->
      <g style="fill:#ffffff;" transform="translate(875.272579 328.318438)scale(0.1 -0.1)">
       <use xlink:href="#DejaVuSans-50"/>
       <use x="63.623047" xlink:href="#DejaVuSans-53"/>
      </g>
     </g>
    </g>
    <g id="text_19">
     <!-- Time (t) -->
     <g style="fill:#ffffff;" transform="translate(462.012578 345.795781)scale(0.15 -0.15)">
      <use xlink:href="#DejaVuSans-84"/>
      <use x="61.037109" xlink:href="#DejaVuSans-105"/>
      <use x="88.820312" xlink:href="#DejaVuSans-109"/>
      <use x="186.232422" xlink:href="#DejaVuSans-101"/>
      <use x="247.755859" xlink:href="#DejaVuSans-32"/>
      <use x="279.542969" xlink:href="#DejaVuSans-40"/>
      <use x="318.556641" xlink:href="#DejaVuSans-116"/>
      <use x="357.765625" xlink:href="#DejaVuSans-41"/>
     </g>
    </g>
   </g>
   <g id="matplotlib.axis_4">
    <g id="ytick_4">
     <g id="line2d_34">
      <path clip-path="url(#p1c438d94d4)" d="M 58.34 288.445053 
L 925.2 288.445053 
" style="fill:none;stroke:#ffffff;stroke-linecap:square;stroke-opacity:0.2;stroke-width:0.8;"/>
     </g>
     <g id="line2d_35">
      <g>
       <use style="fill:#ffffff;stroke:#ffffff;stroke-width:0.8;" x="58.34" xlink:href="#m1baf4e0902" y="288.445053"/>
      </g>
     </g>
     <g id="text_20">
      <!-- −2 -->
      <g style="fill:#ffffff;" transform="translate(29.226719 294.143881)scale(0.15 -0.15)">
       <use xlink:href="#DejaVuSans-8722"/>
       <use x="83.789062" xlink:href="#DejaVuSans-50"/>
      </g>
     </g>
    </g>
    <g id="ytick_5">
     <g id="line2d_36">
      <path clip-path="url(#p1c438d94d4)" d="M 58.34 249.56 
L 925.2 249.56 
" style="fill:none;stroke:#ffffff;stroke-linecap:square;stroke-opacity:0.2;stroke-width:0.8;"/>
     </g>
     <g id="line2d_37">
      <g>
       <use style="fill:#ffffff;stroke:#ffffff;stroke-width:0.8;" x="58.34" xlink:href="#m1baf4e0902" y="249.56"/>
      </g>
     </g>
     <g id="text_21">
      <!-- 0 -->
      <g style="fill:#ffffff;" transform="translate(41.79625 255.258828)scale(0.15 -0.15)">
       <use xlink:href="#DejaVuSans-48"/>
      </g>
     </g>
    </g>
    <g id="ytick_6">
     <g id="line2d_38">
      <path clip-path="url(#p1c438d94d4)" d="M 58.34 210.674947 
L 925.2 210.674947 
" style="fill:none;stroke:#ffffff;stroke-linecap:square;stroke-opacity:0.2;stroke-width:0.8;"/>
     </g>
     <g id="line2d_39">
      <g>
       <use style="fill:#ffffff;stroke:#ffffff;stroke-width:0.8;" x="58.34" xlink:href="#m1baf4e0902" y="210.674947"/>
      </g>
     </g>
     <g id="text_22">
      <!-- 2 -->
      <g style="fill:#ffffff;" transform="translate(41.79625 216.373776)scale(0.15 -0.15)">
       <use xlink:href="#DejaVuSans-50"/>
      </g>
     </g>
    </g>
    <g id="text_23">
     <!-- Ampltidue (y) -->
     <g style="fill:#ffffff;" transform="translate(22.107188 300.668984)rotate(-90)scale(0.15 -0.15)">
      <use xlink:href="#DejaVuSans-65"/>
      <use x="68.408203" xlink:href="#DejaVuSans-109"/>
      <use x="165.820312" xlink:href="#DejaVuSans-112"/>
      <use x="229.296875" xlink:href="#DejaVuSans-108"/>
      <use x="257.080078" xlink:href="#DejaVuSans-116"/>
      <use x="296.289062" xlink:href="#DejaVuSans-105"/>
      <use x="324.072266" xlink:href="#DejaVuSans-100"/>
      <use x="387.548828" xlink:href="#DejaVuSans-117"/>
      <use x="450.927734" xlink:href="#DejaVuSans-101"/>
      <use x="512.451172" xlink:href="#DejaVuSans-32"/>
      <use x="544.238281" xlink:href="#DejaVuSans-40"/>
      <use x="583.251953" xlink:href="#DejaVuSans-121"/>
      <use x="642.431641" xlink:href="#DejaVuSans-41"/>
     </g>
    </g>
   </g>
   <g id="line2d_40">
    <path clip-path="url(#p1c438d94d4)" d="M 97.742727 249.56 
L 100.502298 231.286908 
L 102.079196 222.083054 
L 103.261869 216.183073 
L 104.444542 211.350779 
L 105.232991 208.796656 
L 106.021439 206.816322 
L 106.809888 205.433866 
L 107.598337 204.663982 
L 107.992561 204.510722 
L 108.386786 204.511753 
L 108.78101 204.666194 
L 109.175234 204.972564 
L 109.963683 206.032188 
L 110.752132 207.667007 
L 111.540581 209.844399 
L 112.723254 214.035707 
L 113.905927 219.18245 
L 115.482825 227.173708 
L 118.63662 244.892108 
L 120.607742 255.400866 
L 122.184639 262.567158 
L 123.367312 266.88687 
L 124.155761 269.166173 
L 124.94421 270.916104 
L 125.732659 272.104175 
L 126.521107 272.706912 
L 126.915332 272.784003 
L 127.309556 272.710224 
L 127.703781 272.485318 
L 128.492229 271.584123 
L 129.280678 270.090446 
L 130.069127 268.02382 
L 130.857576 265.412983 
L 132.040249 260.560587 
L 133.222922 254.730173 
L 134.799819 245.777461 
L 137.55939 228.426557 
L 139.924736 213.93512 
L 141.501634 205.524565 
L 142.684307 200.250943 
L 143.86698 196.070317 
L 144.655429 193.963926 
L 145.443878 192.44138 
L 146.232327 191.526256 
L 146.626551 191.301281 
L 147.020775 191.232727 
L 147.415 191.320861 
L 147.809224 191.56534 
L 148.597673 192.518941 
L 149.386122 194.078764 
L 150.17457 196.220655 
L 150.963019 198.911458 
L 152.145692 203.883635 
L 153.328366 209.822648 
L 154.905263 218.885242 
L 161.212853 257.019467 
L 162.395526 262.504291 
L 163.5782 266.946528 
L 164.366648 269.25531 
L 165.155097 271.002607 
L 165.943546 272.164813 
L 166.33777 272.52169 
L 166.731995 272.727712 
L 167.126219 272.782605 
L 167.520443 272.686704 
L 167.914668 272.440946 
L 168.703117 271.506616 
L 169.491565 269.999023 
L 170.280014 267.946765 
L 171.462687 263.931056 
L 172.64536 258.935395 
L 174.222258 251.091503 
L 176.587604 237.907312 
L 179.347175 222.794681 
L 180.924072 215.446662 
L 182.106746 210.957407 
L 182.895194 208.55509 
L 183.683643 206.678366 
L 184.472092 205.363647 
L 185.260541 204.638545 
L 185.654765 204.503211 
L 186.048989 204.521431 
L 186.443214 204.694009 
L 186.837438 205.021144 
L 187.625887 206.136845 
L 188.414336 207.858024 
L 189.202785 210.164667 
L 190.385458 214.656064 
L 191.568131 220.262138 
L 193.145028 229.16486 
L 195.11615 241.867802 
L 199.452619 270.551383 
L 201.029516 279.363596 
L 202.212189 284.882928 
L 203.394862 289.274769 
L 204.183311 291.509641 
L 204.97176 293.156038 
L 205.760209 294.195118 
L 206.154433 294.483628 
L 206.548658 294.617574 
L 206.942882 294.597307 
L 207.337106 294.423781 
L 207.731331 294.098554 
L 208.519779 293.002194 
L 209.308228 291.332416 
L 210.096677 289.122394 
L 211.27935 284.887608 
L 212.462023 279.705284 
L 214.038921 271.680973 
L 219.952287 239.735422 
L 221.13496 234.81442 
L 222.317633 230.888112 
L 223.106082 228.902069 
L 223.89453 227.464754 
L 224.682979 226.60364 
L 225.077204 226.395225 
L 225.471428 226.336958 
L 225.865652 226.429626 
L 226.259877 226.673411 
L 227.048326 227.612029 
L 227.836774 229.142185 
L 228.625223 231.24376 
L 229.413672 233.887453 
L 230.596345 238.784066 
L 231.779018 244.651207 
L 233.355916 253.638969 
L 236.509711 273.508413 
L 238.875057 287.685045 
L 240.451955 295.690261 
L 241.634628 300.573566 
L 242.423077 303.197864 
L 243.211525 305.268629 
L 243.999974 306.753806 
L 244.788423 307.630396 
L 245.182647 307.835854 
L 245.576872 307.884824 
L 245.971096 307.777116 
L 246.36532 307.513148 
L 247.153769 306.521126 
L 247.942218 304.924121 
L 248.730667 302.746861 
L 249.519115 300.023048 
L 250.701789 295.006884 
L 251.884462 289.031851 
L 253.461359 279.935719 
L 259.768949 241.853454 
L 260.951623 236.408656 
L 262.134296 232.013297 
L 262.922745 229.738743 
L 263.711193 228.027418 
L 264.499642 226.902352 
L 264.893866 226.564296 
L 265.288091 226.377163 
L 265.682315 226.341149 
L 266.07654 226.455847 
L 266.470764 226.72024 
L 267.259213 227.691065 
L 268.047662 229.233631 
L 268.83611 231.318778 
L 270.018783 235.378773 
L 271.201457 240.411254 
L 272.778354 248.290372 
L 275.537925 263.735912 
L 277.903271 276.574186 
L 279.480169 283.879712 
L 280.662842 288.327331 
L 281.451291 290.698024 
L 282.239739 292.5406 
L 283.028188 293.819183 
L 283.816637 294.506727 
L 284.210861 294.622932 
L 284.605086 294.585448 
L 284.99931 294.393549 
L 285.393534 294.047111 
L 286.181983 292.89316 
L 286.970432 291.134705 
L 287.758881 288.792348 
L 288.941554 284.251522 
L 290.124227 278.602531 
L 291.701125 269.655292 
L 293.672247 256.920871 
L 298.008715 228.272255 
L 299.585612 219.506027 
L 300.768286 214.030515 
L 301.950959 209.688797 
L 302.739407 207.489976 
L 303.527856 205.881082 
L 304.316305 204.880369 
L 304.710529 204.611177 
L 305.104754 204.496539 
L 305.498978 204.536029 
L 305.893203 204.728615 
L 306.287427 205.072665 
L 307.075876 206.205668 
L 307.864324 207.910274 
L 308.652773 210.152763 
L 309.835446 214.430727 
L 311.01812 219.648273 
L 312.595017 227.705092 
L 318.508383 259.607082 
L 319.691056 264.49025 
L 320.873729 268.371448 
L 321.662178 270.32417 
L 322.450627 271.726183 
L 323.239075 272.550582 
L 323.6333 272.740292 
L 324.027524 272.779722 
L 324.421749 272.668162 
L 324.815973 272.405505 
L 325.604422 271.429505 
L 326.392871 269.862948 
L 327.181319 267.72654 
L 327.969768 265.050139 
L 329.152441 260.109592 
L 330.335114 254.206067 
L 331.912012 245.183785 
L 335.065807 225.300429 
L 337.431153 211.163074 
L 339.008051 203.205349 
L 340.190724 198.366925 
L 340.979173 195.77612 
L 341.767622 193.741106 
L 342.55607 192.293389 
L 343.344519 191.455385 
L 343.738743 191.269457 
L 344.132968 191.240074 
L 344.527192 191.36735 
L 344.921417 191.650791 
L 345.709865 192.681173 
L 346.498314 194.315264 
L 347.286763 196.527761 
L 348.075212 199.284418 
L 349.257885 204.344266 
L 350.440558 210.354957 
L 352.017456 219.484081 
L 357.930821 255.506076 
L 359.113494 261.224274 
L 360.296168 265.942359 
L 361.084616 268.453755 
L 361.873065 270.41487 
L 362.661514 271.798662 
L 363.449963 272.587359 
L 363.844187 272.755601 
L 364.238411 272.77274 
L 364.632636 272.639263 
L 365.02686 272.356259 
L 365.815309 271.349018 
L 366.603758 269.771593 
L 367.392207 267.653704 
L 368.57488 263.549706 
L 369.757553 258.480745 
L 371.33445 250.566932 
L 374.094021 235.104541 
L 376.459367 222.298026 
L 378.036265 215.035493 
L 379.218938 210.629824 
L 380.007387 208.290928 
L 380.795836 206.482639 
L 381.584284 205.240298 
L 382.372733 204.590382 
L 382.766958 204.493328 
L 383.161182 204.550086 
L 383.555406 204.761308 
L 383.949631 205.127043 
L 384.738079 206.3192 
L 385.526528 208.114849 
L 386.314977 210.492805 
L 387.49765 215.08282 
L 388.680323 220.774424 
L 390.257221 229.765684 
L 392.228343 242.530871 
L 396.564811 271.142912 
L 398.141709 279.86267 
L 399.324382 285.294068 
L 400.507055 289.585437 
L 401.295504 291.7481 
L 402.083952 293.319419 
L 402.872401 294.281732 
L 403.266626 294.531602 
L 403.66085 294.626938 
L 404.055074 294.568243 
L 404.449299 294.356622 
L 405.237748 293.482026 
L 406.026196 292.023865 
L 406.814645 290.011997 
L 407.603094 287.484949 
L 408.785767 282.832332 
L 410.362665 275.319413 
L 412.333786 264.57384 
L 415.881806 244.956427 
L 417.458703 237.575716 
L 418.641377 233.047716 
L 419.429825 230.611006 
L 420.218274 228.691746 
L 421.006723 227.32514 
L 421.795172 226.537525 
L 422.189396 226.366541 
L 422.58362 226.345957 
L 422.977845 226.476411 
L 423.372069 226.757932 
L 424.160518 227.771271 
L 424.948967 229.374147 
L 425.737416 231.545272 
L 426.525864 234.25423 
L 427.708537 239.238428 
L 428.891211 245.177991 
L 430.468108 254.234258 
L 434.016128 276.600115 
L 435.98725 288.227564 
L 437.564147 296.137315 
L 438.74682 300.930566 
L 439.535269 303.487723 
L 440.323718 305.486861 
L 441.112167 306.897032 
L 441.900615 307.696398 
L 442.29484 307.862785 
L 442.689064 307.872579 
L 443.083288 307.725744 
L 443.477513 307.422847 
L 444.265962 306.354167 
L 445.05441 304.683089 
L 445.842859 302.435488 
L 447.025532 298.061514 
L 448.208205 292.622596 
L 449.785103 284.044979 
L 452.150449 269.43622 
L 455.304244 249.855319 
L 456.881142 241.363843 
L 458.063815 236.000045 
L 459.246488 231.699188 
L 460.034937 229.493465 
L 460.823386 227.854353 
L 461.611835 226.803723 
L 462.006059 226.503346 
L 462.400283 226.353998 
L 462.794508 226.355724 
L 463.188732 226.507964 
L 463.582956 226.809553 
L 464.371405 227.85313 
L 465.159854 229.465297 
L 465.948303 231.615777 
L 467.130976 235.763496 
L 468.313649 240.868592 
L 469.890547 248.816568 
L 472.650117 264.294774 
L 475.015464 277.068668 
L 476.592361 284.287708 
L 477.775034 288.651116 
L 478.563483 290.958045 
L 479.351932 292.731908 
L 480.140381 293.937904 
L 480.928829 294.550124 
L 481.323054 294.628008 
L 481.717278 294.551965 
L 482.111503 294.321419 
L 482.899951 293.397538 
L 483.6884 291.863862 
L 484.476849 289.737464 
L 485.265298 287.044723 
L 486.447971 282.023192 
L 487.630644 275.962278 
L 489.207541 266.597527 
L 491.572888 250.904241 
L 494.726683 230.067773 
L 496.30358 221.032987 
L 497.486254 215.299081 
L 498.668927 210.660116 
L 499.457376 208.246681 
L 500.245824 206.41392 
L 501.034273 205.183602 
L 501.822722 204.568035 
L 502.216946 204.491992 
L 502.611171 204.569876 
L 503.005395 204.800504 
L 503.793844 205.712277 
L 504.582293 207.206012 
L 505.370741 209.251294 
L 506.15919 211.809074 
L 507.341863 216.501724 
L 508.918761 224.054588 
L 510.889883 234.825226 
L 514.437902 254.413189 
L 516.0148 261.752002 
L 517.197473 266.238955 
L 517.985922 268.644516 
L 518.77437 270.530177 
L 519.562819 271.861273 
L 520.351268 272.612036 
L 520.745492 272.764276 
L 521.139717 272.766002 
L 521.533941 272.616654 
L 521.928165 272.316277 
L 522.716614 271.265647 
L 523.505063 269.626535 
L 524.293512 267.420812 
L 525.476185 263.119955 
L 526.658858 257.756157 
L 528.235756 249.264681 
L 530.206878 237.228102 
L 534.149121 212.812439 
L 535.726019 204.577071 
L 536.908692 199.473846 
L 538.091365 195.490617 
L 538.879814 193.527475 
L 539.668263 192.154937 
L 540.456712 191.394256 
L 540.850936 191.247421 
L 541.24516 191.257215 
L 541.639385 191.423602 
L 542.033609 191.745936 
L 542.822058 192.852849 
L 543.610507 194.560813 
L 544.398955 196.843381 
L 545.581629 201.265038 
L 546.764302 206.744465 
L 548.341199 215.362559 
L 550.706546 229.998455 
L 553.860341 249.548931 
L 555.437238 257.99866 
L 556.619911 263.32149 
L 557.802584 267.574728 
L 558.591033 269.745853 
L 559.379482 271.348729 
L 560.167931 272.362068 
L 560.562155 272.643589 
L 560.95638 272.774043 
L 561.350604 272.753459 
L 561.744828 272.582475 
L 562.139053 272.262329 
L 562.927501 271.182498 
L 563.71595 269.535707 
L 564.504399 267.352788 
L 565.687072 263.161635 
L 566.869745 258.02075 
L 568.446643 250.039145 
L 571.600438 232.324868 
L 573.57156 221.80575 
L 575.148457 214.630699 
L 576.331131 210.30986 
L 577.119579 208.035067 
L 577.908028 206.295766 
L 578.696477 205.126217 
L 579.090701 204.763378 
L 579.484926 204.551757 
L 579.87915 204.493062 
L 580.273374 204.588398 
L 580.667599 204.838268 
L 581.456048 205.800581 
L 582.244496 207.3719 
L 583.032945 209.534563 
L 583.821394 212.261618 
L 585.004067 217.329797 
L 586.18674 223.430123 
L 587.763638 232.833803 
L 590.128984 248.551753 
L 593.282779 269.354316 
L 594.859677 278.345576 
L 596.04235 284.03718 
L 597.225023 288.627195 
L 598.013472 291.005151 
L 598.801921 292.8008 
L 599.590369 293.992957 
L 599.984594 294.358692 
L 600.378818 294.569914 
L 600.773042 294.626672 
L 601.167267 294.529618 
L 601.561491 294.280009 
L 602.34994 293.331143 
L 603.138389 291.801953 
L 603.926838 289.72341 
L 605.109511 285.664313 
L 606.292184 280.626439 
L 607.869081 272.737589 
L 610.628652 257.28575 
L 612.993998 244.458257 
L 614.570896 237.161838 
L 615.753569 232.71624 
L 616.542018 230.341996 
L 617.330467 228.49007 
L 618.118915 227.194584 
L 618.907364 226.480737 
L 619.301589 226.34726 
L 619.695813 226.364399 
L 620.090037 226.532641 
L 620.484262 226.851863 
L 621.27271 227.939737 
L 622.061159 229.614999 
L 622.849608 231.8552 
L 624.032281 236.203431 
L 625.214954 241.607886 
L 626.791852 250.140608 
L 628.762974 262.204327 
L 632.705218 286.585413 
L 634.282115 294.775734 
L 635.464788 299.835582 
L 636.647461 303.768852 
L 637.43591 305.695879 
L 638.224359 307.030702 
L 639.012808 307.75265 
L 639.407032 307.879926 
L 639.801257 307.850543 
L 640.195481 307.664615 
L 640.589705 307.322863 
L 641.378154 306.177783 
L 642.166603 304.433038 
L 642.955052 302.11564 
L 644.137725 297.646568 
L 645.320398 292.126965 
L 646.897295 283.468913 
L 649.262642 268.80676 
L 652.416437 249.287875 
L 653.993334 240.880391 
L 655.176008 235.598838 
L 656.358681 231.39346 
L 657.147129 229.257052 
L 657.935578 227.690495 
L 658.724027 226.714495 
L 659.118251 226.451838 
L 659.512476 226.340278 
L 659.9067 226.379708 
L 660.300925 226.569418 
L 660.695149 226.908092 
L 661.483598 228.024091 
L 662.272046 229.705385 
L 663.060495 231.920589 
L 664.243168 236.154888 
L 665.425842 241.331213 
L 667.002739 249.34591 
L 672.916105 281.303134 
L 674.098778 286.228995 
L 675.281451 290.153274 
L 676.0699 292.131576 
L 676.858349 293.554047 
L 677.646797 294.391385 
L 678.041022 294.583971 
L 678.435246 294.623461 
L 678.829471 294.508823 
L 679.223695 294.239631 
L 680.012144 293.238918 
L 680.800593 291.630024 
L 681.589041 289.431203 
L 682.37749 286.669973 
L 683.560163 281.555417 
L 684.742836 275.416013 
L 686.319734 265.973927 
L 689.079305 247.544017 
L 691.838875 229.464708 
L 693.415773 220.517469 
L 694.598446 214.868478 
L 695.781119 210.327652 
L 696.569568 207.985295 
L 697.358017 206.22684 
L 698.146466 205.072889 
L 698.54069 204.726451 
L 698.934914 204.534552 
L 699.329139 204.497068 
L 699.723363 204.613273 
L 700.117587 204.881832 
L 700.906036 205.867706 
L 701.694485 207.43223 
L 702.482934 209.54388 
L 703.665607 213.647341 
L 704.84828 218.721857 
L 706.425178 226.645382 
L 709.184748 242.113708 
L 711.550095 254.909219 
L 713.126992 262.162751 
L 714.309665 266.566688 
L 715.098114 268.909449 
L 715.886563 270.727508 
L 716.675012 271.987284 
L 717.46346 272.664153 
L 717.857685 272.778851 
L 718.251909 272.742837 
L 718.646134 272.555704 
L 719.040358 272.217648 
L 719.828807 271.092582 
L 720.617255 269.381257 
L 721.405704 267.106703 
L 722.588377 262.711344 
L 723.771051 257.266546 
L 725.347948 248.693079 
L 727.713294 234.092354 
L 730.867089 214.502986 
L 732.443987 206.007875 
L 733.62666 200.650957 
L 734.809333 196.373139 
L 735.597782 194.195879 
L 736.386231 192.598874 
L 737.17468 191.606852 
L 737.568904 191.342884 
L 737.963128 191.235176 
L 738.357353 191.284146 
L 738.751577 191.489604 
L 739.145802 191.850753 
L 739.93425 193.033929 
L 740.722699 194.815351 
L 741.511148 197.167438 
L 742.693821 201.683655 
L 743.876494 207.243102 
L 745.453392 215.940588 
L 747.818738 230.628116 
L 750.972533 250.114245 
L 752.549431 258.47899 
L 753.732104 263.718961 
L 754.914777 267.87624 
L 755.703226 269.977815 
L 756.491674 271.507971 
L 757.280123 272.446589 
L 757.674348 272.690374 
L 758.068572 272.783042 
L 758.462796 272.724775 
L 758.857021 272.51636 
L 759.64547 271.655246 
L 760.433918 270.217931 
L 761.222367 268.231888 
L 762.010816 265.733393 
L 763.193489 261.12423 
L 764.376162 255.645005 
L 766.347284 245.167921 
L 770.683752 221.317988 
L 772.26065 214.232392 
L 773.443323 209.997606 
L 774.231772 207.787584 
L 775.020221 206.117806 
L 775.808669 205.021446 
L 776.202894 204.696219 
L 776.597118 204.522693 
L 776.991342 204.502426 
L 777.385567 204.636372 
L 777.779791 204.924882 
L 778.56824 205.963962 
L 779.356689 207.610359 
L 780.145138 209.845231 
L 780.933586 212.640493 
L 782.116259 217.801154 
L 783.298933 223.9793 
L 784.87583 233.459266 
L 787.635401 251.911693 
L 790.394972 269.95514 
L 791.971869 278.857862 
L 793.154542 284.463936 
L 794.337215 288.955333 
L 795.125664 291.261976 
L 795.914113 292.983155 
L 796.702562 294.098856 
L 797.096786 294.425991 
L 797.491011 294.598569 
L 797.885235 294.616789 
L 798.279459 294.481455 
L 798.673684 294.193975 
L 799.462132 293.171182 
L 800.250581 291.571447 
L 801.03903 289.426846 
L 802.221703 285.279315 
L 803.404376 280.168508 
L 804.981274 272.210846 
L 808.135069 254.504129 
L 810.106191 243.964402 
L 811.683088 236.754246 
L 812.865762 232.392271 
L 813.65421 230.081158 
L 814.442659 228.297099 
L 815.231108 227.073128 
L 816.019557 226.433296 
L 816.413781 226.337395 
L 816.808005 226.392288 
L 817.20223 226.59831 
L 817.596454 226.955187 
L 818.384903 228.117393 
L 819.173352 229.86469 
L 819.9618 232.173472 
L 821.144474 236.615709 
L 822.327147 242.100533 
L 823.904044 250.714239 
L 826.269391 265.342277 
L 829.423186 284.901477 
L 831.000083 293.354565 
L 832.182756 298.669995 
L 833.36543 302.899345 
L 834.153878 305.041236 
L 834.942327 306.601059 
L 835.730776 307.55466 
L 836.125 307.799139 
L 836.519225 307.887273 
L 836.913449 307.818719 
L 837.307673 307.593744 
L 838.096122 306.67862 
L 838.884571 305.156074 
L 839.67302 303.049683 
L 840.461468 300.392052 
L 841.644142 295.464162 
L 842.826815 289.561527 
L 844.403712 280.53302 
L 847.557507 260.645597 
L 849.528629 248.724725 
L 851.105527 240.403211 
L 852.2882 235.205126 
L 853.470873 231.09618 
L 854.259322 229.029554 
L 855.047771 227.535877 
L 855.836219 226.634682 
L 856.230444 226.409776 
L 856.624668 226.335997 
L 857.018893 226.413088 
L 857.413117 226.640186 
L 858.201566 227.537945 
L 858.990015 229.010454 
L 859.778463 231.029676 
L 860.566912 233.558804 
L 861.749585 238.208076 
L 863.326483 245.71148 
L 865.297605 256.448109 
L 868.845624 276.075392 
L 870.422522 283.465398 
L 871.605195 287.995974 
L 872.393644 290.42974 
L 873.182092 292.340469 
L 873.970541 293.691216 
L 874.75899 294.453806 
L 875.153214 294.608247 
L 875.547439 294.609278 
L 875.941663 294.456018 
L 876.335887 294.148192 
L 877.124336 293.070783 
L 877.912785 291.386956 
L 878.701234 289.116143 
L 879.489683 286.286993 
L 880.672356 281.080503 
L 881.855029 274.863955 
L 883.431926 265.346635 
L 885.797273 249.56 
L 885.797273 249.56 
" style="fill:none;stroke:#00ffff;stroke-linecap:square;stroke-width:1.5;"/>
   </g>
   <g id="patch_9">
    <path d="M 58.34 313.72 
L 58.34 185.4 
" style="fill:none;stroke:#ffffff;stroke-linecap:square;stroke-linejoin:miter;stroke-width:0.8;"/>
   </g>
   <g id="patch_10">
    <path d="M 925.2 313.72 
L 925.2 185.4 
" style="fill:none;stroke:#ffffff;stroke-linecap:square;stroke-linejoin:miter;stroke-width:0.8;"/>
   </g>
   <g id="patch_11">
    <path d="M 58.34 313.72 
L 925.2 313.72 
" style="fill:none;stroke:#ffffff;stroke-linecap:square;stroke-linejoin:miter;stroke-width:0.8;"/>
   </g>
   <g id="patch_12">
    <path d="M 58.34 185.4 
L 925.2 185.4 
" style="fill:none;stroke:#ffffff;stroke-linecap:square;stroke-linejoin:miter;stroke-width:0.8;"/>
   </g>
   <g id="legend_2">
    <g id="patch_13">
     <path d="M 785.184375 208.078125 
L 918.2 208.078125 
Q 920.2 208.078125 920.2 206.078125 
L 920.2 192.4 
Q 920.2 190.4 918.2 190.4 
L 785.184375 190.4 
Q 783.184375 190.4 783.184375 192.4 
L 783.184375 206.078125 
Q 783.184375 208.078125 785.184375 208.078125 
z
" style="fill:#121212;opacity:0.8;stroke:#ffffff;stroke-linejoin:miter;"/>
    </g>
    <g id="line2d_41">
     <path d="M 787.184375 198.498437 
L 807.184375 198.498437 
" style="fill:none;stroke:#00ffff;stroke-linecap:square;stroke-width:1.5;"/>
    </g>
    <g id="line2d_42"/>
    <g id="text_24">
     <!-- Original Time Series -->
     <defs>
      <path d="M 39.40625 66.21875 
Q 28.65625 66.21875 22.328125 58.203125 
Q 16.015625 50.203125 16.015625 36.375 
Q 16.015625 22.609375 22.328125 14.59375 
Q 28.65625 6.59375 39.40625 6.59375 
Q 50.140625 6.59375 56.421875 14.59375 
Q 62.703125 22.609375 62.703125 36.375 
Q 62.703125 50.203125 56.421875 58.203125 
Q 50.140625 66.21875 39.40625 66.21875 
z
M 39.40625 74.21875 
Q 54.734375 74.21875 63.90625 63.9375 
Q 73.09375 53.65625 73.09375 36.375 
Q 73.09375 19.140625 63.90625 8.859375 
Q 54.734375 -1.421875 39.40625 -1.421875 
Q 24.03125 -1.421875 14.8125 8.828125 
Q 5.609375 19.09375 5.609375 36.375 
Q 5.609375 53.65625 14.8125 63.9375 
Q 24.03125 74.21875 39.40625 74.21875 
z
" id="DejaVuSans-79"/>
      <path d="M 45.40625 27.984375 
Q 45.40625 37.75 41.375 43.109375 
Q 37.359375 48.484375 30.078125 48.484375 
Q 22.859375 48.484375 18.828125 43.109375 
Q 14.796875 37.75 14.796875 27.984375 
Q 14.796875 18.265625 18.828125 12.890625 
Q 22.859375 7.515625 30.078125 7.515625 
Q 37.359375 7.515625 41.375 12.890625 
Q 45.40625 18.265625 45.40625 27.984375 
z
M 54.390625 6.78125 
Q 54.390625 -7.171875 48.1875 -13.984375 
Q 42 -20.796875 29.203125 -20.796875 
Q 24.46875 -20.796875 20.265625 -20.09375 
Q 16.0625 -19.390625 12.109375 -17.921875 
L 12.109375 -9.1875 
Q 16.0625 -11.328125 19.921875 -12.34375 
Q 23.78125 -13.375 27.78125 -13.375 
Q 36.625 -13.375 41.015625 -8.765625 
Q 45.40625 -4.15625 45.40625 5.171875 
L 45.40625 9.625 
Q 42.625 4.78125 38.28125 2.390625 
Q 33.9375 0 27.875 0 
Q 17.828125 0 11.671875 7.65625 
Q 5.515625 15.328125 5.515625 27.984375 
Q 5.515625 40.671875 11.671875 48.328125 
Q 17.828125 56 27.875 56 
Q 33.9375 56 38.28125 53.609375 
Q 42.625 51.21875 45.40625 46.390625 
L 45.40625 54.6875 
L 54.390625 54.6875 
z
" id="DejaVuSans-103"/>
      <path d="M 34.28125 27.484375 
Q 23.390625 27.484375 19.1875 25 
Q 14.984375 22.515625 14.984375 16.5 
Q 14.984375 11.71875 18.140625 8.90625 
Q 21.296875 6.109375 26.703125 6.109375 
Q 34.1875 6.109375 38.703125 11.40625 
Q 43.21875 16.703125 43.21875 25.484375 
L 43.21875 27.484375 
z
M 52.203125 31.203125 
L 52.203125 0 
L 43.21875 0 
L 43.21875 8.296875 
Q 40.140625 3.328125 35.546875 0.953125 
Q 30.953125 -1.421875 24.3125 -1.421875 
Q 15.921875 -1.421875 10.953125 3.296875 
Q 6 8.015625 6 15.921875 
Q 6 25.140625 12.171875 29.828125 
Q 18.359375 34.515625 30.609375 34.515625 
L 43.21875 34.515625 
L 43.21875 35.40625 
Q 43.21875 41.609375 39.140625 45 
Q 35.0625 48.390625 27.6875 48.390625 
Q 23 48.390625 18.546875 47.265625 
Q 14.109375 46.140625 10.015625 43.890625 
L 10.015625 52.203125 
Q 14.9375 54.109375 19.578125 55.046875 
Q 24.21875 56 28.609375 56 
Q 40.484375 56 46.34375 49.84375 
Q 52.203125 43.703125 52.203125 31.203125 
z
" id="DejaVuSans-97"/>
      <path d="M 53.515625 70.515625 
L 53.515625 60.890625 
Q 47.90625 63.578125 42.921875 64.890625 
Q 37.9375 66.21875 33.296875 66.21875 
Q 25.25 66.21875 20.875 63.09375 
Q 16.5 59.96875 16.5 54.203125 
Q 16.5 49.359375 19.40625 46.890625 
Q 22.3125 44.4375 30.421875 42.921875 
L 36.375 41.703125 
Q 47.40625 39.59375 52.65625 34.296875 
Q 57.90625 29 57.90625 20.125 
Q 57.90625 9.515625 50.796875 4.046875 
Q 43.703125 -1.421875 29.984375 -1.421875 
Q 24.8125 -1.421875 18.96875 -0.25 
Q 13.140625 0.921875 6.890625 3.21875 
L 6.890625 13.375 
Q 12.890625 10.015625 18.65625 8.296875 
Q 24.421875 6.59375 29.984375 6.59375 
Q 38.421875 6.59375 43.015625 9.90625 
Q 47.609375 13.234375 47.609375 19.390625 
Q 47.609375 24.75 44.3125 27.78125 
Q 41.015625 30.8125 33.5 32.328125 
L 27.484375 33.5 
Q 16.453125 35.6875 11.515625 40.375 
Q 6.59375 45.0625 6.59375 53.421875 
Q 6.59375 63.09375 13.40625 68.65625 
Q 20.21875 74.21875 32.171875 74.21875 
Q 37.3125 74.21875 42.625 73.28125 
Q 47.953125 72.359375 53.515625 70.515625 
z
" id="DejaVuSans-83"/>
     </defs>
     <g style="fill:#ffffff;" transform="translate(815.184375 201.998437)scale(0.1 -0.1)">
      <use xlink:href="#DejaVuSans-79"/>
      <use x="78.710938" xlink:href="#DejaVuSans-114"/>
      <use x="119.824219" xlink:href="#DejaVuSans-105"/>
      <use x="147.607422" xlink:href="#DejaVuSans-103"/>
      <use x="211.083984" xlink:href="#DejaVuSans-105"/>
      <use x="238.867188" xlink:href="#DejaVuSans-110"/>
      <use x="302.246094" xlink:href="#DejaVuSans-97"/>
      <use x="363.525391" xlink:href="#DejaVuSans-108"/>
      <use x="391.308594" xlink:href="#DejaVuSans-32"/>
      <use x="423.095703" xlink:href="#DejaVuSans-84"/>
      <use x="484.132812" xlink:href="#DejaVuSans-105"/>
      <use x="511.916016" xlink:href="#DejaVuSans-109"/>
      <use x="609.328125" xlink:href="#DejaVuSans-101"/>
      <use x="670.851562" xlink:href="#DejaVuSans-32"/>
      <use x="702.638672" xlink:href="#DejaVuSans-83"/>
      <use x="766.115234" xlink:href="#DejaVuSans-101"/>
      <use x="827.638672" xlink:href="#DejaVuSans-114"/>
      <use x="868.751953" xlink:href="#DejaVuSans-105"/>
      <use x="896.535156" xlink:href="#DejaVuSans-101"/>
      <use x="958.058594" xlink:href="#DejaVuSans-115"/>
     </g>
    </g>
   </g>
  </g>
 </g>
 <defs>
  <clipPath id="pd790709691">
   <rect height="128.32" width="866.86" x="58.34" y="10.8"/>
  </clipPath>
  <clipPath id="p1c438d94d4">
   <rect height="128.32" width="866.86" x="58.34" y="185.4"/>
  </clipPath>
 </defs>
</svg>
