<?xml version="1.0" encoding="utf-8" standalone="no"?>
<!DOCTYPE svg PUBLIC "-//W3C//DTD SVG 1.1//EN"
  "http://www.w3.org/Graphics/SVG/1.1/DTD/svg11.dtd">
<svg xmlns:xlink="http://www.w3.org/1999/xlink" width="460.8pt" height="345.6pt" viewBox="0 0 460.8 345.6" xmlns="http://www.w3.org/2000/svg" version="1.1">
 <metadata>
  <rdf:RDF xmlns:dc="http://purl.org/dc/elements/1.1/" xmlns:cc="http://creativecommons.org/ns#" xmlns:rdf="http://www.w3.org/1999/02/22-rdf-syntax-ns#">
   <cc:Work>
    <dc:type rdf:resource="http://purl.org/dc/dcmitype/StillImage"/>
    <dc:date>2025-11-13T11:49:32.068467</dc:date>
    <dc:format>image/svg+xml</dc:format>
    <dc:creator>
     <cc:Agent>
      <dc:title>Matplotlib v3.10.3, https://matplotlib.org/</dc:title>
     </cc:Agent>
    </dc:creator>
   </cc:Work>
  </rdf:RDF>
 </metadata>
 <defs>
  <style type="text/css">*{stroke-linejoin: round; stroke-linecap: butt}</style>
 </defs>
 <g id="figure_1">
  <g id="patch_1">
   <path d="M 0 345.6 
L 460.8 345.6 
L 460.8 0 
L 0 0 
z
" style="fill: #121212"/>
  </g>
  <g id="axes_1">
   <g id="patch_2">
    <path d="M 57.6 307.584 
L 414.72 307.584 
L 414.72 41.472 
L 57.6 41.472 
z
" style="fill: #121212"/>
   </g>
   <g id="FillBetweenPolyCollection_1">
    <defs>
     <path id="m6eb34d3dca" d="M 389.441171 -220.20091 
L 389.441171 -183.786132 
L 390.446293 -189.572093 
L 391.451416 -202.819516 
L 392.456538 -194.996143 
L 393.461661 -193.358698 
L 394.466783 -177.55948 
L 395.471905 -155.505733 
L 396.477028 -148.967105 
L 397.48215 -140.07497 
L 398.487273 -143.853091 
L 398.487273 -258.871507 
L 398.487273 -258.871507 
L 397.48215 -260.546039 
L 396.477028 -245.866489 
L 395.471905 -237.819861 
L 394.466783 -215.98646 
L 393.461661 -202.506328 
L 392.456538 -208.548753 
L 391.451416 -208.356284 
L 390.446293 -219.019187 
L 389.441171 -220.20091 
z
" style="stroke: #00ffff; stroke-opacity: 0.2"/>
    </defs>
    <g clip-path="url(#p1cf574c001)">
     <use xlink:href="#m6eb34d3dca" x="0" y="345.6" style="fill: #00ffff; fill-opacity: 0.2; stroke: #00ffff; stroke-opacity: 0.2"/>
    </g>
   </g>
   <g id="matplotlib.axis_1">
    <g id="xtick_1">
     <g id="line2d_1">
      <path d="M 73.832727 307.584 
L 73.832727 41.472 
" clip-path="url(#p1cf574c001)" style="fill: none; stroke: #ffffff; stroke-opacity: 0.4; stroke-width: 0.8; stroke-linecap: square"/>
     </g>
     <g id="line2d_2">
      <defs>
       <path id="m357808689d" d="M 0 0 
L 0 3.5 
" style="stroke: #ffffff; stroke-width: 0.8"/>
      </defs>
      <g>
       <use xlink:href="#m357808689d" x="73.832727" y="307.584" style="fill: #ffffff; stroke: #ffffff; stroke-width: 0.8"/>
      </g>
     </g>
     <g id="text_1">
      <!-- 2024-01 -->
      <g style="fill: #ffffff" transform="translate(58.447189 356.48538) rotate(-45) scale(0.12 -0.12)">
       <defs>
        <path id="DejaVuSans-32" d="M 1228 531 
L 3431 531 
L 3431 0 
L 469 0 
L 469 531 
Q 828 903 1448 1529 
Q 2069 2156 2228 2338 
Q 2531 2678 2651 2914 
Q 2772 3150 2772 3378 
Q 2772 3750 2511 3984 
Q 2250 4219 1831 4219 
Q 1534 4219 1204 4116 
Q 875 4013 500 3803 
L 500 4441 
Q 881 4594 1212 4672 
Q 1544 4750 1819 4750 
Q 2544 4750 2975 4387 
Q 3406 4025 3406 3419 
Q 3406 3131 3298 2873 
Q 3191 2616 2906 2266 
Q 2828 2175 2409 1742 
Q 1991 1309 1228 531 
z
" transform="scale(0.015625)"/>
        <path id="DejaVuSans-30" d="M 2034 4250 
Q 1547 4250 1301 3770 
Q 1056 3291 1056 2328 
Q 1056 1369 1301 889 
Q 1547 409 2034 409 
Q 2525 409 2770 889 
Q 3016 1369 3016 2328 
Q 3016 3291 2770 3770 
Q 2525 4250 2034 4250 
z
M 2034 4750 
Q 2819 4750 3233 4129 
Q 3647 3509 3647 2328 
Q 3647 1150 3233 529 
Q 2819 -91 2034 -91 
Q 1250 -91 836 529 
Q 422 1150 422 2328 
Q 422 3509 836 4129 
Q 1250 4750 2034 4750 
z
" transform="scale(0.015625)"/>
        <path id="DejaVuSans-34" d="M 2419 4116 
L 825 1625 
L 2419 1625 
L 2419 4116 
z
M 2253 4666 
L 3047 4666 
L 3047 1625 
L 3713 1625 
L 3713 1100 
L 3047 1100 
L 3047 0 
L 2419 0 
L 2419 1100 
L 313 1100 
L 313 1709 
L 2253 4666 
z
" transform="scale(0.015625)"/>
        <path id="DejaVuSans-2d" d="M 313 2009 
L 1997 2009 
L 1997 1497 
L 313 1497 
L 313 2009 
z
" transform="scale(0.015625)"/>
        <path id="DejaVuSans-31" d="M 794 531 
L 1825 531 
L 1825 4091 
L 703 3866 
L 703 4441 
L 1819 4666 
L 2450 4666 
L 2450 531 
L 3481 531 
L 3481 0 
L 794 0 
L 794 531 
z
" transform="scale(0.015625)"/>
       </defs>
       <use xlink:href="#DejaVuSans-32"/>
       <use xlink:href="#DejaVuSans-30" transform="translate(63.623047 0)"/>
       <use xlink:href="#DejaVuSans-32" transform="translate(127.246094 0)"/>
       <use xlink:href="#DejaVuSans-34" transform="translate(190.869141 0)"/>
       <use xlink:href="#DejaVuSans-2d" transform="translate(254.492188 0)"/>
       <use xlink:href="#DejaVuSans-30" transform="translate(290.576172 0)"/>
       <use xlink:href="#DejaVuSans-31" transform="translate(354.199219 0)"/>
      </g>
     </g>
    </g>
    <g id="xtick_2">
     <g id="line2d_3">
      <path d="M 104.991523 307.584 
L 104.991523 41.472 
" clip-path="url(#p1cf574c001)" style="fill: none; stroke: #ffffff; stroke-opacity: 0.4; stroke-width: 0.8; stroke-linecap: square"/>
     </g>
     <g id="line2d_4">
      <g>
       <use xlink:href="#m357808689d" x="104.991523" y="307.584" style="fill: #ffffff; stroke: #ffffff; stroke-width: 0.8"/>
      </g>
     </g>
     <g id="text_2">
      <!-- 2024-02 -->
      <g style="fill: #ffffff" transform="translate(89.605984 356.48538) rotate(-45) scale(0.12 -0.12)">
       <use xlink:href="#DejaVuSans-32"/>
       <use xlink:href="#DejaVuSans-30" transform="translate(63.623047 0)"/>
       <use xlink:href="#DejaVuSans-32" transform="translate(127.246094 0)"/>
       <use xlink:href="#DejaVuSans-34" transform="translate(190.869141 0)"/>
       <use xlink:href="#DejaVuSans-2d" transform="translate(254.492188 0)"/>
       <use xlink:href="#DejaVuSans-30" transform="translate(290.576172 0)"/>
       <use xlink:href="#DejaVuSans-32" transform="translate(354.199219 0)"/>
      </g>
     </g>
    </g>
    <g id="xtick_3">
     <g id="line2d_5">
      <path d="M 134.140073 307.584 
L 134.140073 41.472 
" clip-path="url(#p1cf574c001)" style="fill: none; stroke: #ffffff; stroke-opacity: 0.4; stroke-width: 0.8; stroke-linecap: square"/>
     </g>
     <g id="line2d_6">
      <g>
       <use xlink:href="#m357808689d" x="134.140073" y="307.584" style="fill: #ffffff; stroke: #ffffff; stroke-width: 0.8"/>
      </g>
     </g>
     <g id="text_3">
      <!-- 2024-03 -->
      <g style="fill: #ffffff" transform="translate(118.754534 356.48538) rotate(-45) scale(0.12 -0.12)">
       <defs>
        <path id="DejaVuSans-33" d="M 2597 2516 
Q 3050 2419 3304 2112 
Q 3559 1806 3559 1356 
Q 3559 666 3084 287 
Q 2609 -91 1734 -91 
Q 1441 -91 1130 -33 
Q 819 25 488 141 
L 488 750 
Q 750 597 1062 519 
Q 1375 441 1716 441 
Q 2309 441 2620 675 
Q 2931 909 2931 1356 
Q 2931 1769 2642 2001 
Q 2353 2234 1838 2234 
L 1294 2234 
L 1294 2753 
L 1863 2753 
Q 2328 2753 2575 2939 
Q 2822 3125 2822 3475 
Q 2822 3834 2567 4026 
Q 2313 4219 1838 4219 
Q 1578 4219 1281 4162 
Q 984 4106 628 3988 
L 628 4550 
Q 988 4650 1302 4700 
Q 1616 4750 1894 4750 
Q 2613 4750 3031 4423 
Q 3450 4097 3450 3541 
Q 3450 3153 3228 2886 
Q 3006 2619 2597 2516 
z
" transform="scale(0.015625)"/>
       </defs>
       <use xlink:href="#DejaVuSans-32"/>
       <use xlink:href="#DejaVuSans-30" transform="translate(63.623047 0)"/>
       <use xlink:href="#DejaVuSans-32" transform="translate(127.246094 0)"/>
       <use xlink:href="#DejaVuSans-34" transform="translate(190.869141 0)"/>
       <use xlink:href="#DejaVuSans-2d" transform="translate(254.492188 0)"/>
       <use xlink:href="#DejaVuSans-30" transform="translate(290.576172 0)"/>
       <use xlink:href="#DejaVuSans-33" transform="translate(354.199219 0)"/>
      </g>
     </g>
    </g>
    <g id="xtick_4">
     <g id="line2d_7">
      <path d="M 165.298869 307.584 
L 165.298869 41.472 
" clip-path="url(#p1cf574c001)" style="fill: none; stroke: #ffffff; stroke-opacity: 0.4; stroke-width: 0.8; stroke-linecap: square"/>
     </g>
     <g id="line2d_8">
      <g>
       <use xlink:href="#m357808689d" x="165.298869" y="307.584" style="fill: #ffffff; stroke: #ffffff; stroke-width: 0.8"/>
      </g>
     </g>
     <g id="text_4">
      <!-- 2024-04 -->
      <g style="fill: #ffffff" transform="translate(149.91333 356.48538) rotate(-45) scale(0.12 -0.12)">
       <use xlink:href="#DejaVuSans-32"/>
       <use xlink:href="#DejaVuSans-30" transform="translate(63.623047 0)"/>
       <use xlink:href="#DejaVuSans-32" transform="translate(127.246094 0)"/>
       <use xlink:href="#DejaVuSans-34" transform="translate(190.869141 0)"/>
       <use xlink:href="#DejaVuSans-2d" transform="translate(254.492188 0)"/>
       <use xlink:href="#DejaVuSans-30" transform="translate(290.576172 0)"/>
       <use xlink:href="#DejaVuSans-34" transform="translate(354.199219 0)"/>
      </g>
     </g>
    </g>
    <g id="xtick_5">
     <g id="line2d_9">
      <path d="M 195.452542 307.584 
L 195.452542 41.472 
" clip-path="url(#p1cf574c001)" style="fill: none; stroke: #ffffff; stroke-opacity: 0.4; stroke-width: 0.8; stroke-linecap: square"/>
     </g>
     <g id="line2d_10">
      <g>
       <use xlink:href="#m357808689d" x="195.452542" y="307.584" style="fill: #ffffff; stroke: #ffffff; stroke-width: 0.8"/>
      </g>
     </g>
     <g id="text_5">
      <!-- 2024-05 -->
      <g style="fill: #ffffff" transform="translate(180.067003 356.48538) rotate(-45) scale(0.12 -0.12)">
       <defs>
        <path id="DejaVuSans-35" d="M 691 4666 
L 3169 4666 
L 3169 4134 
L 1269 4134 
L 1269 2991 
Q 1406 3038 1543 3061 
Q 1681 3084 1819 3084 
Q 2600 3084 3056 2656 
Q 3513 2228 3513 1497 
Q 3513 744 3044 326 
Q 2575 -91 1722 -91 
Q 1428 -91 1123 -41 
Q 819 9 494 109 
L 494 744 
Q 775 591 1075 516 
Q 1375 441 1709 441 
Q 2250 441 2565 725 
Q 2881 1009 2881 1497 
Q 2881 1984 2565 2268 
Q 2250 2553 1709 2553 
Q 1456 2553 1204 2497 
Q 953 2441 691 2322 
L 691 4666 
z
" transform="scale(0.015625)"/>
       </defs>
       <use xlink:href="#DejaVuSans-32"/>
       <use xlink:href="#DejaVuSans-30" transform="translate(63.623047 0)"/>
       <use xlink:href="#DejaVuSans-32" transform="translate(127.246094 0)"/>
       <use xlink:href="#DejaVuSans-34" transform="translate(190.869141 0)"/>
       <use xlink:href="#DejaVuSans-2d" transform="translate(254.492188 0)"/>
       <use xlink:href="#DejaVuSans-30" transform="translate(290.576172 0)"/>
       <use xlink:href="#DejaVuSans-35" transform="translate(354.199219 0)"/>
      </g>
     </g>
    </g>
    <g id="xtick_6">
     <g id="line2d_11">
      <path d="M 226.611337 307.584 
L 226.611337 41.472 
" clip-path="url(#p1cf574c001)" style="fill: none; stroke: #ffffff; stroke-opacity: 0.4; stroke-width: 0.8; stroke-linecap: square"/>
     </g>
     <g id="line2d_12">
      <g>
       <use xlink:href="#m357808689d" x="226.611337" y="307.584" style="fill: #ffffff; stroke: #ffffff; stroke-width: 0.8"/>
      </g>
     </g>
     <g id="text_6">
      <!-- 2024-06 -->
      <g style="fill: #ffffff" transform="translate(211.225798 356.48538) rotate(-45) scale(0.12 -0.12)">
       <defs>
        <path id="DejaVuSans-36" d="M 2113 2584 
Q 1688 2584 1439 2293 
Q 1191 2003 1191 1497 
Q 1191 994 1439 701 
Q 1688 409 2113 409 
Q 2538 409 2786 701 
Q 3034 994 3034 1497 
Q 3034 2003 2786 2293 
Q 2538 2584 2113 2584 
z
M 3366 4563 
L 3366 3988 
Q 3128 4100 2886 4159 
Q 2644 4219 2406 4219 
Q 1781 4219 1451 3797 
Q 1122 3375 1075 2522 
Q 1259 2794 1537 2939 
Q 1816 3084 2150 3084 
Q 2853 3084 3261 2657 
Q 3669 2231 3669 1497 
Q 3669 778 3244 343 
Q 2819 -91 2113 -91 
Q 1303 -91 875 529 
Q 447 1150 447 2328 
Q 447 3434 972 4092 
Q 1497 4750 2381 4750 
Q 2619 4750 2861 4703 
Q 3103 4656 3366 4563 
z
" transform="scale(0.015625)"/>
       </defs>
       <use xlink:href="#DejaVuSans-32"/>
       <use xlink:href="#DejaVuSans-30" transform="translate(63.623047 0)"/>
       <use xlink:href="#DejaVuSans-32" transform="translate(127.246094 0)"/>
       <use xlink:href="#DejaVuSans-34" transform="translate(190.869141 0)"/>
       <use xlink:href="#DejaVuSans-2d" transform="translate(254.492188 0)"/>
       <use xlink:href="#DejaVuSans-30" transform="translate(290.576172 0)"/>
       <use xlink:href="#DejaVuSans-36" transform="translate(354.199219 0)"/>
      </g>
     </g>
    </g>
    <g id="xtick_7">
     <g id="line2d_13">
      <path d="M 256.76501 307.584 
L 256.76501 41.472 
" clip-path="url(#p1cf574c001)" style="fill: none; stroke: #ffffff; stroke-opacity: 0.4; stroke-width: 0.8; stroke-linecap: square"/>
     </g>
     <g id="line2d_14">
      <g>
       <use xlink:href="#m357808689d" x="256.76501" y="307.584" style="fill: #ffffff; stroke: #ffffff; stroke-width: 0.8"/>
      </g>
     </g>
     <g id="text_7">
      <!-- 2024-07 -->
      <g style="fill: #ffffff" transform="translate(241.379471 356.48538) rotate(-45) scale(0.12 -0.12)">
       <defs>
        <path id="DejaVuSans-37" d="M 525 4666 
L 3525 4666 
L 3525 4397 
L 1831 0 
L 1172 0 
L 2766 4134 
L 525 4134 
L 525 4666 
z
" transform="scale(0.015625)"/>
       </defs>
       <use xlink:href="#DejaVuSans-32"/>
       <use xlink:href="#DejaVuSans-30" transform="translate(63.623047 0)"/>
       <use xlink:href="#DejaVuSans-32" transform="translate(127.246094 0)"/>
       <use xlink:href="#DejaVuSans-34" transform="translate(190.869141 0)"/>
       <use xlink:href="#DejaVuSans-2d" transform="translate(254.492188 0)"/>
       <use xlink:href="#DejaVuSans-30" transform="translate(290.576172 0)"/>
       <use xlink:href="#DejaVuSans-37" transform="translate(354.199219 0)"/>
      </g>
     </g>
    </g>
    <g id="xtick_8">
     <g id="line2d_15">
      <path d="M 287.923805 307.584 
L 287.923805 41.472 
" clip-path="url(#p1cf574c001)" style="fill: none; stroke: #ffffff; stroke-opacity: 0.4; stroke-width: 0.8; stroke-linecap: square"/>
     </g>
     <g id="line2d_16">
      <g>
       <use xlink:href="#m357808689d" x="287.923805" y="307.584" style="fill: #ffffff; stroke: #ffffff; stroke-width: 0.8"/>
      </g>
     </g>
     <g id="text_8">
      <!-- 2024-08 -->
      <g style="fill: #ffffff" transform="translate(272.538267 356.48538) rotate(-45) scale(0.12 -0.12)">
       <defs>
        <path id="DejaVuSans-38" d="M 2034 2216 
Q 1584 2216 1326 1975 
Q 1069 1734 1069 1313 
Q 1069 891 1326 650 
Q 1584 409 2034 409 
Q 2484 409 2743 651 
Q 3003 894 3003 1313 
Q 3003 1734 2745 1975 
Q 2488 2216 2034 2216 
z
M 1403 2484 
Q 997 2584 770 2862 
Q 544 3141 544 3541 
Q 544 4100 942 4425 
Q 1341 4750 2034 4750 
Q 2731 4750 3128 4425 
Q 3525 4100 3525 3541 
Q 3525 3141 3298 2862 
Q 3072 2584 2669 2484 
Q 3125 2378 3379 2068 
Q 3634 1759 3634 1313 
Q 3634 634 3220 271 
Q 2806 -91 2034 -91 
Q 1263 -91 848 271 
Q 434 634 434 1313 
Q 434 1759 690 2068 
Q 947 2378 1403 2484 
z
M 1172 3481 
Q 1172 3119 1398 2916 
Q 1625 2713 2034 2713 
Q 2441 2713 2670 2916 
Q 2900 3119 2900 3481 
Q 2900 3844 2670 4047 
Q 2441 4250 2034 4250 
Q 1625 4250 1398 4047 
Q 1172 3844 1172 3481 
z
" transform="scale(0.015625)"/>
       </defs>
       <use xlink:href="#DejaVuSans-32"/>
       <use xlink:href="#DejaVuSans-30" transform="translate(63.623047 0)"/>
       <use xlink:href="#DejaVuSans-32" transform="translate(127.246094 0)"/>
       <use xlink:href="#DejaVuSans-34" transform="translate(190.869141 0)"/>
       <use xlink:href="#DejaVuSans-2d" transform="translate(254.492188 0)"/>
       <use xlink:href="#DejaVuSans-30" transform="translate(290.576172 0)"/>
       <use xlink:href="#DejaVuSans-38" transform="translate(354.199219 0)"/>
      </g>
     </g>
    </g>
    <g id="xtick_9">
     <g id="line2d_17">
      <path d="M 319.082601 307.584 
L 319.082601 41.472 
" clip-path="url(#p1cf574c001)" style="fill: none; stroke: #ffffff; stroke-opacity: 0.4; stroke-width: 0.8; stroke-linecap: square"/>
     </g>
     <g id="line2d_18">
      <g>
       <use xlink:href="#m357808689d" x="319.082601" y="307.584" style="fill: #ffffff; stroke: #ffffff; stroke-width: 0.8"/>
      </g>
     </g>
     <g id="text_9">
      <!-- 2024-09 -->
      <g style="fill: #ffffff" transform="translate(303.697062 356.48538) rotate(-45) scale(0.12 -0.12)">
       <defs>
        <path id="DejaVuSans-39" d="M 703 97 
L 703 672 
Q 941 559 1184 500 
Q 1428 441 1663 441 
Q 2288 441 2617 861 
Q 2947 1281 2994 2138 
Q 2813 1869 2534 1725 
Q 2256 1581 1919 1581 
Q 1219 1581 811 2004 
Q 403 2428 403 3163 
Q 403 3881 828 4315 
Q 1253 4750 1959 4750 
Q 2769 4750 3195 4129 
Q 3622 3509 3622 2328 
Q 3622 1225 3098 567 
Q 2575 -91 1691 -91 
Q 1453 -91 1209 -44 
Q 966 3 703 97 
z
M 1959 2075 
Q 2384 2075 2632 2365 
Q 2881 2656 2881 3163 
Q 2881 3666 2632 3958 
Q 2384 4250 1959 4250 
Q 1534 4250 1286 3958 
Q 1038 3666 1038 3163 
Q 1038 2656 1286 2365 
Q 1534 2075 1959 2075 
z
" transform="scale(0.015625)"/>
       </defs>
       <use xlink:href="#DejaVuSans-32"/>
       <use xlink:href="#DejaVuSans-30" transform="translate(63.623047 0)"/>
       <use xlink:href="#DejaVuSans-32" transform="translate(127.246094 0)"/>
       <use xlink:href="#DejaVuSans-34" transform="translate(190.869141 0)"/>
       <use xlink:href="#DejaVuSans-2d" transform="translate(254.492188 0)"/>
       <use xlink:href="#DejaVuSans-30" transform="translate(290.576172 0)"/>
       <use xlink:href="#DejaVuSans-39" transform="translate(354.199219 0)"/>
      </g>
     </g>
    </g>
    <g id="xtick_10">
     <g id="line2d_19">
      <path d="M 349.236274 307.584 
L 349.236274 41.472 
" clip-path="url(#p1cf574c001)" style="fill: none; stroke: #ffffff; stroke-opacity: 0.4; stroke-width: 0.8; stroke-linecap: square"/>
     </g>
     <g id="line2d_20">
      <g>
       <use xlink:href="#m357808689d" x="349.236274" y="307.584" style="fill: #ffffff; stroke: #ffffff; stroke-width: 0.8"/>
      </g>
     </g>
     <g id="text_10">
      <!-- 2024-10 -->
      <g style="fill: #ffffff" transform="translate(333.850735 356.48538) rotate(-45) scale(0.12 -0.12)">
       <use xlink:href="#DejaVuSans-32"/>
       <use xlink:href="#DejaVuSans-30" transform="translate(63.623047 0)"/>
       <use xlink:href="#DejaVuSans-32" transform="translate(127.246094 0)"/>
       <use xlink:href="#DejaVuSans-34" transform="translate(190.869141 0)"/>
       <use xlink:href="#DejaVuSans-2d" transform="translate(254.492188 0)"/>
       <use xlink:href="#DejaVuSans-31" transform="translate(290.576172 0)"/>
       <use xlink:href="#DejaVuSans-30" transform="translate(354.199219 0)"/>
      </g>
     </g>
    </g>
    <g id="xtick_11">
     <g id="line2d_21">
      <path d="M 380.395069 307.584 
L 380.395069 41.472 
" clip-path="url(#p1cf574c001)" style="fill: none; stroke: #ffffff; stroke-opacity: 0.4; stroke-width: 0.8; stroke-linecap: square"/>
     </g>
     <g id="line2d_22">
      <g>
       <use xlink:href="#m357808689d" x="380.395069" y="307.584" style="fill: #ffffff; stroke: #ffffff; stroke-width: 0.8"/>
      </g>
     </g>
     <g id="text_11">
      <!-- 2024-11 -->
      <g style="fill: #ffffff" transform="translate(365.00953 356.48538) rotate(-45) scale(0.12 -0.12)">
       <use xlink:href="#DejaVuSans-32"/>
       <use xlink:href="#DejaVuSans-30" transform="translate(63.623047 0)"/>
       <use xlink:href="#DejaVuSans-32" transform="translate(127.246094 0)"/>
       <use xlink:href="#DejaVuSans-34" transform="translate(190.869141 0)"/>
       <use xlink:href="#DejaVuSans-2d" transform="translate(254.492188 0)"/>
       <use xlink:href="#DejaVuSans-31" transform="translate(290.576172 0)"/>
       <use xlink:href="#DejaVuSans-31" transform="translate(354.199219 0)"/>
      </g>
     </g>
    </g>
    <g id="xtick_12">
     <g id="line2d_23">
      <path d="M 410.548742 307.584 
L 410.548742 41.472 
" clip-path="url(#p1cf574c001)" style="fill: none; stroke: #ffffff; stroke-opacity: 0.4; stroke-width: 0.8; stroke-linecap: square"/>
     </g>
     <g id="line2d_24">
      <g>
       <use xlink:href="#m357808689d" x="410.548742" y="307.584" style="fill: #ffffff; stroke: #ffffff; stroke-width: 0.8"/>
      </g>
     </g>
     <g id="text_12">
      <!-- 2024-12 -->
      <g style="fill: #ffffff" transform="translate(395.163203 356.48538) rotate(-45) scale(0.12 -0.12)">
       <use xlink:href="#DejaVuSans-32"/>
       <use xlink:href="#DejaVuSans-30" transform="translate(63.623047 0)"/>
       <use xlink:href="#DejaVuSans-32" transform="translate(127.246094 0)"/>
       <use xlink:href="#DejaVuSans-34" transform="translate(190.869141 0)"/>
       <use xlink:href="#DejaVuSans-2d" transform="translate(254.492188 0)"/>
       <use xlink:href="#DejaVuSans-31" transform="translate(290.576172 0)"/>
       <use xlink:href="#DejaVuSans-32" transform="translate(354.199219 0)"/>
      </g>
     </g>
    </g>
    <g id="text_13">
     <!-- Date -->
     <g style="fill: #ffffff" transform="translate(219.428906 372.887866) scale(0.14 -0.14)">
      <defs>
       <path id="DejaVuSans-44" d="M 1259 4147 
L 1259 519 
L 2022 519 
Q 2988 519 3436 956 
Q 3884 1394 3884 2338 
Q 3884 3275 3436 3711 
Q 2988 4147 2022 4147 
L 1259 4147 
z
M 628 4666 
L 1925 4666 
Q 3281 4666 3915 4102 
Q 4550 3538 4550 2338 
Q 4550 1131 3912 565 
Q 3275 0 1925 0 
L 628 0 
L 628 4666 
z
" transform="scale(0.015625)"/>
       <path id="DejaVuSans-61" d="M 2194 1759 
Q 1497 1759 1228 1600 
Q 959 1441 959 1056 
Q 959 750 1161 570 
Q 1363 391 1709 391 
Q 2188 391 2477 730 
Q 2766 1069 2766 1631 
L 2766 1759 
L 2194 1759 
z
M 3341 1997 
L 3341 0 
L 2766 0 
L 2766 531 
Q 2569 213 2275 61 
Q 1981 -91 1556 -91 
Q 1019 -91 701 211 
Q 384 513 384 1019 
Q 384 1609 779 1909 
Q 1175 2209 1959 2209 
L 2766 2209 
L 2766 2266 
Q 2766 2663 2505 2880 
Q 2244 3097 1772 3097 
Q 1472 3097 1187 3025 
Q 903 2953 641 2809 
L 641 3341 
Q 956 3463 1253 3523 
Q 1550 3584 1831 3584 
Q 2591 3584 2966 3190 
Q 3341 2797 3341 1997 
z
" transform="scale(0.015625)"/>
       <path id="DejaVuSans-74" d="M 1172 4494 
L 1172 3500 
L 2356 3500 
L 2356 3053 
L 1172 3053 
L 1172 1153 
Q 1172 725 1289 603 
Q 1406 481 1766 481 
L 2356 481 
L 2356 0 
L 1766 0 
Q 1100 0 847 248 
Q 594 497 594 1153 
L 594 3053 
L 172 3053 
L 172 3500 
L 594 3500 
L 594 4494 
L 1172 4494 
z
" transform="scale(0.015625)"/>
       <path id="DejaVuSans-65" d="M 3597 1894 
L 3597 1613 
L 953 1613 
Q 991 1019 1311 708 
Q 1631 397 2203 397 
Q 2534 397 2845 478 
Q 3156 559 3463 722 
L 3463 178 
Q 3153 47 2828 -22 
Q 2503 -91 2169 -91 
Q 1331 -91 842 396 
Q 353 884 353 1716 
Q 353 2575 817 3079 
Q 1281 3584 2069 3584 
Q 2775 3584 3186 3129 
Q 3597 2675 3597 1894 
z
M 3022 2063 
Q 3016 2534 2758 2815 
Q 2500 3097 2075 3097 
Q 1594 3097 1305 2825 
Q 1016 2553 972 2059 
L 3022 2063 
z
" transform="scale(0.015625)"/>
      </defs>
      <use xlink:href="#DejaVuSans-44"/>
      <use xlink:href="#DejaVuSans-61" transform="translate(77.001953 0)"/>
      <use xlink:href="#DejaVuSans-74" transform="translate(138.28125 0)"/>
      <use xlink:href="#DejaVuSans-65" transform="translate(177.490234 0)"/>
     </g>
    </g>
   </g>
   <g id="matplotlib.axis_2">
    <g id="ytick_1">
     <g id="line2d_25">
      <path d="M 57.6 295.00319 
L 414.72 295.00319 
" clip-path="url(#p1cf574c001)" style="fill: none; stroke: #ffffff; stroke-opacity: 0.4; stroke-width: 0.8; stroke-linecap: square"/>
     </g>
     <g id="line2d_26">
      <defs>
       <path id="ma53be681c4" d="M 0 0 
L -3.5 0 
" style="stroke: #ffffff; stroke-width: 0.8"/>
      </defs>
      <g>
       <use xlink:href="#ma53be681c4" x="57.6" y="295.00319" style="fill: #ffffff; stroke: #ffffff; stroke-width: 0.8"/>
      </g>
     </g>
     <g id="text_14">
      <!-- 1.02 -->
      <g style="fill: #ffffff" transform="translate(28.334375 298.802409) scale(0.1 -0.1)">
       <defs>
        <path id="DejaVuSans-2e" d="M 684 794 
L 1344 794 
L 1344 0 
L 684 0 
L 684 794 
z
" transform="scale(0.015625)"/>
       </defs>
       <use xlink:href="#DejaVuSans-31"/>
       <use xlink:href="#DejaVuSans-2e" transform="translate(63.623047 0)"/>
       <use xlink:href="#DejaVuSans-30" transform="translate(95.410156 0)"/>
       <use xlink:href="#DejaVuSans-32" transform="translate(159.033203 0)"/>
      </g>
     </g>
    </g>
    <g id="ytick_2">
     <g id="line2d_27">
      <path d="M 57.6 246.522228 
L 414.72 246.522228 
" clip-path="url(#p1cf574c001)" style="fill: none; stroke: #ffffff; stroke-opacity: 0.4; stroke-width: 0.8; stroke-linecap: square"/>
     </g>
     <g id="line2d_28">
      <g>
       <use xlink:href="#ma53be681c4" x="57.6" y="246.522228" style="fill: #ffffff; stroke: #ffffff; stroke-width: 0.8"/>
      </g>
     </g>
     <g id="text_15">
      <!-- 1.04 -->
      <g style="fill: #ffffff" transform="translate(28.334375 250.321447) scale(0.1 -0.1)">
       <use xlink:href="#DejaVuSans-31"/>
       <use xlink:href="#DejaVuSans-2e" transform="translate(63.623047 0)"/>
       <use xlink:href="#DejaVuSans-30" transform="translate(95.410156 0)"/>
       <use xlink:href="#DejaVuSans-34" transform="translate(159.033203 0)"/>
      </g>
     </g>
    </g>
    <g id="ytick_3">
     <g id="line2d_29">
      <path d="M 57.6 198.041267 
L 414.72 198.041267 
" clip-path="url(#p1cf574c001)" style="fill: none; stroke: #ffffff; stroke-opacity: 0.4; stroke-width: 0.8; stroke-linecap: square"/>
     </g>
     <g id="line2d_30">
      <g>
       <use xlink:href="#ma53be681c4" x="57.6" y="198.041267" style="fill: #ffffff; stroke: #ffffff; stroke-width: 0.8"/>
      </g>
     </g>
     <g id="text_16">
      <!-- 1.06 -->
      <g style="fill: #ffffff" transform="translate(28.334375 201.840485) scale(0.1 -0.1)">
       <use xlink:href="#DejaVuSans-31"/>
       <use xlink:href="#DejaVuSans-2e" transform="translate(63.623047 0)"/>
       <use xlink:href="#DejaVuSans-30" transform="translate(95.410156 0)"/>
       <use xlink:href="#DejaVuSans-36" transform="translate(159.033203 0)"/>
      </g>
     </g>
    </g>
    <g id="ytick_4">
     <g id="line2d_31">
      <path d="M 57.6 149.560305 
L 414.72 149.560305 
" clip-path="url(#p1cf574c001)" style="fill: none; stroke: #ffffff; stroke-opacity: 0.4; stroke-width: 0.8; stroke-linecap: square"/>
     </g>
     <g id="line2d_32">
      <g>
       <use xlink:href="#ma53be681c4" x="57.6" y="149.560305" style="fill: #ffffff; stroke: #ffffff; stroke-width: 0.8"/>
      </g>
     </g>
     <g id="text_17">
      <!-- 1.08 -->
      <g style="fill: #ffffff" transform="translate(28.334375 153.359523) scale(0.1 -0.1)">
       <use xlink:href="#DejaVuSans-31"/>
       <use xlink:href="#DejaVuSans-2e" transform="translate(63.623047 0)"/>
       <use xlink:href="#DejaVuSans-30" transform="translate(95.410156 0)"/>
       <use xlink:href="#DejaVuSans-38" transform="translate(159.033203 0)"/>
      </g>
     </g>
    </g>
    <g id="ytick_5">
     <g id="line2d_33">
      <path d="M 57.6 101.079343 
L 414.72 101.079343 
" clip-path="url(#p1cf574c001)" style="fill: none; stroke: #ffffff; stroke-opacity: 0.4; stroke-width: 0.8; stroke-linecap: square"/>
     </g>
     <g id="line2d_34">
      <g>
       <use xlink:href="#ma53be681c4" x="57.6" y="101.079343" style="fill: #ffffff; stroke: #ffffff; stroke-width: 0.8"/>
      </g>
     </g>
     <g id="text_18">
      <!-- 1.10 -->
      <g style="fill: #ffffff" transform="translate(28.334375 104.878561) scale(0.1 -0.1)">
       <use xlink:href="#DejaVuSans-31"/>
       <use xlink:href="#DejaVuSans-2e" transform="translate(63.623047 0)"/>
       <use xlink:href="#DejaVuSans-31" transform="translate(95.410156 0)"/>
       <use xlink:href="#DejaVuSans-30" transform="translate(159.033203 0)"/>
      </g>
     </g>
    </g>
    <g id="ytick_6">
     <g id="line2d_35">
      <path d="M 57.6 52.598381 
L 414.72 52.598381 
" clip-path="url(#p1cf574c001)" style="fill: none; stroke: #ffffff; stroke-opacity: 0.4; stroke-width: 0.8; stroke-linecap: square"/>
     </g>
     <g id="line2d_36">
      <g>
       <use xlink:href="#ma53be681c4" x="57.6" y="52.598381" style="fill: #ffffff; stroke: #ffffff; stroke-width: 0.8"/>
      </g>
     </g>
     <g id="text_19">
      <!-- 1.12 -->
      <g style="fill: #ffffff" transform="translate(28.334375 56.3976) scale(0.1 -0.1)">
       <use xlink:href="#DejaVuSans-31"/>
       <use xlink:href="#DejaVuSans-2e" transform="translate(63.623047 0)"/>
       <use xlink:href="#DejaVuSans-31" transform="translate(95.410156 0)"/>
       <use xlink:href="#DejaVuSans-32" transform="translate(159.033203 0)"/>
      </g>
     </g>
    </g>
    <g id="text_20">
     <!-- US Dollar-Euro Conversion -->
     <g style="fill: #ffffff" transform="translate(21.422812 266.462063) rotate(-90) scale(0.14 -0.14)">
      <defs>
       <path id="DejaVuSans-55" d="M 556 4666 
L 1191 4666 
L 1191 1831 
Q 1191 1081 1462 751 
Q 1734 422 2344 422 
Q 2950 422 3222 751 
Q 3494 1081 3494 1831 
L 3494 4666 
L 4128 4666 
L 4128 1753 
Q 4128 841 3676 375 
Q 3225 -91 2344 -91 
Q 1459 -91 1007 375 
Q 556 841 556 1753 
L 556 4666 
z
" transform="scale(0.015625)"/>
       <path id="DejaVuSans-53" d="M 3425 4513 
L 3425 3897 
Q 3066 4069 2747 4153 
Q 2428 4238 2131 4238 
Q 1616 4238 1336 4038 
Q 1056 3838 1056 3469 
Q 1056 3159 1242 3001 
Q 1428 2844 1947 2747 
L 2328 2669 
Q 3034 2534 3370 2195 
Q 3706 1856 3706 1288 
Q 3706 609 3251 259 
Q 2797 -91 1919 -91 
Q 1588 -91 1214 -16 
Q 841 59 441 206 
L 441 856 
Q 825 641 1194 531 
Q 1563 422 1919 422 
Q 2459 422 2753 634 
Q 3047 847 3047 1241 
Q 3047 1584 2836 1778 
Q 2625 1972 2144 2069 
L 1759 2144 
Q 1053 2284 737 2584 
Q 422 2884 422 3419 
Q 422 4038 858 4394 
Q 1294 4750 2059 4750 
Q 2388 4750 2728 4690 
Q 3069 4631 3425 4513 
z
" transform="scale(0.015625)"/>
       <path id="DejaVuSans-20" transform="scale(0.015625)"/>
       <path id="DejaVuSans-6f" d="M 1959 3097 
Q 1497 3097 1228 2736 
Q 959 2375 959 1747 
Q 959 1119 1226 758 
Q 1494 397 1959 397 
Q 2419 397 2687 759 
Q 2956 1122 2956 1747 
Q 2956 2369 2687 2733 
Q 2419 3097 1959 3097 
z
M 1959 3584 
Q 2709 3584 3137 3096 
Q 3566 2609 3566 1747 
Q 3566 888 3137 398 
Q 2709 -91 1959 -91 
Q 1206 -91 779 398 
Q 353 888 353 1747 
Q 353 2609 779 3096 
Q 1206 3584 1959 3584 
z
" transform="scale(0.015625)"/>
       <path id="DejaVuSans-6c" d="M 603 4863 
L 1178 4863 
L 1178 0 
L 603 0 
L 603 4863 
z
" transform="scale(0.015625)"/>
       <path id="DejaVuSans-72" d="M 2631 2963 
Q 2534 3019 2420 3045 
Q 2306 3072 2169 3072 
Q 1681 3072 1420 2755 
Q 1159 2438 1159 1844 
L 1159 0 
L 581 0 
L 581 3500 
L 1159 3500 
L 1159 2956 
Q 1341 3275 1631 3429 
Q 1922 3584 2338 3584 
Q 2397 3584 2469 3576 
Q 2541 3569 2628 3553 
L 2631 2963 
z
" transform="scale(0.015625)"/>
       <path id="DejaVuSans-45" d="M 628 4666 
L 3578 4666 
L 3578 4134 
L 1259 4134 
L 1259 2753 
L 3481 2753 
L 3481 2222 
L 1259 2222 
L 1259 531 
L 3634 531 
L 3634 0 
L 628 0 
L 628 4666 
z
" transform="scale(0.015625)"/>
       <path id="DejaVuSans-75" d="M 544 1381 
L 544 3500 
L 1119 3500 
L 1119 1403 
Q 1119 906 1312 657 
Q 1506 409 1894 409 
Q 2359 409 2629 706 
Q 2900 1003 2900 1516 
L 2900 3500 
L 3475 3500 
L 3475 0 
L 2900 0 
L 2900 538 
Q 2691 219 2414 64 
Q 2138 -91 1772 -91 
Q 1169 -91 856 284 
Q 544 659 544 1381 
z
M 1991 3584 
L 1991 3584 
z
" transform="scale(0.015625)"/>
       <path id="DejaVuSans-43" d="M 4122 4306 
L 4122 3641 
Q 3803 3938 3442 4084 
Q 3081 4231 2675 4231 
Q 1875 4231 1450 3742 
Q 1025 3253 1025 2328 
Q 1025 1406 1450 917 
Q 1875 428 2675 428 
Q 3081 428 3442 575 
Q 3803 722 4122 1019 
L 4122 359 
Q 3791 134 3420 21 
Q 3050 -91 2638 -91 
Q 1578 -91 968 557 
Q 359 1206 359 2328 
Q 359 3453 968 4101 
Q 1578 4750 2638 4750 
Q 3056 4750 3426 4639 
Q 3797 4528 4122 4306 
z
" transform="scale(0.015625)"/>
       <path id="DejaVuSans-6e" d="M 3513 2113 
L 3513 0 
L 2938 0 
L 2938 2094 
Q 2938 2591 2744 2837 
Q 2550 3084 2163 3084 
Q 1697 3084 1428 2787 
Q 1159 2491 1159 1978 
L 1159 0 
L 581 0 
L 581 3500 
L 1159 3500 
L 1159 2956 
Q 1366 3272 1645 3428 
Q 1925 3584 2291 3584 
Q 2894 3584 3203 3211 
Q 3513 2838 3513 2113 
z
" transform="scale(0.015625)"/>
       <path id="DejaVuSans-76" d="M 191 3500 
L 800 3500 
L 1894 563 
L 2988 3500 
L 3597 3500 
L 2284 0 
L 1503 0 
L 191 3500 
z
" transform="scale(0.015625)"/>
       <path id="DejaVuSans-73" d="M 2834 3397 
L 2834 2853 
Q 2591 2978 2328 3040 
Q 2066 3103 1784 3103 
Q 1356 3103 1142 2972 
Q 928 2841 928 2578 
Q 928 2378 1081 2264 
Q 1234 2150 1697 2047 
L 1894 2003 
Q 2506 1872 2764 1633 
Q 3022 1394 3022 966 
Q 3022 478 2636 193 
Q 2250 -91 1575 -91 
Q 1294 -91 989 -36 
Q 684 19 347 128 
L 347 722 
Q 666 556 975 473 
Q 1284 391 1588 391 
Q 1994 391 2212 530 
Q 2431 669 2431 922 
Q 2431 1156 2273 1281 
Q 2116 1406 1581 1522 
L 1381 1569 
Q 847 1681 609 1914 
Q 372 2147 372 2553 
Q 372 3047 722 3315 
Q 1072 3584 1716 3584 
Q 2034 3584 2315 3537 
Q 2597 3491 2834 3397 
z
" transform="scale(0.015625)"/>
       <path id="DejaVuSans-69" d="M 603 3500 
L 1178 3500 
L 1178 0 
L 603 0 
L 603 3500 
z
M 603 4863 
L 1178 4863 
L 1178 4134 
L 603 4134 
L 603 4863 
z
" transform="scale(0.015625)"/>
      </defs>
      <use xlink:href="#DejaVuSans-55"/>
      <use xlink:href="#DejaVuSans-53" transform="translate(73.193359 0)"/>
      <use xlink:href="#DejaVuSans-20" transform="translate(136.669922 0)"/>
      <use xlink:href="#DejaVuSans-44" transform="translate(168.457031 0)"/>
      <use xlink:href="#DejaVuSans-6f" transform="translate(245.458984 0)"/>
      <use xlink:href="#DejaVuSans-6c" transform="translate(306.640625 0)"/>
      <use xlink:href="#DejaVuSans-6c" transform="translate(334.423828 0)"/>
      <use xlink:href="#DejaVuSans-61" transform="translate(362.207031 0)"/>
      <use xlink:href="#DejaVuSans-72" transform="translate(423.486328 0)"/>
      <use xlink:href="#DejaVuSans-2d" transform="translate(458.224609 0)"/>
      <use xlink:href="#DejaVuSans-45" transform="translate(494.308594 0)"/>
      <use xlink:href="#DejaVuSans-75" transform="translate(557.492188 0)"/>
      <use xlink:href="#DejaVuSans-72" transform="translate(620.871094 0)"/>
      <use xlink:href="#DejaVuSans-6f" transform="translate(659.734375 0)"/>
      <use xlink:href="#DejaVuSans-20" transform="translate(720.916016 0)"/>
      <use xlink:href="#DejaVuSans-43" transform="translate(752.703125 0)"/>
      <use xlink:href="#DejaVuSans-6f" transform="translate(822.527344 0)"/>
      <use xlink:href="#DejaVuSans-6e" transform="translate(883.708984 0)"/>
      <use xlink:href="#DejaVuSans-76" transform="translate(947.087891 0)"/>
      <use xlink:href="#DejaVuSans-65" transform="translate(1006.267578 0)"/>
      <use xlink:href="#DejaVuSans-72" transform="translate(1067.791016 0)"/>
      <use xlink:href="#DejaVuSans-73" transform="translate(1108.904297 0)"/>
      <use xlink:href="#DejaVuSans-69" transform="translate(1161.003906 0)"/>
      <use xlink:href="#DejaVuSans-6f" transform="translate(1188.787109 0)"/>
      <use xlink:href="#DejaVuSans-6e" transform="translate(1249.96875 0)"/>
     </g>
    </g>
   </g>
   <g id="line2d_37">
    <path d="M 73.832727 111.745154 
L 74.83785 120.714132 
L 75.842972 112.472369 
L 76.848095 120.229323 
L 77.853217 114.169202 
L 78.858339 115.623631 
L 79.863462 114.169202 
L 80.868584 104.230605 
L 81.873707 115.138822 
L 82.878829 114.411607 
L 83.883952 129.68311 
L 84.889074 130.895134 
L 85.894196 131.379944 
L 86.899319 128.471086 
L 87.904441 127.743872 
L 88.909564 132.107158 
L 89.914686 124.1078 
L 90.919809 127.016657 
L 91.924931 132.349563 
L 92.930053 143.984994 
L 93.935176 138.409683 
L 94.940298 140.591327 
L 95.945421 146.166637 
L 96.950543 129.440705 
L 97.955666 162.650164 
L 98.960788 163.377379 
L 99.96591 155.37802 
L 100.971033 159.741307 
L 101.976155 156.347639 
L 102.981278 156.105234 
L 103.9864 151.257138 
L 104.991523 170.649523 
L 105.996645 163.377379 
L 107.001768 157.317259 
L 108.00689 155.37802 
L 109.012012 149.075495 
L 110.017135 147.378661 
L 111.022257 138.894493 
L 112.02738 141.318541 
L 113.032502 136.955255 
L 114.037625 135.985635 
L 115.042747 147.621066 
L 116.047869 143.25778 
L 117.052992 146.409042 
L 118.058114 138.409683 
L 119.063237 137.682469 
L 120.068359 131.622349 
L 121.073482 126.531848 
L 122.078604 117.56287 
L 123.083726 119.017299 
L 124.088849 121.441347 
L 125.093971 115.866036 
L 126.099094 119.259703 
L 127.104216 127.259062 
L 128.109339 127.259062 
L 129.114461 136.470445 
L 130.119583 138.894493 
L 131.124706 123.62299 
L 132.129828 143.984994 
L 133.134951 141.076136 
L 134.140073 136.22804 
L 135.145196 145.681828 
L 136.150318 146.893852 
L 137.15544 161.92295 
L 138.160563 153.681186 
L 139.165685 136.955255 
L 140.170808 139.621707 
L 141.17593 143.984994 
L 142.181053 133.319182 
L 143.186175 135.016016 
L 144.191297 166.771046 
L 145.19642 185.436216 
L 146.201542 184.466597 
L 147.206665 189.072289 
L 148.211787 188.829884 
L 149.21691 178.891287 
L 150.222032 185.193812 
L 151.227155 190.284313 
L 152.232277 180.103311 
L 153.237399 177.194453 
L 154.242522 168.952689 
L 155.247644 170.407118 
L 156.252767 168.952689 
L 157.257889 169.437499 
L 158.263012 174.285595 
L 159.268134 163.134974 
L 160.273256 155.37802 
L 161.278379 157.802068 
L 162.283501 163.377379 
L 163.288624 166.043832 
L 164.293746 154.650806 
L 165.298869 150.772329 
L 166.303991 150.529924 
L 168.314236 133.561587 
L 169.319358 138.894493 
L 170.324481 134.773611 
L 171.329603 134.046397 
L 172.334726 142.28816 
L 173.339848 136.470445 
L 174.34497 139.864112 
L 175.350093 139.136898 
L 176.355215 129.68311 
L 177.360338 135.74323 
L 178.36546 145.924232 
L 179.370583 136.955255 
L 180.375705 139.379303 
L 181.380827 133.803992 
L 182.38595 132.107158 
L 183.391072 133.803992 
L 184.396195 125.804633 
L 185.401317 160.226116 
L 186.40644 166.528641 
L 187.411562 158.044473 
L 188.416684 153.438782 
L 189.421807 177.194453 
L 190.426929 170.891928 
L 191.432052 170.164713 
L 192.437174 161.92295 
L 194.447419 176.709643 
L 195.452542 166.528641 
L 196.457664 170.407118 
L 197.462786 176.467238 
L 198.467909 174.770405 
L 199.473031 172.588762 
L 200.478154 162.892569 
L 201.483276 166.771046 
L 202.488399 159.741307 
L 203.493521 149.560305 
L 204.498643 143.742589 
L 205.503766 141.076136 
L 206.508888 146.166637 
L 207.514011 143.500184 
L 208.519133 136.22804 
L 209.524256 127.743872 
L 210.529378 123.62299 
L 211.5345 124.835014 
L 212.539623 117.07806 
L 213.544745 118.047679 
L 214.549868 127.743872 
L 215.55499 128.228681 
L 216.560113 135.016016 
L 217.565235 137.924874 
L 218.570357 137.197659 
L 219.57548 135.016016 
L 220.580602 145.439423 
L 221.585725 143.742589 
L 222.590847 142.77297 
L 223.59597 152.226758 
L 224.601092 141.076136 
L 225.606214 109.321106 
L 226.611337 121.683752 
L 227.616459 119.986918 
L 228.621582 118.047679 
L 229.626704 121.198942 
L 230.631827 119.259703 
L 231.636949 117.805275 
L 232.642071 96.473651 
L 233.647194 98.41289 
L 234.652316 102.533772 
L 236.662561 80.717339 
L 237.667684 72.960385 
L 238.672806 68.354693 
L 239.677929 71.748361 
L 240.683051 61.567359 
L 241.688173 61.809764 
L 242.693296 72.71798 
L 243.698418 79.747719 
L 244.703541 79.990124 
L 246.713786 92.595174 
L 247.718908 88.959102 
L 248.72403 77.566076 
L 249.729153 76.111647 
L 250.734275 90.655936 
L 251.739398 93.564794 
L 252.74452 90.655936 
L 253.749643 97.200866 
L 254.754765 81.444553 
L 255.759887 70.536337 
L 256.76501 67.385074 
L 257.770132 71.021146 
L 258.775255 63.264192 
L 259.780377 60.840144 
L 260.7855 72.23317 
L 261.790622 68.839503 
L 262.795744 54.05281 
L 263.800867 63.506597 
L 264.805989 62.779383 
L 265.811112 53.568 
L 266.816234 80.232529 
L 267.821357 83.868601 
L 268.826479 91.625555 
L 269.831601 94.049603 
L 270.836724 105.442629 
L 271.841846 105.442629 
L 273.852091 117.56287 
L 274.857214 116.108441 
L 275.862336 121.683752 
L 276.867458 124.592609 
L 277.872581 126.047038 
L 278.877703 133.561587 
L 279.882826 138.167279 
L 280.887948 136.71285 
L 281.893071 144.469804 
L 282.898193 157.559663 
L 283.903316 149.3179 
L 284.908438 143.500184 
L 285.91356 145.197018 
L 286.918683 155.86283 
L 287.923805 145.924232 
L 288.928928 129.68311 
L 289.93405 128.955896 
L 290.939173 124.350204 
L 291.944295 126.047038 
L 292.949417 175.01281 
L 293.95454 153.196377 
L 294.959662 156.347639 
L 295.964785 185.678621 
L 296.969907 193.920385 
L 297.97503 191.011527 
L 298.980152 214.282389 
L 299.985274 202.162148 
L 300.990397 209.676697 
L 301.995519 203.374172 
L 303.000642 207.252649 
L 304.005764 215.979222 
L 305.010887 243.613371 
L 306.016009 223.493772 
L 307.021131 216.948842 
L 308.026254 214.767198 
L 309.031376 212.100745 
L 310.036499 207.252649 
L 311.041621 220.584914 
L 312.046744 219.37289 
L 313.051866 224.220986 
L 314.056988 212.585555 
L 315.062111 202.646958 
L 316.067233 205.79822 
L 317.072356 215.736818 
L 318.077478 220.584914 
L 319.082601 224.463391 
L 320.087723 217.918461 
L 321.092845 222.766557 
L 323.10309 223.251367 
L 324.108213 247.734253 
L 325.113335 248.946277 
L 326.118458 248.219062 
L 327.12358 247.734253 
L 328.128703 238.03806 
L 329.133825 235.856417 
L 330.138947 249.188681 
L 331.14407 265.672208 
L 332.149192 271.005114 
L 333.154315 240.219703 
L 334.159437 248.219062 
L 335.16456 274.156377 
L 336.169682 269.550685 
L 337.174804 269.79309 
L 338.179927 295.488 
L 339.185049 284.094974 
L 340.190172 270.762709 
L 341.195294 277.550044 
L 342.200417 271.247519 
L 343.205539 266.884232 
L 344.210661 256.945635 
L 345.215784 236.098822 
L 346.220906 245.552609 
L 347.226029 229.069082 
L 348.231151 215.009603 
L 349.236274 241.431727 
L 350.241396 247.491848 
L 351.246518 245.795014 
L 352.251641 248.219062 
L 353.256763 277.065234 
L 354.261886 262.278541 
L 355.267008 241.189323 
L 356.272131 256.218421 
L 357.277253 252.097539 
L 358.282375 265.914613 
L 359.287498 264.944994 
L 360.29262 253.794373 
L 361.297743 248.946277 
L 362.302865 227.614653 
L 363.307988 228.826677 
L 364.31311 235.129202 
L 365.318232 238.280465 
L 366.323355 236.098822 
L 367.328477 230.765916 
L 368.3336 230.523511 
L 369.338722 223.008962 
L 371.348967 227.857058 
L 372.35409 243.855776 
L 373.359212 230.765916 
L 374.364334 208.464673 
L 375.369457 175.255214 
L 376.374579 150.529924 
L 377.379702 135.74323 
L 378.384824 138.652088 
L 379.389947 122.410966 
L 380.395069 128.713491 
L 381.400191 142.28816 
L 382.405314 127.986277 
L 384.415559 120.956537 
L 385.420681 126.047038 
L 386.425804 141.560946 
L 387.430926 143.015375 
L 388.436048 143.742589 
L 388.436048 143.742589 
" clip-path="url(#p1cf574c001)" style="fill: none; stroke: #0000ff; stroke-width: 1.5; stroke-linecap: square"/>
   </g>
   <g id="line2d_38">
    <path d="M 388.436048 143.742589 
L 389.441171 143.500184 
L 390.446293 152.469162 
L 391.451416 153.196377 
L 392.456538 150.287519 
L 393.461661 145.924232 
L 394.466783 152.469162 
L 395.471905 148.83309 
" clip-path="url(#p1cf574c001)" style="fill: none; stroke: #00ff00; stroke-width: 1.5; stroke-linecap: square"/>
   </g>
   <g id="line2d_39">
    <path d="M 389.441171 143.6066 
L 390.446293 141.304239 
L 391.451416 140.011979 
L 392.456538 143.827673 
L 393.461661 147.667365 
L 394.466783 148.82703 
L 395.471905 148.937324 
L 396.477028 148.183203 
L 397.48215 145.289617 
L 398.487273 144.23758 
" clip-path="url(#p1cf574c001)" style="fill: none; stroke: #00ffff; stroke-width: 1.5; stroke-linecap: square"/>
   </g>
   <g id="patch_3">
    <path d="M 57.6 307.584 
L 57.6 41.472 
" style="fill: none; stroke: #ffffff; stroke-width: 0.8; stroke-linejoin: miter; stroke-linecap: square"/>
   </g>
   <g id="patch_4">
    <path d="M 414.72 307.584 
L 414.72 41.472 
" style="fill: none; stroke: #ffffff; stroke-width: 0.8; stroke-linejoin: miter; stroke-linecap: square"/>
   </g>
   <g id="patch_5">
    <path d="M 57.6 307.584 
L 414.72 307.584 
" style="fill: none; stroke: #ffffff; stroke-width: 0.8; stroke-linejoin: miter; stroke-linecap: square"/>
   </g>
   <g id="patch_6">
    <path d="M 57.6 41.472 
L 414.72 41.472 
" style="fill: none; stroke: #ffffff; stroke-width: 0.8; stroke-linejoin: miter; stroke-linecap: square"/>
   </g>
  </g>
 </g>
 <defs>
  <clipPath id="p1cf574c001">
   <rect x="57.6" y="41.472" width="357.12" height="266.112"/>
  </clipPath>
 </defs>
</svg>
