<?xml version="1.0" encoding="utf-8" standalone="no"?>
<!DOCTYPE svg PUBLIC "-//W3C//DTD SVG 1.1//EN"
  "http://www.w3.org/Graphics/SVG/1.1/DTD/svg11.dtd">
<svg xmlns:xlink="http://www.w3.org/1999/xlink" width="720pt" height="360pt" viewBox="0 0 720 360" xmlns="http://www.w3.org/2000/svg" version="1.1">
 <metadata>
  <rdf:RDF xmlns:dc="http://purl.org/dc/elements/1.1/" xmlns:cc="http://creativecommons.org/ns#" xmlns:rdf="http://www.w3.org/1999/02/22-rdf-syntax-ns#">
   <cc:Work>
    <dc:type rdf:resource="http://purl.org/dc/dcmitype/StillImage"/>
    <dc:date>2025-11-13T15:50:41.884958</dc:date>
    <dc:format>image/svg+xml</dc:format>
    <dc:creator>
     <cc:Agent>
      <dc:title>Matplotlib v3.10.3, https://matplotlib.org/</dc:title>
     </cc:Agent>
    </dc:creator>
   </cc:Work>
  </rdf:RDF>
 </metadata>
 <defs>
  <style type="text/css">*{stroke-linejoin: round; stroke-linecap: butt}</style>
 </defs>
 <g id="figure_1">
  <g id="patch_1">
   <path d="M 0 360 
L 720 360 
L 720 0 
L 0 0 
z
" style="fill: #121212"/>
  </g>
  <g id="axes_1">
   <g id="patch_2">
    <path d="M 90 320.4 
L 648 320.4 
L 648 43.2 
L 90 43.2 
z
" style="fill: #121212"/>
   </g>
   <g id="matplotlib.axis_1">
    <g id="xtick_1">
     <g id="line2d_1">
      <path d="M 115.363636 320.4 
L 115.363636 43.2 
" clip-path="url(#pb165f42d94)" style="fill: none; stroke: #ffffff; stroke-opacity: 0.2; stroke-width: 0.8; stroke-linecap: square"/>
     </g>
     <g id="line2d_2">
      <defs>
       <path id="md3d9fdc342" d="M 0 0 
L 0 3.5 
" style="stroke: #ffffff; stroke-width: 0.8"/>
      </defs>
      <g>
       <use xlink:href="#md3d9fdc342" x="115.363636" y="320.4" style="fill: #ffffff; stroke: #ffffff; stroke-width: 0.8"/>
      </g>
     </g>
     <g id="text_1">
      <!-- 0 -->
      <g style="fill: #ffffff" transform="translate(110.591761 338.797656) scale(0.15 -0.15)">
       <defs>
        <path id="DejaVuSans-30" d="M 2034 4250 
Q 1547 4250 1301 3770 
Q 1056 3291 1056 2328 
Q 1056 1369 1301 889 
Q 1547 409 2034 409 
Q 2525 409 2770 889 
Q 3016 1369 3016 2328 
Q 3016 3291 2770 3770 
Q 2525 4250 2034 4250 
z
M 2034 4750 
Q 2819 4750 3233 4129 
Q 3647 3509 3647 2328 
Q 3647 1150 3233 529 
Q 2819 -91 2034 -91 
Q 1250 -91 836 529 
Q 422 1150 422 2328 
Q 422 3509 836 4129 
Q 1250 4750 2034 4750 
z
" transform="scale(0.015625)"/>
       </defs>
       <use xlink:href="#DejaVuSans-30"/>
      </g>
     </g>
    </g>
    <g id="xtick_2">
     <g id="line2d_3">
      <path d="M 216.282339 320.4 
L 216.282339 43.2 
" clip-path="url(#pb165f42d94)" style="fill: none; stroke: #ffffff; stroke-opacity: 0.2; stroke-width: 0.8; stroke-linecap: square"/>
     </g>
     <g id="line2d_4">
      <g>
       <use xlink:href="#md3d9fdc342" x="216.282339" y="320.4" style="fill: #ffffff; stroke: #ffffff; stroke-width: 0.8"/>
      </g>
     </g>
     <g id="text_2">
      <!-- 5 -->
      <g style="fill: #ffffff" transform="translate(211.510464 338.797656) scale(0.15 -0.15)">
       <defs>
        <path id="DejaVuSans-35" d="M 691 4666 
L 3169 4666 
L 3169 4134 
L 1269 4134 
L 1269 2991 
Q 1406 3038 1543 3061 
Q 1681 3084 1819 3084 
Q 2600 3084 3056 2656 
Q 3513 2228 3513 1497 
Q 3513 744 3044 326 
Q 2575 -91 1722 -91 
Q 1428 -91 1123 -41 
Q 819 9 494 109 
L 494 744 
Q 775 591 1075 516 
Q 1375 441 1709 441 
Q 2250 441 2565 725 
Q 2881 1009 2881 1497 
Q 2881 1984 2565 2268 
Q 2250 2553 1709 2553 
Q 1456 2553 1204 2497 
Q 953 2441 691 2322 
L 691 4666 
z
" transform="scale(0.015625)"/>
       </defs>
       <use xlink:href="#DejaVuSans-35"/>
      </g>
     </g>
    </g>
    <g id="xtick_3">
     <g id="line2d_5">
      <path d="M 317.201041 320.4 
L 317.201041 43.2 
" clip-path="url(#pb165f42d94)" style="fill: none; stroke: #ffffff; stroke-opacity: 0.2; stroke-width: 0.8; stroke-linecap: square"/>
     </g>
     <g id="line2d_6">
      <g>
       <use xlink:href="#md3d9fdc342" x="317.201041" y="320.4" style="fill: #ffffff; stroke: #ffffff; stroke-width: 0.8"/>
      </g>
     </g>
     <g id="text_3">
      <!-- 10 -->
      <g style="fill: #ffffff" transform="translate(307.657291 338.797656) scale(0.15 -0.15)">
       <defs>
        <path id="DejaVuSans-31" d="M 794 531 
L 1825 531 
L 1825 4091 
L 703 3866 
L 703 4441 
L 1819 4666 
L 2450 4666 
L 2450 531 
L 3481 531 
L 3481 0 
L 794 0 
L 794 531 
z
" transform="scale(0.015625)"/>
       </defs>
       <use xlink:href="#DejaVuSans-31"/>
       <use xlink:href="#DejaVuSans-30" transform="translate(63.623047 0)"/>
      </g>
     </g>
    </g>
    <g id="xtick_4">
     <g id="line2d_7">
      <path d="M 418.119744 320.4 
L 418.119744 43.2 
" clip-path="url(#pb165f42d94)" style="fill: none; stroke: #ffffff; stroke-opacity: 0.2; stroke-width: 0.8; stroke-linecap: square"/>
     </g>
     <g id="line2d_8">
      <g>
       <use xlink:href="#md3d9fdc342" x="418.119744" y="320.4" style="fill: #ffffff; stroke: #ffffff; stroke-width: 0.8"/>
      </g>
     </g>
     <g id="text_4">
      <!-- 15 -->
      <g style="fill: #ffffff" transform="translate(408.575994 338.797656) scale(0.15 -0.15)">
       <use xlink:href="#DejaVuSans-31"/>
       <use xlink:href="#DejaVuSans-35" transform="translate(63.623047 0)"/>
      </g>
     </g>
    </g>
    <g id="xtick_5">
     <g id="line2d_9">
      <path d="M 519.038447 320.4 
L 519.038447 43.2 
" clip-path="url(#pb165f42d94)" style="fill: none; stroke: #ffffff; stroke-opacity: 0.2; stroke-width: 0.8; stroke-linecap: square"/>
     </g>
     <g id="line2d_10">
      <g>
       <use xlink:href="#md3d9fdc342" x="519.038447" y="320.4" style="fill: #ffffff; stroke: #ffffff; stroke-width: 0.8"/>
      </g>
     </g>
     <g id="text_5">
      <!-- 20 -->
      <g style="fill: #ffffff" transform="translate(509.494697 338.797656) scale(0.15 -0.15)">
       <defs>
        <path id="DejaVuSans-32" d="M 1228 531 
L 3431 531 
L 3431 0 
L 469 0 
L 469 531 
Q 828 903 1448 1529 
Q 2069 2156 2228 2338 
Q 2531 2678 2651 2914 
Q 2772 3150 2772 3378 
Q 2772 3750 2511 3984 
Q 2250 4219 1831 4219 
Q 1534 4219 1204 4116 
Q 875 4013 500 3803 
L 500 4441 
Q 881 4594 1212 4672 
Q 1544 4750 1819 4750 
Q 2544 4750 2975 4387 
Q 3406 4025 3406 3419 
Q 3406 3131 3298 2873 
Q 3191 2616 2906 2266 
Q 2828 2175 2409 1742 
Q 1991 1309 1228 531 
z
" transform="scale(0.015625)"/>
       </defs>
       <use xlink:href="#DejaVuSans-32"/>
       <use xlink:href="#DejaVuSans-30" transform="translate(63.623047 0)"/>
      </g>
     </g>
    </g>
    <g id="xtick_6">
     <g id="line2d_11">
      <path d="M 619.957149 320.4 
L 619.957149 43.2 
" clip-path="url(#pb165f42d94)" style="fill: none; stroke: #ffffff; stroke-opacity: 0.2; stroke-width: 0.8; stroke-linecap: square"/>
     </g>
     <g id="line2d_12">
      <g>
       <use xlink:href="#md3d9fdc342" x="619.957149" y="320.4" style="fill: #ffffff; stroke: #ffffff; stroke-width: 0.8"/>
      </g>
     </g>
     <g id="text_6">
      <!-- 25 -->
      <g style="fill: #ffffff" transform="translate(610.413399 338.797656) scale(0.15 -0.15)">
       <use xlink:href="#DejaVuSans-32"/>
       <use xlink:href="#DejaVuSans-35" transform="translate(63.623047 0)"/>
      </g>
     </g>
    </g>
    <g id="text_7">
     <!-- Time (t) -->
     <g style="fill: #ffffff" transform="translate(329.63125 361.114062) scale(0.2 -0.2)">
      <defs>
       <path id="DejaVuSans-54" d="M -19 4666 
L 3928 4666 
L 3928 4134 
L 2272 4134 
L 2272 0 
L 1638 0 
L 1638 4134 
L -19 4134 
L -19 4666 
z
" transform="scale(0.015625)"/>
       <path id="DejaVuSans-69" d="M 603 3500 
L 1178 3500 
L 1178 0 
L 603 0 
L 603 3500 
z
M 603 4863 
L 1178 4863 
L 1178 4134 
L 603 4134 
L 603 4863 
z
" transform="scale(0.015625)"/>
       <path id="DejaVuSans-6d" d="M 3328 2828 
Q 3544 3216 3844 3400 
Q 4144 3584 4550 3584 
Q 5097 3584 5394 3201 
Q 5691 2819 5691 2113 
L 5691 0 
L 5113 0 
L 5113 2094 
Q 5113 2597 4934 2840 
Q 4756 3084 4391 3084 
Q 3944 3084 3684 2787 
Q 3425 2491 3425 1978 
L 3425 0 
L 2847 0 
L 2847 2094 
Q 2847 2600 2669 2842 
Q 2491 3084 2119 3084 
Q 1678 3084 1418 2786 
Q 1159 2488 1159 1978 
L 1159 0 
L 581 0 
L 581 3500 
L 1159 3500 
L 1159 2956 
Q 1356 3278 1631 3431 
Q 1906 3584 2284 3584 
Q 2666 3584 2933 3390 
Q 3200 3197 3328 2828 
z
" transform="scale(0.015625)"/>
       <path id="DejaVuSans-65" d="M 3597 1894 
L 3597 1613 
L 953 1613 
Q 991 1019 1311 708 
Q 1631 397 2203 397 
Q 2534 397 2845 478 
Q 3156 559 3463 722 
L 3463 178 
Q 3153 47 2828 -22 
Q 2503 -91 2169 -91 
Q 1331 -91 842 396 
Q 353 884 353 1716 
Q 353 2575 817 3079 
Q 1281 3584 2069 3584 
Q 2775 3584 3186 3129 
Q 3597 2675 3597 1894 
z
M 3022 2063 
Q 3016 2534 2758 2815 
Q 2500 3097 2075 3097 
Q 1594 3097 1305 2825 
Q 1016 2553 972 2059 
L 3022 2063 
z
" transform="scale(0.015625)"/>
       <path id="DejaVuSans-20" transform="scale(0.015625)"/>
       <path id="DejaVuSans-28" d="M 1984 4856 
Q 1566 4138 1362 3434 
Q 1159 2731 1159 2009 
Q 1159 1288 1364 580 
Q 1569 -128 1984 -844 
L 1484 -844 
Q 1016 -109 783 600 
Q 550 1309 550 2009 
Q 550 2706 781 3412 
Q 1013 4119 1484 4856 
L 1984 4856 
z
" transform="scale(0.015625)"/>
       <path id="DejaVuSans-74" d="M 1172 4494 
L 1172 3500 
L 2356 3500 
L 2356 3053 
L 1172 3053 
L 1172 1153 
Q 1172 725 1289 603 
Q 1406 481 1766 481 
L 2356 481 
L 2356 0 
L 1766 0 
Q 1100 0 847 248 
Q 594 497 594 1153 
L 594 3053 
L 172 3053 
L 172 3500 
L 594 3500 
L 594 4494 
L 1172 4494 
z
" transform="scale(0.015625)"/>
       <path id="DejaVuSans-29" d="M 513 4856 
L 1013 4856 
Q 1481 4119 1714 3412 
Q 1947 2706 1947 2009 
Q 1947 1309 1714 600 
Q 1481 -109 1013 -844 
L 513 -844 
Q 928 -128 1133 580 
Q 1338 1288 1338 2009 
Q 1338 2731 1133 3434 
Q 928 4138 513 4856 
z
" transform="scale(0.015625)"/>
      </defs>
      <use xlink:href="#DejaVuSans-54"/>
      <use xlink:href="#DejaVuSans-69" transform="translate(57.958984 0)"/>
      <use xlink:href="#DejaVuSans-6d" transform="translate(85.742188 0)"/>
      <use xlink:href="#DejaVuSans-65" transform="translate(183.154297 0)"/>
      <use xlink:href="#DejaVuSans-20" transform="translate(244.677734 0)"/>
      <use xlink:href="#DejaVuSans-28" transform="translate(276.464844 0)"/>
      <use xlink:href="#DejaVuSans-74" transform="translate(315.478516 0)"/>
      <use xlink:href="#DejaVuSans-29" transform="translate(354.6875 0)"/>
     </g>
    </g>
   </g>
   <g id="matplotlib.axis_2">
    <g id="ytick_1">
     <g id="line2d_13">
      <path d="M 90 318.102149 
L 648 318.102149 
" clip-path="url(#pb165f42d94)" style="fill: none; stroke: #ffffff; stroke-opacity: 0.2; stroke-width: 0.8; stroke-linecap: square"/>
     </g>
     <g id="line2d_14">
      <defs>
       <path id="m23da949c96" d="M 0 0 
L -3.5 0 
" style="stroke: #ffffff; stroke-width: 0.8"/>
      </defs>
      <g>
       <use xlink:href="#m23da949c96" x="90" y="318.102149" style="fill: #ffffff; stroke: #ffffff; stroke-width: 0.8"/>
      </g>
     </g>
     <g id="text_8">
      <!-- −10 -->
      <g style="fill: #ffffff" transform="translate(51.342969 323.800977) scale(0.15 -0.15)">
       <defs>
        <path id="DejaVuSans-2212" d="M 678 2272 
L 4684 2272 
L 4684 1741 
L 678 1741 
L 678 2272 
z
" transform="scale(0.015625)"/>
       </defs>
       <use xlink:href="#DejaVuSans-2212"/>
       <use xlink:href="#DejaVuSans-31" transform="translate(83.789062 0)"/>
       <use xlink:href="#DejaVuSans-30" transform="translate(147.412109 0)"/>
      </g>
     </g>
    </g>
    <g id="ytick_2">
     <g id="line2d_15">
      <path d="M 90 263.263495 
L 648 263.263495 
" clip-path="url(#pb165f42d94)" style="fill: none; stroke: #ffffff; stroke-opacity: 0.2; stroke-width: 0.8; stroke-linecap: square"/>
     </g>
     <g id="line2d_16">
      <g>
       <use xlink:href="#m23da949c96" x="90" y="263.263495" style="fill: #ffffff; stroke: #ffffff; stroke-width: 0.8"/>
      </g>
     </g>
     <g id="text_9">
      <!-- −5 -->
      <g style="fill: #ffffff" transform="translate(60.886719 268.962323) scale(0.15 -0.15)">
       <use xlink:href="#DejaVuSans-2212"/>
       <use xlink:href="#DejaVuSans-35" transform="translate(83.789062 0)"/>
      </g>
     </g>
    </g>
    <g id="ytick_3">
     <g id="line2d_17">
      <path d="M 90 208.42484 
L 648 208.42484 
" clip-path="url(#pb165f42d94)" style="fill: none; stroke: #ffffff; stroke-opacity: 0.2; stroke-width: 0.8; stroke-linecap: square"/>
     </g>
     <g id="line2d_18">
      <g>
       <use xlink:href="#m23da949c96" x="90" y="208.42484" style="fill: #ffffff; stroke: #ffffff; stroke-width: 0.8"/>
      </g>
     </g>
     <g id="text_10">
      <!-- 0 -->
      <g style="fill: #ffffff" transform="translate(73.45625 214.123668) scale(0.15 -0.15)">
       <use xlink:href="#DejaVuSans-30"/>
      </g>
     </g>
    </g>
    <g id="ytick_4">
     <g id="line2d_19">
      <path d="M 90 153.586186 
L 648 153.586186 
" clip-path="url(#pb165f42d94)" style="fill: none; stroke: #ffffff; stroke-opacity: 0.2; stroke-width: 0.8; stroke-linecap: square"/>
     </g>
     <g id="line2d_20">
      <g>
       <use xlink:href="#m23da949c96" x="90" y="153.586186" style="fill: #ffffff; stroke: #ffffff; stroke-width: 0.8"/>
      </g>
     </g>
     <g id="text_11">
      <!-- 5 -->
      <g style="fill: #ffffff" transform="translate(73.45625 159.285014) scale(0.15 -0.15)">
       <use xlink:href="#DejaVuSans-35"/>
      </g>
     </g>
    </g>
    <g id="ytick_5">
     <g id="line2d_21">
      <path d="M 90 98.747532 
L 648 98.747532 
" clip-path="url(#pb165f42d94)" style="fill: none; stroke: #ffffff; stroke-opacity: 0.2; stroke-width: 0.8; stroke-linecap: square"/>
     </g>
     <g id="line2d_22">
      <g>
       <use xlink:href="#m23da949c96" x="90" y="98.747532" style="fill: #ffffff; stroke: #ffffff; stroke-width: 0.8"/>
      </g>
     </g>
     <g id="text_12">
      <!-- 10 -->
      <g style="fill: #ffffff" transform="translate(63.9125 104.44636) scale(0.15 -0.15)">
       <use xlink:href="#DejaVuSans-31"/>
       <use xlink:href="#DejaVuSans-30" transform="translate(63.623047 0)"/>
      </g>
     </g>
    </g>
    <g id="ytick_6">
     <g id="line2d_23">
      <path d="M 90 43.908877 
L 648 43.908877 
" clip-path="url(#pb165f42d94)" style="fill: none; stroke: #ffffff; stroke-opacity: 0.2; stroke-width: 0.8; stroke-linecap: square"/>
     </g>
     <g id="line2d_24">
      <g>
       <use xlink:href="#m23da949c96" x="90" y="43.908877" style="fill: #ffffff; stroke: #ffffff; stroke-width: 0.8"/>
      </g>
     </g>
     <g id="text_13">
      <!-- 15 -->
      <g style="fill: #ffffff" transform="translate(63.9125 49.607706) scale(0.15 -0.15)">
       <use xlink:href="#DejaVuSans-31"/>
       <use xlink:href="#DejaVuSans-35" transform="translate(63.623047 0)"/>
      </g>
     </g>
    </g>
    <g id="text_14">
     <!-- Amplitude (y) -->
     <g style="fill: #ffffff" transform="translate(43.183594 249.945312) rotate(-90) scale(0.2 -0.2)">
      <defs>
       <path id="DejaVuSans-41" d="M 2188 4044 
L 1331 1722 
L 3047 1722 
L 2188 4044 
z
M 1831 4666 
L 2547 4666 
L 4325 0 
L 3669 0 
L 3244 1197 
L 1141 1197 
L 716 0 
L 50 0 
L 1831 4666 
z
" transform="scale(0.015625)"/>
       <path id="DejaVuSans-70" d="M 1159 525 
L 1159 -1331 
L 581 -1331 
L 581 3500 
L 1159 3500 
L 1159 2969 
Q 1341 3281 1617 3432 
Q 1894 3584 2278 3584 
Q 2916 3584 3314 3078 
Q 3713 2572 3713 1747 
Q 3713 922 3314 415 
Q 2916 -91 2278 -91 
Q 1894 -91 1617 61 
Q 1341 213 1159 525 
z
M 3116 1747 
Q 3116 2381 2855 2742 
Q 2594 3103 2138 3103 
Q 1681 3103 1420 2742 
Q 1159 2381 1159 1747 
Q 1159 1113 1420 752 
Q 1681 391 2138 391 
Q 2594 391 2855 752 
Q 3116 1113 3116 1747 
z
" transform="scale(0.015625)"/>
       <path id="DejaVuSans-6c" d="M 603 4863 
L 1178 4863 
L 1178 0 
L 603 0 
L 603 4863 
z
" transform="scale(0.015625)"/>
       <path id="DejaVuSans-75" d="M 544 1381 
L 544 3500 
L 1119 3500 
L 1119 1403 
Q 1119 906 1312 657 
Q 1506 409 1894 409 
Q 2359 409 2629 706 
Q 2900 1003 2900 1516 
L 2900 3500 
L 3475 3500 
L 3475 0 
L 2900 0 
L 2900 538 
Q 2691 219 2414 64 
Q 2138 -91 1772 -91 
Q 1169 -91 856 284 
Q 544 659 544 1381 
z
M 1991 3584 
L 1991 3584 
z
" transform="scale(0.015625)"/>
       <path id="DejaVuSans-64" d="M 2906 2969 
L 2906 4863 
L 3481 4863 
L 3481 0 
L 2906 0 
L 2906 525 
Q 2725 213 2448 61 
Q 2172 -91 1784 -91 
Q 1150 -91 751 415 
Q 353 922 353 1747 
Q 353 2572 751 3078 
Q 1150 3584 1784 3584 
Q 2172 3584 2448 3432 
Q 2725 3281 2906 2969 
z
M 947 1747 
Q 947 1113 1208 752 
Q 1469 391 1925 391 
Q 2381 391 2643 752 
Q 2906 1113 2906 1747 
Q 2906 2381 2643 2742 
Q 2381 3103 1925 3103 
Q 1469 3103 1208 2742 
Q 947 2381 947 1747 
z
" transform="scale(0.015625)"/>
       <path id="DejaVuSans-79" d="M 2059 -325 
Q 1816 -950 1584 -1140 
Q 1353 -1331 966 -1331 
L 506 -1331 
L 506 -850 
L 844 -850 
Q 1081 -850 1212 -737 
Q 1344 -625 1503 -206 
L 1606 56 
L 191 3500 
L 800 3500 
L 1894 763 
L 2988 3500 
L 3597 3500 
L 2059 -325 
z
" transform="scale(0.015625)"/>
      </defs>
      <use xlink:href="#DejaVuSans-41"/>
      <use xlink:href="#DejaVuSans-6d" transform="translate(68.408203 0)"/>
      <use xlink:href="#DejaVuSans-70" transform="translate(165.820312 0)"/>
      <use xlink:href="#DejaVuSans-6c" transform="translate(229.296875 0)"/>
      <use xlink:href="#DejaVuSans-69" transform="translate(257.080078 0)"/>
      <use xlink:href="#DejaVuSans-74" transform="translate(284.863281 0)"/>
      <use xlink:href="#DejaVuSans-75" transform="translate(324.072266 0)"/>
      <use xlink:href="#DejaVuSans-64" transform="translate(387.451172 0)"/>
      <use xlink:href="#DejaVuSans-65" transform="translate(450.927734 0)"/>
      <use xlink:href="#DejaVuSans-20" transform="translate(512.451172 0)"/>
      <use xlink:href="#DejaVuSans-28" transform="translate(544.238281 0)"/>
      <use xlink:href="#DejaVuSans-79" transform="translate(583.251953 0)"/>
      <use xlink:href="#DejaVuSans-29" transform="translate(642.431641 0)"/>
     </g>
    </g>
   </g>
   <g id="line2d_25">
    <path d="M 115.363636 208.42484 
L 116.632453 169.740978 
L 117.393742 152.3803 
L 117.901269 144.518309 
L 118.408795 139.897593 
L 118.662559 138.789936 
L 118.916322 138.445331 
L 119.170085 138.817205 
L 119.423848 139.84726 
L 119.931375 143.603766 
L 120.692665 152.305409 
L 123.48406 188.769686 
L 125.00664 203.834427 
L 126.529219 217.132234 
L 127.290509 221.969057 
L 127.798035 223.632138 
L 128.051799 223.812647 
L 128.305562 223.480242 
L 128.559325 222.581641 
L 129.066852 218.912473 
L 129.574378 212.566853 
L 130.081905 203.516728 
L 130.843194 185.412012 
L 132.365774 140.576607 
L 133.380827 113.818126 
L 134.142117 100.263977 
L 134.649643 95.357538 
L 134.903406 94.225111 
L 135.157169 93.967315 
L 135.410933 94.557606 
L 135.664696 95.952968 
L 136.172222 100.914205 
L 136.933512 112.573818 
L 139.724908 162.177735 
L 140.486198 170.640702 
L 141.247487 176.54192 
L 142.008777 180.592672 
L 142.770067 183.405198 
L 143.277593 184.685256 
L 143.78512 185.37214 
L 144.038883 185.423841 
L 144.292646 185.232199 
L 144.54641 184.755775 
L 144.800173 183.95153 
L 145.307699 181.192027 
L 145.815226 176.658359 
L 146.322752 170.16566 
L 147.084042 156.773183 
L 148.099095 133.667374 
L 149.621674 98.316146 
L 150.382964 86.321821 
L 150.890491 82.043345 
L 151.144254 81.175769 
L 151.398017 81.186291 
L 151.65178 82.07492 
L 151.905544 83.823355 
L 152.41307 89.738339 
L 153.17436 103.643871 
L 154.443176 133.838372 
L 155.458229 156.793962 
L 156.219519 169.920551 
L 156.727045 176.155957 
L 157.234572 180.375876 
L 157.742098 182.782026 
L 157.995862 183.402585 
L 158.249625 183.695919 
L 158.503388 183.709605 
L 158.757151 183.489989 
L 159.264678 182.518285 
L 160.025968 180.19757 
L 160.787257 177.163287 
L 161.548547 173.186216 
L 162.309837 167.602283 
L 163.071126 159.725731 
L 163.832416 149.317354 
L 166.623812 107.457781 
L 167.131338 104.535056 
L 167.385102 104.150802 
L 167.638865 104.54352 
L 167.892628 105.738146 
L 168.400155 110.54805 
L 168.907681 118.435147 
L 169.668971 135.056038 
L 172.460367 204.192394 
L 172.967893 211.386256 
L 173.47542 215.868612 
L 173.729183 217.109644 
L 173.982946 217.721516 
L 174.236709 217.747759 
L 174.490473 217.241816 
L 174.997999 214.883108 
L 175.759289 209.001244 
L 178.550684 184.419767 
L 180.327027 170.108561 
L 182.610896 150.336959 
L 183.118423 148.226664 
L 183.372186 147.871219 
L 183.625949 148.063424 
L 183.879713 148.854448 
L 184.133476 150.285016 
L 184.641002 155.164194 
L 185.148529 162.753173 
L 185.909819 178.712152 
L 187.178635 212.647974 
L 188.193688 238.806195 
L 188.954977 253.332471 
L 189.462504 259.434403 
L 189.97003 262.340493 
L 190.223794 262.5934 
L 190.477557 262.079331 
L 190.73132 260.842619 
L 191.238847 256.444974 
L 192.000136 246.207392 
L 194.537769 207.454149 
L 195.299059 200.029103 
L 196.060348 194.861208 
L 196.821638 191.248169 
L 197.582928 188.548235 
L 198.344218 186.581424 
L 198.851744 185.883952 
L 199.105507 185.818035 
L 199.359271 185.997922 
L 199.613034 186.47046 
L 199.866797 187.283194 
L 200.374324 190.10969 
L 200.88185 194.787554 
L 201.389377 201.499096 
L 202.150666 215.317616 
L 203.165719 239.008686 
L 204.688299 274.790859 
L 205.449588 286.720675 
L 205.957115 290.884345 
L 206.210878 291.684471 
L 206.464641 291.605787 
L 206.718405 290.652896 
L 206.972168 288.848603 
L 207.479694 282.863523 
L 208.240984 269.003644 
L 209.763564 233.386705 
L 210.778617 212.435655 
L 211.539906 201.285198 
L 212.047433 196.333981 
L 212.554959 193.246203 
L 213.062486 191.760284 
L 213.316249 191.515605 
L 213.570012 191.545985 
L 213.823776 191.810685 
L 214.331302 192.901438 
L 214.838829 194.567242 
L 215.600118 197.959313 
L 216.361408 202.63368 
L 217.122698 209.227448 
L 217.883987 218.438769 
L 218.645277 230.554086 
L 219.914093 255.385998 
L 220.929146 274.666635 
L 221.690436 284.940387 
L 222.197963 288.466584 
L 222.451726 289.031888 
L 222.705489 288.7415 
L 222.959252 287.573179 
L 223.466779 282.603125 
L 223.974305 274.304393 
L 224.735595 256.690948 
L 227.526991 181.986458 
L 228.034517 173.658784 
L 228.542044 168.046892 
L 229.04957 165.093992 
L 229.303333 164.539569 
L 229.557097 164.539066 
L 229.81086 165.037674 
L 230.318386 167.292407 
L 231.079676 172.908529 
L 232.348492 184.964228 
L 234.124835 203.911171 
L 235.393651 220.488648 
L 237.423757 249.177863 
L 237.931284 254.079444 
L 238.43881 256.847554 
L 238.692574 257.254045 
L 238.946337 256.93137 
L 239.2001 255.836201 
L 239.707627 251.227192 
L 240.215153 243.387039 
L 240.976443 226.153052 
L 241.991496 196.188276 
L 243.514075 150.919586 
L 244.275365 134.703259 
L 244.782891 127.660929 
L 245.290418 123.865079 
L 245.544181 123.161466 
L 245.797944 123.210397 
L 246.051708 123.962163 
L 246.559234 127.321735 
L 247.066761 132.661359 
L 248.081814 146.737906 
L 249.858156 171.835541 
L 251.126973 186.314498 
L 253.157079 206.382011 
L 253.918368 212.331863 
L 254.425895 214.954727 
L 254.679658 215.683622 
L 254.933421 215.942737 
L 255.187185 215.674672 
L 255.440948 214.827801 
L 255.694711 213.358574 
L 256.202237 208.431821 
L 256.709764 200.782085 
L 257.471054 184.538142 
L 258.486107 156.548373 
L 260.008686 114.321625 
L 260.769976 99.670939 
L 261.277502 93.848848 
L 261.531266 92.243113 
L 261.785029 91.519868 
L 262.038792 91.665663 
L 262.292555 92.649709 
L 262.800082 96.93043 
L 263.307608 103.825685 
L 264.068898 117.525578 
L 266.099004 156.455844 
L 266.860294 167.142796 
L 267.621584 174.989984 
L 268.382873 180.547225 
L 269.144163 184.540046 
L 269.905453 187.416988 
L 270.412979 188.680584 
L 270.666742 189.054764 
L 270.920506 189.213675 
L 271.174269 189.118337 
L 271.428032 188.726718 
L 271.681795 187.995694 
L 272.189322 185.350247 
L 272.696848 180.896825 
L 273.204375 174.468703 
L 273.965665 161.197551 
L 274.980718 138.440214 
L 276.503297 104.315504 
L 277.010824 96.246909 
L 277.51835 91.046271 
L 277.772113 89.671734 
L 278.025877 89.162303 
L 278.27964 89.531735 
L 278.533403 90.775441 
L 279.04093 95.77674 
L 279.548456 103.779428 
L 280.309746 120.003032 
L 282.593615 173.19794 
L 283.354905 184.828861 
L 283.862431 190.023117 
L 284.369958 193.306204 
L 284.877484 194.962379 
L 285.131247 195.292307 
L 285.385011 195.353284 
L 285.638774 195.191024 
L 286.1463 194.359423 
L 286.90759 192.285729 
L 287.66888 189.492855 
L 288.43017 185.703657 
L 289.191459 180.234512 
L 289.952749 172.419384 
L 290.714039 162.074887 
L 293.251671 123.742899 
L 293.759198 119.980763 
L 294.012961 119.110561 
L 294.266724 118.987049 
L 294.520488 119.647068 
L 294.774251 121.111434 
L 295.281777 126.45072 
L 295.789304 134.824643 
L 296.550593 152.027316 
L 299.088226 216.728505 
L 299.595752 224.999545 
L 300.103279 230.586661 
L 300.610805 233.481002 
L 300.864569 233.979954 
L 301.118332 233.904554 
L 301.372095 233.31038 
L 301.879622 230.821013 
L 302.640911 224.862527 
L 305.178544 202.539267 
L 307.20865 186.282846 
L 309.238756 168.277485 
L 309.746282 165.561478 
L 310.000045 164.82708 
L 310.253809 164.595176 
L 310.507572 164.923338 
L 310.761335 165.860319 
L 311.268862 169.699137 
L 311.776388 176.251651 
L 312.537678 190.872819 
L 313.552731 216.817329 
L 315.07531 256.570105 
L 315.8366 270.503995 
L 316.344127 276.140635 
L 316.59789 277.756852 
L 316.851653 278.565006 
L 317.105416 278.58173 
L 317.35918 277.839982 
L 317.612943 276.387692 
L 318.120469 271.607099 
L 318.881759 260.944561 
L 321.165628 224.940097 
L 321.926918 216.69264 
L 322.688208 210.821006 
L 323.449497 206.682382 
L 324.210787 203.576814 
L 324.972077 201.181086 
L 325.479603 200.101926 
L 325.733367 199.800536 
L 325.98713 199.710424 
L 326.240893 199.876556 
L 326.494656 200.346155 
L 326.74842 201.166607 
L 327.255946 204.03706 
L 327.763473 208.785679 
L 328.270999 215.574546 
L 329.032289 229.464067 
L 330.047342 253.021348 
L 331.316158 282.858573 
L 332.077448 295.930192 
L 332.584974 301.100821 
L 332.838738 302.442676 
L 333.092501 302.913355 
L 333.346264 302.503684 
L 333.600027 301.222856 
L 334.107554 296.174123 
L 334.61508 288.1846 
L 335.37637 272.136218 
L 337.660239 220.359247 
L 338.421529 209.19246 
L 338.929055 204.222894 
L 339.436582 201.086777 
L 339.944108 199.510257 
L 340.197872 199.202949 
L 340.451635 199.159429 
L 340.705398 199.33979 
L 341.212925 200.235907 
L 341.720451 201.684345 
L 342.481741 204.743054 
L 343.243031 209.117306 
L 344.00432 215.466613 
L 344.76561 224.472956 
L 345.5269 236.368898 
L 347.049479 265.541271 
L 348.064532 282.700372 
L 348.572059 288.363487 
L 349.079585 291.185973 
L 349.333348 291.379813 
L 349.587112 290.710204 
L 349.840875 289.159282 
L 350.348401 283.432116 
L 350.855928 274.417061 
L 351.617218 255.875098 
L 354.408613 179.8173 
L 354.91614 171.48145 
L 355.423666 165.865314 
L 355.931193 162.884074 
L 356.184956 162.299358 
L 356.438719 162.255042 
L 356.692483 162.694956 
L 357.200009 164.785163 
L 357.961299 170.042102 
L 359.230115 181.300371 
L 360.752695 196.331081 
L 361.767748 208.218189 
L 364.559143 244.374266 
L 365.06667 247.648845 
L 365.320433 248.384018 
L 365.574196 248.430577 
L 365.827959 247.735822 
L 366.081723 246.259799 
L 366.589249 240.878241 
L 367.096776 232.279315 
L 367.858065 214.007915 
L 369.126882 174.784721 
L 370.395698 137.051578 
L 371.156988 120.81375 
L 371.664514 113.809125 
L 372.172041 110.052544 
L 372.425804 109.359003 
L 372.679567 109.406869 
L 372.93333 110.143443 
L 373.440857 113.421102 
L 373.948383 118.601097 
L 374.963436 132.127 
L 376.486016 152.774824 
L 377.754832 166.761568 
L 379.531175 183.514676 
L 380.546228 191.565162 
L 381.053754 194.327446 
L 381.307517 195.195898 
L 381.561281 195.640384 
L 381.815044 195.600733 
L 382.068807 195.020776 
L 382.32257 193.850703 
L 382.830097 189.586199 
L 383.337623 182.61692 
L 384.098913 167.226818 
L 385.113966 139.596229 
L 386.890309 89.191735 
L 387.651599 74.600982 
L 388.159125 68.887708 
L 388.412888 67.343871 
L 388.666652 66.681441 
L 388.920415 66.882552 
L 389.174178 67.912257 
L 389.681704 72.240679 
L 390.189231 79.106325 
L 391.204284 97.544075 
L 392.726863 126.089535 
L 393.488153 137.068132 
L 394.249443 145.158847 
L 395.010733 150.793568 
L 395.772022 154.69936 
L 396.533312 157.430379 
L 397.040839 158.641697 
L 397.548365 159.21152 
L 397.802128 159.178516 
L 398.055892 158.881816 
L 398.309655 158.278928 
L 398.817181 155.983899 
L 399.324708 151.980901 
L 399.832234 146.05147 
L 400.593524 133.460918 
L 401.608577 111.061267 
L 403.38492 70.451556 
L 403.892446 62.487398 
L 404.399973 57.464398 
L 404.653736 56.196575 
L 404.907499 55.8 
L 405.161262 56.283868 
L 405.415026 57.639003 
L 405.922552 62.836468 
L 406.430079 70.973347 
L 407.191368 87.230091 
L 409.221474 134.573475 
L 409.982764 147.072705 
L 410.490291 152.862117 
L 410.997817 156.671952 
L 411.505344 158.739899 
L 411.759107 159.225069 
L 412.01287 159.406862 
L 412.266633 159.332502 
L 412.520397 159.046956 
L 413.027923 157.999757 
L 413.789213 155.652654 
L 414.550503 152.596531 
L 415.311792 148.508171 
L 416.073082 142.687619 
L 416.834372 134.492062 
L 417.595661 123.796525 
L 419.879531 88.040819 
L 420.387057 83.297454 
L 420.64082 81.863912 
L 420.894584 81.141004 
L 421.148347 81.176658 
L 421.40211 82.003832 
L 421.655873 83.63916 
L 422.1634 89.314291 
L 422.670926 97.987046 
L 423.432216 115.501446 
L 425.969849 179.595074 
L 426.477375 187.523364 
L 426.984902 192.757979 
L 427.492428 195.320829 
L 427.746191 195.670257 
L 427.999955 195.459709 
L 428.253718 194.746757 
L 428.761244 192.07391 
L 429.522534 185.978015 
L 431.806403 165.82523 
L 434.090272 147.752689 
L 436.120378 130.19619 
L 436.627905 127.755488 
L 436.881668 127.185779 
L 437.135431 127.134931 
L 437.389195 127.658524 
L 437.642958 128.802764 
L 438.150484 133.078997 
L 438.658011 140.074957 
L 439.419301 155.302849 
L 440.434354 181.795427 
L 441.956933 221.579344 
L 442.718223 235.22654 
L 443.225749 240.619051 
L 443.479512 242.11016 
L 443.733276 242.79701 
L 443.987039 242.700414 
L 444.240802 241.857217 
L 444.748329 238.14935 
L 445.255855 232.223747 
L 446.270908 216.476833 
L 447.539724 196.413093 
L 448.301014 186.970901 
L 449.062304 180.076518 
L 449.823594 175.338605 
L 450.584883 172.032064 
L 451.346173 169.568498 
L 452.107463 167.870488 
L 452.361226 167.556764 
L 452.614989 167.424355 
L 452.868753 167.515268 
L 453.122516 167.875217 
L 453.376279 168.551666 
L 453.883806 171.039747 
L 454.391332 175.311234 
L 454.898859 181.586272 
L 455.660148 194.804979 
L 456.675201 218.089887 
L 458.197781 254.736464 
L 458.95907 267.774813 
L 459.466597 272.840311 
L 459.72036 274.116242 
L 459.974123 274.517984 
L 460.227887 274.040946 
L 460.48165 272.698886 
L 460.989176 267.563455 
L 461.496703 259.560403 
L 462.257993 243.677486 
L 464.288099 198.168874 
L 465.049388 186.410309 
L 465.556915 181.048803 
L 466.064441 177.597644 
L 466.571968 175.822962 
L 466.825731 175.465904 
L 467.079494 175.405209 
L 467.333258 175.598845 
L 467.840784 176.597976 
L 468.348311 178.217095 
L 469.1096 181.55367 
L 469.87089 186.102658 
L 470.63218 192.448382 
L 471.393469 201.311528 
L 472.154759 213.078295 
L 473.169812 232.52854 
L 474.692392 261.870627 
L 475.199918 268.840316 
L 475.707445 273.195792 
L 475.961208 274.217337 
L 476.214971 274.400713 
L 476.468734 273.715128 
L 476.722498 272.147133 
L 477.230024 266.400764 
L 477.737551 257.416107 
L 478.49884 239.080315 
L 481.036473 170.685331 
L 481.797763 158.335774 
L 482.305289 153.487931 
L 482.812815 151.251061 
L 483.066579 151.022727 
L 483.320342 151.321654 
L 483.574105 152.090438 
L 484.081632 154.793318 
L 484.842921 160.863782 
L 486.365501 175.916478 
L 487.88808 192.784111 
L 489.156897 209.898159 
L 491.187003 238.494602 
L 491.694529 243.006983 
L 491.948292 244.443143 
L 492.202056 245.237439 
L 492.455819 245.328977 
L 492.709582 244.668047 
L 492.963345 243.218169 
L 493.470872 237.8816 
L 493.978398 229.346302 
L 494.739688 211.279501 
L 496.008504 172.906656 
L 497.27732 136.765344 
L 498.03861 121.744076 
L 498.546137 115.596449 
L 499.053663 112.693479 
L 499.307426 112.415451 
L 499.56119 112.866662 
L 499.814953 113.991538 
L 500.322479 117.992064 
L 501.083769 127.208787 
L 504.128928 169.551457 
L 505.905271 188.418734 
L 507.174087 200.274412 
L 507.935377 205.255392 
L 508.442903 206.78682 
L 508.696667 206.833675 
L 508.95043 206.326682 
L 509.204193 205.217975 
L 509.711719 201.051829 
L 510.219246 194.170123 
L 510.980536 178.957415 
L 511.995589 151.806917 
L 513.518168 109.14827 
L 514.279458 93.585967 
L 514.786984 87.008773 
L 515.294511 83.888063 
L 515.548274 83.646948 
L 515.802037 84.261593 
L 516.055801 85.692965 
L 516.563327 90.774884 
L 517.324617 102.773422 
L 520.369776 158.581817 
L 521.131066 167.011151 
L 521.892355 173.03368 
L 522.653645 177.37915 
L 523.414935 180.568721 
L 523.922461 182.0706 
L 524.429988 182.900805 
L 524.683751 182.982921 
L 524.937514 182.790045 
L 525.191277 182.279344 
L 525.445041 181.407932 
L 525.952567 178.424228 
L 526.460094 173.57735 
L 526.96762 166.739571 
L 527.72891 152.934675 
L 528.997726 123.833983 
L 530.012779 101.440906 
L 530.774069 89.526836 
L 531.281595 85.214022 
L 531.535359 84.314644 
L 531.789122 84.289539 
L 532.042885 85.143309 
L 532.296648 86.862199 
L 532.804175 92.751237 
L 533.311701 101.50598 
L 534.326754 124.783357 
L 535.849334 161.52239 
L 536.610623 175.505097 
L 537.371913 184.966874 
L 537.87944 188.796926 
L 538.386966 190.919036 
L 538.640729 191.446868 
L 538.894493 191.682112 
L 539.148256 191.671613 
L 539.402019 191.459463 
L 539.909546 190.58207 
L 540.670835 188.518786 
L 541.432125 185.731429 
L 542.193415 181.852325 
L 542.954705 176.168112 
L 543.715994 168.062326 
L 544.477284 157.470534 
L 546.761153 122.801619 
L 547.26868 118.518638 
L 547.522443 117.339347 
L 547.776206 116.882758 
L 548.02997 117.193204 
L 548.283733 118.299672 
L 548.791259 122.932857 
L 549.298786 130.671869 
L 550.060075 147.194251 
L 552.851471 217.884872 
L 553.358998 225.591312 
L 553.866524 230.588178 
L 554.374051 232.927686 
L 554.627814 233.178934 
L 554.881577 232.882588 
L 555.13534 232.098065 
L 555.642867 229.329098 
L 556.404157 223.20696 
L 558.688026 203.421566 
L 560.971895 185.447744 
L 562.748238 169.802978 
L 563.255764 166.825867 
L 563.509527 165.909822 
L 563.763291 165.464901 
L 564.017054 165.552217 
L 564.270817 166.225216 
L 564.52458 167.527428 
L 565.032107 172.132303 
L 565.539633 179.448894 
L 566.300923 195.072832 
L 567.569739 228.869425 
L 568.838556 261.032062 
L 569.599845 274.082565 
L 570.107372 279.01706 
L 570.361135 280.274058 
L 570.614898 280.729198 
L 570.868662 280.407417 
L 571.122425 279.349356 
L 571.629951 275.255675 
L 572.391241 265.309481 
L 574.928874 226.223098 
L 575.690163 218.536642 
L 576.451453 213.143242 
L 577.212743 209.357138 
L 577.974032 206.514254 
L 578.735322 204.385367 
L 579.242849 203.541784 
L 579.496612 203.3863 
L 579.750375 203.464165 
L 580.004138 203.821725 
L 580.257902 204.506556 
L 580.765428 207.041391 
L 581.272955 211.390182 
L 581.780481 217.754644 
L 582.541771 231.075163 
L 583.556824 254.289967 
L 585.079403 290.068706 
L 585.840693 302.318746 
L 586.34822 306.769985 
L 586.601983 307.724025 
L 586.855746 307.8 
L 587.109509 306.997923 
L 587.363273 305.336098 
L 587.870799 299.594102 
L 588.378326 291.05327 
L 589.393379 268.461506 
L 590.915958 233.255775 
L 591.677248 220.061992 
L 592.438537 211.264867 
L 592.946064 207.782739 
L 593.45359 205.936964 
L 593.707354 205.527148 
L 593.961117 205.402154 
L 594.21488 205.520544 
L 594.722407 206.340931 
L 595.229933 207.754654 
L 595.991223 210.767983 
L 596.752513 215.019901 
L 597.513802 221.122643 
L 598.275092 229.787493 
L 599.036382 241.352371 
L 600.305198 265.466212 
L 601.574014 288.516512 
L 602.081541 294.884422 
L 602.589067 298.558221 
L 602.842831 299.216537 
L 603.096594 299.026804 
L 603.350357 297.962477 
L 603.60412 296.014586 
L 604.111647 289.523268 
L 604.619173 279.842944 
L 605.380463 260.622098 
L 607.918095 191.035339 
L 608.679385 178.677108 
L 609.186912 173.825283 
L 609.694438 171.554075 
L 609.948201 171.290702 
L 610.201965 171.540278 
L 610.455728 172.244334 
L 610.963254 174.770315 
L 611.724544 180.46618 
L 613.247124 194.545568 
L 614.769703 210.465249 
L 616.038519 226.841082 
L 617.814862 251.08374 
L 618.322388 255.932305 
L 618.829915 258.723128 
L 619.083678 259.165202 
L 619.337441 258.890827 
L 619.591205 257.853431 
L 619.844968 256.020128 
L 620.352494 249.911932 
L 620.860021 240.627326 
L 621.621311 221.552318 
L 622.636364 190.171636 
L 622.636364 190.171636 
" clip-path="url(#pb165f42d94)" style="fill: none; stroke: #00ffff; stroke-width: 1.5; stroke-linecap: square"/>
   </g>
   <g id="patch_3">
    <path d="M 90 320.4 
L 90 43.2 
" style="fill: none; stroke: #ffffff; stroke-width: 0.8; stroke-linejoin: miter; stroke-linecap: square"/>
   </g>
   <g id="patch_4">
    <path d="M 648 320.4 
L 648 43.2 
" style="fill: none; stroke: #ffffff; stroke-width: 0.8; stroke-linejoin: miter; stroke-linecap: square"/>
   </g>
   <g id="patch_5">
    <path d="M 90 320.4 
L 648 320.4 
" style="fill: none; stroke: #ffffff; stroke-width: 0.8; stroke-linejoin: miter; stroke-linecap: square"/>
   </g>
   <g id="patch_6">
    <path d="M 90 43.2 
L 648 43.2 
" style="fill: none; stroke: #ffffff; stroke-width: 0.8; stroke-linejoin: miter; stroke-linecap: square"/>
   </g>
  </g>
 </g>
 <defs>
  <clipPath id="pb165f42d94">
   <rect x="90" y="43.2" width="558" height="277.2"/>
  </clipPath>
 </defs>
</svg>
