<?xml version="1.0" encoding="utf-8" standalone="no"?>
<!DOCTYPE svg PUBLIC "-//W3C//DTD SVG 1.1//EN"
  "http://www.w3.org/Graphics/SVG/1.1/DTD/svg11.dtd">
<svg height="360pt" version="1.1" viewBox="0 0 720 360" width="720pt" xmlns="http://www.w3.org/2000/svg" xmlns:xlink="http://www.w3.org/1999/xlink">
 <metadata>
  <rdf:RDF xmlns:cc="http://creativecommons.org/ns#" xmlns:dc="http://purl.org/dc/elements/1.1/" xmlns:rdf="http://www.w3.org/1999/02/22-rdf-syntax-ns#">
   <cc:Work>
    <dc:type rdf:resource="http://purl.org/dc/dcmitype/StillImage"/>
    <dc:date>2025-06-25T21:34:50.418774</dc:date>
    <dc:format>image/svg+xml</dc:format>
    <dc:creator>
     <cc:Agent>
      <dc:title>Matplotlib v3.4.3, https://matplotlib.org/</dc:title>
     </cc:Agent>
    </dc:creator>
   </cc:Work>
  </rdf:RDF>
 </metadata>
 <defs>
  <style type="text/css">*{stroke-linecap:butt;stroke-linejoin:round;}</style>
 </defs>
 <g id="figure_1">
  <g id="patch_1">
   <path d="M 0 360 
L 720 360 
L 720 0 
L 0 0 
z
" style="fill:#121212;"/>
  </g>
  <g id="axes_1">
   <g id="patch_2">
    <path d="M 90 315 
L 648 315 
L 648 43.2 
L 90 43.2 
z
" style="fill:#121212;"/>
   </g>
   <g id="matplotlib.axis_1">
    <g id="xtick_1">
     <g id="line2d_1">
      <path clip-path="url(#p4021c46722)" d="M 115.363636 315 
L 115.363636 43.2 
" style="fill:none;stroke:#ffffff;stroke-linecap:square;stroke-opacity:0.2;stroke-width:0.8;"/>
     </g>
     <g id="line2d_2">
      <defs>
       <path d="M 0 0 
L 0 3.5 
" id="m2cd4c1c053" style="stroke:#ffffff;stroke-width:0.8;"/>
      </defs>
      <g>
       <use style="fill:#ffffff;stroke:#ffffff;stroke-width:0.8;" x="115.363636" xlink:href="#m2cd4c1c053" y="315"/>
      </g>
     </g>
     <g id="text_1">
      <!-- 0 -->
      <g style="fill:#ffffff;" transform="translate(109.001136 337.196875)scale(0.2 -0.2)">
       <defs>
        <path d="M 2034 4250 
Q 1547 4250 1301 3770 
Q 1056 3291 1056 2328 
Q 1056 1369 1301 889 
Q 1547 409 2034 409 
Q 2525 409 2770 889 
Q 3016 1369 3016 2328 
Q 3016 3291 2770 3770 
Q 2525 4250 2034 4250 
z
M 2034 4750 
Q 2819 4750 3233 4129 
Q 3647 3509 3647 2328 
Q 3647 1150 3233 529 
Q 2819 -91 2034 -91 
Q 1250 -91 836 529 
Q 422 1150 422 2328 
Q 422 3509 836 4129 
Q 1250 4750 2034 4750 
z
" id="DejaVuSans-30" transform="scale(0.015625)"/>
       </defs>
       <use xlink:href="#DejaVuSans-30"/>
      </g>
     </g>
    </g>
    <g id="xtick_2">
     <g id="line2d_3">
      <path clip-path="url(#p4021c46722)" d="M 216.282339 315 
L 216.282339 43.2 
" style="fill:none;stroke:#ffffff;stroke-linecap:square;stroke-opacity:0.2;stroke-width:0.8;"/>
     </g>
     <g id="line2d_4">
      <g>
       <use style="fill:#ffffff;stroke:#ffffff;stroke-width:0.8;" x="216.282339" xlink:href="#m2cd4c1c053" y="315"/>
      </g>
     </g>
     <g id="text_2">
      <!-- 5 -->
      <g style="fill:#ffffff;" transform="translate(209.919839 337.196875)scale(0.2 -0.2)">
       <defs>
        <path d="M 691 4666 
L 3169 4666 
L 3169 4134 
L 1269 4134 
L 1269 2991 
Q 1406 3038 1543 3061 
Q 1681 3084 1819 3084 
Q 2600 3084 3056 2656 
Q 3513 2228 3513 1497 
Q 3513 744 3044 326 
Q 2575 -91 1722 -91 
Q 1428 -91 1123 -41 
Q 819 9 494 109 
L 494 744 
Q 775 591 1075 516 
Q 1375 441 1709 441 
Q 2250 441 2565 725 
Q 2881 1009 2881 1497 
Q 2881 1984 2565 2268 
Q 2250 2553 1709 2553 
Q 1456 2553 1204 2497 
Q 953 2441 691 2322 
L 691 4666 
z
" id="DejaVuSans-35" transform="scale(0.015625)"/>
       </defs>
       <use xlink:href="#DejaVuSans-35"/>
      </g>
     </g>
    </g>
    <g id="xtick_3">
     <g id="line2d_5">
      <path clip-path="url(#p4021c46722)" d="M 317.201041 315 
L 317.201041 43.2 
" style="fill:none;stroke:#ffffff;stroke-linecap:square;stroke-opacity:0.2;stroke-width:0.8;"/>
     </g>
     <g id="line2d_6">
      <g>
       <use style="fill:#ffffff;stroke:#ffffff;stroke-width:0.8;" x="317.201041" xlink:href="#m2cd4c1c053" y="315"/>
      </g>
     </g>
     <g id="text_3">
      <!-- 10 -->
      <g style="fill:#ffffff;" transform="translate(304.476041 337.196875)scale(0.2 -0.2)">
       <defs>
        <path d="M 794 531 
L 1825 531 
L 1825 4091 
L 703 3866 
L 703 4441 
L 1819 4666 
L 2450 4666 
L 2450 531 
L 3481 531 
L 3481 0 
L 794 0 
L 794 531 
z
" id="DejaVuSans-31" transform="scale(0.015625)"/>
       </defs>
       <use xlink:href="#DejaVuSans-31"/>
       <use x="63.623047" xlink:href="#DejaVuSans-30"/>
      </g>
     </g>
    </g>
    <g id="xtick_4">
     <g id="line2d_7">
      <path clip-path="url(#p4021c46722)" d="M 418.119744 315 
L 418.119744 43.2 
" style="fill:none;stroke:#ffffff;stroke-linecap:square;stroke-opacity:0.2;stroke-width:0.8;"/>
     </g>
     <g id="line2d_8">
      <g>
       <use style="fill:#ffffff;stroke:#ffffff;stroke-width:0.8;" x="418.119744" xlink:href="#m2cd4c1c053" y="315"/>
      </g>
     </g>
     <g id="text_4">
      <!-- 15 -->
      <g style="fill:#ffffff;" transform="translate(405.394744 337.196875)scale(0.2 -0.2)">
       <use xlink:href="#DejaVuSans-31"/>
       <use x="63.623047" xlink:href="#DejaVuSans-35"/>
      </g>
     </g>
    </g>
    <g id="xtick_5">
     <g id="line2d_9">
      <path clip-path="url(#p4021c46722)" d="M 519.038447 315 
L 519.038447 43.2 
" style="fill:none;stroke:#ffffff;stroke-linecap:square;stroke-opacity:0.2;stroke-width:0.8;"/>
     </g>
     <g id="line2d_10">
      <g>
       <use style="fill:#ffffff;stroke:#ffffff;stroke-width:0.8;" x="519.038447" xlink:href="#m2cd4c1c053" y="315"/>
      </g>
     </g>
     <g id="text_5">
      <!-- 20 -->
      <g style="fill:#ffffff;" transform="translate(506.313447 337.196875)scale(0.2 -0.2)">
       <defs>
        <path d="M 1228 531 
L 3431 531 
L 3431 0 
L 469 0 
L 469 531 
Q 828 903 1448 1529 
Q 2069 2156 2228 2338 
Q 2531 2678 2651 2914 
Q 2772 3150 2772 3378 
Q 2772 3750 2511 3984 
Q 2250 4219 1831 4219 
Q 1534 4219 1204 4116 
Q 875 4013 500 3803 
L 500 4441 
Q 881 4594 1212 4672 
Q 1544 4750 1819 4750 
Q 2544 4750 2975 4387 
Q 3406 4025 3406 3419 
Q 3406 3131 3298 2873 
Q 3191 2616 2906 2266 
Q 2828 2175 2409 1742 
Q 1991 1309 1228 531 
z
" id="DejaVuSans-32" transform="scale(0.015625)"/>
       </defs>
       <use xlink:href="#DejaVuSans-32"/>
       <use x="63.623047" xlink:href="#DejaVuSans-30"/>
      </g>
     </g>
    </g>
    <g id="xtick_6">
     <g id="line2d_11">
      <path clip-path="url(#p4021c46722)" d="M 619.957149 315 
L 619.957149 43.2 
" style="fill:none;stroke:#ffffff;stroke-linecap:square;stroke-opacity:0.2;stroke-width:0.8;"/>
     </g>
     <g id="line2d_12">
      <g>
       <use style="fill:#ffffff;stroke:#ffffff;stroke-width:0.8;" x="619.957149" xlink:href="#m2cd4c1c053" y="315"/>
      </g>
     </g>
     <g id="text_6">
      <!-- 25 -->
      <g style="fill:#ffffff;" transform="translate(607.232149 337.196875)scale(0.2 -0.2)">
       <use xlink:href="#DejaVuSans-32"/>
       <use x="63.623047" xlink:href="#DejaVuSans-35"/>
      </g>
     </g>
    </g>
    <g id="text_7">
     <!-- Time (t) -->
     <g style="fill:#ffffff;" transform="translate(329.63125 360.553125)scale(0.2 -0.2)">
      <defs>
       <path d="M -19 4666 
L 3928 4666 
L 3928 4134 
L 2272 4134 
L 2272 0 
L 1638 0 
L 1638 4134 
L -19 4134 
L -19 4666 
z
" id="DejaVuSans-54" transform="scale(0.015625)"/>
       <path d="M 603 3500 
L 1178 3500 
L 1178 0 
L 603 0 
L 603 3500 
z
M 603 4863 
L 1178 4863 
L 1178 4134 
L 603 4134 
L 603 4863 
z
" id="DejaVuSans-69" transform="scale(0.015625)"/>
       <path d="M 3328 2828 
Q 3544 3216 3844 3400 
Q 4144 3584 4550 3584 
Q 5097 3584 5394 3201 
Q 5691 2819 5691 2113 
L 5691 0 
L 5113 0 
L 5113 2094 
Q 5113 2597 4934 2840 
Q 4756 3084 4391 3084 
Q 3944 3084 3684 2787 
Q 3425 2491 3425 1978 
L 3425 0 
L 2847 0 
L 2847 2094 
Q 2847 2600 2669 2842 
Q 2491 3084 2119 3084 
Q 1678 3084 1418 2786 
Q 1159 2488 1159 1978 
L 1159 0 
L 581 0 
L 581 3500 
L 1159 3500 
L 1159 2956 
Q 1356 3278 1631 3431 
Q 1906 3584 2284 3584 
Q 2666 3584 2933 3390 
Q 3200 3197 3328 2828 
z
" id="DejaVuSans-6d" transform="scale(0.015625)"/>
       <path d="M 3597 1894 
L 3597 1613 
L 953 1613 
Q 991 1019 1311 708 
Q 1631 397 2203 397 
Q 2534 397 2845 478 
Q 3156 559 3463 722 
L 3463 178 
Q 3153 47 2828 -22 
Q 2503 -91 2169 -91 
Q 1331 -91 842 396 
Q 353 884 353 1716 
Q 353 2575 817 3079 
Q 1281 3584 2069 3584 
Q 2775 3584 3186 3129 
Q 3597 2675 3597 1894 
z
M 3022 2063 
Q 3016 2534 2758 2815 
Q 2500 3097 2075 3097 
Q 1594 3097 1305 2825 
Q 1016 2553 972 2059 
L 3022 2063 
z
" id="DejaVuSans-65" transform="scale(0.015625)"/>
       <path id="DejaVuSans-20" transform="scale(0.015625)"/>
       <path d="M 1984 4856 
Q 1566 4138 1362 3434 
Q 1159 2731 1159 2009 
Q 1159 1288 1364 580 
Q 1569 -128 1984 -844 
L 1484 -844 
Q 1016 -109 783 600 
Q 550 1309 550 2009 
Q 550 2706 781 3412 
Q 1013 4119 1484 4856 
L 1984 4856 
z
" id="DejaVuSans-28" transform="scale(0.015625)"/>
       <path d="M 1172 4494 
L 1172 3500 
L 2356 3500 
L 2356 3053 
L 1172 3053 
L 1172 1153 
Q 1172 725 1289 603 
Q 1406 481 1766 481 
L 2356 481 
L 2356 0 
L 1766 0 
Q 1100 0 847 248 
Q 594 497 594 1153 
L 594 3053 
L 172 3053 
L 172 3500 
L 594 3500 
L 594 4494 
L 1172 4494 
z
" id="DejaVuSans-74" transform="scale(0.015625)"/>
       <path d="M 513 4856 
L 1013 4856 
Q 1481 4119 1714 3412 
Q 1947 2706 1947 2009 
Q 1947 1309 1714 600 
Q 1481 -109 1013 -844 
L 513 -844 
Q 928 -128 1133 580 
Q 1338 1288 1338 2009 
Q 1338 2731 1133 3434 
Q 928 4138 513 4856 
z
" id="DejaVuSans-29" transform="scale(0.015625)"/>
      </defs>
      <use xlink:href="#DejaVuSans-54"/>
      <use x="57.958984" xlink:href="#DejaVuSans-69"/>
      <use x="85.742188" xlink:href="#DejaVuSans-6d"/>
      <use x="183.154297" xlink:href="#DejaVuSans-65"/>
      <use x="244.677734" xlink:href="#DejaVuSans-20"/>
      <use x="276.464844" xlink:href="#DejaVuSans-28"/>
      <use x="315.478516" xlink:href="#DejaVuSans-74"/>
      <use x="354.6875" xlink:href="#DejaVuSans-29"/>
     </g>
    </g>
   </g>
   <g id="matplotlib.axis_2">
    <g id="ytick_1">
     <g id="line2d_13">
      <path clip-path="url(#p4021c46722)" d="M 90 302.648051 
L 648 302.648051 
" style="fill:none;stroke:#ffffff;stroke-linecap:square;stroke-opacity:0.2;stroke-width:0.8;"/>
     </g>
     <g id="line2d_14">
      <defs>
       <path d="M 0 0 
L -3.5 0 
" id="macdc11ef3b" style="stroke:#ffffff;stroke-width:0.8;"/>
      </defs>
      <g>
       <use style="fill:#ffffff;stroke:#ffffff;stroke-width:0.8;" x="90" xlink:href="#macdc11ef3b" y="302.648051"/>
      </g>
     </g>
     <g id="text_8">
      <!-- −3 -->
      <g style="fill:#ffffff;" transform="translate(53.515625 310.246488)scale(0.2 -0.2)">
       <defs>
        <path d="M 678 2272 
L 4684 2272 
L 4684 1741 
L 678 1741 
L 678 2272 
z
" id="DejaVuSans-2212" transform="scale(0.015625)"/>
        <path d="M 2597 2516 
Q 3050 2419 3304 2112 
Q 3559 1806 3559 1356 
Q 3559 666 3084 287 
Q 2609 -91 1734 -91 
Q 1441 -91 1130 -33 
Q 819 25 488 141 
L 488 750 
Q 750 597 1062 519 
Q 1375 441 1716 441 
Q 2309 441 2620 675 
Q 2931 909 2931 1356 
Q 2931 1769 2642 2001 
Q 2353 2234 1838 2234 
L 1294 2234 
L 1294 2753 
L 1863 2753 
Q 2328 2753 2575 2939 
Q 2822 3125 2822 3475 
Q 2822 3834 2567 4026 
Q 2313 4219 1838 4219 
Q 1578 4219 1281 4162 
Q 984 4106 628 3988 
L 628 4550 
Q 988 4650 1302 4700 
Q 1616 4750 1894 4750 
Q 2613 4750 3031 4423 
Q 3450 4097 3450 3541 
Q 3450 3153 3228 2886 
Q 3006 2619 2597 2516 
z
" id="DejaVuSans-33" transform="scale(0.015625)"/>
       </defs>
       <use xlink:href="#DejaVuSans-2212"/>
       <use x="83.789062" xlink:href="#DejaVuSans-33"/>
      </g>
     </g>
    </g>
    <g id="ytick_2">
     <g id="line2d_15">
      <path clip-path="url(#p4021c46722)" d="M 90 261.465367 
L 648 261.465367 
" style="fill:none;stroke:#ffffff;stroke-linecap:square;stroke-opacity:0.2;stroke-width:0.8;"/>
     </g>
     <g id="line2d_16">
      <g>
       <use style="fill:#ffffff;stroke:#ffffff;stroke-width:0.8;" x="90" xlink:href="#macdc11ef3b" y="261.465367"/>
      </g>
     </g>
     <g id="text_9">
      <!-- −2 -->
      <g style="fill:#ffffff;" transform="translate(53.515625 269.063805)scale(0.2 -0.2)">
       <use xlink:href="#DejaVuSans-2212"/>
       <use x="83.789062" xlink:href="#DejaVuSans-32"/>
      </g>
     </g>
    </g>
    <g id="ytick_3">
     <g id="line2d_17">
      <path clip-path="url(#p4021c46722)" d="M 90 220.282684 
L 648 220.282684 
" style="fill:none;stroke:#ffffff;stroke-linecap:square;stroke-opacity:0.2;stroke-width:0.8;"/>
     </g>
     <g id="line2d_18">
      <g>
       <use style="fill:#ffffff;stroke:#ffffff;stroke-width:0.8;" x="90" xlink:href="#macdc11ef3b" y="220.282684"/>
      </g>
     </g>
     <g id="text_10">
      <!-- −1 -->
      <g style="fill:#ffffff;" transform="translate(53.515625 227.881121)scale(0.2 -0.2)">
       <use xlink:href="#DejaVuSans-2212"/>
       <use x="83.789062" xlink:href="#DejaVuSans-31"/>
      </g>
     </g>
    </g>
    <g id="ytick_4">
     <g id="line2d_19">
      <path clip-path="url(#p4021c46722)" d="M 90 179.1 
L 648 179.1 
" style="fill:none;stroke:#ffffff;stroke-linecap:square;stroke-opacity:0.2;stroke-width:0.8;"/>
     </g>
     <g id="line2d_20">
      <g>
       <use style="fill:#ffffff;stroke:#ffffff;stroke-width:0.8;" x="90" xlink:href="#macdc11ef3b" y="179.1"/>
      </g>
     </g>
     <g id="text_11">
      <!-- 0 -->
      <g style="fill:#ffffff;" transform="translate(70.275 186.698438)scale(0.2 -0.2)">
       <use xlink:href="#DejaVuSans-30"/>
      </g>
     </g>
    </g>
    <g id="ytick_5">
     <g id="line2d_21">
      <path clip-path="url(#p4021c46722)" d="M 90 137.917316 
L 648 137.917316 
" style="fill:none;stroke:#ffffff;stroke-linecap:square;stroke-opacity:0.2;stroke-width:0.8;"/>
     </g>
     <g id="line2d_22">
      <g>
       <use style="fill:#ffffff;stroke:#ffffff;stroke-width:0.8;" x="90" xlink:href="#macdc11ef3b" y="137.917316"/>
      </g>
     </g>
     <g id="text_12">
      <!-- 1 -->
      <g style="fill:#ffffff;" transform="translate(70.275 145.515754)scale(0.2 -0.2)">
       <use xlink:href="#DejaVuSans-31"/>
      </g>
     </g>
    </g>
    <g id="ytick_6">
     <g id="line2d_23">
      <path clip-path="url(#p4021c46722)" d="M 90 96.734633 
L 648 96.734633 
" style="fill:none;stroke:#ffffff;stroke-linecap:square;stroke-opacity:0.2;stroke-width:0.8;"/>
     </g>
     <g id="line2d_24">
      <g>
       <use style="fill:#ffffff;stroke:#ffffff;stroke-width:0.8;" x="90" xlink:href="#macdc11ef3b" y="96.734633"/>
      </g>
     </g>
     <g id="text_13">
      <!-- 2 -->
      <g style="fill:#ffffff;" transform="translate(70.275 104.33307)scale(0.2 -0.2)">
       <use xlink:href="#DejaVuSans-32"/>
      </g>
     </g>
    </g>
    <g id="ytick_7">
     <g id="line2d_25">
      <path clip-path="url(#p4021c46722)" d="M 90 55.551949 
L 648 55.551949 
" style="fill:none;stroke:#ffffff;stroke-linecap:square;stroke-opacity:0.2;stroke-width:0.8;"/>
     </g>
     <g id="line2d_26">
      <g>
       <use style="fill:#ffffff;stroke:#ffffff;stroke-width:0.8;" x="90" xlink:href="#macdc11ef3b" y="55.551949"/>
      </g>
     </g>
     <g id="text_14">
      <!-- 3 -->
      <g style="fill:#ffffff;" transform="translate(70.275 63.150387)scale(0.2 -0.2)">
       <use xlink:href="#DejaVuSans-33"/>
      </g>
     </g>
    </g>
    <g id="text_15">
     <!-- Amplitude (y) -->
     <g style="fill:#ffffff;" transform="translate(45.35625 247.245313)rotate(-90)scale(0.2 -0.2)">
      <defs>
       <path d="M 2188 4044 
L 1331 1722 
L 3047 1722 
L 2188 4044 
z
M 1831 4666 
L 2547 4666 
L 4325 0 
L 3669 0 
L 3244 1197 
L 1141 1197 
L 716 0 
L 50 0 
L 1831 4666 
z
" id="DejaVuSans-41" transform="scale(0.015625)"/>
       <path d="M 1159 525 
L 1159 -1331 
L 581 -1331 
L 581 3500 
L 1159 3500 
L 1159 2969 
Q 1341 3281 1617 3432 
Q 1894 3584 2278 3584 
Q 2916 3584 3314 3078 
Q 3713 2572 3713 1747 
Q 3713 922 3314 415 
Q 2916 -91 2278 -91 
Q 1894 -91 1617 61 
Q 1341 213 1159 525 
z
M 3116 1747 
Q 3116 2381 2855 2742 
Q 2594 3103 2138 3103 
Q 1681 3103 1420 2742 
Q 1159 2381 1159 1747 
Q 1159 1113 1420 752 
Q 1681 391 2138 391 
Q 2594 391 2855 752 
Q 3116 1113 3116 1747 
z
" id="DejaVuSans-70" transform="scale(0.015625)"/>
       <path d="M 603 4863 
L 1178 4863 
L 1178 0 
L 603 0 
L 603 4863 
z
" id="DejaVuSans-6c" transform="scale(0.015625)"/>
       <path d="M 544 1381 
L 544 3500 
L 1119 3500 
L 1119 1403 
Q 1119 906 1312 657 
Q 1506 409 1894 409 
Q 2359 409 2629 706 
Q 2900 1003 2900 1516 
L 2900 3500 
L 3475 3500 
L 3475 0 
L 2900 0 
L 2900 538 
Q 2691 219 2414 64 
Q 2138 -91 1772 -91 
Q 1169 -91 856 284 
Q 544 659 544 1381 
z
M 1991 3584 
L 1991 3584 
z
" id="DejaVuSans-75" transform="scale(0.015625)"/>
       <path d="M 2906 2969 
L 2906 4863 
L 3481 4863 
L 3481 0 
L 2906 0 
L 2906 525 
Q 2725 213 2448 61 
Q 2172 -91 1784 -91 
Q 1150 -91 751 415 
Q 353 922 353 1747 
Q 353 2572 751 3078 
Q 1150 3584 1784 3584 
Q 2172 3584 2448 3432 
Q 2725 3281 2906 2969 
z
M 947 1747 
Q 947 1113 1208 752 
Q 1469 391 1925 391 
Q 2381 391 2643 752 
Q 2906 1113 2906 1747 
Q 2906 2381 2643 2742 
Q 2381 3103 1925 3103 
Q 1469 3103 1208 2742 
Q 947 2381 947 1747 
z
" id="DejaVuSans-64" transform="scale(0.015625)"/>
       <path d="M 2059 -325 
Q 1816 -950 1584 -1140 
Q 1353 -1331 966 -1331 
L 506 -1331 
L 506 -850 
L 844 -850 
Q 1081 -850 1212 -737 
Q 1344 -625 1503 -206 
L 1606 56 
L 191 3500 
L 800 3500 
L 1894 763 
L 2988 3500 
L 3597 3500 
L 2059 -325 
z
" id="DejaVuSans-79" transform="scale(0.015625)"/>
      </defs>
      <use xlink:href="#DejaVuSans-41"/>
      <use x="68.408203" xlink:href="#DejaVuSans-6d"/>
      <use x="165.820312" xlink:href="#DejaVuSans-70"/>
      <use x="229.296875" xlink:href="#DejaVuSans-6c"/>
      <use x="257.080078" xlink:href="#DejaVuSans-69"/>
      <use x="284.863281" xlink:href="#DejaVuSans-74"/>
      <use x="324.072266" xlink:href="#DejaVuSans-75"/>
      <use x="387.451172" xlink:href="#DejaVuSans-64"/>
      <use x="450.927734" xlink:href="#DejaVuSans-65"/>
      <use x="512.451172" xlink:href="#DejaVuSans-20"/>
      <use x="544.238281" xlink:href="#DejaVuSans-28"/>
      <use x="583.251953" xlink:href="#DejaVuSans-79"/>
      <use x="642.431641" xlink:href="#DejaVuSans-29"/>
     </g>
    </g>
   </g>
   <g id="line2d_27">
    <path clip-path="url(#p4021c46722)" d="M 115.363636 179.1 
L 117.394758 135.246582 
L 118.410319 116.478888 
L 119.42588 101.279529 
L 120.441441 90.482175 
L 120.949222 86.920415 
L 121.457002 84.644608 
L 121.964783 83.675654 
L 122.472563 84.013919 
L 122.980344 85.639239 
L 123.488124 88.511249 
L 123.995905 92.570029 
L 125.011466 103.916474 
L 126.027027 118.851633 
L 127.550369 145.641494 
L 130.089271 191.592288 
L 131.104832 206.75682 
L 132.120393 218.430132 
L 132.628174 222.690503 
L 133.135954 225.790511 
L 133.643735 227.671011 
L 134.151515 228.292432 
L 134.659296 227.635413 
L 135.167076 225.701109 
L 135.674857 222.511185 
L 136.182637 218.107473 
L 137.198198 205.922631 
L 138.213759 189.852152 
L 139.737101 160.605504 
L 142.783784 98.672479 
L 143.799345 81.651711 
L 144.814906 68.310166 
L 145.322686 63.286591 
L 145.830467 59.47074 
L 146.338247 56.921752 
L 146.846028 55.679139 
L 147.353808 55.762168 
L 147.861589 57.16955 
L 148.369369 59.879467 
L 148.87715 63.849912 
L 149.892711 75.307701 
L 150.908272 90.835887 
L 152.431613 119.612777 
L 155.986077 190.953404 
L 157.001638 206.806708 
L 158.017199 218.722402 
L 158.52498 222.977353 
L 159.03276 226.012204 
L 159.540541 227.787613 
L 160.048321 228.284469 
L 160.556102 227.504185 
L 161.063882 225.468674 
L 161.571663 222.219994 
L 162.079443 217.819676 
L 163.095004 205.901469 
L 164.110565 190.551465 
L 165.633907 163.450039 
L 168.172809 117.831977 
L 169.18837 103.092357 
L 170.203931 92.000291 
L 170.711712 88.085934 
L 171.219492 85.366877 
L 171.727273 83.90064 
L 172.235053 83.725095 
L 172.742834 84.857848 
L 173.250614 87.29596 
L 173.758395 91.015982 
L 174.266175 95.974312 
L 175.281736 109.335128 
L 176.297297 126.659979 
L 177.820639 157.911387 
L 180.867322 224.211874 
L 181.882883 242.785512 
L 182.898444 257.731536 
L 183.914005 268.232157 
L 184.421785 271.635011 
L 184.929566 273.748185 
L 185.437346 274.553334 
L 185.945127 274.052666 
L 186.452907 272.268894 
L 186.960688 269.244869 
L 187.468468 265.042895 
L 188.484029 253.445318 
L 189.49959 238.318743 
L 191.022932 211.378449 
L 193.561835 165.576493 
L 194.577396 150.601539 
L 195.592957 139.17635 
L 196.100737 135.057142 
L 196.608518 132.106731 
L 197.116298 130.381862 
L 197.624079 129.919606 
L 198.131859 130.736772 
L 198.63964 132.829631 
L 199.14742 136.173974 
L 199.655201 140.725487 
L 200.670762 153.176706 
L 201.686323 169.460607 
L 203.209664 198.89906 
L 206.256347 260.680224 
L 207.271908 277.49972 
L 208.287469 290.581341 
L 208.79525 295.457834 
L 209.30303 299.118167 
L 209.810811 301.505609 
L 210.318591 302.58315 
L 210.826372 302.334084 
L 211.334152 300.762273 
L 211.841933 297.892085 
L 212.349713 293.76801 
L 213.365274 282.032254 
L 214.380835 266.279143 
L 215.904177 237.293321 
L 218.95086 175.187736 
L 219.966421 157.894884 
L 220.981982 144.155662 
L 221.489762 138.880836 
L 221.997543 134.775568 
L 222.505324 131.896406 
L 223.013104 130.28019 
L 223.520885 129.943476 
L 224.028665 130.882279 
L 224.536446 133.072144 
L 225.044226 136.468534 
L 225.552007 141.007546 
L 226.567568 153.167361 
L 227.583129 168.69868 
L 229.10647 195.934707 
L 231.137592 233.031019 
L 232.153153 249.051232 
L 233.168714 261.853637 
L 233.676495 266.751939 
L 234.184275 270.52068 
L 234.692056 273.085885 
L 235.199836 274.392445 
L 235.707617 274.404997 
L 236.215397 273.108491 
L 236.723178 270.508439 
L 237.230958 266.630837 
L 237.738739 261.521763 
L 238.7543 247.889307 
L 239.769861 230.346526 
L 241.293202 198.897679 
L 244.339885 132.73981 
L 245.355446 114.364333 
L 246.371007 99.674855 
L 247.386568 89.473084 
L 247.894349 86.22974 
L 248.402129 84.279486 
L 248.90991 83.638107 
L 249.41769 84.300823 
L 249.925471 86.242377 
L 250.433251 89.417442 
L 250.941032 93.761347 
L 251.956593 105.606747 
L 252.972154 120.920568 
L 254.495495 148.004014 
L 257.034398 193.644844 
L 258.049959 208.42616 
L 259.06552 219.600063 
L 259.573301 223.576926 
L 260.081081 226.376852 
L 260.588862 227.94551 
L 261.096642 228.248338 
L 261.604423 227.271085 
L 262.112203 225.020049 
L 262.619984 221.52198 
L 263.127764 216.823664 
L 264.143325 204.108904 
L 265.158886 187.615388 
L 266.682228 157.992123 
L 269.728911 96.37768 
L 270.744472 79.763525 
L 271.760033 66.944996 
L 272.267813 62.216767 
L 272.775594 58.71284 
L 273.283374 56.487524 
L 273.791155 55.575315 
L 274.298935 55.990358 
L 274.806716 57.726217 
L 275.314496 60.75598 
L 275.822277 65.032686 
L 276.837838 77.043566 
L 277.853399 93.017787 
L 279.37674 122.205544 
L 282.423423 184.17857 
L 283.438984 201.277559 
L 284.454545 214.76525 
L 284.962326 219.897627 
L 285.470106 223.852328 
L 285.977887 226.575225 
L 286.485667 228.031988 
L 286.993448 228.208623 
L 287.501229 227.111682 
L 288.009009 224.768162 
L 288.51679 221.225062 
L 289.02457 216.548642 
L 290.040131 204.15057 
L 291.055692 188.442133 
L 293.086814 151.562657 
L 295.117936 115.823682 
L 296.133497 101.487319 
L 297.149058 90.913503 
L 297.656839 87.291535 
L 298.164619 84.881045 
L 298.6724 83.734714 
L 299.18018 83.885393 
L 299.687961 85.345565 
L 300.195741 88.10715 
L 300.703522 92.141611 
L 301.211302 97.400404 
L 302.226863 111.301612 
L 303.242424 129.058473 
L 304.765766 160.697719 
L 307.812449 226.698087 
L 308.82801 244.871348 
L 309.843571 259.301131 
L 310.859132 269.202008 
L 311.366912 272.285278 
L 311.874693 274.072365 
L 312.382473 274.550049 
L 312.890254 273.72568 
L 313.398034 271.627053 
L 313.905815 268.30196 
L 314.413595 263.817423 
L 315.429156 251.727569 
L 316.444717 236.230717 
L 317.968059 209.011435 
L 319.999181 171.90222 
L 321.014742 155.852329 
L 322.030303 142.988027 
L 322.538084 138.040792 
L 323.045864 134.207419 
L 323.553645 131.55883 
L 324.061425 130.146922 
L 324.569206 130.003746 
L 325.076986 131.140987 
L 325.584767 133.549782 
L 326.092547 137.200845 
L 326.600328 142.04493 
L 327.615889 155.020326 
L 328.63145 171.719596 
L 330.154791 201.520633 
L 333.201474 262.953531 
L 334.217035 279.358327 
L 335.232596 291.910659 
L 335.740377 296.489478 
L 336.248157 299.836149 
L 336.755938 301.8988 
L 337.263718 302.645455 
L 337.771499 302.064536 
L 338.279279 300.16505 
L 338.78706 296.976446 
L 339.29484 292.548148 
L 340.310401 280.265054 
L 341.325962 264.073586 
L 342.849304 234.69094 
L 345.895987 172.865292 
L 346.911548 155.964181 
L 347.927109 142.73112 
L 348.434889 137.742335 
L 348.94267 133.939049 
L 349.45045 131.372954 
L 349.958231 130.075862 
L 350.466011 130.059204 
L 350.973792 131.313859 
L 351.481572 133.810301 
L 351.989353 137.499075 
L 353.004914 148.161164 
L 354.020475 162.543224 
L 355.543817 188.86336 
L 358.082719 235.172884 
L 359.09828 250.848508 
L 360.113841 263.179386 
L 360.621622 267.803223 
L 361.129402 271.277296 
L 361.637183 273.532247 
L 362.144963 274.517834 
L 362.652744 274.203731 
L 363.160524 272.580018 
L 363.668305 269.657347 
L 364.176085 265.466787 
L 365.191646 253.505124 
L 366.207207 237.325773 
L 367.730549 207.165398 
L 371.792793 120.874227 
L 372.808354 104.694876 
L 373.823915 92.733213 
L 374.331695 88.542653 
L 374.839476 85.619982 
L 375.347256 83.996269 
L 375.855037 83.682166 
L 376.362817 84.667753 
L 376.870598 86.922704 
L 377.378378 90.396777 
L 377.886159 95.020614 
L 378.90172 107.351492 
L 379.917281 123.027116 
L 381.948403 159.89091 
L 383.979525 195.656776 
L 384.995086 210.038836 
L 386.010647 220.700925 
L 386.518428 224.389699 
L 387.026208 226.886141 
L 387.533989 228.140796 
L 388.041769 228.124138 
L 388.54955 226.827046 
L 389.05733 224.260951 
L 389.565111 220.457665 
L 390.072891 215.46888 
L 391.088452 202.235819 
L 392.104013 185.334708 
L 393.627355 155.362985 
L 396.166257 103.38376 
L 397.181818 85.599536 
L 398.197379 71.251227 
L 399.21294 61.223554 
L 399.720721 58.03495 
L 400.228501 56.135464 
L 400.736282 55.554545 
L 401.244062 56.3012 
L 401.751843 58.363851 
L 402.259623 61.710522 
L 402.767404 66.289341 
L 403.782965 78.841673 
L 404.798526 95.246469 
L 406.321867 124.816913 
L 409.36855 186.480404 
L 410.384111 203.179674 
L 411.399672 216.15507 
L 411.907453 220.999155 
L 412.415233 224.650218 
L 412.923014 227.059013 
L 413.430794 228.196254 
L 413.938575 228.053078 
L 414.446355 226.64117 
L 414.954136 223.992581 
L 415.461916 220.159208 
L 416.477477 209.239693 
L 417.493038 194.656025 
L 419.01638 168.165323 
L 421.555283 121.969283 
L 422.570844 106.472431 
L 423.586405 94.382577 
L 424.094185 89.89804 
L 424.601966 86.572947 
L 425.109746 84.47432 
L 425.617527 83.649951 
L 426.125307 84.127635 
L 426.633088 85.914722 
L 427.140868 88.997992 
L 427.648649 93.343854 
L 428.66421 105.59058 
L 429.679771 122.00629 
L 431.203112 152.398541 
L 434.757576 229.141527 
L 435.773137 246.898388 
L 436.788698 260.799596 
L 437.296478 266.058389 
L 437.804259 270.09285 
L 438.312039 272.854435 
L 438.81982 274.314607 
L 439.3276 274.465286 
L 439.835381 273.318955 
L 440.343161 270.908465 
L 440.850942 267.286497 
L 441.358722 262.524727 
L 442.374283 249.956313 
L 443.389844 234.106222 
L 445.420966 197.121189 
L 446.944308 169.757867 
L 447.959869 154.04943 
L 448.97543 141.651358 
L 449.48321 136.974938 
L 449.990991 133.431838 
L 450.498771 131.088318 
L 451.006552 129.991377 
L 451.514333 130.168012 
L 452.022113 131.624775 
L 452.529894 134.347672 
L 453.037674 138.302373 
L 454.053235 149.67173 
L 455.068796 165.079646 
L 456.592138 193.70943 
L 460.146601 265.182213 
L 461.162162 281.156434 
L 462.177723 293.167314 
L 462.685504 297.44402 
L 463.193284 300.473783 
L 463.701065 302.209642 
L 464.208845 302.624685 
L 464.716626 301.712476 
L 465.224406 299.48716 
L 465.732187 295.983233 
L 466.239967 291.255004 
L 467.255528 278.436475 
L 468.271089 261.82232 
L 469.794431 232.071211 
L 472.841114 170.584612 
L 473.856675 154.091096 
L 474.872236 141.376336 
L 475.380016 136.67802 
L 475.887797 133.179951 
L 476.395577 130.928915 
L 476.903358 129.951662 
L 477.411138 130.25449 
L 477.918919 131.823148 
L 478.426699 134.623074 
L 478.93448 138.599937 
L 479.950041 149.77384 
L 480.965602 164.555156 
L 482.488943 191.20931 
L 485.027846 237.279432 
L 486.043407 252.593253 
L 487.058968 264.438653 
L 487.566749 268.782558 
L 488.074529 271.957623 
L 488.58231 273.899177 
L 489.09009 274.561893 
L 489.597871 273.920514 
L 490.105651 271.97026 
L 490.613432 268.726916 
L 491.121212 264.226587 
L 492.136773 251.697346 
L 493.152334 235.048848 
L 494.675676 204.431502 
L 498.230139 127.853474 
L 499.2457 110.310693 
L 500.261261 96.678237 
L 500.769042 91.569163 
L 501.276822 87.691561 
L 501.784603 85.091509 
L 502.292383 83.795003 
L 502.800164 83.807555 
L 503.307944 85.114115 
L 503.815725 87.67932 
L 504.323505 91.448061 
L 505.339066 102.282563 
L 506.354627 116.822568 
L 507.877969 143.289863 
L 510.416871 189.50132 
L 511.432432 205.032639 
L 512.447993 217.192454 
L 512.955774 221.731466 
L 513.463554 225.127856 
L 513.971335 227.317721 
L 514.479115 228.256524 
L 514.986896 227.91981 
L 515.494676 226.303594 
L 516.002457 223.424432 
L 516.510238 219.319164 
L 517.525799 207.675321 
L 518.54136 192.04289 
L 520.064701 163.200629 
L 523.619165 91.920857 
L 524.634726 76.167746 
L 525.650287 64.43199 
L 526.158067 60.307915 
L 526.665848 57.437727 
L 527.173628 55.865916 
L 527.681409 55.61685 
L 528.189189 56.694391 
L 528.69697 59.081833 
L 529.20475 62.742166 
L 529.712531 67.618659 
L 530.728092 80.70028 
L 531.743653 97.519776 
L 533.266994 127.44437 
L 535.805897 179.455104 
L 536.821458 197.304971 
L 537.837019 211.779558 
L 538.85258 222.026026 
L 539.36036 225.370369 
L 539.868141 227.463228 
L 540.375921 228.280394 
L 540.883702 227.818138 
L 541.391482 226.093269 
L 541.899263 223.142858 
L 542.407043 219.02365 
L 543.422604 207.598461 
L 544.438165 192.623507 
L 545.961507 165.813054 
L 548.50041 119.881257 
L 549.515971 104.754682 
L 550.531532 93.157105 
L 551.039312 88.955131 
L 551.547093 85.931106 
L 552.054873 84.147334 
L 552.562654 83.646666 
L 553.070434 84.451815 
L 553.578215 86.564989 
L 554.085995 89.967843 
L 554.593776 94.621763 
L 555.609337 107.430904 
L 556.624898 124.308558 
L 558.148239 155.144164 
L 561.702703 231.540021 
L 562.718264 248.864872 
L 563.733825 262.225688 
L 564.241605 267.184018 
L 564.749386 270.90404 
L 565.257166 273.342152 
L 565.764947 274.474905 
L 566.272727 274.29936 
L 566.780508 272.833123 
L 567.288288 270.114066 
L 567.796069 266.199709 
L 568.81163 255.107643 
L 569.827191 240.368023 
L 571.350532 213.735841 
L 573.889435 167.648535 
L 574.904996 152.298531 
L 575.920557 140.380324 
L 576.428337 135.980006 
L 576.936118 132.731326 
L 577.443898 130.695815 
L 577.951679 129.915531 
L 578.459459 130.412387 
L 578.96724 132.187796 
L 579.47502 135.222647 
L 579.982801 139.477598 
L 580.998362 151.393292 
L 582.013923 167.246596 
L 583.537265 196.294496 
L 586.583948 258.364489 
L 587.599509 275.582413 
L 588.61507 289.180649 
L 589.12285 294.350088 
L 589.630631 298.320533 
L 590.138411 301.03045 
L 590.646192 302.437832 
L 591.153972 302.520861 
L 591.661753 301.278248 
L 592.169533 298.72926 
L 592.677314 294.913409 
L 593.185094 289.889834 
L 594.200655 276.548289 
L 595.216216 259.527521 
L 596.739558 229.436658 
L 599.27846 177.549749 
L 600.294021 159.88141 
L 601.309582 145.648678 
L 602.325143 135.688815 
L 602.832924 132.498891 
L 603.340704 130.564587 
L 603.848485 129.907568 
L 604.356265 130.528989 
L 604.864046 132.409489 
L 605.371826 135.509497 
L 605.879607 139.769868 
L 606.895168 151.44318 
L 607.910729 166.607712 
L 609.43407 193.567268 
L 611.972973 239.348367 
L 612.988534 254.283526 
L 614.004095 265.629971 
L 614.511876 269.688751 
L 615.019656 272.560761 
L 615.527437 274.186081 
L 616.035217 274.524346 
L 616.542998 273.555392 
L 617.050778 271.279585 
L 617.558559 267.717825 
L 618.066339 262.911226 
L 619.0819 249.82487 
L 620.097461 232.721747 
L 621.620803 201.674769 
L 622.636364 179.1 
L 622.636364 179.1 
" style="fill:none;stroke:#00ffff;stroke-linecap:square;stroke-width:1.5;"/>
   </g>
   <g id="patch_3">
    <path d="M 90 315 
L 90 43.2 
" style="fill:none;stroke:#ffffff;stroke-linecap:square;stroke-linejoin:miter;stroke-width:0.8;"/>
   </g>
   <g id="patch_4">
    <path d="M 648 315 
L 648 43.2 
" style="fill:none;stroke:#ffffff;stroke-linecap:square;stroke-linejoin:miter;stroke-width:0.8;"/>
   </g>
   <g id="patch_5">
    <path d="M 90 315 
L 648 315 
" style="fill:none;stroke:#ffffff;stroke-linecap:square;stroke-linejoin:miter;stroke-width:0.8;"/>
   </g>
   <g id="patch_6">
    <path d="M 90 43.2 
L 648 43.2 
" style="fill:none;stroke:#ffffff;stroke-linecap:square;stroke-linejoin:miter;stroke-width:0.8;"/>
   </g>
  </g>
 </g>
 <defs>
  <clipPath id="p4021c46722">
   <rect height="271.8" width="558" x="90" y="43.2"/>
  </clipPath>
 </defs>
</svg>
