<?xml version="1.0" encoding="utf-8" standalone="no"?>
<!DOCTYPE svg PUBLIC "-//W3C//DTD SVG 1.1//EN"
  "http://www.w3.org/Graphics/SVG/1.1/DTD/svg11.dtd">
<svg xmlns:xlink="http://www.w3.org/1999/xlink" width="720pt" height="432pt" viewBox="0 0 720 432" xmlns="http://www.w3.org/2000/svg" version="1.1">
 <metadata>
  <rdf:RDF xmlns:dc="http://purl.org/dc/elements/1.1/" xmlns:cc="http://creativecommons.org/ns#" xmlns:rdf="http://www.w3.org/1999/02/22-rdf-syntax-ns#">
   <cc:Work>
    <dc:type rdf:resource="http://purl.org/dc/dcmitype/StillImage"/>
    <dc:date>2025-11-13T15:52:02.539396</dc:date>
    <dc:format>image/svg+xml</dc:format>
    <dc:creator>
     <cc:Agent>
      <dc:title>Matplotlib v3.10.3, https://matplotlib.org/</dc:title>
     </cc:Agent>
    </dc:creator>
   </cc:Work>
  </rdf:RDF>
 </metadata>
 <defs>
  <style type="text/css">*{stroke-linejoin: round; stroke-linecap: butt}</style>
 </defs>
 <g id="figure_1">
  <g id="patch_1">
   <path d="M 0 432 
L 720 432 
L 720 0 
L 0 0 
z
" style="fill: #121212"/>
  </g>
  <g id="axes_1">
   <g id="patch_2">
    <path d="M 65.72 162.833836 
L 709.2 162.833836 
L 709.2 10.8 
L 65.72 10.8 
z
" style="fill: #121212"/>
   </g>
   <g id="matplotlib.axis_1">
    <g id="xtick_1">
     <g id="line2d_1">
      <defs>
       <path id="mee4db5da1d" d="M 0 0 
L 0 3.5 
" style="stroke: #ffffff; stroke-width: 0.8"/>
      </defs>
      <g>
       <use xlink:href="#mee4db5da1d" x="94.969091" y="162.833836" style="fill: #ffffff; stroke: #ffffff; stroke-width: 0.8"/>
      </g>
     </g>
     <g id="text_1">
      <!-- 0 -->
      <g style="fill: #ffffff" transform="translate(89.242841 183.511023) scale(0.18 -0.18)">
       <defs>
        <path id="DejaVuSans-30" d="M 2034 4250 
Q 1547 4250 1301 3770 
Q 1056 3291 1056 2328 
Q 1056 1369 1301 889 
Q 1547 409 2034 409 
Q 2525 409 2770 889 
Q 3016 1369 3016 2328 
Q 3016 3291 2770 3770 
Q 2525 4250 2034 4250 
z
M 2034 4750 
Q 2819 4750 3233 4129 
Q 3647 3509 3647 2328 
Q 3647 1150 3233 529 
Q 2819 -91 2034 -91 
Q 1250 -91 836 529 
Q 422 1150 422 2328 
Q 422 3509 836 4129 
Q 1250 4750 2034 4750 
z
" transform="scale(0.015625)"/>
       </defs>
       <use xlink:href="#DejaVuSans-30"/>
      </g>
     </g>
    </g>
    <g id="xtick_2">
     <g id="line2d_2">
      <g>
       <use xlink:href="#mee4db5da1d" x="211.347526" y="162.833836" style="fill: #ffffff; stroke: #ffffff; stroke-width: 0.8"/>
      </g>
     </g>
     <g id="text_2">
      <!-- 5 -->
      <g style="fill: #ffffff" transform="translate(205.621276 183.511023) scale(0.18 -0.18)">
       <defs>
        <path id="DejaVuSans-35" d="M 691 4666 
L 3169 4666 
L 3169 4134 
L 1269 4134 
L 1269 2991 
Q 1406 3038 1543 3061 
Q 1681 3084 1819 3084 
Q 2600 3084 3056 2656 
Q 3513 2228 3513 1497 
Q 3513 744 3044 326 
Q 2575 -91 1722 -91 
Q 1428 -91 1123 -41 
Q 819 9 494 109 
L 494 744 
Q 775 591 1075 516 
Q 1375 441 1709 441 
Q 2250 441 2565 725 
Q 2881 1009 2881 1497 
Q 2881 1984 2565 2268 
Q 2250 2553 1709 2553 
Q 1456 2553 1204 2497 
Q 953 2441 691 2322 
L 691 4666 
z
" transform="scale(0.015625)"/>
       </defs>
       <use xlink:href="#DejaVuSans-35"/>
      </g>
     </g>
    </g>
    <g id="xtick_3">
     <g id="line2d_3">
      <g>
       <use xlink:href="#mee4db5da1d" x="327.725961" y="162.833836" style="fill: #ffffff; stroke: #ffffff; stroke-width: 0.8"/>
      </g>
     </g>
     <g id="text_3">
      <!-- 10 -->
      <g style="fill: #ffffff" transform="translate(316.273461 183.511023) scale(0.18 -0.18)">
       <defs>
        <path id="DejaVuSans-31" d="M 794 531 
L 1825 531 
L 1825 4091 
L 703 3866 
L 703 4441 
L 1819 4666 
L 2450 4666 
L 2450 531 
L 3481 531 
L 3481 0 
L 794 0 
L 794 531 
z
" transform="scale(0.015625)"/>
       </defs>
       <use xlink:href="#DejaVuSans-31"/>
       <use xlink:href="#DejaVuSans-30" transform="translate(63.623047 0)"/>
      </g>
     </g>
    </g>
    <g id="xtick_4">
     <g id="line2d_4">
      <g>
       <use xlink:href="#mee4db5da1d" x="444.104396" y="162.833836" style="fill: #ffffff; stroke: #ffffff; stroke-width: 0.8"/>
      </g>
     </g>
     <g id="text_4">
      <!-- 15 -->
      <g style="fill: #ffffff" transform="translate(432.651896 183.511023) scale(0.18 -0.18)">
       <use xlink:href="#DejaVuSans-31"/>
       <use xlink:href="#DejaVuSans-35" transform="translate(63.623047 0)"/>
      </g>
     </g>
    </g>
    <g id="xtick_5">
     <g id="line2d_5">
      <g>
       <use xlink:href="#mee4db5da1d" x="560.482831" y="162.833836" style="fill: #ffffff; stroke: #ffffff; stroke-width: 0.8"/>
      </g>
     </g>
     <g id="text_5">
      <!-- 20 -->
      <g style="fill: #ffffff" transform="translate(549.030331 183.511023) scale(0.18 -0.18)">
       <defs>
        <path id="DejaVuSans-32" d="M 1228 531 
L 3431 531 
L 3431 0 
L 469 0 
L 469 531 
Q 828 903 1448 1529 
Q 2069 2156 2228 2338 
Q 2531 2678 2651 2914 
Q 2772 3150 2772 3378 
Q 2772 3750 2511 3984 
Q 2250 4219 1831 4219 
Q 1534 4219 1204 4116 
Q 875 4013 500 3803 
L 500 4441 
Q 881 4594 1212 4672 
Q 1544 4750 1819 4750 
Q 2544 4750 2975 4387 
Q 3406 4025 3406 3419 
Q 3406 3131 3298 2873 
Q 3191 2616 2906 2266 
Q 2828 2175 2409 1742 
Q 1991 1309 1228 531 
z
" transform="scale(0.015625)"/>
       </defs>
       <use xlink:href="#DejaVuSans-32"/>
       <use xlink:href="#DejaVuSans-30" transform="translate(63.623047 0)"/>
      </g>
     </g>
    </g>
    <g id="xtick_6">
     <g id="line2d_6">
      <g>
       <use xlink:href="#mee4db5da1d" x="676.861266" y="162.833836" style="fill: #ffffff; stroke: #ffffff; stroke-width: 0.8"/>
      </g>
     </g>
     <g id="text_6">
      <!-- 25 -->
      <g style="fill: #ffffff" transform="translate(665.408766 183.511023) scale(0.18 -0.18)">
       <use xlink:href="#DejaVuSans-32"/>
       <use xlink:href="#DejaVuSans-35" transform="translate(63.623047 0)"/>
      </g>
     </g>
    </g>
    <g id="text_7">
     <!-- Time (t) -->
     <g style="fill: #ffffff" transform="translate(352.028125 204.931648) scale(0.18 -0.18)">
      <defs>
       <path id="DejaVuSans-54" d="M -19 4666 
L 3928 4666 
L 3928 4134 
L 2272 4134 
L 2272 0 
L 1638 0 
L 1638 4134 
L -19 4134 
L -19 4666 
z
" transform="scale(0.015625)"/>
       <path id="DejaVuSans-69" d="M 603 3500 
L 1178 3500 
L 1178 0 
L 603 0 
L 603 3500 
z
M 603 4863 
L 1178 4863 
L 1178 4134 
L 603 4134 
L 603 4863 
z
" transform="scale(0.015625)"/>
       <path id="DejaVuSans-6d" d="M 3328 2828 
Q 3544 3216 3844 3400 
Q 4144 3584 4550 3584 
Q 5097 3584 5394 3201 
Q 5691 2819 5691 2113 
L 5691 0 
L 5113 0 
L 5113 2094 
Q 5113 2597 4934 2840 
Q 4756 3084 4391 3084 
Q 3944 3084 3684 2787 
Q 3425 2491 3425 1978 
L 3425 0 
L 2847 0 
L 2847 2094 
Q 2847 2600 2669 2842 
Q 2491 3084 2119 3084 
Q 1678 3084 1418 2786 
Q 1159 2488 1159 1978 
L 1159 0 
L 581 0 
L 581 3500 
L 1159 3500 
L 1159 2956 
Q 1356 3278 1631 3431 
Q 1906 3584 2284 3584 
Q 2666 3584 2933 3390 
Q 3200 3197 3328 2828 
z
" transform="scale(0.015625)"/>
       <path id="DejaVuSans-65" d="M 3597 1894 
L 3597 1613 
L 953 1613 
Q 991 1019 1311 708 
Q 1631 397 2203 397 
Q 2534 397 2845 478 
Q 3156 559 3463 722 
L 3463 178 
Q 3153 47 2828 -22 
Q 2503 -91 2169 -91 
Q 1331 -91 842 396 
Q 353 884 353 1716 
Q 353 2575 817 3079 
Q 1281 3584 2069 3584 
Q 2775 3584 3186 3129 
Q 3597 2675 3597 1894 
z
M 3022 2063 
Q 3016 2534 2758 2815 
Q 2500 3097 2075 3097 
Q 1594 3097 1305 2825 
Q 1016 2553 972 2059 
L 3022 2063 
z
" transform="scale(0.015625)"/>
       <path id="DejaVuSans-20" transform="scale(0.015625)"/>
       <path id="DejaVuSans-28" d="M 1984 4856 
Q 1566 4138 1362 3434 
Q 1159 2731 1159 2009 
Q 1159 1288 1364 580 
Q 1569 -128 1984 -844 
L 1484 -844 
Q 1016 -109 783 600 
Q 550 1309 550 2009 
Q 550 2706 781 3412 
Q 1013 4119 1484 4856 
L 1984 4856 
z
" transform="scale(0.015625)"/>
       <path id="DejaVuSans-74" d="M 1172 4494 
L 1172 3500 
L 2356 3500 
L 2356 3053 
L 1172 3053 
L 1172 1153 
Q 1172 725 1289 603 
Q 1406 481 1766 481 
L 2356 481 
L 2356 0 
L 1766 0 
Q 1100 0 847 248 
Q 594 497 594 1153 
L 594 3053 
L 172 3053 
L 172 3500 
L 594 3500 
L 594 4494 
L 1172 4494 
z
" transform="scale(0.015625)"/>
       <path id="DejaVuSans-29" d="M 513 4856 
L 1013 4856 
Q 1481 4119 1714 3412 
Q 1947 2706 1947 2009 
Q 1947 1309 1714 600 
Q 1481 -109 1013 -844 
L 513 -844 
Q 928 -128 1133 580 
Q 1338 1288 1338 2009 
Q 1338 2731 1133 3434 
Q 928 4138 513 4856 
z
" transform="scale(0.015625)"/>
      </defs>
      <use xlink:href="#DejaVuSans-54"/>
      <use xlink:href="#DejaVuSans-69" transform="translate(57.958984 0)"/>
      <use xlink:href="#DejaVuSans-6d" transform="translate(85.742188 0)"/>
      <use xlink:href="#DejaVuSans-65" transform="translate(183.154297 0)"/>
      <use xlink:href="#DejaVuSans-20" transform="translate(244.677734 0)"/>
      <use xlink:href="#DejaVuSans-28" transform="translate(276.464844 0)"/>
      <use xlink:href="#DejaVuSans-74" transform="translate(315.478516 0)"/>
      <use xlink:href="#DejaVuSans-29" transform="translate(354.6875 0)"/>
     </g>
    </g>
   </g>
   <g id="matplotlib.axis_2">
    <g id="ytick_1">
     <g id="line2d_7">
      <defs>
       <path id="m4033ce909a" d="M 0 0 
L -3.5 0 
" style="stroke: #ffffff; stroke-width: 0.8"/>
      </defs>
      <g>
       <use xlink:href="#m4033ce909a" x="65.72" y="159.722491" style="fill: #ffffff; stroke: #ffffff; stroke-width: 0.8"/>
      </g>
     </g>
     <g id="text_8">
      <!-- −4 -->
      <g style="fill: #ffffff" transform="translate(32.184062 166.561085) scale(0.18 -0.18)">
       <defs>
        <path id="DejaVuSans-2212" d="M 678 2272 
L 4684 2272 
L 4684 1741 
L 678 1741 
L 678 2272 
z
" transform="scale(0.015625)"/>
        <path id="DejaVuSans-34" d="M 2419 4116 
L 825 1625 
L 2419 1625 
L 2419 4116 
z
M 2253 4666 
L 3047 4666 
L 3047 1625 
L 3713 1625 
L 3713 1100 
L 3047 1100 
L 3047 0 
L 2419 0 
L 2419 1100 
L 313 1100 
L 313 1709 
L 2253 4666 
z
" transform="scale(0.015625)"/>
       </defs>
       <use xlink:href="#DejaVuSans-2212"/>
       <use xlink:href="#DejaVuSans-34" transform="translate(83.789062 0)"/>
      </g>
     </g>
    </g>
    <g id="ytick_2">
     <g id="line2d_8">
      <g>
       <use xlink:href="#m4033ce909a" x="65.72" y="137.013481" style="fill: #ffffff; stroke: #ffffff; stroke-width: 0.8"/>
      </g>
     </g>
     <g id="text_9">
      <!-- −2 -->
      <g style="fill: #ffffff" transform="translate(32.184062 143.852075) scale(0.18 -0.18)">
       <use xlink:href="#DejaVuSans-2212"/>
       <use xlink:href="#DejaVuSans-32" transform="translate(83.789062 0)"/>
      </g>
     </g>
    </g>
    <g id="ytick_3">
     <g id="line2d_9">
      <g>
       <use xlink:href="#m4033ce909a" x="65.72" y="114.304472" style="fill: #ffffff; stroke: #ffffff; stroke-width: 0.8"/>
      </g>
     </g>
     <g id="text_10">
      <!-- 0 -->
      <g style="fill: #ffffff" transform="translate(47.2675 121.143065) scale(0.18 -0.18)">
       <use xlink:href="#DejaVuSans-30"/>
      </g>
     </g>
    </g>
    <g id="ytick_4">
     <g id="line2d_10">
      <g>
       <use xlink:href="#m4033ce909a" x="65.72" y="91.595462" style="fill: #ffffff; stroke: #ffffff; stroke-width: 0.8"/>
      </g>
     </g>
     <g id="text_11">
      <!-- 2 -->
      <g style="fill: #ffffff" transform="translate(47.2675 98.434056) scale(0.18 -0.18)">
       <use xlink:href="#DejaVuSans-32"/>
      </g>
     </g>
    </g>
    <g id="ytick_5">
     <g id="line2d_11">
      <g>
       <use xlink:href="#m4033ce909a" x="65.72" y="68.886452" style="fill: #ffffff; stroke: #ffffff; stroke-width: 0.8"/>
      </g>
     </g>
     <g id="text_12">
      <!-- 4 -->
      <g style="fill: #ffffff" transform="translate(47.2675 75.725046) scale(0.18 -0.18)">
       <use xlink:href="#DejaVuSans-34"/>
      </g>
     </g>
    </g>
    <g id="ytick_6">
     <g id="line2d_12">
      <g>
       <use xlink:href="#m4033ce909a" x="65.72" y="46.177443" style="fill: #ffffff; stroke: #ffffff; stroke-width: 0.8"/>
      </g>
     </g>
     <g id="text_13">
      <!-- 6 -->
      <g style="fill: #ffffff" transform="translate(47.2675 53.016036) scale(0.18 -0.18)">
       <defs>
        <path id="DejaVuSans-36" d="M 2113 2584 
Q 1688 2584 1439 2293 
Q 1191 2003 1191 1497 
Q 1191 994 1439 701 
Q 1688 409 2113 409 
Q 2538 409 2786 701 
Q 3034 994 3034 1497 
Q 3034 2003 2786 2293 
Q 2538 2584 2113 2584 
z
M 3366 4563 
L 3366 3988 
Q 3128 4100 2886 4159 
Q 2644 4219 2406 4219 
Q 1781 4219 1451 3797 
Q 1122 3375 1075 2522 
Q 1259 2794 1537 2939 
Q 1816 3084 2150 3084 
Q 2853 3084 3261 2657 
Q 3669 2231 3669 1497 
Q 3669 778 3244 343 
Q 2819 -91 2113 -91 
Q 1303 -91 875 529 
Q 447 1150 447 2328 
Q 447 3434 972 4092 
Q 1497 4750 2381 4750 
Q 2619 4750 2861 4703 
Q 3103 4656 3366 4563 
z
" transform="scale(0.015625)"/>
       </defs>
       <use xlink:href="#DejaVuSans-36"/>
      </g>
     </g>
    </g>
    <g id="ytick_7">
     <g id="line2d_13">
      <g>
       <use xlink:href="#m4033ce909a" x="65.72" y="23.468433" style="fill: #ffffff; stroke: #ffffff; stroke-width: 0.8"/>
      </g>
     </g>
     <g id="text_14">
      <!-- 8 -->
      <g style="fill: #ffffff" transform="translate(47.2675 30.307027) scale(0.18 -0.18)">
       <defs>
        <path id="DejaVuSans-38" d="M 2034 2216 
Q 1584 2216 1326 1975 
Q 1069 1734 1069 1313 
Q 1069 891 1326 650 
Q 1584 409 2034 409 
Q 2484 409 2743 651 
Q 3003 894 3003 1313 
Q 3003 1734 2745 1975 
Q 2488 2216 2034 2216 
z
M 1403 2484 
Q 997 2584 770 2862 
Q 544 3141 544 3541 
Q 544 4100 942 4425 
Q 1341 4750 2034 4750 
Q 2731 4750 3128 4425 
Q 3525 4100 3525 3541 
Q 3525 3141 3298 2862 
Q 3072 2584 2669 2484 
Q 3125 2378 3379 2068 
Q 3634 1759 3634 1313 
Q 3634 634 3220 271 
Q 2806 -91 2034 -91 
Q 1263 -91 848 271 
Q 434 634 434 1313 
Q 434 1759 690 2068 
Q 947 2378 1403 2484 
z
M 1172 3481 
Q 1172 3119 1398 2916 
Q 1625 2713 2034 2713 
Q 2441 2713 2670 2916 
Q 2900 3119 2900 3481 
Q 2900 3844 2670 4047 
Q 2441 4250 2034 4250 
Q 1625 4250 1398 4047 
Q 1172 3844 1172 3481 
z
" transform="scale(0.015625)"/>
       </defs>
       <use xlink:href="#DejaVuSans-38"/>
      </g>
     </g>
    </g>
    <g id="text_15">
     <!-- Amplitude (y) -->
     <g style="fill: #ffffff" transform="translate(24.440625 148.147699) rotate(-90) scale(0.18 -0.18)">
      <defs>
       <path id="DejaVuSans-41" d="M 2188 4044 
L 1331 1722 
L 3047 1722 
L 2188 4044 
z
M 1831 4666 
L 2547 4666 
L 4325 0 
L 3669 0 
L 3244 1197 
L 1141 1197 
L 716 0 
L 50 0 
L 1831 4666 
z
" transform="scale(0.015625)"/>
       <path id="DejaVuSans-70" d="M 1159 525 
L 1159 -1331 
L 581 -1331 
L 581 3500 
L 1159 3500 
L 1159 2969 
Q 1341 3281 1617 3432 
Q 1894 3584 2278 3584 
Q 2916 3584 3314 3078 
Q 3713 2572 3713 1747 
Q 3713 922 3314 415 
Q 2916 -91 2278 -91 
Q 1894 -91 1617 61 
Q 1341 213 1159 525 
z
M 3116 1747 
Q 3116 2381 2855 2742 
Q 2594 3103 2138 3103 
Q 1681 3103 1420 2742 
Q 1159 2381 1159 1747 
Q 1159 1113 1420 752 
Q 1681 391 2138 391 
Q 2594 391 2855 752 
Q 3116 1113 3116 1747 
z
" transform="scale(0.015625)"/>
       <path id="DejaVuSans-6c" d="M 603 4863 
L 1178 4863 
L 1178 0 
L 603 0 
L 603 4863 
z
" transform="scale(0.015625)"/>
       <path id="DejaVuSans-75" d="M 544 1381 
L 544 3500 
L 1119 3500 
L 1119 1403 
Q 1119 906 1312 657 
Q 1506 409 1894 409 
Q 2359 409 2629 706 
Q 2900 1003 2900 1516 
L 2900 3500 
L 3475 3500 
L 3475 0 
L 2900 0 
L 2900 538 
Q 2691 219 2414 64 
Q 2138 -91 1772 -91 
Q 1169 -91 856 284 
Q 544 659 544 1381 
z
M 1991 3584 
L 1991 3584 
z
" transform="scale(0.015625)"/>
       <path id="DejaVuSans-64" d="M 2906 2969 
L 2906 4863 
L 3481 4863 
L 3481 0 
L 2906 0 
L 2906 525 
Q 2725 213 2448 61 
Q 2172 -91 1784 -91 
Q 1150 -91 751 415 
Q 353 922 353 1747 
Q 353 2572 751 3078 
Q 1150 3584 1784 3584 
Q 2172 3584 2448 3432 
Q 2725 3281 2906 2969 
z
M 947 1747 
Q 947 1113 1208 752 
Q 1469 391 1925 391 
Q 2381 391 2643 752 
Q 2906 1113 2906 1747 
Q 2906 2381 2643 2742 
Q 2381 3103 1925 3103 
Q 1469 3103 1208 2742 
Q 947 2381 947 1747 
z
" transform="scale(0.015625)"/>
       <path id="DejaVuSans-79" d="M 2059 -325 
Q 1816 -950 1584 -1140 
Q 1353 -1331 966 -1331 
L 506 -1331 
L 506 -850 
L 844 -850 
Q 1081 -850 1212 -737 
Q 1344 -625 1503 -206 
L 1606 56 
L 191 3500 
L 800 3500 
L 1894 763 
L 2988 3500 
L 3597 3500 
L 2059 -325 
z
" transform="scale(0.015625)"/>
      </defs>
      <use xlink:href="#DejaVuSans-41"/>
      <use xlink:href="#DejaVuSans-6d" transform="translate(68.408203 0)"/>
      <use xlink:href="#DejaVuSans-70" transform="translate(165.820312 0)"/>
      <use xlink:href="#DejaVuSans-6c" transform="translate(229.296875 0)"/>
      <use xlink:href="#DejaVuSans-69" transform="translate(257.080078 0)"/>
      <use xlink:href="#DejaVuSans-74" transform="translate(284.863281 0)"/>
      <use xlink:href="#DejaVuSans-75" transform="translate(324.072266 0)"/>
      <use xlink:href="#DejaVuSans-64" transform="translate(387.451172 0)"/>
      <use xlink:href="#DejaVuSans-65" transform="translate(450.927734 0)"/>
      <use xlink:href="#DejaVuSans-20" transform="translate(512.451172 0)"/>
      <use xlink:href="#DejaVuSans-28" transform="translate(544.238281 0)"/>
      <use xlink:href="#DejaVuSans-79" transform="translate(583.251953 0)"/>
      <use xlink:href="#DejaVuSans-29" transform="translate(642.431641 0)"/>
     </g>
    </g>
   </g>
   <g id="line2d_14">
    <path d="M 94.969091 104.41799 
L 97.602826 101.259365 
L 99.358649 98.824205 
L 101.114473 96.007864 
L 102.870296 92.763908 
L 104.918757 88.454251 
L 107.259854 82.973868 
L 114.868422 64.662336 
L 116.916883 60.522601 
L 118.672706 57.416389 
L 120.42853 54.725381 
L 122.184353 52.425575 
L 123.940176 50.474903 
L 125.696 48.825711 
L 127.74446 47.227786 
L 129.792921 45.943452 
L 131.548744 45.087063 
L 133.304568 44.472435 
L 134.767754 44.165269 
L 136.23094 44.065177 
L 137.694126 44.190759 
L 139.157312 44.556715 
L 140.620498 45.171534 
L 142.083685 46.036163 
L 143.546871 47.143774 
L 145.302694 48.773835 
L 147.058517 50.70022 
L 149.106978 53.270539 
L 151.448076 56.561548 
L 154.081811 60.633565 
L 157.008183 65.555953 
L 160.227193 71.433077 
L 163.446202 77.782784 
L 167.250486 85.79106 
L 177.492789 107.658251 
L 181.004436 114.458757 
L 184.223445 120.212738 
L 187.149818 125.009552 
L 189.783553 128.924355 
L 192.124651 132.028404 
L 194.173111 134.408156 
L 196.221572 136.435748 
L 197.977395 137.871183 
L 199.733218 139.014992 
L 201.489042 139.862781 
L 202.952228 140.344519 
L 204.415414 140.626008 
L 205.8786 140.71263 
L 207.341786 140.61022 
L 209.09761 140.245279 
L 210.853433 139.622755 
L 212.609256 138.746405 
L 214.36508 137.617054 
L 216.120903 136.233877 
L 217.876727 134.596347 
L 219.925187 132.367247 
L 221.973648 129.80552 
L 224.314746 126.497962 
L 226.948481 122.350223 
L 229.874853 117.311526 
L 233.679137 110.274869 
L 238.65397 100.570623 
L 250.944733 76.36689 
L 254.163743 70.65473 
L 256.797478 66.392845 
L 259.431213 62.566671 
L 261.772311 59.562766 
L 263.820771 57.255623 
L 265.869232 55.258931 
L 267.917692 53.58442 
L 269.673516 52.416814 
L 271.429339 51.508124 
L 273.185163 50.870404 
L 274.648349 50.55427 
L 276.111535 50.439811 
L 277.574721 50.530877 
L 279.037907 50.829198 
L 280.501093 51.334153 
L 281.964279 52.04278 
L 283.720103 53.154758 
L 285.475926 54.540997 
L 287.23175 56.18794 
L 289.28021 58.420351 
L 291.328671 60.968201 
L 293.669769 64.243779 
L 296.010866 67.885839 
L 298.644601 72.393348 
L 301.570974 77.863427 
L 305.08262 84.958986 
L 309.764816 95.005863 
L 319.421845 115.875741 
L 323.518766 124.13364 
L 326.737775 130.155331 
L 329.664148 135.153001 
L 332.005245 138.748847 
L 334.346343 141.929554 
L 336.394804 144.337053 
L 338.150627 146.103625 
L 339.90645 147.585889 
L 341.662274 148.777936 
L 343.418097 149.67639 
L 344.881283 150.199318 
L 346.34447 150.515822 
L 347.807656 150.624504 
L 349.270842 150.523485 
L 350.734028 150.210432 
L 352.197214 149.682779 
L 353.6604 148.938121 
L 355.123586 147.974704 
L 356.87941 146.529127 
L 358.635233 144.769925 
L 360.391056 142.703351 
L 362.439517 139.918166 
L 364.487978 136.75243 
L 366.829075 132.704904 
L 369.46281 127.658214 
L 372.389183 121.511355 
L 375.608192 114.181592 
L 379.119839 105.612633 
L 383.509397 94.265408 
L 396.678073 59.710154 
L 400.189719 51.324839 
L 403.408729 44.194056 
L 406.335101 38.258432 
L 408.968836 33.433851 
L 411.309934 29.61289 
L 413.358395 26.667629 
L 415.406855 24.120807 
L 417.162679 22.269332 
L 418.918502 20.73163 
L 420.674325 19.510751 
L 422.137511 18.735202 
L 423.600698 18.178025 
L 425.063884 17.837203 
L 426.52707 17.710629 
L 427.990256 17.796479 
L 429.453442 18.093406 
L 430.916628 18.600531 
L 432.379814 19.317235 
L 434.135638 20.452845 
L 435.891461 21.886617 
L 437.647285 23.613502 
L 439.695745 25.986959 
L 441.744206 28.72673 
L 444.085304 32.270086 
L 446.719039 36.720789 
L 449.645411 42.151321 
L 452.86442 48.598343 
L 456.961342 57.346251 
L 462.521449 69.834212 
L 470.422654 87.567284 
L 473.934301 94.893936 
L 477.15331 101.086249 
L 480.079683 106.202346 
L 482.713418 110.347333 
L 485.054515 113.638086 
L 487.395613 116.529295 
L 489.444074 118.70558 
L 491.199897 120.289765 
L 492.955721 121.599813 
L 494.711544 122.624533 
L 496.467367 123.356656 
L 497.930553 123.741288 
L 499.39374 123.922073 
L 500.856926 123.902348 
L 502.320112 123.687169 
L 504.075935 123.179693 
L 505.831759 122.41111 
L 507.587582 121.39231 
L 509.343405 120.132616 
L 511.391866 118.36831 
L 513.440327 116.295532 
L 515.488787 113.923456 
L 517.829885 110.862074 
L 520.46362 107.006469 
L 523.389992 102.285762 
L 526.901639 96.171773 
L 532.754384 85.44896 
L 540.362951 71.597812 
L 544.459873 64.579638 
L 547.678882 59.499693 
L 550.312617 55.752268 
L 552.653715 52.804452 
L 554.702176 50.559193 
L 556.750636 48.646493 
L 558.50646 47.279027 
L 560.262283 46.164334 
L 562.018106 45.301966 
L 563.77393 44.691776 
L 565.529753 44.335794 
L 567.285576 44.23929 
L 568.748763 44.363147 
L 570.211949 44.679199 
L 571.675135 45.193818 
L 573.138321 45.912629 
L 574.894144 47.049987 
L 576.649968 48.488257 
L 578.405791 50.221982 
L 580.454252 52.60086 
L 582.502712 55.334053 
L 584.84381 58.844079 
L 587.477545 63.219865 
L 590.403917 68.539645 
L 593.622927 74.890808 
L 596.841936 81.731326 
L 600.64622 90.369373 
L 607.669514 107.075921 
L 612.059072 117.18049 
L 615.570719 124.733878 
L 619.082366 131.752471 
L 622.301375 137.703951 
L 625.227748 142.651195 
L 627.568845 146.202712 
L 629.617306 148.936853 
L 631.373129 150.953654 
L 633.128953 152.635485 
L 634.592139 153.76725 
L 636.055325 154.650771 
L 637.518511 155.291489 
L 638.981697 155.701789 
L 640.444883 155.89902 
L 642.200707 155.881869 
L 643.95653 155.616884 
L 645.712353 155.124756 
L 647.468177 154.409699 
L 649.224 153.456549 
L 650.979824 152.232151 
L 652.735647 150.691253 
L 654.198833 149.130823 
L 655.954656 146.892453 
L 657.71048 144.236238 
L 659.466303 141.171599 
L 661.514764 137.14347 
L 664.441136 130.818827 
L 669.123332 120.661424 
L 671.171792 116.72048 
L 673.220253 113.265727 
L 675.268713 110.304379 
L 677.317174 107.743689 
L 679.950909 104.748836 
L 679.950909 104.748836 
" clip-path="url(#pdb0694013e)" style="fill: none; stroke: #00ffff; stroke-width: 5; stroke-linecap: square"/>
   </g>
   <g id="patch_3">
    <path d="M 65.72 162.833836 
L 65.72 10.8 
" style="fill: none; stroke: #ffffff; stroke-width: 0.8; stroke-linejoin: miter; stroke-linecap: square"/>
   </g>
   <g id="patch_4">
    <path d="M 709.2 162.833836 
L 709.2 10.8 
" style="fill: none; stroke: #ffffff; stroke-width: 0.8; stroke-linejoin: miter; stroke-linecap: square"/>
   </g>
   <g id="patch_5">
    <path d="M 65.72 162.833836 
L 709.2 162.833836 
" style="fill: none; stroke: #ffffff; stroke-width: 0.8; stroke-linejoin: miter; stroke-linecap: square"/>
   </g>
   <g id="patch_6">
    <path d="M 65.72 10.8 
L 709.2 10.8 
" style="fill: none; stroke: #ffffff; stroke-width: 0.8; stroke-linejoin: miter; stroke-linecap: square"/>
   </g>
   <g id="legend_1">
    <g id="patch_7">
     <path d="M 617.3925 38.01375 
L 700.8 38.01375 
Q 703.2 38.01375 703.2 35.61375 
L 703.2 19.2 
Q 703.2 16.8 700.8 16.8 
L 617.3925 16.8 
Q 614.9925 16.8 614.9925 19.2 
L 614.9925 35.61375 
Q 614.9925 38.01375 617.3925 38.01375 
z
" style="fill: #121212; opacity: 0.8; stroke: #ffffff; stroke-linejoin: miter"/>
    </g>
    <g id="line2d_15">
     <path d="M 619.7925 26.518125 
L 631.7925 26.518125 
L 643.7925 26.518125 
" style="fill: none; stroke: #00ffff; stroke-width: 5; stroke-linecap: square"/>
    </g>
    <g id="text_16">
     <!-- Low IFT -->
     <g style="fill: #ffffff" transform="translate(653.3925 30.718125) scale(0.12 -0.12)">
      <defs>
       <path id="DejaVuSans-4c" d="M 628 4666 
L 1259 4666 
L 1259 531 
L 3531 531 
L 3531 0 
L 628 0 
L 628 4666 
z
" transform="scale(0.015625)"/>
       <path id="DejaVuSans-6f" d="M 1959 3097 
Q 1497 3097 1228 2736 
Q 959 2375 959 1747 
Q 959 1119 1226 758 
Q 1494 397 1959 397 
Q 2419 397 2687 759 
Q 2956 1122 2956 1747 
Q 2956 2369 2687 2733 
Q 2419 3097 1959 3097 
z
M 1959 3584 
Q 2709 3584 3137 3096 
Q 3566 2609 3566 1747 
Q 3566 888 3137 398 
Q 2709 -91 1959 -91 
Q 1206 -91 779 398 
Q 353 888 353 1747 
Q 353 2609 779 3096 
Q 1206 3584 1959 3584 
z
" transform="scale(0.015625)"/>
       <path id="DejaVuSans-77" d="M 269 3500 
L 844 3500 
L 1563 769 
L 2278 3500 
L 2956 3500 
L 3675 769 
L 4391 3500 
L 4966 3500 
L 4050 0 
L 3372 0 
L 2619 2869 
L 1863 0 
L 1184 0 
L 269 3500 
z
" transform="scale(0.015625)"/>
       <path id="DejaVuSans-49" d="M 628 4666 
L 1259 4666 
L 1259 0 
L 628 0 
L 628 4666 
z
" transform="scale(0.015625)"/>
       <path id="DejaVuSans-46" d="M 628 4666 
L 3309 4666 
L 3309 4134 
L 1259 4134 
L 1259 2759 
L 3109 2759 
L 3109 2228 
L 1259 2228 
L 1259 0 
L 628 0 
L 628 4666 
z
" transform="scale(0.015625)"/>
      </defs>
      <use xlink:href="#DejaVuSans-4c"/>
      <use xlink:href="#DejaVuSans-6f" transform="translate(53.962891 0)"/>
      <use xlink:href="#DejaVuSans-77" transform="translate(115.144531 0)"/>
      <use xlink:href="#DejaVuSans-20" transform="translate(196.931641 0)"/>
      <use xlink:href="#DejaVuSans-49" transform="translate(228.71875 0)"/>
      <use xlink:href="#DejaVuSans-46" transform="translate(258.210938 0)"/>
      <use xlink:href="#DejaVuSans-54" transform="translate(313.980469 0)"/>
     </g>
    </g>
   </g>
  </g>
  <g id="axes_2">
   <g id="patch_8">
    <path d="M 65.72 375.64 
L 709.2 375.64 
L 709.2 223.606164 
L 65.72 223.606164 
z
" style="fill: #121212"/>
   </g>
   <g id="matplotlib.axis_3">
    <g id="xtick_7">
     <g id="line2d_16">
      <g>
       <use xlink:href="#mee4db5da1d" x="94.969091" y="375.64" style="fill: #ffffff; stroke: #ffffff; stroke-width: 0.8"/>
      </g>
     </g>
     <g id="text_17">
      <!-- 0 -->
      <g style="fill: #ffffff" transform="translate(89.242841 396.317187) scale(0.18 -0.18)">
       <use xlink:href="#DejaVuSans-30"/>
      </g>
     </g>
    </g>
    <g id="xtick_8">
     <g id="line2d_17">
      <g>
       <use xlink:href="#mee4db5da1d" x="211.347526" y="375.64" style="fill: #ffffff; stroke: #ffffff; stroke-width: 0.8"/>
      </g>
     </g>
     <g id="text_18">
      <!-- 5 -->
      <g style="fill: #ffffff" transform="translate(205.621276 396.317187) scale(0.18 -0.18)">
       <use xlink:href="#DejaVuSans-35"/>
      </g>
     </g>
    </g>
    <g id="xtick_9">
     <g id="line2d_18">
      <g>
       <use xlink:href="#mee4db5da1d" x="327.725961" y="375.64" style="fill: #ffffff; stroke: #ffffff; stroke-width: 0.8"/>
      </g>
     </g>
     <g id="text_19">
      <!-- 10 -->
      <g style="fill: #ffffff" transform="translate(316.273461 396.317187) scale(0.18 -0.18)">
       <use xlink:href="#DejaVuSans-31"/>
       <use xlink:href="#DejaVuSans-30" transform="translate(63.623047 0)"/>
      </g>
     </g>
    </g>
    <g id="xtick_10">
     <g id="line2d_19">
      <g>
       <use xlink:href="#mee4db5da1d" x="444.104396" y="375.64" style="fill: #ffffff; stroke: #ffffff; stroke-width: 0.8"/>
      </g>
     </g>
     <g id="text_20">
      <!-- 15 -->
      <g style="fill: #ffffff" transform="translate(432.651896 396.317187) scale(0.18 -0.18)">
       <use xlink:href="#DejaVuSans-31"/>
       <use xlink:href="#DejaVuSans-35" transform="translate(63.623047 0)"/>
      </g>
     </g>
    </g>
    <g id="xtick_11">
     <g id="line2d_20">
      <g>
       <use xlink:href="#mee4db5da1d" x="560.482831" y="375.64" style="fill: #ffffff; stroke: #ffffff; stroke-width: 0.8"/>
      </g>
     </g>
     <g id="text_21">
      <!-- 20 -->
      <g style="fill: #ffffff" transform="translate(549.030331 396.317187) scale(0.18 -0.18)">
       <use xlink:href="#DejaVuSans-32"/>
       <use xlink:href="#DejaVuSans-30" transform="translate(63.623047 0)"/>
      </g>
     </g>
    </g>
    <g id="xtick_12">
     <g id="line2d_21">
      <g>
       <use xlink:href="#mee4db5da1d" x="676.861266" y="375.64" style="fill: #ffffff; stroke: #ffffff; stroke-width: 0.8"/>
      </g>
     </g>
     <g id="text_22">
      <!-- 25 -->
      <g style="fill: #ffffff" transform="translate(665.408766 396.317187) scale(0.18 -0.18)">
       <use xlink:href="#DejaVuSans-32"/>
       <use xlink:href="#DejaVuSans-35" transform="translate(63.623047 0)"/>
      </g>
     </g>
    </g>
    <g id="text_23">
     <!-- Time (t) -->
     <g style="fill: #ffffff" transform="translate(352.028125 417.737812) scale(0.18 -0.18)">
      <use xlink:href="#DejaVuSans-54"/>
      <use xlink:href="#DejaVuSans-69" transform="translate(57.958984 0)"/>
      <use xlink:href="#DejaVuSans-6d" transform="translate(85.742188 0)"/>
      <use xlink:href="#DejaVuSans-65" transform="translate(183.154297 0)"/>
      <use xlink:href="#DejaVuSans-20" transform="translate(244.677734 0)"/>
      <use xlink:href="#DejaVuSans-28" transform="translate(276.464844 0)"/>
      <use xlink:href="#DejaVuSans-74" transform="translate(315.478516 0)"/>
      <use xlink:href="#DejaVuSans-29" transform="translate(354.6875 0)"/>
     </g>
    </g>
   </g>
   <g id="matplotlib.axis_4">
    <g id="ytick_8">
     <g id="line2d_22">
      <g>
       <use xlink:href="#m4033ce909a" x="65.72" y="373.211042" style="fill: #ffffff; stroke: #ffffff; stroke-width: 0.8"/>
      </g>
     </g>
     <g id="text_24">
      <!-- −6 -->
      <g style="fill: #ffffff" transform="translate(32.184062 380.049636) scale(0.18 -0.18)">
       <use xlink:href="#DejaVuSans-2212"/>
       <use xlink:href="#DejaVuSans-36" transform="translate(83.789062 0)"/>
      </g>
     </g>
    </g>
    <g id="ytick_9">
     <g id="line2d_23">
      <g>
       <use xlink:href="#m4033ce909a" x="65.72" y="348.683739" style="fill: #ffffff; stroke: #ffffff; stroke-width: 0.8"/>
      </g>
     </g>
     <g id="text_25">
      <!-- −4 -->
      <g style="fill: #ffffff" transform="translate(32.184062 355.522333) scale(0.18 -0.18)">
       <use xlink:href="#DejaVuSans-2212"/>
       <use xlink:href="#DejaVuSans-34" transform="translate(83.789062 0)"/>
      </g>
     </g>
    </g>
    <g id="ytick_10">
     <g id="line2d_24">
      <g>
       <use xlink:href="#m4033ce909a" x="65.72" y="324.156436" style="fill: #ffffff; stroke: #ffffff; stroke-width: 0.8"/>
      </g>
     </g>
     <g id="text_26">
      <!-- −2 -->
      <g style="fill: #ffffff" transform="translate(32.184062 330.99503) scale(0.18 -0.18)">
       <use xlink:href="#DejaVuSans-2212"/>
       <use xlink:href="#DejaVuSans-32" transform="translate(83.789062 0)"/>
      </g>
     </g>
    </g>
    <g id="ytick_11">
     <g id="line2d_25">
      <g>
       <use xlink:href="#m4033ce909a" x="65.72" y="299.629133" style="fill: #ffffff; stroke: #ffffff; stroke-width: 0.8"/>
      </g>
     </g>
     <g id="text_27">
      <!-- 0 -->
      <g style="fill: #ffffff" transform="translate(47.2675 306.467727) scale(0.18 -0.18)">
       <use xlink:href="#DejaVuSans-30"/>
      </g>
     </g>
    </g>
    <g id="ytick_12">
     <g id="line2d_26">
      <g>
       <use xlink:href="#m4033ce909a" x="65.72" y="275.10183" style="fill: #ffffff; stroke: #ffffff; stroke-width: 0.8"/>
      </g>
     </g>
     <g id="text_28">
      <!-- 2 -->
      <g style="fill: #ffffff" transform="translate(47.2675 281.940424) scale(0.18 -0.18)">
       <use xlink:href="#DejaVuSans-32"/>
      </g>
     </g>
    </g>
    <g id="ytick_13">
     <g id="line2d_27">
      <g>
       <use xlink:href="#m4033ce909a" x="65.72" y="250.574527" style="fill: #ffffff; stroke: #ffffff; stroke-width: 0.8"/>
      </g>
     </g>
     <g id="text_29">
      <!-- 4 -->
      <g style="fill: #ffffff" transform="translate(47.2675 257.413121) scale(0.18 -0.18)">
       <use xlink:href="#DejaVuSans-34"/>
      </g>
     </g>
    </g>
    <g id="ytick_14">
     <g id="line2d_28">
      <g>
       <use xlink:href="#m4033ce909a" x="65.72" y="226.047224" style="fill: #ffffff; stroke: #ffffff; stroke-width: 0.8"/>
      </g>
     </g>
     <g id="text_30">
      <!-- 6 -->
      <g style="fill: #ffffff" transform="translate(47.2675 232.885818) scale(0.18 -0.18)">
       <use xlink:href="#DejaVuSans-36"/>
      </g>
     </g>
    </g>
    <g id="text_31">
     <!-- Amplitude (y) -->
     <g style="fill: #ffffff" transform="translate(24.440625 360.953863) rotate(-90) scale(0.18 -0.18)">
      <use xlink:href="#DejaVuSans-41"/>
      <use xlink:href="#DejaVuSans-6d" transform="translate(68.408203 0)"/>
      <use xlink:href="#DejaVuSans-70" transform="translate(165.820312 0)"/>
      <use xlink:href="#DejaVuSans-6c" transform="translate(229.296875 0)"/>
      <use xlink:href="#DejaVuSans-69" transform="translate(257.080078 0)"/>
      <use xlink:href="#DejaVuSans-74" transform="translate(284.863281 0)"/>
      <use xlink:href="#DejaVuSans-75" transform="translate(324.072266 0)"/>
      <use xlink:href="#DejaVuSans-64" transform="translate(387.451172 0)"/>
      <use xlink:href="#DejaVuSans-65" transform="translate(450.927734 0)"/>
      <use xlink:href="#DejaVuSans-20" transform="translate(512.451172 0)"/>
      <use xlink:href="#DejaVuSans-28" transform="translate(544.238281 0)"/>
      <use xlink:href="#DejaVuSans-79" transform="translate(583.251953 0)"/>
      <use xlink:href="#DejaVuSans-29" transform="translate(642.431641 0)"/>
     </g>
    </g>
   </g>
   <g id="line2d_29">
    <path d="M 94.969091 302.939166 
L 95.261728 303.534709 
L 96.724914 262.781743 
L 97.310189 250.104901 
L 98.1881 239.633264 
L 98.480738 238.012184 
L 99.066012 237.931892 
L 99.358649 238.187924 
L 99.651287 239.890588 
L 100.821835 252.326524 
L 103.748208 296.521832 
L 106.967217 335.469927 
L 108.430403 350.264945 
L 109.308315 356.073609 
L 109.600952 356.993145 
L 109.89359 357.240936 
L 110.186227 357.097345 
L 110.478864 356.358254 
L 110.771501 354.657 
L 111.356776 349.036603 
L 111.94205 340.535162 
L 112.819962 322.622398 
L 114.283148 284.493933 
L 115.453697 255.460137 
L 116.038971 244.164835 
L 116.624246 236.191726 
L 116.916883 233.457968 
L 117.20952 231.864315 
L 117.502157 231.277051 
L 117.794795 231.484429 
L 118.087432 232.600044 
L 118.380069 234.770187 
L 118.965344 241.384995 
L 119.550618 250.55468 
L 121.013804 279.515159 
L 122.47699 307.011781 
L 123.354902 319.772895 
L 124.232814 329.120993 
L 124.818088 333.846536 
L 125.696 339.293193 
L 126.573912 343.161859 
L 127.159186 345.069907 
L 127.74446 346.305684 
L 128.037098 346.634734 
L 128.329735 346.567016 
L 128.622372 346.188155 
L 128.915009 345.551695 
L 129.207647 344.478845 
L 129.792921 340.687847 
L 130.378195 334.984092 
L 130.96347 326.80931 
L 131.841382 310.793491 
L 133.304568 277.439894 
L 134.475117 252.168786 
L 135.060391 242.65537 
L 135.645666 236.048668 
L 135.938303 234.190096 
L 136.23094 233.252804 
L 136.523577 233.197334 
L 136.816214 234.145293 
L 137.108852 236.133139 
L 137.694126 242.63033 
L 138.279401 252.277827 
L 139.157312 270.68532 
L 141.205773 316.205923 
L 142.083685 330.34663 
L 142.668959 336.798114 
L 143.254233 341.099189 
L 143.839508 343.190422 
L 144.132145 343.66002 
L 144.424782 343.712622 
L 144.71742 343.374927 
L 145.302694 342.088409 
L 145.887969 339.994915 
L 146.76588 336.118515 
L 147.936429 329.445988 
L 148.814341 322.677284 
L 149.692252 313.468052 
L 150.570164 301.432998 
L 151.740713 281.569776 
L 153.203899 256.001291 
L 154.081811 244.676314 
L 154.667085 240.428115 
L 154.959723 239.475762 
L 155.25236 239.343153 
L 155.544997 240.152 
L 155.837634 241.905687 
L 156.422909 247.914505 
L 157.008183 257.247817 
L 157.886095 275.788068 
L 160.227193 330.294535 
L 160.812467 340.007311 
L 161.397742 346.79159 
L 161.983016 350.591857 
L 162.275653 351.310998 
L 162.568291 351.373534 
L 162.860928 350.807477 
L 163.153565 349.591609 
L 163.738839 345.635555 
L 164.616751 337.086043 
L 168.128398 299.342277 
L 169.884221 281.423766 
L 172.225319 255.624347 
L 172.810593 250.981127 
L 173.395868 248.332074 
L 173.688505 247.852543 
L 173.981142 248.032856 
L 174.27378 248.9804 
L 174.566417 250.688442 
L 175.151691 256.291039 
L 175.736966 264.957854 
L 176.614877 282.544974 
L 179.248612 343.184644 
L 179.833887 352.037859 
L 180.419161 357.707183 
L 180.711799 359.16728 
L 181.004436 359.725326 
L 181.297073 359.444577 
L 181.58971 358.311892 
L 182.174985 353.605384 
L 182.760259 346.357478 
L 183.638171 332.078378 
L 185.686631 296.622285 
L 186.564543 284.894142 
L 187.442455 276.037183 
L 188.320367 269.471844 
L 189.490915 262.984219 
L 190.368827 259.141672 
L 190.954102 257.22619 
L 191.539376 255.986479 
L 191.832013 255.810361 
L 192.124651 255.957846 
L 192.417288 256.451909 
L 192.709925 257.395984 
L 193.295199 260.853158 
L 193.880474 266.454955 
L 194.465748 274.468008 
L 195.34366 290.460037 
L 196.806846 323.615234 
L 197.977395 348.401304 
L 198.56267 357.58654 
L 199.147944 363.674941 
L 199.440581 365.317956 
L 199.733218 366.019926 
L 200.025856 365.783421 
L 200.318493 364.560514 
L 200.61113 362.359679 
L 201.196405 355.398235 
L 201.781679 345.394943 
L 202.952228 319.71965 
L 204.415414 286.575858 
L 205.293326 270.887817 
L 205.8786 263.134117 
L 206.463875 257.596041 
L 207.049149 254.218066 
L 207.634424 252.618185 
L 207.927061 252.39576 
L 208.219698 252.517376 
L 208.512335 252.885402 
L 209.09761 254.239916 
L 209.975521 257.537495 
L 210.853433 262.149255 
L 211.438708 266.080608 
L 212.316619 273.938209 
L 213.194531 284.815491 
L 214.072443 298.984676 
L 215.535629 327.936292 
L 216.706178 350.582127 
L 217.584089 362.968884 
L 218.169364 367.519327 
L 218.462001 368.484554 
L 218.754638 368.519985 
L 219.047275 367.553099 
L 219.339913 365.588083 
L 219.925187 358.877519 
L 220.510462 348.638914 
L 221.388373 328.337663 
L 223.729471 268.114513 
L 224.607383 252.35768 
L 225.192657 245.494519 
L 225.777932 241.74996 
L 226.070569 240.952331 
L 226.363206 240.820214 
L 226.655843 241.342605 
L 226.948481 242.440355 
L 227.533755 245.984919 
L 228.411667 253.899366 
L 229.874853 270.133617 
L 231.923313 295.370874 
L 233.093862 312.274469 
L 236.020235 357.419814 
L 236.605509 363.032794 
L 236.898146 364.843959 
L 237.190784 365.933559 
L 237.483421 366.212275 
L 237.776058 365.598226 
L 238.068695 364.086232 
L 238.65397 358.396666 
L 239.239244 349.130019 
L 240.117156 329.67846 
L 241.872979 281.055079 
L 242.750891 259.000366 
L 243.628803 242.783186 
L 244.214077 236.176711 
L 244.506714 234.246578 
L 244.799351 233.192944 
L 245.091989 233.023623 
L 245.384626 233.723752 
L 245.677263 235.205295 
L 246.262538 240.186074 
L 247.140449 251.628322 
L 248.896273 280.104892 
L 250.359459 302.014365 
L 252.115282 324.051818 
L 253.871106 343.96476 
L 254.749017 352.208161 
L 255.334292 356.170591 
L 255.919566 358.303756 
L 256.212203 358.511927 
L 256.504841 358.041855 
L 256.797478 356.881231 
L 257.090115 355.006726 
L 257.67539 348.912994 
L 258.260664 339.807465 
L 259.138576 321.103345 
L 260.601762 282.437223 
L 261.772311 253.538776 
L 262.357585 242.531407 
L 262.94286 234.888688 
L 263.235497 232.464598 
L 263.528134 230.993139 
L 263.820771 230.516793 
L 264.113409 231.027213 
L 264.406046 232.452591 
L 264.99132 237.841074 
L 265.576595 246.167378 
L 266.454506 262.323829 
L 268.795604 307.774956 
L 269.673516 320.302939 
L 270.551428 329.603981 
L 271.429339 336.290796 
L 272.307251 341.137868 
L 273.185163 344.64391 
L 273.770437 346.235647 
L 274.063074 346.704388 
L 274.355711 346.943646 
L 274.648349 346.905995 
L 274.940986 346.508276 
L 275.233623 345.706582 
L 275.818898 342.809431 
L 276.404172 337.814673 
L 276.989447 330.617206 
L 277.867358 315.648041 
L 279.037907 289.926422 
L 280.793731 251.101189 
L 281.379005 241.769874 
L 281.964279 235.633982 
L 282.256917 233.901323 
L 282.549554 233.14971 
L 282.842191 233.383318 
L 283.134828 234.5637 
L 283.427466 236.677151 
L 284.01274 243.591303 
L 284.598014 253.46494 
L 285.768563 278.934482 
L 287.23175 311.650867 
L 288.109661 326.910584 
L 288.694936 334.339993 
L 289.28021 339.400215 
L 289.865485 342.342102 
L 290.158122 343.076183 
L 290.450759 343.390964 
L 290.743396 343.368752 
L 291.036033 343.044854 
L 291.621308 341.622937 
L 292.206582 339.567377 
L 293.084494 335.622748 
L 293.962406 330.790704 
L 294.840317 324.587637 
L 295.718229 316.172024 
L 296.596141 304.90587 
L 297.76669 285.768006 
L 299.81515 250.971056 
L 300.400425 244.277457 
L 300.985699 240.329039 
L 301.278336 239.595306 
L 301.570974 239.732082 
L 301.863611 240.740339 
L 302.156248 242.649275 
L 302.741523 249.128968 
L 303.326797 258.723801 
L 304.204709 277.629524 
L 306.545807 331.604082 
L 307.131081 340.913724 
L 307.716355 347.316212 
L 308.30163 350.680741 
L 308.594267 351.255433 
L 308.886904 351.112467 
L 309.179542 350.331737 
L 309.764816 347.135532 
L 310.35009 342.155563 
L 311.520639 329.442237 
L 313.5691 307.091012 
L 316.495472 277.27253 
L 318.543933 255.014241 
L 319.129207 250.672354 
L 319.714482 248.257895 
L 320.007119 247.986706 
L 320.299756 248.387236 
L 320.592393 249.49444 
L 320.885031 251.367443 
L 321.470305 257.431179 
L 322.05558 266.389245 
L 322.933491 284.403248 
L 325.567226 344.5647 
L 326.152501 353.074257 
L 326.737775 358.217809 
L 327.030412 359.476687 
L 327.32305 359.822173 
L 327.615687 359.271556 
L 327.908324 357.893271 
L 328.493599 352.854652 
L 329.078873 345.235392 
L 329.956785 330.702062 
L 332.005245 295.414645 
L 332.883157 283.892606 
L 333.761069 275.209921 
L 334.63898 268.819746 
L 335.516892 263.90776 
L 336.394804 259.900514 
L 337.272715 256.887924 
L 337.85799 255.842262 
L 338.150627 255.716224 
L 338.443264 255.956783 
L 338.735902 256.609212 
L 339.028539 257.694348 
L 339.613813 261.393362 
L 340.199088 267.361626 
L 340.784362 275.640306 
L 341.662274 292.038575 
L 344.588646 354.646958 
L 345.173921 361.946266 
L 345.466558 364.319421 
L 345.759195 365.765138 
L 346.051832 366.225299 
L 346.34447 365.703177 
L 346.637107 364.23643 
L 347.222381 358.541501 
L 347.807656 349.582037 
L 348.685567 331.668153 
L 351.026665 279.514065 
L 351.904577 265.75159 
L 352.489851 259.36779 
L 353.075126 255.182474 
L 353.6604 252.939295 
L 353.953037 252.454192 
L 354.245675 252.299775 
L 354.538312 252.447557 
L 354.830949 252.876422 
L 355.416224 254.343758 
L 356.001498 256.463481 
L 356.87941 260.696884 
L 357.757321 266.506672 
L 358.342596 271.593889 
L 359.220508 281.646927 
L 360.098419 295.032859 
L 361.268968 317.315652 
L 363.024791 351.816274 
L 363.610066 360.442185 
L 364.19534 366.269828 
L 364.487978 367.934137 
L 364.780615 368.658928 
L 365.073252 368.429676 
L 365.365889 367.243379 
L 365.658527 365.075121 
L 366.243801 357.869969 
L 366.829075 347.298283 
L 367.706987 326.582672 
L 370.048085 266.693354 
L 370.925997 251.420077 
L 371.511271 244.975258 
L 372.096546 241.538249 
L 372.389183 240.92735 
L 372.68182 240.973856 
L 372.974457 241.610352 
L 373.267094 242.801651 
L 373.852369 246.583176 
L 374.730281 254.630988 
L 376.193467 270.942658 
L 377.94929 292.336319 
L 379.412476 313.28306 
L 382.338849 358.138132 
L 382.924123 363.470912 
L 383.21676 365.127125 
L 383.509397 365.998857 
L 383.802035 366.056749 
L 384.094672 365.258996 
L 384.387309 363.547303 
L 384.972584 357.380298 
L 385.557858 347.762876 
L 386.43577 327.847462 
L 389.362142 251.506034 
L 389.947416 241.887536 
L 390.532691 235.719136 
L 390.825328 234.006721 
L 391.117965 233.208156 
L 391.410603 233.265158 
L 391.70324 234.136006 
L 391.995877 235.791339 
L 392.581151 241.122166 
L 393.459063 252.846599 
L 397.263347 310.673282 
L 399.311808 335.055257 
L 400.774994 350.250285 
L 401.360268 354.756997 
L 401.945543 357.639539 
L 402.23818 358.276802 
L 402.530817 358.324146 
L 402.823454 357.714076 
L 403.116092 356.372977 
L 403.701366 351.438857 
L 404.286641 343.455462 
L 405.164552 326.182962 
L 406.335101 296.304589 
L 407.798287 258.350349 
L 408.676199 241.399331 
L 409.261473 234.194927 
L 409.554111 232.026969 
L 409.846748 230.840839 
L 410.139385 230.611666 
L 410.432022 231.336511 
L 410.72466 233.000804 
L 411.309934 238.82806 
L 411.895209 247.453386 
L 413.065757 269.87114 
L 414.821581 304.229732 
L 415.699492 317.612795 
L 416.577404 327.662876 
L 417.455316 334.882521 
L 418.333228 340.104591 
L 419.211139 343.928568 
L 419.796414 345.720465 
L 420.381688 346.79923 
L 420.674325 346.946626 
L 420.966963 346.791956 
L 421.2596 346.306669 
L 421.552237 345.418762 
L 422.137511 342.222155 
L 422.722786 336.980152 
L 423.30806 329.443878 
L 424.185972 314.100389 
L 425.356521 288.089479 
L 426.819707 255.139873 
L 427.697619 240.717093 
L 428.282893 235.024224 
L 428.57553 233.558426 
L 428.868168 233.037249 
L 429.160805 233.498382 
L 429.453442 234.94502 
L 430.038717 240.557351 
L 430.623991 249.435184 
L 431.501903 267.188782 
L 433.843001 318.635167 
L 434.720912 331.9084 
L 435.306187 337.875817 
L 435.891461 341.573602 
L 436.184098 342.658092 
L 436.476736 343.309788 
L 436.769373 343.54951 
L 437.06201 343.422615 
L 437.354647 343.011996 
L 437.939922 341.527674 
L 438.817833 338.129334 
L 439.695745 333.821399 
L 440.573657 328.490516 
L 441.451569 321.445183 
L 442.32948 311.858626 
L 443.207392 299.352856 
L 444.377941 279.129206 
L 445.841127 254.010501 
L 446.426401 246.391931 
L 447.011676 241.354384 
L 447.304313 239.976679 
L 447.59695 239.426749 
L 447.889588 239.773022 
L 448.182225 241.0327 
L 448.474862 243.173765 
L 449.060136 250.03694 
L 449.645411 260.02776 
L 450.523323 279.279119 
L 452.571783 327.387265 
L 453.449695 341.836477 
L 454.034969 347.901594 
L 454.327607 349.775131 
L 454.620244 350.882846 
L 454.912881 351.283843 
L 455.205518 351.012992 
L 455.498155 350.093887 
L 456.08343 346.630813 
L 456.668704 341.525325 
L 457.839253 328.705685 
L 459.595077 309.414862 
L 462.814086 276.513792 
L 464.56991 257.094002 
L 465.155184 252.112483 
L 465.740458 248.915019 
L 466.033096 248.133723 
L 466.325733 247.990326 
L 466.61837 248.564682 
L 466.911007 249.878656 
L 467.496282 254.740131 
L 468.081556 262.655651 
L 468.959468 279.405455 
L 470.422654 314.579774 
L 471.593203 340.527785 
L 472.178477 350.124595 
L 472.763752 356.6064 
L 473.056389 358.516388 
L 473.349026 359.52577 
L 473.641664 359.663679 
L 473.934301 358.931014 
L 474.226938 357.344554 
L 474.812212 351.947568 
L 475.397487 344.090406 
L 476.568036 324.079339 
L 478.031222 298.746976 
L 478.909134 286.533063 
L 479.787045 277.221042 
L 480.664957 270.349275 
L 481.542869 265.127783 
L 482.713418 259.698916 
L 483.591329 256.822119 
L 483.883967 256.217393 
L 484.176604 255.892421 
L 484.469241 255.869052 
L 484.761878 256.182679 
L 485.054515 256.915663 
L 485.347153 258.135078 
L 485.932427 262.095813 
L 486.517702 268.338331 
L 487.102976 276.889531 
L 487.980888 293.63225 
L 490.90726 355.652552 
L 491.492534 362.566993 
L 491.785172 364.680724 
L 492.077809 365.861535 
L 492.370446 366.095631 
L 492.663083 365.34453 
L 492.955721 363.612494 
L 493.540995 357.478161 
L 494.126269 348.148559 
L 495.004181 329.917761 
L 497.345279 278.118957 
L 498.223191 264.771725 
L 498.808465 258.675121 
L 499.39374 254.779449 
L 499.979014 252.762395 
L 500.271651 252.365359 
L 500.564289 252.328267 
L 500.856926 252.567945 
L 501.149563 253.037058 
L 501.734837 254.629322 
L 502.612749 258.135357 
L 503.490661 262.981513 
L 504.368572 269.666642 
L 504.953847 275.507237 
L 505.831759 286.934295 
L 506.70967 301.670215 
L 508.172856 330.99093 
L 509.343405 353.084706 
L 509.92868 361.408843 
L 510.513954 366.79528 
L 510.806591 368.219798 
L 511.099229 368.729371 
L 511.391866 368.252214 
L 511.684503 366.780083 
L 511.97714 364.355446 
L 512.562415 356.711748 
L 513.147689 345.703903 
L 514.025601 324.592139 
L 516.366699 265.054773 
L 517.24461 250.336645 
L 517.829885 244.24523 
L 518.415159 241.212462 
L 518.707797 240.74367 
L 519.000434 240.953168 
L 519.293071 241.768419 
L 519.878346 244.861728 
L 520.46362 249.581613 
L 521.341532 258.435525 
L 523.389992 282.218076 
L 524.853178 301.347157 
L 526.316365 323.960985 
L 528.072188 351.837747 
L 528.657462 359.081456 
L 529.242737 364.059867 
L 529.535374 365.540197 
L 529.828011 366.238998 
L 530.120649 366.068307 
L 530.413286 365.013357 
L 530.705923 363.081901 
L 531.291197 356.472609 
L 531.876472 346.414803 
L 532.754384 326.001131 
L 535.680756 250.111147 
L 536.26603 240.844044 
L 536.851305 235.15446 
L 537.143942 233.642595 
L 537.436579 233.028865 
L 537.729216 233.308006 
L 538.021854 234.398058 
L 538.607128 238.703713 
L 539.192403 245.449465 
L 540.070314 258.421896 
L 542.704049 299.910469 
L 544.167235 318.717792 
L 546.215696 342.33731 
L 547.093608 350.922626 
L 547.678882 355.272283 
L 548.264157 357.934507 
L 548.556794 358.456689 
L 548.849431 358.324275 
L 549.142068 357.526309 
L 549.434706 356.036408 
L 550.01998 350.72601 
L 550.605254 342.382693 
L 551.483166 324.613186 
L 552.653715 294.428127 
L 554.116901 256.823374 
L 554.994813 240.373841 
L 555.580087 233.660329 
L 555.872725 231.693933 
L 556.165362 230.725808 
L 556.457999 230.760025 
L 556.750636 231.724047 
L 557.043273 233.565836 
L 557.628548 239.775921 
L 558.213822 248.657031 
L 559.384371 271.301623 
L 561.140195 305.357603 
L 562.018106 318.411493 
L 562.896018 328.200697 
L 563.77393 335.255112 
L 564.651841 340.341794 
L 565.529753 344.040742 
L 566.115028 345.809941 
L 566.700302 346.749842 
L 566.992939 346.873008 
L 567.285576 346.652012 
L 567.578214 346.044613 
L 567.870851 345.054983 
L 568.456125 341.679348 
L 569.0414 336.143348 
L 569.626674 328.391088 
L 570.504586 312.70441 
L 571.675135 286.483343 
L 573.138321 253.881573 
L 573.723595 243.876102 
L 574.30887 236.911862 
L 574.601507 234.709552 
L 574.894144 233.485135 
L 575.186782 233.246953 
L 575.479419 233.947135 
L 575.772056 235.588404 
L 576.35733 241.673194 
L 576.942605 250.854658 
L 577.820517 268.96094 
L 580.161614 319.96209 
L 581.039526 332.780631 
L 581.624801 338.381246 
L 582.210075 341.837904 
L 582.502712 342.781872 
L 582.795349 343.276094 
L 583.087987 343.423924 
L 583.380624 343.248198 
L 583.673261 342.749872 
L 584.258536 341.123585 
L 584.84381 338.905886 
L 586.014359 333.256734 
L 586.892271 327.829876 
L 587.770182 320.574704 
L 588.648094 310.754863 
L 589.526006 298.083226 
L 590.989192 272.41073 
L 592.159741 252.925164 
L 592.745015 245.678916 
L 593.33029 240.973415 
L 593.622927 239.841035 
L 593.915564 239.560291 
L 594.208201 240.11817 
L 594.500839 241.57805 
L 595.086113 247.246268 
L 595.671388 256.097711 
L 596.549299 274.292784 
L 599.183034 334.302631 
L 599.768309 342.96474 
L 600.353583 348.562686 
L 600.64622 350.268477 
L 600.938858 351.213684 
L 601.231495 351.391753 
L 601.524132 350.910183 
L 601.816769 349.864052 
L 602.402044 346.125647 
L 603.279955 337.783616 
L 606.498965 302.725471 
L 608.547426 281.987592 
L 611.181161 253.625559 
L 611.766435 249.674784 
L 612.059072 248.461691 
L 612.351709 247.89828 
L 612.644347 247.96326 
L 612.936984 248.684844 
L 613.229621 250.180529 
L 613.814896 255.533211 
L 614.40017 263.77629 
L 615.278082 281.032483 
L 618.204454 347.103018 
L 618.789729 354.788155 
L 619.375003 359.133574 
L 619.66764 359.940198 
L 619.960277 359.805302 
L 620.252915 358.850618 
L 620.545552 357.125653 
L 621.130826 351.336833 
L 622.008738 338.54812 
L 624.93511 289.400435 
L 625.813022 279.290933 
L 626.690934 271.860795 
L 627.568845 266.2498 
L 628.739394 260.444305 
L 629.617306 257.129423 
L 630.20258 255.846042 
L 630.495218 255.51044 
L 630.787855 255.5655 
L 631.080492 256.037615 
L 631.373129 256.868042 
L 631.665767 258.134523 
L 632.251041 262.442263 
L 632.836315 268.900837 
L 633.42159 277.830188 
L 634.299502 294.876934 
L 636.933237 352.229829 
L 637.518511 360.305271 
L 638.103786 365.163588 
L 638.396423 366.113 
L 638.68906 366.058896 
L 638.981697 365.122712 
L 639.274334 363.264657 
L 639.859609 356.658003 
L 640.444883 347.143309 
L 641.322795 328.59132 
L 643.663893 277.266632 
L 644.541805 264.281519 
L 645.127079 258.567575 
L 645.712353 254.766057 
L 646.004991 253.688127 
L 646.590265 252.662157 
L 646.882902 252.589554 
L 647.17554 252.913895 
L 647.760814 254.140171 
L 648.346088 256.040347 
L 649.224 259.898961 
L 650.101912 265.339115 
L 650.687186 270.063052 
L 651.565098 279.411764 
L 652.44301 292.178103 
L 653.320921 308.086301 
L 655.954656 357.867914 
L 656.539931 364.498056 
L 656.832568 366.675575 
L 657.125205 367.798694 
L 657.417843 368.014026 
L 657.71048 367.434583 
L 658.003117 365.848194 
L 658.588391 359.495106 
L 659.173666 349.977374 
L 660.051578 330.194105 
L 662.685313 264.346062 
L 663.270587 254.097842 
L 663.855862 247.241452 
L 664.441136 242.989097 
L 664.733773 242.243245 
L 665.02641 242.091429 
L 665.319048 242.330444 
L 665.611685 243.241068 
L 666.196959 246.908903 
L 666.782234 251.540173 
L 668.830694 273.781461 
L 670.293881 291.047424 
L 672.634978 324.152268 
L 673.805527 342.158677 
L 674.390802 350.608288 
L 675.268713 359.215548 
L 675.561351 360.936805 
L 675.853988 361.21597 
L 676.439262 361.19359 
L 676.7319 359.603512 
L 677.609811 349.254718 
L 677.902448 344.074109 
L 679.365635 304.933144 
L 679.658272 296.246323 
L 679.950909 296.902677 
L 679.950909 296.902677 
" clip-path="url(#p2f3dac872c)" style="fill: none; stroke: #00ff00; stroke-width: 5; stroke-linecap: square"/>
   </g>
   <g id="patch_9">
    <path d="M 65.72 375.64 
L 65.72 223.606164 
" style="fill: none; stroke: #ffffff; stroke-width: 0.8; stroke-linejoin: miter; stroke-linecap: square"/>
   </g>
   <g id="patch_10">
    <path d="M 709.2 375.64 
L 709.2 223.606164 
" style="fill: none; stroke: #ffffff; stroke-width: 0.8; stroke-linejoin: miter; stroke-linecap: square"/>
   </g>
   <g id="patch_11">
    <path d="M 65.72 375.64 
L 709.2 375.64 
" style="fill: none; stroke: #ffffff; stroke-width: 0.8; stroke-linejoin: miter; stroke-linecap: square"/>
   </g>
   <g id="patch_12">
    <path d="M 65.72 223.606164 
L 709.2 223.606164 
" style="fill: none; stroke: #ffffff; stroke-width: 0.8; stroke-linejoin: miter; stroke-linecap: square"/>
   </g>
   <g id="legend_2">
    <g id="patch_13">
     <path d="M 609.63 250.819914 
L 700.8 250.819914 
Q 703.2 250.819914 703.2 248.419914 
L 703.2 232.006164 
Q 703.2 229.606164 700.8 229.606164 
L 609.63 229.606164 
Q 607.23 229.606164 607.23 232.006164 
L 607.23 248.419914 
Q 607.23 250.819914 609.63 250.819914 
z
" style="fill: #121212; opacity: 0.8; stroke: #ffffff; stroke-linejoin: miter"/>
    </g>
    <g id="line2d_30">
     <path d="M 612.03 239.324289 
L 624.03 239.324289 
L 636.03 239.324289 
" style="fill: none; stroke: #00ff00; stroke-width: 5; stroke-linecap: square"/>
    </g>
    <g id="text_32">
     <!-- High IFT  -->
     <g style="fill: #ffffff" transform="translate(645.63 243.524289) scale(0.12 -0.12)">
      <defs>
       <path id="DejaVuSans-48" d="M 628 4666 
L 1259 4666 
L 1259 2753 
L 3553 2753 
L 3553 4666 
L 4184 4666 
L 4184 0 
L 3553 0 
L 3553 2222 
L 1259 2222 
L 1259 0 
L 628 0 
L 628 4666 
z
" transform="scale(0.015625)"/>
       <path id="DejaVuSans-67" d="M 2906 1791 
Q 2906 2416 2648 2759 
Q 2391 3103 1925 3103 
Q 1463 3103 1205 2759 
Q 947 2416 947 1791 
Q 947 1169 1205 825 
Q 1463 481 1925 481 
Q 2391 481 2648 825 
Q 2906 1169 2906 1791 
z
M 3481 434 
Q 3481 -459 3084 -895 
Q 2688 -1331 1869 -1331 
Q 1566 -1331 1297 -1286 
Q 1028 -1241 775 -1147 
L 775 -588 
Q 1028 -725 1275 -790 
Q 1522 -856 1778 -856 
Q 2344 -856 2625 -561 
Q 2906 -266 2906 331 
L 2906 616 
Q 2728 306 2450 153 
Q 2172 0 1784 0 
Q 1141 0 747 490 
Q 353 981 353 1791 
Q 353 2603 747 3093 
Q 1141 3584 1784 3584 
Q 2172 3584 2450 3431 
Q 2728 3278 2906 2969 
L 2906 3500 
L 3481 3500 
L 3481 434 
z
" transform="scale(0.015625)"/>
       <path id="DejaVuSans-68" d="M 3513 2113 
L 3513 0 
L 2938 0 
L 2938 2094 
Q 2938 2591 2744 2837 
Q 2550 3084 2163 3084 
Q 1697 3084 1428 2787 
Q 1159 2491 1159 1978 
L 1159 0 
L 581 0 
L 581 4863 
L 1159 4863 
L 1159 2956 
Q 1366 3272 1645 3428 
Q 1925 3584 2291 3584 
Q 2894 3584 3203 3211 
Q 3513 2838 3513 2113 
z
" transform="scale(0.015625)"/>
      </defs>
      <use xlink:href="#DejaVuSans-48"/>
      <use xlink:href="#DejaVuSans-69" transform="translate(75.195312 0)"/>
      <use xlink:href="#DejaVuSans-67" transform="translate(102.978516 0)"/>
      <use xlink:href="#DejaVuSans-68" transform="translate(166.455078 0)"/>
      <use xlink:href="#DejaVuSans-20" transform="translate(229.833984 0)"/>
      <use xlink:href="#DejaVuSans-49" transform="translate(261.621094 0)"/>
      <use xlink:href="#DejaVuSans-46" transform="translate(291.113281 0)"/>
      <use xlink:href="#DejaVuSans-54" transform="translate(346.882812 0)"/>
      <use xlink:href="#DejaVuSans-20" transform="translate(407.966797 0)"/>
     </g>
    </g>
   </g>
  </g>
 </g>
 <defs>
  <clipPath id="pdb0694013e">
   <rect x="65.72" y="10.8" width="643.48" height="152.033836"/>
  </clipPath>
  <clipPath id="p2f3dac872c">
   <rect x="65.72" y="223.606164" width="643.48" height="152.033836"/>
  </clipPath>
 </defs>
</svg>
