<?xml version="1.0" encoding="utf-8" standalone="no"?>
<!DOCTYPE svg PUBLIC "-//W3C//DTD SVG 1.1//EN"
  "http://www.w3.org/Graphics/SVG/1.1/DTD/svg11.dtd">
<svg xmlns:xlink="http://www.w3.org/1999/xlink" width="720pt" height="576pt" viewBox="0 0 720 576" xmlns="http://www.w3.org/2000/svg" version="1.1">
 <metadata>
  <rdf:RDF xmlns:dc="http://purl.org/dc/elements/1.1/" xmlns:cc="http://creativecommons.org/ns#" xmlns:rdf="http://www.w3.org/1999/02/22-rdf-syntax-ns#">
   <cc:Work>
    <dc:type rdf:resource="http://purl.org/dc/dcmitype/StillImage"/>
    <dc:date>2025-11-13T16:01:40.467625</dc:date>
    <dc:format>image/svg+xml</dc:format>
    <dc:creator>
     <cc:Agent>
      <dc:title>Matplotlib v3.10.3, https://matplotlib.org/</dc:title>
     </cc:Agent>
    </dc:creator>
   </cc:Work>
  </rdf:RDF>
 </metadata>
 <defs>
  <style type="text/css">*{stroke-linejoin: round; stroke-linecap: butt}</style>
 </defs>
 <g id="figure_1">
  <g id="patch_1">
   <path d="M 0 576 
L 720 576 
L 720 0 
L 0 0 
z
" style="fill: #121212"/>
  </g>
  <g id="axes_1">
   <g id="patch_2">
    <path d="M 40.03 234.924252 
L 709.2 234.924252 
L 709.2 73.083105 
L 40.03 73.083105 
z
" style="fill: #121212"/>
   </g>
   <g id="FillBetweenPolyCollection_1">
    <defs>
     <path id="mdfc61a0c9f" d="M 677.501799 -400.951363 
L 677.501799 -398.081313 
L 677.822145 -403.357731 
L 678.142491 -410.223978 
L 678.462836 -417.342348 
L 678.783182 -423.529226 
L 678.783182 -431.025944 
L 678.783182 -431.025944 
L 678.462836 -426.150893 
L 678.142491 -418.871809 
L 677.822145 -410.995963 
L 677.501799 -400.951363 
z
" style="stroke: #00ffff; stroke-opacity: 0.2"/>
    </defs>
    <g clip-path="url(#p864445fd28)">
     <use xlink:href="#mdfc61a0c9f" x="0" y="576" style="fill: #00ffff; fill-opacity: 0.2; stroke: #00ffff; stroke-opacity: 0.2"/>
    </g>
   </g>
   <g id="matplotlib.axis_1">
    <g id="xtick_1">
     <g id="line2d_1">
      <defs>
       <path id="m7f3e502b78" d="M 0 0 
L 0 3.5 
" style="stroke: #ffffff; stroke-width: 0.8"/>
      </defs>
      <g>
       <use xlink:href="#m7f3e502b78" x="146.048388" y="234.924252" style="fill: #ffffff; stroke: #ffffff; stroke-width: 0.8"/>
      </g>
     </g>
     <g id="text_1">
      <!-- 2020-01-15 -->
      <g style="fill: #ffffff" transform="translate(118.154683 311.624541) rotate(-45) scale(0.15 -0.15)">
       <defs>
        <path id="DejaVuSans-32" d="M 1228 531 
L 3431 531 
L 3431 0 
L 469 0 
L 469 531 
Q 828 903 1448 1529 
Q 2069 2156 2228 2338 
Q 2531 2678 2651 2914 
Q 2772 3150 2772 3378 
Q 2772 3750 2511 3984 
Q 2250 4219 1831 4219 
Q 1534 4219 1204 4116 
Q 875 4013 500 3803 
L 500 4441 
Q 881 4594 1212 4672 
Q 1544 4750 1819 4750 
Q 2544 4750 2975 4387 
Q 3406 4025 3406 3419 
Q 3406 3131 3298 2873 
Q 3191 2616 2906 2266 
Q 2828 2175 2409 1742 
Q 1991 1309 1228 531 
z
" transform="scale(0.015625)"/>
        <path id="DejaVuSans-30" d="M 2034 4250 
Q 1547 4250 1301 3770 
Q 1056 3291 1056 2328 
Q 1056 1369 1301 889 
Q 1547 409 2034 409 
Q 2525 409 2770 889 
Q 3016 1369 3016 2328 
Q 3016 3291 2770 3770 
Q 2525 4250 2034 4250 
z
M 2034 4750 
Q 2819 4750 3233 4129 
Q 3647 3509 3647 2328 
Q 3647 1150 3233 529 
Q 2819 -91 2034 -91 
Q 1250 -91 836 529 
Q 422 1150 422 2328 
Q 422 3509 836 4129 
Q 1250 4750 2034 4750 
z
" transform="scale(0.015625)"/>
        <path id="DejaVuSans-2d" d="M 313 2009 
L 1997 2009 
L 1997 1497 
L 313 1497 
L 313 2009 
z
" transform="scale(0.015625)"/>
        <path id="DejaVuSans-31" d="M 794 531 
L 1825 531 
L 1825 4091 
L 703 3866 
L 703 4441 
L 1819 4666 
L 2450 4666 
L 2450 531 
L 3481 531 
L 3481 0 
L 794 0 
L 794 531 
z
" transform="scale(0.015625)"/>
        <path id="DejaVuSans-35" d="M 691 4666 
L 3169 4666 
L 3169 4134 
L 1269 4134 
L 1269 2991 
Q 1406 3038 1543 3061 
Q 1681 3084 1819 3084 
Q 2600 3084 3056 2656 
Q 3513 2228 3513 1497 
Q 3513 744 3044 326 
Q 2575 -91 1722 -91 
Q 1428 -91 1123 -41 
Q 819 9 494 109 
L 494 744 
Q 775 591 1075 516 
Q 1375 441 1709 441 
Q 2250 441 2565 725 
Q 2881 1009 2881 1497 
Q 2881 1984 2565 2268 
Q 2250 2553 1709 2553 
Q 1456 2553 1204 2497 
Q 953 2441 691 2322 
L 691 4666 
z
" transform="scale(0.015625)"/>
       </defs>
       <use xlink:href="#DejaVuSans-32"/>
       <use xlink:href="#DejaVuSans-30" transform="translate(63.623047 0)"/>
       <use xlink:href="#DejaVuSans-32" transform="translate(127.246094 0)"/>
       <use xlink:href="#DejaVuSans-30" transform="translate(190.869141 0)"/>
       <use xlink:href="#DejaVuSans-2d" transform="translate(254.492188 0)"/>
       <use xlink:href="#DejaVuSans-30" transform="translate(290.576172 0)"/>
       <use xlink:href="#DejaVuSans-31" transform="translate(354.199219 0)"/>
       <use xlink:href="#DejaVuSans-2d" transform="translate(417.822266 0)"/>
       <use xlink:href="#DejaVuSans-31" transform="translate(453.90625 0)"/>
       <use xlink:href="#DejaVuSans-35" transform="translate(517.529297 0)"/>
      </g>
     </g>
    </g>
    <g id="xtick_2">
     <g id="line2d_2">
      <g>
       <use xlink:href="#m7f3e502b78" x="276.749408" y="234.924252" style="fill: #ffffff; stroke: #ffffff; stroke-width: 0.8"/>
      </g>
     </g>
     <g id="text_2">
      <!-- 2020-02-01 -->
      <g style="fill: #ffffff" transform="translate(248.855703 311.624541) rotate(-45) scale(0.15 -0.15)">
       <use xlink:href="#DejaVuSans-32"/>
       <use xlink:href="#DejaVuSans-30" transform="translate(63.623047 0)"/>
       <use xlink:href="#DejaVuSans-32" transform="translate(127.246094 0)"/>
       <use xlink:href="#DejaVuSans-30" transform="translate(190.869141 0)"/>
       <use xlink:href="#DejaVuSans-2d" transform="translate(254.492188 0)"/>
       <use xlink:href="#DejaVuSans-30" transform="translate(290.576172 0)"/>
       <use xlink:href="#DejaVuSans-32" transform="translate(354.199219 0)"/>
       <use xlink:href="#DejaVuSans-2d" transform="translate(417.822266 0)"/>
       <use xlink:href="#DejaVuSans-30" transform="translate(453.90625 0)"/>
       <use xlink:href="#DejaVuSans-31" transform="translate(517.529297 0)"/>
      </g>
     </g>
    </g>
    <g id="xtick_3">
     <g id="line2d_3">
      <g>
       <use xlink:href="#m7f3e502b78" x="384.385542" y="234.924252" style="fill: #ffffff; stroke: #ffffff; stroke-width: 0.8"/>
      </g>
     </g>
     <g id="text_3">
      <!-- 2020-02-15 -->
      <g style="fill: #ffffff" transform="translate(356.491837 311.624541) rotate(-45) scale(0.15 -0.15)">
       <use xlink:href="#DejaVuSans-32"/>
       <use xlink:href="#DejaVuSans-30" transform="translate(63.623047 0)"/>
       <use xlink:href="#DejaVuSans-32" transform="translate(127.246094 0)"/>
       <use xlink:href="#DejaVuSans-30" transform="translate(190.869141 0)"/>
       <use xlink:href="#DejaVuSans-2d" transform="translate(254.492188 0)"/>
       <use xlink:href="#DejaVuSans-30" transform="translate(290.576172 0)"/>
       <use xlink:href="#DejaVuSans-32" transform="translate(354.199219 0)"/>
       <use xlink:href="#DejaVuSans-2d" transform="translate(417.822266 0)"/>
       <use xlink:href="#DejaVuSans-31" transform="translate(453.90625 0)"/>
       <use xlink:href="#DejaVuSans-35" transform="translate(517.529297 0)"/>
      </g>
     </g>
    </g>
    <g id="xtick_4">
     <g id="line2d_4">
      <g>
       <use xlink:href="#m7f3e502b78" x="499.709971" y="234.924252" style="fill: #ffffff; stroke: #ffffff; stroke-width: 0.8"/>
      </g>
     </g>
     <g id="text_4">
      <!-- 2020-03-01 -->
      <g style="fill: #ffffff" transform="translate(471.816266 311.624541) rotate(-45) scale(0.15 -0.15)">
       <defs>
        <path id="DejaVuSans-33" d="M 2597 2516 
Q 3050 2419 3304 2112 
Q 3559 1806 3559 1356 
Q 3559 666 3084 287 
Q 2609 -91 1734 -91 
Q 1441 -91 1130 -33 
Q 819 25 488 141 
L 488 750 
Q 750 597 1062 519 
Q 1375 441 1716 441 
Q 2309 441 2620 675 
Q 2931 909 2931 1356 
Q 2931 1769 2642 2001 
Q 2353 2234 1838 2234 
L 1294 2234 
L 1294 2753 
L 1863 2753 
Q 2328 2753 2575 2939 
Q 2822 3125 2822 3475 
Q 2822 3834 2567 4026 
Q 2313 4219 1838 4219 
Q 1578 4219 1281 4162 
Q 984 4106 628 3988 
L 628 4550 
Q 988 4650 1302 4700 
Q 1616 4750 1894 4750 
Q 2613 4750 3031 4423 
Q 3450 4097 3450 3541 
Q 3450 3153 3228 2886 
Q 3006 2619 2597 2516 
z
" transform="scale(0.015625)"/>
       </defs>
       <use xlink:href="#DejaVuSans-32"/>
       <use xlink:href="#DejaVuSans-30" transform="translate(63.623047 0)"/>
       <use xlink:href="#DejaVuSans-32" transform="translate(127.246094 0)"/>
       <use xlink:href="#DejaVuSans-30" transform="translate(190.869141 0)"/>
       <use xlink:href="#DejaVuSans-2d" transform="translate(254.492188 0)"/>
       <use xlink:href="#DejaVuSans-30" transform="translate(290.576172 0)"/>
       <use xlink:href="#DejaVuSans-33" transform="translate(354.199219 0)"/>
       <use xlink:href="#DejaVuSans-2d" transform="translate(417.822266 0)"/>
       <use xlink:href="#DejaVuSans-30" transform="translate(453.90625 0)"/>
       <use xlink:href="#DejaVuSans-31" transform="translate(517.529297 0)"/>
      </g>
     </g>
    </g>
    <g id="xtick_5">
     <g id="line2d_5">
      <g>
       <use xlink:href="#m7f3e502b78" x="607.346105" y="234.924252" style="fill: #ffffff; stroke: #ffffff; stroke-width: 0.8"/>
      </g>
     </g>
     <g id="text_5">
      <!-- 2020-03-15 -->
      <g style="fill: #ffffff" transform="translate(579.4524 311.624541) rotate(-45) scale(0.15 -0.15)">
       <use xlink:href="#DejaVuSans-32"/>
       <use xlink:href="#DejaVuSans-30" transform="translate(63.623047 0)"/>
       <use xlink:href="#DejaVuSans-32" transform="translate(127.246094 0)"/>
       <use xlink:href="#DejaVuSans-30" transform="translate(190.869141 0)"/>
       <use xlink:href="#DejaVuSans-2d" transform="translate(254.492188 0)"/>
       <use xlink:href="#DejaVuSans-30" transform="translate(290.576172 0)"/>
       <use xlink:href="#DejaVuSans-33" transform="translate(354.199219 0)"/>
       <use xlink:href="#DejaVuSans-2d" transform="translate(417.822266 0)"/>
       <use xlink:href="#DejaVuSans-31" transform="translate(453.90625 0)"/>
       <use xlink:href="#DejaVuSans-35" transform="translate(517.529297 0)"/>
      </g>
     </g>
    </g>
   </g>
   <g id="matplotlib.axis_2">
    <g id="ytick_1">
     <g id="line2d_6">
      <defs>
       <path id="mc3640bd064" d="M 0 0 
L -3.5 0 
" style="stroke: #ffffff; stroke-width: 0.8"/>
      </defs>
      <g>
       <use xlink:href="#mc3640bd064" x="40.03" y="232.338608" style="fill: #ffffff; stroke: #ffffff; stroke-width: 0.8"/>
      </g>
     </g>
     <g id="text_6">
      <!-- −6 -->
      <g style="fill: #ffffff" transform="translate(10.916719 238.037437) scale(0.15 -0.15)">
       <defs>
        <path id="DejaVuSans-2212" d="M 678 2272 
L 4684 2272 
L 4684 1741 
L 678 1741 
L 678 2272 
z
" transform="scale(0.015625)"/>
        <path id="DejaVuSans-36" d="M 2113 2584 
Q 1688 2584 1439 2293 
Q 1191 2003 1191 1497 
Q 1191 994 1439 701 
Q 1688 409 2113 409 
Q 2538 409 2786 701 
Q 3034 994 3034 1497 
Q 3034 2003 2786 2293 
Q 2538 2584 2113 2584 
z
M 3366 4563 
L 3366 3988 
Q 3128 4100 2886 4159 
Q 2644 4219 2406 4219 
Q 1781 4219 1451 3797 
Q 1122 3375 1075 2522 
Q 1259 2794 1537 2939 
Q 1816 3084 2150 3084 
Q 2853 3084 3261 2657 
Q 3669 2231 3669 1497 
Q 3669 778 3244 343 
Q 2819 -91 2113 -91 
Q 1303 -91 875 529 
Q 447 1150 447 2328 
Q 447 3434 972 4092 
Q 1497 4750 2381 4750 
Q 2619 4750 2861 4703 
Q 3103 4656 3366 4563 
z
" transform="scale(0.015625)"/>
       </defs>
       <use xlink:href="#DejaVuSans-2212"/>
       <use xlink:href="#DejaVuSans-36" transform="translate(83.789062 0)"/>
      </g>
     </g>
    </g>
    <g id="ytick_2">
     <g id="line2d_7">
      <g>
       <use xlink:href="#mc3640bd064" x="40.03" y="206.229112" style="fill: #ffffff; stroke: #ffffff; stroke-width: 0.8"/>
      </g>
     </g>
     <g id="text_7">
      <!-- −4 -->
      <g style="fill: #ffffff" transform="translate(10.916719 211.92794) scale(0.15 -0.15)">
       <defs>
        <path id="DejaVuSans-34" d="M 2419 4116 
L 825 1625 
L 2419 1625 
L 2419 4116 
z
M 2253 4666 
L 3047 4666 
L 3047 1625 
L 3713 1625 
L 3713 1100 
L 3047 1100 
L 3047 0 
L 2419 0 
L 2419 1100 
L 313 1100 
L 313 1709 
L 2253 4666 
z
" transform="scale(0.015625)"/>
       </defs>
       <use xlink:href="#DejaVuSans-2212"/>
       <use xlink:href="#DejaVuSans-34" transform="translate(83.789062 0)"/>
      </g>
     </g>
    </g>
    <g id="ytick_3">
     <g id="line2d_8">
      <g>
       <use xlink:href="#mc3640bd064" x="40.03" y="180.119616" style="fill: #ffffff; stroke: #ffffff; stroke-width: 0.8"/>
      </g>
     </g>
     <g id="text_8">
      <!-- −2 -->
      <g style="fill: #ffffff" transform="translate(10.916719 185.818444) scale(0.15 -0.15)">
       <use xlink:href="#DejaVuSans-2212"/>
       <use xlink:href="#DejaVuSans-32" transform="translate(83.789062 0)"/>
      </g>
     </g>
    </g>
    <g id="ytick_4">
     <g id="line2d_9">
      <g>
       <use xlink:href="#mc3640bd064" x="40.03" y="154.01012" style="fill: #ffffff; stroke: #ffffff; stroke-width: 0.8"/>
      </g>
     </g>
     <g id="text_9">
      <!-- 0 -->
      <g style="fill: #ffffff" transform="translate(23.48625 159.708948) scale(0.15 -0.15)">
       <use xlink:href="#DejaVuSans-30"/>
      </g>
     </g>
    </g>
    <g id="ytick_5">
     <g id="line2d_10">
      <g>
       <use xlink:href="#mc3640bd064" x="40.03" y="127.900623" style="fill: #ffffff; stroke: #ffffff; stroke-width: 0.8"/>
      </g>
     </g>
     <g id="text_10">
      <!-- 2 -->
      <g style="fill: #ffffff" transform="translate(23.48625 133.599451) scale(0.15 -0.15)">
       <use xlink:href="#DejaVuSans-32"/>
      </g>
     </g>
    </g>
    <g id="ytick_6">
     <g id="line2d_11">
      <g>
       <use xlink:href="#mc3640bd064" x="40.03" y="101.791127" style="fill: #ffffff; stroke: #ffffff; stroke-width: 0.8"/>
      </g>
     </g>
     <g id="text_11">
      <!-- 4 -->
      <g style="fill: #ffffff" transform="translate(23.48625 107.489955) scale(0.15 -0.15)">
       <use xlink:href="#DejaVuSans-34"/>
      </g>
     </g>
    </g>
    <g id="ytick_7">
     <g id="line2d_12">
      <g>
       <use xlink:href="#mc3640bd064" x="40.03" y="75.681631" style="fill: #ffffff; stroke: #ffffff; stroke-width: 0.8"/>
      </g>
     </g>
     <g id="text_12">
      <!-- 6 -->
      <g style="fill: #ffffff" transform="translate(23.48625 81.380459) scale(0.15 -0.15)">
       <use xlink:href="#DejaVuSans-36"/>
      </g>
     </g>
    </g>
   </g>
   <g id="line2d_13">
    <path d="M 677.501799 180.262943 
L 677.822145 171.884693 
L 678.142491 159.656279 
L 678.462836 150.409093 
L 678.783182 151.107786 
" clip-path="url(#p864445fd28)" style="fill: none; stroke: #0000ff; stroke-width: 1.5; stroke-linecap: square"/>
   </g>
   <g id="line2d_14">
    <path d="M 70.446818 185.404424 
L 71.087509 190.434799 
L 72.048546 196.232806 
L 73.009583 200.35103 
L 73.650275 202.382162 
L 74.290966 203.697655 
L 74.611311 204.047931 
L 74.931657 203.975845 
L 75.252003 203.572544 
L 75.572348 202.895028 
L 75.892694 201.752971 
L 76.533385 197.717426 
L 77.174077 191.645736 
L 77.814768 182.94362 
L 78.775805 165.894661 
L 80.377533 130.38951 
L 81.658915 103.488228 
L 82.299607 93.361126 
L 82.940298 86.328242 
L 83.260644 84.349778 
L 83.580989 83.352024 
L 83.901335 83.292976 
L 84.221681 84.302086 
L 84.542026 86.418163 
L 85.182717 93.334471 
L 85.823409 103.604302 
L 86.784446 123.199215 
L 89.026865 171.656235 
L 89.987902 186.709123 
L 90.628593 193.576776 
L 91.269285 198.155302 
L 91.909976 200.381436 
L 92.230321 200.881326 
L 92.550667 200.937321 
L 92.871013 200.577842 
L 93.511704 199.208335 
L 94.152395 196.979795 
L 95.113432 192.853337 
L 96.394815 185.750383 
L 97.355852 178.545048 
L 97.996543 172.32582 
L 98.95758 160.597976 
L 100.238962 140.423248 
L 102.161036 107.567958 
L 103.122073 95.512436 
L 103.762764 90.990196 
L 104.08311 89.976409 
L 104.403456 89.835246 
L 104.723801 90.696269 
L 105.044147 92.563083 
L 105.684838 98.959514 
L 106.325529 108.894894 
L 107.286566 128.631129 
L 109.849331 186.653668 
L 110.490023 196.99299 
L 111.130714 204.214906 
L 111.45106 206.670788 
L 111.771405 208.260318 
L 112.091751 209.025849 
L 112.412097 209.092418 
L 112.732442 208.489847 
L 113.052788 207.195547 
L 113.693479 202.984298 
L 114.33417 197.220757 
L 123.303848 104.490963 
L 123.944539 100.515524 
L 124.264885 99.40402 
L 124.585231 98.893555 
L 124.905576 99.0855 
L 125.225922 100.094167 
L 125.546268 101.91239 
L 126.186959 107.876396 
L 126.82765 117.102285 
L 127.788687 135.823905 
L 130.671798 200.375285 
L 131.312489 209.799598 
L 131.95318 215.834635 
L 132.273526 217.38892 
L 132.593872 217.982963 
L 132.914217 217.684104 
L 133.234563 216.478353 
L 133.554909 214.367032 
L 134.1956 207.915312 
L 134.836291 199.033492 
L 136.438019 171.665981 
L 137.719402 150.809308 
L 138.680439 138.324612 
L 139.641476 128.896313 
L 140.602513 121.907461 
L 141.563549 116.525272 
L 142.844932 110.910917 
L 143.485623 108.871872 
L 144.126315 107.552191 
L 144.44666 107.364711 
L 144.767006 107.52171 
L 145.087351 108.047644 
L 145.407697 109.052619 
L 146.048388 112.732806 
L 146.68908 118.69596 
L 147.329771 127.225915 
L 148.290808 144.249549 
L 149.892536 179.543503 
L 151.173919 205.928458 
L 151.81461 215.706209 
L 152.455301 222.187358 
L 152.775647 223.93636 
L 153.095992 224.683612 
L 153.416338 224.43185 
L 153.736684 223.130057 
L 154.057029 220.787252 
L 154.697721 213.376743 
L 155.338412 202.728164 
L 156.299449 182.704511 
L 158.541868 134.050694 
L 159.502905 118.969489 
L 160.143596 111.933629 
L 160.784288 107.186941 
L 161.424979 104.614725 
L 161.745325 103.966616 
L 162.06567 103.729844 
L 162.386016 103.859304 
L 162.706361 104.251071 
L 163.347053 105.692961 
L 163.987744 107.910697 
L 164.628435 110.668241 
L 165.589472 116.077808 
L 166.230163 120.805627 
L 166.870855 126.66194 
L 167.831892 138.240888 
L 168.792929 153.324091 
L 170.074311 177.712794 
L 171.676039 208.24996 
L 172.316731 217.705488 
L 172.957422 224.318008 
L 173.277767 226.279735 
L 173.598113 227.307227 
L 173.918459 227.344943 
L 174.238804 226.315686 
L 174.55915 224.223911 
L 175.199841 217.080466 
L 175.840533 206.181396 
L 176.801569 184.570563 
L 179.364335 120.462573 
L 180.005026 108.513926 
L 180.645717 99.634224 
L 181.286408 93.982799 
L 181.606754 92.39731 
L 181.9271 91.548228 
L 182.247445 91.407588 
L 182.567791 91.963677 
L 182.888137 93.13224 
L 183.528828 96.905455 
L 184.489865 105.330443 
L 186.091593 122.611924 
L 188.334012 149.477171 
L 189.615395 167.471174 
L 192.818851 215.528728 
L 193.459543 221.503788 
L 193.779888 223.431786 
L 194.100234 224.591673 
L 194.420579 224.888369 
L 194.740925 224.234709 
L 195.061271 222.625181 
L 195.381616 220.078507 
L 196.022308 212.085392 
L 196.662999 200.524091 
L 197.624036 177.869068 
L 200.507147 104.201009 
L 201.147838 93.497187 
L 201.788529 86.464545 
L 202.108875 84.409904 
L 202.42922 83.288303 
L 202.749566 83.108059 
L 203.069912 83.853352 
L 203.390257 85.430465 
L 204.030949 90.732542 
L 204.67164 98.445755 
L 205.953022 117.831921 
L 208.195442 152.198945 
L 209.79717 172.560077 
L 212.039589 197.87023 
L 213.000626 207.291462 
L 213.641318 212.313084 
L 214.282009 215.603207 
L 214.602355 216.469692 
L 214.9227 216.691291 
L 215.243046 216.190896 
L 215.563391 214.955403 
L 215.883737 212.959979 
L 216.524428 206.473156 
L 217.16512 196.780252 
L 218.126157 176.869577 
L 219.727885 135.709203 
L 221.009267 104.946592 
L 221.649959 93.229166 
L 222.29065 85.093435 
L 222.610995 82.512973 
L 222.931341 80.946594 
L 223.251687 80.439521 
L 223.572032 80.982866 
L 223.892378 82.500192 
L 224.212724 84.929106 
L 224.853415 92.339677 
L 225.814452 108.172566 
L 229.017908 167.53238 
L 229.978945 179.699627 
L 230.939982 188.552564 
L 231.901019 194.914985 
L 232.862056 199.593687 
L 233.823093 202.881995 
L 234.463784 204.122078 
L 234.78413 204.37677 
L 235.104475 204.336691 
L 235.424821 203.913316 
L 235.745167 203.059907 
L 236.065512 201.764604 
L 236.706204 197.615685 
L 237.346895 191.123731 
L 237.987586 182.249553 
L 238.948623 164.750383 
L 240.550351 128.980658 
L 241.831734 102.351763 
L 242.472425 92.418509 
L 243.113116 85.886806 
L 243.433462 84.042378 
L 243.753808 83.24228 
L 244.074153 83.490958 
L 244.394499 84.747483 
L 244.714844 86.997267 
L 245.355536 94.357433 
L 245.996227 104.867993 
L 246.957264 124.77915 
L 249.199683 172.782346 
L 250.16072 187.313022 
L 250.801412 193.96045 
L 251.442103 198.17913 
L 251.762448 199.478392 
L 252.082794 200.259827 
L 252.40314 200.594914 
L 252.723485 200.571269 
L 253.043831 200.226477 
L 253.684522 198.712836 
L 254.325214 196.524677 
L 255.28625 192.32559 
L 256.247287 187.181843 
L 257.208324 180.578633 
L 258.169361 171.62015 
L 259.130398 159.627245 
L 260.091435 144.703111 
L 262.6542 102.213236 
L 263.294891 95.087849 
L 263.935583 90.884729 
L 264.255928 90.103664 
L 264.576274 90.249264 
L 264.89662 91.322561 
L 265.216965 93.354637 
L 265.857656 100.252319 
L 266.498348 110.46609 
L 267.459385 130.591372 
L 270.02215 188.04769 
L 270.662841 197.957873 
L 271.303532 204.77337 
L 271.623878 206.955866 
L 271.944224 208.354935 
L 272.264569 208.966699 
L 272.584915 208.814511 
L 272.90526 207.983419 
L 273.225606 206.557396 
L 273.866297 202.117431 
L 274.827334 192.829308 
L 278.030791 158.864904 
L 280.593556 133.677505 
L 283.156321 106.517236 
L 283.797012 101.895265 
L 284.117358 100.30369 
L 284.437703 99.325055 
L 284.758049 99.036372 
L 285.078395 99.462739 
L 285.39874 100.641366 
L 285.719086 102.635193 
L 286.359777 109.090084 
L 287.000468 118.626012 
L 287.961505 137.802052 
L 290.844616 201.844364 
L 291.485307 210.902851 
L 292.125999 216.378201 
L 292.446344 217.718286 
L 292.76669 218.086058 
L 293.087036 217.499922 
L 293.407381 216.032728 
L 294.048072 210.66908 
L 294.688764 202.558321 
L 295.649801 187.087484 
L 297.89222 149.523765 
L 298.853257 137.258469 
L 299.814294 128.015687 
L 300.775331 121.213299 
L 301.736368 115.984453 
L 302.697405 111.71871 
L 303.338096 109.412902 
L 303.978787 107.834871 
L 304.299133 107.398671 
L 304.619478 107.264502 
L 304.939824 107.520578 
L 305.26017 108.215094 
L 305.580515 109.37023 
L 305.900861 111.043573 
L 306.541552 116.184718 
L 307.182244 123.750918 
L 307.822935 133.791437 
L 308.783972 152.651779 
L 311.346737 207.451901 
L 311.987428 216.900782 
L 312.628119 222.873412 
L 312.948465 224.412388 
L 313.268811 224.902233 
L 313.589156 224.34643 
L 313.909502 222.785067 
L 314.229848 220.235788 
L 314.870539 212.333399 
L 315.51123 201.366455 
L 316.792613 173.670435 
L 318.394341 138.594602 
L 319.355378 122.259809 
L 319.996069 114.236723 
L 320.63676 108.656257 
L 321.277452 105.253454 
L 321.597797 104.308441 
L 321.918143 103.792044 
L 322.238488 103.627666 
L 322.558834 103.784982 
L 322.87918 104.241512 
L 323.519871 105.803502 
L 324.160562 108.059963 
L 325.121599 112.566451 
L 326.082636 118.751013 
L 326.723327 124.166394 
L 327.684364 134.867928 
L 328.645401 149.117352 
L 329.926784 172.83755 
L 331.848858 209.563719 
L 332.489549 218.746066 
L 333.13024 224.949635 
L 333.450586 226.721304 
L 333.770931 227.492849 
L 334.091277 227.248809 
L 334.411623 225.985986 
L 334.731968 223.67786 
L 335.37266 216.007923 
L 336.013351 204.754284 
L 336.974388 182.702362 
L 339.537153 118.949738 
L 340.177844 107.355294 
L 340.818535 98.854898 
L 341.459227 93.600455 
L 341.779572 92.171942 
L 342.099918 91.521636 
L 342.420264 91.571141 
L 342.740609 92.248696 
L 343.060955 93.516843 
L 343.701646 97.542305 
L 344.662683 106.10926 
L 346.264411 123.473154 
L 348.186485 146.246865 
L 349.467868 163.748109 
L 351.710287 198.970737 
L 352.671324 212.584631 
L 353.312015 219.451245 
L 353.952706 223.733219 
L 354.273052 224.661184 
L 354.593398 224.72281 
L 354.913743 223.873597 
L 355.234089 222.051486 
L 355.87478 215.486663 
L 356.515472 205.248846 
L 357.476508 184.048741 
L 360.679965 102.782724 
L 361.320656 92.54376 
L 361.961347 85.977453 
L 362.281693 84.154574 
L 362.602039 83.304496 
L 362.922384 83.365175 
L 363.24273 84.292199 
L 363.563076 86.054314 
L 364.203767 91.729019 
L 364.844458 99.630836 
L 366.125841 119.194479 
L 368.047914 148.877862 
L 369.649643 169.649639 
L 371.892062 195.215279 
L 373.173445 207.896712 
L 373.814136 212.69414 
L 374.454827 215.762627 
L 374.775173 216.440999 
L 375.095518 216.491397 
L 375.415864 215.841973 
L 375.73621 214.414363 
L 376.056555 212.185148 
L 376.697247 205.326641 
L 377.337938 195.218591 
L 378.298975 174.893982 
L 381.502431 97.233776 
L 382.143122 87.703936 
L 382.783814 82.047114 
L 383.104159 80.784469 
L 383.424505 80.540513 
L 383.744851 81.312117 
L 384.065196 83.083769 
L 384.705888 89.286926 
L 385.346579 98.468649 
L 386.307616 115.958606 
L 388.550035 158.907491 
L 389.511072 173.153862 
L 390.472109 183.852247 
L 391.433146 191.537613 
L 392.394183 197.096545 
L 393.35522 201.167198 
L 393.995911 203.074685 
L 394.636602 204.223038 
L 394.956948 204.379943 
L 395.277294 204.215295 
L 395.597639 203.698704 
L 395.917985 202.75352 
L 396.23833 201.310576 
L 396.879022 196.855489 
L 397.519713 190.060318 
L 398.160404 180.864682 
L 399.121441 162.96318 
L 402.324898 95.686136 
L 402.965589 87.78591 
L 403.285934 85.237714 
L 403.60628 83.677361 
L 403.926626 83.122564 
L 404.246971 83.613444 
L 404.567317 85.153401 
L 404.887663 87.680524 
L 405.528354 95.452407 
L 406.169045 106.371285 
L 407.450428 133.843068 
L 409.052156 168.406375 
L 410.013193 184.282211 
L 410.653884 191.847642 
L 411.294575 196.98765 
L 411.935267 199.814766 
L 412.255612 200.508501 
L 412.575958 200.763687 
L 412.896304 200.628606 
L 413.216649 200.1915 
L 413.85734 198.611428 
L 414.818377 194.99387 
L 415.779414 190.408041 
L 416.740451 184.733276 
L 417.701488 177.233467 
L 418.662525 167.028506 
L 419.623562 153.71602 
L 420.904944 132.187795 
L 422.506673 105.448747 
L 423.147364 97.338722 
L 423.788055 91.976216 
L 424.108401 90.509639 
L 424.428746 89.924235 
L 424.749092 90.292845 
L 425.069438 91.633782 
L 425.389783 93.912961 
L 426.030475 101.218862 
L 426.671166 111.854164 
L 427.632203 132.347378 
L 429.874622 183.558857 
L 430.515314 194.548519 
L 431.156005 202.566682 
L 431.796696 207.390907 
L 432.117042 208.570078 
L 432.437387 208.996942 
L 432.757733 208.708619 
L 433.078079 207.730225 
L 433.71877 204.043757 
L 434.359461 198.608928 
L 435.640844 184.962325 
L 437.562918 164.427101 
L 441.08672 129.403667 
L 443.008793 108.731157 
L 443.649485 103.428293 
L 444.290176 100.024568 
L 444.610522 99.192873 
L 444.930867 99.040226 
L 445.251213 99.651632 
L 445.571558 101.050367 
L 445.891904 103.232605 
L 446.532595 110.047999 
L 447.173287 119.958322 
L 448.134324 139.521345 
L 450.697089 197.547039 
L 451.33778 207.762914 
L 451.978471 214.662843 
L 452.298817 216.69604 
L 452.619162 217.770535 
L 452.939508 217.91734 
L 453.259854 217.137413 
L 453.580199 215.448614 
L 454.220891 209.703482 
L 454.861582 201.339475 
L 456.142964 180.037545 
L 457.744693 153.071056 
L 458.70573 140.069256 
L 459.666766 130.156541 
L 460.627803 122.841493 
L 461.58884 117.283177 
L 462.870223 111.504107 
L 463.510914 109.313867 
L 464.151605 107.798 
L 464.471951 107.452065 
L 464.792297 107.427188 
L 465.112642 107.761047 
L 465.432988 108.541313 
L 465.753334 109.83939 
L 466.394025 114.055621 
L 467.034716 120.700828 
L 467.675407 129.803644 
L 468.636444 147.626393 
L 471.839901 213.647465 
L 472.480592 221.007939 
L 472.800938 223.258022 
L 473.121283 224.515004 
L 473.441629 224.7642 
L 473.761974 223.964648 
L 474.08232 222.120883 
L 474.723011 215.59084 
L 475.363703 205.659409 
L 476.32474 186.252589 
L 478.567159 136.960753 
L 479.528196 121.029579 
L 480.168887 113.370013 
L 480.809578 108.055116 
L 481.45027 104.972784 
L 481.770615 104.120129 
L 482.090961 103.697482 
L 482.411307 103.657996 
L 482.731652 103.913135 
L 483.051998 104.41251 
L 483.692689 106.107487 
L 484.33338 108.442529 
L 485.294417 113.120613 
L 485.935109 117.107801 
L 486.896146 125.041409 
L 487.536837 132.013335 
L 488.497874 145.346266 
L 489.458911 162.060109 
L 492.342021 215.672834 
L 492.982713 223.081096 
L 493.303058 225.508982 
L 493.623404 227.025392 
L 493.94375 227.567836 
L 494.264095 227.059899 
L 494.584441 225.492805 
L 494.904786 222.91176 
L 495.545478 214.774987 
L 496.186169 203.057055 
L 497.147206 180.583425 
L 499.389625 123.882159 
L 500.350662 106.003838 
L 500.991354 97.871908 
L 501.632045 93.059373 
L 501.95239 91.82514 
L 502.272736 91.326106 
L 502.593082 91.549119 
L 502.913427 92.41696 
L 503.554119 95.70981 
L 504.19481 100.734163 
L 505.155847 110.159218 
L 507.398266 135.47592 
L 508.999994 155.838969 
L 510.601723 179.911556 
L 512.523796 209.586577 
L 513.164488 217.297559 
L 513.805179 222.597115 
L 514.125525 224.172937 
L 514.44587 224.916815 
L 514.766216 224.735113 
L 515.086562 223.612112 
L 515.406907 221.556062 
L 516.047598 214.520422 
L 516.68829 203.813813 
L 517.649327 182.083307 
L 520.852783 101.297856 
L 521.493474 91.432955 
L 522.134166 85.376351 
L 522.454511 83.766959 
L 522.774857 83.11364 
L 523.095202 83.410787 
L 523.415548 84.571156 
L 523.735894 86.49976 
L 524.376585 92.476512 
L 525.337622 105.23232 
L 529.18177 162.648258 
L 531.103843 185.422044 
L 533.025917 205.767077 
L 533.666609 211.134505 
L 534.3073 214.90807 
L 534.627645 216.076624 
L 534.947991 216.63249 
L 535.268337 216.491534 
L 535.588682 215.642093 
L 535.909028 214.056083 
L 536.229374 211.654734 
L 536.870065 204.347205 
L 537.510756 193.916223 
L 538.471793 173.128723 
L 541.675249 95.948999 
L 542.315941 86.874997 
L 542.956632 81.692594 
L 543.276978 80.662018 
L 543.597323 80.698442 
L 543.917669 81.724651 
L 544.238015 83.685249 
L 544.878706 90.295931 
L 545.519397 99.749938 
L 546.80078 123.855275 
L 548.402508 154.676003 
L 549.363545 169.761609 
L 550.324582 181.34409 
L 551.285619 189.713034 
L 552.246655 195.698489 
L 553.207692 200.110128 
L 553.848384 202.331547 
L 554.489075 203.776913 
L 554.809421 204.170464 
L 555.129766 204.301575 
L 555.450112 204.066324 
L 555.770457 203.419743 
L 556.090803 202.366274 
L 556.411149 200.850364 
L 557.05184 196.105972 
L 557.692531 189.072052 
L 558.333223 179.571567 
L 559.294259 161.389099 
L 562.17737 99.616372 
L 562.818061 90.527998 
L 563.458753 84.902744 
L 563.779098 83.599343 
L 564.099444 83.345796 
L 564.41979 84.091145 
L 564.740135 85.838288 
L 565.380827 92.315592 
L 566.021518 102.089329 
L 566.982555 121.3636 
L 569.224974 169.97121 
L 570.186011 185.337853 
L 570.826702 192.595769 
L 571.467394 197.3762 
L 571.787739 198.94167 
L 572.108085 199.946531 
L 572.428431 200.472634 
L 572.748776 200.63 
L 573.069122 200.442939 
L 573.389467 199.912467 
L 574.030159 198.181272 
L 574.67085 195.820515 
L 575.952233 189.806951 
L 576.913269 184.03002 
L 577.874306 176.306835 
L 578.514998 169.698049 
L 579.476035 157.219976 
L 580.757417 136.371339 
L 582.679491 104.293398 
L 583.320182 96.579713 
L 583.960873 91.570672 
L 584.281219 90.365245 
L 584.601565 90.066391 
L 584.92191 90.660258 
L 585.242256 92.21431 
L 585.562602 94.770506 
L 586.203293 102.552384 
L 586.843984 113.56383 
L 587.805021 134.390092 
L 590.047441 185.282681 
L 590.688132 195.913402 
L 591.328823 203.522217 
L 591.969514 207.916077 
L 592.28986 208.922257 
L 592.610206 209.111813 
L 592.930551 208.599178 
L 593.250897 207.485564 
L 593.891588 203.506004 
L 594.852625 194.625851 
L 598.376427 157.306194 
L 600.618847 135.230569 
L 603.501957 105.038973 
L 604.142649 100.833344 
L 604.462994 99.541997 
L 604.78334 98.942242 
L 605.103685 99.011414 
L 605.424031 99.779546 
L 605.744377 101.371714 
L 606.385068 107.069684 
L 607.025759 115.844502 
L 607.986796 134.213848 
L 611.190253 204.546423 
L 611.830944 212.727309 
L 612.471635 217.353039 
L 612.791981 218.211697 
L 613.112326 218.068098 
L 613.432672 217.051831 
L 613.753018 215.215593 
L 614.393709 209.053351 
L 615.0344 200.458865 
L 616.315783 178.893817 
L 617.917511 152.066201 
L 618.878548 139.246316 
L 619.839585 129.436065 
L 620.800622 122.225725 
L 621.761659 116.767759 
L 622.722695 112.297579 
L 623.683732 108.768863 
L 624.324424 107.402694 
L 624.644769 107.045444 
L 624.965115 107.104055 
L 625.285461 107.606624 
L 625.605806 108.49062 
L 625.926152 109.838799 
L 626.566843 114.42442 
L 627.207534 121.29962 
L 627.848226 130.804981 
L 628.809263 148.951369 
L 631.692373 210.003951 
L 632.333065 218.600319 
L 632.973756 223.772033 
L 633.294101 224.78269 
L 633.614447 224.725096 
L 633.934793 223.728521 
L 634.255138 221.750608 
L 634.89583 214.717776 
L 635.536521 204.589313 
L 636.497558 184.840583 
L 638.739977 135.880397 
L 639.701014 120.449535 
L 640.341705 113.034733 
L 640.982397 108.016783 
L 641.623088 105.105577 
L 641.943434 104.422373 
L 642.263779 104.013425 
L 642.584125 103.936138 
L 642.904471 104.281401 
L 643.545162 105.586782 
L 644.185853 107.609534 
L 645.14689 111.717057 
L 646.107927 117.508141 
L 646.748618 122.536807 
L 647.709655 132.48858 
L 648.670692 146.078443 
L 649.631729 163.012838 
L 652.51484 216.005735 
L 653.155531 223.06357 
L 653.475877 225.381555 
L 653.796222 226.577124 
L 654.116568 226.806346 
L 654.436913 226.189525 
L 654.757259 224.500802 
L 655.39795 217.737892 
L 656.038642 207.606196 
L 656.999679 186.546759 
L 659.882789 116.451028 
L 660.523481 105.541722 
L 661.164172 98.243044 
L 661.804863 93.71638 
L 662.125209 92.922415 
L 662.445554 92.760806 
L 662.7659 93.015239 
L 663.086246 93.984605 
L 663.726937 97.889043 
L 664.367628 102.819065 
L 666.610048 126.495081 
L 668.211776 144.874826 
L 670.774541 180.115179 
L 671.735578 194.723948 
L 672.696615 208.277809 
L 673.657652 217.4403 
L 673.977997 219.272592 
L 674.298343 219.569765 
L 674.939034 219.545942 
L 675.25938 217.853292 
L 676.220417 206.836923 
L 676.540762 201.322127 
L 677.181454 186.149827 
L 677.181454 186.149827 
" clip-path="url(#p864445fd28)" style="fill: none; stroke: #00ff00; stroke-width: 1.5; stroke-linecap: square"/>
   </g>
   <g id="line2d_15">
    <path d="M 677.501799 176.483662 
L 677.822145 168.823153 
L 678.142491 161.452107 
L 678.462836 154.25338 
L 678.783182 148.722415 
" clip-path="url(#p864445fd28)" style="fill: none; stroke: #00ffff; stroke-width: 1.5; stroke-linecap: square"/>
   </g>
   <g id="patch_3">
    <path d="M 40.03 234.924252 
L 40.03 73.083105 
" style="fill: none; stroke: #ffffff; stroke-width: 0.8; stroke-linejoin: miter; stroke-linecap: square"/>
   </g>
   <g id="patch_4">
    <path d="M 709.2 234.924252 
L 709.2 73.083105 
" style="fill: none; stroke: #ffffff; stroke-width: 0.8; stroke-linejoin: miter; stroke-linecap: square"/>
   </g>
   <g id="patch_5">
    <path d="M 40.03 234.924252 
L 709.2 234.924252 
" style="fill: none; stroke: #ffffff; stroke-width: 0.8; stroke-linejoin: miter; stroke-linecap: square"/>
   </g>
   <g id="patch_6">
    <path d="M 40.03 73.083105 
L 709.2 73.083105 
" style="fill: none; stroke: #ffffff; stroke-width: 0.8; stroke-linejoin: miter; stroke-linecap: square"/>
   </g>
  </g>
  <g id="axes_2">
   <g id="patch_7">
    <path d="M 40.03 486.35088 
L 709.2 486.35088 
L 709.2 324.509733 
L 40.03 324.509733 
z
" style="fill: #121212"/>
   </g>
   <g id="FillBetweenPolyCollection_2">
    <defs>
     <path id="m8069d7564c" d="M 666.555315 -153.81477 
L 666.555315 -150.664605 
L 669.612282 -156.455999 
L 672.669249 -163.992388 
L 675.726215 -171.805507 
L 678.783182 -178.596221 
L 678.783182 -186.824616 
L 678.783182 -186.824616 
L 675.726215 -181.473761 
L 672.669249 -173.484243 
L 669.612282 -164.839718 
L 666.555315 -153.81477 
z
" style="stroke: #00ffff; stroke-opacity: 0.2"/>
    </defs>
    <g clip-path="url(#p33af952010)">
     <use xlink:href="#m8069d7564c" x="0" y="576" style="fill: #00ffff; fill-opacity: 0.2; stroke: #00ffff; stroke-opacity: 0.2"/>
    </g>
   </g>
   <g id="matplotlib.axis_3">
    <g id="xtick_6">
     <g id="line2d_16">
      <g>
       <use xlink:href="#m7f3e502b78" x="70.446818" y="486.35088" style="fill: #ffffff; stroke: #ffffff; stroke-width: 0.8"/>
      </g>
     </g>
     <g id="text_13">
      <!-- 2020-03-16 -->
      <g style="fill: #ffffff" transform="translate(42.553113 563.051169) rotate(-45) scale(0.15 -0.15)">
       <use xlink:href="#DejaVuSans-32"/>
       <use xlink:href="#DejaVuSans-30" transform="translate(63.623047 0)"/>
       <use xlink:href="#DejaVuSans-32" transform="translate(127.246094 0)"/>
       <use xlink:href="#DejaVuSans-30" transform="translate(190.869141 0)"/>
       <use xlink:href="#DejaVuSans-2d" transform="translate(254.492188 0)"/>
       <use xlink:href="#DejaVuSans-30" transform="translate(290.576172 0)"/>
       <use xlink:href="#DejaVuSans-33" transform="translate(354.199219 0)"/>
       <use xlink:href="#DejaVuSans-2d" transform="translate(417.822266 0)"/>
       <use xlink:href="#DejaVuSans-31" transform="translate(453.90625 0)"/>
       <use xlink:href="#DejaVuSans-36" transform="translate(517.529297 0)"/>
      </g>
     </g>
    </g>
    <g id="xtick_7">
     <g id="line2d_17">
      <g>
       <use xlink:href="#m7f3e502b78" x="143.814018" y="486.35088" style="fill: #ffffff; stroke: #ffffff; stroke-width: 0.8"/>
      </g>
     </g>
     <g id="text_14">
      <!-- 2020-03-17 -->
      <g style="fill: #ffffff" transform="translate(115.920313 563.051169) rotate(-45) scale(0.15 -0.15)">
       <defs>
        <path id="DejaVuSans-37" d="M 525 4666 
L 3525 4666 
L 3525 4397 
L 1831 0 
L 1172 0 
L 2766 4134 
L 525 4134 
L 525 4666 
z
" transform="scale(0.015625)"/>
       </defs>
       <use xlink:href="#DejaVuSans-32"/>
       <use xlink:href="#DejaVuSans-30" transform="translate(63.623047 0)"/>
       <use xlink:href="#DejaVuSans-32" transform="translate(127.246094 0)"/>
       <use xlink:href="#DejaVuSans-30" transform="translate(190.869141 0)"/>
       <use xlink:href="#DejaVuSans-2d" transform="translate(254.492188 0)"/>
       <use xlink:href="#DejaVuSans-30" transform="translate(290.576172 0)"/>
       <use xlink:href="#DejaVuSans-33" transform="translate(354.199219 0)"/>
       <use xlink:href="#DejaVuSans-2d" transform="translate(417.822266 0)"/>
       <use xlink:href="#DejaVuSans-31" transform="translate(453.90625 0)"/>
       <use xlink:href="#DejaVuSans-37" transform="translate(517.529297 0)"/>
      </g>
     </g>
    </g>
    <g id="xtick_8">
     <g id="line2d_18">
      <g>
       <use xlink:href="#m7f3e502b78" x="217.181217" y="486.35088" style="fill: #ffffff; stroke: #ffffff; stroke-width: 0.8"/>
      </g>
     </g>
     <g id="text_15">
      <!-- 2020-03-18 -->
      <g style="fill: #ffffff" transform="translate(189.287512 563.051169) rotate(-45) scale(0.15 -0.15)">
       <defs>
        <path id="DejaVuSans-38" d="M 2034 2216 
Q 1584 2216 1326 1975 
Q 1069 1734 1069 1313 
Q 1069 891 1326 650 
Q 1584 409 2034 409 
Q 2484 409 2743 651 
Q 3003 894 3003 1313 
Q 3003 1734 2745 1975 
Q 2488 2216 2034 2216 
z
M 1403 2484 
Q 997 2584 770 2862 
Q 544 3141 544 3541 
Q 544 4100 942 4425 
Q 1341 4750 2034 4750 
Q 2731 4750 3128 4425 
Q 3525 4100 3525 3541 
Q 3525 3141 3298 2862 
Q 3072 2584 2669 2484 
Q 3125 2378 3379 2068 
Q 3634 1759 3634 1313 
Q 3634 634 3220 271 
Q 2806 -91 2034 -91 
Q 1263 -91 848 271 
Q 434 634 434 1313 
Q 434 1759 690 2068 
Q 947 2378 1403 2484 
z
M 1172 3481 
Q 1172 3119 1398 2916 
Q 1625 2713 2034 2713 
Q 2441 2713 2670 2916 
Q 2900 3119 2900 3481 
Q 2900 3844 2670 4047 
Q 2441 4250 2034 4250 
Q 1625 4250 1398 4047 
Q 1172 3844 1172 3481 
z
" transform="scale(0.015625)"/>
       </defs>
       <use xlink:href="#DejaVuSans-32"/>
       <use xlink:href="#DejaVuSans-30" transform="translate(63.623047 0)"/>
       <use xlink:href="#DejaVuSans-32" transform="translate(127.246094 0)"/>
       <use xlink:href="#DejaVuSans-30" transform="translate(190.869141 0)"/>
       <use xlink:href="#DejaVuSans-2d" transform="translate(254.492188 0)"/>
       <use xlink:href="#DejaVuSans-30" transform="translate(290.576172 0)"/>
       <use xlink:href="#DejaVuSans-33" transform="translate(354.199219 0)"/>
       <use xlink:href="#DejaVuSans-2d" transform="translate(417.822266 0)"/>
       <use xlink:href="#DejaVuSans-31" transform="translate(453.90625 0)"/>
       <use xlink:href="#DejaVuSans-38" transform="translate(517.529297 0)"/>
      </g>
     </g>
    </g>
    <g id="xtick_9">
     <g id="line2d_19">
      <g>
       <use xlink:href="#m7f3e502b78" x="290.548417" y="486.35088" style="fill: #ffffff; stroke: #ffffff; stroke-width: 0.8"/>
      </g>
     </g>
     <g id="text_16">
      <!-- 2020-03-19 -->
      <g style="fill: #ffffff" transform="translate(262.654712 563.051169) rotate(-45) scale(0.15 -0.15)">
       <defs>
        <path id="DejaVuSans-39" d="M 703 97 
L 703 672 
Q 941 559 1184 500 
Q 1428 441 1663 441 
Q 2288 441 2617 861 
Q 2947 1281 2994 2138 
Q 2813 1869 2534 1725 
Q 2256 1581 1919 1581 
Q 1219 1581 811 2004 
Q 403 2428 403 3163 
Q 403 3881 828 4315 
Q 1253 4750 1959 4750 
Q 2769 4750 3195 4129 
Q 3622 3509 3622 2328 
Q 3622 1225 3098 567 
Q 2575 -91 1691 -91 
Q 1453 -91 1209 -44 
Q 966 3 703 97 
z
M 1959 2075 
Q 2384 2075 2632 2365 
Q 2881 2656 2881 3163 
Q 2881 3666 2632 3958 
Q 2384 4250 1959 4250 
Q 1534 4250 1286 3958 
Q 1038 3666 1038 3163 
Q 1038 2656 1286 2365 
Q 1534 2075 1959 2075 
z
" transform="scale(0.015625)"/>
       </defs>
       <use xlink:href="#DejaVuSans-32"/>
       <use xlink:href="#DejaVuSans-30" transform="translate(63.623047 0)"/>
       <use xlink:href="#DejaVuSans-32" transform="translate(127.246094 0)"/>
       <use xlink:href="#DejaVuSans-30" transform="translate(190.869141 0)"/>
       <use xlink:href="#DejaVuSans-2d" transform="translate(254.492188 0)"/>
       <use xlink:href="#DejaVuSans-30" transform="translate(290.576172 0)"/>
       <use xlink:href="#DejaVuSans-33" transform="translate(354.199219 0)"/>
       <use xlink:href="#DejaVuSans-2d" transform="translate(417.822266 0)"/>
       <use xlink:href="#DejaVuSans-31" transform="translate(453.90625 0)"/>
       <use xlink:href="#DejaVuSans-39" transform="translate(517.529297 0)"/>
      </g>
     </g>
    </g>
    <g id="xtick_10">
     <g id="line2d_20">
      <g>
       <use xlink:href="#m7f3e502b78" x="363.915617" y="486.35088" style="fill: #ffffff; stroke: #ffffff; stroke-width: 0.8"/>
      </g>
     </g>
     <g id="text_17">
      <!-- 2020-03-20 -->
      <g style="fill: #ffffff" transform="translate(336.021911 563.051169) rotate(-45) scale(0.15 -0.15)">
       <use xlink:href="#DejaVuSans-32"/>
       <use xlink:href="#DejaVuSans-30" transform="translate(63.623047 0)"/>
       <use xlink:href="#DejaVuSans-32" transform="translate(127.246094 0)"/>
       <use xlink:href="#DejaVuSans-30" transform="translate(190.869141 0)"/>
       <use xlink:href="#DejaVuSans-2d" transform="translate(254.492188 0)"/>
       <use xlink:href="#DejaVuSans-30" transform="translate(290.576172 0)"/>
       <use xlink:href="#DejaVuSans-33" transform="translate(354.199219 0)"/>
       <use xlink:href="#DejaVuSans-2d" transform="translate(417.822266 0)"/>
       <use xlink:href="#DejaVuSans-32" transform="translate(453.90625 0)"/>
       <use xlink:href="#DejaVuSans-30" transform="translate(517.529297 0)"/>
      </g>
     </g>
    </g>
    <g id="xtick_11">
     <g id="line2d_21">
      <g>
       <use xlink:href="#m7f3e502b78" x="437.282816" y="486.35088" style="fill: #ffffff; stroke: #ffffff; stroke-width: 0.8"/>
      </g>
     </g>
     <g id="text_18">
      <!-- 2020-03-21 -->
      <g style="fill: #ffffff" transform="translate(409.389111 563.051169) rotate(-45) scale(0.15 -0.15)">
       <use xlink:href="#DejaVuSans-32"/>
       <use xlink:href="#DejaVuSans-30" transform="translate(63.623047 0)"/>
       <use xlink:href="#DejaVuSans-32" transform="translate(127.246094 0)"/>
       <use xlink:href="#DejaVuSans-30" transform="translate(190.869141 0)"/>
       <use xlink:href="#DejaVuSans-2d" transform="translate(254.492188 0)"/>
       <use xlink:href="#DejaVuSans-30" transform="translate(290.576172 0)"/>
       <use xlink:href="#DejaVuSans-33" transform="translate(354.199219 0)"/>
       <use xlink:href="#DejaVuSans-2d" transform="translate(417.822266 0)"/>
       <use xlink:href="#DejaVuSans-32" transform="translate(453.90625 0)"/>
       <use xlink:href="#DejaVuSans-31" transform="translate(517.529297 0)"/>
      </g>
     </g>
    </g>
    <g id="xtick_12">
     <g id="line2d_22">
      <g>
       <use xlink:href="#m7f3e502b78" x="510.650016" y="486.35088" style="fill: #ffffff; stroke: #ffffff; stroke-width: 0.8"/>
      </g>
     </g>
     <g id="text_19">
      <!-- 2020-03-22 -->
      <g style="fill: #ffffff" transform="translate(482.756311 563.051169) rotate(-45) scale(0.15 -0.15)">
       <use xlink:href="#DejaVuSans-32"/>
       <use xlink:href="#DejaVuSans-30" transform="translate(63.623047 0)"/>
       <use xlink:href="#DejaVuSans-32" transform="translate(127.246094 0)"/>
       <use xlink:href="#DejaVuSans-30" transform="translate(190.869141 0)"/>
       <use xlink:href="#DejaVuSans-2d" transform="translate(254.492188 0)"/>
       <use xlink:href="#DejaVuSans-30" transform="translate(290.576172 0)"/>
       <use xlink:href="#DejaVuSans-33" transform="translate(354.199219 0)"/>
       <use xlink:href="#DejaVuSans-2d" transform="translate(417.822266 0)"/>
       <use xlink:href="#DejaVuSans-32" transform="translate(453.90625 0)"/>
       <use xlink:href="#DejaVuSans-32" transform="translate(517.529297 0)"/>
      </g>
     </g>
    </g>
    <g id="xtick_13">
     <g id="line2d_23">
      <g>
       <use xlink:href="#m7f3e502b78" x="584.017216" y="486.35088" style="fill: #ffffff; stroke: #ffffff; stroke-width: 0.8"/>
      </g>
     </g>
     <g id="text_20">
      <!-- 2020-03-23 -->
      <g style="fill: #ffffff" transform="translate(556.12351 563.051169) rotate(-45) scale(0.15 -0.15)">
       <use xlink:href="#DejaVuSans-32"/>
       <use xlink:href="#DejaVuSans-30" transform="translate(63.623047 0)"/>
       <use xlink:href="#DejaVuSans-32" transform="translate(127.246094 0)"/>
       <use xlink:href="#DejaVuSans-30" transform="translate(190.869141 0)"/>
       <use xlink:href="#DejaVuSans-2d" transform="translate(254.492188 0)"/>
       <use xlink:href="#DejaVuSans-30" transform="translate(290.576172 0)"/>
       <use xlink:href="#DejaVuSans-33" transform="translate(354.199219 0)"/>
       <use xlink:href="#DejaVuSans-2d" transform="translate(417.822266 0)"/>
       <use xlink:href="#DejaVuSans-32" transform="translate(453.90625 0)"/>
       <use xlink:href="#DejaVuSans-33" transform="translate(517.529297 0)"/>
      </g>
     </g>
    </g>
    <g id="xtick_14">
     <g id="line2d_24">
      <g>
       <use xlink:href="#m7f3e502b78" x="657.384415" y="486.35088" style="fill: #ffffff; stroke: #ffffff; stroke-width: 0.8"/>
      </g>
     </g>
     <g id="text_21">
      <!-- 2020-03-24 -->
      <g style="fill: #ffffff" transform="translate(629.49071 563.051169) rotate(-45) scale(0.15 -0.15)">
       <use xlink:href="#DejaVuSans-32"/>
       <use xlink:href="#DejaVuSans-30" transform="translate(63.623047 0)"/>
       <use xlink:href="#DejaVuSans-32" transform="translate(127.246094 0)"/>
       <use xlink:href="#DejaVuSans-30" transform="translate(190.869141 0)"/>
       <use xlink:href="#DejaVuSans-2d" transform="translate(254.492188 0)"/>
       <use xlink:href="#DejaVuSans-30" transform="translate(290.576172 0)"/>
       <use xlink:href="#DejaVuSans-33" transform="translate(354.199219 0)"/>
       <use xlink:href="#DejaVuSans-2d" transform="translate(417.822266 0)"/>
       <use xlink:href="#DejaVuSans-32" transform="translate(453.90625 0)"/>
       <use xlink:href="#DejaVuSans-34" transform="translate(517.529297 0)"/>
      </g>
     </g>
    </g>
   </g>
   <g id="matplotlib.axis_4">
    <g id="ytick_8">
     <g id="line2d_25">
      <g>
       <use xlink:href="#mc3640bd064" x="40.03" y="485.066673" style="fill: #ffffff; stroke: #ffffff; stroke-width: 0.8"/>
      </g>
     </g>
     <g id="text_22">
      <!-- −6 -->
      <g style="fill: #ffffff" transform="translate(10.916719 490.765501) scale(0.15 -0.15)">
       <use xlink:href="#DejaVuSans-2212"/>
       <use xlink:href="#DejaVuSans-36" transform="translate(83.789062 0)"/>
      </g>
     </g>
    </g>
    <g id="ytick_9">
     <g id="line2d_26">
      <g>
       <use xlink:href="#mc3640bd064" x="40.03" y="456.408903" style="fill: #ffffff; stroke: #ffffff; stroke-width: 0.8"/>
      </g>
     </g>
     <g id="text_23">
      <!-- −4 -->
      <g style="fill: #ffffff" transform="translate(10.916719 462.107731) scale(0.15 -0.15)">
       <use xlink:href="#DejaVuSans-2212"/>
       <use xlink:href="#DejaVuSans-34" transform="translate(83.789062 0)"/>
      </g>
     </g>
    </g>
    <g id="ytick_10">
     <g id="line2d_27">
      <g>
       <use xlink:href="#mc3640bd064" x="40.03" y="427.751133" style="fill: #ffffff; stroke: #ffffff; stroke-width: 0.8"/>
      </g>
     </g>
     <g id="text_24">
      <!-- −2 -->
      <g style="fill: #ffffff" transform="translate(10.916719 433.449961) scale(0.15 -0.15)">
       <use xlink:href="#DejaVuSans-2212"/>
       <use xlink:href="#DejaVuSans-32" transform="translate(83.789062 0)"/>
      </g>
     </g>
    </g>
    <g id="ytick_11">
     <g id="line2d_28">
      <g>
       <use xlink:href="#mc3640bd064" x="40.03" y="399.093363" style="fill: #ffffff; stroke: #ffffff; stroke-width: 0.8"/>
      </g>
     </g>
     <g id="text_25">
      <!-- 0 -->
      <g style="fill: #ffffff" transform="translate(23.48625 404.792192) scale(0.15 -0.15)">
       <use xlink:href="#DejaVuSans-30"/>
      </g>
     </g>
    </g>
    <g id="ytick_12">
     <g id="line2d_29">
      <g>
       <use xlink:href="#mc3640bd064" x="40.03" y="370.435594" style="fill: #ffffff; stroke: #ffffff; stroke-width: 0.8"/>
      </g>
     </g>
     <g id="text_26">
      <!-- 2 -->
      <g style="fill: #ffffff" transform="translate(23.48625 376.134422) scale(0.15 -0.15)">
       <use xlink:href="#DejaVuSans-32"/>
      </g>
     </g>
    </g>
    <g id="ytick_13">
     <g id="line2d_30">
      <g>
       <use xlink:href="#mc3640bd064" x="40.03" y="341.777824" style="fill: #ffffff; stroke: #ffffff; stroke-width: 0.8"/>
      </g>
     </g>
     <g id="text_27">
      <!-- 4 -->
      <g style="fill: #ffffff" transform="translate(23.48625 347.476652) scale(0.15 -0.15)">
       <use xlink:href="#DejaVuSans-34"/>
      </g>
     </g>
    </g>
   </g>
   <g id="line2d_31">
    <path d="M 666.555315 427.908449 
L 669.612282 418.712486 
L 672.669249 405.290585 
L 675.726215 395.140879 
L 678.783182 395.907764 
" clip-path="url(#p33af952010)" style="fill: none; stroke: #0000ff; stroke-width: 1.5; stroke-linecap: square"/>
   </g>
   <g id="line2d_32">
    <path d="M 70.446818 450.075482 
L 73.503785 444.566417 
L 79.617718 432.559071 
L 91.845585 408.03364 
L 94.902551 402.376509 
L 97.959518 396.959719 
L 101.016485 391.833226 
L 104.073451 387.142124 
L 107.130418 382.88862 
L 110.187385 378.951813 
L 113.244351 375.330153 
L 116.301318 372.120894 
L 119.358285 369.279478 
L 122.415251 366.64876 
L 125.472218 364.206828 
L 128.529185 362.038942 
L 134.643118 358.216168 
L 137.700085 356.407768 
L 140.757051 354.780266 
L 146.870984 351.879861 
L 149.927951 350.536048 
L 152.984918 349.436583 
L 156.041884 348.596171 
L 159.098851 347.937077 
L 162.155818 347.544959 
L 165.212784 347.609291 
L 168.269751 348.160911 
L 171.326718 349.131184 
L 174.383684 350.610945 
L 177.440651 352.780741 
L 180.497618 355.64412 
L 183.554584 359.096795 
L 186.611551 363.190336 
L 189.668518 368.053588 
L 192.725484 373.623415 
L 195.782451 379.725851 
L 198.839418 386.345896 
L 201.896384 393.540881 
L 208.010317 408.986839 
L 220.238184 440.563371 
L 223.295151 447.737083 
L 226.352117 454.463554 
L 229.409084 460.552164 
L 232.466051 465.742143 
L 235.523017 469.987534 
L 238.579984 473.339243 
L 241.636951 475.664004 
L 244.693917 476.773301 
L 247.750884 476.710085 
L 250.807851 475.616245 
L 253.864817 473.445289 
L 256.921784 470.10117 
L 259.978751 465.726056 
L 263.035717 460.552325 
L 266.092684 454.60906 
L 269.149651 447.871727 
L 272.206617 440.551631 
L 278.32055 425.073928 
L 287.49145 400.984233 
L 293.605384 386.084064 
L 296.66235 379.194189 
L 299.719317 372.964955 
L 302.776284 367.355971 
L 305.83325 362.257282 
L 308.890217 357.793112 
L 311.947184 354.1188 
L 315.00415 351.116924 
L 318.061117 348.611101 
L 321.118084 346.67522 
L 324.17505 345.415763 
L 327.232017 344.665878 
L 330.288984 344.217017 
L 333.34595 344.132187 
L 336.402917 344.511148 
L 342.51685 345.943933 
L 345.573817 346.894683 
L 348.630783 348.164104 
L 354.744717 351.059719 
L 357.801683 352.672519 
L 360.85865 354.617971 
L 366.972583 359.028811 
L 370.02955 361.553194 
L 373.086517 364.548271 
L 376.143483 367.897785 
L 379.20045 371.476516 
L 382.257417 375.471333 
L 385.314383 380.060951 
L 388.37135 385.088254 
L 391.428317 390.38756 
L 394.485283 396.110119 
L 397.54225 402.381956 
L 403.656183 415.659418 
L 409.770116 429.674768 
L 412.827083 436.773878 
L 418.941016 450.086865 
L 421.997983 456.409815 
L 425.05495 462.190458 
L 428.111916 467.139719 
L 431.168883 471.352071 
L 434.22585 474.886395 
L 437.282816 477.430614 
L 440.339783 478.74287 
L 443.39675 478.994464 
L 446.453716 478.317442 
L 449.510683 476.4639 
L 452.56765 473.278185 
L 455.624616 469.040934 
L 458.681583 463.979381 
L 461.73855 457.92039 
L 464.795516 450.796329 
L 467.852483 442.990222 
L 470.90945 434.805563 
L 473.966416 426.113451 
L 486.194283 389.591978 
L 489.251249 380.716638 
L 492.308216 372.360541 
L 495.365183 364.816881 
L 498.422149 357.868524 
L 501.479116 351.427626 
L 504.536083 345.894475 
L 507.593049 341.488099 
L 510.650016 337.883449 
L 513.706983 334.90935 
L 516.763949 332.914986 
L 519.820916 332.043531 
L 522.877883 331.866148 
L 525.934849 332.145414 
L 528.991816 333.20939 
L 532.048783 335.158656 
L 538.162716 339.957798 
L 541.219683 342.906088 
L 553.447549 357.169065 
L 559.561482 365.242329 
L 562.618449 368.892871 
L 565.675416 372.757329 
L 571.789349 381.14937 
L 574.846316 384.952217 
L 577.903282 389.06647 
L 584.017216 398.24485 
L 587.074182 402.50835 
L 590.131149 407.196348 
L 596.245082 417.683734 
L 599.302049 422.509812 
L 602.359016 427.746263 
L 605.415982 433.548066 
L 608.472949 438.987747 
L 611.529915 443.780841 
L 614.586882 448.785002 
L 617.643849 454.122885 
L 620.700815 458.657551 
L 629.871715 468.714298 
L 632.928682 470.72542 
L 635.985649 471.051597 
L 642.099582 471.025448 
L 645.156549 469.167597 
L 654.327449 457.076036 
L 657.384415 451.022999 
L 660.441382 442.376539 
L 663.498349 434.36989 
L 663.498349 434.36989 
" clip-path="url(#p33af952010)" style="fill: none; stroke: #00ff00; stroke-width: 1.5; stroke-linecap: square"/>
   </g>
   <g id="line2d_33">
    <path d="M 666.555315 423.760312 
L 669.612282 415.352141 
L 672.669249 407.261685 
L 675.726215 399.360366 
L 678.783182 393.289581 
" clip-path="url(#p33af952010)" style="fill: none; stroke: #00ffff; stroke-width: 1.5; stroke-linecap: square"/>
   </g>
   <g id="patch_8">
    <path d="M 40.03 486.35088 
L 40.03 324.509733 
" style="fill: none; stroke: #ffffff; stroke-width: 0.8; stroke-linejoin: miter; stroke-linecap: square"/>
   </g>
   <g id="patch_9">
    <path d="M 709.2 486.35088 
L 709.2 324.509733 
" style="fill: none; stroke: #ffffff; stroke-width: 0.8; stroke-linejoin: miter; stroke-linecap: square"/>
   </g>
   <g id="patch_10">
    <path d="M 40.03 486.35088 
L 709.2 486.35088 
" style="fill: none; stroke: #ffffff; stroke-width: 0.8; stroke-linejoin: miter; stroke-linecap: square"/>
   </g>
   <g id="patch_11">
    <path d="M 40.03 324.509733 
L 709.2 324.509733 
" style="fill: none; stroke: #ffffff; stroke-width: 0.8; stroke-linejoin: miter; stroke-linecap: square"/>
   </g>
  </g>
  <g id="text_28">
   <!-- High Frequency Time Series Forecasting -->
   <g style="fill: #ffffff" transform="translate(159.65625 26.716875) scale(0.2 -0.2)">
    <defs>
     <path id="DejaVuSans-48" d="M 628 4666 
L 1259 4666 
L 1259 2753 
L 3553 2753 
L 3553 4666 
L 4184 4666 
L 4184 0 
L 3553 0 
L 3553 2222 
L 1259 2222 
L 1259 0 
L 628 0 
L 628 4666 
z
" transform="scale(0.015625)"/>
     <path id="DejaVuSans-69" d="M 603 3500 
L 1178 3500 
L 1178 0 
L 603 0 
L 603 3500 
z
M 603 4863 
L 1178 4863 
L 1178 4134 
L 603 4134 
L 603 4863 
z
" transform="scale(0.015625)"/>
     <path id="DejaVuSans-67" d="M 2906 1791 
Q 2906 2416 2648 2759 
Q 2391 3103 1925 3103 
Q 1463 3103 1205 2759 
Q 947 2416 947 1791 
Q 947 1169 1205 825 
Q 1463 481 1925 481 
Q 2391 481 2648 825 
Q 2906 1169 2906 1791 
z
M 3481 434 
Q 3481 -459 3084 -895 
Q 2688 -1331 1869 -1331 
Q 1566 -1331 1297 -1286 
Q 1028 -1241 775 -1147 
L 775 -588 
Q 1028 -725 1275 -790 
Q 1522 -856 1778 -856 
Q 2344 -856 2625 -561 
Q 2906 -266 2906 331 
L 2906 616 
Q 2728 306 2450 153 
Q 2172 0 1784 0 
Q 1141 0 747 490 
Q 353 981 353 1791 
Q 353 2603 747 3093 
Q 1141 3584 1784 3584 
Q 2172 3584 2450 3431 
Q 2728 3278 2906 2969 
L 2906 3500 
L 3481 3500 
L 3481 434 
z
" transform="scale(0.015625)"/>
     <path id="DejaVuSans-68" d="M 3513 2113 
L 3513 0 
L 2938 0 
L 2938 2094 
Q 2938 2591 2744 2837 
Q 2550 3084 2163 3084 
Q 1697 3084 1428 2787 
Q 1159 2491 1159 1978 
L 1159 0 
L 581 0 
L 581 4863 
L 1159 4863 
L 1159 2956 
Q 1366 3272 1645 3428 
Q 1925 3584 2291 3584 
Q 2894 3584 3203 3211 
Q 3513 2838 3513 2113 
z
" transform="scale(0.015625)"/>
     <path id="DejaVuSans-20" transform="scale(0.015625)"/>
     <path id="DejaVuSans-46" d="M 628 4666 
L 3309 4666 
L 3309 4134 
L 1259 4134 
L 1259 2759 
L 3109 2759 
L 3109 2228 
L 1259 2228 
L 1259 0 
L 628 0 
L 628 4666 
z
" transform="scale(0.015625)"/>
     <path id="DejaVuSans-72" d="M 2631 2963 
Q 2534 3019 2420 3045 
Q 2306 3072 2169 3072 
Q 1681 3072 1420 2755 
Q 1159 2438 1159 1844 
L 1159 0 
L 581 0 
L 581 3500 
L 1159 3500 
L 1159 2956 
Q 1341 3275 1631 3429 
Q 1922 3584 2338 3584 
Q 2397 3584 2469 3576 
Q 2541 3569 2628 3553 
L 2631 2963 
z
" transform="scale(0.015625)"/>
     <path id="DejaVuSans-65" d="M 3597 1894 
L 3597 1613 
L 953 1613 
Q 991 1019 1311 708 
Q 1631 397 2203 397 
Q 2534 397 2845 478 
Q 3156 559 3463 722 
L 3463 178 
Q 3153 47 2828 -22 
Q 2503 -91 2169 -91 
Q 1331 -91 842 396 
Q 353 884 353 1716 
Q 353 2575 817 3079 
Q 1281 3584 2069 3584 
Q 2775 3584 3186 3129 
Q 3597 2675 3597 1894 
z
M 3022 2063 
Q 3016 2534 2758 2815 
Q 2500 3097 2075 3097 
Q 1594 3097 1305 2825 
Q 1016 2553 972 2059 
L 3022 2063 
z
" transform="scale(0.015625)"/>
     <path id="DejaVuSans-71" d="M 947 1747 
Q 947 1113 1208 752 
Q 1469 391 1925 391 
Q 2381 391 2643 752 
Q 2906 1113 2906 1747 
Q 2906 2381 2643 2742 
Q 2381 3103 1925 3103 
Q 1469 3103 1208 2742 
Q 947 2381 947 1747 
z
M 2906 525 
Q 2725 213 2448 61 
Q 2172 -91 1784 -91 
Q 1150 -91 751 415 
Q 353 922 353 1747 
Q 353 2572 751 3078 
Q 1150 3584 1784 3584 
Q 2172 3584 2448 3432 
Q 2725 3281 2906 2969 
L 2906 3500 
L 3481 3500 
L 3481 -1331 
L 2906 -1331 
L 2906 525 
z
" transform="scale(0.015625)"/>
     <path id="DejaVuSans-75" d="M 544 1381 
L 544 3500 
L 1119 3500 
L 1119 1403 
Q 1119 906 1312 657 
Q 1506 409 1894 409 
Q 2359 409 2629 706 
Q 2900 1003 2900 1516 
L 2900 3500 
L 3475 3500 
L 3475 0 
L 2900 0 
L 2900 538 
Q 2691 219 2414 64 
Q 2138 -91 1772 -91 
Q 1169 -91 856 284 
Q 544 659 544 1381 
z
M 1991 3584 
L 1991 3584 
z
" transform="scale(0.015625)"/>
     <path id="DejaVuSans-6e" d="M 3513 2113 
L 3513 0 
L 2938 0 
L 2938 2094 
Q 2938 2591 2744 2837 
Q 2550 3084 2163 3084 
Q 1697 3084 1428 2787 
Q 1159 2491 1159 1978 
L 1159 0 
L 581 0 
L 581 3500 
L 1159 3500 
L 1159 2956 
Q 1366 3272 1645 3428 
Q 1925 3584 2291 3584 
Q 2894 3584 3203 3211 
Q 3513 2838 3513 2113 
z
" transform="scale(0.015625)"/>
     <path id="DejaVuSans-63" d="M 3122 3366 
L 3122 2828 
Q 2878 2963 2633 3030 
Q 2388 3097 2138 3097 
Q 1578 3097 1268 2742 
Q 959 2388 959 1747 
Q 959 1106 1268 751 
Q 1578 397 2138 397 
Q 2388 397 2633 464 
Q 2878 531 3122 666 
L 3122 134 
Q 2881 22 2623 -34 
Q 2366 -91 2075 -91 
Q 1284 -91 818 406 
Q 353 903 353 1747 
Q 353 2603 823 3093 
Q 1294 3584 2113 3584 
Q 2378 3584 2631 3529 
Q 2884 3475 3122 3366 
z
" transform="scale(0.015625)"/>
     <path id="DejaVuSans-79" d="M 2059 -325 
Q 1816 -950 1584 -1140 
Q 1353 -1331 966 -1331 
L 506 -1331 
L 506 -850 
L 844 -850 
Q 1081 -850 1212 -737 
Q 1344 -625 1503 -206 
L 1606 56 
L 191 3500 
L 800 3500 
L 1894 763 
L 2988 3500 
L 3597 3500 
L 2059 -325 
z
" transform="scale(0.015625)"/>
     <path id="DejaVuSans-54" d="M -19 4666 
L 3928 4666 
L 3928 4134 
L 2272 4134 
L 2272 0 
L 1638 0 
L 1638 4134 
L -19 4134 
L -19 4666 
z
" transform="scale(0.015625)"/>
     <path id="DejaVuSans-6d" d="M 3328 2828 
Q 3544 3216 3844 3400 
Q 4144 3584 4550 3584 
Q 5097 3584 5394 3201 
Q 5691 2819 5691 2113 
L 5691 0 
L 5113 0 
L 5113 2094 
Q 5113 2597 4934 2840 
Q 4756 3084 4391 3084 
Q 3944 3084 3684 2787 
Q 3425 2491 3425 1978 
L 3425 0 
L 2847 0 
L 2847 2094 
Q 2847 2600 2669 2842 
Q 2491 3084 2119 3084 
Q 1678 3084 1418 2786 
Q 1159 2488 1159 1978 
L 1159 0 
L 581 0 
L 581 3500 
L 1159 3500 
L 1159 2956 
Q 1356 3278 1631 3431 
Q 1906 3584 2284 3584 
Q 2666 3584 2933 3390 
Q 3200 3197 3328 2828 
z
" transform="scale(0.015625)"/>
     <path id="DejaVuSans-53" d="M 3425 4513 
L 3425 3897 
Q 3066 4069 2747 4153 
Q 2428 4238 2131 4238 
Q 1616 4238 1336 4038 
Q 1056 3838 1056 3469 
Q 1056 3159 1242 3001 
Q 1428 2844 1947 2747 
L 2328 2669 
Q 3034 2534 3370 2195 
Q 3706 1856 3706 1288 
Q 3706 609 3251 259 
Q 2797 -91 1919 -91 
Q 1588 -91 1214 -16 
Q 841 59 441 206 
L 441 856 
Q 825 641 1194 531 
Q 1563 422 1919 422 
Q 2459 422 2753 634 
Q 3047 847 3047 1241 
Q 3047 1584 2836 1778 
Q 2625 1972 2144 2069 
L 1759 2144 
Q 1053 2284 737 2584 
Q 422 2884 422 3419 
Q 422 4038 858 4394 
Q 1294 4750 2059 4750 
Q 2388 4750 2728 4690 
Q 3069 4631 3425 4513 
z
" transform="scale(0.015625)"/>
     <path id="DejaVuSans-73" d="M 2834 3397 
L 2834 2853 
Q 2591 2978 2328 3040 
Q 2066 3103 1784 3103 
Q 1356 3103 1142 2972 
Q 928 2841 928 2578 
Q 928 2378 1081 2264 
Q 1234 2150 1697 2047 
L 1894 2003 
Q 2506 1872 2764 1633 
Q 3022 1394 3022 966 
Q 3022 478 2636 193 
Q 2250 -91 1575 -91 
Q 1294 -91 989 -36 
Q 684 19 347 128 
L 347 722 
Q 666 556 975 473 
Q 1284 391 1588 391 
Q 1994 391 2212 530 
Q 2431 669 2431 922 
Q 2431 1156 2273 1281 
Q 2116 1406 1581 1522 
L 1381 1569 
Q 847 1681 609 1914 
Q 372 2147 372 2553 
Q 372 3047 722 3315 
Q 1072 3584 1716 3584 
Q 2034 3584 2315 3537 
Q 2597 3491 2834 3397 
z
" transform="scale(0.015625)"/>
     <path id="DejaVuSans-6f" d="M 1959 3097 
Q 1497 3097 1228 2736 
Q 959 2375 959 1747 
Q 959 1119 1226 758 
Q 1494 397 1959 397 
Q 2419 397 2687 759 
Q 2956 1122 2956 1747 
Q 2956 2369 2687 2733 
Q 2419 3097 1959 3097 
z
M 1959 3584 
Q 2709 3584 3137 3096 
Q 3566 2609 3566 1747 
Q 3566 888 3137 398 
Q 2709 -91 1959 -91 
Q 1206 -91 779 398 
Q 353 888 353 1747 
Q 353 2609 779 3096 
Q 1206 3584 1959 3584 
z
" transform="scale(0.015625)"/>
     <path id="DejaVuSans-61" d="M 2194 1759 
Q 1497 1759 1228 1600 
Q 959 1441 959 1056 
Q 959 750 1161 570 
Q 1363 391 1709 391 
Q 2188 391 2477 730 
Q 2766 1069 2766 1631 
L 2766 1759 
L 2194 1759 
z
M 3341 1997 
L 3341 0 
L 2766 0 
L 2766 531 
Q 2569 213 2275 61 
Q 1981 -91 1556 -91 
Q 1019 -91 701 211 
Q 384 513 384 1019 
Q 384 1609 779 1909 
Q 1175 2209 1959 2209 
L 2766 2209 
L 2766 2266 
Q 2766 2663 2505 2880 
Q 2244 3097 1772 3097 
Q 1472 3097 1187 3025 
Q 903 2953 641 2809 
L 641 3341 
Q 956 3463 1253 3523 
Q 1550 3584 1831 3584 
Q 2591 3584 2966 3190 
Q 3341 2797 3341 1997 
z
" transform="scale(0.015625)"/>
     <path id="DejaVuSans-74" d="M 1172 4494 
L 1172 3500 
L 2356 3500 
L 2356 3053 
L 1172 3053 
L 1172 1153 
Q 1172 725 1289 603 
Q 1406 481 1766 481 
L 2356 481 
L 2356 0 
L 1766 0 
Q 1100 0 847 248 
Q 594 497 594 1153 
L 594 3053 
L 172 3053 
L 172 3500 
L 594 3500 
L 594 4494 
L 1172 4494 
z
" transform="scale(0.015625)"/>
    </defs>
    <use xlink:href="#DejaVuSans-48"/>
    <use xlink:href="#DejaVuSans-69" transform="translate(75.195312 0)"/>
    <use xlink:href="#DejaVuSans-67" transform="translate(102.978516 0)"/>
    <use xlink:href="#DejaVuSans-68" transform="translate(166.455078 0)"/>
    <use xlink:href="#DejaVuSans-20" transform="translate(229.833984 0)"/>
    <use xlink:href="#DejaVuSans-46" transform="translate(261.621094 0)"/>
    <use xlink:href="#DejaVuSans-72" transform="translate(311.890625 0)"/>
    <use xlink:href="#DejaVuSans-65" transform="translate(350.753906 0)"/>
    <use xlink:href="#DejaVuSans-71" transform="translate(412.277344 0)"/>
    <use xlink:href="#DejaVuSans-75" transform="translate(475.753906 0)"/>
    <use xlink:href="#DejaVuSans-65" transform="translate(539.132812 0)"/>
    <use xlink:href="#DejaVuSans-6e" transform="translate(600.65625 0)"/>
    <use xlink:href="#DejaVuSans-63" transform="translate(664.035156 0)"/>
    <use xlink:href="#DejaVuSans-79" transform="translate(719.015625 0)"/>
    <use xlink:href="#DejaVuSans-20" transform="translate(778.195312 0)"/>
    <use xlink:href="#DejaVuSans-54" transform="translate(809.982422 0)"/>
    <use xlink:href="#DejaVuSans-69" transform="translate(867.941406 0)"/>
    <use xlink:href="#DejaVuSans-6d" transform="translate(895.724609 0)"/>
    <use xlink:href="#DejaVuSans-65" transform="translate(993.136719 0)"/>
    <use xlink:href="#DejaVuSans-20" transform="translate(1054.660156 0)"/>
    <use xlink:href="#DejaVuSans-53" transform="translate(1086.447266 0)"/>
    <use xlink:href="#DejaVuSans-65" transform="translate(1149.923828 0)"/>
    <use xlink:href="#DejaVuSans-72" transform="translate(1211.447266 0)"/>
    <use xlink:href="#DejaVuSans-69" transform="translate(1252.560547 0)"/>
    <use xlink:href="#DejaVuSans-65" transform="translate(1280.34375 0)"/>
    <use xlink:href="#DejaVuSans-73" transform="translate(1341.867188 0)"/>
    <use xlink:href="#DejaVuSans-20" transform="translate(1393.966797 0)"/>
    <use xlink:href="#DejaVuSans-46" transform="translate(1425.753906 0)"/>
    <use xlink:href="#DejaVuSans-6f" transform="translate(1479.648438 0)"/>
    <use xlink:href="#DejaVuSans-72" transform="translate(1540.830078 0)"/>
    <use xlink:href="#DejaVuSans-65" transform="translate(1579.693359 0)"/>
    <use xlink:href="#DejaVuSans-63" transform="translate(1641.216797 0)"/>
    <use xlink:href="#DejaVuSans-61" transform="translate(1696.197266 0)"/>
    <use xlink:href="#DejaVuSans-73" transform="translate(1757.476562 0)"/>
    <use xlink:href="#DejaVuSans-74" transform="translate(1809.576172 0)"/>
    <use xlink:href="#DejaVuSans-69" transform="translate(1848.785156 0)"/>
    <use xlink:href="#DejaVuSans-6e" transform="translate(1876.568359 0)"/>
    <use xlink:href="#DejaVuSans-67" transform="translate(1939.947266 0)"/>
   </g>
  </g>
 </g>
 <defs>
  <clipPath id="p864445fd28">
   <rect x="40.03" y="73.083105" width="669.17" height="161.841147"/>
  </clipPath>
  <clipPath id="p33af952010">
   <rect x="40.03" y="324.509733" width="669.17" height="161.841147"/>
  </clipPath>
 </defs>
</svg>
