<?xml version="1.0" encoding="utf-8" standalone="no"?>
<!DOCTYPE svg PUBLIC "-//W3C//DTD SVG 1.1//EN"
  "http://www.w3.org/Graphics/SVG/1.1/DTD/svg11.dtd">
<svg xmlns:xlink="http://www.w3.org/1999/xlink" width="936pt" height="360pt" viewBox="0 0 936 360" xmlns="http://www.w3.org/2000/svg" version="1.1">
 <metadata>
  <rdf:RDF xmlns:dc="http://purl.org/dc/elements/1.1/" xmlns:cc="http://creativecommons.org/ns#" xmlns:rdf="http://www.w3.org/1999/02/22-rdf-syntax-ns#">
   <cc:Work>
    <dc:type rdf:resource="http://purl.org/dc/dcmitype/StillImage"/>
    <dc:date>2025-11-13T15:49:36.009043</dc:date>
    <dc:format>image/svg+xml</dc:format>
    <dc:creator>
     <cc:Agent>
      <dc:title>Matplotlib v3.10.3, https://matplotlib.org/</dc:title>
     </cc:Agent>
    </dc:creator>
   </cc:Work>
  </rdf:RDF>
 </metadata>
 <defs>
  <style type="text/css">*{stroke-linejoin: round; stroke-linecap: butt}</style>
 </defs>
 <g id="figure_1">
  <g id="patch_1">
   <path d="M 0 360 
L 936 360 
L 936 0 
L 0 0 
z
" style="fill: #121212"/>
  </g>
  <g id="axes_1">
   <g id="patch_2">
    <path d="M 117 169.2 
L 842.4 169.2 
L 842.4 43.2 
L 117 43.2 
z
" style="fill: #121212"/>
   </g>
   <g id="matplotlib.axis_1">
    <g id="xtick_1">
     <g id="line2d_1">
      <path d="M 149.972727 169.2 
L 149.972727 43.2 
" clip-path="url(#p58aae9f80c)" style="fill: none; stroke: #ffffff; stroke-opacity: 0.2; stroke-width: 0.8; stroke-linecap: square"/>
     </g>
     <g id="line2d_2">
      <defs>
       <path id="mb9aa377286" d="M 0 0 
L 0 3.5 
" style="stroke: #ffffff; stroke-width: 0.8"/>
      </defs>
      <g>
       <use xlink:href="#mb9aa377286" x="149.972727" y="169.2" style="fill: #ffffff; stroke: #ffffff; stroke-width: 0.8"/>
      </g>
     </g>
     <g id="text_1">
      <!-- 0 -->
      <g style="fill: #ffffff" transform="translate(146.791477 183.798437) scale(0.1 -0.1)">
       <defs>
        <path id="DejaVuSans-30" d="M 2034 4250 
Q 1547 4250 1301 3770 
Q 1056 3291 1056 2328 
Q 1056 1369 1301 889 
Q 1547 409 2034 409 
Q 2525 409 2770 889 
Q 3016 1369 3016 2328 
Q 3016 3291 2770 3770 
Q 2525 4250 2034 4250 
z
M 2034 4750 
Q 2819 4750 3233 4129 
Q 3647 3509 3647 2328 
Q 3647 1150 3233 529 
Q 2819 -91 2034 -91 
Q 1250 -91 836 529 
Q 422 1150 422 2328 
Q 422 3509 836 4129 
Q 1250 4750 2034 4750 
z
" transform="scale(0.015625)"/>
       </defs>
       <use xlink:href="#DejaVuSans-30"/>
      </g>
     </g>
    </g>
    <g id="xtick_2">
     <g id="line2d_3">
      <path d="M 281.167041 169.2 
L 281.167041 43.2 
" clip-path="url(#p58aae9f80c)" style="fill: none; stroke: #ffffff; stroke-opacity: 0.2; stroke-width: 0.8; stroke-linecap: square"/>
     </g>
     <g id="line2d_4">
      <g>
       <use xlink:href="#mb9aa377286" x="281.167041" y="169.2" style="fill: #ffffff; stroke: #ffffff; stroke-width: 0.8"/>
      </g>
     </g>
     <g id="text_2">
      <!-- 5 -->
      <g style="fill: #ffffff" transform="translate(277.985791 183.798437) scale(0.1 -0.1)">
       <defs>
        <path id="DejaVuSans-35" d="M 691 4666 
L 3169 4666 
L 3169 4134 
L 1269 4134 
L 1269 2991 
Q 1406 3038 1543 3061 
Q 1681 3084 1819 3084 
Q 2600 3084 3056 2656 
Q 3513 2228 3513 1497 
Q 3513 744 3044 326 
Q 2575 -91 1722 -91 
Q 1428 -91 1123 -41 
Q 819 9 494 109 
L 494 744 
Q 775 591 1075 516 
Q 1375 441 1709 441 
Q 2250 441 2565 725 
Q 2881 1009 2881 1497 
Q 2881 1984 2565 2268 
Q 2250 2553 1709 2553 
Q 1456 2553 1204 2497 
Q 953 2441 691 2322 
L 691 4666 
z
" transform="scale(0.015625)"/>
       </defs>
       <use xlink:href="#DejaVuSans-35"/>
      </g>
     </g>
    </g>
    <g id="xtick_3">
     <g id="line2d_5">
      <path d="M 412.361354 169.2 
L 412.361354 43.2 
" clip-path="url(#p58aae9f80c)" style="fill: none; stroke: #ffffff; stroke-opacity: 0.2; stroke-width: 0.8; stroke-linecap: square"/>
     </g>
     <g id="line2d_6">
      <g>
       <use xlink:href="#mb9aa377286" x="412.361354" y="169.2" style="fill: #ffffff; stroke: #ffffff; stroke-width: 0.8"/>
      </g>
     </g>
     <g id="text_3">
      <!-- 10 -->
      <g style="fill: #ffffff" transform="translate(405.998854 183.798437) scale(0.1 -0.1)">
       <defs>
        <path id="DejaVuSans-31" d="M 794 531 
L 1825 531 
L 1825 4091 
L 703 3866 
L 703 4441 
L 1819 4666 
L 2450 4666 
L 2450 531 
L 3481 531 
L 3481 0 
L 794 0 
L 794 531 
z
" transform="scale(0.015625)"/>
       </defs>
       <use xlink:href="#DejaVuSans-31"/>
       <use xlink:href="#DejaVuSans-30" transform="translate(63.623047 0)"/>
      </g>
     </g>
    </g>
    <g id="xtick_4">
     <g id="line2d_7">
      <path d="M 543.555667 169.2 
L 543.555667 43.2 
" clip-path="url(#p58aae9f80c)" style="fill: none; stroke: #ffffff; stroke-opacity: 0.2; stroke-width: 0.8; stroke-linecap: square"/>
     </g>
     <g id="line2d_8">
      <g>
       <use xlink:href="#mb9aa377286" x="543.555667" y="169.2" style="fill: #ffffff; stroke: #ffffff; stroke-width: 0.8"/>
      </g>
     </g>
     <g id="text_4">
      <!-- 15 -->
      <g style="fill: #ffffff" transform="translate(537.193167 183.798437) scale(0.1 -0.1)">
       <use xlink:href="#DejaVuSans-31"/>
       <use xlink:href="#DejaVuSans-35" transform="translate(63.623047 0)"/>
      </g>
     </g>
    </g>
    <g id="xtick_5">
     <g id="line2d_9">
      <path d="M 674.749981 169.2 
L 674.749981 43.2 
" clip-path="url(#p58aae9f80c)" style="fill: none; stroke: #ffffff; stroke-opacity: 0.2; stroke-width: 0.8; stroke-linecap: square"/>
     </g>
     <g id="line2d_10">
      <g>
       <use xlink:href="#mb9aa377286" x="674.749981" y="169.2" style="fill: #ffffff; stroke: #ffffff; stroke-width: 0.8"/>
      </g>
     </g>
     <g id="text_5">
      <!-- 20 -->
      <g style="fill: #ffffff" transform="translate(668.387481 183.798437) scale(0.1 -0.1)">
       <defs>
        <path id="DejaVuSans-32" d="M 1228 531 
L 3431 531 
L 3431 0 
L 469 0 
L 469 531 
Q 828 903 1448 1529 
Q 2069 2156 2228 2338 
Q 2531 2678 2651 2914 
Q 2772 3150 2772 3378 
Q 2772 3750 2511 3984 
Q 2250 4219 1831 4219 
Q 1534 4219 1204 4116 
Q 875 4013 500 3803 
L 500 4441 
Q 881 4594 1212 4672 
Q 1544 4750 1819 4750 
Q 2544 4750 2975 4387 
Q 3406 4025 3406 3419 
Q 3406 3131 3298 2873 
Q 3191 2616 2906 2266 
Q 2828 2175 2409 1742 
Q 1991 1309 1228 531 
z
" transform="scale(0.015625)"/>
       </defs>
       <use xlink:href="#DejaVuSans-32"/>
       <use xlink:href="#DejaVuSans-30" transform="translate(63.623047 0)"/>
      </g>
     </g>
    </g>
    <g id="xtick_6">
     <g id="line2d_11">
      <path d="M 805.944294 169.2 
L 805.944294 43.2 
" clip-path="url(#p58aae9f80c)" style="fill: none; stroke: #ffffff; stroke-opacity: 0.2; stroke-width: 0.8; stroke-linecap: square"/>
     </g>
     <g id="line2d_12">
      <g>
       <use xlink:href="#mb9aa377286" x="805.944294" y="169.2" style="fill: #ffffff; stroke: #ffffff; stroke-width: 0.8"/>
      </g>
     </g>
     <g id="text_6">
      <!-- 25 -->
      <g style="fill: #ffffff" transform="translate(799.581794 183.798437) scale(0.1 -0.1)">
       <use xlink:href="#DejaVuSans-32"/>
       <use xlink:href="#DejaVuSans-35" transform="translate(63.623047 0)"/>
      </g>
     </g>
    </g>
   </g>
   <g id="matplotlib.axis_2">
    <g id="ytick_1">
     <g id="line2d_13">
      <path d="M 117 144.382019 
L 842.4 144.382019 
" clip-path="url(#p58aae9f80c)" style="fill: none; stroke: #ffffff; stroke-opacity: 0.2; stroke-width: 0.8; stroke-linecap: square"/>
     </g>
     <g id="line2d_14">
      <defs>
       <path id="m78fff00d79" d="M 0 0 
L -3.5 0 
" style="stroke: #ffffff; stroke-width: 0.8"/>
      </defs>
      <g>
       <use xlink:href="#m78fff00d79" x="117" y="144.382019" style="fill: #ffffff; stroke: #ffffff; stroke-width: 0.8"/>
      </g>
     </g>
     <g id="text_7">
      <!-- −2 -->
      <g style="fill: #ffffff" transform="translate(87.886719 150.080847) scale(0.15 -0.15)">
       <defs>
        <path id="DejaVuSans-2212" d="M 678 2272 
L 4684 2272 
L 4684 1741 
L 678 1741 
L 678 2272 
z
" transform="scale(0.015625)"/>
       </defs>
       <use xlink:href="#DejaVuSans-2212"/>
       <use xlink:href="#DejaVuSans-32" transform="translate(83.789062 0)"/>
      </g>
     </g>
    </g>
    <g id="ytick_2">
     <g id="line2d_15">
      <path d="M 117 106.2 
L 842.4 106.2 
" clip-path="url(#p58aae9f80c)" style="fill: none; stroke: #ffffff; stroke-opacity: 0.2; stroke-width: 0.8; stroke-linecap: square"/>
     </g>
     <g id="line2d_16">
      <g>
       <use xlink:href="#m78fff00d79" x="117" y="106.2" style="fill: #ffffff; stroke: #ffffff; stroke-width: 0.8"/>
      </g>
     </g>
     <g id="text_8">
      <!-- 0 -->
      <g style="fill: #ffffff" transform="translate(100.45625 111.898828) scale(0.15 -0.15)">
       <use xlink:href="#DejaVuSans-30"/>
      </g>
     </g>
    </g>
    <g id="ytick_3">
     <g id="line2d_17">
      <path d="M 117 68.017981 
L 842.4 68.017981 
" clip-path="url(#p58aae9f80c)" style="fill: none; stroke: #ffffff; stroke-opacity: 0.2; stroke-width: 0.8; stroke-linecap: square"/>
     </g>
     <g id="line2d_18">
      <g>
       <use xlink:href="#m78fff00d79" x="117" y="68.017981" style="fill: #ffffff; stroke: #ffffff; stroke-width: 0.8"/>
      </g>
     </g>
     <g id="text_9">
      <!-- 2 -->
      <g style="fill: #ffffff" transform="translate(100.45625 73.71681) scale(0.15 -0.15)">
       <use xlink:href="#DejaVuSans-32"/>
      </g>
     </g>
    </g>
   </g>
   <g id="line2d_19">
    <path d="M 149.972727 106.2 
L 152.611865 85.880298 
L 153.931434 77.182731 
L 154.921111 71.720454 
L 155.910787 67.359024 
L 156.570572 65.129267 
L 157.230356 63.475884 
L 157.890141 62.417953 
L 158.220033 62.115694 
L 158.549925 61.965204 
L 158.879817 61.966216 
L 159.209709 62.117866 
L 159.869494 62.866668 
L 160.529278 64.192994 
L 161.189063 66.069176 
L 162.178739 69.832865 
L 163.168416 74.594657 
L 164.487985 82.162765 
L 166.79723 97.239036 
L 169.106476 111.935264 
L 170.426045 118.971991 
L 171.415721 123.213604 
L 172.405398 126.378014 
L 173.065183 127.823901 
L 173.724967 128.705428 
L 174.054859 128.92842 
L 174.384751 129.004117 
L 174.714644 128.931673 
L 175.044536 128.710833 
L 175.70432 127.825932 
L 176.364105 126.359259 
L 177.023889 124.329998 
L 178.013566 120.29534 
L 179.003243 115.191236 
L 180.322811 107.020173 
L 182.302165 92.862217 
L 185.271195 71.21921 
L 186.590764 62.960717 
L 187.58044 57.782441 
L 188.570117 53.6774 
L 189.229901 51.609092 
L 189.889686 50.114073 
L 190.54947 49.215495 
L 190.879362 48.994587 
L 191.209255 48.927273 
L 191.539147 49.013813 
L 191.869039 49.253872 
L 192.528824 50.190232 
L 193.188608 51.721854 
L 193.848392 53.825019 
L 194.838069 57.977903 
L 195.827746 63.197232 
L 197.147315 71.49749 
L 199.126668 85.757014 
L 202.095698 107.295036 
L 203.415267 115.423168 
L 204.404943 120.485849 
L 205.39462 124.472819 
L 206.054404 126.467654 
L 206.714189 127.898432 
L 207.373973 128.746547 
L 207.703866 128.948844 
L 208.033758 129.002745 
L 208.36365 128.908577 
L 208.693542 128.667263 
L 209.353327 127.749826 
L 210.013111 126.269489 
L 210.672896 124.254336 
L 211.662572 120.31123 
L 212.652249 115.40589 
L 213.971818 107.703814 
L 216.281063 92.555087 
L 218.260417 79.918592 
L 219.579985 72.703425 
L 220.569662 68.295334 
L 221.559339 64.948112 
L 222.219123 63.3773 
L 222.878908 62.372998 
L 223.2088 62.090715 
L 223.538692 61.957828 
L 223.868584 61.975719 
L 224.198477 62.145177 
L 224.858261 62.938979 
L 225.518045 64.333653 
L 226.17783 66.314183 
L 227.167506 70.328058 
L 228.157183 75.485142 
L 229.476752 83.860039 
L 231.126213 96.061026 
L 235.414812 129.106136 
L 236.734381 137.384652 
L 237.724057 142.452009 
L 238.713734 146.364681 
L 239.373519 148.273118 
L 240.033303 149.593312 
L 240.693087 150.311418 
L 241.02298 150.442942 
L 241.352872 150.423041 
L 241.682764 150.252653 
L 242.342549 149.467114 
L 243.002333 148.10552 
L 243.662117 146.196089 
L 244.651794 142.387443 
L 245.641471 137.587979 
L 246.96104 129.983207 
L 249.270285 114.885664 
L 251.579531 100.225011 
L 252.8991 93.231831 
L 253.888776 89.032008 
L 254.878453 85.91556 
L 255.538237 84.504232 
L 256.198022 83.658686 
L 256.527914 83.45404 
L 256.857806 83.396826 
L 257.187698 83.487818 
L 257.517591 83.727196 
L 258.177375 84.648844 
L 258.837159 86.151335 
L 259.496944 88.214914 
L 260.486621 92.29703 
L 261.476297 97.442264 
L 262.795866 105.655776 
L 264.775219 119.84565 
L 267.744249 141.458012 
L 269.063818 149.674243 
L 270.053495 154.811153 
L 271.043172 158.868102 
L 271.702956 160.901428 
L 272.36274 162.359753 
L 273.022525 163.220495 
L 273.352417 163.422238 
L 273.682309 163.470323 
L 274.012202 163.364562 
L 274.342094 163.105367 
L 275.001878 162.13128 
L 275.661663 160.563149 
L 276.321447 158.425253 
L 277.311124 154.224777 
L 278.3008 148.964711 
L 279.620369 140.62319 
L 281.599723 126.334435 
L 284.568753 104.831205 
L 285.888321 96.74648 
L 286.877998 91.725515 
L 287.867675 87.786458 
L 288.527459 85.826158 
L 289.187244 84.431348 
L 289.847028 83.620054 
L 290.17692 83.436304 
L 290.506812 83.400942 
L 290.836705 83.513565 
L 291.166597 83.773179 
L 291.826381 84.726451 
L 292.486166 86.241128 
L 293.14595 88.288576 
L 294.135627 92.275166 
L 295.125304 97.216662 
L 296.444872 104.953326 
L 299.08401 122.308173 
L 301.063363 134.641222 
L 302.382932 141.463365 
L 303.372609 145.492636 
L 304.032393 147.566108 
L 304.692178 149.102346 
L 305.351962 150.070396 
L 305.681855 150.334099 
L 306.011747 150.448203 
L 306.341639 150.411397 
L 306.671531 150.222967 
L 307.331316 149.391349 
L 307.9911 147.959522 
L 308.650885 145.943086 
L 309.640561 141.878918 
L 310.630238 136.677383 
L 311.949807 128.254985 
L 313.599268 116.017551 
L 317.887867 83.012696 
L 319.207436 74.783054 
L 320.197112 69.760968 
L 321.186789 65.899199 
L 321.846573 64.026946 
L 322.506358 62.744074 
L 323.166142 62.063843 
L 323.496034 61.951278 
L 323.825927 61.990053 
L 324.155819 62.179157 
L 324.815603 63.001357 
L 325.475388 64.398109 
L 326.135172 66.340644 
L 327.124849 70.193973 
L 328.114525 75.030776 
L 329.434094 82.671694 
L 331.74334 97.789493 
L 334.052585 112.41359 
L 335.372154 119.36275 
L 336.361831 123.520493 
L 337.351508 126.588758 
L 338.011292 127.965423 
L 338.671076 128.774917 
L 339.000969 128.961196 
L 339.330861 128.999915 
L 339.660753 128.890372 
L 339.990645 128.632463 
L 340.65043 127.674109 
L 341.310214 126.135875 
L 341.969999 124.038093 
L 342.959675 119.908747 
L 343.949352 114.722683 
L 345.268921 106.467205 
L 347.248274 92.246258 
L 350.217304 70.665838 
L 351.536873 62.492368 
L 352.52655 57.397134 
L 353.516226 53.388521 
L 354.176011 51.390301 
L 354.835795 49.968758 
L 355.49558 49.145905 
L 355.825472 48.963339 
L 356.155364 48.934487 
L 356.485256 49.059461 
L 356.815148 49.337778 
L 357.474933 50.349531 
L 358.134717 51.954078 
L 358.794502 54.126574 
L 359.784178 58.374387 
L 360.773855 63.674872 
L 362.093424 72.057153 
L 364.072777 86.374279 
L 367.041807 107.841436 
L 368.361376 115.882279 
L 369.351053 120.861236 
L 370.340729 124.75216 
L 371.000514 126.677818 
L 371.660298 128.036591 
L 372.320083 128.811029 
L 372.649975 128.976229 
L 372.979867 128.993059 
L 373.309759 128.861995 
L 373.969544 128.161054 
L 374.629328 126.88899 
L 375.289113 125.070546 
L 376.278789 121.39398 
L 377.268466 116.712495 
L 378.588035 109.228748 
L 380.567388 96.412469 
L 383.206526 79.430917 
L 384.526095 72.299689 
L 385.515772 67.973674 
L 386.505448 64.721773 
L 387.165233 63.22023 
L 387.825017 62.288519 
L 388.154909 62.043424 
L 388.484801 61.948125 
L 388.814694 62.003856 
L 389.144586 62.21126 
L 389.80437 63.080671 
L 390.464155 64.54959 
L 391.123939 66.601834 
L 392.113616 70.716087 
L 393.103293 75.961793 
L 394.422861 84.431228 
L 396.072323 96.704425 
L 400.360921 129.667172 
L 401.68049 137.847487 
L 402.670167 142.824034 
L 403.659844 146.634703 
L 404.319628 148.470685 
L 404.979412 149.716183 
L 405.639197 150.358524 
L 405.969089 150.452137 
L 406.298981 150.394503 
L 406.628874 150.186708 
L 407.288658 149.327925 
L 407.948442 147.896127 
L 408.608227 145.920633 
L 409.597903 142.022898 
L 410.58758 137.149093 
L 411.907149 129.472551 
L 414.216395 114.335509 
L 416.195748 101.679658 
L 417.515317 94.43239 
L 418.504993 89.986255 
L 419.49467 86.585449 
L 420.154454 84.968432 
L 420.814239 83.908125 
L 421.474023 83.425874 
L 421.803916 83.405662 
L 422.133808 83.533758 
L 422.4637 83.810189 
L 423.123484 84.805207 
L 423.783269 86.379103 
L 424.443053 88.510975 
L 425.43273 92.687315 
L 426.422407 97.91391 
L 427.741976 106.210868 
L 429.721329 120.462041 
L 432.690359 142.00922 
L 434.009928 150.139438 
L 434.999604 155.192688 
L 435.989281 159.152721 
L 436.649065 161.115715 
L 437.30885 162.50039 
L 437.968634 163.285304 
L 438.298527 163.448682 
L 438.628419 163.4583 
L 438.958311 163.314119 
L 439.288203 163.016698 
L 439.947988 161.96734 
L 440.607772 160.326475 
L 441.267557 158.11951 
L 442.257233 153.824616 
L 443.24691 148.484033 
L 444.566479 140.061497 
L 446.545832 125.716862 
L 449.514862 104.287059 
L 450.834431 96.29057 
L 451.824108 91.353907 
L 452.813784 87.511336 
L 453.473569 85.620423 
L 454.133353 84.297756 
L 454.793137 83.560205 
L 455.12303 83.413557 
L 455.452922 83.415253 
L 455.782814 83.56474 
L 456.442599 84.301929 
L 457.102383 85.60896 
L 457.762167 87.460529 
L 458.751844 91.182175 
L 459.741521 95.901781 
L 461.06109 103.423191 
L 463.040443 116.263214 
L 465.679581 133.211317 
L 466.99915 140.299838 
L 467.988826 144.584357 
L 468.978503 147.788236 
L 469.638287 149.254965 
L 470.298072 150.150253 
L 470.627964 150.376712 
L 470.957856 150.453187 
L 471.287748 150.37852 
L 471.617641 150.152141 
L 472.277425 149.244964 
L 472.93721 147.739017 
L 473.596994 145.651063 
L 474.586671 141.486938 
L 475.576347 136.197343 
L 476.895916 127.681337 
L 478.545377 115.373064 
L 482.833976 82.454276 
L 484.153545 74.323736 
L 485.143222 69.392994 
L 486.132898 65.633618 
L 486.792683 63.833993 
L 487.452467 62.625919 
L 488.112252 62.02148 
L 488.442144 61.946813 
L 488.772036 62.023288 
L 489.101928 62.249747 
L 489.761713 63.145035 
L 490.421497 64.611764 
L 491.081282 66.620068 
L 492.070958 70.561931 
L 493.060635 75.472399 
L 494.380204 83.184043 
L 497.019341 100.529214 
L 498.998695 112.887355 
L 500.318264 119.747066 
L 501.30794 123.819795 
L 502.297617 126.79104 
L 502.957401 128.098071 
L 503.617186 128.83526 
L 503.947078 128.984747 
L 504.27697 128.986443 
L 504.606863 128.839795 
L 505.266647 128.102244 
L 505.926431 126.779577 
L 506.586216 124.888664 
L 507.575892 121.046093 
L 508.565569 116.10943 
L 509.885138 108.112941 
L 511.534599 96.532349 
L 515.493306 67.967031 
L 516.812875 60.247861 
L 517.802551 55.585913 
L 518.792228 52.073525 
L 519.452012 50.43266 
L 520.111797 49.383302 
L 520.441689 49.085881 
L 520.771581 48.9417 
L 521.101473 48.951318 
L 521.431366 49.114696 
L 522.09115 49.89961 
L 522.750935 51.284285 
L 523.410719 53.247279 
L 524.400396 57.207312 
L 525.390072 62.260562 
L 526.709641 70.39078 
L 528.688994 84.524817 
L 531.987917 108.383295 
L 533.307486 116.33496 
L 534.297162 121.229044 
L 535.286839 125.023046 
L 535.946623 126.879113 
L 536.606408 128.165608 
L 537.266192 128.866242 
L 537.596084 128.994338 
L 537.925977 128.974126 
L 538.255869 128.806233 
L 538.915653 128.032858 
L 539.575438 126.69096 
L 540.235222 124.8064 
L 541.224899 121.039933 
L 542.214575 116.282526 
L 543.534144 108.723961 
L 545.84339 93.655608 
L 548.152635 78.947542 
L 549.472204 71.902213 
L 550.461881 67.659494 
L 551.451558 64.503873 
L 552.111342 63.072075 
L 552.771126 62.213292 
L 553.101019 62.005497 
L 553.430911 61.947863 
L 553.760803 62.041476 
L 554.090695 62.286828 
L 554.75048 63.231743 
L 555.410264 64.774653 
L 556.070049 66.898215 
L 557.059725 71.111997 
L 558.049402 76.445196 
L 559.368971 85.007303 
L 561.018432 97.349963 
L 564.977139 127.968772 
L 566.296707 136.438207 
L 567.286384 141.683913 
L 568.276061 145.798166 
L 568.935845 147.85041 
L 569.59563 149.319329 
L 570.255414 150.18874 
L 570.585306 150.396144 
L 570.915199 150.451875 
L 571.245091 150.356576 
L 571.574983 150.111481 
L 572.234767 149.17977 
L 572.894552 147.678227 
L 573.554336 145.637263 
L 574.544013 141.651554 
L 575.53369 136.704764 
L 576.853258 128.958543 
L 579.492396 111.598403 
L 581.47175 99.277513 
L 582.791318 92.463225 
L 583.780995 88.433426 
L 584.440779 86.353829 
L 585.100564 84.804923 
L 585.760348 83.815893 
L 586.090241 83.538005 
L 586.420133 83.406941 
L 586.750025 83.423771 
L 587.079917 83.588971 
L 587.739702 84.363409 
L 588.399486 85.722182 
L 589.059271 87.64784 
L 590.048947 91.538764 
L 591.038624 96.517721 
L 592.358193 104.558564 
L 594.007654 116.171382 
L 597.96636 144.696223 
L 599.285929 152.367352 
L 600.275606 156.984377 
L 601.265283 160.445922 
L 601.925067 162.050469 
L 602.584852 163.062222 
L 602.914744 163.340539 
L 603.244636 163.465513 
L 603.574528 163.436661 
L 603.90442 163.254095 
L 604.564205 162.431242 
L 605.223989 161.009699 
L 605.883774 159.011479 
L 606.87345 155.002866 
L 607.863127 149.907632 
L 609.182696 141.734162 
L 611.162049 127.567472 
L 614.131079 105.932795 
L 615.450648 97.677317 
L 616.440325 92.491253 
L 617.430001 88.361907 
L 618.089786 86.264125 
L 618.74957 84.725891 
L 619.409355 83.767537 
L 619.739247 83.509628 
L 620.069139 83.400085 
L 620.399031 83.438804 
L 620.728924 83.625083 
L 621.388708 84.434577 
L 622.048492 85.811242 
L 622.708277 87.728659 
L 623.697954 91.539686 
L 624.68763 96.334568 
L 626.007199 103.92978 
L 628.316445 119.019743 
L 630.62569 133.692492 
L 631.945259 140.694142 
L 632.934936 144.894762 
L 633.924612 148.001891 
L 634.584397 149.398643 
L 635.244181 150.220843 
L 635.574073 150.409947 
L 635.903966 150.448722 
L 636.233858 150.336157 
L 636.56375 150.071832 
L 637.223534 149.089212 
L 637.883319 147.509406 
L 638.543103 145.350339 
L 639.53278 141.087119 
L 640.522457 135.710603 
L 641.842026 127.102867 
L 643.491487 114.726511 
L 647.450193 84.145015 
L 648.769762 75.722617 
L 649.759439 70.521082 
L 650.749115 66.456914 
L 651.4089 64.440478 
L 652.068684 63.008651 
L 652.728469 62.177033 
L 653.058361 61.988603 
L 653.388253 61.951797 
L 653.718145 62.065901 
L 654.048038 62.329604 
L 654.707822 63.297654 
L 655.367607 64.833892 
L 656.027391 66.907364 
L 657.017068 70.936635 
L 658.006744 75.919404 
L 659.326313 83.699674 
L 662.295343 103.23458 
L 663.944804 113.356431 
L 665.264373 120.124834 
L 666.25405 124.111424 
L 666.913834 126.158872 
L 667.573619 127.673549 
L 668.233403 128.626821 
L 668.563295 128.886435 
L 668.893188 128.999058 
L 669.22308 128.963696 
L 669.552972 128.779946 
L 670.212756 127.968652 
L 670.872541 126.573842 
L 671.532325 124.613542 
L 672.522002 120.674485 
L 673.511679 115.65352 
L 674.831247 107.568795 
L 676.480709 95.924443 
L 680.109523 69.572311 
L 681.429092 61.574786 
L 682.418768 56.649313 
L 683.408445 52.836446 
L 684.06823 50.979836 
L 684.728014 49.706259 
L 685.387798 49.035438 
L 685.717691 48.929677 
L 686.047583 48.977762 
L 686.377475 49.179505 
L 687.03726 50.040247 
L 687.697044 51.498572 
L 688.356828 53.531898 
L 689.346505 57.588847 
L 690.336182 62.725757 
L 691.655751 70.941988 
L 693.635104 85.140477 
L 696.604134 106.744224 
L 697.923703 114.957736 
L 698.913379 120.10297 
L 699.903056 124.185086 
L 700.562841 126.248665 
L 701.222625 127.751156 
L 701.882409 128.672804 
L 702.212302 128.912182 
L 702.542194 129.003174 
L 702.872086 128.94596 
L 703.201978 128.741314 
L 703.861763 127.895768 
L 704.521547 126.48444 
L 705.181332 124.534304 
L 706.171008 120.678983 
L 707.160685 115.846952 
L 708.480254 108.215604 
L 710.789499 93.105041 
L 713.098745 78.468598 
L 714.418314 71.511108 
L 715.40799 67.352886 
L 716.397667 64.29448 
L 717.057451 62.932886 
L 717.717236 62.147347 
L 718.047128 61.976959 
L 718.37702 61.957058 
L 718.706913 62.088582 
L 719.036805 62.371876 
L 719.696589 63.39217 
L 720.356374 65.0088 
L 721.016158 67.203266 
L 722.005835 71.515703 
L 722.995511 76.935247 
L 724.31508 85.588137 
L 725.964541 97.997495 
L 729.923248 128.539961 
L 731.242817 136.914858 
L 732.232494 142.071942 
L 733.22217 146.085817 
L 733.881955 148.066347 
L 734.541739 149.461021 
L 735.201523 150.254823 
L 735.531416 150.424281 
L 735.861308 150.442172 
L 736.1912 150.309285 
L 736.521092 150.027002 
L 737.180877 149.0227 
L 737.840661 147.451888 
L 738.500446 145.346062 
L 739.490122 141.273516 
L 740.479799 136.255113 
L 741.799368 128.441323 
L 747.077643 95.263258 
L 748.06732 90.658972 
L 749.056997 87.073332 
L 749.716781 85.321528 
L 750.376566 84.119686 
L 751.03635 83.491423 
L 751.366242 83.397255 
L 751.696134 83.451156 
L 752.026027 83.653453 
L 752.685811 84.501568 
L 753.345596 85.932346 
L 754.00538 87.927181 
L 754.995057 91.914151 
L 755.984733 96.976832 
L 757.304302 105.104964 
L 759.283655 119.230161 
L 762.582578 143.098221 
L 763.902147 151.050545 
L 764.891823 155.932827 
L 765.8815 159.696174 
L 766.541284 161.517094 
L 767.201069 162.753481 
L 767.860853 163.386187 
L 768.190745 163.472727 
L 768.520638 163.405413 
L 768.85053 163.184505 
L 769.510314 162.285927 
L 770.170099 160.790908 
L 770.829883 158.7226 
L 771.81956 154.617559 
L 772.809236 149.439283 
L 774.128805 141.18079 
L 776.108159 126.951355 
L 779.077189 105.379827 
L 780.396757 97.208764 
L 781.386434 92.10466 
L 782.376111 88.070002 
L 783.035895 86.040741 
L 783.69568 84.574068 
L 784.355464 83.689167 
L 784.685356 83.468327 
L 785.015249 83.395883 
L 785.345141 83.47158 
L 785.675033 83.694572 
L 786.334817 84.576099 
L 786.994602 86.021986 
L 787.654386 88.004701 
L 788.644063 91.90405 
L 789.63374 96.772901 
L 790.953308 104.439871 
L 793.262554 119.570022 
L 795.241907 132.235999 
L 796.561476 139.492395 
L 797.551153 143.941059 
L 798.54083 147.335576 
L 799.200614 148.940838 
L 799.860398 149.981304 
L 800.520183 150.433784 
L 800.850075 150.434796 
L 801.179967 150.284306 
L 801.509859 149.982047 
L 802.169644 148.924116 
L 802.829428 147.270733 
L 803.489213 145.040976 
L 804.478889 140.679546 
L 805.468566 135.217269 
L 806.788135 126.519702 
L 808.767488 111.467856 
L 809.427273 106.2 
L 809.427273 106.2 
" clip-path="url(#p58aae9f80c)" style="fill: none; stroke: #00ff00; stroke-width: 1.5; stroke-linecap: square"/>
   </g>
   <g id="patch_3">
    <path d="M 117 169.2 
L 117 43.2 
" style="fill: none; stroke: #ffffff; stroke-width: 0.8; stroke-linejoin: miter; stroke-linecap: square"/>
   </g>
   <g id="patch_4">
    <path d="M 842.4 169.2 
L 842.4 43.2 
" style="fill: none; stroke: #ffffff; stroke-width: 0.8; stroke-linejoin: miter; stroke-linecap: square"/>
   </g>
   <g id="patch_5">
    <path d="M 117 169.2 
L 842.4 169.2 
" style="fill: none; stroke: #ffffff; stroke-width: 0.8; stroke-linejoin: miter; stroke-linecap: square"/>
   </g>
   <g id="patch_6">
    <path d="M 117 43.2 
L 842.4 43.2 
" style="fill: none; stroke: #ffffff; stroke-width: 0.8; stroke-linejoin: miter; stroke-linecap: square"/>
   </g>
   <g id="legend_1">
    <g id="patch_7">
     <path d="M 751.704687 65.878125 
L 835.4 65.878125 
Q 837.4 65.878125 837.4 63.878125 
L 837.4 50.2 
Q 837.4 48.2 835.4 48.2 
L 751.704687 48.2 
Q 749.704687 48.2 749.704687 50.2 
L 749.704687 63.878125 
Q 749.704687 65.878125 751.704687 65.878125 
z
" style="fill: #121212; opacity: 0.8; stroke: #ffffff; stroke-linejoin: miter"/>
    </g>
    <g id="line2d_20">
     <path d="M 753.704687 56.298437 
L 763.704687 56.298437 
L 773.704687 56.298437 
" style="fill: none; stroke: #00ff00; stroke-width: 1.5; stroke-linecap: square"/>
    </g>
    <g id="text_10">
     <!-- Inverse FT -->
     <g style="fill: #ffffff" transform="translate(781.704687 59.798437) scale(0.1 -0.1)">
      <defs>
       <path id="DejaVuSans-49" d="M 628 4666 
L 1259 4666 
L 1259 0 
L 628 0 
L 628 4666 
z
" transform="scale(0.015625)"/>
       <path id="DejaVuSans-6e" d="M 3513 2113 
L 3513 0 
L 2938 0 
L 2938 2094 
Q 2938 2591 2744 2837 
Q 2550 3084 2163 3084 
Q 1697 3084 1428 2787 
Q 1159 2491 1159 1978 
L 1159 0 
L 581 0 
L 581 3500 
L 1159 3500 
L 1159 2956 
Q 1366 3272 1645 3428 
Q 1925 3584 2291 3584 
Q 2894 3584 3203 3211 
Q 3513 2838 3513 2113 
z
" transform="scale(0.015625)"/>
       <path id="DejaVuSans-76" d="M 191 3500 
L 800 3500 
L 1894 563 
L 2988 3500 
L 3597 3500 
L 2284 0 
L 1503 0 
L 191 3500 
z
" transform="scale(0.015625)"/>
       <path id="DejaVuSans-65" d="M 3597 1894 
L 3597 1613 
L 953 1613 
Q 991 1019 1311 708 
Q 1631 397 2203 397 
Q 2534 397 2845 478 
Q 3156 559 3463 722 
L 3463 178 
Q 3153 47 2828 -22 
Q 2503 -91 2169 -91 
Q 1331 -91 842 396 
Q 353 884 353 1716 
Q 353 2575 817 3079 
Q 1281 3584 2069 3584 
Q 2775 3584 3186 3129 
Q 3597 2675 3597 1894 
z
M 3022 2063 
Q 3016 2534 2758 2815 
Q 2500 3097 2075 3097 
Q 1594 3097 1305 2825 
Q 1016 2553 972 2059 
L 3022 2063 
z
" transform="scale(0.015625)"/>
       <path id="DejaVuSans-72" d="M 2631 2963 
Q 2534 3019 2420 3045 
Q 2306 3072 2169 3072 
Q 1681 3072 1420 2755 
Q 1159 2438 1159 1844 
L 1159 0 
L 581 0 
L 581 3500 
L 1159 3500 
L 1159 2956 
Q 1341 3275 1631 3429 
Q 1922 3584 2338 3584 
Q 2397 3584 2469 3576 
Q 2541 3569 2628 3553 
L 2631 2963 
z
" transform="scale(0.015625)"/>
       <path id="DejaVuSans-73" d="M 2834 3397 
L 2834 2853 
Q 2591 2978 2328 3040 
Q 2066 3103 1784 3103 
Q 1356 3103 1142 2972 
Q 928 2841 928 2578 
Q 928 2378 1081 2264 
Q 1234 2150 1697 2047 
L 1894 2003 
Q 2506 1872 2764 1633 
Q 3022 1394 3022 966 
Q 3022 478 2636 193 
Q 2250 -91 1575 -91 
Q 1294 -91 989 -36 
Q 684 19 347 128 
L 347 722 
Q 666 556 975 473 
Q 1284 391 1588 391 
Q 1994 391 2212 530 
Q 2431 669 2431 922 
Q 2431 1156 2273 1281 
Q 2116 1406 1581 1522 
L 1381 1569 
Q 847 1681 609 1914 
Q 372 2147 372 2553 
Q 372 3047 722 3315 
Q 1072 3584 1716 3584 
Q 2034 3584 2315 3537 
Q 2597 3491 2834 3397 
z
" transform="scale(0.015625)"/>
       <path id="DejaVuSans-20" transform="scale(0.015625)"/>
       <path id="DejaVuSans-46" d="M 628 4666 
L 3309 4666 
L 3309 4134 
L 1259 4134 
L 1259 2759 
L 3109 2759 
L 3109 2228 
L 1259 2228 
L 1259 0 
L 628 0 
L 628 4666 
z
" transform="scale(0.015625)"/>
       <path id="DejaVuSans-54" d="M -19 4666 
L 3928 4666 
L 3928 4134 
L 2272 4134 
L 2272 0 
L 1638 0 
L 1638 4134 
L -19 4134 
L -19 4666 
z
" transform="scale(0.015625)"/>
      </defs>
      <use xlink:href="#DejaVuSans-49"/>
      <use xlink:href="#DejaVuSans-6e" transform="translate(29.492188 0)"/>
      <use xlink:href="#DejaVuSans-76" transform="translate(92.871094 0)"/>
      <use xlink:href="#DejaVuSans-65" transform="translate(152.050781 0)"/>
      <use xlink:href="#DejaVuSans-72" transform="translate(213.574219 0)"/>
      <use xlink:href="#DejaVuSans-73" transform="translate(254.6875 0)"/>
      <use xlink:href="#DejaVuSans-65" transform="translate(306.787109 0)"/>
      <use xlink:href="#DejaVuSans-20" transform="translate(368.310547 0)"/>
      <use xlink:href="#DejaVuSans-46" transform="translate(400.097656 0)"/>
      <use xlink:href="#DejaVuSans-54" transform="translate(455.867188 0)"/>
     </g>
    </g>
   </g>
  </g>
  <g id="axes_2">
   <g id="patch_8">
    <path d="M 117 320.4 
L 842.4 320.4 
L 842.4 194.4 
L 117 194.4 
z
" style="fill: #121212"/>
   </g>
   <g id="matplotlib.axis_3">
    <g id="xtick_7">
     <g id="line2d_21">
      <path d="M 149.972727 320.4 
L 149.972727 194.4 
" clip-path="url(#p5d9d045ad6)" style="fill: none; stroke: #ffffff; stroke-opacity: 0.2; stroke-width: 0.8; stroke-linecap: square"/>
     </g>
     <g id="line2d_22">
      <g>
       <use xlink:href="#mb9aa377286" x="149.972727" y="320.4" style="fill: #ffffff; stroke: #ffffff; stroke-width: 0.8"/>
      </g>
     </g>
     <g id="text_11">
      <!-- 0 -->
      <g style="fill: #ffffff" transform="translate(146.791477 334.998438) scale(0.1 -0.1)">
       <use xlink:href="#DejaVuSans-30"/>
      </g>
     </g>
    </g>
    <g id="xtick_8">
     <g id="line2d_23">
      <path d="M 281.167041 320.4 
L 281.167041 194.4 
" clip-path="url(#p5d9d045ad6)" style="fill: none; stroke: #ffffff; stroke-opacity: 0.2; stroke-width: 0.8; stroke-linecap: square"/>
     </g>
     <g id="line2d_24">
      <g>
       <use xlink:href="#mb9aa377286" x="281.167041" y="320.4" style="fill: #ffffff; stroke: #ffffff; stroke-width: 0.8"/>
      </g>
     </g>
     <g id="text_12">
      <!-- 5 -->
      <g style="fill: #ffffff" transform="translate(277.985791 334.998438) scale(0.1 -0.1)">
       <use xlink:href="#DejaVuSans-35"/>
      </g>
     </g>
    </g>
    <g id="xtick_9">
     <g id="line2d_25">
      <path d="M 412.361354 320.4 
L 412.361354 194.4 
" clip-path="url(#p5d9d045ad6)" style="fill: none; stroke: #ffffff; stroke-opacity: 0.2; stroke-width: 0.8; stroke-linecap: square"/>
     </g>
     <g id="line2d_26">
      <g>
       <use xlink:href="#mb9aa377286" x="412.361354" y="320.4" style="fill: #ffffff; stroke: #ffffff; stroke-width: 0.8"/>
      </g>
     </g>
     <g id="text_13">
      <!-- 10 -->
      <g style="fill: #ffffff" transform="translate(405.998854 334.998438) scale(0.1 -0.1)">
       <use xlink:href="#DejaVuSans-31"/>
       <use xlink:href="#DejaVuSans-30" transform="translate(63.623047 0)"/>
      </g>
     </g>
    </g>
    <g id="xtick_10">
     <g id="line2d_27">
      <path d="M 543.555667 320.4 
L 543.555667 194.4 
" clip-path="url(#p5d9d045ad6)" style="fill: none; stroke: #ffffff; stroke-opacity: 0.2; stroke-width: 0.8; stroke-linecap: square"/>
     </g>
     <g id="line2d_28">
      <g>
       <use xlink:href="#mb9aa377286" x="543.555667" y="320.4" style="fill: #ffffff; stroke: #ffffff; stroke-width: 0.8"/>
      </g>
     </g>
     <g id="text_14">
      <!-- 15 -->
      <g style="fill: #ffffff" transform="translate(537.193167 334.998438) scale(0.1 -0.1)">
       <use xlink:href="#DejaVuSans-31"/>
       <use xlink:href="#DejaVuSans-35" transform="translate(63.623047 0)"/>
      </g>
     </g>
    </g>
    <g id="xtick_11">
     <g id="line2d_29">
      <path d="M 674.749981 320.4 
L 674.749981 194.4 
" clip-path="url(#p5d9d045ad6)" style="fill: none; stroke: #ffffff; stroke-opacity: 0.2; stroke-width: 0.8; stroke-linecap: square"/>
     </g>
     <g id="line2d_30">
      <g>
       <use xlink:href="#mb9aa377286" x="674.749981" y="320.4" style="fill: #ffffff; stroke: #ffffff; stroke-width: 0.8"/>
      </g>
     </g>
     <g id="text_15">
      <!-- 20 -->
      <g style="fill: #ffffff" transform="translate(668.387481 334.998438) scale(0.1 -0.1)">
       <use xlink:href="#DejaVuSans-32"/>
       <use xlink:href="#DejaVuSans-30" transform="translate(63.623047 0)"/>
      </g>
     </g>
    </g>
    <g id="xtick_12">
     <g id="line2d_31">
      <path d="M 805.944294 320.4 
L 805.944294 194.4 
" clip-path="url(#p5d9d045ad6)" style="fill: none; stroke: #ffffff; stroke-opacity: 0.2; stroke-width: 0.8; stroke-linecap: square"/>
     </g>
     <g id="line2d_32">
      <g>
       <use xlink:href="#mb9aa377286" x="805.944294" y="320.4" style="fill: #ffffff; stroke: #ffffff; stroke-width: 0.8"/>
      </g>
     </g>
     <g id="text_16">
      <!-- 25 -->
      <g style="fill: #ffffff" transform="translate(799.581794 334.998438) scale(0.1 -0.1)">
       <use xlink:href="#DejaVuSans-32"/>
       <use xlink:href="#DejaVuSans-35" transform="translate(63.623047 0)"/>
      </g>
     </g>
    </g>
   </g>
   <g id="matplotlib.axis_4">
    <g id="ytick_4">
     <g id="line2d_33">
      <path d="M 117 295.582019 
L 842.4 295.582019 
" clip-path="url(#p5d9d045ad6)" style="fill: none; stroke: #ffffff; stroke-opacity: 0.2; stroke-width: 0.8; stroke-linecap: square"/>
     </g>
     <g id="line2d_34">
      <g>
       <use xlink:href="#m78fff00d79" x="117" y="295.582019" style="fill: #ffffff; stroke: #ffffff; stroke-width: 0.8"/>
      </g>
     </g>
     <g id="text_17">
      <!-- −2 -->
      <g style="fill: #ffffff" transform="translate(87.886719 301.280847) scale(0.15 -0.15)">
       <use xlink:href="#DejaVuSans-2212"/>
       <use xlink:href="#DejaVuSans-32" transform="translate(83.789062 0)"/>
      </g>
     </g>
    </g>
    <g id="ytick_5">
     <g id="line2d_35">
      <path d="M 117 257.4 
L 842.4 257.4 
" clip-path="url(#p5d9d045ad6)" style="fill: none; stroke: #ffffff; stroke-opacity: 0.2; stroke-width: 0.8; stroke-linecap: square"/>
     </g>
     <g id="line2d_36">
      <g>
       <use xlink:href="#m78fff00d79" x="117" y="257.4" style="fill: #ffffff; stroke: #ffffff; stroke-width: 0.8"/>
      </g>
     </g>
     <g id="text_18">
      <!-- 0 -->
      <g style="fill: #ffffff" transform="translate(100.45625 263.098828) scale(0.15 -0.15)">
       <use xlink:href="#DejaVuSans-30"/>
      </g>
     </g>
    </g>
    <g id="ytick_6">
     <g id="line2d_37">
      <path d="M 117 219.217981 
L 842.4 219.217981 
" clip-path="url(#p5d9d045ad6)" style="fill: none; stroke: #ffffff; stroke-opacity: 0.2; stroke-width: 0.8; stroke-linecap: square"/>
     </g>
     <g id="line2d_38">
      <g>
       <use xlink:href="#m78fff00d79" x="117" y="219.217981" style="fill: #ffffff; stroke: #ffffff; stroke-width: 0.8"/>
      </g>
     </g>
     <g id="text_19">
      <!-- 2 -->
      <g style="fill: #ffffff" transform="translate(100.45625 224.91681) scale(0.15 -0.15)">
       <use xlink:href="#DejaVuSans-32"/>
      </g>
     </g>
    </g>
   </g>
   <g id="line2d_39">
    <path d="M 149.972727 257.4 
L 152.611865 237.080298 
L 153.931434 228.382731 
L 154.921111 222.920454 
L 155.910787 218.559024 
L 156.570572 216.329267 
L 157.230356 214.675884 
L 157.890141 213.617953 
L 158.220033 213.315694 
L 158.549925 213.165204 
L 158.879817 213.166216 
L 159.209709 213.317866 
L 159.869494 214.066668 
L 160.529278 215.392994 
L 161.189063 217.269176 
L 162.178739 221.032865 
L 163.168416 225.794657 
L 164.487985 233.362765 
L 166.79723 248.439036 
L 169.106476 263.135264 
L 170.426045 270.171991 
L 171.415721 274.413604 
L 172.405398 277.578014 
L 173.065183 279.023901 
L 173.724967 279.905428 
L 174.054859 280.12842 
L 174.384751 280.204117 
L 174.714644 280.131673 
L 175.044536 279.910833 
L 175.70432 279.025932 
L 176.364105 277.559259 
L 177.023889 275.529998 
L 178.013566 271.49534 
L 179.003243 266.391236 
L 180.322811 258.220173 
L 182.302165 244.062217 
L 185.271195 222.41921 
L 186.590764 214.160717 
L 187.58044 208.982441 
L 188.570117 204.8774 
L 189.229901 202.809092 
L 189.889686 201.314073 
L 190.54947 200.415495 
L 190.879362 200.194587 
L 191.209255 200.127273 
L 191.539147 200.213813 
L 191.869039 200.453872 
L 192.528824 201.390232 
L 193.188608 202.921854 
L 193.848392 205.025019 
L 194.838069 209.177903 
L 195.827746 214.397232 
L 197.147315 222.69749 
L 199.126668 236.957014 
L 202.095698 258.495036 
L 203.415267 266.623168 
L 204.404943 271.685849 
L 205.39462 275.672819 
L 206.054404 277.667654 
L 206.714189 279.098432 
L 207.373973 279.946547 
L 207.703866 280.148844 
L 208.033758 280.202745 
L 208.36365 280.108577 
L 208.693542 279.867263 
L 209.353327 278.949826 
L 210.013111 277.469489 
L 210.672896 275.454336 
L 211.662572 271.51123 
L 212.652249 266.60589 
L 213.971818 258.903814 
L 216.281063 243.755087 
L 218.260417 231.118592 
L 219.579985 223.903425 
L 220.569662 219.495334 
L 221.559339 216.148112 
L 222.219123 214.5773 
L 222.878908 213.572998 
L 223.2088 213.290715 
L 223.538692 213.157828 
L 223.868584 213.175719 
L 224.198477 213.345177 
L 224.858261 214.138979 
L 225.518045 215.533653 
L 226.17783 217.514183 
L 227.167506 221.528058 
L 228.157183 226.685142 
L 229.476752 235.060039 
L 231.126213 247.261026 
L 235.414812 280.306136 
L 236.734381 288.584652 
L 237.724057 293.652009 
L 238.713734 297.564681 
L 239.373519 299.473118 
L 240.033303 300.793312 
L 240.693087 301.511418 
L 241.02298 301.642942 
L 241.352872 301.623041 
L 241.682764 301.452653 
L 242.342549 300.667114 
L 243.002333 299.30552 
L 243.662117 297.396089 
L 244.651794 293.587443 
L 245.641471 288.787979 
L 246.96104 281.183207 
L 249.270285 266.085664 
L 251.579531 251.425011 
L 252.8991 244.431831 
L 253.888776 240.232008 
L 254.878453 237.11556 
L 255.538237 235.704232 
L 256.198022 234.858686 
L 256.527914 234.65404 
L 256.857806 234.596826 
L 257.187698 234.687818 
L 257.517591 234.927196 
L 258.177375 235.848844 
L 258.837159 237.351335 
L 259.496944 239.414914 
L 260.486621 243.49703 
L 261.476297 248.642264 
L 262.795866 256.855776 
L 264.775219 271.04565 
L 267.744249 292.658012 
L 269.063818 300.874243 
L 270.053495 306.011153 
L 271.043172 310.068102 
L 271.702956 312.101428 
L 272.36274 313.559753 
L 273.022525 314.420495 
L 273.352417 314.622238 
L 273.682309 314.670323 
L 274.012202 314.564562 
L 274.342094 314.305367 
L 275.001878 313.33128 
L 275.661663 311.763149 
L 276.321447 309.625253 
L 277.311124 305.424777 
L 278.3008 300.164711 
L 279.620369 291.82319 
L 281.599723 277.534435 
L 284.568753 256.031205 
L 285.888321 247.94648 
L 286.877998 242.925515 
L 287.867675 238.986458 
L 288.527459 237.026158 
L 289.187244 235.631348 
L 289.847028 234.820054 
L 290.17692 234.636304 
L 290.506812 234.600942 
L 290.836705 234.713565 
L 291.166597 234.973179 
L 291.826381 235.926451 
L 292.486166 237.441128 
L 293.14595 239.488576 
L 294.135627 243.475166 
L 295.125304 248.416662 
L 296.444872 256.153326 
L 299.08401 273.508173 
L 301.063363 285.841222 
L 302.382932 292.663365 
L 303.372609 296.692636 
L 304.032393 298.766108 
L 304.692178 300.302346 
L 305.351962 301.270396 
L 305.681855 301.534099 
L 306.011747 301.648203 
L 306.341639 301.611397 
L 306.671531 301.422967 
L 307.331316 300.591349 
L 307.9911 299.159522 
L 308.650885 297.143086 
L 309.640561 293.078918 
L 310.630238 287.877383 
L 311.949807 279.454985 
L 313.599268 267.217551 
L 317.887867 234.212696 
L 319.207436 225.983054 
L 320.197112 220.960968 
L 321.186789 217.099199 
L 321.846573 215.226946 
L 322.506358 213.944074 
L 323.166142 213.263843 
L 323.496034 213.151278 
L 323.825927 213.190053 
L 324.155819 213.379157 
L 324.815603 214.201357 
L 325.475388 215.598109 
L 326.135172 217.540644 
L 327.124849 221.393973 
L 328.114525 226.230776 
L 329.434094 233.871694 
L 331.74334 248.989493 
L 334.052585 263.61359 
L 335.372154 270.56275 
L 336.361831 274.720493 
L 337.351508 277.788758 
L 338.011292 279.165423 
L 338.671076 279.974917 
L 339.000969 280.161196 
L 339.330861 280.199915 
L 339.660753 280.090372 
L 339.990645 279.832463 
L 340.65043 278.874109 
L 341.310214 277.335875 
L 341.969999 275.238093 
L 342.959675 271.108747 
L 343.949352 265.922683 
L 345.268921 257.667205 
L 347.248274 243.446258 
L 350.217304 221.865838 
L 351.536873 213.692368 
L 352.52655 208.597134 
L 353.516226 204.588521 
L 354.176011 202.590301 
L 354.835795 201.168758 
L 355.49558 200.345905 
L 355.825472 200.163339 
L 356.155364 200.134487 
L 356.485256 200.259461 
L 356.815148 200.537778 
L 357.474933 201.549531 
L 358.134717 203.154078 
L 358.794502 205.326574 
L 359.784178 209.574387 
L 360.773855 214.874872 
L 362.093424 223.257153 
L 364.072777 237.574279 
L 367.041807 259.041436 
L 368.361376 267.082279 
L 369.351053 272.061236 
L 370.340729 275.95216 
L 371.000514 277.877818 
L 371.660298 279.236591 
L 372.320083 280.011029 
L 372.649975 280.176229 
L 372.979867 280.193059 
L 373.309759 280.061995 
L 373.969544 279.361054 
L 374.629328 278.08899 
L 375.289113 276.270546 
L 376.278789 272.59398 
L 377.268466 267.912495 
L 378.588035 260.428748 
L 380.567388 247.612469 
L 383.206526 230.630917 
L 384.526095 223.499689 
L 385.515772 219.173674 
L 386.505448 215.921773 
L 387.165233 214.42023 
L 387.825017 213.488519 
L 388.154909 213.243424 
L 388.484801 213.148125 
L 388.814694 213.203856 
L 389.144586 213.41126 
L 389.80437 214.280671 
L 390.464155 215.74959 
L 391.123939 217.801834 
L 392.113616 221.916087 
L 393.103293 227.161793 
L 394.422861 235.631228 
L 396.072323 247.904425 
L 400.360921 280.867172 
L 401.68049 289.047487 
L 402.670167 294.024034 
L 403.659844 297.834703 
L 404.319628 299.670685 
L 404.979412 300.916183 
L 405.639197 301.558524 
L 405.969089 301.652137 
L 406.298981 301.594503 
L 406.628874 301.386708 
L 407.288658 300.527925 
L 407.948442 299.096127 
L 408.608227 297.120633 
L 409.597903 293.222898 
L 410.58758 288.349093 
L 411.907149 280.672551 
L 414.216395 265.535509 
L 416.195748 252.879658 
L 417.515317 245.63239 
L 418.504993 241.186255 
L 419.49467 237.785449 
L 420.154454 236.168432 
L 420.814239 235.108125 
L 421.474023 234.625874 
L 421.803916 234.605662 
L 422.133808 234.733758 
L 422.4637 235.010189 
L 423.123484 236.005207 
L 423.783269 237.579103 
L 424.443053 239.710975 
L 425.43273 243.887315 
L 426.422407 249.11391 
L 427.741976 257.410868 
L 429.721329 271.662041 
L 432.690359 293.20922 
L 434.009928 301.339438 
L 434.999604 306.392688 
L 435.989281 310.352721 
L 436.649065 312.315715 
L 437.30885 313.70039 
L 437.968634 314.485304 
L 438.298527 314.648682 
L 438.628419 314.6583 
L 438.958311 314.514119 
L 439.288203 314.216698 
L 439.947988 313.16734 
L 440.607772 311.526475 
L 441.267557 309.31951 
L 442.257233 305.024616 
L 443.24691 299.684033 
L 444.566479 291.261497 
L 446.545832 276.916862 
L 449.514862 255.487059 
L 450.834431 247.49057 
L 451.824108 242.553907 
L 452.813784 238.711336 
L 453.473569 236.820423 
L 454.133353 235.497756 
L 454.793137 234.760205 
L 455.12303 234.613557 
L 455.452922 234.615253 
L 455.782814 234.76474 
L 456.442599 235.501929 
L 457.102383 236.80896 
L 457.762167 238.660529 
L 458.751844 242.382175 
L 459.741521 247.101781 
L 461.06109 254.623191 
L 463.040443 267.463214 
L 465.679581 284.411317 
L 466.99915 291.499838 
L 467.988826 295.784357 
L 468.978503 298.988236 
L 469.638287 300.454965 
L 470.298072 301.350253 
L 470.627964 301.576712 
L 470.957856 301.653187 
L 471.287748 301.57852 
L 471.617641 301.352141 
L 472.277425 300.444964 
L 472.93721 298.939017 
L 473.596994 296.851063 
L 474.586671 292.686938 
L 475.576347 287.397343 
L 476.895916 278.881337 
L 478.545377 266.573064 
L 482.833976 233.654276 
L 484.153545 225.523736 
L 485.143222 220.592994 
L 486.132898 216.833618 
L 486.792683 215.033993 
L 487.452467 213.825919 
L 488.112252 213.22148 
L 488.442144 213.146813 
L 488.772036 213.223288 
L 489.101928 213.449747 
L 489.761713 214.345035 
L 490.421497 215.811764 
L 491.081282 217.820068 
L 492.070958 221.761931 
L 493.060635 226.672399 
L 494.380204 234.384043 
L 497.019341 251.729214 
L 498.998695 264.087355 
L 500.318264 270.947066 
L 501.30794 275.019795 
L 502.297617 277.99104 
L 502.957401 279.298071 
L 503.617186 280.03526 
L 503.947078 280.184747 
L 504.27697 280.186443 
L 504.606863 280.039795 
L 505.266647 279.302244 
L 505.926431 277.979577 
L 506.586216 276.088664 
L 507.575892 272.246093 
L 508.565569 267.30943 
L 509.885138 259.312941 
L 511.534599 247.732349 
L 515.493306 219.167031 
L 516.812875 211.447861 
L 517.802551 206.785913 
L 518.792228 203.273525 
L 519.452012 201.63266 
L 520.111797 200.583302 
L 520.441689 200.285881 
L 520.771581 200.1417 
L 521.101473 200.151318 
L 521.431366 200.314696 
L 522.09115 201.09961 
L 522.750935 202.484285 
L 523.410719 204.447279 
L 524.400396 208.407312 
L 525.390072 213.460562 
L 526.709641 221.59078 
L 528.688994 235.724817 
L 531.987917 259.583295 
L 533.307486 267.53496 
L 534.297162 272.429044 
L 535.286839 276.223046 
L 535.946623 278.079113 
L 536.606408 279.365608 
L 537.266192 280.066242 
L 537.596084 280.194338 
L 537.925977 280.174126 
L 538.255869 280.006233 
L 538.915653 279.232858 
L 539.575438 277.89096 
L 540.235222 276.0064 
L 541.224899 272.239933 
L 542.214575 267.482526 
L 543.534144 259.923961 
L 545.84339 244.855608 
L 548.152635 230.147542 
L 549.472204 223.102213 
L 550.461881 218.859494 
L 551.451558 215.703873 
L 552.111342 214.272075 
L 552.771126 213.413292 
L 553.101019 213.205497 
L 553.430911 213.147863 
L 553.760803 213.241476 
L 554.090695 213.486828 
L 554.75048 214.431743 
L 555.410264 215.974653 
L 556.070049 218.098215 
L 557.059725 222.311997 
L 558.049402 227.645196 
L 559.368971 236.207303 
L 561.018432 248.549963 
L 564.977139 279.168772 
L 566.296707 287.638207 
L 567.286384 292.883913 
L 568.276061 296.998166 
L 568.935845 299.05041 
L 569.59563 300.519329 
L 570.255414 301.38874 
L 570.585306 301.596144 
L 570.915199 301.651875 
L 571.245091 301.556576 
L 571.574983 301.311481 
L 572.234767 300.37977 
L 572.894552 298.878227 
L 573.554336 296.837263 
L 574.544013 292.851554 
L 575.53369 287.904764 
L 576.853258 280.158543 
L 579.492396 262.798403 
L 581.47175 250.477513 
L 582.791318 243.663225 
L 583.780995 239.633426 
L 584.440779 237.553829 
L 585.100564 236.004923 
L 585.760348 235.015893 
L 586.090241 234.738005 
L 586.420133 234.606941 
L 586.750025 234.623771 
L 587.079917 234.788971 
L 587.739702 235.563409 
L 588.399486 236.922182 
L 589.059271 238.84784 
L 590.048947 242.738764 
L 591.038624 247.717721 
L 592.358193 255.758564 
L 594.007654 267.371382 
L 597.96636 295.896223 
L 599.285929 303.567352 
L 600.275606 308.184377 
L 601.265283 311.645922 
L 601.925067 313.250469 
L 602.584852 314.262222 
L 602.914744 314.540539 
L 603.244636 314.665513 
L 603.574528 314.636661 
L 603.90442 314.454095 
L 604.564205 313.631242 
L 605.223989 312.209699 
L 605.883774 310.211479 
L 606.87345 306.202866 
L 607.863127 301.107632 
L 609.182696 292.934162 
L 611.162049 278.767472 
L 614.131079 257.132795 
L 615.450648 248.877317 
L 616.440325 243.691253 
L 617.430001 239.561907 
L 618.089786 237.464125 
L 618.74957 235.925891 
L 619.409355 234.967537 
L 619.739247 234.709628 
L 620.069139 234.600085 
L 620.399031 234.638804 
L 620.728924 234.825083 
L 621.388708 235.634577 
L 622.048492 237.011242 
L 622.708277 238.928659 
L 623.697954 242.739686 
L 624.68763 247.534568 
L 626.007199 255.12978 
L 628.316445 270.219743 
L 630.62569 284.892492 
L 631.945259 291.894142 
L 632.934936 296.094762 
L 633.924612 299.201891 
L 634.584397 300.598643 
L 635.244181 301.420843 
L 635.574073 301.609947 
L 635.903966 301.648722 
L 636.233858 301.536157 
L 636.56375 301.271832 
L 637.223534 300.289212 
L 637.883319 298.709406 
L 638.543103 296.550339 
L 639.53278 292.287119 
L 640.522457 286.910603 
L 641.842026 278.302867 
L 643.491487 265.926511 
L 647.450193 235.345015 
L 648.769762 226.922617 
L 649.759439 221.721082 
L 650.749115 217.656914 
L 651.4089 215.640478 
L 652.068684 214.208651 
L 652.728469 213.377033 
L 653.058361 213.188603 
L 653.388253 213.151797 
L 653.718145 213.265901 
L 654.048038 213.529604 
L 654.707822 214.497654 
L 655.367607 216.033892 
L 656.027391 218.107364 
L 657.017068 222.136635 
L 658.006744 227.119404 
L 659.326313 234.899674 
L 662.295343 254.43458 
L 663.944804 264.556431 
L 665.264373 271.324834 
L 666.25405 275.311424 
L 666.913834 277.358872 
L 667.573619 278.873549 
L 668.233403 279.826821 
L 668.563295 280.086435 
L 668.893188 280.199058 
L 669.22308 280.163696 
L 669.552972 279.979946 
L 670.212756 279.168652 
L 670.872541 277.773842 
L 671.532325 275.813542 
L 672.522002 271.874485 
L 673.511679 266.85352 
L 674.831247 258.768795 
L 676.480709 247.124443 
L 680.109523 220.772311 
L 681.429092 212.774786 
L 682.418768 207.849313 
L 683.408445 204.036446 
L 684.06823 202.179836 
L 684.728014 200.906259 
L 685.387798 200.235438 
L 685.717691 200.129677 
L 686.047583 200.177762 
L 686.377475 200.379505 
L 687.03726 201.240247 
L 687.697044 202.698572 
L 688.356828 204.731898 
L 689.346505 208.788847 
L 690.336182 213.925757 
L 691.655751 222.141988 
L 693.635104 236.340477 
L 696.604134 257.944224 
L 697.923703 266.157736 
L 698.913379 271.30297 
L 699.903056 275.385086 
L 700.562841 277.448665 
L 701.222625 278.951156 
L 701.882409 279.872804 
L 702.212302 280.112182 
L 702.542194 280.203174 
L 702.872086 280.14596 
L 703.201978 279.941314 
L 703.861763 279.095768 
L 704.521547 277.68444 
L 705.181332 275.734304 
L 706.171008 271.878983 
L 707.160685 267.046952 
L 708.480254 259.415604 
L 710.789499 244.305041 
L 713.098745 229.668598 
L 714.418314 222.711108 
L 715.40799 218.552886 
L 716.397667 215.49448 
L 717.057451 214.132886 
L 717.717236 213.347347 
L 718.047128 213.176959 
L 718.37702 213.157058 
L 718.706913 213.288582 
L 719.036805 213.571876 
L 719.696589 214.59217 
L 720.356374 216.2088 
L 721.016158 218.403266 
L 722.005835 222.715703 
L 722.995511 228.135247 
L 724.31508 236.788137 
L 725.964541 249.197495 
L 729.923248 279.739961 
L 731.242817 288.114858 
L 732.232494 293.271942 
L 733.22217 297.285817 
L 733.881955 299.266347 
L 734.541739 300.661021 
L 735.201523 301.454823 
L 735.531416 301.624281 
L 735.861308 301.642172 
L 736.1912 301.509285 
L 736.521092 301.227002 
L 737.180877 300.2227 
L 737.840661 298.651888 
L 738.500446 296.546062 
L 739.490122 292.473516 
L 740.479799 287.455113 
L 741.799368 279.641323 
L 747.077643 246.463258 
L 748.06732 241.858972 
L 749.056997 238.273332 
L 749.716781 236.521528 
L 750.376566 235.319686 
L 751.03635 234.691423 
L 751.366242 234.597255 
L 751.696134 234.651156 
L 752.026027 234.853453 
L 752.685811 235.701568 
L 753.345596 237.132346 
L 754.00538 239.127181 
L 754.995057 243.114151 
L 755.984733 248.176832 
L 757.304302 256.304964 
L 759.283655 270.430161 
L 762.582578 294.298221 
L 763.902147 302.250545 
L 764.891823 307.132827 
L 765.8815 310.896174 
L 766.541284 312.717094 
L 767.201069 313.953481 
L 767.860853 314.586187 
L 768.190745 314.672727 
L 768.520638 314.605413 
L 768.85053 314.384505 
L 769.510314 313.485927 
L 770.170099 311.990908 
L 770.829883 309.9226 
L 771.81956 305.817559 
L 772.809236 300.639283 
L 774.128805 292.38079 
L 776.108159 278.151355 
L 779.077189 256.579827 
L 780.396757 248.408764 
L 781.386434 243.30466 
L 782.376111 239.270002 
L 783.035895 237.240741 
L 783.69568 235.774068 
L 784.355464 234.889167 
L 784.685356 234.668327 
L 785.015249 234.595883 
L 785.345141 234.67158 
L 785.675033 234.894572 
L 786.334817 235.776099 
L 786.994602 237.221986 
L 787.654386 239.204701 
L 788.644063 243.10405 
L 789.63374 247.972901 
L 790.953308 255.639871 
L 793.262554 270.770022 
L 795.241907 283.435999 
L 796.561476 290.692395 
L 797.551153 295.141059 
L 798.54083 298.535576 
L 799.200614 300.140838 
L 799.860398 301.181304 
L 800.520183 301.633784 
L 800.850075 301.634796 
L 801.179967 301.484306 
L 801.509859 301.182047 
L 802.169644 300.124116 
L 802.829428 298.470733 
L 803.489213 296.240976 
L 804.478889 291.879546 
L 805.468566 286.417269 
L 806.788135 277.719702 
L 808.767488 262.667856 
L 809.427273 257.4 
L 809.427273 257.4 
" clip-path="url(#p5d9d045ad6)" style="fill: none; stroke: #00ffff; stroke-width: 1.5; stroke-linecap: square"/>
   </g>
   <g id="patch_9">
    <path d="M 117 320.4 
L 117 194.4 
" style="fill: none; stroke: #ffffff; stroke-width: 0.8; stroke-linejoin: miter; stroke-linecap: square"/>
   </g>
   <g id="patch_10">
    <path d="M 842.4 320.4 
L 842.4 194.4 
" style="fill: none; stroke: #ffffff; stroke-width: 0.8; stroke-linejoin: miter; stroke-linecap: square"/>
   </g>
   <g id="patch_11">
    <path d="M 117 320.4 
L 842.4 320.4 
" style="fill: none; stroke: #ffffff; stroke-width: 0.8; stroke-linejoin: miter; stroke-linecap: square"/>
   </g>
   <g id="patch_12">
    <path d="M 117 194.4 
L 842.4 194.4 
" style="fill: none; stroke: #ffffff; stroke-width: 0.8; stroke-linejoin: miter; stroke-linecap: square"/>
   </g>
   <g id="legend_2">
    <g id="patch_13">
     <path d="M 702.692188 217.078125 
L 835.4 217.078125 
Q 837.4 217.078125 837.4 215.078125 
L 837.4 201.4 
Q 837.4 199.4 835.4 199.4 
L 702.692188 199.4 
Q 700.692188 199.4 700.692188 201.4 
L 700.692188 215.078125 
Q 700.692188 217.078125 702.692188 217.078125 
z
" style="fill: #121212; opacity: 0.8; stroke: #ffffff; stroke-linejoin: miter"/>
    </g>
    <g id="line2d_40">
     <path d="M 704.692188 207.498437 
L 714.692188 207.498437 
L 724.692188 207.498437 
" style="fill: none; stroke: #00ffff; stroke-width: 1.5; stroke-linecap: square"/>
    </g>
    <g id="text_20">
     <!-- Original Time Series -->
     <g style="fill: #ffffff" transform="translate(732.692188 210.998437) scale(0.1 -0.1)">
      <defs>
       <path id="DejaVuSans-4f" d="M 2522 4238 
Q 1834 4238 1429 3725 
Q 1025 3213 1025 2328 
Q 1025 1447 1429 934 
Q 1834 422 2522 422 
Q 3209 422 3611 934 
Q 4013 1447 4013 2328 
Q 4013 3213 3611 3725 
Q 3209 4238 2522 4238 
z
M 2522 4750 
Q 3503 4750 4090 4092 
Q 4678 3434 4678 2328 
Q 4678 1225 4090 567 
Q 3503 -91 2522 -91 
Q 1538 -91 948 565 
Q 359 1222 359 2328 
Q 359 3434 948 4092 
Q 1538 4750 2522 4750 
z
" transform="scale(0.015625)"/>
       <path id="DejaVuSans-69" d="M 603 3500 
L 1178 3500 
L 1178 0 
L 603 0 
L 603 3500 
z
M 603 4863 
L 1178 4863 
L 1178 4134 
L 603 4134 
L 603 4863 
z
" transform="scale(0.015625)"/>
       <path id="DejaVuSans-67" d="M 2906 1791 
Q 2906 2416 2648 2759 
Q 2391 3103 1925 3103 
Q 1463 3103 1205 2759 
Q 947 2416 947 1791 
Q 947 1169 1205 825 
Q 1463 481 1925 481 
Q 2391 481 2648 825 
Q 2906 1169 2906 1791 
z
M 3481 434 
Q 3481 -459 3084 -895 
Q 2688 -1331 1869 -1331 
Q 1566 -1331 1297 -1286 
Q 1028 -1241 775 -1147 
L 775 -588 
Q 1028 -725 1275 -790 
Q 1522 -856 1778 -856 
Q 2344 -856 2625 -561 
Q 2906 -266 2906 331 
L 2906 616 
Q 2728 306 2450 153 
Q 2172 0 1784 0 
Q 1141 0 747 490 
Q 353 981 353 1791 
Q 353 2603 747 3093 
Q 1141 3584 1784 3584 
Q 2172 3584 2450 3431 
Q 2728 3278 2906 2969 
L 2906 3500 
L 3481 3500 
L 3481 434 
z
" transform="scale(0.015625)"/>
       <path id="DejaVuSans-61" d="M 2194 1759 
Q 1497 1759 1228 1600 
Q 959 1441 959 1056 
Q 959 750 1161 570 
Q 1363 391 1709 391 
Q 2188 391 2477 730 
Q 2766 1069 2766 1631 
L 2766 1759 
L 2194 1759 
z
M 3341 1997 
L 3341 0 
L 2766 0 
L 2766 531 
Q 2569 213 2275 61 
Q 1981 -91 1556 -91 
Q 1019 -91 701 211 
Q 384 513 384 1019 
Q 384 1609 779 1909 
Q 1175 2209 1959 2209 
L 2766 2209 
L 2766 2266 
Q 2766 2663 2505 2880 
Q 2244 3097 1772 3097 
Q 1472 3097 1187 3025 
Q 903 2953 641 2809 
L 641 3341 
Q 956 3463 1253 3523 
Q 1550 3584 1831 3584 
Q 2591 3584 2966 3190 
Q 3341 2797 3341 1997 
z
" transform="scale(0.015625)"/>
       <path id="DejaVuSans-6c" d="M 603 4863 
L 1178 4863 
L 1178 0 
L 603 0 
L 603 4863 
z
" transform="scale(0.015625)"/>
       <path id="DejaVuSans-6d" d="M 3328 2828 
Q 3544 3216 3844 3400 
Q 4144 3584 4550 3584 
Q 5097 3584 5394 3201 
Q 5691 2819 5691 2113 
L 5691 0 
L 5113 0 
L 5113 2094 
Q 5113 2597 4934 2840 
Q 4756 3084 4391 3084 
Q 3944 3084 3684 2787 
Q 3425 2491 3425 1978 
L 3425 0 
L 2847 0 
L 2847 2094 
Q 2847 2600 2669 2842 
Q 2491 3084 2119 3084 
Q 1678 3084 1418 2786 
Q 1159 2488 1159 1978 
L 1159 0 
L 581 0 
L 581 3500 
L 1159 3500 
L 1159 2956 
Q 1356 3278 1631 3431 
Q 1906 3584 2284 3584 
Q 2666 3584 2933 3390 
Q 3200 3197 3328 2828 
z
" transform="scale(0.015625)"/>
       <path id="DejaVuSans-53" d="M 3425 4513 
L 3425 3897 
Q 3066 4069 2747 4153 
Q 2428 4238 2131 4238 
Q 1616 4238 1336 4038 
Q 1056 3838 1056 3469 
Q 1056 3159 1242 3001 
Q 1428 2844 1947 2747 
L 2328 2669 
Q 3034 2534 3370 2195 
Q 3706 1856 3706 1288 
Q 3706 609 3251 259 
Q 2797 -91 1919 -91 
Q 1588 -91 1214 -16 
Q 841 59 441 206 
L 441 856 
Q 825 641 1194 531 
Q 1563 422 1919 422 
Q 2459 422 2753 634 
Q 3047 847 3047 1241 
Q 3047 1584 2836 1778 
Q 2625 1972 2144 2069 
L 1759 2144 
Q 1053 2284 737 2584 
Q 422 2884 422 3419 
Q 422 4038 858 4394 
Q 1294 4750 2059 4750 
Q 2388 4750 2728 4690 
Q 3069 4631 3425 4513 
z
" transform="scale(0.015625)"/>
      </defs>
      <use xlink:href="#DejaVuSans-4f"/>
      <use xlink:href="#DejaVuSans-72" transform="translate(78.710938 0)"/>
      <use xlink:href="#DejaVuSans-69" transform="translate(119.824219 0)"/>
      <use xlink:href="#DejaVuSans-67" transform="translate(147.607422 0)"/>
      <use xlink:href="#DejaVuSans-69" transform="translate(211.083984 0)"/>
      <use xlink:href="#DejaVuSans-6e" transform="translate(238.867188 0)"/>
      <use xlink:href="#DejaVuSans-61" transform="translate(302.246094 0)"/>
      <use xlink:href="#DejaVuSans-6c" transform="translate(363.525391 0)"/>
      <use xlink:href="#DejaVuSans-20" transform="translate(391.308594 0)"/>
      <use xlink:href="#DejaVuSans-54" transform="translate(423.095703 0)"/>
      <use xlink:href="#DejaVuSans-69" transform="translate(481.054688 0)"/>
      <use xlink:href="#DejaVuSans-6d" transform="translate(508.837891 0)"/>
      <use xlink:href="#DejaVuSans-65" transform="translate(606.25 0)"/>
      <use xlink:href="#DejaVuSans-20" transform="translate(667.773438 0)"/>
      <use xlink:href="#DejaVuSans-53" transform="translate(699.560547 0)"/>
      <use xlink:href="#DejaVuSans-65" transform="translate(763.037109 0)"/>
      <use xlink:href="#DejaVuSans-72" transform="translate(824.560547 0)"/>
      <use xlink:href="#DejaVuSans-69" transform="translate(865.673828 0)"/>
      <use xlink:href="#DejaVuSans-65" transform="translate(893.457031 0)"/>
      <use xlink:href="#DejaVuSans-73" transform="translate(954.980469 0)"/>
     </g>
    </g>
   </g>
  </g>
 </g>
 <defs>
  <clipPath id="p58aae9f80c">
   <rect x="117" y="43.2" width="725.4" height="126"/>
  </clipPath>
  <clipPath id="p5d9d045ad6">
   <rect x="117" y="194.4" width="725.4" height="126"/>
  </clipPath>
 </defs>
</svg>
