<?xml version="1.0" encoding="utf-8" standalone="no"?>
<!DOCTYPE svg PUBLIC "-//W3C//DTD SVG 1.1//EN"
  "http://www.w3.org/Graphics/SVG/1.1/DTD/svg11.dtd">
<svg xmlns:xlink="http://www.w3.org/1999/xlink" width="1008pt" height="432pt" viewBox="0 0 1008 432" xmlns="http://www.w3.org/2000/svg" version="1.1">
 <metadata>
  <rdf:RDF xmlns:dc="http://purl.org/dc/elements/1.1/" xmlns:cc="http://creativecommons.org/ns#" xmlns:rdf="http://www.w3.org/1999/02/22-rdf-syntax-ns#">
   <cc:Work>
    <dc:type rdf:resource="http://purl.org/dc/dcmitype/StillImage"/>
    <dc:date>2025-11-28T18:59:24.620771</dc:date>
    <dc:format>image/svg+xml</dc:format>
    <dc:creator>
     <cc:Agent>
      <dc:title>Matplotlib v3.8.4, https://matplotlib.org/</dc:title>
     </cc:Agent>
    </dc:creator>
   </cc:Work>
  </rdf:RDF>
 </metadata>
 <defs>
  <style type="text/css">*{stroke-linejoin: round; stroke-linecap: butt}</style>
 </defs>
 <g id="figure_1">
  <g id="patch_1">
   <path d="M 0 432 
L 1008 432 
L 1008 0 
L 0 0 
z
" style="fill: #121212"/>
  </g>
  <g id="axes_1">
   <g id="patch_2">
    <path d="M 41.15 387.16 
L 997.2 387.16 
L 997.2 27.6 
L 41.15 27.6 
z
" style="fill: #121212"/>
   </g>
   <g id="matplotlib.axis_1">
    <g id="xtick_1">
     <g id="line2d_1">
      <defs>
       <path id="m1d434774ef" d="M 0 0 
L 0 3.5 
" style="stroke: #ffffff; stroke-width: 0.8"/>
      </defs>
      <g>
       <use xlink:href="#m1d434774ef" x="220.814756" y="387.16" style="fill: #ffffff; stroke: #ffffff; stroke-width: 0.8"/>
      </g>
     </g>
     <g id="text_1">
      <!-- 2021 -->
      <g style="fill: #ffffff" transform="translate(208.089756 401.758438) scale(0.1 -0.1)">
       <defs>
        <path id="DejaVuSans-32" d="M 1228 531 
L 3431 531 
L 3431 0 
L 469 0 
L 469 531 
Q 828 903 1448 1529 
Q 2069 2156 2228 2338 
Q 2531 2678 2651 2914 
Q 2772 3150 2772 3378 
Q 2772 3750 2511 3984 
Q 2250 4219 1831 4219 
Q 1534 4219 1204 4116 
Q 875 4013 500 3803 
L 500 4441 
Q 881 4594 1212 4672 
Q 1544 4750 1819 4750 
Q 2544 4750 2975 4387 
Q 3406 4025 3406 3419 
Q 3406 3131 3298 2873 
Q 3191 2616 2906 2266 
Q 2828 2175 2409 1742 
Q 1991 1309 1228 531 
z
" transform="scale(0.015625)"/>
        <path id="DejaVuSans-30" d="M 2034 4250 
Q 1547 4250 1301 3770 
Q 1056 3291 1056 2328 
Q 1056 1369 1301 889 
Q 1547 409 2034 409 
Q 2525 409 2770 889 
Q 3016 1369 3016 2328 
Q 3016 3291 2770 3770 
Q 2525 4250 2034 4250 
z
M 2034 4750 
Q 2819 4750 3233 4129 
Q 3647 3509 3647 2328 
Q 3647 1150 3233 529 
Q 2819 -91 2034 -91 
Q 1250 -91 836 529 
Q 422 1150 422 2328 
Q 422 3509 836 4129 
Q 1250 4750 2034 4750 
z
" transform="scale(0.015625)"/>
        <path id="DejaVuSans-31" d="M 794 531 
L 1825 531 
L 1825 4091 
L 703 3866 
L 703 4441 
L 1819 4666 
L 2450 4666 
L 2450 531 
L 3481 531 
L 3481 0 
L 794 0 
L 794 531 
z
" transform="scale(0.015625)"/>
       </defs>
       <use xlink:href="#DejaVuSans-32"/>
       <use xlink:href="#DejaVuSans-30" x="63.623047"/>
       <use xlink:href="#DejaVuSans-32" x="127.246094"/>
       <use xlink:href="#DejaVuSans-31" x="190.869141"/>
      </g>
     </g>
    </g>
    <g id="xtick_2">
     <g id="line2d_2">
      <g>
       <use xlink:href="#m1d434774ef" x="402.924269" y="387.16" style="fill: #ffffff; stroke: #ffffff; stroke-width: 0.8"/>
      </g>
     </g>
     <g id="text_2">
      <!-- 2022 -->
      <g style="fill: #ffffff" transform="translate(390.199269 401.758438) scale(0.1 -0.1)">
       <use xlink:href="#DejaVuSans-32"/>
       <use xlink:href="#DejaVuSans-30" x="63.623047"/>
       <use xlink:href="#DejaVuSans-32" x="127.246094"/>
       <use xlink:href="#DejaVuSans-32" x="190.869141"/>
      </g>
     </g>
    </g>
    <g id="xtick_3">
     <g id="line2d_3">
      <g>
       <use xlink:href="#m1d434774ef" x="585.033783" y="387.16" style="fill: #ffffff; stroke: #ffffff; stroke-width: 0.8"/>
      </g>
     </g>
     <g id="text_3">
      <!-- 2023 -->
      <g style="fill: #ffffff" transform="translate(572.308783 401.758438) scale(0.1 -0.1)">
       <defs>
        <path id="DejaVuSans-33" d="M 2597 2516 
Q 3050 2419 3304 2112 
Q 3559 1806 3559 1356 
Q 3559 666 3084 287 
Q 2609 -91 1734 -91 
Q 1441 -91 1130 -33 
Q 819 25 488 141 
L 488 750 
Q 750 597 1062 519 
Q 1375 441 1716 441 
Q 2309 441 2620 675 
Q 2931 909 2931 1356 
Q 2931 1769 2642 2001 
Q 2353 2234 1838 2234 
L 1294 2234 
L 1294 2753 
L 1863 2753 
Q 2328 2753 2575 2939 
Q 2822 3125 2822 3475 
Q 2822 3834 2567 4026 
Q 2313 4219 1838 4219 
Q 1578 4219 1281 4162 
Q 984 4106 628 3988 
L 628 4550 
Q 988 4650 1302 4700 
Q 1616 4750 1894 4750 
Q 2613 4750 3031 4423 
Q 3450 4097 3450 3541 
Q 3450 3153 3228 2886 
Q 3006 2619 2597 2516 
z
" transform="scale(0.015625)"/>
       </defs>
       <use xlink:href="#DejaVuSans-32"/>
       <use xlink:href="#DejaVuSans-30" x="63.623047"/>
       <use xlink:href="#DejaVuSans-32" x="127.246094"/>
       <use xlink:href="#DejaVuSans-33" x="190.869141"/>
      </g>
     </g>
    </g>
    <g id="xtick_4">
     <g id="line2d_4">
      <g>
       <use xlink:href="#m1d434774ef" x="767.143297" y="387.16" style="fill: #ffffff; stroke: #ffffff; stroke-width: 0.8"/>
      </g>
     </g>
     <g id="text_4">
      <!-- 2024 -->
      <g style="fill: #ffffff" transform="translate(754.418297 401.758438) scale(0.1 -0.1)">
       <defs>
        <path id="DejaVuSans-34" d="M 2419 4116 
L 825 1625 
L 2419 1625 
L 2419 4116 
z
M 2253 4666 
L 3047 4666 
L 3047 1625 
L 3713 1625 
L 3713 1100 
L 3047 1100 
L 3047 0 
L 2419 0 
L 2419 1100 
L 313 1100 
L 313 1709 
L 2253 4666 
z
" transform="scale(0.015625)"/>
       </defs>
       <use xlink:href="#DejaVuSans-32"/>
       <use xlink:href="#DejaVuSans-30" x="63.623047"/>
       <use xlink:href="#DejaVuSans-32" x="127.246094"/>
       <use xlink:href="#DejaVuSans-34" x="190.869141"/>
      </g>
     </g>
    </g>
    <g id="xtick_5">
     <g id="line2d_5">
      <g>
       <use xlink:href="#m1d434774ef" x="949.75174" y="387.16" style="fill: #ffffff; stroke: #ffffff; stroke-width: 0.8"/>
      </g>
     </g>
     <g id="text_5">
      <!-- 2025 -->
      <g style="fill: #ffffff" transform="translate(937.02674 401.758438) scale(0.1 -0.1)">
       <defs>
        <path id="DejaVuSans-35" d="M 691 4666 
L 3169 4666 
L 3169 4134 
L 1269 4134 
L 1269 2991 
Q 1406 3038 1543 3061 
Q 1681 3084 1819 3084 
Q 2600 3084 3056 2656 
Q 3513 2228 3513 1497 
Q 3513 744 3044 326 
Q 2575 -91 1722 -91 
Q 1428 -91 1123 -41 
Q 819 9 494 109 
L 494 744 
Q 775 591 1075 516 
Q 1375 441 1709 441 
Q 2250 441 2565 725 
Q 2881 1009 2881 1497 
Q 2881 1984 2565 2268 
Q 2250 2553 1709 2553 
Q 1456 2553 1204 2497 
Q 953 2441 691 2322 
L 691 4666 
z
" transform="scale(0.015625)"/>
       </defs>
       <use xlink:href="#DejaVuSans-32"/>
       <use xlink:href="#DejaVuSans-30" x="63.623047"/>
       <use xlink:href="#DejaVuSans-32" x="127.246094"/>
       <use xlink:href="#DejaVuSans-35" x="190.869141"/>
      </g>
     </g>
    </g>
    <g id="text_6">
     <!-- Date -->
     <g style="fill: #ffffff" transform="translate(504.834063 416.95625) scale(0.12 -0.12)">
      <defs>
       <path id="DejaVuSans-44" d="M 1259 4147 
L 1259 519 
L 2022 519 
Q 2988 519 3436 956 
Q 3884 1394 3884 2338 
Q 3884 3275 3436 3711 
Q 2988 4147 2022 4147 
L 1259 4147 
z
M 628 4666 
L 1925 4666 
Q 3281 4666 3915 4102 
Q 4550 3538 4550 2338 
Q 4550 1131 3912 565 
Q 3275 0 1925 0 
L 628 0 
L 628 4666 
z
" transform="scale(0.015625)"/>
       <path id="DejaVuSans-61" d="M 2194 1759 
Q 1497 1759 1228 1600 
Q 959 1441 959 1056 
Q 959 750 1161 570 
Q 1363 391 1709 391 
Q 2188 391 2477 730 
Q 2766 1069 2766 1631 
L 2766 1759 
L 2194 1759 
z
M 3341 1997 
L 3341 0 
L 2766 0 
L 2766 531 
Q 2569 213 2275 61 
Q 1981 -91 1556 -91 
Q 1019 -91 701 211 
Q 384 513 384 1019 
Q 384 1609 779 1909 
Q 1175 2209 1959 2209 
L 2766 2209 
L 2766 2266 
Q 2766 2663 2505 2880 
Q 2244 3097 1772 3097 
Q 1472 3097 1187 3025 
Q 903 2953 641 2809 
L 641 3341 
Q 956 3463 1253 3523 
Q 1550 3584 1831 3584 
Q 2591 3584 2966 3190 
Q 3341 2797 3341 1997 
z
" transform="scale(0.015625)"/>
       <path id="DejaVuSans-74" d="M 1172 4494 
L 1172 3500 
L 2356 3500 
L 2356 3053 
L 1172 3053 
L 1172 1153 
Q 1172 725 1289 603 
Q 1406 481 1766 481 
L 2356 481 
L 2356 0 
L 1766 0 
Q 1100 0 847 248 
Q 594 497 594 1153 
L 594 3053 
L 172 3053 
L 172 3500 
L 594 3500 
L 594 4494 
L 1172 4494 
z
" transform="scale(0.015625)"/>
       <path id="DejaVuSans-65" d="M 3597 1894 
L 3597 1613 
L 953 1613 
Q 991 1019 1311 708 
Q 1631 397 2203 397 
Q 2534 397 2845 478 
Q 3156 559 3463 722 
L 3463 178 
Q 3153 47 2828 -22 
Q 2503 -91 2169 -91 
Q 1331 -91 842 396 
Q 353 884 353 1716 
Q 353 2575 817 3079 
Q 1281 3584 2069 3584 
Q 2775 3584 3186 3129 
Q 3597 2675 3597 1894 
z
M 3022 2063 
Q 3016 2534 2758 2815 
Q 2500 3097 2075 3097 
Q 1594 3097 1305 2825 
Q 1016 2553 972 2059 
L 3022 2063 
z
" transform="scale(0.015625)"/>
      </defs>
      <use xlink:href="#DejaVuSans-44"/>
      <use xlink:href="#DejaVuSans-61" x="77.001953"/>
      <use xlink:href="#DejaVuSans-74" x="138.28125"/>
      <use xlink:href="#DejaVuSans-65" x="177.490234"/>
     </g>
    </g>
   </g>
   <g id="matplotlib.axis_2">
    <g id="ytick_1">
     <g id="line2d_6">
      <defs>
       <path id="m93d13b4aa6" d="M 0 0 
L -3.5 0 
" style="stroke: #ffffff; stroke-width: 0.8"/>
      </defs>
      <g>
       <use xlink:href="#m93d13b4aa6" x="41.15" y="385.795305" style="fill: #ffffff; stroke: #ffffff; stroke-width: 0.8"/>
      </g>
     </g>
     <g id="text_7">
      <!-- 0 -->
      <g style="fill: #ffffff" transform="translate(27.7875 389.594524) scale(0.1 -0.1)">
       <use xlink:href="#DejaVuSans-30"/>
      </g>
     </g>
    </g>
    <g id="ytick_2">
     <g id="line2d_7">
      <g>
       <use xlink:href="#m93d13b4aa6" x="41.15" y="310.296228" style="fill: #ffffff; stroke: #ffffff; stroke-width: 0.8"/>
      </g>
     </g>
     <g id="text_8">
      <!-- 1 -->
      <g style="fill: #ffffff" transform="translate(27.7875 314.095446) scale(0.1 -0.1)">
       <use xlink:href="#DejaVuSans-31"/>
      </g>
     </g>
    </g>
    <g id="ytick_3">
     <g id="line2d_8">
      <g>
       <use xlink:href="#m93d13b4aa6" x="41.15" y="234.79715" style="fill: #ffffff; stroke: #ffffff; stroke-width: 0.8"/>
      </g>
     </g>
     <g id="text_9">
      <!-- 2 -->
      <g style="fill: #ffffff" transform="translate(27.7875 238.596369) scale(0.1 -0.1)">
       <use xlink:href="#DejaVuSans-32"/>
      </g>
     </g>
    </g>
    <g id="ytick_4">
     <g id="line2d_9">
      <g>
       <use xlink:href="#m93d13b4aa6" x="41.15" y="159.298073" style="fill: #ffffff; stroke: #ffffff; stroke-width: 0.8"/>
      </g>
     </g>
     <g id="text_10">
      <!-- 3 -->
      <g style="fill: #ffffff" transform="translate(27.7875 163.097292) scale(0.1 -0.1)">
       <use xlink:href="#DejaVuSans-33"/>
      </g>
     </g>
    </g>
    <g id="ytick_5">
     <g id="line2d_10">
      <g>
       <use xlink:href="#m93d13b4aa6" x="41.15" y="83.798995" style="fill: #ffffff; stroke: #ffffff; stroke-width: 0.8"/>
      </g>
     </g>
     <g id="text_11">
      <!-- 4 -->
      <g style="fill: #ffffff" transform="translate(27.7875 87.598214) scale(0.1 -0.1)">
       <use xlink:href="#DejaVuSans-34"/>
      </g>
     </g>
    </g>
    <g id="text_12">
     <!-- Daily Ridership -->
     <g style="fill: #ffffff" transform="translate(21.291875 252.67625) rotate(-90) scale(0.12 -0.12)">
      <defs>
       <path id="DejaVuSans-69" d="M 603 3500 
L 1178 3500 
L 1178 0 
L 603 0 
L 603 3500 
z
M 603 4863 
L 1178 4863 
L 1178 4134 
L 603 4134 
L 603 4863 
z
" transform="scale(0.015625)"/>
       <path id="DejaVuSans-6c" d="M 603 4863 
L 1178 4863 
L 1178 0 
L 603 0 
L 603 4863 
z
" transform="scale(0.015625)"/>
       <path id="DejaVuSans-79" d="M 2059 -325 
Q 1816 -950 1584 -1140 
Q 1353 -1331 966 -1331 
L 506 -1331 
L 506 -850 
L 844 -850 
Q 1081 -850 1212 -737 
Q 1344 -625 1503 -206 
L 1606 56 
L 191 3500 
L 800 3500 
L 1894 763 
L 2988 3500 
L 3597 3500 
L 2059 -325 
z
" transform="scale(0.015625)"/>
       <path id="DejaVuSans-20" transform="scale(0.015625)"/>
       <path id="DejaVuSans-52" d="M 2841 2188 
Q 3044 2119 3236 1894 
Q 3428 1669 3622 1275 
L 4263 0 
L 3584 0 
L 2988 1197 
Q 2756 1666 2539 1819 
Q 2322 1972 1947 1972 
L 1259 1972 
L 1259 0 
L 628 0 
L 628 4666 
L 2053 4666 
Q 2853 4666 3247 4331 
Q 3641 3997 3641 3322 
Q 3641 2881 3436 2590 
Q 3231 2300 2841 2188 
z
M 1259 4147 
L 1259 2491 
L 2053 2491 
Q 2509 2491 2742 2702 
Q 2975 2913 2975 3322 
Q 2975 3731 2742 3939 
Q 2509 4147 2053 4147 
L 1259 4147 
z
" transform="scale(0.015625)"/>
       <path id="DejaVuSans-64" d="M 2906 2969 
L 2906 4863 
L 3481 4863 
L 3481 0 
L 2906 0 
L 2906 525 
Q 2725 213 2448 61 
Q 2172 -91 1784 -91 
Q 1150 -91 751 415 
Q 353 922 353 1747 
Q 353 2572 751 3078 
Q 1150 3584 1784 3584 
Q 2172 3584 2448 3432 
Q 2725 3281 2906 2969 
z
M 947 1747 
Q 947 1113 1208 752 
Q 1469 391 1925 391 
Q 2381 391 2643 752 
Q 2906 1113 2906 1747 
Q 2906 2381 2643 2742 
Q 2381 3103 1925 3103 
Q 1469 3103 1208 2742 
Q 947 2381 947 1747 
z
" transform="scale(0.015625)"/>
       <path id="DejaVuSans-72" d="M 2631 2963 
Q 2534 3019 2420 3045 
Q 2306 3072 2169 3072 
Q 1681 3072 1420 2755 
Q 1159 2438 1159 1844 
L 1159 0 
L 581 0 
L 581 3500 
L 1159 3500 
L 1159 2956 
Q 1341 3275 1631 3429 
Q 1922 3584 2338 3584 
Q 2397 3584 2469 3576 
Q 2541 3569 2628 3553 
L 2631 2963 
z
" transform="scale(0.015625)"/>
       <path id="DejaVuSans-73" d="M 2834 3397 
L 2834 2853 
Q 2591 2978 2328 3040 
Q 2066 3103 1784 3103 
Q 1356 3103 1142 2972 
Q 928 2841 928 2578 
Q 928 2378 1081 2264 
Q 1234 2150 1697 2047 
L 1894 2003 
Q 2506 1872 2764 1633 
Q 3022 1394 3022 966 
Q 3022 478 2636 193 
Q 2250 -91 1575 -91 
Q 1294 -91 989 -36 
Q 684 19 347 128 
L 347 722 
Q 666 556 975 473 
Q 1284 391 1588 391 
Q 1994 391 2212 530 
Q 2431 669 2431 922 
Q 2431 1156 2273 1281 
Q 2116 1406 1581 1522 
L 1381 1569 
Q 847 1681 609 1914 
Q 372 2147 372 2553 
Q 372 3047 722 3315 
Q 1072 3584 1716 3584 
Q 2034 3584 2315 3537 
Q 2597 3491 2834 3397 
z
" transform="scale(0.015625)"/>
       <path id="DejaVuSans-68" d="M 3513 2113 
L 3513 0 
L 2938 0 
L 2938 2094 
Q 2938 2591 2744 2837 
Q 2550 3084 2163 3084 
Q 1697 3084 1428 2787 
Q 1159 2491 1159 1978 
L 1159 0 
L 581 0 
L 581 4863 
L 1159 4863 
L 1159 2956 
Q 1366 3272 1645 3428 
Q 1925 3584 2291 3584 
Q 2894 3584 3203 3211 
Q 3513 2838 3513 2113 
z
" transform="scale(0.015625)"/>
       <path id="DejaVuSans-70" d="M 1159 525 
L 1159 -1331 
L 581 -1331 
L 581 3500 
L 1159 3500 
L 1159 2969 
Q 1341 3281 1617 3432 
Q 1894 3584 2278 3584 
Q 2916 3584 3314 3078 
Q 3713 2572 3713 1747 
Q 3713 922 3314 415 
Q 2916 -91 2278 -91 
Q 1894 -91 1617 61 
Q 1341 213 1159 525 
z
M 3116 1747 
Q 3116 2381 2855 2742 
Q 2594 3103 2138 3103 
Q 1681 3103 1420 2742 
Q 1159 2381 1159 1747 
Q 1159 1113 1420 752 
Q 1681 391 2138 391 
Q 2594 391 2855 752 
Q 3116 1113 3116 1747 
z
" transform="scale(0.015625)"/>
      </defs>
      <use xlink:href="#DejaVuSans-44"/>
      <use xlink:href="#DejaVuSans-61" x="77.001953"/>
      <use xlink:href="#DejaVuSans-69" x="138.28125"/>
      <use xlink:href="#DejaVuSans-6c" x="166.064453"/>
      <use xlink:href="#DejaVuSans-79" x="193.847656"/>
      <use xlink:href="#DejaVuSans-20" x="253.027344"/>
      <use xlink:href="#DejaVuSans-52" x="284.814453"/>
      <use xlink:href="#DejaVuSans-69" x="354.296875"/>
      <use xlink:href="#DejaVuSans-64" x="382.080078"/>
      <use xlink:href="#DejaVuSans-65" x="445.556641"/>
      <use xlink:href="#DejaVuSans-72" x="507.080078"/>
      <use xlink:href="#DejaVuSans-73" x="548.193359"/>
      <use xlink:href="#DejaVuSans-68" x="600.292969"/>
      <use xlink:href="#DejaVuSans-69" x="663.671875"/>
      <use xlink:href="#DejaVuSans-70" x="691.455078"/>
     </g>
    </g>
    <g id="text_13">
     <!-- 1e6 -->
     <g style="fill: #ffffff" transform="translate(41.15 24.6) scale(0.1 -0.1)">
      <defs>
       <path id="DejaVuSans-36" d="M 2113 2584 
Q 1688 2584 1439 2293 
Q 1191 2003 1191 1497 
Q 1191 994 1439 701 
Q 1688 409 2113 409 
Q 2538 409 2786 701 
Q 3034 994 3034 1497 
Q 3034 2003 2786 2293 
Q 2538 2584 2113 2584 
z
M 3366 4563 
L 3366 3988 
Q 3128 4100 2886 4159 
Q 2644 4219 2406 4219 
Q 1781 4219 1451 3797 
Q 1122 3375 1075 2522 
Q 1259 2794 1537 2939 
Q 1816 3084 2150 3084 
Q 2853 3084 3261 2657 
Q 3669 2231 3669 1497 
Q 3669 778 3244 343 
Q 2819 -91 2113 -91 
Q 1303 -91 875 529 
Q 447 1150 447 2328 
Q 447 3434 972 4092 
Q 1497 4750 2381 4750 
Q 2619 4750 2861 4703 
Q 3103 4656 3366 4563 
z
" transform="scale(0.015625)"/>
      </defs>
      <use xlink:href="#DejaVuSans-31"/>
      <use xlink:href="#DejaVuSans-65" x="63.623047"/>
      <use xlink:href="#DejaVuSans-36" x="125.146484"/>
     </g>
    </g>
   </g>
   <g id="line2d_11">
    <path d="M 84.606818 349.302298 
L 85.105748 364.483577 
L 85.604679 368.634138 
L 86.103609 352.163939 
L 86.602539 352.954263 
L 87.101469 353.520582 
L 87.600399 355.245736 
L 88.099329 355.574912 
L 88.59826 366.387437 
L 89.09719 370.816364 
L 89.59612 358.365584 
L 90.09505 353.318999 
L 90.59398 354.156737 
L 91.09291 354.068856 
L 91.591841 353.15192 
L 92.090771 366.584338 
L 92.589701 368.852482 
L 93.088631 352.737883 
L 93.587561 353.926616 
L 94.086491 351.157763 
L 94.585422 351.554964 
L 95.084352 352.277037 
L 95.583282 363.493859 
L 96.082212 369.277088 
L 96.581142 350.847688 
L 97.080073 348.857608 
L 98.077933 350.622625 
L 98.576863 348.457312 
L 99.075793 361.192798 
L 99.574723 366.251236 
L 100.073654 347.149894 
L 100.572584 346.378369 
L 101.071514 347.379563 
L 101.570444 345.397787 
L 102.069374 346.078713 
L 102.568304 361.870931 
L 103.067235 365.263557 
L 103.566165 346.469874 
L 104.065095 344.01623 
L 104.564025 343.109863 
L 105.062955 342.957733 
L 105.561886 341.416343 
L 106.060816 358.551916 
L 106.559746 364.095511 
L 107.058676 340.837945 
L 108.056536 338.702831 
L 109.054397 337.937723 
L 109.553327 360.44045 
L 110.052257 361.634468 
L 110.551187 356.05486 
L 111.050117 336.210078 
L 111.549048 334.87382 
L 112.047978 336.112609 
L 112.546908 336.172857 
L 113.045838 353.577055 
L 113.544768 359.79146 
L 114.043698 333.915208 
L 114.542629 333.417065 
L 115.041559 334.326527 
L 115.540489 330.93224 
L 116.039419 332.675966 
L 116.538349 350.748784 
L 117.03728 357.257409 
L 117.53621 325.053126 
L 118.03514 322.201979 
L 118.53407 321.091463 
L 119.033 324.014637 
L 119.53193 318.098453 
L 120.030861 344.62445 
L 120.529791 353.297558 
L 121.028721 318.064177 
L 121.527651 315.379505 
L 122.026581 314.187375 
L 122.525511 314.646334 
L 123.024442 311.283076 
L 123.523372 342.302174 
L 124.022302 351.858696 
L 124.521232 310.292755 
L 125.020162 306.461932 
L 125.519092 305.137149 
L 126.018023 304.347202 
L 126.516953 302.566481 
L 127.015883 339.333324 
L 127.514813 345.335501 
L 128.013743 302.688261 
L 128.512674 301.75547 
L 129.011604 301.195795 
L 129.510534 297.424918 
L 130.508394 341.129673 
L 131.007324 345.502051 
L 131.506255 303.882128 
L 132.005185 298.428905 
L 132.504115 297.289322 
L 133.003045 294.344783 
L 133.501975 307.98354 
L 134.000905 333.476181 
L 134.499836 338.367766 
L 134.998766 297.03104 
L 135.497696 292.09491 
L 135.996626 291.541275 
L 136.495556 291.487293 
L 136.994486 294.647911 
L 137.493417 326.986356 
L 137.992347 341.628798 
L 138.491277 298.46288 
L 138.990207 292.039116 
L 139.489137 292.654509 
L 139.988068 292.644921 
L 140.486998 293.82701 
L 140.985928 324.142456 
L 141.484858 339.97416 
L 141.983788 294.931939 
L 142.482718 292.042816 
L 142.981649 287.9408 
L 143.480579 289.898491 
L 143.979509 290.776772 
L 144.478439 322.189748 
L 144.977369 341.246319 
L 145.476299 289.685282 
L 145.97523 308.243634 
L 146.47416 284.007298 
L 146.97309 285.027139 
L 147.47202 288.862493 
L 147.97095 322.882905 
L 148.46988 335.739945 
L 148.968811 289.513748 
L 149.467741 286.150566 
L 149.966671 287.724797 
L 150.465601 288.305083 
L 150.964531 283.434713 
L 151.463462 320.80653 
L 151.962392 343.934766 
L 152.461322 287.307891 
L 152.960252 282.390485 
L 153.459182 288.239323 
L 153.958112 279.304687 
L 154.457043 281.043129 
L 154.955973 319.165708 
L 155.454903 335.093145 
L 155.953833 287.091964 
L 156.452763 284.136552 
L 156.951693 279.519859 
L 157.450624 283.247022 
L 157.949554 280.95857 
L 158.448484 327.38416 
L 158.947414 329.31739 
L 159.446344 280.303162 
L 159.945275 274.866474 
L 160.444205 273.455018 
L 161.442065 267.383685 
L 161.940995 309.260003 
L 162.439925 323.930682 
L 162.938856 320.038327 
L 163.437786 268.332632 
L 163.936716 264.236052 
L 164.435646 269.250248 
L 164.934576 258.176648 
L 165.433506 303.977106 
L 165.932437 325.64217 
L 166.431367 264.66602 
L 166.930297 259.101964 
L 167.429227 258.435232 
L 167.928157 258.023082 
L 168.427087 255.52595 
L 168.926018 299.956856 
L 169.424948 323.311891 
L 169.923878 263.174309 
L 170.422808 257.55982 
L 170.921738 254.779265 
L 171.420669 255.758412 
L 171.919599 252.79681 
L 172.418529 301.225542 
L 172.917459 321.909571 
L 173.416389 273.359059 
L 173.915319 260.371406 
L 174.91318 249.145146 
L 175.41211 250.605751 
L 175.91104 297.609363 
L 176.40997 321.407427 
L 176.9089 259.048058 
L 177.407831 253.03365 
L 177.906761 252.115355 
L 178.405691 250.047586 
L 178.904621 249.287009 
L 179.403551 297.444246 
L 179.902481 321.736678 
L 180.900342 256.300571 
L 181.399272 246.97651 
L 181.898202 245.838664 
L 182.397132 259.612187 
L 182.896063 294.481209 
L 183.394993 318.086826 
L 183.893923 256.00084 
L 184.392853 251.389507 
L 184.891783 248.919328 
L 185.390713 247.993785 
L 185.889644 246.681611 
L 186.388574 296.282693 
L 186.887504 318.978546 
L 187.386434 258.152714 
L 187.885364 248.746209 
L 188.384294 248.435908 
L 188.883225 257.063942 
L 189.382155 252.311577 
L 189.881085 297.154934 
L 190.380015 326.402068 
L 190.878945 253.829864 
L 191.377875 264.776928 
L 192.375736 250.365362 
L 192.874666 247.079793 
L 193.373596 291.699219 
L 193.872526 315.757076 
L 194.371457 253.474565 
L 194.870387 247.110899 
L 195.369317 263.878489 
L 195.868247 251.658661 
L 196.367177 248.63666 
L 196.866107 294.027913 
L 197.365038 323.821283 
L 197.863968 254.294787 
L 198.362898 250.739007 
L 198.861828 250.82651 
L 199.360758 253.103034 
L 199.859688 249.86503 
L 200.358619 298.37062 
L 200.857549 324.039853 
L 201.356479 261.484187 
L 201.855409 254.751405 
L 202.354339 258.335724 
L 202.853269 336.549069 
L 203.3522 290.404259 
L 204.35006 323.359531 
L 204.84899 275.632261 
L 205.34792 256.967605 
L 205.846851 257.449289 
L 206.345781 254.725509 
L 206.844711 257.323961 
L 207.343641 310.278108 
L 207.842571 319.477444 
L 208.341501 260.721495 
L 208.840432 269.459305 
L 209.339362 257.301462 
L 209.838292 252.816062 
L 210.337222 250.932058 
L 210.836152 303.399236 
L 211.335082 316.982501 
L 211.834013 266.198047 
L 212.332943 251.151156 
L 212.831873 267.331288 
L 213.330803 304.270042 
L 213.829733 254.754274 
L 214.328664 301.777893 
L 214.827594 323.790555 
L 215.326524 256.236246 
L 215.825454 252.845356 
L 216.324384 251.970397 
L 216.823314 286.704276 
L 217.322245 349.162549 
L 217.821175 319.418781 
L 218.320105 328.389582 
L 218.819035 271.779014 
L 219.317965 268.379291 
L 219.816895 266.319072 
L 220.315826 289.535189 
L 220.814756 339.462125 
L 221.313686 311.170658 
L 221.812616 336.480289 
L 222.311546 268.169479 
L 222.810476 265.18417 
L 223.309407 263.967804 
L 223.808337 264.158817 
L 224.307267 263.544028 
L 224.806197 311.020113 
L 225.305127 328.182186 
L 225.804058 267.397123 
L 226.302988 261.944504 
L 226.801918 261.852094 
L 227.300848 261.418427 
L 227.799778 262.949246 
L 228.298708 310.93797 
L 228.797639 325.573164 
L 229.296569 289.384644 
L 229.795499 262.285232 
L 230.294429 266.878596 
L 230.793359 261.007259 
L 231.292289 259.560772 
L 231.79122 310.481125 
L 232.29015 329.839994 
L 232.78908 265.56544 
L 233.28801 268.699784 
L 233.78694 260.445848 
L 234.28587 261.462971 
L 234.784801 271.66486 
L 235.283731 314.628742 
L 235.782661 331.22057 
L 236.281591 341.761978 
L 236.780521 309.844366 
L 237.279452 257.250727 
L 237.778382 250.966561 
L 238.277312 254.350279 
L 239.275172 336.530572 
L 239.774102 261.995466 
L 240.273033 259.978584 
L 240.771963 253.662784 
L 241.270893 256.340359 
L 241.769823 256.961414 
L 242.268753 303.345556 
L 242.767683 321.01604 
L 243.765544 262.918443 
L 244.264474 254.943324 
L 244.763404 281.464187 
L 245.262334 267.562164 
L 245.761264 301.94686 
L 246.260195 322.670904 
L 246.759125 266.351688 
L 247.258055 255.166952 
L 247.756985 249.420869 
L 248.255915 250.035507 
L 248.754846 248.174681 
L 249.253776 304.789929 
L 249.752706 324.635692 
L 250.251636 257.728183 
L 250.750566 253.708839 
L 251.249496 246.391468 
L 251.748427 249.236802 
L 252.247357 247.940407 
L 252.746287 297.621141 
L 253.245217 318.290145 
L 253.744147 255.968149 
L 254.243077 247.324863 
L 254.742008 246.191697 
L 255.739868 241.254964 
L 256.238798 290.864879 
L 256.737728 316.036574 
L 257.236658 255.180089 
L 258.234519 244.88277 
L 258.733449 252.079493 
L 259.232379 241.837515 
L 259.731309 287.087585 
L 260.23024 309.285597 
L 260.72917 249.788398 
L 261.2281 243.889202 
L 261.72703 247.77665 
L 262.22596 240.401598 
L 262.72489 239.45952 
L 263.722751 324.848901 
L 264.221681 254.263681 
L 264.720611 243.740997 
L 265.219541 249.251751 
L 265.718471 246.739972 
L 266.217402 253.090728 
L 267.215262 314.056535 
L 267.714192 248.484906 
L 268.213122 239.161148 
L 268.712052 235.901702 
L 269.210983 233.784481 
L 269.709913 232.779513 
L 270.208843 280.757591 
L 270.707773 317.872862 
L 271.206703 246.43639 
L 271.705634 233.87961 
L 272.204564 233.428654 
L 272.703494 241.838723 
L 273.202424 228.843595 
L 273.701354 278.206402 
L 274.200284 304.067327 
L 274.699215 241.491955 
L 275.198145 228.568854 
L 275.697075 237.370008 
L 276.694935 225.635337 
L 277.692796 311.426675 
L 278.191726 238.166674 
L 279.189586 224.544904 
L 279.688516 232.643615 
L 280.187447 222.756859 
L 280.686377 271.398272 
L 281.185307 298.709309 
L 281.684237 236.985868 
L 282.183167 225.7319 
L 282.682097 229.169222 
L 283.181028 219.701638 
L 283.679958 216.825878 
L 284.178888 276.723751 
L 284.677818 302.151538 
L 285.176748 235.549197 
L 285.675678 223.598976 
L 286.174609 221.035405 
L 286.673539 222.486875 
L 287.172469 214.64086 
L 287.671399 262.185875 
L 288.170329 295.052662 
L 288.669259 233.092079 
L 289.66712 215.352438 
L 290.16605 214.452338 
L 290.66498 209.740818 
L 291.16391 261.579089 
L 291.662841 289.992412 
L 292.161771 225.822046 
L 292.660701 214.341053 
L 293.159631 213.968314 
L 293.658561 208.22004 
L 294.157491 217.23614 
L 294.656422 282.351377 
L 295.155352 305.3755 
L 295.654282 280.877937 
L 296.153212 215.255649 
L 296.652142 208.84472 
L 297.151072 217.136633 
L 297.650003 211.39002 
L 298.647863 282.864091 
L 299.146793 217.940849 
L 299.645723 214.745275 
L 300.144653 205.652543 
L 300.643584 199.024328 
L 301.142514 199.444103 
L 301.641444 251.743824 
L 302.140374 281.609674 
L 302.639304 217.946813 
L 303.138235 199.328816 
L 303.637165 195.579607 
L 304.136095 193.084136 
L 304.635025 191.610696 
L 305.133955 251.081395 
L 305.632885 280.900511 
L 306.131816 214.83761 
L 306.630746 208.004566 
L 307.129676 193.467747 
L 307.628606 193.073416 
L 308.127536 190.802856 
L 308.626466 245.806501 
L 309.125397 268.019236 
L 309.624327 215.744052 
L 310.123257 208.845173 
L 310.622187 208.645176 
L 311.121117 212.716615 
L 311.620047 212.446101 
L 312.118978 269.376634 
L 312.617908 274.924155 
L 313.116838 272.870655 
L 313.615768 211.996278 
L 314.114698 201.799221 
L 314.613629 207.296611 
L 315.112559 210.759225 
L 315.611489 251.277315 
L 316.110419 282.674588 
L 316.609349 216.268771 
L 317.108279 200.254359 
L 318.10614 190.888246 
L 318.60507 194.286686 
L 319.104 256.12715 
L 319.60293 279.69313 
L 320.10186 210.051875 
L 320.600791 199.916425 
L 321.099721 196.702732 
L 321.598651 190.845287 
L 322.097581 193.096745 
L 322.596511 245.940663 
L 323.095441 282.751899 
L 323.594372 210.754092 
L 324.093302 197.957602 
L 324.592232 194.423566 
L 325.091162 202.425864 
L 325.590092 192.693051 
L 326.089023 246.800975 
L 326.587953 283.773855 
L 327.086883 209.586272 
L 327.585813 198.270546 
L 328.084743 194.857987 
L 328.583673 194.843793 
L 329.082604 195.579607 
L 329.581534 251.372369 
L 330.080464 285.088218 
L 330.579394 212.94515 
L 331.078324 201.411911 
L 331.577254 198.86344 
L 332.076185 200.929095 
L 332.575115 202.324846 
L 333.074045 256.071129 
L 333.572975 277.784815 
L 334.071905 213.081577 
L 334.570836 202.512914 
L 335.069766 201.151892 
L 335.568696 201.605944 
L 336.067626 200.344354 
L 336.566556 256.312122 
L 337.065486 329.530373 
L 337.564417 230.820689 
L 338.063347 199.889019 
L 338.562277 197.179357 
L 339.061207 198.54725 
L 339.560137 205.487653 
L 340.059067 260.509569 
L 340.557998 280.204862 
L 341.056928 210.561946 
L 341.555858 194.58755 
L 342.054788 212.566598 
L 342.553718 260.349209 
L 343.052648 205.322914 
L 343.551579 251.585201 
L 344.050509 278.937535 
L 344.549439 270.931915 
L 345.048369 217.154979 
L 345.547299 194.811404 
L 346.54516 171.344479 
L 347.04409 236.073764 
L 347.54302 265.753584 
L 348.04195 170.411839 
L 348.54088 158.446821 
L 349.039811 160.254344 
L 349.538741 194.439496 
L 350.037671 157.142952 
L 350.536601 233.67614 
L 351.035531 265.236642 
L 351.534461 168.115535 
L 352.033392 157.915534 
L 352.532322 157.704061 
L 353.031252 158.082085 
L 353.530182 150.106287 
L 354.029112 225.020624 
L 354.528042 263.888681 
L 355.026973 168.858672 
L 355.525903 164.755524 
L 356.024833 154.487272 
L 356.523763 148.210203 
L 357.022693 147.000708 
L 357.521624 229.990879 
L 358.020554 266.82854 
L 358.519484 169.539598 
L 359.018414 152.415577 
L 360.016274 144.89685 
L 360.515205 146.578517 
L 361.014135 230.818424 
L 361.513065 272.593121 
L 362.510925 151.530803 
L 363.009855 147.410215 
L 363.508786 141.126502 
L 364.007716 142.154648 
L 364.506646 231.62415 
L 365.005576 262.732488 
L 365.504506 160.59039 
L 366.003436 145.843533 
L 366.502367 141.6066 
L 367.001297 139.087196 
L 367.500227 142.249173 
L 367.999157 228.946878 
L 368.498087 265.002293 
L 368.997018 159.6804 
L 369.495948 181.748856 
L 369.994878 136.60456 
L 370.493808 131.6676 
L 370.992738 140.288991 
L 371.491668 231.451786 
L 371.990599 253.915857 
L 372.489529 156.708001 
L 372.988459 170.757172 
L 373.487389 137.121578 
L 373.986319 137.832553 
L 374.485249 137.143775 
L 374.98418 220.009599 
L 375.48311 243.17868 
L 375.98204 154.350392 
L 376.48097 138.199327 
L 376.9799 132.723002 
L 377.47883 165.169259 
L 377.977761 147.317728 
L 378.476691 221.97265 
L 378.975621 257.210108 
L 379.474551 150.920016 
L 379.973481 133.564665 
L 380.472412 131.433704 
L 380.971342 128.173654 
L 381.470272 135.364941 
L 381.969202 224.549585 
L 382.468132 259.394297 
L 382.967062 149.455787 
L 383.465993 137.660717 
L 383.964923 152.858832 
L 384.463853 283.328108 
L 384.962783 228.019447 
L 385.461713 243.825179 
L 385.960643 275.13291 
L 386.459574 159.598937 
L 386.958504 143.653984 
L 387.457434 134.649964 
L 387.956364 132.205757 
L 388.455294 131.054094 
L 388.954225 210.777345 
L 389.453155 254.626832 
L 389.952085 149.040089 
L 390.451015 131.530267 
L 390.949945 130.704534 
L 391.448875 126.561673 
L 391.947806 127.780907 
L 392.446736 214.694388 
L 392.945666 247.641657 
L 393.444596 150.174009 
L 393.943526 138.598491 
L 394.442456 141.014612 
L 394.941387 142.703451 
L 395.440317 150.835532 
L 395.939247 243.783881 
L 396.438177 266.521183 
L 396.937107 180.705761 
L 397.436037 182.149756 
L 397.934968 186.888078 
L 398.433898 198.06768 
L 399.431758 324.57031 
L 399.930688 288.798771 
L 400.429619 234.219658 
L 400.928549 222.081671 
L 401.427479 222.182991 
L 401.926409 219.817001 
L 402.924269 308.188444 
L 403.4232 293.706438 
L 403.92213 222.096016 
L 404.42106 212.951341 
L 404.91999 214.567776 
L 405.41892 205.263723 
L 405.91785 225.590717 
L 406.416781 273.598769 
L 406.915711 302.559686 
L 407.414641 208.574584 
L 407.913571 214.685857 
L 408.412501 200.126162 
L 408.911431 195.22076 
L 409.410362 195.313247 
L 409.909292 277.478591 
L 410.408222 297.791617 
L 410.907152 264.993157 
L 411.406082 193.948827 
L 411.905013 186.317003 
L 412.403943 193.61346 
L 412.902873 192.081207 
L 413.401803 266.231191 
L 413.900733 291.744896 
L 414.399663 194.267207 
L 414.898594 181.853724 
L 415.896454 180.061905 
L 416.395384 181.690873 
L 416.894314 310.345529 
L 417.393244 290.479456 
L 417.892175 191.32765 
L 418.391105 186.84897 
L 418.890035 163.816542 
L 419.388965 165.776045 
L 419.887895 180.005582 
L 420.386825 250.442069 
L 420.885756 285.84268 
L 421.384686 175.588509 
L 421.883616 158.041164 
L 422.382546 152.595642 
L 422.881476 150.805257 
L 423.380407 158.129951 
L 423.879337 232.81092 
L 424.378267 283.881818 
L 424.877197 166.2572 
L 425.376127 156.97708 
L 425.875057 151.699921 
L 426.373988 150.996496 
L 426.872918 162.787263 
L 427.371848 250.49069 
L 427.870778 274.27373 
L 428.369708 239.155938 
L 428.868638 184.249914 
L 429.367569 167.282478 
L 429.866499 170.007919 
L 430.365429 191.337616 
L 430.864359 248.022097 
L 431.363289 279.852961 
L 431.862219 165.656152 
L 432.36115 148.865535 
L 432.86008 143.581732 
L 433.35901 143.632392 
L 433.85794 153.444101 
L 434.35687 238.154217 
L 434.855801 276.736812 
L 435.354731 160.738595 
L 435.853661 140.840587 
L 436.352591 150.724473 
L 436.851521 133.676479 
L 437.350451 144.503576 
L 437.849382 260.172919 
L 438.348312 274.101517 
L 438.847242 158.633681 
L 439.346172 138.467424 
L 439.845102 134.207087 
L 440.344032 146.026543 
L 440.842963 138.503135 
L 441.341893 234.658307 
L 441.840823 260.718022 
L 442.339753 156.6738 
L 442.838683 138.389358 
L 443.337614 138.482373 
L 443.836544 143.278603 
L 444.335474 142.76604 
L 444.834404 232.940175 
L 445.333334 269.975492 
L 445.832264 160.062576 
L 446.331195 137.261176 
L 446.830125 133.924871 
L 447.329055 134.901678 
L 447.827985 141.396713 
L 448.326915 225.100426 
L 448.825845 275.26979 
L 449.324776 149.659332 
L 449.823706 132.386125 
L 450.322636 135.776562 
L 450.821566 136.114118 
L 451.320496 133.042967 
L 451.819426 220.422428 
L 452.318357 256.861907 
L 452.817287 143.765799 
L 453.316217 153.403935 
L 453.815147 142.615495 
L 454.314077 136.822224 
L 454.813008 177.302187 
L 455.311938 235.831035 
L 455.810868 271.592909 
L 456.309798 183.740597 
L 456.808728 162.157223 
L 457.307658 151.89569 
L 457.806589 156.774743 
L 458.305519 160.378918 
L 458.804449 226.553557 
L 459.303379 260.779403 
L 459.802309 157.294252 
L 460.301239 138.033229 
L 460.80017 126.661181 
L 461.2991 128.725627 
L 461.79803 139.846943 
L 462.29696 226.586928 
L 462.79589 258.658407 
L 463.29482 179.469539 
L 463.793751 128.880853 
L 464.292681 131.748308 
L 464.791611 121.358125 
L 465.290541 144.911271 
L 465.789471 246.665001 
L 466.288402 266.345723 
L 466.787332 150.652975 
L 467.286262 128.124353 
L 467.785192 126.04994 
L 468.284122 126.825618 
L 468.783052 140.272154 
L 469.281983 223.544315 
L 469.780913 252.889825 
L 470.279843 153.2549 
L 470.778773 118.828982 
L 471.277703 113.575378 
L 471.776633 124.015315 
L 472.275564 138.768817 
L 472.774494 210.316952 
L 473.273424 252.86876 
L 473.772354 150.860673 
L 474.271284 130.721219 
L 474.770214 127.095451 
L 475.269145 133.548433 
L 475.768075 156.947787 
L 476.267005 244.40252 
L 476.765935 253.276606 
L 477.264865 257.826634 
L 477.763796 146.002006 
L 478.262726 130.510501 
L 478.761656 132.729796 
L 479.260586 137.911374 
L 479.759516 221.356502 
L 480.258446 255.56068 
L 480.757377 152.338492 
L 481.256307 129.685523 
L 481.755237 122.09175 
L 482.254167 136.862993 
L 482.753097 130.900982 
L 483.252027 217.322813 
L 483.750958 259.364022 
L 484.249888 146.562813 
L 484.748818 121.939468 
L 485.247748 119.525008 
L 485.746678 128.371839 
L 486.245608 140.621187 
L 486.744539 220.70638 
L 487.243469 255.501866 
L 488.241329 133.644015 
L 488.740259 132.336371 
L 489.23919 128.533331 
L 489.73812 136.91924 
L 490.23705 213.131708 
L 490.73598 233.892898 
L 491.23491 164.386862 
L 491.73384 140.548783 
L 492.232771 140.479097 
L 492.731701 147.854527 
L 493.230631 172.317964 
L 493.729561 246.341488 
L 494.228491 260.861395 
L 494.727421 264.386447 
L 495.226352 174.185434 
L 495.725282 154.280253 
L 496.224212 150.570077 
L 496.723142 166.672672 
L 497.222072 230.160072 
L 497.721003 258.87826 
L 498.219933 168.61564 
L 498.718863 148.10005 
L 499.217793 141.979566 
L 499.716723 143.963908 
L 500.215653 157.663442 
L 500.714584 227.760183 
L 501.213514 259.340239 
L 501.712444 180.436908 
L 502.211374 146.537521 
L 502.710304 144.882128 
L 503.209234 151.06135 
L 503.708165 163.620244 
L 504.207095 232.630629 
L 504.706025 265.284055 
L 505.204955 179.854811 
L 505.703885 146.085659 
L 506.202815 141.72219 
L 506.701746 147.828781 
L 507.200676 164.368138 
L 507.699606 229.178433 
L 508.198536 261.290003 
L 508.697466 178.983551 
L 509.196397 154.005512 
L 509.695327 149.933318 
L 510.194257 155.59288 
L 510.693187 172.725206 
L 511.192117 234.82886 
L 511.691047 269.352247 
L 512.189978 181.537987 
L 512.688908 158.257394 
L 513.187838 149.14843 
L 513.686768 152.235285 
L 514.185698 162.022608 
L 514.684628 228.061349 
L 515.183559 259.122726 
L 515.682489 176.787661 
L 516.181419 155.833269 
L 516.680349 153.709103 
L 517.179279 153.414581 
L 517.678209 165.433354 
L 518.17714 231.881225 
L 518.67607 263.530438 
L 519.175 187.769907 
L 519.67393 159.855633 
L 520.17286 157.734487 
L 520.671791 152.435131 
L 521.170721 169.592145 
L 521.669651 229.773291 
L 522.168581 261.094309 
L 522.667511 171.651685 
L 523.166441 152.361746 
L 523.665372 148.424167 
L 524.164302 150.64082 
L 524.663232 164.937401 
L 525.162162 225.978027 
L 525.661092 249.719618 
L 526.160022 258.059397 
L 526.658953 154.503655 
L 527.157883 125.734505 
L 527.656813 110.645939 
L 528.155743 122.925939 
L 528.654673 207.854172 
L 529.153603 254.634457 
L 529.652534 130.4461 
L 530.151464 112.612916 
L 530.650394 103.279418 
L 531.149324 102.845072 
L 531.648254 121.370507 
L 532.147185 208.30543 
L 532.646115 246.551073 
L 533.145045 131.36349 
L 533.643975 101.388468 
L 534.142905 92.950843 
L 534.641835 103.963364 
L 535.140766 111.99926 
L 535.639696 206.327128 
L 536.138626 252.929613 
L 536.637556 173.427499 
L 537.136486 143.887654 
L 537.635416 105.516003 
L 538.134347 105.863525 
L 538.633277 121.303993 
L 539.132207 232.306964 
L 539.631137 263.347051 
L 540.130067 131.35979 
L 540.628997 129.27292 
L 541.127928 153.458521 
L 541.626858 95.206226 
L 542.125788 114.672078 
L 542.624718 204.805217 
L 543.123648 241.009139 
L 543.622579 192.765153 
L 544.121509 110.268594 
L 544.620439 100.701049 
L 545.618299 115.601321 
L 546.117229 207.35316 
L 546.61616 251.867265 
L 547.11509 135.553839 
L 547.61402 106.929874 
L 548.11295 97.811322 
L 548.61188 98.075795 
L 549.11081 116.238382 
L 549.609741 202.301894 
L 550.108671 254.387651 
L 550.607601 132.281483 
L 551.106531 105.498789 
L 552.104392 91.878529 
L 552.603322 112.130175 
L 553.102252 201.532181 
L 553.601182 244.162584 
L 554.100112 128.276106 
L 554.599042 105.942346 
L 555.097973 99.795513 
L 555.596903 98.713461 
L 556.095833 115.028585 
L 556.594763 200.826869 
L 557.093693 226.034501 
L 557.592623 124.80496 
L 558.091554 126.705121 
L 558.590484 101.01052 
L 559.089414 98.730448 
L 559.588344 159.697614 
L 560.586204 250.348148 
L 561.085135 129.01728 
L 561.584065 105.419893 
L 562.581925 99.063776 
L 563.080855 118.588819 
L 563.579786 210.377049 
L 564.078716 255.847275 
L 564.577646 131.844645 
L 565.076576 117.857988 
L 565.575506 139.366467 
L 566.074436 281.435497 
L 566.573367 230.368525 
L 567.072297 234.826746 
L 567.571227 274.341453 
L 568.070157 139.217508 
L 568.569087 114.233126 
L 569.068017 116.383416 
L 569.566948 101.126411 
L 570.065878 113.960575 
L 570.564808 212.775051 
L 571.063738 235.515977 
L 571.562668 122.934697 
L 572.061598 102.424693 
L 573.059459 88.970758 
L 573.558389 105.623665 
L 574.057319 184.704041 
L 574.556249 244.945812 
L 575.05518 124.041665 
L 575.55411 101.649393 
L 576.05304 100.622228 
L 576.55197 104.474116 
L 577.0509 138.912114 
L 578.048761 237.273595 
L 578.547691 130.501894 
L 579.046621 115.049271 
L 579.545551 116.774274 
L 580.543411 179.077623 
L 581.042342 279.230698 
L 581.541272 309.658109 
L 582.539132 179.719516 
L 583.038062 163.29741 
L 583.536992 156.320993 
L 584.035923 154.505391 
L 584.534853 240.300957 
L 585.033783 259.296072 
L 585.532713 239.466466 
L 586.031643 146.027071 
L 586.530574 128.113028 
L 587.029504 126.945208 
L 587.528434 141.944006 
L 588.027364 226.028838 
L 588.526294 264.184109 
L 589.025224 148.294611 
L 589.524155 123.875642 
L 590.023085 120.871911 
L 590.522015 123.608979 
L 591.020945 138.911812 
L 591.519875 229.331999 
L 592.018805 257.008677 
L 592.517736 221.79485 
L 593.016666 125.202387 
L 593.515596 113.746157 
L 594.513456 130.918951 
L 595.012386 224.441017 
L 595.511317 265.496132 
L 596.010247 149.089541 
L 596.509177 116.508518 
L 597.008107 120.712684 
L 597.507037 111.806964 
L 598.005968 133.977796 
L 598.504898 216.065301 
L 599.003828 262.173267 
L 599.502758 142.421764 
L 600.001688 109.891175 
L 600.500618 107.750474 
L 600.999549 106.453853 
L 601.498479 144.987223 
L 601.997409 254.24307 
L 602.496339 263.080992 
L 602.995269 131.178819 
L 603.494199 103.53906 
L 603.99313 100.357302 
L 604.49206 102.306915 
L 604.99099 118.564131 
L 605.48992 209.608771 
L 605.98885 253.966441 
L 606.487781 136.396409 
L 606.986711 97.921626 
L 607.485641 101.706093 
L 607.984571 107.673163 
L 608.483501 140.184349 
L 608.982431 214.328897 
L 609.481362 248.07472 
L 609.980292 216.786317 
L 610.479222 134.719952 
L 610.978152 124.994161 
L 611.477082 121.671824 
L 611.976012 140.672526 
L 612.474943 231.502748 
L 612.973873 263.094884 
L 613.472803 133.785727 
L 613.971733 128.186488 
L 614.470663 100.354962 
L 614.969593 101.471442 
L 615.468524 122.920352 
L 615.967454 221.719427 
L 616.466384 252.001804 
L 616.965314 127.058532 
L 617.464244 100.878397 
L 617.963175 95.662845 
L 618.462105 96.810808 
L 618.961035 121.371942 
L 619.459965 217.392348 
L 619.958895 251.891274 
L 620.457825 132.693104 
L 620.956756 115.71623 
L 621.455686 90.415282 
L 621.954616 87.589955 
L 622.453546 109.353999 
L 622.952476 203.248124 
L 623.451406 242.764115 
L 623.950337 125.883012 
L 624.449267 98.81697 
L 624.948197 99.095184 
L 625.447127 100.831889 
L 625.946057 118.958916 
L 626.444987 223.203965 
L 626.943918 239.328303 
L 627.442848 129.30546 
L 627.941778 101.471819 
L 628.440708 93.391304 
L 628.939638 94.347047 
L 629.438569 115.98161 
L 629.937499 213.39067 
L 630.436429 238.597396 
L 630.935359 114.165857 
L 631.434289 90.829318 
L 631.933219 98.901453 
L 632.43215 127.492501 
L 632.93108 149.432231 
L 633.43001 205.099815 
L 633.92894 245.682154 
L 634.42787 148.521334 
L 634.9268 118.691422 
L 635.425731 115.758736 
L 635.924661 111.8617 
L 636.423591 123.706298 
L 636.922521 207.204955 
L 637.421451 245.008174 
L 637.920381 127.676492 
L 638.419312 94.207827 
L 639.417172 83.615306 
L 639.916102 122.133123 
L 640.415032 196.584047 
L 640.913963 240.592233 
L 641.412893 116.92331 
L 641.911823 87.051345 
L 642.410753 84.188797 
L 642.909683 83.811755 
L 643.408613 106.215577 
L 643.907544 221.208977 
L 644.406474 254.117515 
L 644.905404 109.109684 
L 645.404334 86.678681 
L 645.903264 81.488648 
L 646.402194 84.931406 
L 646.901125 101.965961 
L 647.400055 192.283469 
L 647.898985 232.246036 
L 648.397915 116.766423 
L 648.896845 89.419524 
L 649.395775 82.741329 
L 649.894706 82.595389 
L 650.393636 104.697744 
L 650.892566 198.015661 
L 651.391496 240.31115 
L 651.890426 117.513637 
L 652.389357 83.646865 
L 652.888287 75.887749 
L 653.387217 77.596444 
L 653.886147 99.659162 
L 654.385077 211.039705 
L 654.884007 224.776611 
L 655.382938 116.131626 
L 655.881868 89.159203 
L 656.380798 86.799027 
L 656.879728 94.415298 
L 657.378658 121.81195 
L 657.877588 206.429051 
L 658.376519 232.601033 
L 658.875449 238.362292 
L 659.374379 105.3265 
L 659.873309 90.489573 
L 660.372239 91.789289 
L 660.87117 111.998656 
L 661.3701 203.713878 
L 661.86903 235.678224 
L 662.36796 118.218572 
L 662.86689 89.149539 
L 663.36582 103.13514 
L 663.864751 139.024381 
L 664.363681 127.193449 
L 664.862611 188.836634 
L 665.361541 229.08557 
L 665.860471 123.103513 
L 666.359401 86.202886 
L 666.858332 91.871885 
L 667.357262 89.205258 
L 667.856192 129.405119 
L 668.355122 204.633683 
L 668.854052 236.489689 
L 669.352982 186.712769 
L 669.851913 100.19664 
L 670.350843 91.175406 
L 670.849773 100.222159 
L 671.348703 123.770094 
L 671.847633 199.464035 
L 672.346564 217.983204 
L 672.845494 133.528577 
L 673.344424 103.109621 
L 673.843354 111.411273 
L 674.342284 109.949535 
L 674.841214 139.685904 
L 675.340145 216.712932 
L 675.839075 251.123297 
L 676.338005 184.812835 
L 676.836935 250.562943 
L 677.335865 135.260752 
L 677.834795 121.940676 
L 678.333726 137.232259 
L 678.832656 211.483488 
L 679.331586 251.663116 
L 679.830516 143.53915 
L 680.329446 112.966554 
L 680.828376 106.695072 
L 681.327307 110.374142 
L 681.826237 143.489094 
L 682.824097 265.007502 
L 683.323027 138.000387 
L 683.821958 115.144778 
L 684.320888 108.008303 
L 684.819818 105.616945 
L 685.318748 142.148155 
L 685.817678 200.06833 
L 686.316608 235.967159 
L 686.815539 140.017194 
L 687.314469 111.702397 
L 687.813399 102.041233 
L 688.312329 115.507702 
L 688.811259 139.200294 
L 689.310189 215.80732 
L 689.80912 238.388415 
L 690.30805 143.826802 
L 690.80698 114.12101 
L 691.30591 110.955485 
L 691.80484 113.313397 
L 692.30377 142.045779 
L 692.802701 207.288004 
L 693.301631 241.528572 
L 693.800561 156.202535 
L 694.299491 120.789995 
L 694.798421 113.012457 
L 695.297352 126.886017 
L 695.796282 135.763953 
L 696.295212 207.10507 
L 696.794142 238.303478 
L 697.293072 152.291683 
L 697.792002 130.155731 
L 698.290933 125.501062 
L 698.789863 130.2267 
L 699.288793 145.518283 
L 699.787723 207.69585 
L 700.286653 244.564843 
L 700.785583 161.475013 
L 701.284514 132.664339 
L 701.783444 128.128883 
L 702.282374 136.804859 
L 702.781304 156.711852 
L 703.280234 213.515093 
L 703.779164 241.606714 
L 704.278095 150.124557 
L 704.777025 129.016299 
L 705.275955 124.344265 
L 705.774885 125.283322 
L 706.273815 144.478812 
L 706.772746 211.587526 
L 707.271676 233.77746 
L 707.770606 243.870705 
L 708.269536 122.775017 
L 708.768466 105.537369 
L 709.267396 93.78405 
L 709.766327 113.26621 
L 710.265257 202.67116 
L 710.764187 248.218621 
L 711.263117 114.260004 
L 711.762047 82.705769 
L 712.260977 88.440981 
L 712.759908 80.388778 
L 713.258838 106.837916 
L 713.757768 201.114067 
L 714.256698 235.702913 
L 714.755628 118.600522 
L 715.254559 73.206399 
L 715.753489 70.219656 
L 716.252419 73.28288 
L 716.751349 95.847742 
L 717.250279 226.028687 
L 717.749209 257.321847 
L 718.74707 87.828834 
L 719.246 78.141849 
L 719.74493 79.915021 
L 720.24386 199.516809 
L 721.241721 235.14739 
L 721.740651 110.269802 
L 722.239581 83.179827 
L 722.738511 81.769731 
L 723.237441 81.511071 
L 723.736371 110.999123 
L 724.235302 219.736745 
L 724.734232 231.434874 
L 725.233162 171.857042 
L 725.732092 87.202116 
L 726.231022 79.532995 
L 726.729953 75.901943 
L 727.228883 116.945808 
L 727.727813 218.20351 
L 728.226743 233.808414 
L 728.725673 109.382311 
L 729.224603 82.187694 
L 730.222464 74.621101 
L 730.721394 112.765273 
L 731.220324 201.699336 
L 731.719254 236.060174 
L 732.218184 108.922068 
L 732.717115 80.735922 
L 733.216045 74.738276 
L 733.714975 73.046417 
L 734.213905 94.856137 
L 735.211765 247.295343 
L 735.710696 112.203409 
L 736.209626 82.55462 
L 736.708556 80.512974 
L 737.207486 77.547143 
L 737.706416 98.277076 
L 738.205347 190.39501 
L 738.704277 211.357933 
L 739.203207 107.49506 
L 739.702137 109.840288 
L 740.201067 78.813867 
L 740.699997 82.21812 
L 741.198928 113.140428 
L 741.697858 190.362923 
L 742.196788 238.778217 
L 742.695718 114.222934 
L 743.194648 84.420579 
L 743.693578 81.047658 
L 744.192509 80.109959 
L 744.691439 103.323736 
L 745.190369 198.742792 
L 745.689299 239.030685 
L 746.188229 110.428803 
L 746.687159 100.789912 
L 747.18609 130.732921 
L 747.68502 262.85374 
L 748.18395 200.249452 
L 748.68288 225.466219 
L 749.18181 258.466866 
L 749.680741 119.774759 
L 750.179671 90.10498 
L 750.678601 81.316435 
L 751.177531 78.342602 
L 751.676461 104.699329 
L 752.674322 247.786087 
L 753.173252 105.734648 
L 753.672182 84.415445 
L 754.171112 75.036648 
L 754.670042 77.122008 
L 755.168972 94.069814 
L 756.166833 247.024377 
L 756.665763 110.771569 
L 757.164693 79.905206 
L 757.663623 78.706054 
L 758.162553 74.581237 
L 758.661484 95.483686 
L 759.659344 238.21673 
L 760.158274 135.532322 
L 760.657204 90.372398 
L 761.156135 95.999118 
L 761.655065 108.302372 
L 762.153995 131.188407 
L 762.652925 216.362163 
L 763.151855 260.686086 
L 763.650785 289.629941 
L 764.149716 184.315296 
L 764.648646 165.941463 
L 765.646506 144.282439 
L 766.145436 201.561626 
L 766.644366 239.730939 
L 767.143297 261.317409 
L 767.642227 137.355096 
L 768.141157 117.389894 
L 768.640087 116.965514 
L 769.139017 139.436983 
L 769.637948 239.141518 
L 770.136878 274.627595 
L 770.635808 136.366964 
L 771.134738 132.632403 
L 771.633668 117.232554 
L 772.132598 107.28555 
L 772.631529 131.68119 
L 773.130459 222.159888 
L 773.629389 254.158436 
L 774.128319 221.968573 
L 774.627249 141.485198 
L 775.126179 112.720955 
L 775.62511 109.782003 
L 776.12404 145.979432 
L 776.62297 232.982077 
L 777.1219 266.799246 
L 777.62083 136.241636 
L 778.11976 110.035831 
L 779.117621 107.817743 
L 779.616551 130.546816 
L 780.115481 213.41249 
L 780.614411 268.841421 
L 781.113342 136.831737 
L 781.612272 105.125975 
L 782.111202 98.250727 
L 782.610132 97.790333 
L 783.109062 124.734067 
L 783.607992 210.33258 
L 784.106923 254.267834 
L 784.605853 122.924354 
L 785.104783 94.555122 
L 785.603713 91.274008 
L 786.102643 91.071595 
L 786.601573 117.975842 
L 787.100504 205.696182 
L 787.599434 251.807243 
L 788.098364 131.01642 
L 788.597294 214.141811 
L 789.096224 86.545048 
L 789.595154 93.24695 
L 790.094085 121.20607 
L 790.593015 221.354766 
L 791.091945 246.058593 
L 791.590875 216.319431 
L 792.089805 122.228781 
L 792.588736 114.641576 
L 793.087666 114.891554 
L 793.586596 142.754639 
L 794.085526 211.482431 
L 794.584456 254.390897 
L 795.083386 126.148013 
L 795.582317 98.713234 
L 796.081247 100.093433 
L 796.580177 90.904365 
L 797.079107 115.987423 
L 797.578037 227.698047 
L 798.076967 237.70311 
L 798.575898 118.55341 
L 799.074828 97.425522 
L 799.573758 93.946902 
L 800.072688 91.822207 
L 800.571618 107.56467 
L 801.070548 225.085326 
L 801.569479 249.62683 
L 802.068409 121.730638 
L 802.567339 84.671916 
L 803.066269 81.915822 
L 803.565199 80.085498 
L 804.06413 110.751185 
L 804.56306 193.041932 
L 805.06199 236.89829 
L 805.56092 122.86486 
L 806.05985 93.680617 
L 806.55878 92.398038 
L 807.057711 94.199144 
L 807.556641 115.360705 
L 808.055571 245.075368 
L 808.554501 241.369647 
L 809.053431 115.228053 
L 809.552361 86.079596 
L 810.051292 82.741178 
L 810.550222 90.552614 
L 811.049152 131.172024 
L 811.548082 195.041677 
L 812.047012 239.606819 
L 812.545942 134.9882 
L 813.044873 91.344298 
L 813.543803 92.080867 
L 814.042733 76.193747 
L 814.541663 98.838412 
L 815.040593 198.774502 
L 815.539524 242.374162 
L 816.038454 121.041256 
L 816.537384 80.577148 
L 817.036314 99.506956 
L 817.535244 83.762378 
L 818.034174 108.831545 
L 818.533105 194.396688 
L 819.032035 229.596396 
L 819.530965 106.133359 
L 820.029895 81.268719 
L 820.528825 82.194187 
L 821.027755 86.348901 
L 821.526686 106.012183 
L 822.025616 194.214509 
L 822.524546 240.970181 
L 823.023476 142.712662 
L 823.522406 119.871096 
L 824.021336 113.393879 
L 824.520267 104.644744 
L 825.019197 126.713426 
L 825.518127 196.535803 
L 826.017057 228.383504 
L 826.515987 134.858568 
L 827.014918 111.055219 
L 827.513848 81.323305 
L 828.012778 79.175281 
L 828.511708 100.341749 
L 829.010638 192.241491 
L 829.509568 243.164411 
L 830.008499 110.064747 
L 830.507429 76.375851 
L 831.006359 77.194563 
L 831.505289 77.266211 
L 832.004219 108.164964 
L 832.503149 185.829959 
L 833.00208 245.452184 
L 833.50101 106.217238 
L 833.99994 74.99165 
L 834.49887 75.145669 
L 834.9978 75.869629 
L 835.496731 97.621819 
L 835.995661 182.599504 
L 836.494591 225.625145 
L 836.993521 107.803097 
L 837.492451 81.567469 
L 837.991381 75.945506 
L 838.989242 115.263689 
L 839.488172 208.586966 
L 840.486032 259.871149 
L 840.984962 96.952369 
L 841.483893 83.28832 
L 841.982823 85.312072 
L 842.481753 107.30737 
L 842.980683 201.11301 
L 843.479613 236.455336 
L 843.978543 113.131066 
L 844.477474 85.324605 
L 844.976404 79.877347 
L 845.475334 100.837325 
L 845.974264 102.491661 
L 846.473194 183.969661 
L 846.972125 224.638674 
L 847.471055 106.281715 
L 847.969985 84.144404 
L 848.468915 85.478095 
L 848.967845 88.559892 
L 849.466775 120.260369 
L 849.965706 202.195894 
L 850.464636 242.55838 
L 850.963566 134.753021 
L 851.462496 89.775578 
L 851.961426 155.800956 
L 852.460356 94.535191 
L 852.959287 121.520977 
L 853.458217 205.714377 
L 853.957147 241.683723 
L 854.456077 123.976207 
L 854.955007 96.524591 
L 855.453937 91.265854 
L 855.952868 100.649559 
L 856.451798 119.832289 
L 856.950728 200.445296 
L 857.449658 234.625843 
L 857.948588 138.645602 
L 858.447519 118.372061 
L 858.946449 128.391997 
L 859.445379 235.382721 
L 859.944309 181.89238 
L 860.443239 227.18103 
L 860.942169 249.551784 
L 861.4411 142.025092 
L 861.94003 113.618715 
L 862.43896 107.065169 
L 862.93789 107.352518 
L 863.43682 139.587227 
L 863.93575 219.449471 
L 864.434681 244.636945 
L 864.933611 139.683412 
L 865.432541 114.440296 
L 865.931471 110.091096 
L 866.430401 111.142798 
L 866.929331 131.14643 
L 867.428262 214.43905 
L 867.927192 244.030385 
L 868.426122 141.529893 
L 868.925052 113.496104 
L 869.423982 109.735042 
L 869.922913 111.103161 
L 870.421843 137.49024 
L 870.920773 211.622859 
L 871.419703 246.017597 
L 871.918633 144.026044 
L 872.417563 114.735422 
L 872.916494 115.784708 
L 873.415424 118.176519 
L 873.914354 147.674612 
L 874.413284 219.669174 
L 874.912214 253.455917 
L 875.411144 142.491903 
L 875.910075 124.373634 
L 876.409005 120.698943 
L 876.907935 122.287142 
L 877.406865 156.181773 
L 877.905795 207.888902 
L 878.404725 240.931601 
L 878.903656 146.525139 
L 879.402586 122.18182 
L 879.901516 118.176141 
L 880.400446 121.87537 
L 880.899376 144.293915 
L 881.398307 215.451795 
L 881.897237 256.46161 
L 882.396167 153.517939 
L 882.895097 123.368968 
L 883.394027 121.650382 
L 883.892957 126.991187 
L 884.391888 143.468483 
L 884.890818 209.684345 
L 885.389748 241.907804 
L 885.888678 150.729078 
L 886.387608 123.277387 
L 886.886538 120.289662 
L 887.385469 126.172098 
L 887.884399 147.803942 
L 888.383329 222.867994 
L 888.882259 237.111197 
L 889.381189 234.234984 
L 889.88012 111.778651 
L 890.37905 93.700397 
L 890.87798 81.283215 
L 891.37691 99.27993 
L 891.87584 198.584848 
L 892.37477 227.168119 
L 892.873701 98.042349 
L 893.372631 70.027586 
L 893.871561 67.588815 
L 894.370491 66.267053 
L 894.869421 90.487308 
L 895.368351 181.459015 
L 895.867282 222.586156 
L 896.366212 97.281017 
L 896.865142 69.50619 
L 897.364072 66.216166 
L 897.863002 64.532839 
L 898.361932 88.85381 
L 898.860863 178.578121 
L 899.359793 224.838067 
L 899.858723 91.439049 
L 900.357653 59.35934 
L 900.856583 58.435458 
L 901.355514 61.472182 
L 901.854444 87.922528 
L 902.353374 192.670024 
L 902.852304 237.865206 
L 903.351234 95.188937 
L 903.850164 70.257254 
L 904.349095 78.659547 
L 904.848025 111.920288 
L 905.346955 121.046163 
L 906.344815 229.867513 
L 906.843745 95.346202 
L 907.342676 64.399507 
L 907.841606 60.151854 
L 908.340536 58.947644 
L 908.839466 93.722292 
L 909.338396 190.469528 
L 909.837326 223.213402 
L 910.336257 154.250884 
L 910.835187 62.295499 
L 911.334117 56.836991 
L 911.833047 60.42199 
L 912.331977 81.458675 
L 912.830908 177.995419 
L 913.329838 221.473375 
L 913.828768 95.704067 
L 914.327698 67.273682 
L 914.826628 62.915498 
L 915.325558 60.784536 
L 915.824489 82.304869 
L 916.323419 172.24322 
L 916.822349 219.041776 
L 917.321279 85.069796 
L 917.820209 55.200624 
L 918.319139 52.24408 
L 918.81807 58.108773 
L 919.317 100.342806 
L 919.81593 173.106401 
L 920.31486 189.281021 
L 920.81379 87.596674 
L 921.31272 110.96009 
L 921.811651 75.236569 
L 922.310581 66.268865 
L 922.809511 85.92218 
L 923.308441 176.627074 
L 923.807371 225.952886 
L 924.805232 63.927714 
L 925.304162 58.806989 
L 925.803092 61.408385 
L 926.302022 84.81627 
L 926.800952 175.218412 
L 927.299883 227.110891 
L 927.798813 91.276575 
L 928.297743 62.815386 
L 928.796673 61.228924 
L 929.295603 67.359524 
L 929.794533 94.756931 
L 930.293464 180.419393 
L 930.792394 229.133587 
L 931.291324 90.275835 
L 931.790254 81.533344 
L 932.289184 105.661263 
L 932.788114 271.531453 
L 933.287045 183.646601 
L 934.284905 242.838406 
L 934.783835 97.857301 
L 935.282765 65.645846 
L 935.781696 55.495675 
L 936.280626 57.007166 
L 936.779556 74.65719 
L 937.278486 157.998885 
L 937.777416 208.451747 
L 938.276346 88.226186 
L 938.775277 55.557584 
L 939.274207 64.521967 
L 939.773137 43.943636 
L 940.272067 70.298854 
L 940.770997 149.97741 
L 941.269927 209.321044 
L 941.768858 93.874347 
L 942.267788 58.024743 
L 942.766718 61.693469 
L 943.265648 64.511548 
L 943.764578 95.701878 
L 944.263509 186.075859 
L 944.762439 230.178645 
L 945.261369 142.92421 
L 945.760299 193.544907 
L 946.259229 281.72934 
L 946.758159 170.420672 
L 947.25709 147.106029 
L 947.75602 214.524817 
L 948.25495 225.578562 
L 948.75388 135.440893 
L 949.25281 168.803709 
L 949.75174 251.455871 
L 950.250671 130.840659 
L 950.749601 128.115368 
L 951.248531 210.97772 
L 951.747461 250.574947 
L 952.246391 126.343405 
L 952.745321 100.292826 
L 953.244252 96.587331 
L 953.743182 103.852834 
L 953.743182 103.852834 
" clip-path="url(#p75740d8f9b)" style="fill: none; stroke: #ffffff; stroke-opacity: 0.7; stroke-width: 1.5; stroke-linecap: square"/>
   </g>
   <g id="patch_3">
    <path d="M 41.15 387.16 
L 41.15 27.6 
" style="fill: none; stroke: #ffffff; stroke-width: 0.8; stroke-linejoin: miter; stroke-linecap: square"/>
   </g>
   <g id="patch_4">
    <path d="M 997.2 387.16 
L 997.2 27.6 
" style="fill: none; stroke: #ffffff; stroke-width: 0.8; stroke-linejoin: miter; stroke-linecap: square"/>
   </g>
   <g id="patch_5">
    <path d="M 41.15 387.16 
L 997.2 387.16 
" style="fill: none; stroke: #ffffff; stroke-width: 0.8; stroke-linejoin: miter; stroke-linecap: square"/>
   </g>
   <g id="patch_6">
    <path d="M 41.15 27.6 
L 997.2 27.6 
" style="fill: none; stroke: #ffffff; stroke-width: 0.8; stroke-linejoin: miter; stroke-linecap: square"/>
   </g>
   <g id="text_14">
    <!-- NYC Subway Ridership - Anomaly Detection with TimeGPT -->
    <g style="fill: #ffffff" transform="translate(316.064531 21.6) scale(0.14 -0.14)">
     <defs>
      <path id="DejaVuSans-4e" d="M 628 4666 
L 1478 4666 
L 3547 763 
L 3547 4666 
L 4159 4666 
L 4159 0 
L 3309 0 
L 1241 3903 
L 1241 0 
L 628 0 
L 628 4666 
z
" transform="scale(0.015625)"/>
      <path id="DejaVuSans-59" d="M -13 4666 
L 666 4666 
L 1959 2747 
L 3244 4666 
L 3922 4666 
L 2272 2222 
L 2272 0 
L 1638 0 
L 1638 2222 
L -13 4666 
z
" transform="scale(0.015625)"/>
      <path id="DejaVuSans-43" d="M 4122 4306 
L 4122 3641 
Q 3803 3938 3442 4084 
Q 3081 4231 2675 4231 
Q 1875 4231 1450 3742 
Q 1025 3253 1025 2328 
Q 1025 1406 1450 917 
Q 1875 428 2675 428 
Q 3081 428 3442 575 
Q 3803 722 4122 1019 
L 4122 359 
Q 3791 134 3420 21 
Q 3050 -91 2638 -91 
Q 1578 -91 968 557 
Q 359 1206 359 2328 
Q 359 3453 968 4101 
Q 1578 4750 2638 4750 
Q 3056 4750 3426 4639 
Q 3797 4528 4122 4306 
z
" transform="scale(0.015625)"/>
      <path id="DejaVuSans-53" d="M 3425 4513 
L 3425 3897 
Q 3066 4069 2747 4153 
Q 2428 4238 2131 4238 
Q 1616 4238 1336 4038 
Q 1056 3838 1056 3469 
Q 1056 3159 1242 3001 
Q 1428 2844 1947 2747 
L 2328 2669 
Q 3034 2534 3370 2195 
Q 3706 1856 3706 1288 
Q 3706 609 3251 259 
Q 2797 -91 1919 -91 
Q 1588 -91 1214 -16 
Q 841 59 441 206 
L 441 856 
Q 825 641 1194 531 
Q 1563 422 1919 422 
Q 2459 422 2753 634 
Q 3047 847 3047 1241 
Q 3047 1584 2836 1778 
Q 2625 1972 2144 2069 
L 1759 2144 
Q 1053 2284 737 2584 
Q 422 2884 422 3419 
Q 422 4038 858 4394 
Q 1294 4750 2059 4750 
Q 2388 4750 2728 4690 
Q 3069 4631 3425 4513 
z
" transform="scale(0.015625)"/>
      <path id="DejaVuSans-75" d="M 544 1381 
L 544 3500 
L 1119 3500 
L 1119 1403 
Q 1119 906 1312 657 
Q 1506 409 1894 409 
Q 2359 409 2629 706 
Q 2900 1003 2900 1516 
L 2900 3500 
L 3475 3500 
L 3475 0 
L 2900 0 
L 2900 538 
Q 2691 219 2414 64 
Q 2138 -91 1772 -91 
Q 1169 -91 856 284 
Q 544 659 544 1381 
z
M 1991 3584 
L 1991 3584 
z
" transform="scale(0.015625)"/>
      <path id="DejaVuSans-62" d="M 3116 1747 
Q 3116 2381 2855 2742 
Q 2594 3103 2138 3103 
Q 1681 3103 1420 2742 
Q 1159 2381 1159 1747 
Q 1159 1113 1420 752 
Q 1681 391 2138 391 
Q 2594 391 2855 752 
Q 3116 1113 3116 1747 
z
M 1159 2969 
Q 1341 3281 1617 3432 
Q 1894 3584 2278 3584 
Q 2916 3584 3314 3078 
Q 3713 2572 3713 1747 
Q 3713 922 3314 415 
Q 2916 -91 2278 -91 
Q 1894 -91 1617 61 
Q 1341 213 1159 525 
L 1159 0 
L 581 0 
L 581 4863 
L 1159 4863 
L 1159 2969 
z
" transform="scale(0.015625)"/>
      <path id="DejaVuSans-77" d="M 269 3500 
L 844 3500 
L 1563 769 
L 2278 3500 
L 2956 3500 
L 3675 769 
L 4391 3500 
L 4966 3500 
L 4050 0 
L 3372 0 
L 2619 2869 
L 1863 0 
L 1184 0 
L 269 3500 
z
" transform="scale(0.015625)"/>
      <path id="DejaVuSans-2d" d="M 313 2009 
L 1997 2009 
L 1997 1497 
L 313 1497 
L 313 2009 
z
" transform="scale(0.015625)"/>
      <path id="DejaVuSans-41" d="M 2188 4044 
L 1331 1722 
L 3047 1722 
L 2188 4044 
z
M 1831 4666 
L 2547 4666 
L 4325 0 
L 3669 0 
L 3244 1197 
L 1141 1197 
L 716 0 
L 50 0 
L 1831 4666 
z
" transform="scale(0.015625)"/>
      <path id="DejaVuSans-6e" d="M 3513 2113 
L 3513 0 
L 2938 0 
L 2938 2094 
Q 2938 2591 2744 2837 
Q 2550 3084 2163 3084 
Q 1697 3084 1428 2787 
Q 1159 2491 1159 1978 
L 1159 0 
L 581 0 
L 581 3500 
L 1159 3500 
L 1159 2956 
Q 1366 3272 1645 3428 
Q 1925 3584 2291 3584 
Q 2894 3584 3203 3211 
Q 3513 2838 3513 2113 
z
" transform="scale(0.015625)"/>
      <path id="DejaVuSans-6f" d="M 1959 3097 
Q 1497 3097 1228 2736 
Q 959 2375 959 1747 
Q 959 1119 1226 758 
Q 1494 397 1959 397 
Q 2419 397 2687 759 
Q 2956 1122 2956 1747 
Q 2956 2369 2687 2733 
Q 2419 3097 1959 3097 
z
M 1959 3584 
Q 2709 3584 3137 3096 
Q 3566 2609 3566 1747 
Q 3566 888 3137 398 
Q 2709 -91 1959 -91 
Q 1206 -91 779 398 
Q 353 888 353 1747 
Q 353 2609 779 3096 
Q 1206 3584 1959 3584 
z
" transform="scale(0.015625)"/>
      <path id="DejaVuSans-6d" d="M 3328 2828 
Q 3544 3216 3844 3400 
Q 4144 3584 4550 3584 
Q 5097 3584 5394 3201 
Q 5691 2819 5691 2113 
L 5691 0 
L 5113 0 
L 5113 2094 
Q 5113 2597 4934 2840 
Q 4756 3084 4391 3084 
Q 3944 3084 3684 2787 
Q 3425 2491 3425 1978 
L 3425 0 
L 2847 0 
L 2847 2094 
Q 2847 2600 2669 2842 
Q 2491 3084 2119 3084 
Q 1678 3084 1418 2786 
Q 1159 2488 1159 1978 
L 1159 0 
L 581 0 
L 581 3500 
L 1159 3500 
L 1159 2956 
Q 1356 3278 1631 3431 
Q 1906 3584 2284 3584 
Q 2666 3584 2933 3390 
Q 3200 3197 3328 2828 
z
" transform="scale(0.015625)"/>
      <path id="DejaVuSans-63" d="M 3122 3366 
L 3122 2828 
Q 2878 2963 2633 3030 
Q 2388 3097 2138 3097 
Q 1578 3097 1268 2742 
Q 959 2388 959 1747 
Q 959 1106 1268 751 
Q 1578 397 2138 397 
Q 2388 397 2633 464 
Q 2878 531 3122 666 
L 3122 134 
Q 2881 22 2623 -34 
Q 2366 -91 2075 -91 
Q 1284 -91 818 406 
Q 353 903 353 1747 
Q 353 2603 823 3093 
Q 1294 3584 2113 3584 
Q 2378 3584 2631 3529 
Q 2884 3475 3122 3366 
z
" transform="scale(0.015625)"/>
      <path id="DejaVuSans-54" d="M -19 4666 
L 3928 4666 
L 3928 4134 
L 2272 4134 
L 2272 0 
L 1638 0 
L 1638 4134 
L -19 4134 
L -19 4666 
z
" transform="scale(0.015625)"/>
      <path id="DejaVuSans-47" d="M 3809 666 
L 3809 1919 
L 2778 1919 
L 2778 2438 
L 4434 2438 
L 4434 434 
Q 4069 175 3628 42 
Q 3188 -91 2688 -91 
Q 1594 -91 976 548 
Q 359 1188 359 2328 
Q 359 3472 976 4111 
Q 1594 4750 2688 4750 
Q 3144 4750 3555 4637 
Q 3966 4525 4313 4306 
L 4313 3634 
Q 3963 3931 3569 4081 
Q 3175 4231 2741 4231 
Q 1884 4231 1454 3753 
Q 1025 3275 1025 2328 
Q 1025 1384 1454 906 
Q 1884 428 2741 428 
Q 3075 428 3337 486 
Q 3600 544 3809 666 
z
" transform="scale(0.015625)"/>
      <path id="DejaVuSans-50" d="M 1259 4147 
L 1259 2394 
L 2053 2394 
Q 2494 2394 2734 2622 
Q 2975 2850 2975 3272 
Q 2975 3691 2734 3919 
Q 2494 4147 2053 4147 
L 1259 4147 
z
M 628 4666 
L 2053 4666 
Q 2838 4666 3239 4311 
Q 3641 3956 3641 3272 
Q 3641 2581 3239 2228 
Q 2838 1875 2053 1875 
L 1259 1875 
L 1259 0 
L 628 0 
L 628 4666 
z
" transform="scale(0.015625)"/>
     </defs>
     <use xlink:href="#DejaVuSans-4e"/>
     <use xlink:href="#DejaVuSans-59" x="74.804688"/>
     <use xlink:href="#DejaVuSans-43" x="130.388672"/>
     <use xlink:href="#DejaVuSans-20" x="200.212891"/>
     <use xlink:href="#DejaVuSans-53" x="232"/>
     <use xlink:href="#DejaVuSans-75" x="295.476562"/>
     <use xlink:href="#DejaVuSans-62" x="358.855469"/>
     <use xlink:href="#DejaVuSans-77" x="422.332031"/>
     <use xlink:href="#DejaVuSans-61" x="504.119141"/>
     <use xlink:href="#DejaVuSans-79" x="565.398438"/>
     <use xlink:href="#DejaVuSans-20" x="624.578125"/>
     <use xlink:href="#DejaVuSans-52" x="656.365234"/>
     <use xlink:href="#DejaVuSans-69" x="725.847656"/>
     <use xlink:href="#DejaVuSans-64" x="753.630859"/>
     <use xlink:href="#DejaVuSans-65" x="817.107422"/>
     <use xlink:href="#DejaVuSans-72" x="878.630859"/>
     <use xlink:href="#DejaVuSans-73" x="919.744141"/>
     <use xlink:href="#DejaVuSans-68" x="971.84375"/>
     <use xlink:href="#DejaVuSans-69" x="1035.222656"/>
     <use xlink:href="#DejaVuSans-70" x="1063.005859"/>
     <use xlink:href="#DejaVuSans-20" x="1126.482422"/>
     <use xlink:href="#DejaVuSans-2d" x="1158.269531"/>
     <use xlink:href="#DejaVuSans-20" x="1194.353516"/>
     <use xlink:href="#DejaVuSans-41" x="1226.140625"/>
     <use xlink:href="#DejaVuSans-6e" x="1294.548828"/>
     <use xlink:href="#DejaVuSans-6f" x="1357.927734"/>
     <use xlink:href="#DejaVuSans-6d" x="1419.109375"/>
     <use xlink:href="#DejaVuSans-61" x="1516.521484"/>
     <use xlink:href="#DejaVuSans-6c" x="1577.800781"/>
     <use xlink:href="#DejaVuSans-79" x="1605.583984"/>
     <use xlink:href="#DejaVuSans-20" x="1664.763672"/>
     <use xlink:href="#DejaVuSans-44" x="1696.550781"/>
     <use xlink:href="#DejaVuSans-65" x="1773.552734"/>
     <use xlink:href="#DejaVuSans-74" x="1835.076172"/>
     <use xlink:href="#DejaVuSans-65" x="1874.285156"/>
     <use xlink:href="#DejaVuSans-63" x="1935.808594"/>
     <use xlink:href="#DejaVuSans-74" x="1990.789062"/>
     <use xlink:href="#DejaVuSans-69" x="2029.998047"/>
     <use xlink:href="#DejaVuSans-6f" x="2057.78125"/>
     <use xlink:href="#DejaVuSans-6e" x="2118.962891"/>
     <use xlink:href="#DejaVuSans-20" x="2182.341797"/>
     <use xlink:href="#DejaVuSans-77" x="2214.128906"/>
     <use xlink:href="#DejaVuSans-69" x="2295.916016"/>
     <use xlink:href="#DejaVuSans-74" x="2323.699219"/>
     <use xlink:href="#DejaVuSans-68" x="2362.908203"/>
     <use xlink:href="#DejaVuSans-20" x="2426.287109"/>
     <use xlink:href="#DejaVuSans-54" x="2458.074219"/>
     <use xlink:href="#DejaVuSans-69" x="2516.033203"/>
     <use xlink:href="#DejaVuSans-6d" x="2543.816406"/>
     <use xlink:href="#DejaVuSans-65" x="2641.228516"/>
     <use xlink:href="#DejaVuSans-47" x="2702.751953"/>
     <use xlink:href="#DejaVuSans-50" x="2780.242188"/>
     <use xlink:href="#DejaVuSans-54" x="2840.544922"/>
    </g>
   </g>
   <g id="PathCollection_1">
    <defs>
     <path id="mf3886e9b89" d="M 0 3.535534 
C 0.937635 3.535534 1.836992 3.163008 2.5 2.5 
C 3.163008 1.836992 3.535534 0.937635 3.535534 0 
C 3.535534 -0.937635 3.163008 -1.836992 2.5 -2.5 
C 1.836992 -3.163008 0.937635 -3.535534 0 -3.535534 
C -0.937635 -3.535534 -1.836992 -3.163008 -2.5 -2.5 
C -3.163008 -1.836992 -3.535534 -0.937635 -3.535534 0 
C -3.535534 0.937635 -3.163008 1.836992 -2.5 2.5 
C -1.836992 3.163008 -0.937635 3.535534 0 3.535534 
z
" style="stroke: #98fe09"/>
    </defs>
    <g clip-path="url(#p75740d8f9b)">
     <use xlink:href="#mf3886e9b89" x="202.853269" y="336.549069" style="fill: #98fe09; stroke: #98fe09"/>
     <use xlink:href="#mf3886e9b89" x="217.322245" y="349.162549" style="fill: #98fe09; stroke: #98fe09"/>
     <use xlink:href="#mf3886e9b89" x="236.281591" y="341.761978" style="fill: #98fe09; stroke: #98fe09"/>
     <use xlink:href="#mf3886e9b89" x="348.04195" y="170.411839" style="fill: #98fe09; stroke: #98fe09"/>
     <use xlink:href="#mf3886e9b89" x="384.463853" y="283.328108" style="fill: #98fe09; stroke: #98fe09"/>
     <use xlink:href="#mf3886e9b89" x="399.431758" y="324.57031" style="fill: #98fe09; stroke: #98fe09"/>
     <use xlink:href="#mf3886e9b89" x="428.369708" y="239.155938" style="fill: #98fe09; stroke: #98fe09"/>
     <use xlink:href="#mf3886e9b89" x="477.264865" y="257.826634" style="fill: #98fe09; stroke: #98fe09"/>
     <use xlink:href="#mf3886e9b89" x="494.727421" y="264.386447" style="fill: #98fe09; stroke: #98fe09"/>
     <use xlink:href="#mf3886e9b89" x="526.160022" y="258.059397" style="fill: #98fe09; stroke: #98fe09"/>
     <use xlink:href="#mf3886e9b89" x="566.074436" y="281.435497" style="fill: #98fe09; stroke: #98fe09"/>
     <use xlink:href="#mf3886e9b89" x="581.541272" y="309.658109" style="fill: #98fe09; stroke: #98fe09"/>
     <use xlink:href="#mf3886e9b89" x="582.040202" y="248.927407" style="fill: #98fe09; stroke: #98fe09"/>
     <use xlink:href="#mf3886e9b89" x="609.980292" y="216.786317" style="fill: #98fe09; stroke: #98fe09"/>
     <use xlink:href="#mf3886e9b89" x="658.875449" y="238.362292" style="fill: #98fe09; stroke: #98fe09"/>
     <use xlink:href="#mf3886e9b89" x="669.352982" y="186.712769" style="fill: #98fe09; stroke: #98fe09"/>
     <use xlink:href="#mf3886e9b89" x="676.836935" y="250.562943" style="fill: #98fe09; stroke: #98fe09"/>
     <use xlink:href="#mf3886e9b89" x="707.770606" y="243.870705" style="fill: #98fe09; stroke: #98fe09"/>
     <use xlink:href="#mf3886e9b89" x="720.24386" y="199.516809" style="fill: #98fe09; stroke: #98fe09"/>
     <use xlink:href="#mf3886e9b89" x="725.233162" y="171.857042" style="fill: #98fe09; stroke: #98fe09"/>
     <use xlink:href="#mf3886e9b89" x="747.68502" y="262.85374" style="fill: #98fe09; stroke: #98fe09"/>
     <use xlink:href="#mf3886e9b89" x="763.650785" y="289.629941" style="fill: #98fe09; stroke: #98fe09"/>
     <use xlink:href="#mf3886e9b89" x="764.149716" y="184.315296" style="fill: #98fe09; stroke: #98fe09"/>
     <use xlink:href="#mf3886e9b89" x="764.648646" y="165.941463" style="fill: #98fe09; stroke: #98fe09"/>
     <use xlink:href="#mf3886e9b89" x="769.637948" y="239.141518" style="fill: #98fe09; stroke: #98fe09"/>
     <use xlink:href="#mf3886e9b89" x="777.62083" y="136.241636" style="fill: #98fe09; stroke: #98fe09"/>
     <use xlink:href="#mf3886e9b89" x="788.597294" y="214.141811" style="fill: #98fe09; stroke: #98fe09"/>
     <use xlink:href="#mf3886e9b89" x="791.590875" y="216.319431" style="fill: #98fe09; stroke: #98fe09"/>
     <use xlink:href="#mf3886e9b89" x="840.486032" y="259.871149" style="fill: #98fe09; stroke: #98fe09"/>
     <use xlink:href="#mf3886e9b89" x="851.961426" y="155.800956" style="fill: #98fe09; stroke: #98fe09"/>
     <use xlink:href="#mf3886e9b89" x="859.445379" y="235.382721" style="fill: #98fe09; stroke: #98fe09"/>
     <use xlink:href="#mf3886e9b89" x="889.381189" y="234.234984" style="fill: #98fe09; stroke: #98fe09"/>
     <use xlink:href="#mf3886e9b89" x="910.336257" y="154.250884" style="fill: #98fe09; stroke: #98fe09"/>
     <use xlink:href="#mf3886e9b89" x="932.788114" y="271.531453" style="fill: #98fe09; stroke: #98fe09"/>
     <use xlink:href="#mf3886e9b89" x="945.261369" y="142.92421" style="fill: #98fe09; stroke: #98fe09"/>
     <use xlink:href="#mf3886e9b89" x="945.760299" y="193.544907" style="fill: #98fe09; stroke: #98fe09"/>
     <use xlink:href="#mf3886e9b89" x="946.259229" y="281.72934" style="fill: #98fe09; stroke: #98fe09"/>
     <use xlink:href="#mf3886e9b89" x="946.758159" y="170.420672" style="fill: #98fe09; stroke: #98fe09"/>
     <use xlink:href="#mf3886e9b89" x="949.75174" y="251.455871" style="fill: #98fe09; stroke: #98fe09"/>
     <use xlink:href="#mf3886e9b89" x="951.747461" y="250.574947" style="fill: #98fe09; stroke: #98fe09"/>
    </g>
   </g>
   <g id="legend_1">
    <g id="patch_7">
     <path d="M 48.15 64.95625 
L 169.6 64.95625 
Q 171.6 64.95625 171.6 62.95625 
L 171.6 34.6 
Q 171.6 32.6 169.6 32.6 
L 48.15 32.6 
Q 46.15 32.6 46.15 34.6 
L 46.15 62.95625 
Q 46.15 64.95625 48.15 64.95625 
z
" style="fill: #121212; opacity: 0.8; stroke: #ffffff; stroke-linejoin: miter"/>
    </g>
    <g id="line2d_12">
     <path d="M 50.15 40.698438 
L 60.15 40.698438 
L 70.15 40.698438 
" style="fill: none; stroke: #ffffff; stroke-opacity: 0.7; stroke-width: 1.5; stroke-linecap: square"/>
    </g>
    <g id="text_15">
     <!-- Subway Ridership -->
     <g style="fill: #ffffff" transform="translate(78.15 44.198438) scale(0.1 -0.1)">
      <use xlink:href="#DejaVuSans-53"/>
      <use xlink:href="#DejaVuSans-75" x="63.476562"/>
      <use xlink:href="#DejaVuSans-62" x="126.855469"/>
      <use xlink:href="#DejaVuSans-77" x="190.332031"/>
      <use xlink:href="#DejaVuSans-61" x="272.119141"/>
      <use xlink:href="#DejaVuSans-79" x="333.398438"/>
      <use xlink:href="#DejaVuSans-20" x="392.578125"/>
      <use xlink:href="#DejaVuSans-52" x="424.365234"/>
      <use xlink:href="#DejaVuSans-69" x="493.847656"/>
      <use xlink:href="#DejaVuSans-64" x="521.630859"/>
      <use xlink:href="#DejaVuSans-65" x="585.107422"/>
      <use xlink:href="#DejaVuSans-72" x="646.630859"/>
      <use xlink:href="#DejaVuSans-73" x="687.744141"/>
      <use xlink:href="#DejaVuSans-68" x="739.84375"/>
      <use xlink:href="#DejaVuSans-69" x="803.222656"/>
      <use xlink:href="#DejaVuSans-70" x="831.005859"/>
     </g>
    </g>
    <g id="PathCollection_2">
     <g>
      <use xlink:href="#mf3886e9b89" x="60.15" y="56.251563" style="fill: #98fe09; stroke: #98fe09"/>
     </g>
    </g>
    <g id="text_16">
     <!-- Anomalies (40) -->
     <g style="fill: #ffffff" transform="translate(78.15 58.876563) scale(0.1 -0.1)">
      <defs>
       <path id="DejaVuSans-28" d="M 1984 4856 
Q 1566 4138 1362 3434 
Q 1159 2731 1159 2009 
Q 1159 1288 1364 580 
Q 1569 -128 1984 -844 
L 1484 -844 
Q 1016 -109 783 600 
Q 550 1309 550 2009 
Q 550 2706 781 3412 
Q 1013 4119 1484 4856 
L 1984 4856 
z
" transform="scale(0.015625)"/>
       <path id="DejaVuSans-29" d="M 513 4856 
L 1013 4856 
Q 1481 4119 1714 3412 
Q 1947 2706 1947 2009 
Q 1947 1309 1714 600 
Q 1481 -109 1013 -844 
L 513 -844 
Q 928 -128 1133 580 
Q 1338 1288 1338 2009 
Q 1338 2731 1133 3434 
Q 928 4138 513 4856 
z
" transform="scale(0.015625)"/>
      </defs>
      <use xlink:href="#DejaVuSans-41"/>
      <use xlink:href="#DejaVuSans-6e" x="68.408203"/>
      <use xlink:href="#DejaVuSans-6f" x="131.787109"/>
      <use xlink:href="#DejaVuSans-6d" x="192.96875"/>
      <use xlink:href="#DejaVuSans-61" x="290.380859"/>
      <use xlink:href="#DejaVuSans-6c" x="351.660156"/>
      <use xlink:href="#DejaVuSans-69" x="379.443359"/>
      <use xlink:href="#DejaVuSans-65" x="407.226562"/>
      <use xlink:href="#DejaVuSans-73" x="468.75"/>
      <use xlink:href="#DejaVuSans-20" x="520.849609"/>
      <use xlink:href="#DejaVuSans-28" x="552.636719"/>
      <use xlink:href="#DejaVuSans-34" x="591.650391"/>
      <use xlink:href="#DejaVuSans-30" x="655.273438"/>
      <use xlink:href="#DejaVuSans-29" x="718.896484"/>
     </g>
    </g>
   </g>
  </g>
 </g>
 <defs>
  <clipPath id="p75740d8f9b">
   <rect x="41.15" y="27.6" width="956.05" height="359.56"/>
  </clipPath>
 </defs>
</svg>
