<?xml version="1.0" encoding="utf-8" standalone="no"?>
<!DOCTYPE svg PUBLIC "-//W3C//DTD SVG 1.1//EN"
  "http://www.w3.org/Graphics/SVG/1.1/DTD/svg11.dtd">
<svg xmlns:xlink="http://www.w3.org/1999/xlink" width="864pt" height="432pt" viewBox="0 0 864 432" xmlns="http://www.w3.org/2000/svg" version="1.1">
 <metadata>
  <rdf:RDF xmlns:dc="http://purl.org/dc/elements/1.1/" xmlns:cc="http://creativecommons.org/ns#" xmlns:rdf="http://www.w3.org/1999/02/22-rdf-syntax-ns#">
   <cc:Work>
    <dc:type rdf:resource="http://purl.org/dc/dcmitype/StillImage"/>
    <dc:date>2025-11-28T18:00:02.106743</dc:date>
    <dc:format>image/svg+xml</dc:format>
    <dc:creator>
     <cc:Agent>
      <dc:title>Matplotlib v3.8.4, https://matplotlib.org/</dc:title>
     </cc:Agent>
    </dc:creator>
   </cc:Work>
  </rdf:RDF>
 </metadata>
 <defs>
  <style type="text/css">*{stroke-linejoin: round; stroke-linecap: butt}</style>
 </defs>
 <g id="figure_1">
  <g id="patch_1">
   <path d="M 0 432 
L 864 432 
L 864 0 
L 0 0 
z
" style="fill: #121212"/>
  </g>
  <g id="axes_1">
   <g id="patch_2">
    <path d="M 50.6 387.16 
L 853.2 387.16 
L 853.2 27.6 
L 50.6 27.6 
z
" style="fill: #121212"/>
   </g>
   <g id="matplotlib.axis_1">
    <g id="xtick_1">
     <g id="line2d_1">
      <defs>
       <path id="mdbba128fa8" d="M 0 0 
L 0 3.5 
" style="stroke: #ffffff; stroke-width: 0.8"/>
      </defs>
      <g>
       <use xlink:href="#mdbba128fa8" x="87.081818" y="387.16" style="fill: #ffffff; stroke: #ffffff; stroke-width: 0.8"/>
      </g>
     </g>
     <g id="text_1">
      <!-- 2022-01 -->
      <g style="fill: #ffffff" transform="translate(66.190412 401.758438) scale(0.1 -0.1)">
       <defs>
        <path id="DejaVuSans-32" d="M 1228 531 
L 3431 531 
L 3431 0 
L 469 0 
L 469 531 
Q 828 903 1448 1529 
Q 2069 2156 2228 2338 
Q 2531 2678 2651 2914 
Q 2772 3150 2772 3378 
Q 2772 3750 2511 3984 
Q 2250 4219 1831 4219 
Q 1534 4219 1204 4116 
Q 875 4013 500 3803 
L 500 4441 
Q 881 4594 1212 4672 
Q 1544 4750 1819 4750 
Q 2544 4750 2975 4387 
Q 3406 4025 3406 3419 
Q 3406 3131 3298 2873 
Q 3191 2616 2906 2266 
Q 2828 2175 2409 1742 
Q 1991 1309 1228 531 
z
" transform="scale(0.015625)"/>
        <path id="DejaVuSans-30" d="M 2034 4250 
Q 1547 4250 1301 3770 
Q 1056 3291 1056 2328 
Q 1056 1369 1301 889 
Q 1547 409 2034 409 
Q 2525 409 2770 889 
Q 3016 1369 3016 2328 
Q 3016 3291 2770 3770 
Q 2525 4250 2034 4250 
z
M 2034 4750 
Q 2819 4750 3233 4129 
Q 3647 3509 3647 2328 
Q 3647 1150 3233 529 
Q 2819 -91 2034 -91 
Q 1250 -91 836 529 
Q 422 1150 422 2328 
Q 422 3509 836 4129 
Q 1250 4750 2034 4750 
z
" transform="scale(0.015625)"/>
        <path id="DejaVuSans-2d" d="M 313 2009 
L 1997 2009 
L 1997 1497 
L 313 1497 
L 313 2009 
z
" transform="scale(0.015625)"/>
        <path id="DejaVuSans-31" d="M 794 531 
L 1825 531 
L 1825 4091 
L 703 3866 
L 703 4441 
L 1819 4666 
L 2450 4666 
L 2450 531 
L 3481 531 
L 3481 0 
L 794 0 
L 794 531 
z
" transform="scale(0.015625)"/>
       </defs>
       <use xlink:href="#DejaVuSans-32"/>
       <use xlink:href="#DejaVuSans-30" x="63.623047"/>
       <use xlink:href="#DejaVuSans-32" x="127.246094"/>
       <use xlink:href="#DejaVuSans-32" x="190.869141"/>
       <use xlink:href="#DejaVuSans-2d" x="254.492188"/>
       <use xlink:href="#DejaVuSans-30" x="290.576172"/>
       <use xlink:href="#DejaVuSans-31" x="354.199219"/>
      </g>
     </g>
    </g>
    <g id="xtick_2">
     <g id="line2d_2">
      <g>
       <use xlink:href="#mdbba128fa8" x="166.390119" y="387.16" style="fill: #ffffff; stroke: #ffffff; stroke-width: 0.8"/>
      </g>
     </g>
     <g id="text_2">
      <!-- 2022-05 -->
      <g style="fill: #ffffff" transform="translate(145.498712 401.758438) scale(0.1 -0.1)">
       <defs>
        <path id="DejaVuSans-35" d="M 691 4666 
L 3169 4666 
L 3169 4134 
L 1269 4134 
L 1269 2991 
Q 1406 3038 1543 3061 
Q 1681 3084 1819 3084 
Q 2600 3084 3056 2656 
Q 3513 2228 3513 1497 
Q 3513 744 3044 326 
Q 2575 -91 1722 -91 
Q 1428 -91 1123 -41 
Q 819 9 494 109 
L 494 744 
Q 775 591 1075 516 
Q 1375 441 1709 441 
Q 2250 441 2565 725 
Q 2881 1009 2881 1497 
Q 2881 1984 2565 2268 
Q 2250 2553 1709 2553 
Q 1456 2553 1204 2497 
Q 953 2441 691 2322 
L 691 4666 
z
" transform="scale(0.015625)"/>
       </defs>
       <use xlink:href="#DejaVuSans-32"/>
       <use xlink:href="#DejaVuSans-30" x="63.623047"/>
       <use xlink:href="#DejaVuSans-32" x="127.246094"/>
       <use xlink:href="#DejaVuSans-32" x="190.869141"/>
       <use xlink:href="#DejaVuSans-2d" x="254.492188"/>
       <use xlink:href="#DejaVuSans-30" x="290.576172"/>
       <use xlink:href="#DejaVuSans-35" x="354.199219"/>
      </g>
     </g>
    </g>
    <g id="xtick_3">
     <g id="line2d_3">
      <g>
       <use xlink:href="#mdbba128fa8" x="247.681126" y="387.16" style="fill: #ffffff; stroke: #ffffff; stroke-width: 0.8"/>
      </g>
     </g>
     <g id="text_3">
      <!-- 2022-09 -->
      <g style="fill: #ffffff" transform="translate(226.78972 401.758438) scale(0.1 -0.1)">
       <defs>
        <path id="DejaVuSans-39" d="M 703 97 
L 703 672 
Q 941 559 1184 500 
Q 1428 441 1663 441 
Q 2288 441 2617 861 
Q 2947 1281 2994 2138 
Q 2813 1869 2534 1725 
Q 2256 1581 1919 1581 
Q 1219 1581 811 2004 
Q 403 2428 403 3163 
Q 403 3881 828 4315 
Q 1253 4750 1959 4750 
Q 2769 4750 3195 4129 
Q 3622 3509 3622 2328 
Q 3622 1225 3098 567 
Q 2575 -91 1691 -91 
Q 1453 -91 1209 -44 
Q 966 3 703 97 
z
M 1959 2075 
Q 2384 2075 2632 2365 
Q 2881 2656 2881 3163 
Q 2881 3666 2632 3958 
Q 2384 4250 1959 4250 
Q 1534 4250 1286 3958 
Q 1038 3666 1038 3163 
Q 1038 2656 1286 2365 
Q 1534 2075 1959 2075 
z
" transform="scale(0.015625)"/>
       </defs>
       <use xlink:href="#DejaVuSans-32"/>
       <use xlink:href="#DejaVuSans-30" x="63.623047"/>
       <use xlink:href="#DejaVuSans-32" x="127.246094"/>
       <use xlink:href="#DejaVuSans-32" x="190.869141"/>
       <use xlink:href="#DejaVuSans-2d" x="254.492188"/>
       <use xlink:href="#DejaVuSans-30" x="290.576172"/>
       <use xlink:href="#DejaVuSans-39" x="354.199219"/>
      </g>
     </g>
    </g>
    <g id="xtick_4">
     <g id="line2d_4">
      <g>
       <use xlink:href="#mdbba128fa8" x="328.311232" y="387.16" style="fill: #ffffff; stroke: #ffffff; stroke-width: 0.8"/>
      </g>
     </g>
     <g id="text_4">
      <!-- 2023-01 -->
      <g style="fill: #ffffff" transform="translate(307.419826 401.758438) scale(0.1 -0.1)">
       <defs>
        <path id="DejaVuSans-33" d="M 2597 2516 
Q 3050 2419 3304 2112 
Q 3559 1806 3559 1356 
Q 3559 666 3084 287 
Q 2609 -91 1734 -91 
Q 1441 -91 1130 -33 
Q 819 25 488 141 
L 488 750 
Q 750 597 1062 519 
Q 1375 441 1716 441 
Q 2309 441 2620 675 
Q 2931 909 2931 1356 
Q 2931 1769 2642 2001 
Q 2353 2234 1838 2234 
L 1294 2234 
L 1294 2753 
L 1863 2753 
Q 2328 2753 2575 2939 
Q 2822 3125 2822 3475 
Q 2822 3834 2567 4026 
Q 2313 4219 1838 4219 
Q 1578 4219 1281 4162 
Q 984 4106 628 3988 
L 628 4550 
Q 988 4650 1302 4700 
Q 1616 4750 1894 4750 
Q 2613 4750 3031 4423 
Q 3450 4097 3450 3541 
Q 3450 3153 3228 2886 
Q 3006 2619 2597 2516 
z
" transform="scale(0.015625)"/>
       </defs>
       <use xlink:href="#DejaVuSans-32"/>
       <use xlink:href="#DejaVuSans-30" x="63.623047"/>
       <use xlink:href="#DejaVuSans-32" x="127.246094"/>
       <use xlink:href="#DejaVuSans-33" x="190.869141"/>
       <use xlink:href="#DejaVuSans-2d" x="254.492188"/>
       <use xlink:href="#DejaVuSans-30" x="290.576172"/>
       <use xlink:href="#DejaVuSans-31" x="354.199219"/>
      </g>
     </g>
    </g>
    <g id="xtick_5">
     <g id="line2d_5">
      <g>
       <use xlink:href="#mdbba128fa8" x="407.619532" y="387.16" style="fill: #ffffff; stroke: #ffffff; stroke-width: 0.8"/>
      </g>
     </g>
     <g id="text_5">
      <!-- 2023-05 -->
      <g style="fill: #ffffff" transform="translate(386.728126 401.758438) scale(0.1 -0.1)">
       <use xlink:href="#DejaVuSans-32"/>
       <use xlink:href="#DejaVuSans-30" x="63.623047"/>
       <use xlink:href="#DejaVuSans-32" x="127.246094"/>
       <use xlink:href="#DejaVuSans-33" x="190.869141"/>
       <use xlink:href="#DejaVuSans-2d" x="254.492188"/>
       <use xlink:href="#DejaVuSans-30" x="290.576172"/>
       <use xlink:href="#DejaVuSans-35" x="354.199219"/>
      </g>
     </g>
    </g>
    <g id="xtick_6">
     <g id="line2d_6">
      <g>
       <use xlink:href="#mdbba128fa8" x="488.91054" y="387.16" style="fill: #ffffff; stroke: #ffffff; stroke-width: 0.8"/>
      </g>
     </g>
     <g id="text_6">
      <!-- 2023-09 -->
      <g style="fill: #ffffff" transform="translate(468.019134 401.758438) scale(0.1 -0.1)">
       <use xlink:href="#DejaVuSans-32"/>
       <use xlink:href="#DejaVuSans-30" x="63.623047"/>
       <use xlink:href="#DejaVuSans-32" x="127.246094"/>
       <use xlink:href="#DejaVuSans-33" x="190.869141"/>
       <use xlink:href="#DejaVuSans-2d" x="254.492188"/>
       <use xlink:href="#DejaVuSans-30" x="290.576172"/>
       <use xlink:href="#DejaVuSans-39" x="354.199219"/>
      </g>
     </g>
    </g>
    <g id="xtick_7">
     <g id="line2d_7">
      <g>
       <use xlink:href="#mdbba128fa8" x="569.540646" y="387.16" style="fill: #ffffff; stroke: #ffffff; stroke-width: 0.8"/>
      </g>
     </g>
     <g id="text_7">
      <!-- 2024-01 -->
      <g style="fill: #ffffff" transform="translate(548.649239 401.758438) scale(0.1 -0.1)">
       <defs>
        <path id="DejaVuSans-34" d="M 2419 4116 
L 825 1625 
L 2419 1625 
L 2419 4116 
z
M 2253 4666 
L 3047 4666 
L 3047 1625 
L 3713 1625 
L 3713 1100 
L 3047 1100 
L 3047 0 
L 2419 0 
L 2419 1100 
L 313 1100 
L 313 1709 
L 2253 4666 
z
" transform="scale(0.015625)"/>
       </defs>
       <use xlink:href="#DejaVuSans-32"/>
       <use xlink:href="#DejaVuSans-30" x="63.623047"/>
       <use xlink:href="#DejaVuSans-32" x="127.246094"/>
       <use xlink:href="#DejaVuSans-34" x="190.869141"/>
       <use xlink:href="#DejaVuSans-2d" x="254.492188"/>
       <use xlink:href="#DejaVuSans-30" x="290.576172"/>
       <use xlink:href="#DejaVuSans-31" x="354.199219"/>
      </g>
     </g>
    </g>
    <g id="xtick_8">
     <g id="line2d_8">
      <g>
       <use xlink:href="#mdbba128fa8" x="649.509848" y="387.16" style="fill: #ffffff; stroke: #ffffff; stroke-width: 0.8"/>
      </g>
     </g>
     <g id="text_8">
      <!-- 2024-05 -->
      <g style="fill: #ffffff" transform="translate(628.618442 401.758438) scale(0.1 -0.1)">
       <use xlink:href="#DejaVuSans-32"/>
       <use xlink:href="#DejaVuSans-30" x="63.623047"/>
       <use xlink:href="#DejaVuSans-32" x="127.246094"/>
       <use xlink:href="#DejaVuSans-34" x="190.869141"/>
       <use xlink:href="#DejaVuSans-2d" x="254.492188"/>
       <use xlink:href="#DejaVuSans-30" x="290.576172"/>
       <use xlink:href="#DejaVuSans-35" x="354.199219"/>
      </g>
     </g>
    </g>
    <g id="xtick_9">
     <g id="line2d_9">
      <g>
       <use xlink:href="#mdbba128fa8" x="730.800856" y="387.16" style="fill: #ffffff; stroke: #ffffff; stroke-width: 0.8"/>
      </g>
     </g>
     <g id="text_9">
      <!-- 2024-09 -->
      <g style="fill: #ffffff" transform="translate(709.90945 401.758438) scale(0.1 -0.1)">
       <use xlink:href="#DejaVuSans-32"/>
       <use xlink:href="#DejaVuSans-30" x="63.623047"/>
       <use xlink:href="#DejaVuSans-32" x="127.246094"/>
       <use xlink:href="#DejaVuSans-34" x="190.869141"/>
       <use xlink:href="#DejaVuSans-2d" x="254.492188"/>
       <use xlink:href="#DejaVuSans-30" x="290.576172"/>
       <use xlink:href="#DejaVuSans-39" x="354.199219"/>
      </g>
     </g>
    </g>
    <g id="xtick_10">
     <g id="line2d_10">
      <g>
       <use xlink:href="#mdbba128fa8" x="811.430962" y="387.16" style="fill: #ffffff; stroke: #ffffff; stroke-width: 0.8"/>
      </g>
     </g>
     <g id="text_10">
      <!-- 2025-01 -->
      <g style="fill: #ffffff" transform="translate(790.539556 401.758438) scale(0.1 -0.1)">
       <use xlink:href="#DejaVuSans-32"/>
       <use xlink:href="#DejaVuSans-30" x="63.623047"/>
       <use xlink:href="#DejaVuSans-32" x="127.246094"/>
       <use xlink:href="#DejaVuSans-35" x="190.869141"/>
       <use xlink:href="#DejaVuSans-2d" x="254.492188"/>
       <use xlink:href="#DejaVuSans-30" x="290.576172"/>
       <use xlink:href="#DejaVuSans-31" x="354.199219"/>
      </g>
     </g>
    </g>
    <g id="text_11">
     <!-- Date -->
     <g style="fill: #ffffff" transform="translate(437.559063 416.95625) scale(0.12 -0.12)">
      <defs>
       <path id="DejaVuSans-44" d="M 1259 4147 
L 1259 519 
L 2022 519 
Q 2988 519 3436 956 
Q 3884 1394 3884 2338 
Q 3884 3275 3436 3711 
Q 2988 4147 2022 4147 
L 1259 4147 
z
M 628 4666 
L 1925 4666 
Q 3281 4666 3915 4102 
Q 4550 3538 4550 2338 
Q 4550 1131 3912 565 
Q 3275 0 1925 0 
L 628 0 
L 628 4666 
z
" transform="scale(0.015625)"/>
       <path id="DejaVuSans-61" d="M 2194 1759 
Q 1497 1759 1228 1600 
Q 959 1441 959 1056 
Q 959 750 1161 570 
Q 1363 391 1709 391 
Q 2188 391 2477 730 
Q 2766 1069 2766 1631 
L 2766 1759 
L 2194 1759 
z
M 3341 1997 
L 3341 0 
L 2766 0 
L 2766 531 
Q 2569 213 2275 61 
Q 1981 -91 1556 -91 
Q 1019 -91 701 211 
Q 384 513 384 1019 
Q 384 1609 779 1909 
Q 1175 2209 1959 2209 
L 2766 2209 
L 2766 2266 
Q 2766 2663 2505 2880 
Q 2244 3097 1772 3097 
Q 1472 3097 1187 3025 
Q 903 2953 641 2809 
L 641 3341 
Q 956 3463 1253 3523 
Q 1550 3584 1831 3584 
Q 2591 3584 2966 3190 
Q 3341 2797 3341 1997 
z
" transform="scale(0.015625)"/>
       <path id="DejaVuSans-74" d="M 1172 4494 
L 1172 3500 
L 2356 3500 
L 2356 3053 
L 1172 3053 
L 1172 1153 
Q 1172 725 1289 603 
Q 1406 481 1766 481 
L 2356 481 
L 2356 0 
L 1766 0 
Q 1100 0 847 248 
Q 594 497 594 1153 
L 594 3053 
L 172 3053 
L 172 3500 
L 594 3500 
L 594 4494 
L 1172 4494 
z
" transform="scale(0.015625)"/>
       <path id="DejaVuSans-65" d="M 3597 1894 
L 3597 1613 
L 953 1613 
Q 991 1019 1311 708 
Q 1631 397 2203 397 
Q 2534 397 2845 478 
Q 3156 559 3463 722 
L 3463 178 
Q 3153 47 2828 -22 
Q 2503 -91 2169 -91 
Q 1331 -91 842 396 
Q 353 884 353 1716 
Q 353 2575 817 3079 
Q 1281 3584 2069 3584 
Q 2775 3584 3186 3129 
Q 3597 2675 3597 1894 
z
M 3022 2063 
Q 3016 2534 2758 2815 
Q 2500 3097 2075 3097 
Q 1594 3097 1305 2825 
Q 1016 2553 972 2059 
L 3022 2063 
z
" transform="scale(0.015625)"/>
      </defs>
      <use xlink:href="#DejaVuSans-44"/>
      <use xlink:href="#DejaVuSans-61" x="77.001953"/>
      <use xlink:href="#DejaVuSans-74" x="138.28125"/>
      <use xlink:href="#DejaVuSans-65" x="177.490234"/>
     </g>
    </g>
   </g>
   <g id="matplotlib.axis_2">
    <g id="ytick_1">
     <g id="line2d_11">
      <defs>
       <path id="m418abde62e" d="M 0 0 
L -3.5 0 
" style="stroke: #ffffff; stroke-width: 0.8"/>
      </defs>
      <g>
       <use xlink:href="#m418abde62e" x="50.6" y="370.755872" style="fill: #ffffff; stroke: #ffffff; stroke-width: 0.8"/>
      </g>
     </g>
     <g id="text_12">
      <!-- 1.0 -->
      <g style="fill: #ffffff" transform="translate(27.696875 374.555091) scale(0.1 -0.1)">
       <defs>
        <path id="DejaVuSans-2e" d="M 684 794 
L 1344 794 
L 1344 0 
L 684 0 
L 684 794 
z
" transform="scale(0.015625)"/>
       </defs>
       <use xlink:href="#DejaVuSans-31"/>
       <use xlink:href="#DejaVuSans-2e" x="63.623047"/>
       <use xlink:href="#DejaVuSans-30" x="95.410156"/>
      </g>
     </g>
    </g>
    <g id="ytick_2">
     <g id="line2d_12">
      <g>
       <use xlink:href="#m418abde62e" x="50.6" y="324.437527" style="fill: #ffffff; stroke: #ffffff; stroke-width: 0.8"/>
      </g>
     </g>
     <g id="text_13">
      <!-- 1.5 -->
      <g style="fill: #ffffff" transform="translate(27.696875 328.236746) scale(0.1 -0.1)">
       <use xlink:href="#DejaVuSans-31"/>
       <use xlink:href="#DejaVuSans-2e" x="63.623047"/>
       <use xlink:href="#DejaVuSans-35" x="95.410156"/>
      </g>
     </g>
    </g>
    <g id="ytick_3">
     <g id="line2d_13">
      <g>
       <use xlink:href="#m418abde62e" x="50.6" y="278.119182" style="fill: #ffffff; stroke: #ffffff; stroke-width: 0.8"/>
      </g>
     </g>
     <g id="text_14">
      <!-- 2.0 -->
      <g style="fill: #ffffff" transform="translate(27.696875 281.918401) scale(0.1 -0.1)">
       <use xlink:href="#DejaVuSans-32"/>
       <use xlink:href="#DejaVuSans-2e" x="63.623047"/>
       <use xlink:href="#DejaVuSans-30" x="95.410156"/>
      </g>
     </g>
    </g>
    <g id="ytick_4">
     <g id="line2d_14">
      <g>
       <use xlink:href="#m418abde62e" x="50.6" y="231.800838" style="fill: #ffffff; stroke: #ffffff; stroke-width: 0.8"/>
      </g>
     </g>
     <g id="text_15">
      <!-- 2.5 -->
      <g style="fill: #ffffff" transform="translate(27.696875 235.600056) scale(0.1 -0.1)">
       <use xlink:href="#DejaVuSans-32"/>
       <use xlink:href="#DejaVuSans-2e" x="63.623047"/>
       <use xlink:href="#DejaVuSans-35" x="95.410156"/>
      </g>
     </g>
    </g>
    <g id="ytick_5">
     <g id="line2d_15">
      <g>
       <use xlink:href="#m418abde62e" x="50.6" y="185.482493" style="fill: #ffffff; stroke: #ffffff; stroke-width: 0.8"/>
      </g>
     </g>
     <g id="text_16">
      <!-- 3.0 -->
      <g style="fill: #ffffff" transform="translate(27.696875 189.281712) scale(0.1 -0.1)">
       <use xlink:href="#DejaVuSans-33"/>
       <use xlink:href="#DejaVuSans-2e" x="63.623047"/>
       <use xlink:href="#DejaVuSans-30" x="95.410156"/>
      </g>
     </g>
    </g>
    <g id="ytick_6">
     <g id="line2d_16">
      <g>
       <use xlink:href="#m418abde62e" x="50.6" y="139.164148" style="fill: #ffffff; stroke: #ffffff; stroke-width: 0.8"/>
      </g>
     </g>
     <g id="text_17">
      <!-- 3.5 -->
      <g style="fill: #ffffff" transform="translate(27.696875 142.963367) scale(0.1 -0.1)">
       <use xlink:href="#DejaVuSans-33"/>
       <use xlink:href="#DejaVuSans-2e" x="63.623047"/>
       <use xlink:href="#DejaVuSans-35" x="95.410156"/>
      </g>
     </g>
    </g>
    <g id="ytick_7">
     <g id="line2d_17">
      <g>
       <use xlink:href="#m418abde62e" x="50.6" y="92.845804" style="fill: #ffffff; stroke: #ffffff; stroke-width: 0.8"/>
      </g>
     </g>
     <g id="text_18">
      <!-- 4.0 -->
      <g style="fill: #ffffff" transform="translate(27.696875 96.645022) scale(0.1 -0.1)">
       <use xlink:href="#DejaVuSans-34"/>
       <use xlink:href="#DejaVuSans-2e" x="63.623047"/>
       <use xlink:href="#DejaVuSans-30" x="95.410156"/>
      </g>
     </g>
    </g>
    <g id="ytick_8">
     <g id="line2d_18">
      <g>
       <use xlink:href="#m418abde62e" x="50.6" y="46.527459" style="fill: #ffffff; stroke: #ffffff; stroke-width: 0.8"/>
      </g>
     </g>
     <g id="text_19">
      <!-- 4.5 -->
      <g style="fill: #ffffff" transform="translate(27.696875 50.326678) scale(0.1 -0.1)">
       <use xlink:href="#DejaVuSans-34"/>
       <use xlink:href="#DejaVuSans-2e" x="63.623047"/>
       <use xlink:href="#DejaVuSans-35" x="95.410156"/>
      </g>
     </g>
    </g>
    <g id="text_20">
     <!-- Daily Ridership -->
     <g style="fill: #ffffff" transform="translate(21.20125 252.67625) rotate(-90) scale(0.12 -0.12)">
      <defs>
       <path id="DejaVuSans-69" d="M 603 3500 
L 1178 3500 
L 1178 0 
L 603 0 
L 603 3500 
z
M 603 4863 
L 1178 4863 
L 1178 4134 
L 603 4134 
L 603 4863 
z
" transform="scale(0.015625)"/>
       <path id="DejaVuSans-6c" d="M 603 4863 
L 1178 4863 
L 1178 0 
L 603 0 
L 603 4863 
z
" transform="scale(0.015625)"/>
       <path id="DejaVuSans-79" d="M 2059 -325 
Q 1816 -950 1584 -1140 
Q 1353 -1331 966 -1331 
L 506 -1331 
L 506 -850 
L 844 -850 
Q 1081 -850 1212 -737 
Q 1344 -625 1503 -206 
L 1606 56 
L 191 3500 
L 800 3500 
L 1894 763 
L 2988 3500 
L 3597 3500 
L 2059 -325 
z
" transform="scale(0.015625)"/>
       <path id="DejaVuSans-20" transform="scale(0.015625)"/>
       <path id="DejaVuSans-52" d="M 2841 2188 
Q 3044 2119 3236 1894 
Q 3428 1669 3622 1275 
L 4263 0 
L 3584 0 
L 2988 1197 
Q 2756 1666 2539 1819 
Q 2322 1972 1947 1972 
L 1259 1972 
L 1259 0 
L 628 0 
L 628 4666 
L 2053 4666 
Q 2853 4666 3247 4331 
Q 3641 3997 3641 3322 
Q 3641 2881 3436 2590 
Q 3231 2300 2841 2188 
z
M 1259 4147 
L 1259 2491 
L 2053 2491 
Q 2509 2491 2742 2702 
Q 2975 2913 2975 3322 
Q 2975 3731 2742 3939 
Q 2509 4147 2053 4147 
L 1259 4147 
z
" transform="scale(0.015625)"/>
       <path id="DejaVuSans-64" d="M 2906 2969 
L 2906 4863 
L 3481 4863 
L 3481 0 
L 2906 0 
L 2906 525 
Q 2725 213 2448 61 
Q 2172 -91 1784 -91 
Q 1150 -91 751 415 
Q 353 922 353 1747 
Q 353 2572 751 3078 
Q 1150 3584 1784 3584 
Q 2172 3584 2448 3432 
Q 2725 3281 2906 2969 
z
M 947 1747 
Q 947 1113 1208 752 
Q 1469 391 1925 391 
Q 2381 391 2643 752 
Q 2906 1113 2906 1747 
Q 2906 2381 2643 2742 
Q 2381 3103 1925 3103 
Q 1469 3103 1208 2742 
Q 947 2381 947 1747 
z
" transform="scale(0.015625)"/>
       <path id="DejaVuSans-72" d="M 2631 2963 
Q 2534 3019 2420 3045 
Q 2306 3072 2169 3072 
Q 1681 3072 1420 2755 
Q 1159 2438 1159 1844 
L 1159 0 
L 581 0 
L 581 3500 
L 1159 3500 
L 1159 2956 
Q 1341 3275 1631 3429 
Q 1922 3584 2338 3584 
Q 2397 3584 2469 3576 
Q 2541 3569 2628 3553 
L 2631 2963 
z
" transform="scale(0.015625)"/>
       <path id="DejaVuSans-73" d="M 2834 3397 
L 2834 2853 
Q 2591 2978 2328 3040 
Q 2066 3103 1784 3103 
Q 1356 3103 1142 2972 
Q 928 2841 928 2578 
Q 928 2378 1081 2264 
Q 1234 2150 1697 2047 
L 1894 2003 
Q 2506 1872 2764 1633 
Q 3022 1394 3022 966 
Q 3022 478 2636 193 
Q 2250 -91 1575 -91 
Q 1294 -91 989 -36 
Q 684 19 347 128 
L 347 722 
Q 666 556 975 473 
Q 1284 391 1588 391 
Q 1994 391 2212 530 
Q 2431 669 2431 922 
Q 2431 1156 2273 1281 
Q 2116 1406 1581 1522 
L 1381 1569 
Q 847 1681 609 1914 
Q 372 2147 372 2553 
Q 372 3047 722 3315 
Q 1072 3584 1716 3584 
Q 2034 3584 2315 3537 
Q 2597 3491 2834 3397 
z
" transform="scale(0.015625)"/>
       <path id="DejaVuSans-68" d="M 3513 2113 
L 3513 0 
L 2938 0 
L 2938 2094 
Q 2938 2591 2744 2837 
Q 2550 3084 2163 3084 
Q 1697 3084 1428 2787 
Q 1159 2491 1159 1978 
L 1159 0 
L 581 0 
L 581 4863 
L 1159 4863 
L 1159 2956 
Q 1366 3272 1645 3428 
Q 1925 3584 2291 3584 
Q 2894 3584 3203 3211 
Q 3513 2838 3513 2113 
z
" transform="scale(0.015625)"/>
       <path id="DejaVuSans-70" d="M 1159 525 
L 1159 -1331 
L 581 -1331 
L 581 3500 
L 1159 3500 
L 1159 2969 
Q 1341 3281 1617 3432 
Q 1894 3584 2278 3584 
Q 2916 3584 3314 3078 
Q 3713 2572 3713 1747 
Q 3713 922 3314 415 
Q 2916 -91 2278 -91 
Q 1894 -91 1617 61 
Q 1341 213 1159 525 
z
M 3116 1747 
Q 3116 2381 2855 2742 
Q 2594 3103 2138 3103 
Q 1681 3103 1420 2742 
Q 1159 2381 1159 1747 
Q 1159 1113 1420 752 
Q 1681 391 2138 391 
Q 2594 391 2855 752 
Q 3116 1113 3116 1747 
z
" transform="scale(0.015625)"/>
      </defs>
      <use xlink:href="#DejaVuSans-44"/>
      <use xlink:href="#DejaVuSans-61" x="77.001953"/>
      <use xlink:href="#DejaVuSans-69" x="138.28125"/>
      <use xlink:href="#DejaVuSans-6c" x="166.064453"/>
      <use xlink:href="#DejaVuSans-79" x="193.847656"/>
      <use xlink:href="#DejaVuSans-20" x="253.027344"/>
      <use xlink:href="#DejaVuSans-52" x="284.814453"/>
      <use xlink:href="#DejaVuSans-69" x="354.296875"/>
      <use xlink:href="#DejaVuSans-64" x="382.080078"/>
      <use xlink:href="#DejaVuSans-65" x="445.556641"/>
      <use xlink:href="#DejaVuSans-72" x="507.080078"/>
      <use xlink:href="#DejaVuSans-73" x="548.193359"/>
      <use xlink:href="#DejaVuSans-68" x="600.292969"/>
      <use xlink:href="#DejaVuSans-69" x="663.671875"/>
      <use xlink:href="#DejaVuSans-70" x="691.455078"/>
     </g>
    </g>
    <g id="text_21">
     <!-- 1e6 -->
     <g style="fill: #ffffff" transform="translate(50.6 24.6) scale(0.1 -0.1)">
      <defs>
       <path id="DejaVuSans-36" d="M 2113 2584 
Q 1688 2584 1439 2293 
Q 1191 2003 1191 1497 
Q 1191 994 1439 701 
Q 1688 409 2113 409 
Q 2538 409 2786 701 
Q 3034 994 3034 1497 
Q 3034 2003 2786 2293 
Q 2538 2584 2113 2584 
z
M 3366 4563 
L 3366 3988 
Q 3128 4100 2886 4159 
Q 2644 4219 2406 4219 
Q 1781 4219 1451 3797 
Q 1122 3375 1075 2522 
Q 1259 2794 1537 2939 
Q 1816 3084 2150 3084 
Q 2853 3084 3261 2657 
Q 3669 2231 3669 1497 
Q 3669 778 3244 343 
Q 2819 -91 2113 -91 
Q 1303 -91 875 529 
Q 447 1150 447 2328 
Q 447 3434 972 4092 
Q 1497 4750 2381 4750 
Q 2619 4750 2861 4703 
Q 3103 4656 3366 4563 
z
" transform="scale(0.015625)"/>
      </defs>
      <use xlink:href="#DejaVuSans-31"/>
      <use xlink:href="#DejaVuSans-65" x="63.623047"/>
      <use xlink:href="#DejaVuSans-36" x="125.146484"/>
     </g>
    </g>
   </g>
   <g id="line2d_19">
    <path d="M 87.081818 368.169641 
L 87.742721 350.400349 
L 88.403623 262.535005 
L 89.064526 251.314571 
L 89.725428 253.297923 
L 90.386331 241.881933 
L 91.047233 266.822972 
L 91.708136 325.728419 
L 92.369038 361.263205 
L 93.029941 245.94433 
L 93.690843 253.442806 
L 94.351746 235.578191 
L 95.012648 229.559308 
L 95.673551 229.672788 
L 96.334453 330.488926 
L 96.995356 355.412828 
L 97.656258 315.169412 
L 98.317161 227.998657 
L 98.978063 218.634478 
L 99.638966 227.587165 
L 100.299868 225.707104 
L 100.960771 316.688468 
L 101.621673 347.993555 
L 102.282576 228.389306 
L 102.943478 213.158075 
L 103.604381 212.180109 
L 104.265283 210.959528 
L 104.926186 212.958257 
L 105.587088 370.816364 
L 106.247991 346.440872 
L 106.908893 224.782497 
L 107.569796 219.287196 
L 108.230698 191.026614 
L 108.891601 193.430906 
L 109.552503 210.890421 
L 110.213406 297.315357 
L 110.874308 340.751589 
L 111.535211 205.470712 
L 112.196113 183.940277 
L 112.857016 177.258671 
L 113.517918 175.061884 
L 114.178821 184.049218 
L 114.839723 275.682096 
L 115.500626 338.345629 
L 116.161528 194.02128 
L 116.822431 182.634656 
L 117.483333 176.159629 
L 118.144236 175.296533 
L 118.805138 189.763698 
L 119.466041 297.375015 
L 120.126943 326.556591 
L 120.787846 283.467376 
L 121.448748 216.098178 
L 122.109651 195.279286 
L 122.770553 198.623378 
L 123.431456 224.794725 
L 124.092358 294.346073 
L 124.753261 333.402258 
L 125.414163 193.283799 
L 126.075066 172.681863 
L 126.735968 166.198684 
L 127.396871 166.260843 
L 128.057773 178.299722 
L 128.718676 282.238273 
L 129.379578 329.578771 
L 130.040481 187.250001 
L 130.701383 162.835324 
L 131.362286 174.962763 
L 132.023188 154.045028 
L 132.684091 167.329778 
L 133.344993 309.255022 
L 134.005896 326.345287 
L 134.666798 184.66729 
L 135.327701 159.923475 
L 135.988603 154.696079 
L 136.649506 169.198445 
L 137.310408 159.967292 
L 137.971311 277.948824 
L 138.632213 309.923859 
L 139.293116 182.262534 
L 139.954018 159.827688 
L 140.614921 159.941817 
L 141.275823 165.826748 
L 141.936726 165.197837 
L 142.597628 275.84069 
L 143.258531 321.282692 
L 143.919433 186.420532 
L 144.580336 158.443418 
L 145.241238 154.349803 
L 145.902141 155.548336 
L 146.563043 163.517686 
L 147.223946 266.221389 
L 147.884848 327.778747 
L 148.545751 173.655845 
L 149.206653 152.461775 
L 149.867556 156.62181 
L 150.528458 157.035989 
L 151.189361 153.267714 
L 151.850264 260.481527 
L 152.511166 305.19244 
L 153.172069 166.424532 
L 153.832971 178.250439 
L 154.493874 165.01312 
L 155.154776 157.904829 
L 155.815679 207.573379 
L 156.476581 279.387749 
L 157.137484 323.267248 
L 157.798386 215.473251 
L 158.459289 188.990644 
L 159.120191 176.399836 
L 159.781094 182.38639 
L 160.441996 186.80868 
L 161.102899 268.004368 
L 161.763801 309.999173 
L 162.424704 183.023823 
L 163.085606 159.390721 
L 163.746509 145.43732 
L 164.407411 147.970377 
L 165.068314 161.616132 
L 165.729216 268.045313 
L 166.390119 307.39673 
L 167.051021 210.232701 
L 167.711924 148.160838 
L 168.372826 151.67918 
L 169.033729 138.930519 
L 169.694631 167.830016 
L 170.355534 292.680929 
L 171.016436 316.828998 
L 171.677339 174.875036 
L 172.338241 147.232619 
L 172.999144 144.687333 
L 173.660046 145.639082 
L 174.320949 162.137862 
L 174.981851 264.312054 
L 175.642754 300.318731 
L 176.303656 178.067575 
L 176.964559 135.827282 
L 177.625461 129.381158 
L 178.286364 142.190867 
L 178.947266 160.29328 
L 179.608169 248.082199 
L 180.269071 300.292886 
L 180.929974 175.12988 
L 181.590876 150.41895 
L 182.251779 145.970166 
L 182.912681 153.887916 
L 183.573584 182.598713 
L 184.234486 289.904885 
L 184.895389 300.793309 
L 185.556291 306.376152 
L 186.217194 169.168338 
L 186.878096 150.160401 
L 187.538999 152.883457 
L 188.199901 159.241205 
L 188.860804 261.627628 
L 189.521706 303.595847 
L 190.182609 176.94315 
L 190.843511 149.14816 
L 191.504414 139.830669 
L 192.165316 157.954852 
L 192.826219 150.639518 
L 193.487121 256.678328 
L 194.148024 308.262513 
L 194.808926 169.856444 
L 195.469829 139.643821 
L 196.130731 136.6813 
L 196.791634 147.536282 
L 197.452536 162.566121 
L 198.113439 260.829934 
L 198.774341 303.523683 
L 199.435244 235.445258 
L 200.096146 154.005194 
L 200.757049 152.400727 
L 201.417951 147.734432 
L 202.078854 158.023867 
L 202.739756 251.53588 
L 203.400659 277.009673 
L 204.061561 191.726391 
L 204.722464 162.477283 
L 205.383366 162.391779 
L 206.044269 171.441365 
L 206.705171 201.457783 
L 207.366074 292.283981 
L 208.026976 310.099776 
L 208.687879 314.424983 
L 209.348781 203.749151 
L 210.009684 179.325673 
L 210.670586 174.773321 
L 211.331489 194.53106 
L 211.992391 272.42953 
L 212.653294 307.666488 
L 213.314196 196.915065 
L 213.975099 171.742619 
L 214.636001 164.232841 
L 215.296904 166.667611 
L 215.957806 183.476816 
L 216.618709 269.484887 
L 217.279611 308.233332 
L 217.940514 211.419654 
L 218.601416 169.82541 
L 219.262319 167.794258 
L 219.923221 175.376108 
L 220.584124 190.785758 
L 221.245026 275.46088 
L 221.905929 315.526341 
L 222.566831 210.705426 
L 223.227734 169.27098 
L 223.888636 163.917042 
L 224.549539 171.409776 
L 225.210441 191.703417 
L 225.871344 271.225067 
L 226.532246 310.625675 
L 227.193149 209.636398 
L 227.854051 178.988568 
L 228.514954 173.992023 
L 229.175856 180.936255 
L 229.836759 201.957465 
L 230.497661 278.15809 
L 231.158564 320.517976 
L 231.819466 212.770668 
L 232.480369 184.205589 
L 233.141271 173.028972 
L 233.802174 176.816516 
L 234.463076 188.825473 
L 235.123979 269.854415 
L 235.784881 307.966446 
L 236.445784 206.94206 
L 237.106686 181.23121 
L 237.767589 178.624877 
L 238.428491 178.263501 
L 239.089394 193.010428 
L 239.750296 274.541368 
L 240.411199 313.374668 
L 241.072101 220.417178 
L 241.733004 186.166615 
L 242.393906 183.563987 
L 243.054809 177.061725 
L 243.715711 198.113228 
L 244.376614 271.954952 
L 245.037516 310.38556 
L 245.698419 200.640264 
L 246.359321 176.971682 
L 247.020224 172.140309 
L 247.681126 174.860122 
L 248.342029 192.401898 
L 249.002931 267.298198 
L 249.663834 296.428917 
L 250.324736 306.661751 
L 250.985639 179.599785 
L 251.646542 144.300297 
L 252.307444 125.786762 
L 252.968347 140.854212 
L 253.629249 245.06039 
L 254.290152 302.45938 
L 254.951054 150.081382 
L 255.611957 128.200226 
L 256.272859 116.748107 
L 256.933762 116.215169 
L 257.594664 138.945711 
L 258.255567 245.61408 
L 258.916469 292.54114 
L 259.577372 151.207011 
L 260.238274 114.427929 
L 260.899177 104.075038 
L 261.560079 117.587303 
L 262.220982 127.447275 
L 262.881884 243.186721 
L 263.542787 300.367551 
L 264.203689 202.819172 
L 264.864592 166.574048 
L 265.525494 119.492377 
L 266.186397 119.918783 
L 266.847299 138.864098 
L 267.508202 275.063747 
L 268.169104 313.149654 
L 268.830007 151.202471 
L 269.490909 148.641901 
L 270.151812 178.317416 
L 270.812714 106.842374 
L 271.473617 130.726799 
L 272.134519 241.31935 
L 272.795422 285.741237 
L 273.456324 226.546299 
L 274.117227 125.323764 
L 274.778129 113.584472 
L 276.099934 131.866971 
L 276.760837 244.445653 
L 277.421739 299.06406 
L 278.082642 156.348532 
L 278.743544 121.227184 
L 279.404447 110.038803 
L 280.065349 110.363309 
L 280.726252 132.648639 
L 281.387154 238.247796 
L 282.048057 302.156551 
L 282.708959 152.33338 
L 283.369862 119.471256 
L 284.030764 111.879494 
L 284.691667 102.759319 
L 285.352569 127.607907 
L 286.013472 237.303364 
L 286.674374 289.610486 
L 287.335277 147.418818 
L 287.996179 120.015496 
L 288.657082 112.473387 
L 289.317984 111.145718 
L 289.978887 131.164229 
L 290.639789 236.437953 
L 291.300692 267.36749 
L 291.961594 143.159754 
L 292.622497 145.491234 
L 293.283399 113.96419 
L 293.944302 111.166562 
L 294.605204 185.972726 
L 295.927009 297.200117 
L 296.587912 148.328233 
L 297.248814 119.37445 
L 297.909717 115.840731 
L 298.570619 111.575553 
L 299.231522 135.532605 
L 299.892424 248.155938 
L 300.553327 303.947496 
L 301.214229 151.797384 
L 301.875132 134.635882 
L 302.536034 161.026592 
L 303.196937 335.344015 
L 303.857839 272.6853 
L 304.518742 278.155496 
L 305.179644 326.639687 
L 305.840547 160.84382 
L 306.501449 130.188209 
L 307.162352 132.826594 
L 307.823254 114.106387 
L 308.484157 129.85379 
L 309.145059 251.098264 
L 309.805962 279.001176 
L 310.466864 140.864958 
L 311.127767 115.699368 
L 311.788669 108.100009 
L 312.449572 99.191509 
L 313.110474 119.624477 
L 313.771377 216.655387 
L 314.432279 290.571499 
L 315.093182 142.223197 
L 315.754084 114.748081 
L 316.414987 113.487759 
L 317.075889 118.21399 
L 317.736792 160.469105 
L 319.058597 281.157759 
L 319.719499 150.149841 
L 320.380402 131.189612 
L 321.041304 133.306175 
L 321.702207 168.151743 
L 322.363109 209.751823 
L 323.024012 332.638746 
L 323.684914 369.972907 
L 325.006719 210.539421 
L 325.667622 190.389644 
L 326.328524 181.829643 
L 326.989427 179.601916 
L 327.650329 284.872304 
L 328.311232 308.17914 
L 328.972134 283.848391 
L 329.633037 169.199094 
L 330.293939 147.218723 
L 330.954842 145.785819 
L 331.615744 164.189209 
L 332.276647 267.360543 
L 332.937549 314.176717 
L 333.598452 171.981344 
L 334.259354 142.019489 
L 334.920257 138.333938 
L 335.581159 141.692296 
L 336.242062 160.468734 
L 336.902964 271.41349 
L 337.563867 305.372526 
L 338.224769 262.165477 
L 338.885672 143.647394 
L 339.546574 129.590702 
L 340.868379 150.661566 
L 341.529282 265.4123 
L 342.190184 315.786557 
L 342.851087 172.956716 
L 343.511989 132.980093 
L 344.172892 138.138568 
L 344.833794 127.211329 
L 345.494697 154.414741 
L 346.155599 255.135371 
L 346.816502 311.709431 
L 347.477404 164.775414 
L 348.138307 124.860673 
L 348.799209 122.234052 
L 349.460112 120.64311 
L 350.121014 167.923209 
L 350.781917 301.979151 
L 351.442819 312.823202 
L 352.103722 150.980421 
L 352.764625 117.066685 
L 353.425527 113.162697 
L 354.08643 115.554854 
L 354.747332 135.502313 
L 355.408235 247.213267 
L 356.069137 301.639731 
L 356.73004 157.382358 
L 357.390942 110.174145 
L 358.051845 114.817652 
L 358.712747 122.139192 
L 359.37365 162.030126 
L 360.034552 253.00482 
L 360.695455 294.410641 
L 361.356357 256.020052 
L 362.01726 155.32536 
L 362.678162 143.391902 
L 363.339065 139.315424 
L 363.999967 162.629114 
L 364.66087 274.076981 
L 365.321772 312.840247 
L 365.982675 154.179073 
L 366.643577 147.308859 
L 367.30448 113.159825 
L 367.965382 114.529737 
L 368.626285 140.847357 
L 369.287187 262.072933 
L 369.94809 299.229139 
L 370.608992 145.924867 
L 371.269895 113.802075 
L 371.930797 107.40264 
L 372.5917 108.811181 
L 373.252602 138.947471 
L 373.913505 256.763646 
L 374.574407 299.093518 
L 375.23531 152.838435 
L 375.896212 132.007964 
L 376.557115 100.963927 
L 377.218017 97.497277 
L 377.87892 124.201563 
L 378.539822 239.408811 
L 379.200725 287.894576 
L 379.861627 144.482513 
L 380.52253 111.272723 
L 381.183432 111.61409 
L 381.844335 113.745011 
L 382.505237 135.98671 
L 383.16614 263.894448 
L 383.827042 283.678866 
L 384.487945 148.681827 
L 385.148847 114.5302 
L 385.80975 104.61548 
L 386.470652 105.788168 
L 387.131555 132.333582 
L 387.792457 251.853624 
L 388.45336 282.78205 
L 389.114262 130.10567 
L 389.775165 101.471947 
L 390.436067 111.376384 
L 391.09697 146.457342 
L 391.757872 173.377194 
L 392.418775 241.680819 
L 393.079677 291.474985 
L 393.74058 172.259532 
L 394.401482 135.658498 
L 395.062385 132.060119 
L 395.723287 127.278491 
L 396.38419 141.811705 
L 397.045092 244.263807 
L 397.705995 290.648017 
L 398.366897 146.683098 
L 399.0278 105.617346 
L 400.349605 92.620419 
L 401.010507 139.881434 
L 401.67141 231.232048 
L 402.332312 285.229697 
L 402.993215 133.489039 
L 403.654117 96.836407 
L 404.31502 93.324087 
L 404.975922 92.861459 
L 405.636825 120.350748 
L 406.297727 261.446616 
L 406.95863 301.825097 
L 407.619532 123.901791 
L 408.280435 96.379152 
L 408.941337 90.011028 
L 409.60224 94.235261 
L 410.263142 115.136507 
L 410.924045 225.955277 
L 411.584947 274.988989 
L 412.24585 133.29654 
L 412.906752 99.742142 
L 413.567655 91.548056 
L 414.228557 91.36899 
L 414.88946 118.48838 
L 415.550362 232.988625 
L 416.211265 284.88481 
L 416.872167 134.213366 
L 417.53307 92.659141 
L 418.193972 83.138775 
L 418.854875 85.235329 
L 419.515777 112.306086 
L 420.17668 248.96901 
L 420.837582 265.82407 
L 421.498485 132.517651 
L 422.159387 99.422731 
L 422.82029 96.526815 
L 423.481192 105.871912 
L 424.142095 139.487358 
L 424.802997 243.31178 
L 425.4639 275.424566 
L 426.124802 282.49358 
L 426.785705 119.259859 
L 427.446607 101.055082 
L 428.10751 102.649822 
L 428.768412 127.446533 
L 429.429315 239.980287 
L 430.090217 279.200253 
L 430.75112 135.078315 
L 431.412022 99.410873 
L 432.072925 116.571079 
L 432.733827 160.606855 
L 433.39473 146.090408 
L 434.055632 221.726042 
L 434.716535 271.111124 
L 435.377437 141.072094 
L 436.03834 95.795356 
L 436.699242 102.751167 
L 437.360145 99.479239 
L 438.021047 148.804108 
L 438.68195 241.10888 
L 439.342852 280.195912 
L 440.003755 219.120079 
L 440.664657 112.965566 
L 441.32556 101.896593 
L 441.986462 112.996877 
L 442.647365 141.889983 
L 443.308267 234.765768 
L 443.96917 257.488621 
L 444.630072 153.863553 
L 445.290975 116.539768 
L 445.951877 126.72582 
L 446.61278 124.932281 
L 447.273682 161.418538 
L 447.934585 255.930009 
L 448.595487 298.151218 
L 449.25639 216.788877 
L 449.917292 297.463669 
L 450.578195 155.988916 
L 451.239097 139.645303 
L 451.9 158.407938 
L 452.560903 249.513529 
L 453.221805 298.81357 
L 453.882708 166.146437 
L 454.54361 128.634136 
L 455.204513 120.939084 
L 455.865415 125.45327 
L 456.526318 166.085019 
L 457.18722 247.914619 
L 457.848123 315.187013 
L 458.509025 159.350424 
L 459.169928 131.306797 
L 459.83083 122.550407 
L 460.491733 119.616232 
L 461.152635 164.439698 
L 461.813538 235.507232 
L 462.47444 279.554773 
L 463.135343 161.825028 
L 463.796245 127.083027 
L 464.457148 115.228866 
L 465.11805 131.752102 
L 465.778953 160.822699 
L 466.439855 254.818832 
L 467.100758 282.525632 
L 467.76166 166.499383 
L 468.422563 130.050643 
L 469.083465 126.166572 
L 469.744368 129.059709 
L 470.40527 164.314083 
L 471.066173 244.365708 
L 471.727075 286.378577 
L 472.387978 181.684296 
L 473.04888 138.233428 
L 473.709783 128.690459 
L 474.370685 145.713192 
L 475.031588 156.60634 
L 475.69249 244.141249 
L 476.353393 282.421416 
L 477.014295 176.885716 
L 477.675198 149.725101 
L 478.3361 144.013864 
L 478.997003 149.81218 
L 479.657905 168.574815 
L 480.318808 244.866131 
L 480.97971 290.104054 
L 481.640613 188.153579 
L 482.301515 152.803141 
L 482.962418 147.238177 
L 483.62332 157.883522 
L 484.284223 182.309223 
L 484.945125 252.006289 
L 485.606028 286.474456 
L 486.26693 174.226672 
L 486.927833 148.327029 
L 487.588735 142.594485 
L 488.249638 143.7467 
L 488.91054 167.299393 
L 489.571443 249.641182 
L 490.232345 276.868031 
L 490.893248 289.252352 
L 491.55415 140.669031 
L 492.215053 119.518593 
L 492.875955 105.097376 
L 493.536858 129.001811 
L 494.19776 238.700882 
L 494.858663 294.587207 
L 495.519565 130.221188 
L 496.180468 91.504424 
L 496.84137 98.541478 
L 497.502273 88.661497 
L 498.163175 121.114353 
L 498.824078 236.790342 
L 499.48498 279.230545 
L 500.145883 135.546964 
L 500.806785 79.848783 
L 501.467688 76.184076 
L 502.12859 79.942624 
L 502.789493 107.629508 
L 503.450395 267.360357 
L 504.111298 305.756783 
L 505.433103 97.79038 
L 506.094005 85.904536 
L 506.754908 88.080202 
L 507.41581 234.830521 
L 508.076713 259.07558 
L 508.737615 278.548924 
L 509.398518 125.325246 
L 510.05942 92.08609 
L 510.720323 90.355915 
L 511.381225 90.038541 
L 512.042128 126.220116 
L 512.70303 259.640201 
L 513.363933 273.9937 
L 514.024835 200.892236 
L 514.685738 97.021402 
L 515.34664 87.61146 
L 516.007543 83.156191 
L 516.668445 133.516645 
L 517.329348 257.758935 
L 517.99025 276.906012 
L 518.651153 124.236302 
L 519.312055 90.868751 
L 520.63386 81.58461 
L 521.294763 128.387166 
L 521.955665 237.508462 
L 522.616568 279.668902 
L 523.27747 123.671588 
L 523.938373 89.08744 
L 524.599275 81.728382 
L 525.260178 79.652486 
L 525.92108 106.412817 
L 526.581983 209.219811 
L 527.242885 293.454353 
L 527.903788 127.697764 
L 528.56469 91.318966 
L 529.225593 88.813884 
L 529.886495 85.174837 
L 530.547398 110.610278 
L 531.2083 223.638156 
L 531.869203 249.359474 
L 532.530105 121.920662 
L 533.191008 124.798236 
L 533.85191 86.729096 
L 534.512813 90.906084 
L 535.173715 128.847478 
L 535.834618 223.598785 
L 536.49552 283.003915 
L 537.156423 130.175703 
L 537.817325 93.608481 
L 538.478228 89.469937 
L 539.13913 88.31939 
L 539.800033 116.802485 
L 540.460935 233.880809 
L 541.121838 283.313692 
L 541.78274 125.520339 
L 542.443643 113.693505 
L 543.104545 150.433309 
L 543.765448 312.544366 
L 544.42635 235.729467 
L 545.087253 266.670214 
L 545.748155 307.161711 
L 546.409058 136.987742 
L 547.06996 100.58319 
L 547.730863 89.799724 
L 548.391765 86.150857 
L 549.052668 118.490326 
L 550.374473 294.056491 
L 551.035375 119.760653 
L 551.696278 93.602182 
L 552.357181 82.094482 
L 553.018083 84.6532 
L 553.678986 105.448006 
L 555.000791 293.12188 
L 555.661693 125.940909 
L 556.322596 88.068159 
L 556.983498 86.59681 
L 557.644401 81.535698 
L 558.305303 107.182813 
L 559.627108 282.314976 
L 560.288011 156.322131 
L 560.948913 100.91131 
L 561.609816 107.815244 
L 562.270718 122.911226 
L 562.931621 150.992186 
L 563.592523 255.499619 
L 564.253426 309.884674 
L 564.914328 345.398524 
L 565.575231 216.178401 
L 566.236133 193.633873 
L 567.557938 167.058445 
L 568.218841 237.339493 
L 568.879743 284.172897 
L 569.540646 310.659302 
L 570.201548 158.558658 
L 570.862451 134.061534 
L 571.523353 133.540823 
L 572.184256 161.113115 
L 572.845158 283.449683 
L 573.506061 326.99078 
L 574.166963 157.346229 
L 574.827866 152.763955 
L 575.488768 133.868479 
L 576.149671 121.663596 
L 576.810573 151.596826 
L 577.471476 262.613375 
L 578.132378 301.875306 
L 578.793281 262.378634 
L 579.454183 163.626256 
L 580.115086 128.332789 
L 580.775988 124.72672 
L 581.436891 169.14064 
L 582.097793 275.892104 
L 582.758696 317.385467 
L 583.419598 157.192452 
L 584.080501 125.038165 
L 585.402306 122.316592 
L 586.063208 150.20496 
L 586.724111 251.880396 
L 587.385013 319.891196 
L 588.045916 157.916501 
L 588.706818 119.013816 
L 589.367721 110.577948 
L 590.028623 110.01305 
L 590.689526 143.072768 
L 591.350428 248.101375 
L 592.011331 302.009536 
L 592.672233 140.852267 
L 593.333136 106.043475 
L 593.994038 102.017577 
L 594.654941 101.769218 
L 595.315843 134.780488 
L 595.976746 242.412556 
L 596.637648 298.990414 
L 597.298551 150.78116 
L 597.959453 252.775266 
L 598.620356 96.215185 
L 599.281258 104.438359 
L 599.942161 138.743948 
L 600.603063 261.625498 
L 601.263966 291.936871 
L 601.924868 255.447186 
L 602.585771 139.998805 
L 603.246673 130.689373 
L 603.907576 130.996094 
L 604.568478 165.183849 
L 605.229381 249.512232 
L 605.890283 302.160534 
L 606.551186 144.807668 
L 607.212088 111.145441 
L 607.872991 112.838932 
L 608.533893 101.564028 
L 609.194796 132.340715 
L 609.855698 269.408647 
L 610.516601 281.684769 
L 611.177503 135.489158 
L 611.838406 109.565429 
L 612.499308 105.297194 
L 613.160211 102.690212 
L 613.821113 122.006073 
L 614.482016 266.202862 
L 615.142918 296.315066 
L 615.803821 139.387588 
L 616.464723 93.916869 
L 617.125626 90.535167 
L 617.786528 88.289375 
L 618.447431 125.915897 
L 619.108333 226.885906 
L 619.769236 280.697262 
L 620.430138 140.779269 
L 621.091041 104.970464 
L 621.751943 103.396752 
L 622.412846 105.606693 
L 623.073748 131.571738 
L 623.734651 290.730463 
L 624.395553 286.183577 
L 625.056456 131.408975 
L 625.717358 95.64408 
L 626.378261 91.547871 
L 627.039163 101.132433 
L 627.700066 150.972084 
L 628.360968 229.339574 
L 629.021871 284.020603 
L 629.682773 155.654498 
L 630.343676 102.103822 
L 631.004578 103.007585 
L 631.665481 83.514232 
L 632.326383 111.299032 
L 632.987286 233.919717 
L 633.648188 287.416108 
L 634.309091 138.541722 
L 634.969993 88.892626 
L 635.630896 112.11933 
L 636.291798 92.800875 
L 636.952701 123.560517 
L 637.613603 228.548178 
L 638.274506 271.737904 
L 638.935408 120.249867 
L 639.596311 89.741178 
L 640.257213 90.876718 
L 640.918116 95.974515 
L 641.579018 120.101185 
L 642.239921 228.324646 
L 642.900823 285.693436 
L 643.561726 165.132343 
L 644.222628 137.105946 
L 644.883531 129.15846 
L 645.544433 118.423349 
L 646.205336 145.501424 
L 646.866238 231.172854 
L 647.527141 270.249696 
L 648.188043 155.495441 
L 648.848946 126.288945 
L 649.509848 89.808154 
L 650.170751 87.172547 
L 650.831653 113.143614 
L 651.492556 225.903771 
L 652.153458 288.385736 
L 652.814361 125.073645 
L 653.475264 83.737672 
L 654.136166 84.742224 
L 654.797069 84.830136 
L 655.457971 122.742628 
L 656.118874 218.036878 
L 656.779776 291.192813 
L 657.440679 120.352786 
L 658.101581 82.039271 
L 658.762484 82.228249 
L 659.423386 83.116543 
L 660.084289 109.806285 
L 660.745191 214.07314 
L 661.406094 266.865214 
L 662.066996 122.29862 
L 662.727899 90.107741 
L 663.388801 83.209643 
L 664.710606 131.4527 
L 665.371509 245.959522 
L 666.693314 308.884753 
L 667.354216 108.984875 
L 668.015119 92.219209 
L 668.676021 94.702336 
L 669.336924 121.690368 
L 669.997826 236.789046 
L 670.658729 280.153762 
L 671.319631 128.835991 
L 671.980534 94.717713 
L 672.641436 88.033976 
L 673.302339 113.751681 
L 673.963241 115.781536 
L 674.624144 215.75431 
L 675.285046 265.654823 
L 675.945949 120.431898 
L 676.606851 93.269616 
L 677.267754 94.906044 
L 677.928656 98.687381 
L 678.589559 137.583581 
L 679.250461 238.117734 
L 679.911364 287.642141 
L 680.572266 155.365935 
L 681.233169 100.179017 
L 681.894071 181.191562 
L 682.554974 106.019019 
L 683.215876 139.130336 
L 683.876779 242.434881 
L 684.537681 286.568945 
L 685.198584 142.142881 
L 685.859486 108.459996 
L 686.520389 102.007572 
L 687.181291 113.521294 
L 687.842194 137.058331 
L 688.503096 235.969767 
L 689.163999 277.90899 
L 689.824901 160.142097 
L 690.485804 135.266645 
L 691.146706 147.561016 
L 691.807609 278.837673 
L 692.468511 213.205505 
L 693.129414 268.774271 
L 693.790316 296.222985 
L 694.451219 164.288701 
L 695.112121 129.434332 
L 695.773024 121.393189 
L 696.433926 121.745764 
L 697.094829 161.297462 
L 697.755731 259.287718 
L 698.416634 290.192522 
L 699.077536 161.415481 
L 699.738439 130.442404 
L 700.399341 125.105975 
L 701.060244 126.396404 
L 701.721146 150.94068 
L 702.382049 253.139977 
L 703.042951 289.448279 
L 703.703854 163.681097 
L 704.364756 129.28389 
L 705.025659 124.6691 
L 705.686561 126.34777 
L 706.347464 158.724478 
L 707.008366 249.684536 
L 707.669269 291.886569 
L 708.330171 166.743851 
L 708.991074 130.804521 
L 709.651976 132.091986 
L 710.312879 135.026716 
L 710.973781 171.220612 
L 711.634684 259.557291 
L 712.295586 301.013321 
L 712.956489 164.861473 
L 713.617391 142.630521 
L 714.278294 138.121708 
L 714.939196 140.070413 
L 715.600099 181.658821 
L 716.261001 245.103003 
L 716.921904 285.646099 
L 717.582806 169.810218 
L 718.243709 139.941185 
L 718.904611 135.026253 
L 719.565514 139.565173 
L 720.226416 167.072526 
L 720.887319 254.382606 
L 721.548221 304.70128 
L 722.209124 178.390321 
L 722.870026 141.397804 
L 723.530929 139.289115 
L 724.191831 145.842235 
L 724.852734 166.059729 
L 725.513636 247.305996 
L 726.174539 286.843891 
L 726.835441 174.968414 
L 727.496344 141.285436 
L 728.157246 137.619524 
L 728.818149 144.837219 
L 729.479051 171.379298 
L 730.139954 263.482215 
L 730.800856 280.958497 
L 731.461759 277.42941 
L 732.122661 127.17659 
L 732.783564 104.994735 
L 733.444466 89.758964 
L 734.105369 111.840772 
L 734.766271 233.687013 
L 735.427174 268.75843 
L 736.088076 110.322271 
L 736.748979 75.948408 
L 737.409881 72.956058 
L 738.070784 71.334267 
L 738.731686 101.052303 
L 739.392589 212.67377 
L 740.053491 263.136402 
L 740.714394 109.388123 
L 741.375296 75.308659 
L 742.036199 71.27183 
L 742.697101 69.206403 
L 743.358004 99.048015 
L 744.018906 209.138939 
L 744.679809 265.899477 
L 745.340711 102.220081 
L 746.001614 62.858566 
L 746.662516 61.724971 
L 747.323419 65.451004 
L 747.984321 97.905342 
L 748.645224 226.429577 
L 749.306126 281.88366 
L 749.967029 106.82116 
L 750.627931 76.230209 
L 751.288834 86.539746 
L 751.949736 127.350377 
L 752.610639 138.547744 
L 753.271542 212.333608 
L 753.932444 272.070562 
L 754.593347 107.014122 
L 755.254249 69.042806 
L 755.915152 63.830973 
L 756.576054 62.353418 
L 757.236957 105.0216 
L 757.897859 223.729588 
L 758.558762 263.906028 
L 759.219664 179.289638 
L 759.880567 66.461207 
L 760.541469 59.763667 
L 761.202372 64.162428 
L 761.863274 89.974252 
L 762.524177 208.423969 
L 763.185079 261.77103 
L 763.845982 107.45322 
L 764.506884 72.569392 
L 765.167787 67.22194 
L 765.828689 64.607269 
L 766.489592 91.012524 
L 767.150494 201.366072 
L 767.811397 258.78748 
L 768.472299 94.405064 
L 769.133202 57.755859 
L 769.794104 54.128207 
L 770.455007 61.324132 
L 771.115909 113.144911 
L 771.776812 202.425188 
L 772.437714 222.271302 
L 773.098617 97.505522 
L 773.759519 126.172223 
L 774.420422 82.339784 
L 775.081324 71.336491 
L 775.742227 95.450933 
L 776.403129 206.745022 
L 777.064032 267.26735 
L 778.385837 68.46392 
L 779.046739 62.180836 
L 779.707642 65.372726 
L 780.368544 94.09399 
L 781.029447 205.016606 
L 781.690349 268.688212 
L 782.351252 102.020727 
L 783.012154 67.099103 
L 783.673057 65.152528 
L 784.333959 72.67472 
L 784.994862 106.291093 
L 785.655764 211.398163 
L 786.316667 271.170041 
L 786.977569 100.792827 
L 787.638472 90.065869 
L 788.299374 119.67061 
L 788.960277 323.191842 
L 789.621179 215.357918 
L 790.282082 248.477202 
L 790.942984 287.985731 
L 791.603887 110.095218 
L 792.264789 70.572053 
L 792.925692 58.117884 
L 793.586594 59.97247 
L 794.247497 81.62889 
L 794.908399 183.888401 
L 795.569302 245.79361 
L 796.230204 98.277926 
L 796.891107 58.193846 
L 797.552009 69.193063 
L 798.212912 43.943636 
L 798.873814 76.281252 
L 799.534717 174.046123 
L 800.195619 246.860229 
L 800.856522 105.20817 
L 801.517424 61.221027 
L 802.178327 65.722522 
L 802.839229 69.180279 
L 803.500132 107.450534 
L 804.161034 218.338596 
L 804.821937 272.452318 
L 805.482839 165.391911 
L 806.143742 227.503051 
L 806.804644 335.704557 
L 807.465547 199.129823 
L 808.126449 170.522965 
L 808.787352 253.245212 
L 809.448254 266.808057 
L 810.109157 156.209948 
L 810.770059 197.145823 
L 811.430962 298.559283 
L 812.091864 150.565502 
L 812.752767 147.221595 
L 813.413669 248.892955 
L 814.074572 297.478398 
L 814.735474 145.047412 
L 815.396377 113.083585 
L 816.057279 108.536977 
L 816.718182 117.451683 
L 816.718182 117.451683 
" clip-path="url(#pf804c16123)" style="fill: none; stroke: #98fe09; stroke-width: 2; stroke-linecap: square"/>
   </g>
   <g id="patch_3">
    <path d="M 50.6 387.16 
L 50.6 27.6 
" style="fill: none; stroke: #ffffff; stroke-width: 0.8; stroke-linejoin: miter; stroke-linecap: square"/>
   </g>
   <g id="patch_4">
    <path d="M 853.2 387.16 
L 853.2 27.6 
" style="fill: none; stroke: #ffffff; stroke-width: 0.8; stroke-linejoin: miter; stroke-linecap: square"/>
   </g>
   <g id="patch_5">
    <path d="M 50.6 387.16 
L 853.2 387.16 
" style="fill: none; stroke: #ffffff; stroke-width: 0.8; stroke-linejoin: miter; stroke-linecap: square"/>
   </g>
   <g id="patch_6">
    <path d="M 50.6 27.6 
L 853.2 27.6 
" style="fill: none; stroke: #ffffff; stroke-width: 0.8; stroke-linejoin: miter; stroke-linecap: square"/>
   </g>
   <g id="text_22">
    <!-- NYC Subway Ridership (2020-2025) -->
    <g style="fill: #ffffff" transform="translate(327.202656 21.6) scale(0.14 -0.14)">
     <defs>
      <path id="DejaVuSans-4e" d="M 628 4666 
L 1478 4666 
L 3547 763 
L 3547 4666 
L 4159 4666 
L 4159 0 
L 3309 0 
L 1241 3903 
L 1241 0 
L 628 0 
L 628 4666 
z
" transform="scale(0.015625)"/>
      <path id="DejaVuSans-59" d="M -13 4666 
L 666 4666 
L 1959 2747 
L 3244 4666 
L 3922 4666 
L 2272 2222 
L 2272 0 
L 1638 0 
L 1638 2222 
L -13 4666 
z
" transform="scale(0.015625)"/>
      <path id="DejaVuSans-43" d="M 4122 4306 
L 4122 3641 
Q 3803 3938 3442 4084 
Q 3081 4231 2675 4231 
Q 1875 4231 1450 3742 
Q 1025 3253 1025 2328 
Q 1025 1406 1450 917 
Q 1875 428 2675 428 
Q 3081 428 3442 575 
Q 3803 722 4122 1019 
L 4122 359 
Q 3791 134 3420 21 
Q 3050 -91 2638 -91 
Q 1578 -91 968 557 
Q 359 1206 359 2328 
Q 359 3453 968 4101 
Q 1578 4750 2638 4750 
Q 3056 4750 3426 4639 
Q 3797 4528 4122 4306 
z
" transform="scale(0.015625)"/>
      <path id="DejaVuSans-53" d="M 3425 4513 
L 3425 3897 
Q 3066 4069 2747 4153 
Q 2428 4238 2131 4238 
Q 1616 4238 1336 4038 
Q 1056 3838 1056 3469 
Q 1056 3159 1242 3001 
Q 1428 2844 1947 2747 
L 2328 2669 
Q 3034 2534 3370 2195 
Q 3706 1856 3706 1288 
Q 3706 609 3251 259 
Q 2797 -91 1919 -91 
Q 1588 -91 1214 -16 
Q 841 59 441 206 
L 441 856 
Q 825 641 1194 531 
Q 1563 422 1919 422 
Q 2459 422 2753 634 
Q 3047 847 3047 1241 
Q 3047 1584 2836 1778 
Q 2625 1972 2144 2069 
L 1759 2144 
Q 1053 2284 737 2584 
Q 422 2884 422 3419 
Q 422 4038 858 4394 
Q 1294 4750 2059 4750 
Q 2388 4750 2728 4690 
Q 3069 4631 3425 4513 
z
" transform="scale(0.015625)"/>
      <path id="DejaVuSans-75" d="M 544 1381 
L 544 3500 
L 1119 3500 
L 1119 1403 
Q 1119 906 1312 657 
Q 1506 409 1894 409 
Q 2359 409 2629 706 
Q 2900 1003 2900 1516 
L 2900 3500 
L 3475 3500 
L 3475 0 
L 2900 0 
L 2900 538 
Q 2691 219 2414 64 
Q 2138 -91 1772 -91 
Q 1169 -91 856 284 
Q 544 659 544 1381 
z
M 1991 3584 
L 1991 3584 
z
" transform="scale(0.015625)"/>
      <path id="DejaVuSans-62" d="M 3116 1747 
Q 3116 2381 2855 2742 
Q 2594 3103 2138 3103 
Q 1681 3103 1420 2742 
Q 1159 2381 1159 1747 
Q 1159 1113 1420 752 
Q 1681 391 2138 391 
Q 2594 391 2855 752 
Q 3116 1113 3116 1747 
z
M 1159 2969 
Q 1341 3281 1617 3432 
Q 1894 3584 2278 3584 
Q 2916 3584 3314 3078 
Q 3713 2572 3713 1747 
Q 3713 922 3314 415 
Q 2916 -91 2278 -91 
Q 1894 -91 1617 61 
Q 1341 213 1159 525 
L 1159 0 
L 581 0 
L 581 4863 
L 1159 4863 
L 1159 2969 
z
" transform="scale(0.015625)"/>
      <path id="DejaVuSans-77" d="M 269 3500 
L 844 3500 
L 1563 769 
L 2278 3500 
L 2956 3500 
L 3675 769 
L 4391 3500 
L 4966 3500 
L 4050 0 
L 3372 0 
L 2619 2869 
L 1863 0 
L 1184 0 
L 269 3500 
z
" transform="scale(0.015625)"/>
      <path id="DejaVuSans-28" d="M 1984 4856 
Q 1566 4138 1362 3434 
Q 1159 2731 1159 2009 
Q 1159 1288 1364 580 
Q 1569 -128 1984 -844 
L 1484 -844 
Q 1016 -109 783 600 
Q 550 1309 550 2009 
Q 550 2706 781 3412 
Q 1013 4119 1484 4856 
L 1984 4856 
z
" transform="scale(0.015625)"/>
      <path id="DejaVuSans-29" d="M 513 4856 
L 1013 4856 
Q 1481 4119 1714 3412 
Q 1947 2706 1947 2009 
Q 1947 1309 1714 600 
Q 1481 -109 1013 -844 
L 513 -844 
Q 928 -128 1133 580 
Q 1338 1288 1338 2009 
Q 1338 2731 1133 3434 
Q 928 4138 513 4856 
z
" transform="scale(0.015625)"/>
     </defs>
     <use xlink:href="#DejaVuSans-4e"/>
     <use xlink:href="#DejaVuSans-59" x="74.804688"/>
     <use xlink:href="#DejaVuSans-43" x="130.388672"/>
     <use xlink:href="#DejaVuSans-20" x="200.212891"/>
     <use xlink:href="#DejaVuSans-53" x="232"/>
     <use xlink:href="#DejaVuSans-75" x="295.476562"/>
     <use xlink:href="#DejaVuSans-62" x="358.855469"/>
     <use xlink:href="#DejaVuSans-77" x="422.332031"/>
     <use xlink:href="#DejaVuSans-61" x="504.119141"/>
     <use xlink:href="#DejaVuSans-79" x="565.398438"/>
     <use xlink:href="#DejaVuSans-20" x="624.578125"/>
     <use xlink:href="#DejaVuSans-52" x="656.365234"/>
     <use xlink:href="#DejaVuSans-69" x="725.847656"/>
     <use xlink:href="#DejaVuSans-64" x="753.630859"/>
     <use xlink:href="#DejaVuSans-65" x="817.107422"/>
     <use xlink:href="#DejaVuSans-72" x="878.630859"/>
     <use xlink:href="#DejaVuSans-73" x="919.744141"/>
     <use xlink:href="#DejaVuSans-68" x="971.84375"/>
     <use xlink:href="#DejaVuSans-69" x="1035.222656"/>
     <use xlink:href="#DejaVuSans-70" x="1063.005859"/>
     <use xlink:href="#DejaVuSans-20" x="1126.482422"/>
     <use xlink:href="#DejaVuSans-28" x="1158.269531"/>
     <use xlink:href="#DejaVuSans-32" x="1197.283203"/>
     <use xlink:href="#DejaVuSans-30" x="1260.90625"/>
     <use xlink:href="#DejaVuSans-32" x="1324.529297"/>
     <use xlink:href="#DejaVuSans-30" x="1388.152344"/>
     <use xlink:href="#DejaVuSans-2d" x="1451.775391"/>
     <use xlink:href="#DejaVuSans-32" x="1487.859375"/>
     <use xlink:href="#DejaVuSans-30" x="1551.482422"/>
     <use xlink:href="#DejaVuSans-32" x="1615.105469"/>
     <use xlink:href="#DejaVuSans-35" x="1678.728516"/>
     <use xlink:href="#DejaVuSans-29" x="1742.351562"/>
    </g>
   </g>
  </g>
 </g>
 <defs>
  <clipPath id="pf804c16123">
   <rect x="50.6" y="27.6" width="802.6" height="359.56"/>
  </clipPath>
 </defs>
</svg>
