<?xml version="1.0" encoding="utf-8" standalone="no"?>
<!DOCTYPE svg PUBLIC "-//W3C//DTD SVG 1.1//EN"
  "http://www.w3.org/Graphics/SVG/1.1/DTD/svg11.dtd">
<svg xmlns:xlink="http://www.w3.org/1999/xlink" width="864pt" height="432pt" viewBox="0 0 864 432" xmlns="http://www.w3.org/2000/svg" version="1.1">
 <metadata>
  <rdf:RDF xmlns:dc="http://purl.org/dc/elements/1.1/" xmlns:cc="http://creativecommons.org/ns#" xmlns:rdf="http://www.w3.org/1999/02/22-rdf-syntax-ns#">
   <cc:Work>
    <dc:type rdf:resource="http://purl.org/dc/dcmitype/StillImage"/>
    <dc:date>2025-11-28T18:59:15.662126</dc:date>
    <dc:format>image/svg+xml</dc:format>
    <dc:creator>
     <cc:Agent>
      <dc:title>Matplotlib v3.8.4, https://matplotlib.org/</dc:title>
     </cc:Agent>
    </dc:creator>
   </cc:Work>
  </rdf:RDF>
 </metadata>
 <defs>
  <style type="text/css">*{stroke-linejoin: round; stroke-linecap: butt}</style>
 </defs>
 <g id="figure_1">
  <g id="patch_1">
   <path d="M 0 432 
L 864 432 
L 864 0 
L 0 0 
z
" style="fill: #121212"/>
  </g>
  <g id="axes_1">
   <g id="patch_2">
    <path d="M 41.15 387.16 
L 853.2 387.16 
L 853.2 27.6 
L 41.15 27.6 
z
" style="fill: #121212"/>
   </g>
   <g id="matplotlib.axis_1">
    <g id="xtick_1">
     <g id="line2d_1">
      <defs>
       <path id="md5c72cb4eb" d="M 0 0 
L 0 3.5 
" style="stroke: #ffffff; stroke-width: 0.8"/>
      </defs>
      <g>
       <use xlink:href="#md5c72cb4eb" x="78.061364" y="387.16" style="fill: #ffffff; stroke: #ffffff; stroke-width: 0.8"/>
      </g>
     </g>
     <g id="text_1">
      <!-- 2024-01 -->
      <g style="fill: #ffffff" transform="translate(57.169957 401.758438) scale(0.1 -0.1)">
       <defs>
        <path id="DejaVuSans-32" d="M 1228 531 
L 3431 531 
L 3431 0 
L 469 0 
L 469 531 
Q 828 903 1448 1529 
Q 2069 2156 2228 2338 
Q 2531 2678 2651 2914 
Q 2772 3150 2772 3378 
Q 2772 3750 2511 3984 
Q 2250 4219 1831 4219 
Q 1534 4219 1204 4116 
Q 875 4013 500 3803 
L 500 4441 
Q 881 4594 1212 4672 
Q 1544 4750 1819 4750 
Q 2544 4750 2975 4387 
Q 3406 4025 3406 3419 
Q 3406 3131 3298 2873 
Q 3191 2616 2906 2266 
Q 2828 2175 2409 1742 
Q 1991 1309 1228 531 
z
" transform="scale(0.015625)"/>
        <path id="DejaVuSans-30" d="M 2034 4250 
Q 1547 4250 1301 3770 
Q 1056 3291 1056 2328 
Q 1056 1369 1301 889 
Q 1547 409 2034 409 
Q 2525 409 2770 889 
Q 3016 1369 3016 2328 
Q 3016 3291 2770 3770 
Q 2525 4250 2034 4250 
z
M 2034 4750 
Q 2819 4750 3233 4129 
Q 3647 3509 3647 2328 
Q 3647 1150 3233 529 
Q 2819 -91 2034 -91 
Q 1250 -91 836 529 
Q 422 1150 422 2328 
Q 422 3509 836 4129 
Q 1250 4750 2034 4750 
z
" transform="scale(0.015625)"/>
        <path id="DejaVuSans-34" d="M 2419 4116 
L 825 1625 
L 2419 1625 
L 2419 4116 
z
M 2253 4666 
L 3047 4666 
L 3047 1625 
L 3713 1625 
L 3713 1100 
L 3047 1100 
L 3047 0 
L 2419 0 
L 2419 1100 
L 313 1100 
L 313 1709 
L 2253 4666 
z
" transform="scale(0.015625)"/>
        <path id="DejaVuSans-2d" d="M 313 2009 
L 1997 2009 
L 1997 1497 
L 313 1497 
L 313 2009 
z
" transform="scale(0.015625)"/>
        <path id="DejaVuSans-31" d="M 794 531 
L 1825 531 
L 1825 4091 
L 703 3866 
L 703 4441 
L 1819 4666 
L 2450 4666 
L 2450 531 
L 3481 531 
L 3481 0 
L 794 0 
L 794 531 
z
" transform="scale(0.015625)"/>
       </defs>
       <use xlink:href="#DejaVuSans-32"/>
       <use xlink:href="#DejaVuSans-30" x="63.623047"/>
       <use xlink:href="#DejaVuSans-32" x="127.246094"/>
       <use xlink:href="#DejaVuSans-34" x="190.869141"/>
       <use xlink:href="#DejaVuSans-2d" x="254.492188"/>
       <use xlink:href="#DejaVuSans-30" x="290.576172"/>
       <use xlink:href="#DejaVuSans-31" x="354.199219"/>
      </g>
     </g>
    </g>
    <g id="xtick_2">
     <g id="line2d_2">
      <g>
       <use xlink:href="#md5c72cb4eb" x="196.493546" y="387.16" style="fill: #ffffff; stroke: #ffffff; stroke-width: 0.8"/>
      </g>
     </g>
     <g id="text_2">
      <!-- 2024-03 -->
      <g style="fill: #ffffff" transform="translate(175.60214 401.758438) scale(0.1 -0.1)">
       <defs>
        <path id="DejaVuSans-33" d="M 2597 2516 
Q 3050 2419 3304 2112 
Q 3559 1806 3559 1356 
Q 3559 666 3084 287 
Q 2609 -91 1734 -91 
Q 1441 -91 1130 -33 
Q 819 25 488 141 
L 488 750 
Q 750 597 1062 519 
Q 1375 441 1716 441 
Q 2309 441 2620 675 
Q 2931 909 2931 1356 
Q 2931 1769 2642 2001 
Q 2353 2234 1838 2234 
L 1294 2234 
L 1294 2753 
L 1863 2753 
Q 2328 2753 2575 2939 
Q 2822 3125 2822 3475 
Q 2822 3834 2567 4026 
Q 2313 4219 1838 4219 
Q 1578 4219 1281 4162 
Q 984 4106 628 3988 
L 628 4550 
Q 988 4650 1302 4700 
Q 1616 4750 1894 4750 
Q 2613 4750 3031 4423 
Q 3450 4097 3450 3541 
Q 3450 3153 3228 2886 
Q 3006 2619 2597 2516 
z
" transform="scale(0.015625)"/>
       </defs>
       <use xlink:href="#DejaVuSans-32"/>
       <use xlink:href="#DejaVuSans-30" x="63.623047"/>
       <use xlink:href="#DejaVuSans-32" x="127.246094"/>
       <use xlink:href="#DejaVuSans-34" x="190.869141"/>
       <use xlink:href="#DejaVuSans-2d" x="254.492188"/>
       <use xlink:href="#DejaVuSans-30" x="290.576172"/>
       <use xlink:href="#DejaVuSans-33" x="354.199219"/>
      </g>
     </g>
    </g>
    <g id="xtick_3">
     <g id="line2d_3">
      <g>
       <use xlink:href="#md5c72cb4eb" x="316.899599" y="387.16" style="fill: #ffffff; stroke: #ffffff; stroke-width: 0.8"/>
      </g>
     </g>
     <g id="text_3">
      <!-- 2024-05 -->
      <g style="fill: #ffffff" transform="translate(296.008193 401.758438) scale(0.1 -0.1)">
       <defs>
        <path id="DejaVuSans-35" d="M 691 4666 
L 3169 4666 
L 3169 4134 
L 1269 4134 
L 1269 2991 
Q 1406 3038 1543 3061 
Q 1681 3084 1819 3084 
Q 2600 3084 3056 2656 
Q 3513 2228 3513 1497 
Q 3513 744 3044 326 
Q 2575 -91 1722 -91 
Q 1428 -91 1123 -41 
Q 819 9 494 109 
L 494 744 
Q 775 591 1075 516 
Q 1375 441 1709 441 
Q 2250 441 2565 725 
Q 2881 1009 2881 1497 
Q 2881 1984 2565 2268 
Q 2250 2553 1709 2553 
Q 1456 2553 1204 2497 
Q 953 2441 691 2322 
L 691 4666 
z
" transform="scale(0.015625)"/>
       </defs>
       <use xlink:href="#DejaVuSans-32"/>
       <use xlink:href="#DejaVuSans-30" x="63.623047"/>
       <use xlink:href="#DejaVuSans-32" x="127.246094"/>
       <use xlink:href="#DejaVuSans-34" x="190.869141"/>
       <use xlink:href="#DejaVuSans-2d" x="254.492188"/>
       <use xlink:href="#DejaVuSans-30" x="290.576172"/>
       <use xlink:href="#DejaVuSans-35" x="354.199219"/>
      </g>
     </g>
    </g>
    <g id="xtick_4">
     <g id="line2d_4">
      <g>
       <use xlink:href="#md5c72cb4eb" x="437.305651" y="387.16" style="fill: #ffffff; stroke: #ffffff; stroke-width: 0.8"/>
      </g>
     </g>
     <g id="text_4">
      <!-- 2024-07 -->
      <g style="fill: #ffffff" transform="translate(416.414245 401.758438) scale(0.1 -0.1)">
       <defs>
        <path id="DejaVuSans-37" d="M 525 4666 
L 3525 4666 
L 3525 4397 
L 1831 0 
L 1172 0 
L 2766 4134 
L 525 4134 
L 525 4666 
z
" transform="scale(0.015625)"/>
       </defs>
       <use xlink:href="#DejaVuSans-32"/>
       <use xlink:href="#DejaVuSans-30" x="63.623047"/>
       <use xlink:href="#DejaVuSans-32" x="127.246094"/>
       <use xlink:href="#DejaVuSans-34" x="190.869141"/>
       <use xlink:href="#DejaVuSans-2d" x="254.492188"/>
       <use xlink:href="#DejaVuSans-30" x="290.576172"/>
       <use xlink:href="#DejaVuSans-37" x="354.199219"/>
      </g>
     </g>
    </g>
    <g id="xtick_5">
     <g id="line2d_5">
      <g>
       <use xlink:href="#md5c72cb4eb" x="559.685574" y="387.16" style="fill: #ffffff; stroke: #ffffff; stroke-width: 0.8"/>
      </g>
     </g>
     <g id="text_5">
      <!-- 2024-09 -->
      <g style="fill: #ffffff" transform="translate(538.794167 401.758438) scale(0.1 -0.1)">
       <defs>
        <path id="DejaVuSans-39" d="M 703 97 
L 703 672 
Q 941 559 1184 500 
Q 1428 441 1663 441 
Q 2288 441 2617 861 
Q 2947 1281 2994 2138 
Q 2813 1869 2534 1725 
Q 2256 1581 1919 1581 
Q 1219 1581 811 2004 
Q 403 2428 403 3163 
Q 403 3881 828 4315 
Q 1253 4750 1959 4750 
Q 2769 4750 3195 4129 
Q 3622 3509 3622 2328 
Q 3622 1225 3098 567 
Q 2575 -91 1691 -91 
Q 1453 -91 1209 -44 
Q 966 3 703 97 
z
M 1959 2075 
Q 2384 2075 2632 2365 
Q 2881 2656 2881 3163 
Q 2881 3666 2632 3958 
Q 2384 4250 1959 4250 
Q 1534 4250 1286 3958 
Q 1038 3666 1038 3163 
Q 1038 2656 1286 2365 
Q 1534 2075 1959 2075 
z
" transform="scale(0.015625)"/>
       </defs>
       <use xlink:href="#DejaVuSans-32"/>
       <use xlink:href="#DejaVuSans-30" x="63.623047"/>
       <use xlink:href="#DejaVuSans-32" x="127.246094"/>
       <use xlink:href="#DejaVuSans-34" x="190.869141"/>
       <use xlink:href="#DejaVuSans-2d" x="254.492188"/>
       <use xlink:href="#DejaVuSans-30" x="290.576172"/>
       <use xlink:href="#DejaVuSans-39" x="354.199219"/>
      </g>
     </g>
    </g>
    <g id="xtick_6">
     <g id="line2d_6">
      <g>
       <use xlink:href="#md5c72cb4eb" x="680.091626" y="387.16" style="fill: #ffffff; stroke: #ffffff; stroke-width: 0.8"/>
      </g>
     </g>
     <g id="text_6">
      <!-- 2024-11 -->
      <g style="fill: #ffffff" transform="translate(659.20022 401.758438) scale(0.1 -0.1)">
       <use xlink:href="#DejaVuSans-32"/>
       <use xlink:href="#DejaVuSans-30" x="63.623047"/>
       <use xlink:href="#DejaVuSans-32" x="127.246094"/>
       <use xlink:href="#DejaVuSans-34" x="190.869141"/>
       <use xlink:href="#DejaVuSans-2d" x="254.492188"/>
       <use xlink:href="#DejaVuSans-31" x="290.576172"/>
       <use xlink:href="#DejaVuSans-31" x="354.199219"/>
      </g>
     </g>
    </g>
    <g id="xtick_7">
     <g id="line2d_7">
      <g>
       <use xlink:href="#md5c72cb4eb" x="800.497679" y="387.16" style="fill: #ffffff; stroke: #ffffff; stroke-width: 0.8"/>
      </g>
     </g>
     <g id="text_7">
      <!-- 2025-01 -->
      <g style="fill: #ffffff" transform="translate(779.606272 401.758438) scale(0.1 -0.1)">
       <use xlink:href="#DejaVuSans-32"/>
       <use xlink:href="#DejaVuSans-30" x="63.623047"/>
       <use xlink:href="#DejaVuSans-32" x="127.246094"/>
       <use xlink:href="#DejaVuSans-35" x="190.869141"/>
       <use xlink:href="#DejaVuSans-2d" x="254.492188"/>
       <use xlink:href="#DejaVuSans-30" x="290.576172"/>
       <use xlink:href="#DejaVuSans-31" x="354.199219"/>
      </g>
     </g>
    </g>
    <g id="text_8">
     <!-- Date -->
     <g style="fill: #ffffff" transform="translate(432.834062 416.95625) scale(0.12 -0.12)">
      <defs>
       <path id="DejaVuSans-44" d="M 1259 4147 
L 1259 519 
L 2022 519 
Q 2988 519 3436 956 
Q 3884 1394 3884 2338 
Q 3884 3275 3436 3711 
Q 2988 4147 2022 4147 
L 1259 4147 
z
M 628 4666 
L 1925 4666 
Q 3281 4666 3915 4102 
Q 4550 3538 4550 2338 
Q 4550 1131 3912 565 
Q 3275 0 1925 0 
L 628 0 
L 628 4666 
z
" transform="scale(0.015625)"/>
       <path id="DejaVuSans-61" d="M 2194 1759 
Q 1497 1759 1228 1600 
Q 959 1441 959 1056 
Q 959 750 1161 570 
Q 1363 391 1709 391 
Q 2188 391 2477 730 
Q 2766 1069 2766 1631 
L 2766 1759 
L 2194 1759 
z
M 3341 1997 
L 3341 0 
L 2766 0 
L 2766 531 
Q 2569 213 2275 61 
Q 1981 -91 1556 -91 
Q 1019 -91 701 211 
Q 384 513 384 1019 
Q 384 1609 779 1909 
Q 1175 2209 1959 2209 
L 2766 2209 
L 2766 2266 
Q 2766 2663 2505 2880 
Q 2244 3097 1772 3097 
Q 1472 3097 1187 3025 
Q 903 2953 641 2809 
L 641 3341 
Q 956 3463 1253 3523 
Q 1550 3584 1831 3584 
Q 2591 3584 2966 3190 
Q 3341 2797 3341 1997 
z
" transform="scale(0.015625)"/>
       <path id="DejaVuSans-74" d="M 1172 4494 
L 1172 3500 
L 2356 3500 
L 2356 3053 
L 1172 3053 
L 1172 1153 
Q 1172 725 1289 603 
Q 1406 481 1766 481 
L 2356 481 
L 2356 0 
L 1766 0 
Q 1100 0 847 248 
Q 594 497 594 1153 
L 594 3053 
L 172 3053 
L 172 3500 
L 594 3500 
L 594 4494 
L 1172 4494 
z
" transform="scale(0.015625)"/>
       <path id="DejaVuSans-65" d="M 3597 1894 
L 3597 1613 
L 953 1613 
Q 991 1019 1311 708 
Q 1631 397 2203 397 
Q 2534 397 2845 478 
Q 3156 559 3463 722 
L 3463 178 
Q 3153 47 2828 -22 
Q 2503 -91 2169 -91 
Q 1331 -91 842 396 
Q 353 884 353 1716 
Q 353 2575 817 3079 
Q 1281 3584 2069 3584 
Q 2775 3584 3186 3129 
Q 3597 2675 3597 1894 
z
M 3022 2063 
Q 3016 2534 2758 2815 
Q 2500 3097 2075 3097 
Q 1594 3097 1305 2825 
Q 1016 2553 972 2059 
L 3022 2063 
z
" transform="scale(0.015625)"/>
      </defs>
      <use xlink:href="#DejaVuSans-44"/>
      <use xlink:href="#DejaVuSans-61" x="77.001953"/>
      <use xlink:href="#DejaVuSans-74" x="138.28125"/>
      <use xlink:href="#DejaVuSans-65" x="177.490234"/>
     </g>
    </g>
   </g>
   <g id="matplotlib.axis_2">
    <g id="ytick_1">
     <g id="line2d_8">
      <defs>
       <path id="mfd13f2bbbe" d="M 0 0 
L -3.5 0 
" style="stroke: #ffffff; stroke-width: 0.8"/>
      </defs>
      <g>
       <use xlink:href="#mfd13f2bbbe" x="41.15" y="376.170494" style="fill: #ffffff; stroke: #ffffff; stroke-width: 0.8"/>
      </g>
     </g>
     <g id="text_9">
      <!-- 0 -->
      <g style="fill: #ffffff" transform="translate(27.7875 379.969713) scale(0.1 -0.1)">
       <use xlink:href="#DejaVuSans-30"/>
      </g>
     </g>
    </g>
    <g id="ytick_2">
     <g id="line2d_9">
      <g>
       <use xlink:href="#mfd13f2bbbe" x="41.15" y="302.797088" style="fill: #ffffff; stroke: #ffffff; stroke-width: 0.8"/>
      </g>
     </g>
     <g id="text_10">
      <!-- 1 -->
      <g style="fill: #ffffff" transform="translate(27.7875 306.596307) scale(0.1 -0.1)">
       <use xlink:href="#DejaVuSans-31"/>
      </g>
     </g>
    </g>
    <g id="ytick_3">
     <g id="line2d_10">
      <g>
       <use xlink:href="#mfd13f2bbbe" x="41.15" y="229.423682" style="fill: #ffffff; stroke: #ffffff; stroke-width: 0.8"/>
      </g>
     </g>
     <g id="text_11">
      <!-- 2 -->
      <g style="fill: #ffffff" transform="translate(27.7875 233.222901) scale(0.1 -0.1)">
       <use xlink:href="#DejaVuSans-32"/>
      </g>
     </g>
    </g>
    <g id="ytick_4">
     <g id="line2d_11">
      <g>
       <use xlink:href="#mfd13f2bbbe" x="41.15" y="156.050276" style="fill: #ffffff; stroke: #ffffff; stroke-width: 0.8"/>
      </g>
     </g>
     <g id="text_12">
      <!-- 3 -->
      <g style="fill: #ffffff" transform="translate(27.7875 159.849495) scale(0.1 -0.1)">
       <use xlink:href="#DejaVuSans-33"/>
      </g>
     </g>
    </g>
    <g id="ytick_5">
     <g id="line2d_12">
      <g>
       <use xlink:href="#mfd13f2bbbe" x="41.15" y="82.67687" style="fill: #ffffff; stroke: #ffffff; stroke-width: 0.8"/>
      </g>
     </g>
     <g id="text_13">
      <!-- 4 -->
      <g style="fill: #ffffff" transform="translate(27.7875 86.476089) scale(0.1 -0.1)">
       <use xlink:href="#DejaVuSans-34"/>
      </g>
     </g>
    </g>
    <g id="text_14">
     <!-- Daily Ridership -->
     <g style="fill: #ffffff" transform="translate(21.291875 252.67625) rotate(-90) scale(0.12 -0.12)">
      <defs>
       <path id="DejaVuSans-69" d="M 603 3500 
L 1178 3500 
L 1178 0 
L 603 0 
L 603 3500 
z
M 603 4863 
L 1178 4863 
L 1178 4134 
L 603 4134 
L 603 4863 
z
" transform="scale(0.015625)"/>
       <path id="DejaVuSans-6c" d="M 603 4863 
L 1178 4863 
L 1178 0 
L 603 0 
L 603 4863 
z
" transform="scale(0.015625)"/>
       <path id="DejaVuSans-79" d="M 2059 -325 
Q 1816 -950 1584 -1140 
Q 1353 -1331 966 -1331 
L 506 -1331 
L 506 -850 
L 844 -850 
Q 1081 -850 1212 -737 
Q 1344 -625 1503 -206 
L 1606 56 
L 191 3500 
L 800 3500 
L 1894 763 
L 2988 3500 
L 3597 3500 
L 2059 -325 
z
" transform="scale(0.015625)"/>
       <path id="DejaVuSans-20" transform="scale(0.015625)"/>
       <path id="DejaVuSans-52" d="M 2841 2188 
Q 3044 2119 3236 1894 
Q 3428 1669 3622 1275 
L 4263 0 
L 3584 0 
L 2988 1197 
Q 2756 1666 2539 1819 
Q 2322 1972 1947 1972 
L 1259 1972 
L 1259 0 
L 628 0 
L 628 4666 
L 2053 4666 
Q 2853 4666 3247 4331 
Q 3641 3997 3641 3322 
Q 3641 2881 3436 2590 
Q 3231 2300 2841 2188 
z
M 1259 4147 
L 1259 2491 
L 2053 2491 
Q 2509 2491 2742 2702 
Q 2975 2913 2975 3322 
Q 2975 3731 2742 3939 
Q 2509 4147 2053 4147 
L 1259 4147 
z
" transform="scale(0.015625)"/>
       <path id="DejaVuSans-64" d="M 2906 2969 
L 2906 4863 
L 3481 4863 
L 3481 0 
L 2906 0 
L 2906 525 
Q 2725 213 2448 61 
Q 2172 -91 1784 -91 
Q 1150 -91 751 415 
Q 353 922 353 1747 
Q 353 2572 751 3078 
Q 1150 3584 1784 3584 
Q 2172 3584 2448 3432 
Q 2725 3281 2906 2969 
z
M 947 1747 
Q 947 1113 1208 752 
Q 1469 391 1925 391 
Q 2381 391 2643 752 
Q 2906 1113 2906 1747 
Q 2906 2381 2643 2742 
Q 2381 3103 1925 3103 
Q 1469 3103 1208 2742 
Q 947 2381 947 1747 
z
" transform="scale(0.015625)"/>
       <path id="DejaVuSans-72" d="M 2631 2963 
Q 2534 3019 2420 3045 
Q 2306 3072 2169 3072 
Q 1681 3072 1420 2755 
Q 1159 2438 1159 1844 
L 1159 0 
L 581 0 
L 581 3500 
L 1159 3500 
L 1159 2956 
Q 1341 3275 1631 3429 
Q 1922 3584 2338 3584 
Q 2397 3584 2469 3576 
Q 2541 3569 2628 3553 
L 2631 2963 
z
" transform="scale(0.015625)"/>
       <path id="DejaVuSans-73" d="M 2834 3397 
L 2834 2853 
Q 2591 2978 2328 3040 
Q 2066 3103 1784 3103 
Q 1356 3103 1142 2972 
Q 928 2841 928 2578 
Q 928 2378 1081 2264 
Q 1234 2150 1697 2047 
L 1894 2003 
Q 2506 1872 2764 1633 
Q 3022 1394 3022 966 
Q 3022 478 2636 193 
Q 2250 -91 1575 -91 
Q 1294 -91 989 -36 
Q 684 19 347 128 
L 347 722 
Q 666 556 975 473 
Q 1284 391 1588 391 
Q 1994 391 2212 530 
Q 2431 669 2431 922 
Q 2431 1156 2273 1281 
Q 2116 1406 1581 1522 
L 1381 1569 
Q 847 1681 609 1914 
Q 372 2147 372 2553 
Q 372 3047 722 3315 
Q 1072 3584 1716 3584 
Q 2034 3584 2315 3537 
Q 2597 3491 2834 3397 
z
" transform="scale(0.015625)"/>
       <path id="DejaVuSans-68" d="M 3513 2113 
L 3513 0 
L 2938 0 
L 2938 2094 
Q 2938 2591 2744 2837 
Q 2550 3084 2163 3084 
Q 1697 3084 1428 2787 
Q 1159 2491 1159 1978 
L 1159 0 
L 581 0 
L 581 4863 
L 1159 4863 
L 1159 2956 
Q 1366 3272 1645 3428 
Q 1925 3584 2291 3584 
Q 2894 3584 3203 3211 
Q 3513 2838 3513 2113 
z
" transform="scale(0.015625)"/>
       <path id="DejaVuSans-70" d="M 1159 525 
L 1159 -1331 
L 581 -1331 
L 581 3500 
L 1159 3500 
L 1159 2969 
Q 1341 3281 1617 3432 
Q 1894 3584 2278 3584 
Q 2916 3584 3314 3078 
Q 3713 2572 3713 1747 
Q 3713 922 3314 415 
Q 2916 -91 2278 -91 
Q 1894 -91 1617 61 
Q 1341 213 1159 525 
z
M 3116 1747 
Q 3116 2381 2855 2742 
Q 2594 3103 2138 3103 
Q 1681 3103 1420 2742 
Q 1159 2381 1159 1747 
Q 1159 1113 1420 752 
Q 1681 391 2138 391 
Q 2594 391 2855 752 
Q 3116 1113 3116 1747 
z
" transform="scale(0.015625)"/>
      </defs>
      <use xlink:href="#DejaVuSans-44"/>
      <use xlink:href="#DejaVuSans-61" x="77.001953"/>
      <use xlink:href="#DejaVuSans-69" x="138.28125"/>
      <use xlink:href="#DejaVuSans-6c" x="166.064453"/>
      <use xlink:href="#DejaVuSans-79" x="193.847656"/>
      <use xlink:href="#DejaVuSans-20" x="253.027344"/>
      <use xlink:href="#DejaVuSans-52" x="284.814453"/>
      <use xlink:href="#DejaVuSans-69" x="354.296875"/>
      <use xlink:href="#DejaVuSans-64" x="382.080078"/>
      <use xlink:href="#DejaVuSans-65" x="445.556641"/>
      <use xlink:href="#DejaVuSans-72" x="507.080078"/>
      <use xlink:href="#DejaVuSans-73" x="548.193359"/>
      <use xlink:href="#DejaVuSans-68" x="600.292969"/>
      <use xlink:href="#DejaVuSans-69" x="663.671875"/>
      <use xlink:href="#DejaVuSans-70" x="691.455078"/>
     </g>
    </g>
    <g id="text_15">
     <!-- 1e6 -->
     <g style="fill: #ffffff" transform="translate(41.15 24.6) scale(0.1 -0.1)">
      <defs>
       <path id="DejaVuSans-36" d="M 2113 2584 
Q 1688 2584 1439 2293 
Q 1191 2003 1191 1497 
Q 1191 994 1439 701 
Q 1688 409 2113 409 
Q 2538 409 2786 701 
Q 3034 994 3034 1497 
Q 3034 2003 2786 2293 
Q 2538 2584 2113 2584 
z
M 3366 4563 
L 3366 3988 
Q 3128 4100 2886 4159 
Q 2644 4219 2406 4219 
Q 1781 4219 1451 3797 
Q 1122 3375 1075 2522 
Q 1259 2794 1537 2939 
Q 1816 3084 2150 3084 
Q 2853 3084 3261 2657 
Q 3669 2231 3669 1497 
Q 3669 778 3244 343 
Q 2819 -91 2113 -91 
Q 1303 -91 875 529 
Q 447 1150 447 2328 
Q 447 3434 972 4092 
Q 1497 4750 2381 4750 
Q 2619 4750 2861 4703 
Q 3103 4656 3366 4563 
z
" transform="scale(0.015625)"/>
      </defs>
      <use xlink:href="#DejaVuSans-31"/>
      <use xlink:href="#DejaVuSans-65" x="63.623047"/>
      <use xlink:href="#DejaVuSans-36" x="125.146484"/>
     </g>
    </g>
   </g>
   <g id="line2d_13">
    <path d="M 78.061364 255.197265 
L 80.035233 134.725103 
L 82.009103 115.322019 
L 83.982973 114.909588 
L 85.956842 136.748375 
L 87.930712 233.645735 
L 89.904582 268.132703 
L 91.878452 133.764792 
L 93.852321 130.135376 
L 95.826191 115.169109 
L 97.800061 105.502163 
L 99.77393 129.210945 
L 101.7478 217.142222 
L 103.72167 248.239852 
L 105.69554 216.956293 
L 107.669409 138.738922 
L 109.643279 110.784535 
L 111.617149 107.928328 
L 113.591018 143.106621 
L 115.564888 227.659712 
L 117.538758 260.524762 
L 119.512628 133.642992 
L 121.486497 108.175009 
L 125.434237 106.019372 
L 127.408106 128.108509 
L 129.381976 208.641105 
L 131.355846 262.509439 
L 133.329716 134.216479 
L 135.303585 103.40339 
L 137.277455 96.721714 
L 139.251325 96.274283 
L 141.225194 122.459418 
L 143.199064 205.647911 
L 145.172934 248.34617 
L 147.146804 120.700657 
L 149.120673 93.130159 
L 151.094543 89.941425 
L 153.068413 89.74471 
L 155.042282 115.89147 
L 157.016152 201.14205 
L 158.990022 245.954858 
L 160.963892 128.564892 
L 162.937761 209.349893 
L 164.911631 85.345608 
L 166.885501 91.858818 
L 168.85937 119.030752 
L 170.83324 216.359768 
L 172.80711 240.36806 
L 174.78098 211.466202 
L 176.754849 120.024668 
L 178.728719 112.651081 
L 180.702589 112.89402 
L 182.676458 139.972622 
L 184.650328 206.765388 
L 186.624198 248.465769 
L 188.598068 123.833555 
L 190.571937 97.1712 
L 192.545807 98.512539 
L 194.519677 89.582188 
L 196.493546 113.959035 
L 198.467416 222.524454 
L 200.441286 232.247825 
L 202.415156 116.452777 
L 204.389025 95.919743 
L 206.362895 92.539063 
L 208.336765 90.474189 
L 210.310634 105.773425 
L 212.284504 219.985294 
L 214.258374 243.835834 
L 216.232244 119.54055 
L 218.206113 83.525214 
L 220.179983 80.846718 
L 222.153853 79.067926 
L 224.127722 108.870222 
L 226.101592 188.84408 
L 228.075462 231.465664 
L 230.049332 120.642839 
L 232.023201 92.280275 
L 233.997071 91.033808 
L 235.970941 92.784204 
L 237.94481 113.349962 
L 239.91868 239.412518 
L 241.89255 235.811131 
L 243.86642 113.221045 
L 245.840289 84.893261 
L 247.814159 81.648836 
L 249.788029 89.240342 
L 251.761898 128.716115 
L 253.735768 190.787521 
L 255.709638 234.097935 
L 257.683508 132.424847 
L 259.657377 90.009735 
L 261.631247 90.725566 
L 263.605117 75.285747 
L 265.578986 97.292853 
L 267.552856 194.415249 
L 269.526726 236.787364 
L 271.500596 118.870577 
L 273.474465 79.545734 
L 275.448335 97.942574 
L 277.422205 82.641284 
L 279.396074 107.00463 
L 281.369944 190.160692 
L 283.343814 224.369355 
L 285.317684 104.382411 
L 287.291553 80.217834 
L 289.265423 81.117245 
L 291.239293 85.154984 
L 293.213162 104.264647 
L 295.187032 189.983642 
L 297.160902 235.422912 
L 299.134772 139.931827 
L 301.108641 117.733363 
L 303.082511 111.438512 
L 305.056381 102.935708 
L 307.03025 124.383048 
L 309.00412 192.239581 
L 310.97799 223.190612 
L 312.95186 132.298865 
L 314.925729 109.165697 
L 316.899599 80.270883 
L 318.873469 78.183336 
L 320.847338 98.753864 
L 322.821208 188.066175 
L 324.795078 237.555364 
L 326.768947 108.203111 
L 328.742817 75.462724 
L 330.716687 76.258385 
L 332.690557 76.328016 
L 334.664426 106.356816 
L 336.638296 181.835159 
L 338.612166 239.778724 
L 340.586035 104.463929 
L 342.559905 74.117496 
L 344.533775 74.267177 
L 346.507645 74.970755 
L 348.481514 96.110514 
L 350.455384 178.695657 
L 352.429254 220.509914 
L 354.403123 106.005138 
L 356.376993 80.508173 
L 358.350863 75.044495 
L 360.324733 92.721763 
L 362.298602 113.255678 
L 364.272472 203.951444 
L 366.246342 228.028707 
L 368.220211 253.791724 
L 370.194081 95.459912 
L 372.167951 82.180573 
L 374.141821 84.147347 
L 376.11569 105.523368 
L 378.08956 196.687917 
L 380.06343 231.035183 
L 382.037299 111.183099 
L 384.011169 84.159527 
L 385.985039 78.865636 
L 387.958909 99.235487 
L 389.932778 100.843245 
L 391.906648 180.027238 
L 393.880518 219.551217 
L 395.854387 104.52659 
L 397.828257 83.012554 
L 399.802127 84.308695 
L 401.775997 87.303724 
L 403.749866 118.111676 
L 405.723736 197.740312 
L 407.697606 236.966395 
L 409.671475 132.196289 
L 411.645345 88.485183 
L 413.619215 152.65162 
L 415.593085 93.110789 
L 417.566954 119.336792 
L 419.540824 201.159733 
L 421.514694 236.116364 
L 423.488563 121.722895 
L 425.462433 95.044178 
L 427.436303 89.9335 
L 429.410173 99.053008 
L 431.384042 117.695649 
L 433.357912 196.039003 
L 435.331782 229.257198 
L 437.305651 135.979275 
L 439.279521 116.276534 
L 441.253391 126.014359 
L 443.227261 229.992767 
L 445.20113 178.008442 
L 447.175 222.021993 
L 449.14887 243.7629 
L 451.122739 139.263615 
L 453.096609 111.657018 
L 455.070479 105.287986 
L 457.044349 105.567245 
L 459.018218 136.894388 
L 460.992088 214.508116 
L 462.965958 238.986438 
L 464.939827 136.987866 
L 466.913697 112.455467 
L 468.887567 108.228719 
L 470.861437 109.25081 
L 472.835306 128.691241 
L 474.809176 209.638764 
L 476.783046 238.396956 
L 478.756915 138.782359 
L 480.730785 111.537859 
L 482.704655 107.88269 
L 484.678525 109.212289 
L 486.652394 134.856441 
L 488.626264 206.901862 
L 490.600134 240.328218 
L 492.574003 141.20823 
L 494.547873 112.742284 
L 496.521743 113.762027 
L 498.495613 116.086497 
L 500.469482 144.754074 
L 502.443352 214.721633 
L 504.417222 247.557113 
L 506.391091 139.717283 
L 508.364961 122.109133 
L 510.338831 118.537902 
L 512.312701 120.081385 
L 514.28657 153.021716 
L 516.26044 203.273034 
L 518.23431 235.385418 
L 520.208179 143.636964 
L 522.182049 119.97903 
L 524.155919 116.08613 
L 526.129789 119.681207 
L 528.103658 141.468559 
L 530.077528 210.622994 
L 532.051398 250.478181 
L 534.025267 150.432882 
L 535.999137 121.132753 
L 537.973007 119.462554 
L 539.946877 124.652989 
L 541.920746 140.666368 
L 543.894616 205.017927 
L 545.868486 236.334137 
L 547.842355 147.722542 
L 549.816225 121.043751 
L 551.790095 118.140145 
L 553.763965 123.856961 
L 555.737834 144.879762 
L 557.711704 217.830391 
L 559.685574 231.672577 
L 561.659443 228.877344 
L 563.633313 109.868761 
L 565.607183 92.299499 
L 567.581053 80.231922 
L 569.554922 97.721941 
L 571.528792 194.230935 
L 573.502662 222.009446 
L 575.476531 96.519204 
L 577.450401 69.293194 
L 579.424271 66.923087 
L 581.39814 65.638538 
L 583.37201 89.176874 
L 585.34588 177.587279 
L 587.31975 217.556488 
L 589.293619 95.779306 
L 591.267489 68.786478 
L 593.241359 65.589085 
L 595.215228 63.953151 
L 597.189098 87.589367 
L 599.162968 174.787496 
L 601.136838 219.744996 
L 603.110707 90.101819 
L 605.084577 58.925312 
L 607.058447 58.027442 
L 609.032316 60.978667 
L 611.006186 86.684306 
L 612.980056 188.482643 
L 614.953926 232.405358 
L 616.927795 93.746129 
L 618.901665 69.516396 
L 620.875535 77.682123 
L 622.849404 110.00641 
L 624.823274 118.875347 
L 626.797144 177.317852 
L 628.771014 224.632839 
L 630.744883 93.898966 
L 632.718753 63.823574 
L 634.692623 59.695513 
L 636.666492 58.525207 
L 638.640362 92.320777 
L 640.614232 186.344101 
L 642.588102 218.166074 
L 644.561971 151.145191 
L 646.535841 61.778804 
L 648.509711 56.47398 
L 650.48358 59.958043 
L 652.45745 80.402442 
L 654.43132 174.2212 
L 656.40519 216.475037 
L 658.379059 94.246756 
L 660.352929 66.616826 
L 662.326799 62.381346 
L 664.300668 60.310382 
L 666.274538 81.224811 
L 668.248408 168.630954 
L 670.222278 214.1119 
L 672.196147 83.911892 
L 674.170017 54.883685 
L 676.143887 52.010382 
L 678.117756 57.709955 
L 680.091626 98.754891 
L 682.065496 169.469832 
L 684.039366 185.189057 
L 686.013235 86.367626 
L 687.987105 109.073247 
L 689.960975 74.355519 
L 691.934844 65.640299 
L 693.908714 84.740277 
L 695.882584 172.891381 
L 697.856454 220.828428 
L 699.830323 135.680572 
L 701.804193 63.365063 
L 703.778063 58.388512 
L 705.751932 60.916666 
L 707.725802 83.665504 
L 709.699672 171.52238 
L 711.673542 221.953829 
L 713.647411 89.943919 
L 715.621281 62.284053 
L 717.595151 60.742258 
L 719.56902 66.700251 
L 721.54289 93.326287 
L 723.51676 176.576927 
L 725.49063 223.919576 
L 727.464499 88.971355 
L 729.438369 80.475008 
L 731.412239 103.923608 
L 733.386108 265.123733 
L 735.359978 179.713273 
L 737.333848 205.945587 
L 739.307718 237.238537 
L 741.281587 96.339365 
L 743.255457 65.034822 
L 745.229327 55.170428 
L 747.203196 56.639363 
L 749.177066 73.792452 
L 751.150936 154.787667 
L 753.124806 203.820032 
L 755.098675 86.979414 
L 757.072545 55.230594 
L 759.046415 63.942585 
L 761.020284 43.943636 
L 762.994154 69.556825 
L 764.968024 146.992036 
L 766.941894 204.664854 
L 768.915763 92.468551 
L 770.889633 57.62829 
L 772.863503 61.193724 
L 774.837372 63.93246 
L 776.811242 94.244628 
L 778.785112 182.074136 
L 780.758982 224.935211 
L 782.732851 140.137419 
L 784.706721 189.332894 
L 786.680591 275.034499 
L 788.65446 166.85972 
L 790.62833 144.201499 
L 792.6022 209.722116 
L 794.57607 220.464643 
L 796.549939 132.864794 
L 798.523809 165.288282 
L 800.497679 245.613378 
L 802.471548 128.394079 
L 804.445418 125.745519 
L 806.419288 206.274886 
L 808.393158 244.757257 
L 810.367027 124.023445 
L 812.340897 98.706318 
L 814.314767 95.105151 
L 816.288636 102.166094 
L 816.288636 102.166094 
" clip-path="url(#p1182bea958)" style="fill: none; stroke: #98fe09; stroke-width: 2; stroke-linecap: square"/>
   </g>
   <g id="line2d_14">
    <path d="M 78.061364 342.714789 
L 80.035233 296.112478 
L 82.009103 287.186089 
L 83.982973 284.969479 
L 85.956842 289.219633 
L 87.930712 325.932751 
L 89.904582 339.299037 
L 91.878452 286.157247 
L 93.852321 292.840757 
L 95.826191 284.564311 
L 97.800061 281.229709 
L 99.77393 286.016884 
L 101.7478 320.724413 
L 103.72167 332.967573 
L 105.69554 318.71677 
L 107.669409 297.010862 
L 109.643279 288.627877 
L 111.617149 285.50349 
L 113.591018 294.769451 
L 115.564888 326.472118 
L 117.538758 335.925401 
L 119.512628 287.341421 
L 121.486497 283.411908 
L 123.460367 284.615305 
L 125.434237 283.978204 
L 127.408106 288.623181 
L 129.381976 317.379172 
L 131.355846 336.852841 
L 133.329716 287.263718 
L 135.303585 281.915237 
L 137.277455 278.899957 
L 139.251325 278.032977 
L 141.225194 285.215573 
L 143.199064 316.877225 
L 145.172934 330.216804 
L 147.146804 280.962777 
L 149.120673 277.346202 
L 151.094543 277.741098 
L 153.068413 277.048526 
L 155.042282 283.113352 
L 157.016152 317.773188 
L 158.990022 330.062646 
L 160.963892 284.130674 
L 162.937761 322.982626 
L 164.911631 282.09691 
L 166.885501 280.3573 
L 168.85937 286.224604 
L 170.83324 326.229766 
L 172.80711 331.813556 
L 174.78098 314.349878 
L 176.754849 287.986666 
L 178.728719 286.475908 
L 180.702589 287.17567 
L 182.676458 293.532155 
L 184.650328 318.281665 
L 186.624198 331.55873 
L 188.598068 282.595922 
L 190.571937 278.421783 
L 192.545807 281.457974 
L 194.519677 278.23336 
L 196.493546 282.514625 
L 198.467416 325.61409 
L 200.441286 325.778593 
L 202.415156 279.347535 
L 204.389025 283.472221 
L 206.362895 282.741422 
L 208.336765 278.229691 
L 210.310634 281.411015 
L 212.284504 321.330844 
L 214.258374 329.903719 
L 216.232244 282.980326 
L 218.206113 275.625522 
L 220.179983 275.130765 
L 222.153853 275.776378 
L 224.127722 282.579633 
L 226.101592 314.660247 
L 228.075462 330.248941 
L 230.049332 281.047523 
L 232.023201 278.076854 
L 233.997071 278.290224 
L 235.970941 279.529501 
L 237.94481 284.363855 
L 239.91868 333.100012 
L 241.89255 328.227357 
L 243.86642 282.129561 
L 245.840289 276.676816 
L 247.814159 277.652389 
L 249.788029 286.372672 
L 251.761898 295.734605 
L 253.735768 317.345347 
L 255.709638 331.676054 
L 257.683508 290.426479 
L 259.657377 284.627045 
L 261.631247 290.86217 
L 263.605117 277.884543 
L 265.578986 283.455345 
L 267.552856 315.797022 
L 269.526726 328.393181 
L 271.500596 283.837254 
L 273.474465 275.900526 
L 275.448335 284.753908 
L 277.422205 279.617256 
L 279.396074 285.127085 
L 281.369944 315.684687 
L 283.343814 327.424285 
L 285.317684 279.390605 
L 287.291553 275.637849 
L 289.265423 277.272682 
L 291.239293 280.564213 
L 293.213162 282.392971 
L 295.187032 315.269393 
L 297.160902 328.35444 
L 299.134772 292.06366 
L 301.108641 289.824817 
L 303.082511 289.572046 
L 305.056381 288.747549 
L 307.03025 292.24658 
L 309.00412 317.36215 
L 310.97799 328.509184 
L 312.95186 290.91133 
L 314.925729 288.598307 
L 316.899599 277.06797 
L 318.873469 277.128283 
L 320.847338 281.884787 
L 322.821208 313.858203 
L 324.795078 333.75098 
L 326.768947 281.093675 
L 328.742817 275.242806 
L 330.716687 277.078903 
L 332.690557 276.812704 
L 334.664426 287.235323 
L 336.638296 314.117651 
L 338.612166 335.109709 
L 340.586035 283.413302 
L 342.559905 277.583565 
L 344.533775 281.634217 
L 346.507645 280.309534 
L 348.481514 282.936815 
L 350.455384 318.025445 
L 352.429254 327.945383 
L 354.403123 281.393846 
L 356.376993 277.125495 
L 358.350863 276.541075 
L 360.324733 282.59761 
L 362.298602 284.919291 
L 364.272472 317.055009 
L 366.246342 328.302198 
L 368.220211 332.584417 
L 370.194081 280.740235 
L 372.167951 280.059477 
L 374.141821 280.709639 
L 376.11569 283.901529 
L 378.08956 313.905749 
L 380.06343 328.357668 
L 382.037299 281.155162 
L 384.011169 278.733326 
L 385.985039 277.965547 
L 387.958909 287.542831 
L 389.932778 284.13537 
L 391.906648 314.332929 
L 393.880518 326.204599 
L 395.854387 276.677183 
L 397.828257 274.149176 
L 399.802127 276.727958 
L 401.775997 280.035924 
L 403.749866 287.18763 
L 405.723736 313.692892 
L 407.697606 328.188249 
L 409.671475 290.120952 
L 411.645345 279.733039 
L 413.619215 297.795077 
L 415.593085 282.57347 
L 417.566954 288.723189 
L 419.540824 317.93593 
L 421.514694 328.559445 
L 423.488563 286.124376 
L 425.462433 283.018039 
L 427.436303 283.176453 
L 429.410173 287.075882 
L 431.384042 292.439111 
L 433.357912 318.922435 
L 435.331782 333.338695 
L 437.305651 291.284508 
L 439.279521 286.893036 
L 441.253391 288.21295 
L 443.227261 328.982663 
L 445.20113 302.661054 
L 447.175 320.522269 
L 449.14887 329.016928 
L 451.122739 289.831054 
L 453.096609 285.432758 
L 455.070479 284.253207 
L 457.044349 285.651338 
L 459.018218 293.969534 
L 460.992088 321.642754 
L 462.965958 329.669952 
L 464.939827 291.004368 
L 466.913697 287.450894 
L 468.887567 287.350886 
L 470.861437 286.757295 
L 472.835306 287.601309 
L 474.809176 317.187961 
L 476.783046 327.817126 
L 478.756915 290.453774 
L 480.730785 287.29791 
L 482.704655 286.624856 
L 484.678525 286.65083 
L 486.652394 291.445562 
L 488.626264 316.762983 
L 490.600134 328.792993 
L 492.574003 292.00951 
L 494.547873 286.039556 
L 496.521743 287.131353 
L 498.495613 287.515242 
L 500.469482 294.627693 
L 502.443352 321.765435 
L 504.417222 333.008662 
L 506.391091 291.450331 
L 508.364961 293.234699 
L 510.338831 294.179382 
L 512.312701 294.802616 
L 514.28657 299.899719 
L 516.26044 319.11438 
L 518.23431 331.087306 
L 520.208179 295.014225 
L 522.182049 291.17386 
L 524.155919 289.371223 
L 526.129789 289.379734 
L 528.103658 293.722779 
L 530.077528 319.891478 
L 532.051398 333.717009 
L 534.025267 296.149898 
L 535.999137 290.744846 
L 537.973007 291.128075 
L 539.946877 292.508303 
L 541.920746 295.770264 
L 543.894616 319.231337 
L 545.868486 329.996463 
L 547.842355 295.151653 
L 549.816225 289.748289 
L 551.790095 287.845789 
L 553.763965 287.856135 
L 555.737834 293.082009 
L 557.711704 319.55308 
L 559.685574 327.831874 
L 561.659443 329.971957 
L 563.633313 279.055509 
L 565.607183 275.471952 
L 567.581053 270.899761 
L 569.554922 273.640771 
L 571.528792 314.412465 
L 573.502662 322.97705 
L 575.476531 269.187739 
L 577.450401 265.350384 
L 579.424271 266.87567 
L 581.39814 264.973391 
L 583.37201 270.311673 
L 585.34588 309.179327 
L 587.31975 324.436373 
L 589.293619 268.029614 
L 591.267489 263.419416 
L 593.241359 263.218593 
L 595.215228 262.608493 
L 597.189098 268.195291 
L 599.162968 306.434722 
L 601.136838 322.041832 
L 603.110707 269.198232 
L 605.084577 266.105543 
L 607.058447 267.053307 
L 609.032316 268.484162 
L 611.006186 270.621089 
L 612.980056 312.828407 
L 614.953926 327.423625 
L 616.927795 267.100413 
L 618.901665 262.689717 
L 620.875535 265.768465 
L 622.849404 278.30798 
L 624.823274 279.81419 
L 626.797144 306.219518 
L 628.771014 322.03853 
L 630.744883 267.682337 
L 632.718753 262.086661 
L 634.692623 262.043885 
L 636.666492 263.600942 
L 638.640362 270.844731 
L 640.614232 307.126193 
L 642.588102 321.517139 
L 644.561971 297.159956 
L 646.535841 267.012438 
L 648.509711 266.455387 
L 650.48358 266.399697 
L 652.45745 270.280563 
L 654.43132 307.863449 
L 656.40519 322.367904 
L 658.379059 268.167482 
L 660.352929 263.996571 
L 662.326799 263.35426 
L 664.300668 267.280398 
L 666.274538 275.202818 
L 668.248408 305.724761 
L 670.222278 321.843577 
L 672.196147 268.09 
L 674.170017 265.022258 
L 676.143887 263.642838 
L 678.117756 271.722937 
L 680.091626 281.518581 
L 682.065496 308.340229 
L 684.039366 328.648887 
L 686.013235 269.723219 
L 687.987105 279.176061 
L 689.960975 266.80259 
L 691.934844 266.134599 
L 693.908714 271.33083 
L 695.882584 308.651553 
L 697.856454 323.849166 
L 699.830323 290.079423 
L 701.804193 267.041787 
L 703.778063 266.396175 
L 705.751932 267.834954 
L 707.725802 274.450007 
L 709.699672 308.668208 
L 711.673542 323.408852 
L 713.647411 270.307124 
L 715.621281 265.805739 
L 717.595151 265.451859 
L 719.56902 276.927386 
L 721.54289 280.469121 
L 723.51676 309.906971 
L 725.49063 323.890255 
L 727.464499 270.480872 
L 729.438369 272.547067 
L 731.412239 275.622074 
L 733.386108 342.211888 
L 735.359978 309.347132 
L 737.333848 318.375363 
L 739.307718 329.970196 
L 741.281587 275.565649 
L 743.255457 269.391571 
L 745.229327 270.033882 
L 747.203196 273.346764 
L 749.177066 277.81924 
L 751.150936 311.330929 
L 753.124806 324.163571 
L 755.098675 275.655018 
L 757.072545 270.203961 
L 759.046415 276.88593 
L 761.020284 271.1292 
L 762.994154 277.303425 
L 764.968024 311.43057 
L 766.941894 325.243481 
L 768.915763 282.42687 
L 770.889633 269.224573 
L 772.863503 271.1788 
L 774.837372 271.159723 
L 776.811242 281.073571 
L 778.785112 318.33266 
L 780.758982 331.578908 
L 782.732851 296.386527 
L 784.706721 309.69096 
L 786.680591 345.556982 
L 788.65446 304.054195 
L 790.62833 298.492564 
L 792.6022 322.88548 
L 794.57607 327.404474 
L 796.549939 294.669736 
L 798.523809 303.956902 
L 800.497679 339.792327 
L 802.471548 287.777699 
L 804.445418 286.264813 
L 806.419288 319.332299 
L 808.393158 330.770699 
L 810.367027 285.263119 
L 812.340897 282.550724 
L 814.314767 283.994419 
L 816.288636 318.373529 
L 816.288636 318.373529 
" clip-path="url(#p1182bea958)" style="fill: none; stroke: #02fefa; stroke-width: 2; stroke-linecap: square"/>
   </g>
   <g id="line2d_15">
    <path d="M 78.061364 370.094369 
L 80.035233 360.785559 
L 82.009103 360.221097 
L 83.982973 360.59941 
L 85.956842 361.536829 
L 87.930712 369.365771 
L 89.904582 370.816364 
L 91.878452 360.838388 
L 95.826191 360.21464 
L 97.800061 359.3594 
L 99.77393 360.933039 
L 101.7478 368.718838 
L 103.72167 369.895527 
L 105.69554 369.428432 
L 107.669409 361.076411 
L 109.643279 360.235772 
L 111.617149 360.181622 
L 113.591018 362.082874 
L 115.564888 369.117256 
L 117.538758 370.44436 
L 119.512628 360.813294 
L 121.486497 359.051672 
L 123.460367 359.740134 
L 125.434237 359.752021 
L 127.408106 360.487002 
L 129.381976 367.545084 
L 131.355846 370.654502 
L 133.329716 360.403283 
L 135.303585 359.2263 
L 137.277455 359.430499 
L 141.225194 361.466831 
L 143.199064 367.837036 
L 145.172934 369.836388 
L 147.146804 360.110597 
L 149.120673 359.036043 
L 151.094543 359.336727 
L 153.068413 359.142801 
L 155.042282 360.108396 
L 157.016152 367.507003 
L 158.990022 370.019455 
L 160.963892 360.569254 
L 162.937761 363.93159 
L 164.911631 359.257557 
L 166.885501 359.376422 
L 168.85937 360.721577 
L 170.83324 369.180137 
L 172.80711 369.575913 
L 174.78098 369.084898 
L 176.754849 359.013811 
L 180.702589 359.627359 
L 182.676458 360.870158 
L 184.650328 367.746053 
L 186.624198 369.706004 
L 188.598068 360.181402 
L 190.571937 359.059303 
L 192.545807 359.433287 
L 194.519677 359.147131 
L 196.493546 362.843463 
L 198.467416 368.960383 
L 200.441286 369.280291 
L 202.415156 360.060263 
L 204.389025 358.781071 
L 206.362895 359.655608 
L 208.336765 359.520161 
L 210.310634 359.56081 
L 212.284504 367.852298 
L 214.258374 369.525285 
L 216.232244 360.119695 
L 218.206113 358.634104 
L 220.179983 358.736753 
L 222.153853 358.551779 
L 224.127722 359.479439 
L 226.101592 366.033518 
L 228.075462 368.540174 
L 230.049332 359.92188 
L 232.023201 358.357559 
L 233.997071 358.968393 
L 235.970941 359.38398 
L 237.94481 359.648638 
L 239.91868 369.143523 
L 241.89255 369.128629 
L 243.86642 359.729862 
L 245.840289 358.576285 
L 247.814159 358.46784 
L 249.788029 358.572617 
L 251.761898 358.444727 
L 253.735768 366.239037 
L 255.709638 367.272281 
L 257.683508 360.887474 
L 259.657377 358.955993 
L 261.631247 359.825541 
L 263.605117 359.094302 
L 265.578986 359.653627 
L 267.552856 366.770921 
L 269.526726 368.713995 
L 271.500596 360.002004 
L 273.474465 357.683038 
L 275.448335 358.884821 
L 277.422205 358.471728 
L 279.396074 359.649151 
L 281.369944 367.339932 
L 283.343814 368.560865 
L 285.317684 359.046169 
L 287.291553 358.27949 
L 289.265423 358.317057 
L 291.239293 359.248092 
L 293.213162 359.770217 
L 295.187032 366.925519 
L 297.160902 368.699834 
L 299.134772 359.318091 
L 301.108641 358.68752 
L 303.082511 359.073757 
L 305.056381 358.3963 
L 307.03025 359.303049 
L 309.00412 367.131478 
L 310.97799 368.817452 
L 312.95186 359.634917 
L 314.925729 358.497629 
L 316.899599 359.24457 
L 318.873469 358.927524 
L 320.847338 359.523536 
L 322.821208 367.107705 
L 324.795078 368.870501 
L 326.768947 359.320805 
L 328.742817 357.757218 
L 330.716687 358.252562 
L 332.690557 357.976898 
L 334.664426 359.43989 
L 336.638296 366.334716 
L 338.612166 367.797268 
L 340.586035 358.251535 
L 342.559905 357.038746 
L 344.533775 357.942046 
L 346.507645 358.268264 
L 348.481514 358.415598 
L 350.455384 366.506557 
L 352.429254 367.943134 
L 354.403123 358.792297 
L 356.376993 357.643269 
L 358.350863 357.200241 
L 360.324733 357.764922 
L 362.298602 357.760593 
L 364.272472 366.194573 
L 366.246342 367.313664 
L 368.220211 368.834988 
L 370.194081 357.307806 
L 374.141821 357.545169 
L 376.11569 358.192763 
L 378.08956 366.737976 
L 380.06343 367.768946 
L 382.037299 359.631175 
L 384.011169 357.453672 
L 385.985039 356.762348 
L 387.958909 358.147711 
L 389.932778 357.673206 
L 391.906648 364.502655 
L 393.880518 366.415867 
L 395.854387 358.551999 
L 397.828257 357.159372 
L 401.775997 357.49146 
L 403.749866 358.045869 
L 405.723736 365.743987 
L 407.697606 366.622193 
L 409.671475 358.34127 
L 411.645345 357.053934 
L 413.619215 359.108243 
L 415.593085 357.410162 
L 417.566954 358.251608 
L 419.540824 366.404347 
L 421.514694 367.507517 
L 423.488563 358.100899 
L 425.462433 356.22885 
L 429.410173 357.444501 
L 431.384042 357.406053 
L 433.357912 365.98854 
L 435.331782 366.886851 
L 437.305651 360.255362 
L 439.279521 358.961863 
L 441.253391 358.738661 
L 443.227261 367.583605 
L 445.20113 360.95916 
L 447.175 367.408462 
L 449.14887 367.3425 
L 451.122739 359.543127 
L 453.096609 357.829344 
L 455.070479 357.843212 
L 457.044349 358.102293 
L 459.018218 359.215074 
L 460.992088 367.073073 
L 462.965958 367.418294 
L 464.939827 359.059156 
L 466.913697 357.859501 
L 468.887567 357.942779 
L 470.861437 358.429905 
L 472.835306 358.308619 
L 474.809176 366.491808 
L 476.783046 366.913045 
L 478.756915 359.161585 
L 480.730785 357.980126 
L 482.704655 357.888923 
L 484.678525 357.433348 
L 486.652394 358.012411 
L 488.626264 366.019724 
L 490.600134 367.27573 
L 492.574003 359.035089 
L 494.547873 357.724567 
L 496.521743 357.950704 
L 498.495613 359.358373 
L 500.469482 360.361974 
L 502.443352 367.077915 
L 504.417222 368.175802 
L 506.391091 358.975804 
L 508.364961 358.953425 
L 510.338831 358.617888 
L 512.312701 359.288521 
L 514.28657 360.32382 
L 516.26044 366.36612 
L 518.23431 367.292019 
L 520.208179 359.213974 
L 522.182049 358.380452 
L 526.129789 358.445461 
L 528.103658 358.925176 
L 530.077528 366.195527 
L 532.051398 368.39262 
L 534.025267 359.686719 
L 535.999137 357.804837 
L 537.973007 358.041687 
L 539.946877 358.127093 
L 541.920746 358.873594 
L 543.894616 365.40779 
L 545.868486 366.567016 
L 547.842355 358.257258 
L 549.816225 356.963465 
L 551.790095 357.299295 
L 553.763965 356.951431 
L 555.737834 357.390278 
L 557.711704 365.172555 
L 559.685574 367.329072 
L 561.659443 366.3298 
L 563.633313 356.817305 
L 565.607183 356.237875 
L 567.581053 356.899776 
L 569.554922 357.230911 
L 571.528792 366.096986 
L 573.502662 367.322836 
L 575.476531 358.025545 
L 577.450401 356.871308 
L 581.39814 356.83374 
L 583.37201 357.464311 
L 585.34588 365.524087 
L 587.31975 366.765932 
L 589.293619 357.488305 
L 593.241359 355.506782 
L 595.215228 356.159732 
L 597.189098 356.354906 
L 599.162968 364.419743 
L 601.136838 366.544491 
L 603.110707 357.775708 
L 605.084577 356.321227 
L 609.032316 356.78957 
L 611.006186 357.221225 
L 612.980056 366.308522 
L 614.953926 367.543836 
L 616.927795 357.346767 
L 618.901665 357.993187 
L 620.875535 357.177495 
L 622.849404 358.07764 
L 624.823274 357.700721 
L 626.797144 365.703264 
L 628.771014 368.007189 
L 630.744883 357.82252 
L 632.718753 355.924277 
L 634.692623 355.9909 
L 636.666492 356.181524 
L 638.640362 357.279777 
L 640.614232 365.231033 
L 642.588102 366.806654 
L 644.561971 358.524117 
L 646.535841 356.311835 
L 648.509711 355.654703 
L 650.48358 355.779585 
L 652.45745 356.203169 
L 654.43132 364.708688 
L 656.40519 366.818907 
L 658.379059 357.984382 
L 660.352929 356.48485 
L 662.326799 357.311255 
L 666.274538 356.886863 
L 668.248408 365.669953 
L 670.222278 367.303392 
L 672.196147 357.539299 
L 674.170017 356.174334 
L 676.143887 356.579281 
L 678.117756 357.258059 
L 680.091626 360.502704 
L 682.065496 365.989127 
L 684.039366 366.432376 
L 686.013235 358.275895 
L 687.987105 358.26166 
L 689.960975 357.364083 
L 691.934844 357.150053 
L 693.908714 358.187626 
L 695.882584 366.387692 
L 697.856454 368.447503 
L 699.830323 358.854004 
L 701.804193 356.77262 
L 705.751932 357.697639 
L 707.725802 357.982254 
L 709.699672 366.100728 
L 711.673542 367.482716 
L 713.647411 358.076466 
L 715.621281 357.047844 
L 717.595151 356.961704 
L 719.56902 357.990105 
L 721.54289 358.501958 
L 723.51676 365.535019 
L 725.49063 367.729838 
L 727.464499 357.153575 
L 729.438369 356.856339 
L 731.412239 355.281526 
L 733.386108 367.666884 
L 735.359978 358.324688 
L 737.333848 365.251064 
L 739.307718 367.60004 
L 741.281587 358.533362 
L 743.255457 356.613253 
L 745.229327 357.487277 
L 747.203196 357.514939 
L 749.177066 358.373408 
L 751.150936 365.168446 
L 753.124806 367.208153 
L 755.098675 358.340683 
L 757.072545 356.720892 
L 759.046415 357.603207 
L 761.020284 356.422116 
L 762.994154 357.955253 
L 764.968024 364.328173 
L 766.941894 367.337364 
L 768.915763 358.582449 
L 770.889633 356.58273 
L 774.837372 356.577374 
L 776.811242 358.02892 
L 778.785112 365.360611 
L 780.758982 367.264504 
L 782.732851 357.570703 
L 784.706721 360.629493 
L 786.680591 369.773434 
L 788.65446 358.521696 
L 790.62833 357.488965 
L 792.6022 365.93351 
L 794.57607 366.840846 
L 796.549939 357.934855 
L 798.523809 359.739107 
L 800.497679 369.543555 
L 802.471548 360.695016 
L 804.445418 361.227854 
L 806.419288 367.585512 
L 808.393158 369.076533 
L 810.367027 359.331078 
L 812.340897 358.125773 
L 814.314767 358.601673 
L 816.288636 359.308992 
L 816.288636 359.308992 
" clip-path="url(#p1182bea958)" style="fill: none; stroke: #0e00f8; stroke-width: 2; stroke-linecap: square"/>
   </g>
   <g id="patch_3">
    <path d="M 41.15 387.16 
L 41.15 27.6 
" style="fill: none; stroke: #ffffff; stroke-width: 0.8; stroke-linejoin: miter; stroke-linecap: square"/>
   </g>
   <g id="patch_4">
    <path d="M 853.2 387.16 
L 853.2 27.6 
" style="fill: none; stroke: #ffffff; stroke-width: 0.8; stroke-linejoin: miter; stroke-linecap: square"/>
   </g>
   <g id="patch_5">
    <path d="M 41.15 387.16 
L 853.2 387.16 
" style="fill: none; stroke: #ffffff; stroke-width: 0.8; stroke-linejoin: miter; stroke-linecap: square"/>
   </g>
   <g id="patch_6">
    <path d="M 41.15 27.6 
L 853.2 27.6 
" style="fill: none; stroke: #ffffff; stroke-width: 0.8; stroke-linejoin: miter; stroke-linecap: square"/>
   </g>
   <g id="text_16">
    <!-- NYC Transit Ridership Comparison (2024-2025) -->
    <g style="fill: #ffffff" transform="translate(282.641094 21.6) scale(0.14 -0.14)">
     <defs>
      <path id="DejaVuSans-4e" d="M 628 4666 
L 1478 4666 
L 3547 763 
L 3547 4666 
L 4159 4666 
L 4159 0 
L 3309 0 
L 1241 3903 
L 1241 0 
L 628 0 
L 628 4666 
z
" transform="scale(0.015625)"/>
      <path id="DejaVuSans-59" d="M -13 4666 
L 666 4666 
L 1959 2747 
L 3244 4666 
L 3922 4666 
L 2272 2222 
L 2272 0 
L 1638 0 
L 1638 2222 
L -13 4666 
z
" transform="scale(0.015625)"/>
      <path id="DejaVuSans-43" d="M 4122 4306 
L 4122 3641 
Q 3803 3938 3442 4084 
Q 3081 4231 2675 4231 
Q 1875 4231 1450 3742 
Q 1025 3253 1025 2328 
Q 1025 1406 1450 917 
Q 1875 428 2675 428 
Q 3081 428 3442 575 
Q 3803 722 4122 1019 
L 4122 359 
Q 3791 134 3420 21 
Q 3050 -91 2638 -91 
Q 1578 -91 968 557 
Q 359 1206 359 2328 
Q 359 3453 968 4101 
Q 1578 4750 2638 4750 
Q 3056 4750 3426 4639 
Q 3797 4528 4122 4306 
z
" transform="scale(0.015625)"/>
      <path id="DejaVuSans-54" d="M -19 4666 
L 3928 4666 
L 3928 4134 
L 2272 4134 
L 2272 0 
L 1638 0 
L 1638 4134 
L -19 4134 
L -19 4666 
z
" transform="scale(0.015625)"/>
      <path id="DejaVuSans-6e" d="M 3513 2113 
L 3513 0 
L 2938 0 
L 2938 2094 
Q 2938 2591 2744 2837 
Q 2550 3084 2163 3084 
Q 1697 3084 1428 2787 
Q 1159 2491 1159 1978 
L 1159 0 
L 581 0 
L 581 3500 
L 1159 3500 
L 1159 2956 
Q 1366 3272 1645 3428 
Q 1925 3584 2291 3584 
Q 2894 3584 3203 3211 
Q 3513 2838 3513 2113 
z
" transform="scale(0.015625)"/>
      <path id="DejaVuSans-6f" d="M 1959 3097 
Q 1497 3097 1228 2736 
Q 959 2375 959 1747 
Q 959 1119 1226 758 
Q 1494 397 1959 397 
Q 2419 397 2687 759 
Q 2956 1122 2956 1747 
Q 2956 2369 2687 2733 
Q 2419 3097 1959 3097 
z
M 1959 3584 
Q 2709 3584 3137 3096 
Q 3566 2609 3566 1747 
Q 3566 888 3137 398 
Q 2709 -91 1959 -91 
Q 1206 -91 779 398 
Q 353 888 353 1747 
Q 353 2609 779 3096 
Q 1206 3584 1959 3584 
z
" transform="scale(0.015625)"/>
      <path id="DejaVuSans-6d" d="M 3328 2828 
Q 3544 3216 3844 3400 
Q 4144 3584 4550 3584 
Q 5097 3584 5394 3201 
Q 5691 2819 5691 2113 
L 5691 0 
L 5113 0 
L 5113 2094 
Q 5113 2597 4934 2840 
Q 4756 3084 4391 3084 
Q 3944 3084 3684 2787 
Q 3425 2491 3425 1978 
L 3425 0 
L 2847 0 
L 2847 2094 
Q 2847 2600 2669 2842 
Q 2491 3084 2119 3084 
Q 1678 3084 1418 2786 
Q 1159 2488 1159 1978 
L 1159 0 
L 581 0 
L 581 3500 
L 1159 3500 
L 1159 2956 
Q 1356 3278 1631 3431 
Q 1906 3584 2284 3584 
Q 2666 3584 2933 3390 
Q 3200 3197 3328 2828 
z
" transform="scale(0.015625)"/>
      <path id="DejaVuSans-28" d="M 1984 4856 
Q 1566 4138 1362 3434 
Q 1159 2731 1159 2009 
Q 1159 1288 1364 580 
Q 1569 -128 1984 -844 
L 1484 -844 
Q 1016 -109 783 600 
Q 550 1309 550 2009 
Q 550 2706 781 3412 
Q 1013 4119 1484 4856 
L 1984 4856 
z
" transform="scale(0.015625)"/>
      <path id="DejaVuSans-29" d="M 513 4856 
L 1013 4856 
Q 1481 4119 1714 3412 
Q 1947 2706 1947 2009 
Q 1947 1309 1714 600 
Q 1481 -109 1013 -844 
L 513 -844 
Q 928 -128 1133 580 
Q 1338 1288 1338 2009 
Q 1338 2731 1133 3434 
Q 928 4138 513 4856 
z
" transform="scale(0.015625)"/>
     </defs>
     <use xlink:href="#DejaVuSans-4e"/>
     <use xlink:href="#DejaVuSans-59" x="74.804688"/>
     <use xlink:href="#DejaVuSans-43" x="130.388672"/>
     <use xlink:href="#DejaVuSans-20" x="200.212891"/>
     <use xlink:href="#DejaVuSans-54" x="232"/>
     <use xlink:href="#DejaVuSans-72" x="278.333984"/>
     <use xlink:href="#DejaVuSans-61" x="319.447266"/>
     <use xlink:href="#DejaVuSans-6e" x="380.726562"/>
     <use xlink:href="#DejaVuSans-73" x="444.105469"/>
     <use xlink:href="#DejaVuSans-69" x="496.205078"/>
     <use xlink:href="#DejaVuSans-74" x="523.988281"/>
     <use xlink:href="#DejaVuSans-20" x="563.197266"/>
     <use xlink:href="#DejaVuSans-52" x="594.984375"/>
     <use xlink:href="#DejaVuSans-69" x="664.466797"/>
     <use xlink:href="#DejaVuSans-64" x="692.25"/>
     <use xlink:href="#DejaVuSans-65" x="755.726562"/>
     <use xlink:href="#DejaVuSans-72" x="817.25"/>
     <use xlink:href="#DejaVuSans-73" x="858.363281"/>
     <use xlink:href="#DejaVuSans-68" x="910.462891"/>
     <use xlink:href="#DejaVuSans-69" x="973.841797"/>
     <use xlink:href="#DejaVuSans-70" x="1001.625"/>
     <use xlink:href="#DejaVuSans-20" x="1065.101562"/>
     <use xlink:href="#DejaVuSans-43" x="1096.888672"/>
     <use xlink:href="#DejaVuSans-6f" x="1166.712891"/>
     <use xlink:href="#DejaVuSans-6d" x="1227.894531"/>
     <use xlink:href="#DejaVuSans-70" x="1325.306641"/>
     <use xlink:href="#DejaVuSans-61" x="1388.783203"/>
     <use xlink:href="#DejaVuSans-72" x="1450.0625"/>
     <use xlink:href="#DejaVuSans-69" x="1491.175781"/>
     <use xlink:href="#DejaVuSans-73" x="1518.958984"/>
     <use xlink:href="#DejaVuSans-6f" x="1571.058594"/>
     <use xlink:href="#DejaVuSans-6e" x="1632.240234"/>
     <use xlink:href="#DejaVuSans-20" x="1695.619141"/>
     <use xlink:href="#DejaVuSans-28" x="1727.40625"/>
     <use xlink:href="#DejaVuSans-32" x="1766.419922"/>
     <use xlink:href="#DejaVuSans-30" x="1830.042969"/>
     <use xlink:href="#DejaVuSans-32" x="1893.666016"/>
     <use xlink:href="#DejaVuSans-34" x="1957.289062"/>
     <use xlink:href="#DejaVuSans-2d" x="2020.912109"/>
     <use xlink:href="#DejaVuSans-32" x="2056.996094"/>
     <use xlink:href="#DejaVuSans-30" x="2120.619141"/>
     <use xlink:href="#DejaVuSans-32" x="2184.242188"/>
     <use xlink:href="#DejaVuSans-35" x="2247.865234"/>
     <use xlink:href="#DejaVuSans-29" x="2311.488281"/>
    </g>
   </g>
   <g id="legend_1">
    <g id="patch_7">
     <path d="M 48.15 79.634375 
L 258.404688 79.634375 
Q 260.404688 79.634375 260.404688 77.634375 
L 260.404688 34.6 
Q 260.404688 32.6 258.404688 32.6 
L 48.15 32.6 
Q 46.15 32.6 46.15 34.6 
L 46.15 77.634375 
Q 46.15 79.634375 48.15 79.634375 
z
" style="fill: #121212; opacity: 0.8; stroke: #ffffff; stroke-linejoin: miter"/>
    </g>
    <g id="line2d_16">
     <path d="M 50.15 40.698438 
L 60.15 40.698438 
L 70.15 40.698438 
" style="fill: none; stroke: #98fe09; stroke-width: 2; stroke-linecap: square"/>
    </g>
    <g id="text_17">
     <!-- Subways: Total Estimated Ridership -->
     <g style="fill: #ffffff" transform="translate(78.15 44.198438) scale(0.1 -0.1)">
      <defs>
       <path id="DejaVuSans-53" d="M 3425 4513 
L 3425 3897 
Q 3066 4069 2747 4153 
Q 2428 4238 2131 4238 
Q 1616 4238 1336 4038 
Q 1056 3838 1056 3469 
Q 1056 3159 1242 3001 
Q 1428 2844 1947 2747 
L 2328 2669 
Q 3034 2534 3370 2195 
Q 3706 1856 3706 1288 
Q 3706 609 3251 259 
Q 2797 -91 1919 -91 
Q 1588 -91 1214 -16 
Q 841 59 441 206 
L 441 856 
Q 825 641 1194 531 
Q 1563 422 1919 422 
Q 2459 422 2753 634 
Q 3047 847 3047 1241 
Q 3047 1584 2836 1778 
Q 2625 1972 2144 2069 
L 1759 2144 
Q 1053 2284 737 2584 
Q 422 2884 422 3419 
Q 422 4038 858 4394 
Q 1294 4750 2059 4750 
Q 2388 4750 2728 4690 
Q 3069 4631 3425 4513 
z
" transform="scale(0.015625)"/>
       <path id="DejaVuSans-75" d="M 544 1381 
L 544 3500 
L 1119 3500 
L 1119 1403 
Q 1119 906 1312 657 
Q 1506 409 1894 409 
Q 2359 409 2629 706 
Q 2900 1003 2900 1516 
L 2900 3500 
L 3475 3500 
L 3475 0 
L 2900 0 
L 2900 538 
Q 2691 219 2414 64 
Q 2138 -91 1772 -91 
Q 1169 -91 856 284 
Q 544 659 544 1381 
z
M 1991 3584 
L 1991 3584 
z
" transform="scale(0.015625)"/>
       <path id="DejaVuSans-62" d="M 3116 1747 
Q 3116 2381 2855 2742 
Q 2594 3103 2138 3103 
Q 1681 3103 1420 2742 
Q 1159 2381 1159 1747 
Q 1159 1113 1420 752 
Q 1681 391 2138 391 
Q 2594 391 2855 752 
Q 3116 1113 3116 1747 
z
M 1159 2969 
Q 1341 3281 1617 3432 
Q 1894 3584 2278 3584 
Q 2916 3584 3314 3078 
Q 3713 2572 3713 1747 
Q 3713 922 3314 415 
Q 2916 -91 2278 -91 
Q 1894 -91 1617 61 
Q 1341 213 1159 525 
L 1159 0 
L 581 0 
L 581 4863 
L 1159 4863 
L 1159 2969 
z
" transform="scale(0.015625)"/>
       <path id="DejaVuSans-77" d="M 269 3500 
L 844 3500 
L 1563 769 
L 2278 3500 
L 2956 3500 
L 3675 769 
L 4391 3500 
L 4966 3500 
L 4050 0 
L 3372 0 
L 2619 2869 
L 1863 0 
L 1184 0 
L 269 3500 
z
" transform="scale(0.015625)"/>
       <path id="DejaVuSans-3a" d="M 750 794 
L 1409 794 
L 1409 0 
L 750 0 
L 750 794 
z
M 750 3309 
L 1409 3309 
L 1409 2516 
L 750 2516 
L 750 3309 
z
" transform="scale(0.015625)"/>
       <path id="DejaVuSans-45" d="M 628 4666 
L 3578 4666 
L 3578 4134 
L 1259 4134 
L 1259 2753 
L 3481 2753 
L 3481 2222 
L 1259 2222 
L 1259 531 
L 3634 531 
L 3634 0 
L 628 0 
L 628 4666 
z
" transform="scale(0.015625)"/>
      </defs>
      <use xlink:href="#DejaVuSans-53"/>
      <use xlink:href="#DejaVuSans-75" x="63.476562"/>
      <use xlink:href="#DejaVuSans-62" x="126.855469"/>
      <use xlink:href="#DejaVuSans-77" x="190.332031"/>
      <use xlink:href="#DejaVuSans-61" x="272.119141"/>
      <use xlink:href="#DejaVuSans-79" x="333.398438"/>
      <use xlink:href="#DejaVuSans-73" x="392.578125"/>
      <use xlink:href="#DejaVuSans-3a" x="444.677734"/>
      <use xlink:href="#DejaVuSans-20" x="478.369141"/>
      <use xlink:href="#DejaVuSans-54" x="510.15625"/>
      <use xlink:href="#DejaVuSans-6f" x="554.240234"/>
      <use xlink:href="#DejaVuSans-74" x="615.421875"/>
      <use xlink:href="#DejaVuSans-61" x="654.630859"/>
      <use xlink:href="#DejaVuSans-6c" x="715.910156"/>
      <use xlink:href="#DejaVuSans-20" x="743.693359"/>
      <use xlink:href="#DejaVuSans-45" x="775.480469"/>
      <use xlink:href="#DejaVuSans-73" x="838.664062"/>
      <use xlink:href="#DejaVuSans-74" x="890.763672"/>
      <use xlink:href="#DejaVuSans-69" x="929.972656"/>
      <use xlink:href="#DejaVuSans-6d" x="957.755859"/>
      <use xlink:href="#DejaVuSans-61" x="1055.167969"/>
      <use xlink:href="#DejaVuSans-74" x="1116.447266"/>
      <use xlink:href="#DejaVuSans-65" x="1155.65625"/>
      <use xlink:href="#DejaVuSans-64" x="1217.179688"/>
      <use xlink:href="#DejaVuSans-20" x="1280.65625"/>
      <use xlink:href="#DejaVuSans-52" x="1312.443359"/>
      <use xlink:href="#DejaVuSans-69" x="1381.925781"/>
      <use xlink:href="#DejaVuSans-64" x="1409.708984"/>
      <use xlink:href="#DejaVuSans-65" x="1473.185547"/>
      <use xlink:href="#DejaVuSans-72" x="1534.708984"/>
      <use xlink:href="#DejaVuSans-73" x="1575.822266"/>
      <use xlink:href="#DejaVuSans-68" x="1627.921875"/>
      <use xlink:href="#DejaVuSans-69" x="1691.300781"/>
      <use xlink:href="#DejaVuSans-70" x="1719.083984"/>
     </g>
    </g>
    <g id="line2d_17">
     <path d="M 50.15 55.376563 
L 60.15 55.376563 
L 70.15 55.376563 
" style="fill: none; stroke: #02fefa; stroke-width: 2; stroke-linecap: square"/>
    </g>
    <g id="text_18">
     <!-- Buses: Total Estimated Ridership -->
     <g style="fill: #ffffff" transform="translate(78.15 58.876563) scale(0.1 -0.1)">
      <defs>
       <path id="DejaVuSans-42" d="M 1259 2228 
L 1259 519 
L 2272 519 
Q 2781 519 3026 730 
Q 3272 941 3272 1375 
Q 3272 1813 3026 2020 
Q 2781 2228 2272 2228 
L 1259 2228 
z
M 1259 4147 
L 1259 2741 
L 2194 2741 
Q 2656 2741 2882 2914 
Q 3109 3088 3109 3444 
Q 3109 3797 2882 3972 
Q 2656 4147 2194 4147 
L 1259 4147 
z
M 628 4666 
L 2241 4666 
Q 2963 4666 3353 4366 
Q 3744 4066 3744 3513 
Q 3744 3084 3544 2831 
Q 3344 2578 2956 2516 
Q 3422 2416 3680 2098 
Q 3938 1781 3938 1306 
Q 3938 681 3513 340 
Q 3088 0 2303 0 
L 628 0 
L 628 4666 
z
" transform="scale(0.015625)"/>
      </defs>
      <use xlink:href="#DejaVuSans-42"/>
      <use xlink:href="#DejaVuSans-75" x="68.603516"/>
      <use xlink:href="#DejaVuSans-73" x="131.982422"/>
      <use xlink:href="#DejaVuSans-65" x="184.082031"/>
      <use xlink:href="#DejaVuSans-73" x="245.605469"/>
      <use xlink:href="#DejaVuSans-3a" x="297.705078"/>
      <use xlink:href="#DejaVuSans-20" x="331.396484"/>
      <use xlink:href="#DejaVuSans-54" x="363.183594"/>
      <use xlink:href="#DejaVuSans-6f" x="407.267578"/>
      <use xlink:href="#DejaVuSans-74" x="468.449219"/>
      <use xlink:href="#DejaVuSans-61" x="507.658203"/>
      <use xlink:href="#DejaVuSans-6c" x="568.9375"/>
      <use xlink:href="#DejaVuSans-20" x="596.720703"/>
      <use xlink:href="#DejaVuSans-45" x="628.507812"/>
      <use xlink:href="#DejaVuSans-73" x="691.691406"/>
      <use xlink:href="#DejaVuSans-74" x="743.791016"/>
      <use xlink:href="#DejaVuSans-69" x="783"/>
      <use xlink:href="#DejaVuSans-6d" x="810.783203"/>
      <use xlink:href="#DejaVuSans-61" x="908.195312"/>
      <use xlink:href="#DejaVuSans-74" x="969.474609"/>
      <use xlink:href="#DejaVuSans-65" x="1008.683594"/>
      <use xlink:href="#DejaVuSans-64" x="1070.207031"/>
      <use xlink:href="#DejaVuSans-20" x="1133.683594"/>
      <use xlink:href="#DejaVuSans-52" x="1165.470703"/>
      <use xlink:href="#DejaVuSans-69" x="1234.953125"/>
      <use xlink:href="#DejaVuSans-64" x="1262.736328"/>
      <use xlink:href="#DejaVuSans-65" x="1326.212891"/>
      <use xlink:href="#DejaVuSans-72" x="1387.736328"/>
      <use xlink:href="#DejaVuSans-73" x="1428.849609"/>
      <use xlink:href="#DejaVuSans-68" x="1480.949219"/>
      <use xlink:href="#DejaVuSans-69" x="1544.328125"/>
      <use xlink:href="#DejaVuSans-70" x="1572.111328"/>
     </g>
    </g>
    <g id="line2d_18">
     <path d="M 50.15 70.054688 
L 60.15 70.054688 
L 70.15 70.054688 
" style="fill: none; stroke: #0e00f8; stroke-width: 2; stroke-linecap: square"/>
    </g>
    <g id="text_19">
     <!-- LIRR: Total Estimated Ridership -->
     <g style="fill: #ffffff" transform="translate(78.15 73.554688) scale(0.1 -0.1)">
      <defs>
       <path id="DejaVuSans-4c" d="M 628 4666 
L 1259 4666 
L 1259 531 
L 3531 531 
L 3531 0 
L 628 0 
L 628 4666 
z
" transform="scale(0.015625)"/>
       <path id="DejaVuSans-49" d="M 628 4666 
L 1259 4666 
L 1259 0 
L 628 0 
L 628 4666 
z
" transform="scale(0.015625)"/>
      </defs>
      <use xlink:href="#DejaVuSans-4c"/>
      <use xlink:href="#DejaVuSans-49" x="55.712891"/>
      <use xlink:href="#DejaVuSans-52" x="85.205078"/>
      <use xlink:href="#DejaVuSans-52" x="154.6875"/>
      <use xlink:href="#DejaVuSans-3a" x="221.044922"/>
      <use xlink:href="#DejaVuSans-20" x="254.736328"/>
      <use xlink:href="#DejaVuSans-54" x="286.523438"/>
      <use xlink:href="#DejaVuSans-6f" x="330.607422"/>
      <use xlink:href="#DejaVuSans-74" x="391.789062"/>
      <use xlink:href="#DejaVuSans-61" x="430.998047"/>
      <use xlink:href="#DejaVuSans-6c" x="492.277344"/>
      <use xlink:href="#DejaVuSans-20" x="520.060547"/>
      <use xlink:href="#DejaVuSans-45" x="551.847656"/>
      <use xlink:href="#DejaVuSans-73" x="615.03125"/>
      <use xlink:href="#DejaVuSans-74" x="667.130859"/>
      <use xlink:href="#DejaVuSans-69" x="706.339844"/>
      <use xlink:href="#DejaVuSans-6d" x="734.123047"/>
      <use xlink:href="#DejaVuSans-61" x="831.535156"/>
      <use xlink:href="#DejaVuSans-74" x="892.814453"/>
      <use xlink:href="#DejaVuSans-65" x="932.023438"/>
      <use xlink:href="#DejaVuSans-64" x="993.546875"/>
      <use xlink:href="#DejaVuSans-20" x="1057.023438"/>
      <use xlink:href="#DejaVuSans-52" x="1088.810547"/>
      <use xlink:href="#DejaVuSans-69" x="1158.292969"/>
      <use xlink:href="#DejaVuSans-64" x="1186.076172"/>
      <use xlink:href="#DejaVuSans-65" x="1249.552734"/>
      <use xlink:href="#DejaVuSans-72" x="1311.076172"/>
      <use xlink:href="#DejaVuSans-73" x="1352.189453"/>
      <use xlink:href="#DejaVuSans-68" x="1404.289062"/>
      <use xlink:href="#DejaVuSans-69" x="1467.667969"/>
      <use xlink:href="#DejaVuSans-70" x="1495.451172"/>
     </g>
    </g>
   </g>
  </g>
 </g>
 <defs>
  <clipPath id="p1182bea958">
   <rect x="41.15" y="27.6" width="812.05" height="359.56"/>
  </clipPath>
 </defs>
</svg>
