<?xml version="1.0" encoding="utf-8" standalone="no"?>
<!DOCTYPE svg PUBLIC "-//W3C//DTD SVG 1.1//EN"
  "http://www.w3.org/Graphics/SVG/1.1/DTD/svg11.dtd">
<svg xmlns:xlink="http://www.w3.org/1999/xlink" width="452.87625pt" height="337.465625pt" viewBox="0 0 452.87625 337.465625" xmlns="http://www.w3.org/2000/svg" version="1.1">
 <metadata>
  <rdf:RDF xmlns:dc="http://purl.org/dc/elements/1.1/" xmlns:cc="http://creativecommons.org/ns#" xmlns:rdf="http://www.w3.org/1999/02/22-rdf-syntax-ns#">
   <cc:Work>
    <dc:type rdf:resource="http://purl.org/dc/dcmitype/StillImage"/>
    <dc:date>2025-11-20T15:52:24.969887</dc:date>
    <dc:format>image/svg+xml</dc:format>
    <dc:creator>
     <cc:Agent>
      <dc:title>Matplotlib v3.10.3, https://matplotlib.org/</dc:title>
     </cc:Agent>
    </dc:creator>
   </cc:Work>
  </rdf:RDF>
 </metadata>
 <defs>
  <style type="text/css">*{stroke-linejoin: round; stroke-linecap: butt}</style>
 </defs>
 <g id="figure_1">
  <g id="patch_1">
   <path d="M 0 337.465625 
L 452.87625 337.465625 
L 452.87625 0 
L 0 0 
z
"/>
  </g>
  <g id="axes_1">
   <g id="patch_2">
    <path d="M 73.18625 286.36 
L 445.67625 286.36 
L 445.67625 7.2 
L 73.18625 7.2 
z
"/>
   </g>
   <g id="FillBetweenPolyCollection_1">
    <defs>
     <path id="m5e2de9ecde" d="M 333.4426 -272.124174 
L 333.4426 -257.126295 
L 335.470308 -228.152588 
L 337.498016 -189.279061 
L 339.525725 -157.079955 
L 341.553433 -135.26588 
L 343.581141 -119.243 
L 345.608849 -106.671621 
L 347.636558 -99.962307 
L 349.664266 -100.693476 
L 351.691974 -109.178469 
L 353.719682 -122.439504 
L 355.74739 -137.053657 
L 357.775099 -148.62902 
L 359.802807 -156.67959 
L 361.830515 -166.784968 
L 363.858223 -173.537572 
L 365.885932 -182.850915 
L 367.91364 -192.38263 
L 369.941348 -201.182291 
L 371.969056 -207.073056 
L 373.996764 -212.748583 
L 376.024473 -214.077891 
L 378.052181 -208.217385 
L 380.079889 -195.716104 
L 382.107597 -184.293432 
L 384.135306 -162.565706 
L 386.163014 -130.271507 
L 388.190722 -104.085206 
L 390.21843 -87.811065 
L 392.246138 -75.874171 
L 394.273847 -67.387106 
L 396.301555 -63.794716 
L 398.329263 -67.078446 
L 400.356971 -77.619885 
L 402.38468 -92.979367 
L 404.412388 -109.24192 
L 406.440096 -122.351878 
L 408.467804 -132.421267 
L 410.495512 -143.650461 
L 412.523221 -151.433996 
L 414.550929 -161.069647 
L 416.578637 -171.035294 
L 418.606345 -180.268385 
L 420.634053 -186.569567 
L 422.661762 -192.637634 
L 424.68947 -194.385887 
L 426.717178 -188.693088 
L 428.744886 -176.596004 
L 428.744886 -295.160922 
L 428.744886 -295.160922 
L 426.717178 -307.188315 
L 424.68947 -312.798891 
L 422.661762 -310.95362 
L 420.634053 -304.771068 
L 418.606345 -298.334778 
L 416.578637 -288.942228 
L 414.550929 -278.78837 
L 412.523221 -268.930564 
L 410.495512 -260.884817 
L 408.467804 -249.346174 
L 406.440096 -238.911702 
L 404.412388 -225.371274 
L 402.38468 -208.601672 
L 400.356971 -192.645945 
L 398.329263 -181.405283 
L 396.301555 -177.305112 
L 394.273847 -179.950676 
L 392.246138 -187.351439 
L 390.21843 -198.062985 
L 388.190722 -212.992027 
L 386.163014 -237.766295 
L 384.135306 -268.687554 
L 382.107597 -289.257183 
L 380.079889 -299.882586 
L 378.052181 -312.077918 
L 376.024473 -317.576534 
L 373.996764 -315.818928 
L 371.969056 -309.636179 
L 369.941348 -303.144266 
L 367.91364 -293.631502 
L 365.885932 -283.253003 
L 363.858223 -272.932924 
L 361.830515 -264.98176 
L 359.802807 -253.447184 
L 357.775099 -243.689347 
L 355.74739 -230.070466 
L 353.719682 -213.004981 
L 351.691974 -196.796603 
L 349.664266 -184.759596 
L 347.636558 -179.738352 
L 345.608849 -181.257394 
L 343.581141 -187.545327 
L 341.553433 -195.971697 
L 339.525725 -208.649255 
L 337.498016 -229.998836 
L 335.470308 -256.369048 
L 333.4426 -272.124174 
z
" style="stroke: #72fcdb; stroke-opacity: 0.2"/>
    </defs>
    <g clip-path="url(#p7d96ea542d)">
     <use xlink:href="#m5e2de9ecde" x="0" y="337.465625" style="fill: #72fcdb; fill-opacity: 0.2; stroke: #72fcdb; stroke-opacity: 0.2"/>
    </g>
   </g>
   <g id="matplotlib.axis_1">
    <g id="xtick_1">
     <g id="line2d_1">
      <defs>
       <path id="mf02638b780" d="M 0 0 
L 0 3.5 
" style="stroke: #ffffff; stroke-width: 0.8"/>
      </defs>
      <g>
       <use xlink:href="#mf02638b780" x="79.979073" y="286.36" style="fill: #ffffff; stroke: #ffffff; stroke-width: 0.8"/>
      </g>
     </g>
     <g id="text_1">
      <!-- 01-25 -->
      <g style="fill: #ffffff" transform="translate(59.638604 303.997812) scale(0.14 -0.14)">
       <defs>
        <path id="DejaVuSans-30" d="M 2034 4250 
Q 1547 4250 1301 3770 
Q 1056 3291 1056 2328 
Q 1056 1369 1301 889 
Q 1547 409 2034 409 
Q 2525 409 2770 889 
Q 3016 1369 3016 2328 
Q 3016 3291 2770 3770 
Q 2525 4250 2034 4250 
z
M 2034 4750 
Q 2819 4750 3233 4129 
Q 3647 3509 3647 2328 
Q 3647 1150 3233 529 
Q 2819 -91 2034 -91 
Q 1250 -91 836 529 
Q 422 1150 422 2328 
Q 422 3509 836 4129 
Q 1250 4750 2034 4750 
z
" transform="scale(0.015625)"/>
        <path id="DejaVuSans-31" d="M 794 531 
L 1825 531 
L 1825 4091 
L 703 3866 
L 703 4441 
L 1819 4666 
L 2450 4666 
L 2450 531 
L 3481 531 
L 3481 0 
L 794 0 
L 794 531 
z
" transform="scale(0.015625)"/>
        <path id="DejaVuSans-2d" d="M 313 2009 
L 1997 2009 
L 1997 1497 
L 313 1497 
L 313 2009 
z
" transform="scale(0.015625)"/>
        <path id="DejaVuSans-32" d="M 1228 531 
L 3431 531 
L 3431 0 
L 469 0 
L 469 531 
Q 828 903 1448 1529 
Q 2069 2156 2228 2338 
Q 2531 2678 2651 2914 
Q 2772 3150 2772 3378 
Q 2772 3750 2511 3984 
Q 2250 4219 1831 4219 
Q 1534 4219 1204 4116 
Q 875 4013 500 3803 
L 500 4441 
Q 881 4594 1212 4672 
Q 1544 4750 1819 4750 
Q 2544 4750 2975 4387 
Q 3406 4025 3406 3419 
Q 3406 3131 3298 2873 
Q 3191 2616 2906 2266 
Q 2828 2175 2409 1742 
Q 1991 1309 1228 531 
z
" transform="scale(0.015625)"/>
        <path id="DejaVuSans-35" d="M 691 4666 
L 3169 4666 
L 3169 4134 
L 1269 4134 
L 1269 2991 
Q 1406 3038 1543 3061 
Q 1681 3084 1819 3084 
Q 2600 3084 3056 2656 
Q 3513 2228 3513 1497 
Q 3513 744 3044 326 
Q 2575 -91 1722 -91 
Q 1428 -91 1123 -41 
Q 819 9 494 109 
L 494 744 
Q 775 591 1075 516 
Q 1375 441 1709 441 
Q 2250 441 2565 725 
Q 2881 1009 2881 1497 
Q 2881 1984 2565 2268 
Q 2250 2553 1709 2553 
Q 1456 2553 1204 2497 
Q 953 2441 691 2322 
L 691 4666 
z
" transform="scale(0.015625)"/>
       </defs>
       <use xlink:href="#DejaVuSans-30"/>
       <use xlink:href="#DejaVuSans-31" transform="translate(63.623047 0)"/>
       <use xlink:href="#DejaVuSans-2d" transform="translate(127.246094 0)"/>
       <use xlink:href="#DejaVuSans-32" transform="translate(163.330078 0)"/>
       <use xlink:href="#DejaVuSans-35" transform="translate(226.953125 0)"/>
      </g>
     </g>
    </g>
    <g id="xtick_2">
     <g id="line2d_2">
      <g>
       <use xlink:href="#mf02638b780" x="128.64407" y="286.36" style="fill: #ffffff; stroke: #ffffff; stroke-width: 0.8"/>
      </g>
     </g>
     <g id="text_2">
      <!-- 01-26 -->
      <g style="fill: #ffffff" transform="translate(108.303601 303.997812) scale(0.14 -0.14)">
       <defs>
        <path id="DejaVuSans-36" d="M 2113 2584 
Q 1688 2584 1439 2293 
Q 1191 2003 1191 1497 
Q 1191 994 1439 701 
Q 1688 409 2113 409 
Q 2538 409 2786 701 
Q 3034 994 3034 1497 
Q 3034 2003 2786 2293 
Q 2538 2584 2113 2584 
z
M 3366 4563 
L 3366 3988 
Q 3128 4100 2886 4159 
Q 2644 4219 2406 4219 
Q 1781 4219 1451 3797 
Q 1122 3375 1075 2522 
Q 1259 2794 1537 2939 
Q 1816 3084 2150 3084 
Q 2853 3084 3261 2657 
Q 3669 2231 3669 1497 
Q 3669 778 3244 343 
Q 2819 -91 2113 -91 
Q 1303 -91 875 529 
Q 447 1150 447 2328 
Q 447 3434 972 4092 
Q 1497 4750 2381 4750 
Q 2619 4750 2861 4703 
Q 3103 4656 3366 4563 
z
" transform="scale(0.015625)"/>
       </defs>
       <use xlink:href="#DejaVuSans-30"/>
       <use xlink:href="#DejaVuSans-31" transform="translate(63.623047 0)"/>
       <use xlink:href="#DejaVuSans-2d" transform="translate(127.246094 0)"/>
       <use xlink:href="#DejaVuSans-32" transform="translate(163.330078 0)"/>
       <use xlink:href="#DejaVuSans-36" transform="translate(226.953125 0)"/>
      </g>
     </g>
    </g>
    <g id="xtick_3">
     <g id="line2d_3">
      <g>
       <use xlink:href="#mf02638b780" x="177.309067" y="286.36" style="fill: #ffffff; stroke: #ffffff; stroke-width: 0.8"/>
      </g>
     </g>
     <g id="text_3">
      <!-- 01-27 -->
      <g style="fill: #ffffff" transform="translate(156.968598 303.997812) scale(0.14 -0.14)">
       <defs>
        <path id="DejaVuSans-37" d="M 525 4666 
L 3525 4666 
L 3525 4397 
L 1831 0 
L 1172 0 
L 2766 4134 
L 525 4134 
L 525 4666 
z
" transform="scale(0.015625)"/>
       </defs>
       <use xlink:href="#DejaVuSans-30"/>
       <use xlink:href="#DejaVuSans-31" transform="translate(63.623047 0)"/>
       <use xlink:href="#DejaVuSans-2d" transform="translate(127.246094 0)"/>
       <use xlink:href="#DejaVuSans-32" transform="translate(163.330078 0)"/>
       <use xlink:href="#DejaVuSans-37" transform="translate(226.953125 0)"/>
      </g>
     </g>
    </g>
    <g id="xtick_4">
     <g id="line2d_4">
      <g>
       <use xlink:href="#mf02638b780" x="225.974064" y="286.36" style="fill: #ffffff; stroke: #ffffff; stroke-width: 0.8"/>
      </g>
     </g>
     <g id="text_4">
      <!-- 01-28 -->
      <g style="fill: #ffffff" transform="translate(205.633596 303.997812) scale(0.14 -0.14)">
       <defs>
        <path id="DejaVuSans-38" d="M 2034 2216 
Q 1584 2216 1326 1975 
Q 1069 1734 1069 1313 
Q 1069 891 1326 650 
Q 1584 409 2034 409 
Q 2484 409 2743 651 
Q 3003 894 3003 1313 
Q 3003 1734 2745 1975 
Q 2488 2216 2034 2216 
z
M 1403 2484 
Q 997 2584 770 2862 
Q 544 3141 544 3541 
Q 544 4100 942 4425 
Q 1341 4750 2034 4750 
Q 2731 4750 3128 4425 
Q 3525 4100 3525 3541 
Q 3525 3141 3298 2862 
Q 3072 2584 2669 2484 
Q 3125 2378 3379 2068 
Q 3634 1759 3634 1313 
Q 3634 634 3220 271 
Q 2806 -91 2034 -91 
Q 1263 -91 848 271 
Q 434 634 434 1313 
Q 434 1759 690 2068 
Q 947 2378 1403 2484 
z
M 1172 3481 
Q 1172 3119 1398 2916 
Q 1625 2713 2034 2713 
Q 2441 2713 2670 2916 
Q 2900 3119 2900 3481 
Q 2900 3844 2670 4047 
Q 2441 4250 2034 4250 
Q 1625 4250 1398 4047 
Q 1172 3844 1172 3481 
z
" transform="scale(0.015625)"/>
       </defs>
       <use xlink:href="#DejaVuSans-30"/>
       <use xlink:href="#DejaVuSans-31" transform="translate(63.623047 0)"/>
       <use xlink:href="#DejaVuSans-2d" transform="translate(127.246094 0)"/>
       <use xlink:href="#DejaVuSans-32" transform="translate(163.330078 0)"/>
       <use xlink:href="#DejaVuSans-38" transform="translate(226.953125 0)"/>
      </g>
     </g>
    </g>
    <g id="xtick_5">
     <g id="line2d_5">
      <g>
       <use xlink:href="#mf02638b780" x="274.639062" y="286.36" style="fill: #ffffff; stroke: #ffffff; stroke-width: 0.8"/>
      </g>
     </g>
     <g id="text_5">
      <!-- 01-29 -->
      <g style="fill: #ffffff" transform="translate(254.298593 303.997812) scale(0.14 -0.14)">
       <defs>
        <path id="DejaVuSans-39" d="M 703 97 
L 703 672 
Q 941 559 1184 500 
Q 1428 441 1663 441 
Q 2288 441 2617 861 
Q 2947 1281 2994 2138 
Q 2813 1869 2534 1725 
Q 2256 1581 1919 1581 
Q 1219 1581 811 2004 
Q 403 2428 403 3163 
Q 403 3881 828 4315 
Q 1253 4750 1959 4750 
Q 2769 4750 3195 4129 
Q 3622 3509 3622 2328 
Q 3622 1225 3098 567 
Q 2575 -91 1691 -91 
Q 1453 -91 1209 -44 
Q 966 3 703 97 
z
M 1959 2075 
Q 2384 2075 2632 2365 
Q 2881 2656 2881 3163 
Q 2881 3666 2632 3958 
Q 2384 4250 1959 4250 
Q 1534 4250 1286 3958 
Q 1038 3666 1038 3163 
Q 1038 2656 1286 2365 
Q 1534 2075 1959 2075 
z
" transform="scale(0.015625)"/>
       </defs>
       <use xlink:href="#DejaVuSans-30"/>
       <use xlink:href="#DejaVuSans-31" transform="translate(63.623047 0)"/>
       <use xlink:href="#DejaVuSans-2d" transform="translate(127.246094 0)"/>
       <use xlink:href="#DejaVuSans-32" transform="translate(163.330078 0)"/>
       <use xlink:href="#DejaVuSans-39" transform="translate(226.953125 0)"/>
      </g>
     </g>
    </g>
    <g id="xtick_6">
     <g id="line2d_6">
      <g>
       <use xlink:href="#mf02638b780" x="323.304059" y="286.36" style="fill: #ffffff; stroke: #ffffff; stroke-width: 0.8"/>
      </g>
     </g>
     <g id="text_6">
      <!-- 01-30 -->
      <g style="fill: #ffffff" transform="translate(302.96359 303.997812) scale(0.14 -0.14)">
       <defs>
        <path id="DejaVuSans-33" d="M 2597 2516 
Q 3050 2419 3304 2112 
Q 3559 1806 3559 1356 
Q 3559 666 3084 287 
Q 2609 -91 1734 -91 
Q 1441 -91 1130 -33 
Q 819 25 488 141 
L 488 750 
Q 750 597 1062 519 
Q 1375 441 1716 441 
Q 2309 441 2620 675 
Q 2931 909 2931 1356 
Q 2931 1769 2642 2001 
Q 2353 2234 1838 2234 
L 1294 2234 
L 1294 2753 
L 1863 2753 
Q 2328 2753 2575 2939 
Q 2822 3125 2822 3475 
Q 2822 3834 2567 4026 
Q 2313 4219 1838 4219 
Q 1578 4219 1281 4162 
Q 984 4106 628 3988 
L 628 4550 
Q 988 4650 1302 4700 
Q 1616 4750 1894 4750 
Q 2613 4750 3031 4423 
Q 3450 4097 3450 3541 
Q 3450 3153 3228 2886 
Q 3006 2619 2597 2516 
z
" transform="scale(0.015625)"/>
       </defs>
       <use xlink:href="#DejaVuSans-30"/>
       <use xlink:href="#DejaVuSans-31" transform="translate(63.623047 0)"/>
       <use xlink:href="#DejaVuSans-2d" transform="translate(127.246094 0)"/>
       <use xlink:href="#DejaVuSans-33" transform="translate(163.330078 0)"/>
       <use xlink:href="#DejaVuSans-30" transform="translate(226.953125 0)"/>
      </g>
     </g>
    </g>
    <g id="xtick_7">
     <g id="line2d_7">
      <g>
       <use xlink:href="#mf02638b780" x="371.969056" y="286.36" style="fill: #ffffff; stroke: #ffffff; stroke-width: 0.8"/>
      </g>
     </g>
     <g id="text_7">
      <!-- 01-31 -->
      <g style="fill: #ffffff" transform="translate(351.628587 303.997812) scale(0.14 -0.14)">
       <use xlink:href="#DejaVuSans-30"/>
       <use xlink:href="#DejaVuSans-31" transform="translate(63.623047 0)"/>
       <use xlink:href="#DejaVuSans-2d" transform="translate(127.246094 0)"/>
       <use xlink:href="#DejaVuSans-33" transform="translate(163.330078 0)"/>
       <use xlink:href="#DejaVuSans-31" transform="translate(226.953125 0)"/>
      </g>
     </g>
    </g>
    <g id="xtick_8">
     <g id="line2d_8">
      <g>
       <use xlink:href="#mf02638b780" x="420.634053" y="286.36" style="fill: #ffffff; stroke: #ffffff; stroke-width: 0.8"/>
      </g>
     </g>
     <g id="text_8">
      <!-- 02-01 -->
      <g style="fill: #ffffff" transform="translate(400.293585 303.997812) scale(0.14 -0.14)">
       <use xlink:href="#DejaVuSans-30"/>
       <use xlink:href="#DejaVuSans-32" transform="translate(63.623047 0)"/>
       <use xlink:href="#DejaVuSans-2d" transform="translate(127.246094 0)"/>
       <use xlink:href="#DejaVuSans-30" transform="translate(163.330078 0)"/>
       <use xlink:href="#DejaVuSans-31" transform="translate(226.953125 0)"/>
      </g>
     </g>
    </g>
    <g id="text_9">
     <!-- Date -->
     <g style="fill: #ffffff" transform="translate(232.81875 326.10625) scale(0.2 -0.2)">
      <defs>
       <path id="DejaVuSans-Bold-44" d="M 1791 3756 
L 1791 909 
L 2222 909 
Q 2959 909 3348 1275 
Q 3738 1641 3738 2338 
Q 3738 3031 3350 3393 
Q 2963 3756 2222 3756 
L 1791 3756 
z
M 588 4666 
L 1856 4666 
Q 2919 4666 3439 4514 
Q 3959 4363 4331 4000 
Q 4659 3684 4818 3271 
Q 4978 2859 4978 2338 
Q 4978 1809 4818 1395 
Q 4659 981 4331 666 
Q 3956 303 3431 151 
Q 2906 0 1856 0 
L 588 0 
L 588 4666 
z
" transform="scale(0.015625)"/>
       <path id="DejaVuSans-Bold-61" d="M 2106 1575 
Q 1756 1575 1579 1456 
Q 1403 1338 1403 1106 
Q 1403 894 1545 773 
Q 1688 653 1941 653 
Q 2256 653 2472 879 
Q 2688 1106 2688 1447 
L 2688 1575 
L 2106 1575 
z
M 3816 1997 
L 3816 0 
L 2688 0 
L 2688 519 
Q 2463 200 2181 54 
Q 1900 -91 1497 -91 
Q 953 -91 614 226 
Q 275 544 275 1050 
Q 275 1666 698 1953 
Q 1122 2241 2028 2241 
L 2688 2241 
L 2688 2328 
Q 2688 2594 2478 2717 
Q 2269 2841 1825 2841 
Q 1466 2841 1156 2769 
Q 847 2697 581 2553 
L 581 3406 
Q 941 3494 1303 3539 
Q 1666 3584 2028 3584 
Q 2975 3584 3395 3211 
Q 3816 2838 3816 1997 
z
" transform="scale(0.015625)"/>
       <path id="DejaVuSans-Bold-74" d="M 1759 4494 
L 1759 3500 
L 2913 3500 
L 2913 2700 
L 1759 2700 
L 1759 1216 
Q 1759 972 1856 886 
Q 1953 800 2241 800 
L 2816 800 
L 2816 0 
L 1856 0 
Q 1194 0 917 276 
Q 641 553 641 1216 
L 641 2700 
L 84 2700 
L 84 3500 
L 641 3500 
L 641 4494 
L 1759 4494 
z
" transform="scale(0.015625)"/>
       <path id="DejaVuSans-Bold-65" d="M 4031 1759 
L 4031 1441 
L 1416 1441 
Q 1456 1047 1700 850 
Q 1944 653 2381 653 
Q 2734 653 3104 758 
Q 3475 863 3866 1075 
L 3866 213 
Q 3469 63 3072 -14 
Q 2675 -91 2278 -91 
Q 1328 -91 801 392 
Q 275 875 275 1747 
Q 275 2603 792 3093 
Q 1309 3584 2216 3584 
Q 3041 3584 3536 3087 
Q 4031 2591 4031 1759 
z
M 2881 2131 
Q 2881 2450 2695 2645 
Q 2509 2841 2209 2841 
Q 1884 2841 1681 2658 
Q 1478 2475 1428 2131 
L 2881 2131 
z
" transform="scale(0.015625)"/>
      </defs>
      <use xlink:href="#DejaVuSans-Bold-44"/>
      <use xlink:href="#DejaVuSans-Bold-61" transform="translate(83.007812 0)"/>
      <use xlink:href="#DejaVuSans-Bold-74" transform="translate(150.488281 0)"/>
      <use xlink:href="#DejaVuSans-Bold-65" transform="translate(198.291016 0)"/>
     </g>
    </g>
   </g>
   <g id="matplotlib.axis_2">
    <g id="ytick_1">
     <g id="line2d_9">
      <defs>
       <path id="ma26ea4759e" d="M 0 0 
L -3.5 0 
" style="stroke: #ffffff; stroke-width: 0.8"/>
      </defs>
      <g>
       <use xlink:href="#ma26ea4759e" x="73.18625" y="262.626405" style="fill: #ffffff; stroke: #ffffff; stroke-width: 0.8"/>
      </g>
     </g>
     <g id="text_10">
      <!-- 1500 -->
      <g style="fill: #ffffff" transform="translate(30.55625 267.945312) scale(0.14 -0.14)">
       <use xlink:href="#DejaVuSans-31"/>
       <use xlink:href="#DejaVuSans-35" transform="translate(63.623047 0)"/>
       <use xlink:href="#DejaVuSans-30" transform="translate(127.246094 0)"/>
       <use xlink:href="#DejaVuSans-30" transform="translate(190.869141 0)"/>
      </g>
     </g>
    </g>
    <g id="ytick_2">
     <g id="line2d_10">
      <g>
       <use xlink:href="#ma26ea4759e" x="73.18625" y="181.596623" style="fill: #ffffff; stroke: #ffffff; stroke-width: 0.8"/>
      </g>
     </g>
     <g id="text_11">
      <!-- 2000 -->
      <g style="fill: #ffffff" transform="translate(30.55625 186.91553) scale(0.14 -0.14)">
       <use xlink:href="#DejaVuSans-32"/>
       <use xlink:href="#DejaVuSans-30" transform="translate(63.623047 0)"/>
       <use xlink:href="#DejaVuSans-30" transform="translate(127.246094 0)"/>
       <use xlink:href="#DejaVuSans-30" transform="translate(190.869141 0)"/>
      </g>
     </g>
    </g>
    <g id="ytick_3">
     <g id="line2d_11">
      <g>
       <use xlink:href="#ma26ea4759e" x="73.18625" y="100.566841" style="fill: #ffffff; stroke: #ffffff; stroke-width: 0.8"/>
      </g>
     </g>
     <g id="text_12">
      <!-- 2500 -->
      <g style="fill: #ffffff" transform="translate(30.55625 105.885748) scale(0.14 -0.14)">
       <use xlink:href="#DejaVuSans-32"/>
       <use xlink:href="#DejaVuSans-35" transform="translate(63.623047 0)"/>
       <use xlink:href="#DejaVuSans-30" transform="translate(127.246094 0)"/>
       <use xlink:href="#DejaVuSans-30" transform="translate(190.869141 0)"/>
      </g>
     </g>
    </g>
    <g id="ytick_4">
     <g id="line2d_12">
      <g>
       <use xlink:href="#ma26ea4759e" x="73.18625" y="19.537059" style="fill: #ffffff; stroke: #ffffff; stroke-width: 0.8"/>
      </g>
     </g>
     <g id="text_13">
      <!-- 3000 -->
      <g style="fill: #ffffff" transform="translate(30.55625 24.855966) scale(0.14 -0.14)">
       <use xlink:href="#DejaVuSans-33"/>
       <use xlink:href="#DejaVuSans-30" transform="translate(63.623047 0)"/>
       <use xlink:href="#DejaVuSans-30" transform="translate(127.246094 0)"/>
       <use xlink:href="#DejaVuSans-30" transform="translate(190.869141 0)"/>
      </g>
     </g>
    </g>
    <g id="text_14">
     <!-- Value -->
     <g style="fill: #ffffff" transform="translate(22.396875 178.047187) rotate(-90) scale(0.2 -0.2)">
      <defs>
       <path id="DejaVuSans-Bold-56" d="M 31 4666 
L 1241 4666 
L 2478 1222 
L 3713 4666 
L 4922 4666 
L 3194 0 
L 1759 0 
L 31 4666 
z
" transform="scale(0.015625)"/>
       <path id="DejaVuSans-Bold-6c" d="M 538 4863 
L 1656 4863 
L 1656 0 
L 538 0 
L 538 4863 
z
" transform="scale(0.015625)"/>
       <path id="DejaVuSans-Bold-75" d="M 500 1363 
L 500 3500 
L 1625 3500 
L 1625 3150 
Q 1625 2866 1622 2436 
Q 1619 2006 1619 1863 
Q 1619 1441 1641 1255 
Q 1663 1069 1716 984 
Q 1784 875 1895 815 
Q 2006 756 2150 756 
Q 2500 756 2700 1025 
Q 2900 1294 2900 1772 
L 2900 3500 
L 4019 3500 
L 4019 0 
L 2900 0 
L 2900 506 
Q 2647 200 2364 54 
Q 2081 -91 1741 -91 
Q 1134 -91 817 281 
Q 500 653 500 1363 
z
" transform="scale(0.015625)"/>
      </defs>
      <use xlink:href="#DejaVuSans-Bold-56"/>
      <use xlink:href="#DejaVuSans-Bold-61" transform="translate(71.892578 0)"/>
      <use xlink:href="#DejaVuSans-Bold-6c" transform="translate(139.373047 0)"/>
      <use xlink:href="#DejaVuSans-Bold-75" transform="translate(173.650391 0)"/>
      <use xlink:href="#DejaVuSans-Bold-65" transform="translate(244.841797 0)"/>
     </g>
    </g>
   </g>
   <g id="line2d_13">
    <path d="M 90.117614 88.088255 
L 92.145322 110.614534 
L 94.17303 138.650839 
L 96.200738 165.066548 
L 98.228447 182.73104 
L 100.256155 196.019924 
L 102.283863 203.798784 
L 104.311571 211.415583 
L 106.339279 210.767345 
L 108.366988 208.66057 
L 110.394696 197.478461 
L 112.422404 182.082802 
L 114.450112 158.584165 
L 116.47782 142.864387 
L 118.505529 124.065478 
L 120.533237 113.369547 
L 122.560945 97.973888 
L 124.588653 86.3056 
L 126.616362 71.720239 
L 128.64407 62.969022 
L 130.671778 55.190163 
L 132.699486 55.190163 
L 134.727194 61.510486 
L 136.754903 82.254111 
L 138.782611 96.029173 
L 140.810319 117.745155 
L 142.838027 149.50883 
L 144.865736 176.086598 
L 146.893444 192.130495 
L 148.921152 205.419379 
L 150.94886 214.980893 
L 152.976568 218.708263 
L 155.004277 220.00474 
L 157.031985 221.787395 
L 159.059693 213.360298 
L 161.087401 196.992282 
L 163.11511 180.624266 
L 165.142818 164.580369 
L 167.170526 154.370617 
L 169.198234 142.702328 
L 171.225942 133.789052 
L 173.253651 120.986346 
L 175.281359 106.563045 
L 177.309067 96.353293 
L 179.336775 87.926195 
L 181.364484 89.708851 
L 183.392192 100.566841 
L 185.4199 114.341904 
L 187.447608 124.227538 
L 189.475316 145.295281 
L 191.503025 176.248658 
L 193.530733 198.450818 
L 195.558441 210.605285 
L 197.586149 219.84268 
L 199.613858 224.056229 
L 201.641566 224.866527 
L 203.669274 217.897966 
L 205.696982 201.043771 
L 207.72469 182.73104 
L 209.752399 165.714786 
L 211.780107 155.667093 
L 213.807815 147.239996 
L 215.835523 140.757613 
L 217.863231 140.109375 
L 219.89094 138.650839 
L 221.918648 134.761409 
L 223.946356 130.223741 
L 225.974064 129.413444 
L 228.001773 125.361955 
L 230.029481 125.037835 
L 232.057189 130.547861 
L 234.084897 135.085528 
L 236.112605 139.137018 
L 238.140314 153.07414 
L 240.168022 181.434564 
L 242.19573 202.502307 
L 244.223438 212.063821 
L 246.251147 220.815038 
L 248.278855 224.056229 
L 250.306563 224.218289 
L 252.334271 217.411787 
L 254.361979 201.52995 
L 256.389688 182.244862 
L 258.417396 167.335382 
L 260.445104 156.96357 
L 262.472812 147.888234 
L 264.500521 138.812898 
L 266.528229 134.113171 
L 268.555937 127.468729 
L 270.583645 119.68987 
L 272.611353 112.559249 
L 274.639062 104.94245 
L 276.66677 96.029173 
L 278.694478 88.250314 
L 280.722186 90.519148 
L 282.749895 99.756543 
L 284.777603 108.993939 
L 286.805311 128.603146 
L 288.833019 157.611808 
L 290.860727 181.434564 
L 292.888436 196.668163 
L 294.916144 204.122903 
L 296.943852 212.063821 
L 298.97156 212.225881 
L 300.999269 205.743498 
L 303.026977 191.482257 
L 305.054685 174.628062 
L 307.082393 156.96357 
L 309.110101 143.512626 
L 311.13781 136.868184 
L 313.165518 124.551657 
L 315.193226 115.152202 
L 317.220934 100.242722 
L 319.248642 86.14354 
L 321.276351 73.664954 
L 323.304059 62.806963 
L 325.331767 52.921329 
L 327.359475 47.249245 
L 329.387184 49.518079 
L 331.414892 61.348427 
" clip-path="url(#p7d96ea542d)" style="fill: none; stroke: #ffffff; stroke-opacity: 0.9; stroke-width: 2; stroke-linecap: square"/>
   </g>
   <g id="line2d_14">
    <path d="M 333.4426 72.840391 
L 335.470308 95.204807 
L 337.498016 127.826677 
L 339.525725 154.60102 
L 341.553433 171.846837 
L 343.581141 184.071462 
L 345.608849 193.501118 
L 347.636558 197.615296 
L 349.664266 194.739089 
L 351.691974 184.478089 
L 353.719682 169.743382 
L 355.74739 153.903563 
L 357.775099 141.306442 
L 359.802807 132.402238 
L 361.830515 121.582261 
L 363.858223 114.230377 
L 365.885932 104.413666 
L 367.91364 94.458559 
L 369.941348 85.302347 
L 371.969056 79.111008 
L 373.996764 73.18187 
L 376.024473 71.638412 
L 378.052181 77.317973 
L 380.079889 89.66628 
L 382.107597 100.690318 
L 384.135306 121.838995 
L 386.163014 153.446724 
L 388.190722 178.927009 
L 390.21843 194.5286 
L 392.246138 205.85282 
L 394.273847 213.796734 
L 396.301555 216.915711 
L 398.329263 213.22376 
L 400.356971 202.33271 
L 402.38468 186.675106 
L 404.412388 170.159028 
L 406.440096 156.833835 
L 408.467804 146.581904 
L 410.495512 135.197986 
L 412.523221 127.283345 
L 414.550929 117.536616 
L 416.578637 107.476864 
L 418.606345 98.164044 
L 420.634053 91.795307 
L 422.661762 85.669998 
L 424.68947 83.873236 
L 426.717178 89.524923 
L 428.744886 101.587162 
" clip-path="url(#p7d96ea542d)" style="fill: none; stroke: #72fcdb; stroke-width: 2.5; stroke-linecap: square"/>
    <defs>
     <path id="m2dea7c7941" d="M 0 2 
C 0.530406 2 1.03916 1.789267 1.414214 1.414214 
C 1.789267 1.03916 2 0.530406 2 0 
C 2 -0.530406 1.789267 -1.03916 1.414214 -1.414214 
C 1.03916 -1.789267 0.530406 -2 0 -2 
C -0.530406 -2 -1.03916 -1.789267 -1.414214 -1.414214 
C -1.789267 -1.03916 -2 -0.530406 -2 0 
C -2 0.530406 -1.789267 1.03916 -1.414214 1.414214 
C -1.03916 1.789267 -0.530406 2 0 2 
z
" style="stroke: #72fcdb"/>
    </defs>
    <g clip-path="url(#p7d96ea542d)">
     <use xlink:href="#m2dea7c7941" x="333.4426" y="72.840391" style="fill: #72fcdb; stroke: #72fcdb"/>
     <use xlink:href="#m2dea7c7941" x="335.470308" y="95.204807" style="fill: #72fcdb; stroke: #72fcdb"/>
     <use xlink:href="#m2dea7c7941" x="337.498016" y="127.826677" style="fill: #72fcdb; stroke: #72fcdb"/>
     <use xlink:href="#m2dea7c7941" x="339.525725" y="154.60102" style="fill: #72fcdb; stroke: #72fcdb"/>
     <use xlink:href="#m2dea7c7941" x="341.553433" y="171.846837" style="fill: #72fcdb; stroke: #72fcdb"/>
     <use xlink:href="#m2dea7c7941" x="343.581141" y="184.071462" style="fill: #72fcdb; stroke: #72fcdb"/>
     <use xlink:href="#m2dea7c7941" x="345.608849" y="193.501118" style="fill: #72fcdb; stroke: #72fcdb"/>
     <use xlink:href="#m2dea7c7941" x="347.636558" y="197.615296" style="fill: #72fcdb; stroke: #72fcdb"/>
     <use xlink:href="#m2dea7c7941" x="349.664266" y="194.739089" style="fill: #72fcdb; stroke: #72fcdb"/>
     <use xlink:href="#m2dea7c7941" x="351.691974" y="184.478089" style="fill: #72fcdb; stroke: #72fcdb"/>
     <use xlink:href="#m2dea7c7941" x="353.719682" y="169.743382" style="fill: #72fcdb; stroke: #72fcdb"/>
     <use xlink:href="#m2dea7c7941" x="355.74739" y="153.903563" style="fill: #72fcdb; stroke: #72fcdb"/>
     <use xlink:href="#m2dea7c7941" x="357.775099" y="141.306442" style="fill: #72fcdb; stroke: #72fcdb"/>
     <use xlink:href="#m2dea7c7941" x="359.802807" y="132.402238" style="fill: #72fcdb; stroke: #72fcdb"/>
     <use xlink:href="#m2dea7c7941" x="361.830515" y="121.582261" style="fill: #72fcdb; stroke: #72fcdb"/>
     <use xlink:href="#m2dea7c7941" x="363.858223" y="114.230377" style="fill: #72fcdb; stroke: #72fcdb"/>
     <use xlink:href="#m2dea7c7941" x="365.885932" y="104.413666" style="fill: #72fcdb; stroke: #72fcdb"/>
     <use xlink:href="#m2dea7c7941" x="367.91364" y="94.458559" style="fill: #72fcdb; stroke: #72fcdb"/>
     <use xlink:href="#m2dea7c7941" x="369.941348" y="85.302347" style="fill: #72fcdb; stroke: #72fcdb"/>
     <use xlink:href="#m2dea7c7941" x="371.969056" y="79.111008" style="fill: #72fcdb; stroke: #72fcdb"/>
     <use xlink:href="#m2dea7c7941" x="373.996764" y="73.18187" style="fill: #72fcdb; stroke: #72fcdb"/>
     <use xlink:href="#m2dea7c7941" x="376.024473" y="71.638412" style="fill: #72fcdb; stroke: #72fcdb"/>
     <use xlink:href="#m2dea7c7941" x="378.052181" y="77.317973" style="fill: #72fcdb; stroke: #72fcdb"/>
     <use xlink:href="#m2dea7c7941" x="380.079889" y="89.66628" style="fill: #72fcdb; stroke: #72fcdb"/>
     <use xlink:href="#m2dea7c7941" x="382.107597" y="100.690318" style="fill: #72fcdb; stroke: #72fcdb"/>
     <use xlink:href="#m2dea7c7941" x="384.135306" y="121.838995" style="fill: #72fcdb; stroke: #72fcdb"/>
     <use xlink:href="#m2dea7c7941" x="386.163014" y="153.446724" style="fill: #72fcdb; stroke: #72fcdb"/>
     <use xlink:href="#m2dea7c7941" x="388.190722" y="178.927009" style="fill: #72fcdb; stroke: #72fcdb"/>
     <use xlink:href="#m2dea7c7941" x="390.21843" y="194.5286" style="fill: #72fcdb; stroke: #72fcdb"/>
     <use xlink:href="#m2dea7c7941" x="392.246138" y="205.85282" style="fill: #72fcdb; stroke: #72fcdb"/>
     <use xlink:href="#m2dea7c7941" x="394.273847" y="213.796734" style="fill: #72fcdb; stroke: #72fcdb"/>
     <use xlink:href="#m2dea7c7941" x="396.301555" y="216.915711" style="fill: #72fcdb; stroke: #72fcdb"/>
     <use xlink:href="#m2dea7c7941" x="398.329263" y="213.22376" style="fill: #72fcdb; stroke: #72fcdb"/>
     <use xlink:href="#m2dea7c7941" x="400.356971" y="202.33271" style="fill: #72fcdb; stroke: #72fcdb"/>
     <use xlink:href="#m2dea7c7941" x="402.38468" y="186.675106" style="fill: #72fcdb; stroke: #72fcdb"/>
     <use xlink:href="#m2dea7c7941" x="404.412388" y="170.159028" style="fill: #72fcdb; stroke: #72fcdb"/>
     <use xlink:href="#m2dea7c7941" x="406.440096" y="156.833835" style="fill: #72fcdb; stroke: #72fcdb"/>
     <use xlink:href="#m2dea7c7941" x="408.467804" y="146.581904" style="fill: #72fcdb; stroke: #72fcdb"/>
     <use xlink:href="#m2dea7c7941" x="410.495512" y="135.197986" style="fill: #72fcdb; stroke: #72fcdb"/>
     <use xlink:href="#m2dea7c7941" x="412.523221" y="127.283345" style="fill: #72fcdb; stroke: #72fcdb"/>
     <use xlink:href="#m2dea7c7941" x="414.550929" y="117.536616" style="fill: #72fcdb; stroke: #72fcdb"/>
     <use xlink:href="#m2dea7c7941" x="416.578637" y="107.476864" style="fill: #72fcdb; stroke: #72fcdb"/>
     <use xlink:href="#m2dea7c7941" x="418.606345" y="98.164044" style="fill: #72fcdb; stroke: #72fcdb"/>
     <use xlink:href="#m2dea7c7941" x="420.634053" y="91.795307" style="fill: #72fcdb; stroke: #72fcdb"/>
     <use xlink:href="#m2dea7c7941" x="422.661762" y="85.669998" style="fill: #72fcdb; stroke: #72fcdb"/>
     <use xlink:href="#m2dea7c7941" x="424.68947" y="83.873236" style="fill: #72fcdb; stroke: #72fcdb"/>
     <use xlink:href="#m2dea7c7941" x="426.717178" y="89.524923" style="fill: #72fcdb; stroke: #72fcdb"/>
     <use xlink:href="#m2dea7c7941" x="428.744886" y="101.587162" style="fill: #72fcdb; stroke: #72fcdb"/>
    </g>
   </g>
   <g id="patch_3">
    <path d="M 73.18625 286.36 
L 73.18625 7.2 
" style="fill: none; stroke: #72fcdb; stroke-width: 2; stroke-linejoin: miter; stroke-linecap: square"/>
   </g>
   <g id="patch_4">
    <path d="M 73.18625 286.36 
L 445.67625 286.36 
" style="fill: none; stroke: #72fcdb; stroke-width: 2; stroke-linejoin: miter; stroke-linecap: square"/>
   </g>
  </g>
 </g>
 <defs>
  <clipPath id="p7d96ea542d">
   <rect x="73.18625" y="7.2" width="372.49" height="279.16"/>
  </clipPath>
 </defs>
</svg>
