<?xml version="1.0" encoding="utf-8" standalone="no"?>
<!DOCTYPE svg PUBLIC "-//W3C//DTD SVG 1.1//EN"
  "http://www.w3.org/Graphics/SVG/1.1/DTD/svg11.dtd">
<svg xmlns:xlink="http://www.w3.org/1999/xlink" width="712.8pt" height="432pt" viewBox="0 0 712.8 432" xmlns="http://www.w3.org/2000/svg" version="1.1">
 <metadata>
  <rdf:RDF xmlns:dc="http://purl.org/dc/elements/1.1/" xmlns:cc="http://creativecommons.org/ns#" xmlns:rdf="http://www.w3.org/1999/02/22-rdf-syntax-ns#">
   <cc:Work>
    <dc:type rdf:resource="http://purl.org/dc/dcmitype/StillImage"/>
    <dc:date>2025-07-21T19:21:47.681557</dc:date>
    <dc:format>image/svg+xml</dc:format>
    <dc:creator>
     <cc:Agent>
      <dc:title>Matplotlib v3.10.3, https://matplotlib.org/</dc:title>
     </cc:Agent>
    </dc:creator>
   </cc:Work>
  </rdf:RDF>
 </metadata>
 <defs>
  <style type="text/css">*{stroke-linejoin: round; stroke-linecap: butt}</style>
 </defs>
 <g id="figure_1">
  <g id="patch_1">
   <path d="M 0 432 
L 712.8 432 
L 712.8 0 
L 0 0 
z
" style="fill: #160741"/>
  </g>
  <g id="axes_1">
   <g id="patch_2">
    <path d="M 7.2 424.8 
L 705.6 424.8 
L 705.6 7.2 
L 7.2 7.2 
z
" style="fill: #160741"/>
   </g>
   <g id="matplotlib.axis_1"/>
   <g id="matplotlib.axis_2"/>
   <g id="line2d_1">
    <path d="M 103.512481 205.267902 
L 114.273652 243.382465 
L 125.034823 222.660059 
L 135.795994 152.566763 
L 146.557165 123.263012 
L 157.318336 122.153855 
L 168.079507 88.357575 
L 178.840678 33.189975 
L 189.601849 26.181818 
L 200.36302 39.208595 
L 211.124191 76.769455 
L 221.885362 94.868746 
L 232.646533 91.272947 
L 243.407704 79.264228 
L 254.168875 142.519809 
L 264.930046 143.38455 
L 275.691217 153.837543 
L 286.452388 166.997077 
L 297.213559 167.855284 
L 307.97473 169.104169 
L 318.735901 125.268188 
L 329.497072 167.588943 
L 340.258243 143.395714 
L 351.019414 105.496371 
L 361.780586 132.49746 
L 372.541757 140.720467 
L 383.302928 142.089815 
L 394.064099 201.045269 
L 404.82527 161.422631 
L 415.586441 205.761895 
L 426.347612 194.302835 
L 437.108783 131.27698 
L 447.869954 96.988661 
L 458.631125 73.437156 
L 469.392296 66.669911 
L 480.153467 60.421108 
L 490.914638 26.427253 
L 501.675809 86.678501 
L 512.43698 90.236218 
L 523.198151 120.355277 
L 533.959322 141.916124 
L 544.720493 102.976295 
L 555.481664 81.986343 
L 566.242835 98.475727 
L 577.004006 48.380514 
L 587.765177 84.313341 
L 598.526348 65.641685 
L 609.287519 44.669482 
L 620.04869 64.664783 
L 630.809861 66.068468 
L 641.571032 83.377988 
L 652.332203 87.195773 
L 663.093374 67.702056 
L 673.854545 90.131641 
" clip-path="url(#pe33358cbe9)" style="fill: none; stroke: #02fefa; stroke-width: 4; stroke-linecap: square"/>
   </g>
   <g id="line2d_2">
    <path d="M 38.945455 54.793264 
L 49.706626 290.888335 
L 60.467797 405.818182 
L 71.228968 347.217126 
L 81.990139 256.250555 
L 92.75131 242.10002 
L 103.512481 205.267902 
L 114.273652 219.808814 
L 125.034823 237.821898 
L 135.795994 228.542189 
L 146.557165 204.700872 
L 157.318336 178.02748 
L 168.079507 159.315626 
L 178.840678 119.228938 
L 189.601849 129.44955 
L 200.36302 150.928578 
L 211.124191 166.047534 
L 221.885362 161.988378 
L 232.646533 146.065284 
L 243.407704 131.297637 
L 254.168875 126.992562 
L 264.930046 133.883413 
L 275.691217 151.813915 
L 286.452388 166.324484 
L 297.213559 163.631112 
L 307.97473 152.26806 
L 318.735901 129.734446 
L 329.497072 137.141657 
L 340.258243 136.179486 
L 351.019414 141.006488 
L 361.780586 158.686124 
L 372.541757 158.619408 
L 383.302928 150.109039 
L 394.064099 144.416086 
L 404.82527 141.997852 
L 415.586441 149.709399 
L 426.347612 151.089581 
L 437.108783 153.637071 
L 447.869954 147.557479 
L 458.631125 136.691459 
L 469.392296 131.142349 
L 480.153467 128.401728 
L 490.914638 129.640212 
L 501.675809 140.842363 
L 512.43698 143.774716 
L 523.198151 143.418014 
L 533.959322 137.469601 
L 544.720493 127.0348 
L 555.481664 121.770958 
L 566.242835 125.277184 
L 577.004006 128.151521 
L 587.765177 135.7703 
L 598.526348 133.145669 
L 609.287519 125.439956 
L 620.04869 119.096797 
L 630.809861 114.808147 
L 641.571032 120.131669 
L 652.332203 123.208586 
L 663.093374 127.694407 
L 673.854545 128.127365 
" clip-path="url(#pe33358cbe9)" style="fill: none; stroke: #98fe09; stroke-width: 4; stroke-linecap: square"/>
   </g>
   <g id="legend_1">
    <g id="line2d_3">
     <path d="M 387.345 354.58125 
L 411.345 354.58125 
L 435.345 354.58125 
" style="fill: none; stroke: #02fefa; stroke-width: 4; stroke-linecap: square"/>
    </g>
    <g id="text_1">
     <!-- 7-day Rolling Mean -->
     <g style="fill: #ffffff" transform="translate(454.545 362.98125) scale(0.24 -0.24)">
      <defs>
       <path id="DejaVuSans-37" d="M 525 4666 
L 3525 4666 
L 3525 4397 
L 1831 0 
L 1172 0 
L 2766 4134 
L 525 4134 
L 525 4666 
z
" transform="scale(0.015625)"/>
       <path id="DejaVuSans-2d" d="M 313 2009 
L 1997 2009 
L 1997 1497 
L 313 1497 
L 313 2009 
z
" transform="scale(0.015625)"/>
       <path id="DejaVuSans-64" d="M 2906 2969 
L 2906 4863 
L 3481 4863 
L 3481 0 
L 2906 0 
L 2906 525 
Q 2725 213 2448 61 
Q 2172 -91 1784 -91 
Q 1150 -91 751 415 
Q 353 922 353 1747 
Q 353 2572 751 3078 
Q 1150 3584 1784 3584 
Q 2172 3584 2448 3432 
Q 2725 3281 2906 2969 
z
M 947 1747 
Q 947 1113 1208 752 
Q 1469 391 1925 391 
Q 2381 391 2643 752 
Q 2906 1113 2906 1747 
Q 2906 2381 2643 2742 
Q 2381 3103 1925 3103 
Q 1469 3103 1208 2742 
Q 947 2381 947 1747 
z
" transform="scale(0.015625)"/>
       <path id="DejaVuSans-61" d="M 2194 1759 
Q 1497 1759 1228 1600 
Q 959 1441 959 1056 
Q 959 750 1161 570 
Q 1363 391 1709 391 
Q 2188 391 2477 730 
Q 2766 1069 2766 1631 
L 2766 1759 
L 2194 1759 
z
M 3341 1997 
L 3341 0 
L 2766 0 
L 2766 531 
Q 2569 213 2275 61 
Q 1981 -91 1556 -91 
Q 1019 -91 701 211 
Q 384 513 384 1019 
Q 384 1609 779 1909 
Q 1175 2209 1959 2209 
L 2766 2209 
L 2766 2266 
Q 2766 2663 2505 2880 
Q 2244 3097 1772 3097 
Q 1472 3097 1187 3025 
Q 903 2953 641 2809 
L 641 3341 
Q 956 3463 1253 3523 
Q 1550 3584 1831 3584 
Q 2591 3584 2966 3190 
Q 3341 2797 3341 1997 
z
" transform="scale(0.015625)"/>
       <path id="DejaVuSans-79" d="M 2059 -325 
Q 1816 -950 1584 -1140 
Q 1353 -1331 966 -1331 
L 506 -1331 
L 506 -850 
L 844 -850 
Q 1081 -850 1212 -737 
Q 1344 -625 1503 -206 
L 1606 56 
L 191 3500 
L 800 3500 
L 1894 763 
L 2988 3500 
L 3597 3500 
L 2059 -325 
z
" transform="scale(0.015625)"/>
       <path id="DejaVuSans-20" transform="scale(0.015625)"/>
       <path id="DejaVuSans-52" d="M 2841 2188 
Q 3044 2119 3236 1894 
Q 3428 1669 3622 1275 
L 4263 0 
L 3584 0 
L 2988 1197 
Q 2756 1666 2539 1819 
Q 2322 1972 1947 1972 
L 1259 1972 
L 1259 0 
L 628 0 
L 628 4666 
L 2053 4666 
Q 2853 4666 3247 4331 
Q 3641 3997 3641 3322 
Q 3641 2881 3436 2590 
Q 3231 2300 2841 2188 
z
M 1259 4147 
L 1259 2491 
L 2053 2491 
Q 2509 2491 2742 2702 
Q 2975 2913 2975 3322 
Q 2975 3731 2742 3939 
Q 2509 4147 2053 4147 
L 1259 4147 
z
" transform="scale(0.015625)"/>
       <path id="DejaVuSans-6f" d="M 1959 3097 
Q 1497 3097 1228 2736 
Q 959 2375 959 1747 
Q 959 1119 1226 758 
Q 1494 397 1959 397 
Q 2419 397 2687 759 
Q 2956 1122 2956 1747 
Q 2956 2369 2687 2733 
Q 2419 3097 1959 3097 
z
M 1959 3584 
Q 2709 3584 3137 3096 
Q 3566 2609 3566 1747 
Q 3566 888 3137 398 
Q 2709 -91 1959 -91 
Q 1206 -91 779 398 
Q 353 888 353 1747 
Q 353 2609 779 3096 
Q 1206 3584 1959 3584 
z
" transform="scale(0.015625)"/>
       <path id="DejaVuSans-6c" d="M 603 4863 
L 1178 4863 
L 1178 0 
L 603 0 
L 603 4863 
z
" transform="scale(0.015625)"/>
       <path id="DejaVuSans-69" d="M 603 3500 
L 1178 3500 
L 1178 0 
L 603 0 
L 603 3500 
z
M 603 4863 
L 1178 4863 
L 1178 4134 
L 603 4134 
L 603 4863 
z
" transform="scale(0.015625)"/>
       <path id="DejaVuSans-6e" d="M 3513 2113 
L 3513 0 
L 2938 0 
L 2938 2094 
Q 2938 2591 2744 2837 
Q 2550 3084 2163 3084 
Q 1697 3084 1428 2787 
Q 1159 2491 1159 1978 
L 1159 0 
L 581 0 
L 581 3500 
L 1159 3500 
L 1159 2956 
Q 1366 3272 1645 3428 
Q 1925 3584 2291 3584 
Q 2894 3584 3203 3211 
Q 3513 2838 3513 2113 
z
" transform="scale(0.015625)"/>
       <path id="DejaVuSans-67" d="M 2906 1791 
Q 2906 2416 2648 2759 
Q 2391 3103 1925 3103 
Q 1463 3103 1205 2759 
Q 947 2416 947 1791 
Q 947 1169 1205 825 
Q 1463 481 1925 481 
Q 2391 481 2648 825 
Q 2906 1169 2906 1791 
z
M 3481 434 
Q 3481 -459 3084 -895 
Q 2688 -1331 1869 -1331 
Q 1566 -1331 1297 -1286 
Q 1028 -1241 775 -1147 
L 775 -588 
Q 1028 -725 1275 -790 
Q 1522 -856 1778 -856 
Q 2344 -856 2625 -561 
Q 2906 -266 2906 331 
L 2906 616 
Q 2728 306 2450 153 
Q 2172 0 1784 0 
Q 1141 0 747 490 
Q 353 981 353 1791 
Q 353 2603 747 3093 
Q 1141 3584 1784 3584 
Q 2172 3584 2450 3431 
Q 2728 3278 2906 2969 
L 2906 3500 
L 3481 3500 
L 3481 434 
z
" transform="scale(0.015625)"/>
       <path id="DejaVuSans-4d" d="M 628 4666 
L 1569 4666 
L 2759 1491 
L 3956 4666 
L 4897 4666 
L 4897 0 
L 4281 0 
L 4281 4097 
L 3078 897 
L 2444 897 
L 1241 4097 
L 1241 0 
L 628 0 
L 628 4666 
z
" transform="scale(0.015625)"/>
       <path id="DejaVuSans-65" d="M 3597 1894 
L 3597 1613 
L 953 1613 
Q 991 1019 1311 708 
Q 1631 397 2203 397 
Q 2534 397 2845 478 
Q 3156 559 3463 722 
L 3463 178 
Q 3153 47 2828 -22 
Q 2503 -91 2169 -91 
Q 1331 -91 842 396 
Q 353 884 353 1716 
Q 353 2575 817 3079 
Q 1281 3584 2069 3584 
Q 2775 3584 3186 3129 
Q 3597 2675 3597 1894 
z
M 3022 2063 
Q 3016 2534 2758 2815 
Q 2500 3097 2075 3097 
Q 1594 3097 1305 2825 
Q 1016 2553 972 2059 
L 3022 2063 
z
" transform="scale(0.015625)"/>
      </defs>
      <use xlink:href="#DejaVuSans-37"/>
      <use xlink:href="#DejaVuSans-2d" transform="translate(63.623047 0)"/>
      <use xlink:href="#DejaVuSans-64" transform="translate(99.707031 0)"/>
      <use xlink:href="#DejaVuSans-61" transform="translate(163.183594 0)"/>
      <use xlink:href="#DejaVuSans-79" transform="translate(224.462891 0)"/>
      <use xlink:href="#DejaVuSans-20" transform="translate(283.642578 0)"/>
      <use xlink:href="#DejaVuSans-52" transform="translate(315.429688 0)"/>
      <use xlink:href="#DejaVuSans-6f" transform="translate(380.412109 0)"/>
      <use xlink:href="#DejaVuSans-6c" transform="translate(441.59375 0)"/>
      <use xlink:href="#DejaVuSans-6c" transform="translate(469.376953 0)"/>
      <use xlink:href="#DejaVuSans-69" transform="translate(497.160156 0)"/>
      <use xlink:href="#DejaVuSans-6e" transform="translate(524.943359 0)"/>
      <use xlink:href="#DejaVuSans-67" transform="translate(588.322266 0)"/>
      <use xlink:href="#DejaVuSans-20" transform="translate(651.798828 0)"/>
      <use xlink:href="#DejaVuSans-4d" transform="translate(683.585938 0)"/>
      <use xlink:href="#DejaVuSans-65" transform="translate(769.865234 0)"/>
      <use xlink:href="#DejaVuSans-61" transform="translate(831.388672 0)"/>
      <use xlink:href="#DejaVuSans-6e" transform="translate(892.667969 0)"/>
     </g>
    </g>
    <g id="line2d_4">
     <path d="M 387.345 389.80875 
L 411.345 389.80875 
L 435.345 389.80875 
" style="fill: none; stroke: #98fe09; stroke-width: 4; stroke-linecap: square"/>
    </g>
    <g id="text_2">
     <!-- Expanding Mean -->
     <g style="fill: #ffffff" transform="translate(454.545 398.20875) scale(0.24 -0.24)">
      <defs>
       <path id="DejaVuSans-45" d="M 628 4666 
L 3578 4666 
L 3578 4134 
L 1259 4134 
L 1259 2753 
L 3481 2753 
L 3481 2222 
L 1259 2222 
L 1259 531 
L 3634 531 
L 3634 0 
L 628 0 
L 628 4666 
z
" transform="scale(0.015625)"/>
       <path id="DejaVuSans-78" d="M 3513 3500 
L 2247 1797 
L 3578 0 
L 2900 0 
L 1881 1375 
L 863 0 
L 184 0 
L 1544 1831 
L 300 3500 
L 978 3500 
L 1906 2253 
L 2834 3500 
L 3513 3500 
z
" transform="scale(0.015625)"/>
       <path id="DejaVuSans-70" d="M 1159 525 
L 1159 -1331 
L 581 -1331 
L 581 3500 
L 1159 3500 
L 1159 2969 
Q 1341 3281 1617 3432 
Q 1894 3584 2278 3584 
Q 2916 3584 3314 3078 
Q 3713 2572 3713 1747 
Q 3713 922 3314 415 
Q 2916 -91 2278 -91 
Q 1894 -91 1617 61 
Q 1341 213 1159 525 
z
M 3116 1747 
Q 3116 2381 2855 2742 
Q 2594 3103 2138 3103 
Q 1681 3103 1420 2742 
Q 1159 2381 1159 1747 
Q 1159 1113 1420 752 
Q 1681 391 2138 391 
Q 2594 391 2855 752 
Q 3116 1113 3116 1747 
z
" transform="scale(0.015625)"/>
      </defs>
      <use xlink:href="#DejaVuSans-45"/>
      <use xlink:href="#DejaVuSans-78" transform="translate(63.183594 0)"/>
      <use xlink:href="#DejaVuSans-70" transform="translate(122.363281 0)"/>
      <use xlink:href="#DejaVuSans-61" transform="translate(185.839844 0)"/>
      <use xlink:href="#DejaVuSans-6e" transform="translate(247.119141 0)"/>
      <use xlink:href="#DejaVuSans-64" transform="translate(310.498047 0)"/>
      <use xlink:href="#DejaVuSans-69" transform="translate(373.974609 0)"/>
      <use xlink:href="#DejaVuSans-6e" transform="translate(401.757812 0)"/>
      <use xlink:href="#DejaVuSans-67" transform="translate(465.136719 0)"/>
      <use xlink:href="#DejaVuSans-20" transform="translate(528.613281 0)"/>
      <use xlink:href="#DejaVuSans-4d" transform="translate(560.400391 0)"/>
      <use xlink:href="#DejaVuSans-65" transform="translate(646.679688 0)"/>
      <use xlink:href="#DejaVuSans-61" transform="translate(708.203125 0)"/>
      <use xlink:href="#DejaVuSans-6e" transform="translate(769.482422 0)"/>
     </g>
    </g>
   </g>
  </g>
 </g>
 <defs>
  <clipPath id="pe33358cbe9">
   <rect x="7.2" y="7.2" width="698.4" height="417.6"/>
  </clipPath>
 </defs>
</svg>
